<svg id="noun-analytics-7427280" xmlns="http://www.w3.org/2000/svg" width="27.975" height="24.867" viewBox="0 0 27.975 24.867">
  <path id="Path_100547" data-name="Path 100547" d="M6.375,65.625A3.628,3.628,0,0,0,9.96,68.733H19.8v2.072H17.213a1.036,1.036,0,1,0,0,2.072h7.253a1.036,1.036,0,1,0,0-2.072H21.875V68.733h8.806a3.628,3.628,0,0,0,3.585-3.108Z" transform="translate(-6.333 -48.011)" fill="#fff"/>
  <path id="Path_100548" data-name="Path 100548" d="M30.6,12.5H9.877A3.631,3.631,0,0,0,6.25,16.127V28.042H34.225V16.127A3.631,3.631,0,0,0,30.6,12.5Zm-2.072,7.771a1.036,1.036,0,0,1-2.072,0v-.456l-4.3,4.3a1.038,1.038,0,0,1-1.466,0l-3.934-3.934L12.794,24.14a1.036,1.036,0,1,1-1.466-1.464l4.689-4.692a1.038,1.038,0,0,1,1.466,0l3.937,3.935,3.718-3.72h-.758a1.036,1.036,0,0,1,0-2.072h3.108a1.036,1.036,0,0,1,1.037,1.033v3.108Z" transform="translate(-6.25 -12.5)" fill="#fff"/>
</svg>
