<svg xmlns="http://www.w3.org/2000/svg" xmlns:xlink="http://www.w3.org/1999/xlink" width="200" height="229" viewBox="0 0 200 229">
  <defs>
    <clipPath id="clip-path">
      <rect id="Rectangle_442" data-name="Rectangle 442" width="200" height="229" fill="#b1d5f8"/>
    </clipPath>
  </defs>
  <g id="Mask_Group_17" data-name="Mask Group 17" clip-path="url(#clip-path)">
    <g id="n.133_Working_From_Everywhere" data-name="n.133 Working From Everywhere" transform="translate(-66.3 -23.576)">
      <path id="Path_1998" data-name="Path 1998" d="M426.419,474.209c-.519.039-1.033.078-1.552.131l-.563.078-1.994.2c-.291.039-.587.092-.868.155a7.208,7.208,0,0,1-1.106.223c-.116,0-.145-.141-.087-.311a.679.679,0,0,1,.417-.432,10.757,10.757,0,0,1,2.314-.432c.485-.024.946-.136,1.421-.2s1.043-.121,1.567-.179l.97-.092c.485-.044.97-.068,1.455-.121.374-.044.742-.121,1.116-.165.083,0,.165-.029.247-.034.315,0,.422.034.485.209a1.11,1.11,0,0,1,.044.116c.029.136-.1.252-.31.305a20.031,20.031,0,0,1-2.018.383c-.514.082-1.033.141-1.552.189Z" transform="translate(-176.071 -231.446)" fill="#7b809a"/>
      <path id="Path_1999" data-name="Path 1999" d="M108.471,468.118a1.024,1.024,0,0,1-.165-.65c0-.073.112-.15.175-.1a2.681,2.681,0,0,1,.349.32,3.825,3.825,0,0,1,.451.781,11.78,11.78,0,0,1,.422,1.125,10.256,10.256,0,0,1,.32,1.4l.175,1.067h0s0,.024.029,0a12.768,12.768,0,0,0,.611-2.028,1.814,1.814,0,0,0,.073-.359,7.868,7.868,0,0,1,.325-1.169,8.787,8.787,0,0,1,.485-1.184,9.543,9.543,0,0,1,1.145-1.649c.063-.068.116-.16.2-.2a2.379,2.379,0,0,0,.485-.4,3.219,3.219,0,0,1,.7-.485c.112-.082.286-.068.407-.121s.107.063.078.1,0,.073.044.1,0,0,0,.029-.073.073-.16.2a5.271,5.271,0,0,0-.359.4c-.262.291-.485.626-.538.684a3.172,3.172,0,0,0-.218.286,7.058,7.058,0,0,0-.412.65,9.172,9.172,0,0,0-.538,1.179,3.352,3.352,0,0,1-.165.354c0,.024-.16.456-.281.9s-.228.9-.238.931a7.2,7.2,0,0,1-.335,1.072.854.854,0,0,0-.068.223c-.039.155-.082.315-.136.485l-.078.243-.044.121-.082.2a2.082,2.082,0,0,1-.432.7c-.092.073-.184.15-.276.238l-.16.087-.126.044a.571.571,0,0,1-.31,0,.605.605,0,0,1-.243-.16,1.353,1.353,0,0,1-.306-.655,2.635,2.635,0,0,0-.048-.325,1.847,1.847,0,0,0-.039-.359,21.309,21.309,0,0,0-.335-2.289,7.959,7.959,0,0,0-.257-1.174,4.087,4.087,0,0,0-.121-.611Z" transform="translate(-15.45 -227.034)" fill="#7b809a"/>
      <path id="Path_2000" data-name="Path 2000" d="M118.189,338.775c.063,3.88.15,7.761.32,11.641.073,1.416.15,2.833.223,4.244.238,4.991.514,9.978.684,14.974.078,2.217.15,4.448.2,6.65.068,2.828.1,5.67-.1,8.5-.058.878-.194.752-.32,0-.058-.374-.121-.907-.165-1.547s-.107-1.387-.1-2.2c0-5.753-.291-11.506-.485-17.316-.126-3.478-.388-7.092-.563-10.647q-.306-5.864-.412-11.743-.058-3.614-.121-7.227c-.049-3.652-.053-7.319-.068-10.938,0-2.818-.049-5.578,0-8.362V312.97a11.493,11.493,0,0,1,.34-3.5,2.153,2.153,0,0,1,.131-.32c.146-.213.228.723.233,2.4,0,2.488.058,5.04.049,7.63s0,5.214.024,7.843q.029,5.864.136,11.753Z" transform="translate(-20.065 -147.04)" fill="#7b809a"/>
      <path id="Path_2001" data-name="Path 2001" d="M126.559,25.819l-1.159-.15-1.169-.058c-.781-.063-1.567,0-2.353,0-.577,0-1.14.126-1.712.17a30.66,30.66,0,0,0-5.956,1.232,12.123,12.123,0,0,0-1.281.446c-.422.165-.849.315-1.256.485L110.1,28.7c-.485.267-1.023.534-1.552.766-.33.15-.374,0-.189-.315a3.6,3.6,0,0,1,1.2-1.062,25.863,25.863,0,0,1,6.791-2.5l1.067-.238,1.1-.2c.364-.063.728-.155,1.1-.2l1.106-.136c.81-.121,1.63-.107,2.425-.155a10.364,10.364,0,0,1,1.227.024c.407.024.815,0,1.222.053l1.5.17c.485.049.97.184,1.484.272a18.337,18.337,0,0,1,2.226.611,8.327,8.327,0,0,1,1.072.393l1.062.417,1.576.776c.519.272.994.611,1.494.922l.325.209c.1.078.194.165.3.252.179.16.325.3.446.417a2.74,2.74,0,0,1,.252.335.912.912,0,0,1,.175.485,1.329,1.329,0,0,1,0,.179c-.024.15-.412,0-1.014-.335l-.611-.437c-.2-.15-.437-.252-.65-.393l-.655-.393a5.2,5.2,0,0,0-.665-.373c-.485-.213-.922-.456-1.378-.694l-1.455-.582c-.354-.16-.742-.233-1.111-.359a8.2,8.2,0,0,0-1.12-.32,22,22,0,0,0-2.314-.412Z" transform="translate(-15.421 -0.553)" fill="#b1d5f8"/>
      <path id="Path_2002" data-name="Path 2002" d="M127.042,123.717c-.635,1.043-1.247,2.1-1.775,3.2-.281.543-.514,1.1-.757,1.659-.131.276-.223.563-.335.844l-.16.427-.092.247-.087.209c-.175.412-.354.82-.509,1.237l-.456,1.251A38.287,38.287,0,0,0,120.979,142c-.116,1.4-.17,2.808-.194,4.2-.029,1.79,0,3.589-.029,5.379,0,1.116-.519-.291-.572-2.362a55.182,55.182,0,0,1,.669-11.035,38.139,38.139,0,0,1,1.722-6.592c.2-.6.485-1.164.7-1.746l.32-.854c.1-.3.223-.587.349-.873l.373-.863.417-.844c.262-.568.577-1.111.873-1.659a45.786,45.786,0,0,1,2.45-3.9,49.658,49.658,0,0,1,4.365-5.423,34.269,34.269,0,0,1,3.88-3.682l.451-.373.485-.34c.306-.213.558-.383.771-.524a3.973,3.973,0,0,1,.568-.291,1.455,1.455,0,0,1,.7-.17,1.216,1.216,0,0,1,.247,0c.189.073-.262.485-1.135,1.038a34.929,34.929,0,0,0-3.667,3.032c-1.164,1.13-2.294,2.333-3.357,3.594a48.508,48.508,0,0,0-4.3,6Z" transform="translate(-21.545 -44.523)" fill="#b1d5f8"/>
      <path id="Path_2003" data-name="Path 2003" d="M184.708,340.079a10.245,10.245,0,0,1-1.116-.723c-.126-.092-.262-.175-.383-.272-.432-.34-.834-.713-1.237-1.072a6.027,6.027,0,0,0-.572-.427,7.828,7.828,0,0,1-.708-.563c-.068-.068,0-.15.116-.2a.635.635,0,0,1,.485,0c.141.073.291.145.432.223a4.58,4.58,0,0,1,.383.281,8.772,8.772,0,0,1,.708.631,9.018,9.018,0,0,0,.892.718,9.513,9.513,0,0,0,1.019.7,4.134,4.134,0,0,0,.669.306,1.305,1.305,0,0,0,1,0c.257-.107.243-.262.2-.509a.859.859,0,0,1-.039-.16.382.382,0,0,1,.092-.4l.068-.068c.078-.058.2,0,.335.165a1.228,1.228,0,0,1,.2.456,1.082,1.082,0,0,1-.058.64.935.935,0,0,1-.233.315,1.232,1.232,0,0,1-.272.165,1.51,1.51,0,0,1-.558.165,2.818,2.818,0,0,1-1.455-.34Z" transform="translate(-52.712 -161.28)" fill="#7b809a"/>
      <path id="Path_2004" data-name="Path 2004" d="M158.022,341.378c-.534.32-1.091.616-1.664.893-.213.1-.417.218-.645.3a2.969,2.969,0,0,1-1.348.218,1,1,0,0,1-.723-.432,1.368,1.368,0,0,1-.2-.713,4.919,4.919,0,0,1,.1-1.12,4.521,4.521,0,0,1,.407-1.31c.068-.126.184-.068.276.087a1.014,1.014,0,0,1,.126.645,10.182,10.182,0,0,0-.179,1.266,1.939,1.939,0,0,0,.034.524.485.485,0,0,0,.126.267.727.727,0,0,0,.563,0,4.618,4.618,0,0,0,.723-.281,16.49,16.49,0,0,0,1.6-.863c.325-.189.65-.388.97-.592.485-.31.97-.621,1.455-.97.369-.257.7-.548,1.067-.815a2.785,2.785,0,0,1,.243-.175c.325-.189.485-.184.635-.029.039.039.078.073.112.112.1.131.039.32-.155.485a17.223,17.223,0,0,1-1.94,1.455c-.509.349-1.038.684-1.567,1.019Z" transform="translate(-38.691 -161.997)" fill="#7b809a"/>
      <path id="Path_2005" data-name="Path 2005" d="M185.115,67.123a15.772,15.772,0,0,1-3.779,3.085,25.174,25.174,0,0,1-4.365,2.057,39.288,39.288,0,0,1-4.6,1.339c-.776.179-1.557.335-2.338.485l-.587.107-.276.049h-.058s0,.039-.034-.107a1.53,1.53,0,0,0-.078-.213c0-.039,0-.044-.029-.068l-.024-.034a.238.238,0,0,0,.034-.092c0-.044.034-.146.044-.218v-.126h.078c.4.082.81.146,1.213.243a8.818,8.818,0,0,1,3.235,1.61,8.187,8.187,0,0,1,2.275,2.808,11.257,11.257,0,0,1,.97,3.012A14.168,14.168,0,0,1,176.9,84.2a18.65,18.65,0,0,1-1.7,5.952,23.011,23.011,0,0,1-7.926,9.269,27.949,27.949,0,0,1-10.036,4.079,32.692,32.692,0,0,1-13.785-.068c-1.4-.33-1.184-.378,0-.262.3.034.665.068,1.087.092s.888.078,1.407.087,1.072.053,1.669.058l.912.034h.97a32.984,32.984,0,0,0,13.5-2.585,22.8,22.8,0,0,0,10.332-8.872,20.66,20.66,0,0,0,1.819-3.774,15.836,15.836,0,0,0,.941-4.108,11.36,11.36,0,0,0-.427-4.162,8.455,8.455,0,0,0-2.071-3.541,7.824,7.824,0,0,0-3.973-2.066l-.563-.112-.141-.029h-.145a.7.7,0,0,1-.087-.049.431.431,0,0,1-.131-.179.4.4,0,0,1,.029-.32.562.562,0,0,1,.1-.116h.044a.374.374,0,0,1,.121-.049h.053c.116-.029.213-.044.31-.063l1.174-.2q1.164-.209,2.314-.485a27.959,27.959,0,0,0,8.716-3.57,13.49,13.49,0,0,0,4.074-3.973,10.371,10.371,0,0,0,1.63-5.394,11.162,11.162,0,0,0-.136-2.163,11.887,11.887,0,0,0-.5-2.105,11.919,11.919,0,0,0-2.12-3.759,17.83,17.83,0,0,0-7.072-4.918,29.409,29.409,0,0,0-13.164-1.892l-.732.058-.723.092c-.485.053-.97.141-1.455.218-3.589.7-4.686,1.13-5.486,1.271-.184.034-.422.1-.534.107-.189,0,.049-.16.645-.485a16.074,16.074,0,0,1,2.91-1.232,29.773,29.773,0,0,1,18.767.892,23.722,23.722,0,0,1,2.954,1.455c.485.262.936.587,1.4.888a9.513,9.513,0,0,1,1.31,1.023,14.552,14.552,0,0,1,3.211,3.813,12.927,12.927,0,0,1,1.193,9.7,11.491,11.491,0,0,1-2.425,4.365Z" transform="translate(-33.048 -10.455)" fill="#b1d5f8"/>
      <path id="Path_2006" data-name="Path 2006" d="M107.8,222.107a5.059,5.059,0,0,1,3.662.844c1.736,1.242,3.963,2.91,4.312,1.809s-1.94-12.2,1.227-14.348c0,0,3.458-4.749,6.728-5.258,0,0,9.817,7.722,24.054,2.076,0,0,9.279-3.294,8.542-13.252,0,0-2.939-8.246-9.138-5.122,0,0,1.266-2.677-.485-4.574,0,0-5.19-5.336-11.743-2.309s-12.665,6.126-15.371,14.2c0,0-10.1-3.327-14.5.306s-8.168,6.737-7.121,13.936S103.23,220.981,107.8,222.107Z" transform="translate(-10.039 -81.088)" fill="#7b809a"/>
      <path id="Path_2007" data-name="Path 2007" d="M218.207,431.393s-.718,7.043,1.159,7.111,3.914-9.3,3.914-9.3A30.952,30.952,0,0,0,218.207,431.393Z" transform="translate(-71.975 -208.876)" fill="#7b809a"/>
      <path id="Path_2008" data-name="Path 2008" d="M396.163,463.935a.491.491,0,0,1-.451-.34c-.029-.068.029-.243.087-.252l.34-.058c.063,0,1.111.078,1.455.063a8.259,8.259,0,0,1,1.038.029c.708.039,1.421.039,2.129.034a3.139,3.139,0,0,1,.485.024,8.649,8.649,0,0,0,1.625,0,.823.823,0,0,0,.267-.034c.146-.053,1.606-.126,1.795-.126a13.678,13.678,0,0,0,1.411,0,.453.453,0,0,1,.2,0,.787.787,0,0,0,.437,0c.189-.029.388-.058.563-.1a.764.764,0,0,0,.262-.029c.073-.029.126.078.107.112s.039.083.078.107l.034.034a1.548,1.548,0,0,1-.587.422,5.406,5.406,0,0,1-.694.3c-.034.048-1.78.34-1.974.359a1.365,1.365,0,0,1-.315,0c-.049,0-1.455.175-1.5.165a3.077,3.077,0,0,1-.868-.039.429.429,0,0,0-.175,0c-.485,0-.97-.024-1.489-.058l-.761-.029a.608.608,0,0,1-.136-.024,1.081,1.081,0,0,0-.175-.024c-.6-.024-1.2-.112-1.8-.146-.141,0-.791-.184-.97-.2S396.24,463.935,396.163,463.935Z" transform="translate(-163.447 -226.353)" fill="#7b809a"/>
      <path id="Path_2009" data-name="Path 2009" d="M149.006,446.179s-1.664,12.126,7.547,18.126c0,0,4.312,1.673,5.437,1.334,0,0-2.939-3.211-.859-3.551s9.425,4.438,9.425,4.438,7.058-4.6,9-4.889c0,0-1.082,4.2,0,4.239s1.174-1.392,3.6-1.086l2.483.815s40.511-1.019,41.967-2.037c0,0-3.255-4.065-1.654-4.826s10.186,2.391,10.186,2.391-2.251-3.361.2-3.361c0,0,6.985,4.763,7.935,4.851s22.734-1.208,23.316-2.086,1.94-15.459.621-17.379c0,0-70.881-.97-81.974,1.455a1.887,1.887,0,0,1-1.635,1.557,3.192,3.192,0,0,1-2.464-.752S154.729,451.873,149.006,446.179Z" transform="translate(-36.349 -215.964)" fill="#7b809a"/>
      <path id="Path_2010" data-name="Path 2010" d="M180.639,355.212c-1.3.708-5.5-1.678-5.5-1.678l-.713-4.254s3.361,3.9,5.176,3.24Z" transform="translate(-49.502 -167.721)" fill="#7b809a"/>
      <path id="Path_2011" data-name="Path 2011" d="M185.1,373.042c-3.177,1.455-7.761-2.7-7.761-2.7l-.209-2.91s4.283,3.371,6.825,2.556Z" transform="translate(-50.892 -177.068)" fill="#7b809a"/>
      <path id="Path_2012" data-name="Path 2012" d="M158.453,293.591a9.971,9.971,0,0,1-3.424,1.213,11.244,11.244,0,0,1-3.585-.039,14.69,14.69,0,0,1-2.5-.64,17.418,17.418,0,0,1-3.968-2.12,21.541,21.541,0,0,1-3.361-2.91,22.8,22.8,0,0,1-2.425-3.109,17.055,17.055,0,0,1-1.232-2.222,9.118,9.118,0,0,1-.723-2.425c-.082-.529.145-.485.485-.121a8.446,8.446,0,0,1,1.154,1.853,18.276,18.276,0,0,0,2.5,4.157,21.691,21.691,0,0,0,3.458,3.507,15.085,15.085,0,0,0,5.336,2.736,10.089,10.089,0,0,0,6.461-.155,9.526,9.526,0,0,0,3.332-2.255,11.019,11.019,0,0,0,1.78-2.522,15.215,15.215,0,0,0,1.091-2.91,27.823,27.823,0,0,0,.732-4.773l.082-1.062c.116-1.329.262-1.746.587-2a1.271,1.271,0,0,1,.228-.165c.243-.1.383.456.364,1.455a26.057,26.057,0,0,1-1.673,9.08,12.272,12.272,0,0,1-1.877,3.129,10.957,10.957,0,0,1-2.794,2.382Z" transform="translate(-30.338 -130.818)" fill="#7b809a"/>
      <path id="Path_2013" data-name="Path 2013" d="M124.4,247.063l.33,1.829c.049.315.1.635.126.97a3.991,3.991,0,0,1-.044,1.135,2.906,2.906,0,0,1-.131.373l-.233.349a1.412,1.412,0,0,1-.708.417,1.533,1.533,0,0,1-.8-.029,2.838,2.838,0,0,1-.558-.238,12.207,12.207,0,0,1-1.576-1.164,11.687,11.687,0,0,0-2.115-1.431,2.677,2.677,0,0,0-1.887-.272,3.468,3.468,0,0,0-1.654,1.164,3.166,3.166,0,0,0-.485.883,4.332,4.332,0,0,0-.209,1.038,4.977,4.977,0,0,0,.354,2.149,4.307,4.307,0,0,0,1.087,1.6,6.247,6.247,0,0,0,1.664,1.082,5.065,5.065,0,0,0,1.208.325,5.769,5.769,0,0,0,1.261,0,9.735,9.735,0,0,0,1.271-.233c.209-.053.422-.112.64-.15a5.008,5.008,0,0,0,.635-.189c.529-.165.519,0,.141.34a6.83,6.83,0,0,1-.839.611,4.259,4.259,0,0,1-1.4.485,5.859,5.859,0,0,1-3.012-.2,6.369,6.369,0,0,1-1.363-.674,7.193,7.193,0,0,1-.606-.441l-.291-.233-.291-.276a5.544,5.544,0,0,1-1.421-2.731,5.181,5.181,0,0,1,.257-3.08,4.627,4.627,0,0,1,1.106-1.538,4.05,4.05,0,0,1,1.654-1.014,3.468,3.468,0,0,1,1.989,0,6.334,6.334,0,0,1,1.664.82c.543.364,1.038.766,1.518,1.159a8.51,8.51,0,0,0,1.412,1c.247.107.315.112.446.053s.16-.141.189-.412a7.059,7.059,0,0,0-.16-1.717,42.386,42.386,0,0,1-.7-4.574,14.552,14.552,0,0,1,.126-3.555,11.263,11.263,0,0,1,1.12-3.4c.2-.417.456-.8.694-1.193a13.162,13.162,0,0,1,.834-1.086,12.344,12.344,0,0,1,1.984-1.882c.325-.233.635-.485.97-.694,1.285-.771,1.78-.844,2.168-.762a1.451,1.451,0,0,1,.262.073c.213.121-.252.529-1.111,1.111a17.142,17.142,0,0,0-3.478,3.027,8.8,8.8,0,0,0-.7.912,11.256,11.256,0,0,0-.582.97,9.051,9.051,0,0,0-.815,2.149,16.152,16.152,0,0,0,.107,7.057Z" transform="translate(-18.061 -107.15)" fill="#7b809a"/>
      <path id="Path_2014" data-name="Path 2014" d="M96.54,223.047a18.33,18.33,0,0,1,.572-3.846,14.779,14.779,0,0,1,1.455-3.618,11.9,11.9,0,0,1,1.669-2.323,12.99,12.99,0,0,1,4.045-2.91A15.78,15.78,0,0,1,109.04,209a18.729,18.729,0,0,1,4.365,0,12.253,12.253,0,0,1,5.292,1.683c.485.31.315.441-.2.412a13.1,13.1,0,0,1-2.352-.441,16.767,16.767,0,0,0-5.268-.684,16.52,16.52,0,0,0-5.253.97,11.466,11.466,0,0,0-5.2,3.88,13.974,13.974,0,0,0-2.629,6.723,14.8,14.8,0,0,0,.034,4.511,12.8,12.8,0,0,0,2.833,6.155,13.548,13.548,0,0,0,4.1,3.2c.34.175.684.32,1.033.485,1.31.538,1.7.626,1.979.936a2.538,2.538,0,0,1,.2.179c.17.179-.534.432-1.659.15a12.374,12.374,0,0,1-4.535-2.367,14.256,14.256,0,0,1-3.444-4.016,14.4,14.4,0,0,1-1.834-7.659Z" transform="translate(-9.364 -95.421)" fill="#7b809a"/>
      <path id="Path_2015" data-name="Path 2015" d="M136.816,381.4a31.806,31.806,0,0,1-2.576-7.523,62.259,62.259,0,0,1-1.213-7.761c-.175-1.906-.31-3.812-.34-5.724a68.613,68.613,0,0,1,.563-10.074,63.891,63.891,0,0,1,2.134-9.861,47.8,47.8,0,0,1,3.318-8.324,26.6,26.6,0,0,1,3.167-4.812,14.794,14.794,0,0,1,4.462-3.682c1.12-.485,1.014-.262.286.441l-1.455,1.455c-.572.611-1.2,1.339-1.9,2.11a32.307,32.307,0,0,0-5.573,9.74,61.824,61.824,0,0,0-3.046,11.059,63.026,63.026,0,0,0-.762,14.091,68,68,0,0,0,.776,7.761,45.277,45.277,0,0,0,1.819,7.547,18.916,18.916,0,0,0,2.013,4.268,6.305,6.305,0,0,0,1.528,1.664,13.639,13.639,0,0,0,2.042,1.154,20.8,20.8,0,0,0,6.965,1.683,41.873,41.873,0,0,0,7.232-.092,94.55,94.55,0,0,0,11.016-1.858l2.386-.524c3-.6,3.982-.713,4.681-.577.155.029.359.048.456.082.315.112-.868.524-3.046,1.062-3.226.815-6.572,1.557-10.011,2.144a59.144,59.144,0,0,1-10.579.931,26.578,26.578,0,0,1-7.965-1.242,15.331,15.331,0,0,1-3.7-1.824,6.635,6.635,0,0,1-1.567-1.533,13.355,13.355,0,0,1-1.111-1.761Z" transform="translate(-28.002 -154.387)" fill="#7b809a"/>
      <path id="Path_2016" data-name="Path 2016" d="M156.369,334.7a3.561,3.561,0,0,1-1.057.252,1.554,1.554,0,0,1-.354,0,1.18,1.18,0,0,1-.378-.1,1.193,1.193,0,0,1-.592-.509.858.858,0,0,1-.16-.344,1.1,1.1,0,0,1-.082-.325,2.81,2.81,0,0,1,0-.563,6.4,6.4,0,0,1,.16-.97,10.749,10.749,0,0,1,.378-1.29,16.192,16.192,0,0,1,2.265-4.011,13.245,13.245,0,0,1,1.373-1.533,5.379,5.379,0,0,1,1.087-.791,2.794,2.794,0,0,1,1.339-.335c.3,0,.233.184.034.373a5.249,5.249,0,0,1-.849.65,6.683,6.683,0,0,0-1.727,1.576c-.514.635-.97,1.329-1.455,2.032a11.81,11.81,0,0,0-1.232,2.823,6.271,6.271,0,0,0-.32,1.581,2.466,2.466,0,0,0,0,.335.552.552,0,0,0,.073.179c.087.1.175.141.412.107a5.773,5.773,0,0,0,1.843-.762c.926-.534,1.843-1.135,2.731-1.761.694-.485,1.339-1.014,2.086-1.455a3.713,3.713,0,0,1,.534-.281,1.455,1.455,0,0,1,.922-.116.529.529,0,0,1,.281.175.306.306,0,0,1,.078.247.379.379,0,0,1-.053.209c-.063.082-.2.112-.252.16a.732.732,0,0,1-.267.189,17.845,17.845,0,0,0-1.741,1.13c-.616.436-1.251.892-1.906,1.339a19.291,19.291,0,0,1-3.182,1.833Z" transform="translate(-38.843 -154.796)" fill="#7b809a"/>
      <path id="Path_2017" data-name="Path 2017" d="M185.037,328.675c.3.407.572.825.844,1.261a6.7,6.7,0,0,1,.689,1.426,2.72,2.72,0,0,1,.082.315,1.639,1.639,0,0,1,.039.364.97.97,0,0,1-.364.81l-.1.082a1.79,1.79,0,0,1-1.2.233,3.234,3.234,0,0,1-1-.335,10.338,10.338,0,0,1-1.586-1.077c-.446-.349-.888-.694-1.334-1.019a14.238,14.238,0,0,0-1.683-1.169c-.17-.083-.141-.218.1-.31a1.416,1.416,0,0,1,1.062.131c.34.179.66.383.97.582s.582.441.868.665c.563.441,1.116.893,1.683,1.261a2.794,2.794,0,0,0,.873.393,1.358,1.358,0,0,0,.412.029,1.049,1.049,0,0,0,.33-.112.233.233,0,0,0,.087-.126,1.247,1.247,0,0,0-.082-.485,4.57,4.57,0,0,0-.267-.626,11.1,11.1,0,0,0-.747-1.217c-.344-.485-.708-.97-1.091-1.421a26.833,26.833,0,0,0-1.833-2.023,20.023,20.023,0,0,0-1.567-1.368c-.116-.1-.238-.179-.349-.286-.412-.378-.485-.534-.485-.747v-.15c0-.146.315-.131.718.068a8.942,8.942,0,0,1,1.615,1.145,15.637,15.637,0,0,1,1.455,1.4,29.483,29.483,0,0,1,1.94,2.314Z" transform="translate(-52.019 -154.528)" fill="#7b809a"/>
      <path id="Path_2018" data-name="Path 2018" d="M206.259,410.442c-2.469.844-4.967,1.538-7.47,2.207l-2.741.728c-3.235.791-6.49,1.5-9.75,2.159-1.455.291-2.91.6-4.341.873a36.936,36.936,0,0,1-5.617.8c-.592.029-.519-.16-.049-.4a6.565,6.565,0,0,1,.97-.374,9.287,9.287,0,0,1,1.416-.354c3.754-.66,7.513-1.4,11.3-2.163,2.265-.461,4.593-1.077,6.878-1.669,2.513-.66,5.02-1.344,7.494-2.129,1.528-.485,3-1.019,4.5-1.644a2.58,2.58,0,0,1,.257-.078l.238-.044a4.132,4.132,0,0,1,.485-.063c.31-.034.616-.039.926-.058h1.843a29.586,29.586,0,0,1,3.648.364c.485.087.936.184,1.4.306.233.068.461.15.689.223l.344.155.17.082.165.112a4,4,0,0,1,.577.456l.519.456c.349.306.7.616,1.038.936s.6.558.888.863c1.048,1.15,1.247,1.678,1.222,2.071a1.267,1.267,0,0,1-.029.262c-.1.194-.441-.286-1.188-1.057-.558-.577-1.159-1.14-1.78-1.7l-.946-.839a4.487,4.487,0,0,0-3.167-1.421c-.829-.141-1.683-.233-2.537-.3a23.451,23.451,0,0,0-3.783,0,2.814,2.814,0,0,0-.427.063.771.771,0,0,0-.17.044,1.173,1.173,0,0,0-.175.058l-.922.383c-.616.267-1.242.485-1.858.7Z" transform="translate(-50.269 -198.078)" fill="#7b809a"/>
      <path id="Path_2019" data-name="Path 2019" d="M257.465,418.168c.2.1.4.194.626.325a3.192,3.192,0,0,1,.582.485c.116.112.247.2.359.31.4.4.791.8,1.169,1.213.17.184.354.354.534.524a2.809,2.809,0,0,1,.635.732c.049.1-.078.17-.242.194a.611.611,0,0,1-.485-.083,11.789,11.789,0,0,1-1.382-1.319,7.509,7.509,0,0,0-.883-.771l-.485-.412-.058-.048-.044-.029s-.073-.039-.107-.063l-.272-.131c-.233-.107-.485-.2-.728-.3-.378-.141-.752-.291-1.14-.4-.3-.082-.611-.107-.922-.16l-.2-.029c-.247-.068-.306-.175-.276-.422v-.175a.393.393,0,0,1,.383-.315,5.587,5.587,0,0,1,1.688.34c.417.136.825.306,1.237.485Z" transform="translate(-90.546 -202.748)" fill="#7b809a"/>
      <path id="Path_2020" data-name="Path 2020" d="M259.347,413.818c.218.121.437.243.66.383l.18.112a1.719,1.719,0,0,1,.189.15c.112.1.194.184.286.276s.272.247.393.383q.635.723,1.222,1.455c.179.218.369.427.558.631a3.985,3.985,0,0,1,.679.844c.053.107-.073.175-.243.194a.7.7,0,0,1-.538-.15,13.268,13.268,0,0,1-1.455-1.572,8.93,8.93,0,0,0-.927-.941c-.17-.17-.349-.344-.485-.485a4.169,4.169,0,0,0-.572-.335c-.262-.136-.534-.267-.805-.393-.412-.184-.825-.388-1.251-.543a10.451,10.451,0,0,0-1.019-.262.749.749,0,0,1-.223-.053c-.267-.087-.325-.189-.3-.441V412.9a.383.383,0,0,1,.432-.291,6.3,6.3,0,0,1,1.892.538c.456.189.9.417,1.353.645Z" transform="translate(-91.347 -200.328)" fill="#7b809a"/>
      <path id="Path_2021" data-name="Path 2021" d="M218.392,432.664a1.648,1.648,0,0,1-.7-.3,1.187,1.187,0,0,1-.281-.252,1.164,1.164,0,0,1-.209-.272,3.686,3.686,0,0,1-.485-1.1,11.123,11.123,0,0,1-.3-2.1c-.034-.485-.073-1-.073-1.5a51.727,51.727,0,0,1,.364-5.219c.073-.766.15-1.538.223-2.3a18.04,18.04,0,0,1,.427-2.91c.073-.3.238-.228.378.048a2.765,2.765,0,0,1,.243,1.334c-.165,1.984-.388,3.953-.592,5.942a27.644,27.644,0,0,0-.078,3.648,16.488,16.488,0,0,0,.16,1.969,4.171,4.171,0,0,0,.563,1.732,1.629,1.629,0,0,0,.155.16c.058.029.1.087.175.1a.9.9,0,0,0,.437.068,1.765,1.765,0,0,0,.9-.485,10.293,10.293,0,0,0,1.994-3.046A27.914,27.914,0,0,0,222.7,425.5c.073-.2.136-.4.213-.6.335-.718.524-.931.791-1a.968.968,0,0,1,.179-.044c.17,0,.17.335.063.917a13.624,13.624,0,0,1-.766,2.556A18.612,18.612,0,0,1,222,429.87a9.808,9.808,0,0,1-1.271,1.775,4,4,0,0,1-.97.771,2.071,2.071,0,0,1-1.411.281Z" transform="translate(-71.084 -202.348)" fill="#7b809a"/>
      <path id="Path_2022" data-name="Path 2022" d="M211.888,383.569c-.771.354-1.552.732-2.4,1.028a6.949,6.949,0,0,1-1.358.335,2.964,2.964,0,0,1-1.528-.165,4.172,4.172,0,0,1-1.678-1.285,8.924,8.924,0,0,1-.931-1.455c-.257-.485-.485-1-.708-1.528a22.952,22.952,0,0,1-.97-3.182c-.223-.97-.427-1.916-.6-2.867a22.708,22.708,0,0,1-.427-3.706c0-.388.116-.344.281-.034a6.039,6.039,0,0,1,.529,1.576,52.712,52.712,0,0,0,1.8,7.232,11.9,11.9,0,0,0,.97,2.037,7.276,7.276,0,0,0,1.31,1.741,2.576,2.576,0,0,0,.912.558,2.2,2.2,0,0,0,1.057.058,10.041,10.041,0,0,0,2.309-.815c.946-.427,1.882-.922,2.886-1.324a7.269,7.269,0,0,1,1.188-.388,5.911,5.911,0,0,1,.621-.1,5.3,5.3,0,0,1,.616-.063,9.366,9.366,0,0,1,2.469.155,11.767,11.767,0,0,1,3.531,1.329c.238.136.485.267.708.417.839.592,1.033.868,1.038,1.218a.924.924,0,0,1,0,.233c-.053.228-.485.112-1.116-.238a23.086,23.086,0,0,0-2.847-1.455,8.245,8.245,0,0,0-3.051-.616h-.587a5.892,5.892,0,0,0-.587.058,4.738,4.738,0,0,0-1.111.252,21.627,21.627,0,0,0-2.275.97Z" transform="translate(-63.334 -178.63)" fill="#7b809a"/>
      <path id="Path_2023" data-name="Path 2023" d="M174.483,347.157q.209,2.178.485,4.366l.228,1.576c.247,1.858.451,3.72.766,5.568.141.82.306,1.639.485,2.425.131.485.252,1.028.407,1.528.073.252.131.509.194.766s.146.485.213.752-.049.33-.281.121a3.109,3.109,0,0,1-.82-1.232,38.117,38.117,0,0,1-1.392-6.432c-.179-1.3-.432-2.643-.616-3.968-.2-1.455-.373-2.91-.543-4.395l-.291-2.7c-.078-.684-.141-1.373-.2-2.057l-.092-1.023-.049-.519-.049-.587a5.136,5.136,0,0,1,0-.97.485.485,0,0,1,.068-.209.306.306,0,0,1,.184-.136.864.864,0,0,1,.427.034,2.87,2.87,0,0,1,.485.233,3.654,3.654,0,0,0,.432.2,1.62,1.62,0,0,0,.611.126,1,1,0,0,0,.451-.136,4.749,4.749,0,0,0,.572-.437.718.718,0,0,1,.422-.17,1.6,1.6,0,0,1,.209,0c.107,0,.15.112.121.3a1.528,1.528,0,0,1-.369.732,1.877,1.877,0,0,1-1.693.694,2.909,2.909,0,0,1-.863-.247c-.1-.044-.087-.034-.1-.034h0v.029h0v.155l.131,1.261c.155,1.455.306,2.91.485,4.366Z" transform="translate(-48.716 -162.882)" fill="#7b809a"/>
      <path id="Path_2024" data-name="Path 2024" d="M184.9,355.43q-.635-1.586-1.227-3.182c-.15-.388-.32-.771-.451-1.164-.485-1.373-.926-2.779-1.334-4.186-.179-.626-.374-1.247-.543-1.872a10.55,10.55,0,0,1-.485-2.464c0-.262.175-.243.393-.053a1.941,1.941,0,0,1,.558.97c.374,1.6.873,3.182,1.339,4.8.286.97.694,1.94,1.067,2.91q.611,1.6,1.256,3.172c.272.645.534,1.3.815,1.94.422.97.849,1.94,1.3,2.91.354.742.762,1.455,1.15,2.149.087.155.175.306.257.485.3.6.33.815.175,1.053a1.3,1.3,0,0,1-.107.16c-.141.141-.4-.034-.674-.446a31.839,31.839,0,0,1-2.158-3.982c-.485-1.043-.922-2.1-1.368-3.162Z" transform="translate(-52.813 -164.161)" fill="#7b809a"/>
      <path id="Path_2025" data-name="Path 2025" d="M189.544,392.649a.971.971,0,0,1-.485.092h-.243l-.2-.053a5.027,5.027,0,0,1-.568-.213c-.335-.15-.665-.31-.97-.485-.233-.121-.485-.209-.7-.34-.8-.441-1.586-.907-2.362-1.373-.349-.209-.708-.393-1.062-.577a7.3,7.3,0,0,1-1.31-.805c-.126-.107-.039-.223.155-.3a1.159,1.159,0,0,1,.771,0c.243.1.485.189.728.3l.694.359a13.6,13.6,0,0,1,1.353.786,16.121,16.121,0,0,0,1.707.868c.315.155.626.3.941.446a6.714,6.714,0,0,0,.912.354c.218.078.393-.049.514-.422a5.009,5.009,0,0,0,.126-1.843,14.071,14.071,0,0,0-.276-1.455,2.638,2.638,0,0,0-.063-.33c-.039-.417.068-.582.291-.684a1.008,1.008,0,0,1,.155-.058c.17-.029.315.107.456.388a8.191,8.191,0,0,1,.485,2.828,5.553,5.553,0,0,1-.073,1.188,2.586,2.586,0,0,1-.243.684,1.648,1.648,0,0,1-.272.378,1.39,1.39,0,0,1-.412.3Z" transform="translate(-53.183 -187.1)" fill="#7b809a"/>
      <path id="Path_2026" data-name="Path 2026" d="M157.453,405.986a16.65,16.65,0,0,1-.684-2.144c-.073-.262-.155-.524-.2-.791a21.392,21.392,0,0,1-.32-2.823l-.1-1.242a6.467,6.467,0,0,1,0-1.591c.053-.33.854.083.912.669.1,1.048.155,2.081.194,3.138a9.774,9.774,0,0,0,.354,1.892,14.76,14.76,0,0,0,.635,2.018,11.268,11.268,0,0,0,.534,1.188c.155.286.32.572.485.859a5.466,5.466,0,0,0,.572.8,5.864,5.864,0,0,0,.524.548l.568.485c.078.078.175.131.257.2.31.272.349.417.218.7-.034.068-.058.136-.092.194-.126.2-.378.218-.66.049a6.416,6.416,0,0,1-1.164-.931,8.249,8.249,0,0,1-.97-1.2,12.463,12.463,0,0,1-1.1-2.018Z" transform="translate(-40.062 -192.438)" fill="#7b809a"/>
      <path id="Path_2027" data-name="Path 2027" d="M275.445,410.5c1.072-1.528,19.606-31.553,19.606-31.553h-3.216L273.3,407.292s-33.09.335-34.468.485-1.989,2.91-1.989,2.91Z" transform="translate(-81.64 -183)" fill="#b1d5f8"/>
      <path id="Path_2028" data-name="Path 2028" d="M151.957,464.652a18.093,18.093,0,0,1-2.2-3.759c-.213-.485-.432-.97-.611-1.455-.3-.873-.553-1.756-.766-2.648a27.1,27.1,0,0,1-.485-2.7c-.107-.8-.228-1.605-.31-2.4-.063-.514-.107-1.028-.146-1.542a13.737,13.737,0,0,1,.034-1.547c.029-.32.175-.276.349,0a3.482,3.482,0,0,1,.461,1.324,56.428,56.428,0,0,0,.878,6.092,18.876,18.876,0,0,0,1.145,3.594,18.279,18.279,0,0,0,1.94,3.643,13.847,13.847,0,0,0,1.639,1.94,10.941,10.941,0,0,0,3.158,2.139,9.983,9.983,0,0,0,2.833.679c.209.034.417.044.631.068.791.082,1.043.2,1.217.437.039.053.092.1.116.146.078.136-.257.32-.892.427a11.811,11.811,0,0,1-1.455,0,9.982,9.982,0,0,1-1.455-.262,10.416,10.416,0,0,1-2.779-1.169,12.534,12.534,0,0,1-3.347-2.978Z" transform="translate(-35.6 -218.752)" fill="#7b809a"/>
      <path id="Path_2029" data-name="Path 2029" d="M176.378,483.741c-.451-.286-.9-.572-1.358-.815a6.617,6.617,0,0,0-1.358-.587c-.364-.083-.4,0-.548.092a.252.252,0,0,0-.058.131.835.835,0,0,0,.053.315,3.736,3.736,0,0,0,.417.8,9.668,9.668,0,0,0,1.31,1.533,12.977,12.977,0,0,0,1.4,1.169c.626.456,1.276.907,1.892,1.329.179.112.116.277-.16.359a1.708,1.708,0,0,1-1.159-.17c-.369-.2-.728-.417-1.072-.65a8.2,8.2,0,0,1-.97-.766,11.19,11.19,0,0,1-1.756-1.824,6.254,6.254,0,0,1-.863-1.416,1.669,1.669,0,0,1-.068-1.062,1.131,1.131,0,0,1,.325-.519,1.5,1.5,0,0,1,.461-.306,1.765,1.765,0,0,1,1.111,0,4.8,4.8,0,0,1,.844.3,16.214,16.214,0,0,1,1.5.776c.592.335,1.174.713,1.736,1.038l2.678,1.5c.694.383,1.412.694,2.1,1.1.155.087.306.16.456.257.543.364.616.621.572.912a1.187,1.187,0,0,1-.034.2c-.068.194-.388.189-.844.044a35.931,35.931,0,0,1-3.769-2.013l-1.412-.82c-.223-.131-.485-.286-.728-.437l-.694-.432Z" transform="translate(-48.263 -235.687)" fill="#7b809a"/>
      <path id="Path_2030" data-name="Path 2030" d="M201.8,481.624l-.029-.024a.277.277,0,0,0-.131,0,2.508,2.508,0,0,0-.514.2,10.568,10.568,0,0,0-1.125.66c-.272.18-.529.393-.8.577-.97.664-1.94,1.334-3,1.94-.461.276-.917.563-1.4.815a3.662,3.662,0,0,1-2.057.606c-.247-.029-.184-.276-.029-.524a1.455,1.455,0,0,1,.674-.635,23.624,23.624,0,0,0,3.4-1.867c.708-.408,1.353-.97,2.052-1.455.383-.272.771-.534,1.184-.786a5.337,5.337,0,0,1,1.387-.64c.082-.024.189-.029.3-.049a1.484,1.484,0,0,1,.325.034.94.94,0,0,1,.3.126,1.128,1.128,0,0,1,.262.189,1.455,1.455,0,0,1,.4,1.072,4.022,4.022,0,0,1-.335,1.387c-.175.422-.378.82-.582,1.208-.33.6-.621,1.208-1,1.775a3.882,3.882,0,0,1-.257.369c-.349.446-.6.485-.859.4a.643.643,0,0,1-.175-.082c-.16-.121-.136-.364,0-.718.514-1.009,1.164-2.028,1.639-3.056a4.538,4.538,0,0,0,.364-1.086.972.972,0,0,0,0-.354c0-.053-.024-.058-.024-.073Z" transform="translate(-58.847 -235.262)" fill="#7b809a"/>
      <path id="Path_2031" data-name="Path 2031" d="M216.966,488.764a4.709,4.709,0,0,0-1.358-.747,2.149,2.149,0,0,0-.485-.082,2.234,2.234,0,0,0-.441,0,3.8,3.8,0,0,0-.432.112,4.506,4.506,0,0,0-.432.238l-.485.306c-.281.18-.548.378-.8.577-.33.252-.635.524-.97.737-.107.063-.223-.053-.262-.257a.786.786,0,0,1,.17-.679,6.212,6.212,0,0,1,1.014-.858l.534-.359c.184-.111.325-.218.582-.349a4.408,4.408,0,0,1,.878-.364l.485-.068a3.028,3.028,0,0,1,.485,0,4.73,4.73,0,0,1,1.775.713c.315.2.616.427.912.645.437.344.849.713,1.276,1.048a10.984,10.984,0,0,0,.951.708c.078.048.155.087.228.136.272.184.31.291.209.572-.024.063-.039.126-.068.184a.4.4,0,0,1-.567.16,8.652,8.652,0,0,1-1.94-1.319c-.437-.364-.868-.723-1.314-1.033Z" transform="translate(-68.479 -238.619)" fill="#7b809a"/>
      <path id="Path_2032" data-name="Path 2032" d="M249.333,486.842l-6.737.373-2.459.15q-4.336.189-8.682.276c-1.285.024-2.58.058-3.88.063-.825,0-1.649,0-2.479-.073-.412-.034-.825-.078-1.242-.15a3.725,3.725,0,0,1-1.227-.388c-.252-.136-.325-.276-.286-.3a1.932,1.932,0,0,1,.4,0c.446,0,1.208-.087,2.129-.053,3.269.092,6.611,0,9.968-.073,2.013-.034,4.1-.218,6.15-.344l6.791-.412,4.176-.267,6.306-.412,4.85-.408c.354-.024.7-.058,1.062-.078,1.329-.063,1.761,0,2.047.31a2.353,2.353,0,0,1,.189.175c.126.165-.412.412-1.373.485-2.852.267-5.874.485-8.91.694l-6.791.446Z" transform="translate(-74.168 -237.468)" fill="#7b809a"/>
      <path id="Path_2033" data-name="Path 2033" d="M312.373,476.287c-.485-.16-.97-.325-1.411-.446a13.285,13.285,0,0,0-1.426-.291,5.931,5.931,0,0,0-1.009-.029,1.456,1.456,0,0,0-.664.146.451.451,0,0,0-.16.456,3.7,3.7,0,0,0,.747,1.581,11.6,11.6,0,0,0,1.106,1.29,17.9,17.9,0,0,1,1.509,1.625c.141.2,0,.262-.233.218a1.984,1.984,0,0,1-.926-.441,15.51,15.51,0,0,1-1.654-1.6,6.3,6.3,0,0,1-1.3-2.052,2.426,2.426,0,0,1-.136-.868,1.325,1.325,0,0,1,.485-.941,2.648,2.648,0,0,1,1.63-.407,12,12,0,0,1,3.114.587c.606.184,1.208.378,1.809.582a26.716,26.716,0,0,1,2.682,1.086,16.468,16.468,0,0,1,1.994,1.033c.136.092.281.17.412.276.485.393.572.6.485.868a1.029,1.029,0,0,1-.058.184c-.092.184-.383.141-.747-.073a32.432,32.432,0,0,0-3.429-1.746c-.9-.383-1.843-.718-2.808-1.019Z" transform="translate(-117.67 -232.215)" fill="#7b809a"/>
      <path id="Path_2034" data-name="Path 2034" d="M343.722,478.424c-1.882.16-3.754.33-5.67.4h-.534a5.338,5.338,0,0,1-.553,0H336.5a3.1,3.1,0,0,1-.611-.058,6.38,6.38,0,0,1-1.8-.737c-.548-.31-1.057-.66-1.562-1.014-1-.7-1.94-1.455-2.954-2.086a4.512,4.512,0,0,0-1.363-.626.863.863,0,0,0-.582.058c-.141.082-.179.16-.16.369a2.341,2.341,0,0,0,.34.825,7.629,7.629,0,0,0,.563.815c.4.534.844,1.048,1.281,1.567.272.325.112.412-.272.276a3.881,3.881,0,0,1-1.523-1.14,10.291,10.291,0,0,1-.664-.888,3.879,3.879,0,0,1-.534-1.091,1.513,1.513,0,0,1-.029-.82,1.188,1.188,0,0,1,.64-.742,1.824,1.824,0,0,1,.378-.126,1.973,1.973,0,0,1,.4-.029,2.486,2.486,0,0,1,.669.136,8.658,8.658,0,0,1,1.94,1.1c.587.412,1.15.844,1.707,1.266a16.808,16.808,0,0,0,2.105,1.392,7.058,7.058,0,0,0,1.116.485,3.081,3.081,0,0,0,.558.131,2.528,2.528,0,0,0,.267,0h.373a18.377,18.377,0,0,0,2.765-.063c.941-.068,1.887-.15,2.833-.238l3.488-.33,5.287-.485c1.363-.131,2.7-.286,4.05-.4l.892-.063c1.12-.044,1.455.068,1.717.291a.97.97,0,0,1,.155.16c.1.175-.349.325-1.15.412l-7.441.708-5.675.538Z" transform="translate(-127.852 -231.625)" fill="#7b809a"/>
      <path id="Path_2035" data-name="Path 2035" d="M275.136,442.626q-6.388.082-12.771.223l-4.661.131c-5.471.116-10.948.243-16.419.408-2.425.078-4.85.179-7.276.291-3.09.15-6.2.335-9.289.4-.97.039-.849-.16-.044-.412a18.472,18.472,0,0,1,4.084-.64q9.459-.466,19.024-.63c3.813-.068,7.761-.238,11.685-.335q6.432-.16,12.873-.267l7.94-.112c4-.053,8.018-.073,11.991-.087,3.09,0,6.116-.048,9.172,0,.674,0,1.334.024,2.013.058,2.522.116,3.342.393,3.827.728a1.116,1.116,0,0,1,.291.247c.039.058,0,.082-.092.087h-.451c-.437-.034-1.14-.063-2.052-.1-2.7-.131-5.5-.131-8.333-.145l-8.6.029c-4.283.034-8.59.083-12.888.16Z" transform="translate(-75.045 -215.249)" fill="#7b809a"/>
      <path id="Path_2036" data-name="Path 2036" d="M392.843,455.32c.068-.907.1-1.824.107-2.741,0-.335-.024-.669,0-1v-5.161a7.435,7.435,0,0,1,.049-1.033,2.632,2.632,0,0,1,.3-1.043c.136-.214.238-.068.3.146a2.273,2.273,0,0,1,.116.863c-.058.64-.044,1.315-.044,1.994v2.052c0,.829.063,1.688.083,2.537q.036,1.4,0,2.809c0,.577-.058,1.159-.1,1.737a17.089,17.089,0,0,1-.422,2.61,6.571,6.571,0,0,1-.732,1.94,3.725,3.725,0,0,1-.3.383c-.441.437-.723.393-.888.335a.249.249,0,0,1-.116-.049,1.333,1.333,0,0,1,.223-.6,4.484,4.484,0,0,0,.383-.684,6.909,6.909,0,0,0,.315-.747,12.492,12.492,0,0,0,.437-1.678,22.054,22.054,0,0,0,.32-2.692Z" transform="translate(-161.121 -216.618)" fill="#7b809a"/>
      <path id="Path_2037" data-name="Path 2037" d="M403.144,464.969l-2.076.068c-.252,0-.485.039-.757.044-.893,0-1.785,0-2.682-.039h-1.193a6.974,6.974,0,0,1-.776-.039,2.232,2.232,0,0,1-.776-.194c-.16-.063-.063-.252.116-.422a1.426,1.426,0,0,1,.31-.218.858.858,0,0,1,.373-.073c.97.068,1.964.1,2.983.18a16.343,16.343,0,0,0,1.882-.044l2.076-.082,1.281-.063c.645-.039,1.3-.078,1.94-.126.485-.034.97-.136,1.489-.15h.33c.417,0,.582.141.64.277a.484.484,0,0,1,.039.1c0,.1-.155.165-.427.252a16.206,16.206,0,0,1-2.682.451c-.694.053-1.387.087-2.086.136Z" transform="translate(-162.983 -226.698)" fill="#7b809a"/>
      <path id="Path_2038" data-name="Path 2038" d="M415.233,441.276a41.529,41.529,0,0,1-1.664,8.105,21.276,21.276,0,0,1-1.077,2.847,13,13,0,0,1-.645,1.2,3.079,3.079,0,0,1-1.179,1.019,11.689,11.689,0,0,1-2.566.936,45.037,45.037,0,0,1-5.2.922c-1.547.2-3.1.374-4.632.524-.97.1-1.969.2-2.959.272s-1.979.107-2.964.136c-.616,0-.543-.1-.039-.276a14.681,14.681,0,0,1,2.58-.6l5.971-.7c1.994-.243,3.992-.485,5.952-.9a12.166,12.166,0,0,0,3.361-1.135,2.646,2.646,0,0,0,.631-.485.664.664,0,0,0,.107-.131.921.921,0,0,0,.1-.16l.213-.393a17.619,17.619,0,0,0,.728-1.664,37.116,37.116,0,0,0,1.94-7.843,23.634,23.634,0,0,0,.267-4.948,5.012,5.012,0,0,0-.126-.786,1.719,1.719,0,0,0-.111-.311.34.34,0,0,0-.141-.16.6.6,0,0,0-.2-.049h-.126l-.126.029a1.514,1.514,0,0,0-.534.262,5.044,5.044,0,0,0-.941,1,15.524,15.524,0,0,0-1.426,2.508,44.051,44.051,0,0,0-1.994,5.442l-.378,1.213c-.485,1.513-.7,1.984-1.019,2.251a2.1,2.1,0,0,1-.209.179c-.209.107-.2-.577.053-1.732a38.883,38.883,0,0,1,1.494-5.175,24.347,24.347,0,0,1,2.425-5.108,6.243,6.243,0,0,1,1.188-1.382,3.982,3.982,0,0,1,.427-.306,3.011,3.011,0,0,1,.538-.238,1.855,1.855,0,0,1,.66-.082,2.08,2.08,0,0,1,.737.175,1.725,1.725,0,0,1,.456.4,1.637,1.637,0,0,1,.272.485c.048.131.087.262.121.388l.073.364a10.158,10.158,0,0,1,.107,1.353,23.839,23.839,0,0,1-.112,2.58Z" transform="translate(-161.49 -212.148)" fill="#7b809a"/>
      <path id="Path_2039" data-name="Path 2039" d="M400.427,457.381l-1.227-.024h-.451c-.529-.034-1.057-.087-1.586-.155-.233-.034-.485-.053-.7-.073l-.461-.053a1.456,1.456,0,0,1-.437-.16c-.087-.049,0-.223.112-.383s.3-.306.446-.276c.543.078,1.111.15,1.7.281a6.2,6.2,0,0,0,1.086.044h1.96c.383,0,.761,0,1.14-.034.3,0,.587-.082.888-.082h.2a.442.442,0,0,1,.267.1.277.277,0,0,1,.1.17.564.564,0,0,1,0,.087c0,.082-.117.16-.267.223a5.989,5.989,0,0,1-1.552.3c-.4.024-.81.029-1.222.044Z" transform="translate(-163.356 -222.806)" fill="#7b809a"/>
      <path id="Path_2040" data-name="Path 2040" d="M417.121,433.068a3.245,3.245,0,0,1,.888-.694,1.854,1.854,0,0,1,.315-.126,2.456,2.456,0,0,1,.378-.058,2.174,2.174,0,0,1,.4.053,2.789,2.789,0,0,1,.374.17,3.112,3.112,0,0,1,.267.238,2.11,2.11,0,0,1,.175.277l.107.247.073.233a5.261,5.261,0,0,1,.136.868,13.025,13.025,0,0,1,0,1.63c-.034.616-.073,1.227-.165,1.829a37.243,37.243,0,0,1-1.547,6.233,22.551,22.551,0,0,1-1.043,2.648c-.136.276-.272.543-.437.815a2.1,2.1,0,0,1-.7.728,1.941,1.941,0,0,1-.97.262,4.413,4.413,0,0,1-.926-.1c-.364-.068-.306-.16,0-.252a5.176,5.176,0,0,0,1.368-.437,1.6,1.6,0,0,0,.485-.485,7.762,7.762,0,0,0,.388-.732,15.105,15.105,0,0,0,.669-1.639c.407-1.12.757-2.275,1.077-3.444a26.3,26.3,0,0,0,.732-4.365,18.2,18.2,0,0,0,.1-2.047,6.408,6.408,0,0,0-.087-.97,1.2,1.2,0,0,0-.267-.669.456.456,0,0,0-.364-.029,2.716,2.716,0,0,0-.97.859,9.793,9.793,0,0,0-.815,1.227,30.938,30.938,0,0,0-1.94,4.133c-.427,1.106-.757,2.221-1.1,3.337-.078.247-.15.485-.238.732-.315.912-.485,1.179-.728,1.319a1.237,1.237,0,0,1-.175.092c-.179.053-.214-.378-.073-1.082a23.362,23.362,0,0,1,.829-3.148c.344-1.053.733-2.105,1.174-3.143a16.456,16.456,0,0,1,2.571-4.492Z" transform="translate(-172.055 -210.416)" fill="#7b809a"/>
      <path id="Path_2041" data-name="Path 2041" d="M119.513,333.559c0,4.011,0,8.013.165,12.015l.218,4.365c.228,5.151.514,10.307.689,15.468.078,2.289.15,4.593.223,6.868a82.939,82.939,0,0,1-.112,8.784c-.068.912-.247.776-.422,0a13.36,13.36,0,0,1-.238-1.6,18.435,18.435,0,0,1-.141-2.27c0-5.937-.349-11.874-.538-17.879-.116-3.594-.4-7.324-.572-11-.2-4.04-.291-8.1-.306-12.126,0-2.493,0-4.981.029-7.47.034-3.774.121-7.557.184-11.3.053-2.91.039-5.762.121-8.634l.044-1.892c.087-2.367.194-3.119.456-3.614a1.847,1.847,0,0,1,.175-.33c.189-.218.306.752.315,2.483,0,2.571.039,5.209,0,7.882s-.087,5.389-.136,8.105c-.063,4.036-.121,8.091-.121,12.126Z" transform="translate(-20.691 -143.847)" fill="#7b809a"/>
      <path id="Path_2042" data-name="Path 2042" d="M95.866,471.174l.131.563.049.257v.175c0,.044,0,.145.034.16a.784.784,0,0,0,.058-.126l.078-.175.388-1.043.839-2.192c.407-1.038.82-2.076,1.334-3.085a11.535,11.535,0,0,1,1.7-2.532,3.691,3.691,0,0,1,1.363-.97,2.017,2.017,0,0,1,.931-.126,2.08,2.08,0,0,1,.873.335,7.406,7.406,0,0,1,1.94,2.4c.485.859.926,1.746,1.339,2.639l2.125,4.724c.456.994.931,1.984,1.455,2.944a12.083,12.083,0,0,0,1.717,2.648c.213.2.3.31.243.4s-.257.112-.572,0a3.079,3.079,0,0,1-1.082-.742,6.737,6.737,0,0,1-1.067-1.455c-1.1-2.023-1.974-4.1-2.881-6.15-.456-1.023-.912-2.047-1.4-3.041a17.622,17.622,0,0,0-1.625-2.823,3.511,3.511,0,0,0-.3-.349,2.265,2.265,0,0,0-.32-.3,1.052,1.052,0,0,0-.631-.281,2.105,2.105,0,0,0-1.416.8,13.379,13.379,0,0,0-2.061,3.429c-.456,1-.868,2.027-1.256,3.07l-1.378,3.842a1.615,1.615,0,0,1-.616.708,1.731,1.731,0,0,1-.485-.917l-.708-3.357c-.2-.907-.422-1.814-.694-2.7a11.709,11.709,0,0,0-.732-1.94,1.785,1.785,0,0,0-.524-.684,1.233,1.233,0,0,0-.81-.1,4.365,4.365,0,0,0-1.717.922,15.49,15.49,0,0,0-1.523,1.411c-1.5,1.576-2.765,3.308-4.147,4.986-.31.374-.6.737-.931,1.1a7.178,7.178,0,0,1-1.455,1.3,1.528,1.528,0,0,1-.868.3,1.152,1.152,0,0,1-.31-.063c-.1-.058,0-.15.228-.349a11.182,11.182,0,0,0,.97-1.028c1.227-1.426,2.425-3.036,3.691-4.6.64-.791,1.3-1.577,2.023-2.338a13.126,13.126,0,0,1,2.425-2.129,4.06,4.06,0,0,1,1.251-.563,2.222,2.222,0,0,1,1.635.165,1.858,1.858,0,0,1,.665.6,4.325,4.325,0,0,1,.354.592,9.083,9.083,0,0,1,.485,1.14,37.242,37.242,0,0,1,1.179,4.525Z" transform="translate(-1.351 -225.802)" fill="#7b809a"/>
      <path id="Path_2043" data-name="Path 2043" d="M185.718,268.836a1.981,1.981,0,0,0,.64-.087.349.349,0,0,0,.242-.218v-.068a2.461,2.461,0,0,0-.242-.558,10.671,10.671,0,0,0-.66-1.116l-.737-1.13a8.354,8.354,0,0,0-.737-.917,13.22,13.22,0,0,1-1-1.14c-.092-.131.024-.213.223-.223a1.062,1.062,0,0,1,.718.243,13.661,13.661,0,0,1,1.14,1.111,8,8,0,0,1,.514.626c.078.112.15.223.223.34l.2.315c.335.538.8,1.023,1.125,1.659a2.572,2.572,0,0,1,.175.417,1.271,1.271,0,0,1-.432,1.455,1.941,1.941,0,0,1-.786.344,5.188,5.188,0,0,1-1.411.068,19.99,19.99,0,0,1-2-.33c-.485-.1-1.019-.141-1.523-.252a1.117,1.117,0,0,1-.33-.073c-.412-.116-.509-.286-.485-.568a1.248,1.248,0,0,1,0-.194c.053-.2.257-.306.558-.31.883.058,1.775.257,2.658.4a11.114,11.114,0,0,0,1.9.189Z" transform="translate(-52.665 -123.486)" fill="#7b809a"/>
      <path id="Path_2044" data-name="Path 2044" d="M171.469,258.538a2.823,2.823,0,0,1-.757,1.314,1.939,1.939,0,0,1-.771.422,2.522,2.522,0,0,1-.829.029,4.6,4.6,0,0,1-.538-.145,3.452,3.452,0,0,1-.485-.243,7.858,7.858,0,0,1-2.052-2.454l-.694-1.169a5.592,5.592,0,0,1-.718-1.586c-.039-.18.17-.223.422-.165a1.087,1.087,0,0,1,.694.485c.524.97,1.091,1.94,1.7,2.857a3.565,3.565,0,0,0,1.416,1.227,1.131,1.131,0,0,0,.786.112.97.97,0,0,0,.568-.548,3.909,3.909,0,0,0,.306-1.266,10.059,10.059,0,0,0-.034-2.125,13.373,13.373,0,0,0-.364-1.615c-.029-.121-.073-.233-.092-.359-.082-.451.044-.626.291-.757a.964.964,0,0,1,.175-.087c.194-.063.4.087.567.4a9.738,9.738,0,0,1,.626,3.109,8.562,8.562,0,0,1-.213,2.566Z" transform="translate(-44.451 -117.859)" fill="#7b809a"/>
      <path id="Path_2045" data-name="Path 2045" d="M187.229,255.139a3.98,3.98,0,0,1-.194.553,2.84,2.84,0,0,1-.15.3,2,2,0,0,1-.262.34,1.106,1.106,0,0,1-.786.344,1.412,1.412,0,0,1-.786-.281,3.4,3.4,0,0,1-.635-.577,9.784,9.784,0,0,1-1.31-2.362c-.146-.364-.306-.723-.432-1.1a3.627,3.627,0,0,1-.277-1.5c0-.165.194-.141.378-.029a1.067,1.067,0,0,1,.485.529c.291.863.655,1.732,1.048,2.6a5.012,5.012,0,0,0,1,1.373,2.217,2.217,0,0,0,.291.267.34.34,0,0,0,.189.082c.141,0,.213-.092.344-.4a4.926,4.926,0,0,0,.276-1.12,12.194,12.194,0,0,0,.126-1.838c0-.485-.092-.946-.126-1.421,0-.107-.029-.209-.034-.31,0-.393.112-.529.33-.616.049,0,.087-.049.121-.058a.646.646,0,0,1,.422.4,6.585,6.585,0,0,1,.267,1.314,13.1,13.1,0,0,1,0,1.382,10.747,10.747,0,0,1-.281,2.129Z" transform="translate(-53.605 -116.555)" fill="#7b809a"/>
      <path id="Path_2046" data-name="Path 2046" d="M176.329,289.58c1.237.485,2.7,1.009,3.88.112.679-.509,0-1.668-.669-1.149-.878.66-1.94.116-2.857-.247C175.887,287.97,175.543,289.265,176.329,289.58Z" transform="translate(-50.251 -136.29)" fill="#7b809a"/>
      <path id="Path_2047" data-name="Path 2047" d="M158.653,242.972c1.125-1.6,3.774-2.076,5.6-2.057a.791.791,0,0,0,0-1.576c-2.425-.024-5.476.737-6.96,2.838C156.708,243.011,158.071,243.8,158.653,242.972Z" transform="translate(-40.603 -111.107)" fill="#7b809a"/>
      <path id="Path_2048" data-name="Path 2048" d="M181.994,239.781a2.154,2.154,0,0,1,2.144.563c.776.645,1.9-.485,1.116-1.116a3.8,3.8,0,0,0-3.677-.97c-.936.359-.529,1.882.417,1.518Z" transform="translate(-52.91 -110.463)" fill="#7b809a"/>
      <path id="Path_2049" data-name="Path 2049" d="M161.392,180.793a10.906,10.906,0,0,0-2.91.524,5.374,5.374,0,0,0-.713.243l-.708.267c-.456.213-.922.417-1.368.655l-.97.548-.936.606a28.718,28.718,0,0,0-3.148,2.386c-.514.422-.97.892-1.455,1.339a15.122,15.122,0,0,0-1.378,1.455c-.437.524-.786.883-1.145,1.348s-.718.931-1.053,1.411c-.859,1.232-1.63,2.522-2.391,3.817-.247.393-.4.252-.388-.194a4.249,4.249,0,0,1,.631-1.974,30.524,30.524,0,0,1,5.971-7.276,35.616,35.616,0,0,1,4.584-3.551,17.122,17.122,0,0,1,5.942-2.425,13.581,13.581,0,0,1,3.968-.058,11.742,11.742,0,0,1,2.91.776,7.522,7.522,0,0,1,2.532,1.669,4.948,4.948,0,0,1,1.232,2.047,5.2,5.2,0,0,1,.126,2.4,3.013,3.013,0,0,1-.1.514,4.3,4.3,0,0,1-.141.485c-.451,1.227-.786,1.518-1.154,1.606a1.36,1.36,0,0,1-.257.044c-.126,0-.165-.146-.126-.373a7.21,7.21,0,0,1,.306-.946,5.408,5.408,0,0,0,.31-3.555,4.724,4.724,0,0,0-2.425-2.624,11.156,11.156,0,0,0-5.738-1.14Z" transform="translate(-33.229 -80.446)" fill="#7b809a"/>
      <path id="Path_2050" data-name="Path 2050" d="M169.1,214.873a21.968,21.968,0,0,0,7.761-3.2,13.727,13.727,0,0,0,2.328-2l.451-.485.407-.534c.286-.344.485-.742.742-1.116a11.075,11.075,0,0,0,1.038-2.459,9.061,9.061,0,0,0-.146-5.277,6.936,6.936,0,0,0-2.91-3.628c-.107-.068-.209-.141-.315-.2l-.344-.165a4,4,0,0,0-2.12-.509,4.55,4.55,0,0,0-2.745.786c-.223.175-.34.247-.412.184s-.063-.257.082-.538a3.221,3.221,0,0,1,2.658-1.421,6.378,6.378,0,0,1,1.79.141,4.143,4.143,0,0,1,.873.315c.257.131.519.252.776.393a7.974,7.974,0,0,1,2.556,2.357,9.075,9.075,0,0,1,1.392,6.611,12.364,12.364,0,0,1-3.88,7.14,19.887,19.887,0,0,1-7.838,4.215,29.511,29.511,0,0,1-5.336,1.077,28.206,28.206,0,0,1-8.246-.388,26.589,26.589,0,0,1-6.049-1.877c-.432-.179-.834-.4-1.251-.616-1.528-.873-1.906-1.324-2.018-1.785a1.39,1.39,0,0,1-.063-.315c0-.141.184-.15.485-.044a11.989,11.989,0,0,1,1.251.631,26.633,26.633,0,0,0,10.637,3.26,25.94,25.94,0,0,0,8.469-.553Z" transform="translate(-36.036 -87.911)" fill="#7b809a"/>
      <path id="Path_2051" data-name="Path 2051" d="M232,424.858a6.626,6.626,0,0,1-4,1.111,10.67,10.67,0,0,1-1.455-.1c-.432-.068-.854-.155-1.271-.257l-.31-.082c-.068,0-.073-.029-.116,0l-.572.17c-.81.233-1.615.446-2.425.694a17.393,17.393,0,0,0-2.057.776,18.215,18.215,0,0,0-2.425,1.344c-.238.155-.325,0-.233-.276a2.08,2.08,0,0,1,.849-1.057,12.756,12.756,0,0,1,2.707-1.276c.931-.325,1.872-.6,2.818-.834.281-.068.563-.15.844-.233l.218-.068c.121-.029.238-.116.364-.058l.485.121a16.281,16.281,0,0,0,1.722.272,6.888,6.888,0,0,0,3.657-.514,4.735,4.735,0,0,0,1.732-1.455l.257-.354a.97.97,0,0,1,.2-.2.538.538,0,0,1,.272-.068l.781.029.718.034c.485.024.97.053,1.455.092a6.679,6.679,0,0,1,1.455.233,1.166,1.166,0,0,1,.228.131l.15.126.262.252c.165.165.335.33.485.485s.276.3.412.461c.485.606.582.839.563,1.072a.71.71,0,0,1,0,.155c-.044.131-.325-.039-.752-.408-.32-.272-.626-.558-.941-.844l-.456-.432-.194-.179-.049-.034h0l.17-.209-.034.034a1.728,1.728,0,0,0-.112.15l-.024.034h-.049c-.121-.034-.335-.063-.529-.092l-.621-.068c-.422-.034-.854-.058-1.29-.082l-1.416-.053h0l-.063.087a4.761,4.761,0,0,1-.393.485,5.682,5.682,0,0,1-.97.9Z" transform="translate(-71.473 -205.431)" fill="#7b809a"/>
      <path id="Path_2052" data-name="Path 2052" d="M79.809,206.447l.349,24.175.175,8.818.485,31.082c.092,4.6.184,9.216.281,13.78q.087,4.395.175,8.8l.049,4.4v2.2c0,.732-.034,1.455-.053,2.2-.063,1.829-.243,1.581-.485.039a56.23,56.23,0,0,1-.64-7.761c-.3-11.961-.485-23.923-.587-35.991-.058-7.218-.276-14.726-.407-22.109q-.2-12.17-.412-24.354-.107-7.494-.218-14.988c-.1-7.567-.194-15.168-.218-22.686.044-5.821,0-11.573.078-17.341v-3.788c-.029-4.734-.049-6.243.272-7.276a6.084,6.084,0,0,1,.2-.684c.228-.485.558,1.455.684,4.952.194,5.18,0,10.487,0,15.851,0,2.682-.034,5.389-.053,8.1s0,5.437.049,8.168c.078,8.11.184,16.259.315,24.388Z" transform="translate(0 -62.475)" fill="#7b809a"/>
      <path id="Path_2053" data-name="Path 2053" d="M185.346,64.192a13.722,13.722,0,0,1-3.618,3.88,21.794,21.794,0,0,1-4.545,2.532,36.276,36.276,0,0,1-4.889,1.615c-.417.107-.834.209-1.251.3l-.213.044h-.141l-.3.048h-.058a1.335,1.335,0,0,1,.3.078,1.068,1.068,0,0,1,.175.063l.427.2a9.147,9.147,0,0,1,1.344.922,8.618,8.618,0,0,1,1.154,1.15l.485.655a7.236,7.236,0,0,1,.412.694,10.54,10.54,0,0,1,1.106,3.245,13.663,13.663,0,0,1,.107,3.4,19.116,19.116,0,0,1-1.94,6.364,23.049,23.049,0,0,1-8.93,9.541,26.454,26.454,0,0,1-5.336,2.4,32.8,32.8,0,0,1-5.661,1.314,34.571,34.571,0,0,1-7.426.247c-.616-.063-1.237-.107-1.853-.189a17.84,17.84,0,0,1-1.834-.306,30.255,30.255,0,0,1-3.585-.97c-1.455-.509-1.208-.558.073-.34.32.053.7.126,1.15.179s.941.15,1.489.194,1.14.136,1.77.179,1.29.146,1.984.184a35.918,35.918,0,0,0,7.363-.141A31.623,31.623,0,0,0,160.249,100a24.582,24.582,0,0,0,6.417-3.488,22.5,22.5,0,0,0,5.006-5.336,20.128,20.128,0,0,0,2.037-3.948,16.493,16.493,0,0,0,1.072-4.336,11.156,11.156,0,0,0-.456-4.365,7.906,7.906,0,0,0-2.314-3.623c-.2-.155-.378-.33-.587-.485l-.64-.4a2.7,2.7,0,0,0-.335-.17c-.17-.073-.378-.184-.587-.262a6.913,6.913,0,0,0-.718-.238l-.81-.184-.563-.315-.126-.073-.049-.034-.092-.068-.184-.136c-.024,0-.068-.039-.082-.073a.36.36,0,0,1,.073-.092,1.606,1.606,0,0,1,.6-.373,2.425,2.425,0,0,1,.732-.2l.9-.16c1.368-.262,1.8-.373,2.537-.553s1.368-.359,2.037-.572a22.842,22.842,0,0,0,7.45-3.793,11.428,11.428,0,0,0,3.589-4.783,11.108,11.108,0,0,0,.485-5.956,11.568,11.568,0,0,0-1.654-4.254,13.868,13.868,0,0,0-3.1-3.4,19.834,19.834,0,0,0-3.982-2.386,23.52,23.52,0,0,0-4.39-1.523,28.715,28.715,0,0,0-7.121-.8,27.852,27.852,0,0,0-7.033.863l-.747.194-.732.243c-.485.15-.97.34-1.455.524a37.265,37.265,0,0,0-5.248,2.77c-.179.092-.4.233-.519.276-.2.078-.039-.194.422-.776a11.491,11.491,0,0,1,2.58-2.231,19.888,19.888,0,0,1,6.272-2.479,29.957,29.957,0,0,1,6.825-.674,30.66,30.66,0,0,1,6.907.878,25.654,25.654,0,0,1,6.577,2.566,17.947,17.947,0,0,1,4.2,3.293,13.407,13.407,0,0,1,2.828,4.6,12.761,12.761,0,0,1,.631,2.648,12.566,12.566,0,0,1,.1,2.7,11.457,11.457,0,0,1-1.61,5.175Z" transform="translate(-30.888 -9.659)" fill="#b1d5f8"/>
      <path id="Path_2054" data-name="Path 2054" d="M129.348,121.44c-.732,1.184-1.411,2.4-2.023,3.648-.31.621-.592,1.256-.863,1.9-.126.32-.257.64-.378.97l-.175.485-.029.078-.039.092-.048.121-.1.238c-.417.931-.762,1.887-1.1,2.842a31.6,31.6,0,0,0-1.339,5.19,43.963,43.963,0,0,0-.548,5.379c-.082,1.6-.073,3.216-.063,4.812.024,2.047.1,4.108,0,6.165-.034,1.281-.737-.335-.825-2.7a71.939,71.939,0,0,1,.369-12.66c.179-1.266.422-2.551.708-3.837a31.659,31.659,0,0,1,1.135-3.779c.238-.679.534-1.339.81-2l.087-.209.092-.257.184-.509c.131-.335.257-.674.4-1a38.625,38.625,0,0,1,1.9-3.88,48.5,48.5,0,0,1,2.823-4.472,43.516,43.516,0,0,1,5.185-6.087,24.926,24.926,0,0,1,4.851-3.813,13.094,13.094,0,0,1,1.217-.631,6.534,6.534,0,0,1,1.761-.548,1.32,1.32,0,0,1,.854.112,1.1,1.1,0,0,1,.262.15c.1.1,0,.223-.286.359s-.7.3-1.237.485a14.42,14.42,0,0,0-2.348,1.188,21.032,21.032,0,0,0-2.212,1.562,32.6,32.6,0,0,0-4.016,3.846,46.532,46.532,0,0,0-4.986,6.757Z" transform="translate(-22.357 -42.931)" fill="#b1d5f8"/>
      <path id="Path_2055" data-name="Path 2055" d="M126.022,24.994a23.205,23.205,0,0,0-5.442-.4c-.669,0-1.334.107-2,.17a31.834,31.834,0,0,0-6.922,1.528,25.3,25.3,0,0,0-2.91,1.208c-1.213.587-2.367,1.281-3.541,1.94-.369.2-.427,0-.228-.33a3.88,3.88,0,0,1,1.344-1.3,27.124,27.124,0,0,1,7.824-3.192,40.226,40.226,0,0,1,5.112-.917,25.96,25.96,0,0,1,5.724.063,22.042,22.042,0,0,1,3.454.713,19.276,19.276,0,0,1,4.85,2.178,16.875,16.875,0,0,1,3.23,2.532,6.661,6.661,0,0,1,.616.665c.179.218.325.4.437.563a2.912,2.912,0,0,1,.209.451,1.145,1.145,0,0,1,.1.577,1.217,1.217,0,0,1,0,.2c-.053.16-.451-.116-1.033-.655a21.342,21.342,0,0,0-5.67-4.268,18.859,18.859,0,0,0-5.142-1.707Z" transform="translate(-13.681)" fill="#b1d5f8"/>
      <path id="Path_2056" data-name="Path 2056" d="M137.362,108.265c.087.6.209,1.188.34,1.785.044.218.131.427.184.645.179.766.373,1.538.606,2.3.107.34.238.669.373.994a5.156,5.156,0,0,1,.451,1.281c.044.286-.878.247-1.087-.223a14.676,14.676,0,0,1-.907-2.634c-.121-.553-.369-1.086-.534-1.639a18.212,18.212,0,0,1-.456-1.858c-.073-.388-.136-.776-.194-1.164-.092-.592-.126-1.193-.184-1.78a4.33,4.33,0,0,0-.078-.689c-.034-.2-.039-.485-.053-.694a2.137,2.137,0,0,1,0-.306c.029-.383.121-.485.4-.538l.194-.029a.457.457,0,0,1,.432.427c.063.388.136.771.184,1.159s.073.786.107,1.179c.063.587.131,1.184.247,1.775Z" transform="translate(-29.619 -41.27)" fill="#b1d5f8"/>
      <path id="Path_2057" data-name="Path 2057" d="M128.16,109.325c.17.15.349.3.534.437.068.048.15.073.218.121a8.354,8.354,0,0,0,.728.524,1.159,1.159,0,0,0,.369.131c.165.034.335,0,.461.155a1.082,1.082,0,0,1-.141.568c-.107.247-.272.485-.388.451a2.1,2.1,0,0,1-1.014-.582,2.961,2.961,0,0,0-.592-.359c-.209-.141-.412-.291-.611-.446l-.359-.291c-.189-.141-.359-.306-.548-.437s-.335-.16-.485-.262a.869.869,0,0,1-.116-.058c-.126-.107-.107-.194.087-.407a1.8,1.8,0,0,1,.131-.141.611.611,0,0,1,.441-.218,1.756,1.756,0,0,1,.786.383c.179.126.349.276.534.407Z" transform="translate(-24.633 -43.737)" fill="#b1d5f8"/>
      <circle id="Ellipse_12" data-name="Ellipse 12" cx="0.922" cy="0.922" r="0.922" transform="translate(156.029 128.62)" fill="#7b809a"/>
      <circle id="Ellipse_13" data-name="Ellipse 13" cx="0.572" cy="0.572" r="0.572" transform="translate(163.029 149.919)" fill="#7b809a"/>
      <circle id="Ellipse_14" data-name="Ellipse 14" cx="0.742" cy="0.742" r="0.742" transform="translate(188.596 145.253)" fill="#7b809a"/>
      <circle id="Ellipse_15" data-name="Ellipse 15" cx="0.917" cy="0.917" r="0.917" transform="translate(148.841 165.184)" fill="#7b809a"/>
      <circle id="Ellipse_16" data-name="Ellipse 16" cx="0.713" cy="0.713" r="0.713" transform="translate(194.945 182.165)" fill="#7b809a"/>
      <path id="Path_2058" data-name="Path 2058" d="M86.8,189.216c0-.558.034-1.12.044-1.683v-.616l.078-2.163v-.97a8.634,8.634,0,0,1,0-1.227c.034-.252.485.068.485.538,0,.834,0,1.669-.078,2.508-.039.485,0,1.028-.029,1.542l-.039,1.7-.034,1.043c0,.529-.034,1.057-.034,1.581,0,.407,0,.805.034,1.208v.262c0,.33,0,.437-.107.509s-.039.039-.058.044-.121-.1-.146-.344c-.068-.718-.1-1.455-.121-2.236v-1.7Z" transform="translate(-4.377 -81.821)" fill="#7b809a"/>
      <path id="Path_2059" data-name="Path 2059" d="M112.682,346.444l-.073-2.425-.039-.888c-.034-1.043-.029-2.091-.034-3.133V338.61c0-.592-.029-1.184,0-1.775,0-.364.247.1.267.781.029,1.2.068,2.4.073,3.618,0,.723.039,1.479.058,2.222l.058,2.454.034,1.508.049,2.285.048,1.741v.383a1.693,1.693,0,0,1-.073.737.313.313,0,0,1-.039.068c-.039.044-.078-.15-.1-.485-.053-1.038-.1-2.129-.141-3.23l-.082-2.454Z" transform="translate(-17.623 -161.247)" fill="#7b809a"/>
    </g>
  </g>
</svg>
