<svg xmlns="http://www.w3.org/2000/svg" width="200" height="228.388" viewBox="0 0 200 228.388">
  <g id="_25.Meeting" data-name="25.Meeting" transform="translate(-19.058 -60.675)">
    <path id="Path_1902" data-name="Path 1902" d="M265.92,304h0a1.459,1.459,0,0,0-1.149.976c0,.08-.046.287.477.471a.638.638,0,0,0,.574-.1.9.9,0,0,0,.373-.706C266.19,304.222,266.1,304,265.92,304Zm0,0h0a1.459,1.459,0,0,0-1.149.976c0,.08-.046.287.477.471a.638.638,0,0,0,.574-.1.9.9,0,0,0,.373-.706C266.19,304.222,266.1,304,265.92,304Zm0,0h0a1.459,1.459,0,0,0-1.149.976c0,.08-.046.287.477.471a.638.638,0,0,0,.574-.1.9.9,0,0,0,.373-.706C266.19,304.222,266.1,304,265.92,304Zm0,0h0a1.459,1.459,0,0,0-1.149.976c0,.08-.046.287.477.471a.638.638,0,0,0,.574-.1.9.9,0,0,0,.373-.706C266.19,304.222,266.1,304,265.92,304Zm8.414-12.986s-9.189-6.289-9.517-5.743c-2.3,3.7-8.121,5.473-8.121,5.473s-6.7,25.27-5.605,37.268c1.315,14.421,19.079,19.378,26.155,19.131l6.478.821c1.723-19.217-8.684-45.912-9.384-56.95Zm-7.84,15.271a1.8,1.8,0,0,1-1.04.339,1.721,1.721,0,0,1-.574-.092c-1.35-.459-1.292-1.453-1.241-1.723a2.567,2.567,0,0,1,2.3-1.935h0c.683,0,1.413.482,1.4,1.8A2.068,2.068,0,0,1,266.494,306.29Zm.511-7.426a1.615,1.615,0,0,1-1.12.442,1.859,1.859,0,0,1-.643-.115,1.757,1.757,0,0,1-1.189-1.964,1.953,1.953,0,0,1,1.723-1.763,2.068,2.068,0,0,1,.632.046,1.631,1.631,0,0,1,1.149,1.223,2.257,2.257,0,0,1-.569,2.154Zm-1.063,5.169h0a1.459,1.459,0,0,0-1.149.976c0,.08-.046.287.477.471a.637.637,0,0,0,.574-.1.9.9,0,0,0,.373-.706c-.029-.454-.121-.672-.3-.672Zm0,0h0a1.459,1.459,0,0,0-1.149.976c0,.08-.046.287.477.471a.637.637,0,0,0,.574-.1.9.9,0,0,0,.373-.706c-.029-.454-.121-.672-.3-.672Zm0,0h0a1.459,1.459,0,0,0-1.149.976c0,.08-.046.287.477.471a.637.637,0,0,0,.574-.1.9.9,0,0,0,.373-.706c-.029-.454-.121-.672-.3-.672Z" transform="translate(-98.719 -85.193)" fill="#b1d5f8"/>
    <path id="Path_1903" data-name="Path 1903" d="M136.7,246.748a14.835,14.835,0,0,1-3.446,4.819,15.871,15.871,0,0,1-1.66,1.39,22.306,22.306,0,0,1-6.834,3.13l-.8.23a4.644,4.644,0,0,0-.7.264,2.3,2.3,0,0,0-1.022.93,6.358,6.358,0,0,0-.54,1.861,8.723,8.723,0,0,1-.609,2.062c-.2.414-.425.23-.574-.2a4.187,4.187,0,0,1-.046-1.855,8.614,8.614,0,0,1,.649-2.217,3.509,3.509,0,0,1,1.953-1.723l.574-.184.505-.138c.333-.092.672-.172,1-.281.672-.2,1.332-.419,1.987-.66a16.387,16.387,0,0,0,4.388-2.561,14.273,14.273,0,0,0,3.624-4.216,15.645,15.645,0,0,0,1.309-3.2l.213-.735a2.033,2.033,0,0,1,.207-.5.413.413,0,0,1,.178-.167c.057-.075.155-.063.235-.08h2.045a3.67,3.67,0,0,0,1.723-.408.54.54,0,0,0,.247-.574,2.4,2.4,0,0,0-.379-.787c-.368-.528-.816-1.028-1.264-1.556-.2-.235-.4-.459-.574-.712-.695-.953-.764-1.43-.574-1.752a.993.993,0,0,1,.138-.207c.2-.149.425.207.879.816.666.93,1.585,1.752,2.361,2.946a4.913,4.913,0,0,1,.27.488,2.165,2.165,0,0,1,.2.666,1.551,1.551,0,0,1-.649,1.5,3.113,3.113,0,0,1-1.149.494,7.192,7.192,0,0,1-1.068.144c-.356,0-.7.029-1.04.029h-.706l-.052.167-.3.942a16.891,16.891,0,0,1-.683,1.867Z" transform="translate(-43.133 -64.522)" fill="#7b809a"/>
    <path id="Path_1904" data-name="Path 1904" d="M143.222,228.02a.4.4,0,0,1,.046-.459c0-.052.161-.08.2-.046l.184.224a5.587,5.587,0,0,0,.666.982c.19.19.35.391.523.574a1.883,1.883,0,0,0,.574.373,1.349,1.349,0,0,0,.574.063.79.79,0,0,0,.276-.034h.184c.052,0,.052-.04.092-.052a.793.793,0,0,0,.075-.4.27.27,0,0,0,0-.172c-.029-.046-.063-.316-.144-.62s-.172-.609-.19-.683a8.615,8.615,0,0,0-.281-1.1c0-.057-.052-.1-.04-.167a.482.482,0,0,0-.08-.356c-.063-.149-.132-.3-.184-.459a.713.713,0,0,1,0-.276c0-.086.121-.115.149-.1s.1-.04.144-.075a.137.137,0,0,1,.046-.034,4.02,4.02,0,0,1,.8.861,2.412,2.412,0,0,0,.121.218l.235.488c.167.362.322.758.35.844a1.024,1.024,0,0,1,.052.27,5.549,5.549,0,0,1,.172.655,3.084,3.084,0,0,1,.08.735,1.476,1.476,0,0,1-.322.965c-.052.052-.109.115-.161.178a1.206,1.206,0,0,1-.414.31,2.349,2.349,0,0,1-1.149.172,2.567,2.567,0,0,1-.775-.2.574.574,0,0,1-.121-.08,1.268,1.268,0,0,0-.144-.1,3.635,3.635,0,0,1-1.149-1.246c-.069-.109-.241-.672-.287-.8S143.256,228.077,143.222,228.02Z" transform="translate(-52.831 -59.635)" fill="#7b809a"/>
    <path id="Path_1905" data-name="Path 1905" d="M85.618,214.049c2.085,6.168-7.254,15.059-15.438,16.167a21.311,21.311,0,0,1-18.625-6.633c-6.318-7.133-3.061-17.649,2.154-24.524,8.075-10.648,20.423-19.3,33.742-19.24,6.633.034,8.615,2.487,11.406,3.325,5.99-5.255,20.463-8.259,22.571,3.354,1.281,7.047-5.944,12.457-13.29,13.278-9.281,1.04-11.268-2.527-12.635-3.36-1.631-1.091-6.5,7.685-7.317,8.311-1.884-1.832-5.9-2.969-8.1-1.028C73.919,209.155,83.556,214.7,85.618,214.049Z" transform="translate(-12.354 -39.754)" fill="#7b809a"/>
    <path id="Path_1906" data-name="Path 1906" d="M109.057,178.989a20.819,20.819,0,0,0-7.73,2.6,16.826,16.826,0,0,0-1.723,1.149,4.417,4.417,0,0,0-.4.31l-.327.27-.19.155c-.063.052-.121.138-.207.075l-.821-.276-.517-.218c-1.35-.62-2.521-1.332-3.8-1.821a18.953,18.953,0,0,0-8.087-1.045,33.546,33.546,0,0,0-8.167,1.488,42.442,42.442,0,0,0-10.912,5.41A53.08,53.08,0,0,0,58,194.031c-.62.649-1.246,1.292-1.826,1.981l-.89,1.017-.844,1.051a29.642,29.642,0,0,0-3.044,4.422,24.754,24.754,0,0,0-3.274,10.091,15.667,15.667,0,0,0,.505,5.249l.184.638a3.481,3.481,0,0,0,.224.62l.534,1.206.672,1.149a10.817,10.817,0,0,0,.81,1.057,19.1,19.1,0,0,0,7.552,5.571,21.553,21.553,0,0,0,9.258,1.608A19.129,19.129,0,0,0,78.9,225.315a20.75,20.75,0,0,0,4.181-4.33,9.89,9.89,0,0,0,2.039-5.45c-.034-1.195-.218-1.723-.08-1.723s.488.534.66,1.654a7.024,7.024,0,0,1-.046,2.033,10.136,10.136,0,0,1-.816,2.516,16.718,16.718,0,0,1-4.02,5.232,24.564,24.564,0,0,1-5.358,3.624,17.8,17.8,0,0,1-6.254,1.844,21.825,21.825,0,0,1-6.473-.276A22.118,22.118,0,0,1,56.6,228.33a20.268,20.268,0,0,1-5.232-3.859,12.244,12.244,0,0,1-1.08-1.229l-.511-.655-.247-.327-.213-.362-.419-.712a4.421,4.421,0,0,1-.385-.729c-.213-.511-.465-1.005-.632-1.533a16.121,16.121,0,0,1-.752-6.5,22.789,22.789,0,0,1,1.482-6.318,30.113,30.113,0,0,1,3.687-6.846,56.116,56.116,0,0,1,5.031-5.99,51.327,51.327,0,0,1,12.394-9.6,35.832,35.832,0,0,1,16.495-4.595,18.212,18.212,0,0,1,8.477,1.574c.66.3,1.3.638,1.924.965.316.161.626.31.942.454l.471.2.293.1c.034,0,.063-.034.092-.052l.126-.1c.138-.121.287-.235.431-.339.293-.224.574-.431.9-.632a20.551,20.551,0,0,1,1.884-1.091,22.645,22.645,0,0,1,5.02-1.826,18.236,18.236,0,0,1,5.33-.471,10.912,10.912,0,0,1,5.134,1.62,7.965,7.965,0,0,1,2.022,1.826,9.005,9.005,0,0,1,1.367,2.349,12.062,12.062,0,0,1,.861,4.02,9.281,9.281,0,0,1-.867,4.02,9.1,9.1,0,0,1-.465.913l-.574.861A13.73,13.73,0,0,1,118.246,195a15.51,15.51,0,0,1-1.539,1.338,17.188,17.188,0,0,1-1.723,1.1c-.574.356-1.2.62-1.8.919a10.018,10.018,0,0,1-1.9.689,18.644,18.644,0,0,1-3.946.8,19.586,19.586,0,0,1-7.972-.574,9.9,9.9,0,0,1-2.447-1.206,12.826,12.826,0,0,1-1.068-.821,11.091,11.091,0,0,0-.959-.781.379.379,0,0,0-.316,0,1.643,1.643,0,0,0-.425.23,5.634,5.634,0,0,0-.833.752,20.629,20.629,0,0,0-1.476,1.821c-.93,1.269-1.786,2.6-2.659,3.923l-.333.5-.172.247-.2.281a4.376,4.376,0,0,1-.574.66l-.08.08s-.052.057-.086,0l-.167-.126-.345-.258c-.057-.04-.121-.1-.178-.144l-.155-.115c-.075-.052-.149-.115-.23-.161s-.31-.207-.477-.293a8.188,8.188,0,0,0-1.017-.477,5.967,5.967,0,0,0-4.256-.2,3.2,3.2,0,0,0-.523.27,5.34,5.34,0,0,0-.465.362l-.448.436-.4.471a4.284,4.284,0,0,0-.93,2.171,3.779,3.779,0,0,0,.373,1.97,6.485,6.485,0,0,0,.976,1.47,11.034,11.034,0,0,0,2.05,1.792,17.108,17.108,0,0,0,2.659,1.487,2.756,2.756,0,0,0,.913.23c.178,0,.155.08-.115.184a2.958,2.958,0,0,1-1.378-.057,9.027,9.027,0,0,1-2.228-.9A10.412,10.412,0,0,1,78.75,211a5.95,5.95,0,0,1-1.643-3.383,4.6,4.6,0,0,1,.253-1.97,5.829,5.829,0,0,1,.971-1.683,8.248,8.248,0,0,1,.638-.7c.115-.109.218-.224.345-.327l.408-.316a5,5,0,0,1,1.878-.747,7.53,7.53,0,0,1,3.831.408,8.091,8.091,0,0,1,1.723.85,3.177,3.177,0,0,1,.408.276l.092.069c0,.029.04,0,.057,0l.373-.574.5-.747,1-1.51c.678-1.005,1.373-2.016,2.148-2.992a12.992,12.992,0,0,1,1.3-1.424,4.214,4.214,0,0,1,.867-.649,1.669,1.669,0,0,1,.3-.138,1.332,1.332,0,0,1,.4-.1,1.308,1.308,0,0,1,.448,0,4.083,4.083,0,0,1,.414.161,5,5,0,0,1,.505.379l.4.345c.253.218.5.425.752.62a9.493,9.493,0,0,0,1.614.988,11.9,11.9,0,0,0,3.727.976,20.513,20.513,0,0,0,3.986.034,19.938,19.938,0,0,0,3.934-.637,16.38,16.38,0,0,0,7.064-3.923,10.034,10.034,0,0,0,2.3-3.239,8.333,8.333,0,0,0,.655-3.825,8.835,8.835,0,0,0-3.59-6.748,8.393,8.393,0,0,0-1.723-.907,10.877,10.877,0,0,0-1.935-.5,14.14,14.14,0,0,0-4.06-.04Z" transform="translate(-11.924 -39.464)" fill="#7b809a"/>
    <path id="Path_1907" data-name="Path 1907" d="M47.011,325.852q3.825-7.529,7.552-15.134,1.361-2.774,2.711-5.542c1.62-3.245,3.245-6.49,4.928-9.706.844-1.614,1.723-3.216,2.6-4.8a32.818,32.818,0,0,1,3.009-4.623,4.478,4.478,0,0,1,.465-.471,3.234,3.234,0,0,1,.293-.218,1.55,1.55,0,0,1,.414-.161,3.75,3.75,0,0,1,1.35.086,11.438,11.438,0,0,1,2.3.9c.735.356,1.447.747,2.154,1.149a15.054,15.054,0,0,0,2.114,1.005,36,36,0,0,0,5.87,1.574,14.087,14.087,0,0,0,5.916.069c.574-.172.827-.23.861-.121s-.178.362-.666.672a6.191,6.191,0,0,1-2.24.724,12.256,12.256,0,0,1-3.32-.057,34.6,34.6,0,0,1-6.214-1.585l-.752-.276a7.092,7.092,0,0,1-.781-.333c-.5-.241-.965-.494-1.424-.747-.919-.511-1.821-1.011-2.734-1.419a8.4,8.4,0,0,0-1.361-.482l-.327-.069h-.58c.034.19-.046-.258-.034-.2v.034a1.284,1.284,0,0,0,0,.132v.046h0a.085.085,0,0,0-.063.04,4.923,4.923,0,0,0-.907.976c-.3.4-.574.821-.867,1.258-1.12,1.723-2.142,3.572-3.159,5.416-2.418,4.422-4.681,9.189-6.967,13.784q-3.785,7.633-7.57,15.277-2.355,4.686-4.755,9.35c-2.435,4.709-4.956,9.4-7.541,13.985-2.022,3.555-4.02,7.041-6.266,10.424-.494.741-.982,1.47-1.51,2.2-1.987,2.7-2.814,3.446-3.5,3.762a3.381,3.381,0,0,1-.465.213c-.385.063.454-.988,1.9-2.918,2.136-2.872,4.106-5.99,6.03-9.189s3.791-6.576,5.634-9.924c2.705-4.979,5.324-10.039,7.88-15.122Z" transform="translate(-2.716 -85.165)" fill="#7b809a"/>
    <path id="Path_1908" data-name="Path 1908" d="M127.614,306.747a11.159,11.159,0,0,0,1.637-2.263c.184-.293.281-.632.442-.936a24.372,24.372,0,0,0,1.321-3.486c.149-.534.276-1.085.379-1.631a12.637,12.637,0,0,1,.465-2.091c.167-.425,1.063.345.9,1.149a22.969,22.969,0,0,1-1.246,4.279c-.178.419-.316.85-.488,1.286l-.247.649-.287.637c-.207.471-.494.9-.741,1.35l-.436.632a5.434,5.434,0,0,1-.471.615,9.308,9.308,0,0,1-.637.706l-.689.655a13.081,13.081,0,0,1-2.389,1.551c-.643.362-1.292.655-1.964.953-.149.052-.3.109-.454.155-.574.172-.775.149-.959-.1a1.116,1.116,0,0,1-.121-.167c-.1-.2.086-.442.465-.609a24.352,24.352,0,0,0,3.354-1.62,9.913,9.913,0,0,0,2.142-1.723Z" transform="translate(-43.65 -89.866)" fill="#7b809a"/>
    <path id="Path_1909" data-name="Path 1909" d="M120.276,355.515a25.362,25.362,0,0,0,5.841.609c2,0,4.02-.057,6.007-.178,1.465-.092,2.923-.235,4.388-.35l7.753-.666c1.292-.1,2.59-.207,3.894-.276a30.139,30.139,0,0,1,3.946,0,26.8,26.8,0,0,1,3.446.7c1.149.3,2.234.638,3.325,1.028a21.932,21.932,0,0,1,4.066,1.89,8.1,8.1,0,0,1,3.222,3.239c.4.925.052.839-.511.287a20.755,20.755,0,0,0-2.912-2.246,20.039,20.039,0,0,0-3.854-1.947,36.359,36.359,0,0,0-4.193-1.344c-.712-.178-1.436-.35-2.142-.471a12.875,12.875,0,0,0-2.137-.144c-1.47,0-2.975.086-4.474.178-3.6.224-7.334.689-11.027.976-2.027.155-4.066.287-6.111.35a48.877,48.877,0,0,1-6.145-.144,13.825,13.825,0,0,1-3.768-.833,3.968,3.968,0,0,1-1.66-1.206,3.239,3.239,0,0,1-.5-2.01,12.262,12.262,0,0,1,.488-2.872c.253-.925.574-1.832.861-2.734.637-1.78,1.275-3.567,1.912-5.335a46.423,46.423,0,0,0,2.182-8.311c.08-.62.132-1.223.167-1.849.069-1.149,0-1.9,0-2.429a4.12,4.12,0,0,1,0-.655,2.221,2.221,0,0,1,.063-.465,2.364,2.364,0,0,1,.1-.379c.08-.144.224,0,.413.419a6.4,6.4,0,0,1,.454,2.016,23.823,23.823,0,0,1-1.108,8.012c-.729,2.613-1.723,5.2-2.625,7.765a37.909,37.909,0,0,0-1.723,5.715,7.159,7.159,0,0,0-.121,1.373,2.228,2.228,0,0,0,.276,1.08,3.953,3.953,0,0,0,2.194,1.2Z" transform="translate(-41.573 -103.341)" fill="#7b809a"/>
    <path id="Path_1910" data-name="Path 1910" d="M189.97,385.506c-.144.069-.27-.029-.4-.236a.391.391,0,0,1,0-.3,2.3,2.3,0,0,1,.235-.138,10.349,10.349,0,0,1,1.189-.2,3.372,3.372,0,0,1,.867,0,5.487,5.487,0,0,1,1.786.448,1.806,1.806,0,0,1,.368.212,10.048,10.048,0,0,1,1.057.959,1.1,1.1,0,0,0,.172.155,6.352,6.352,0,0,1,.873,1.149c.155.327.333.637.511.948.029.046.069.08.069.138a.574.574,0,0,0,.149.3c.086.121.189.236.27.373a.873.873,0,0,1,.08.235c0,.075-.092.138-.121.126s-.08.063-.115.1,0,.034-.04.04a4.83,4.83,0,0,1-.879-.615c-.04,0-.89-1.068-.976-1.177a.8.8,0,0,1-.115-.207l-.345-.425c-.178-.189-.345-.379-.362-.385a2.431,2.431,0,0,1-.368-.436.269.269,0,0,0-.08-.08c-.126-.1-.264-.172-.391-.276a1.708,1.708,0,0,0-.431-.224,4.374,4.374,0,0,0-.488-.149l-.086-.034a.866.866,0,0,0-.115-.034,4.429,4.429,0,0,0-.626-.092,2.668,2.668,0,0,0-.643,0,5.389,5.389,0,0,0-.7-.063C190.188,385.661,190.027,385.483,189.97,385.506Z" transform="translate(-72.569 -127.492)" fill="#7b809a"/>
    <path id="Path_1911" data-name="Path 1911" d="M188.14,388.318c-.144,0-.241-.1-.3-.322a.4.4,0,0,1,.063-.293,1.8,1.8,0,0,1,.253-.1c.052,0,.827,0,1.091.04a4.806,4.806,0,0,1,.758.092l.764.132a4.13,4.13,0,0,1,.833.212,1.57,1.57,0,0,1,.356.172,10.609,10.609,0,0,1,1.08.787.574.574,0,0,0,.184.132,2.367,2.367,0,0,1,.5.54,5.391,5.391,0,0,1,.362.574c.138.322.3.626.448.936,0,.046.063.08.052.138a.465.465,0,0,0,.115.3c.069.126.144.258.2.391a1.013,1.013,0,0,1,.034.235c0,.075-.121.115-.144.1s-.092.046-.132.08a.137.137,0,0,1-.046.034,5.467,5.467,0,0,1-.729-.643l-.4-.523-.454-.574a.9.9,0,0,1-.1-.2l-.1-.138c-.052-.063-.121-.149-.2-.224-.155-.161-.327-.293-.333-.3a2.251,2.251,0,0,1-.379-.362.219.219,0,0,0-.08-.063,5.281,5.281,0,0,0-.81-.4,2.246,2.246,0,0,0-.477-.1.432.432,0,0,1-.092-.034.461.461,0,0,0-.115-.04c-.419-.063-.827-.178-1.246-.218-.1,0-.54-.184-.649-.189S188.2,388.3,188.14,388.318Z" transform="translate(-71.842 -128.764)" fill="#7b809a"/>
    <path id="Path_1912" data-name="Path 1912" d="M182.69,394.085a.959.959,0,0,1,.574.574c.04.086-.029.241-.121.236a2.227,2.227,0,0,1-.574-.052,20.265,20.265,0,0,1-2.188-.988c-.5-.253-.971-.54-1.424-.793a4.366,4.366,0,0,0-.638-.3,1.377,1.377,0,0,0-.247-.04h-.35c-.505.046-1.045.138-1.6.23-.241.034-.494.069-.741.086-.856.069-1.723.2-2.567.293a2.056,2.056,0,0,0-.425.075,9.485,9.485,0,0,1-1.419.126,13.333,13.333,0,0,1-1.487,0,21.519,21.519,0,0,1-2.269-.391.8.8,0,0,1-.316-.086,2.011,2.011,0,0,0-.666-.235,5.176,5.176,0,0,1-.925-.316,3.163,3.163,0,0,1-.419-.258c-.121-.08,0-.172.046-.172.149,0,.063-.086.063-.138v-.057a2.564,2.564,0,0,1,.3,0l.638.1c.471.057.965.092,1.057.121a4.253,4.253,0,0,0,.431.063c.253,0,.574.08.93.1a14.7,14.7,0,0,0,1.556.034,4.24,4.24,0,0,1,.465,0,9.029,9.029,0,0,0,1.114-.075c.54-.075,1.074-.115,1.149-.126a10.771,10.771,0,0,1,1.3-.1,1.035,1.035,0,0,0,.264-.029c.741-.121,1.487-.218,2.251-.322.391-.052.787-.121,1.206-.149h.241a3.315,3.315,0,0,1,1.149.258,6.906,6.906,0,0,1,.649.362c.4.253.787.505,1.183.735.178.109.982.7,1.2.793a7,7,0,0,0,.6.437Z" transform="translate(-62.055 -130.424)" fill="#7b809a"/>
    <path id="Path_1913" data-name="Path 1913" d="M148.473,360.212c-2.205.178-4.417.425-6.616.712l-2.4.368c-2.826.408-5.64.884-8.425,1.487-.62.126-1.241.281-1.849.448s-1.223.316-1.821.511c-.77.236-1.533.482-2.3.764l-2.251.8c-.471.155-.528-.115-.241-.528a3.848,3.848,0,0,1,1.838-1.286,56.128,56.128,0,0,1,9.764-2.36c1.981-.31,4.02-.724,6.053-1.017,2.223-.333,4.463-.574,6.7-.821,1.378-.132,2.762-.241,4.152-.3.534,0,1.057-.034,1.608,0a4.223,4.223,0,0,1,.816.1,6.11,6.11,0,0,1,.793.184,14.705,14.705,0,0,1,2.952,1.235c1.442.781,2.785,1.654,4.112,2.527l.879.574c1.085.695,1.4.9,1.528,1.281a1.961,1.961,0,0,1,.092.253c.046.253-.574.23-1.465-.241-1.3-.689-2.5-1.539-3.733-2.3a20.5,20.5,0,0,0-3.831-2,6.96,6.96,0,0,0-.741-.241,6.043,6.043,0,0,0-.758-.178,3.3,3.3,0,0,0-.741-.086H151.8c-1.091,0-2.205.1-3.314.2Z" transform="translate(-43.988 -116.579)" fill="#7b809a"/>
    <path id="Path_1914" data-name="Path 1914" d="M94.861,398.09a52.531,52.531,0,0,1-8.087,5.2c-1.045.517-2.068,1.091-3.142,1.545a63.755,63.755,0,0,1-11.688,3.86l-2.671.574c-.89.2-1.792.327-2.676.5a47.453,47.453,0,0,1-6.892.781c-1.442.052.316-1.149,2.923-1.378a87.169,87.169,0,0,0,13.784-2.7,56.024,56.024,0,0,0,16.213-7.966,49.9,49.9,0,0,0,4.531-3.7,39.685,39.685,0,0,0,5.783-6.679,24.65,24.65,0,0,0,2.958-6.007l.207-.695c.052-.23.1-.465.161-.7.1-.437.138-.8.2-1.1s.069-.574.086-.741a2.686,2.686,0,0,1,.069-.494,3.259,3.259,0,0,1,.1-.35c.046-.1.08-.235.126-.31s.213,0,.385.327a3.756,3.756,0,0,1,.224,1.671,16.4,16.4,0,0,1-1.947,6.122,31.89,31.89,0,0,1-3.607,5.45,45.091,45.091,0,0,1-6.949,6.817Z" transform="translate(-17.082 -124.552)" fill="#7b809a"/>
    <path id="Path_1915" data-name="Path 1915" d="M102.673,308.8c0,2.079-1.189,3.549-3.406,2.63a2.676,2.676,0,0,1-1.947-2.82C97.7,304.265,102.673,304.42,102.673,308.8Z" transform="translate(-33.309 -93.788)" fill="#b1d5f8"/>
    <path id="Path_1916" data-name="Path 1916" d="M105.365,339.157c0,5.025-7.145,2.585-5.244-1.809C101.46,334.264,105.365,335.872,105.365,339.157Z" transform="translate(-34.37 -106.671)" fill="#b1d5f8"/>
    <path id="Path_1917" data-name="Path 1917" d="M69.942,368.572a2.481,2.481,0,0,1-.459.844c-2.441,2.964-6.513-1.62-4.02-4.325C67.7,362.657,70.729,366.085,69.942,368.572Z" transform="translate(-19.422 -118.828)" fill="#b1d5f8"/>
    <path id="Path_1918" data-name="Path 1918" d="M102.808,390.031a2.556,2.556,0,0,1-2.194,1.625,2.128,2.128,0,0,1-2.625-2.246c-.046-2.751,2.952-4.526,4.463-2.251A3.153,3.153,0,0,1,102.808,390.031Z" transform="translate(-33.599 -128.134)" fill="#b1d5f8"/>
    <path id="Path_1919" data-name="Path 1919" d="M60.768,412.211a2.556,2.556,0,0,1-2.194,1.625,2.124,2.124,0,0,1-2.625-2.246c-.046-2.751,2.946-4.526,4.463-2.251A3.17,3.17,0,0,1,60.768,412.211Z" transform="translate(-15.704 -137.575)" fill="#b1d5f8"/>
    <path id="Path_1920" data-name="Path 1920" d="M117.329,291.069c-.787-.247-1.562-.523-2.3-.8-.281-.1-.574-.178-.844-.287-.971-.385-1.93-.81-2.872-1.229-.425-.19-.861-.35-1.292-.505a7.466,7.466,0,0,1-1.625-.672c-.316-.2.5-.994,1.149-.747a34.01,34.01,0,0,1,3.274,1.476,17.519,17.519,0,0,0,2.045.793c.758.276,1.516.574,2.3.793.471.155.948.293,1.424.419a13.841,13.841,0,0,0,2.188.414,6.355,6.355,0,0,0,1.66-.092,2.165,2.165,0,0,0,.333-.08c.414-.1.534-.08.729.155a1.846,1.846,0,0,1,.138.161c.132.178,0,.442-.368.6a6.484,6.484,0,0,1-3.446.2,21.635,21.635,0,0,1-2.447-.574Z" transform="translate(-38 -85.847)" fill="#7b809a"/>
    <path id="Path_1921" data-name="Path 1921" d="M108.765,239.469c-.408-.075-.81-.167-1.212-.27-.149-.04-.3-.046-.448-.1a8.713,8.713,0,0,1-1.493-.638c-.213-.1-.431-.212-.655-.3a1.574,1.574,0,0,1-.764-.574c-.1-.167.77-.8.971-.66l1.344.833a3.31,3.31,0,0,0,.976.322c.373.1.747.2,1.149.264.241.046.477.086.718.115a8.743,8.743,0,0,0,1.1.092,6.06,6.06,0,0,0,.85-.121c.063,0,.121-.029.184-.034.235,0,.31.052.356.339a.382.382,0,0,0,.034.2.425.425,0,0,1-.247.471,4.2,4.2,0,0,1-1.608.2,8.994,8.994,0,0,1-1.235-.126Z" transform="translate(-36.236 -64.617)" fill="#7b809a"/>
    <path id="Path_1922" data-name="Path 1922" d="M26.531,336.8q1.723-3.98,3.567-7.914c.442-.959.879-1.924,1.35-2.872.408-.839.861-1.66,1.3-2.487l.712-1.223a12.938,12.938,0,0,1,.844-1.2,7.058,7.058,0,0,1,5.318-2.24,7.553,7.553,0,0,1,4.715,1.953,12.509,12.509,0,0,1,3.526,5.37c.235.626-.063.638-.534.241a5.171,5.171,0,0,1-.787-.879,13.213,13.213,0,0,1-.9-1.309l-.19-.333-.224-.31-.442-.638a3.6,3.6,0,0,0-.482-.574l-.505-.574a7.146,7.146,0,0,0-2.429-1.568,6.036,6.036,0,0,0-5.537.781,8.236,8.236,0,0,0-2.2,2.946c-.655,1.137-1.195,2.355-1.757,3.544q-1.878,3.928-3.624,7.92c-.712,1.643-1.43,3.279-2.114,4.933-1.051,2.493-2.085,5.014-3.055,7.524-.741,1.953-1.407,3.894-2.056,5.847-.138.431-.276.856-.419,1.286-.534,1.614-.735,2.091-1.114,2.366a1.965,1.965,0,0,1-.253.184c-.253.109-.264-.632.075-1.849a114.182,114.182,0,0,1,3.831-10.912q1.62-3.991,3.343-8.017Z" transform="translate(0 -99.506)" fill="#7b809a"/>
    <path id="Path_1923" data-name="Path 1923" d="M199.586,356.33,204.18,336.8l1.648-7.15.884-3.681-8.615,3.814-2.3,1.017h-.063v.057l-.04.19-.138.649-.3,1.281q-.62,2.562-1.275,5.089c-.942,3.7-1.89,7.42-2.831,11.09-1.2,4.715-2.366,9.465-3.722,14.134-.85,2.912-.861-1.068.574-6.49l3.773-14.427,1.878-7.225c.3-1.206.609-2.418.9-3.624l.218-1.005.086-.419a2.255,2.255,0,0,1,.373-.184l.54-.241,1.723-.747,4.865-2.148,5.835-2.63c-.655,2.814-1.309,5.64-1.964,8.443l-4.595,19.682-1.407,6.065-.718,3.055-.339,1.516-.161.747a2.1,2.1,0,0,1-.138.574l-.482.253L185.5,371.2l-4.445-.574c-4.807-.615-9.528-1.149-14.289-1.66l-3.13-.327c-3.923-.414-5.169-.574-5.973-.9a4.34,4.34,0,0,1-.574-.2c-.2-.1.109-.218.856-.276a28.2,28.2,0,0,1,3.3.109c3.928.316,7.926.758,11.986,1.229l6.117.747,5.939.77,1.786-.942,8.994-4.709,1.9-.994.069-.345.138-.62.276-1.241,1.149-4.945Z" transform="translate(-58.729 -101.755)" fill="#7b809a"/>
    <path id="Path_1924" data-name="Path 1924" d="M266.637,256.65a9.584,9.584,0,0,1-1.993.89,7.634,7.634,0,0,1-2.194.362,10.687,10.687,0,0,1-4.193-.89,9.816,9.816,0,0,1-2.625-1.723,13.623,13.623,0,0,1-3-4.5,26.785,26.785,0,0,1-1.551-5.089c-.322-1.528-.574-3.078-.793-4.595-.138-.982-.264-1.964-.373-2.952s-.19-1.976-.327-2.872c-.109-.511.149-.615.574-.149a5.169,5.169,0,0,1,.9,2.562,53.982,53.982,0,0,0,2.119,11.739,11.928,11.928,0,0,0,4.02,5.795,8.5,8.5,0,0,0,3.544,1.5,6.136,6.136,0,0,0,.976.126,6.977,6.977,0,0,0,.976.034,6.111,6.111,0,0,0,1.884-.356,8.835,8.835,0,0,0,2.142-1.108,13.346,13.346,0,0,0,1.9-1.562,27.817,27.817,0,0,0,4.56-5.99,41.841,41.841,0,0,0,2.5-5.226c.149-.4.3-.781.448-1.183.574-1.476.741-1.93,1.114-2.177a1.459,1.459,0,0,1,.253-.167c.247-.1.281.609-.069,1.752a37.24,37.24,0,0,1-4.807,9.85,26.152,26.152,0,0,1-2.636,3.291,15.438,15.438,0,0,1-3.314,2.728Z" transform="translate(-98.121 -63.735)" fill="#7b809a"/>
    <path id="Path_1925" data-name="Path 1925" d="M306.061,228.1a6.268,6.268,0,0,1-.08,1.689,2.147,2.147,0,0,1-.132.454l-.172.391a5.182,5.182,0,0,1-.419.735,5.329,5.329,0,0,1-.775.942,6.737,6.737,0,0,1-3.779,1.654,9.659,9.659,0,0,1-1.821.046,4.554,4.554,0,0,1-2.234-.6c-.212-.126-.052-.362.236-.534a1.413,1.413,0,0,1,1.028-.2,7.507,7.507,0,0,0,4.02,0,4.761,4.761,0,0,0,2.831-2.516,2.141,2.141,0,0,0,.213-.609,4.539,4.539,0,0,0,.057-.695,8.108,8.108,0,0,0-.19-1.775,6.082,6.082,0,0,0-1.051-2.464,1.516,1.516,0,0,0-1.528-.666,2.06,2.06,0,0,0-.339.132c-.419.212-.574.293-.862.138l-.19-.1c-.184-.126-.132-.448.276-.77a2.4,2.4,0,0,1,1.149-.5,2.24,2.24,0,0,1,1.35.264,4.152,4.152,0,0,1,1.6,1.821,9.3,9.3,0,0,1,.856,3.176Z" transform="translate(-118.121 -58.631)" fill="#7b809a"/>
    <path id="Path_1926" data-name="Path 1926" d="M251.7,225.751a9.765,9.765,0,0,1-1.648-.258,7.469,7.469,0,0,1-.839-.27,5.868,5.868,0,0,1-.793-.431,5.421,5.421,0,0,1-1.981-2.808,9.918,9.918,0,0,1-.5-2.349,16.712,16.712,0,0,1,.218-4.118l.092-.505v-.138l.04-.184.086-.373.086-.368v-.092c0-.04.057,0,.086,0h.953c.683,0,1.344.063,2.022.109,1.189.092,2.383.178,3.567.316a14.881,14.881,0,0,1,4.5,1.017c.448.2.27.425-.2.574a4.727,4.727,0,0,1-2.01,0,41.037,41.037,0,0,0-4.48-.655c-.764-.075-1.522-.144-2.3-.2l-1.149-.075a.951.951,0,0,1-.178-.029c-.04,0-.046.1-.075.149a1.183,1.183,0,0,0-.052.2l-.063.333c-.052.224-.08.454-.115.678a13.79,13.79,0,0,0-.115,1.378,13.274,13.274,0,0,0,.161,2.751,6.319,6.319,0,0,0,1.028,2.705,3.658,3.658,0,0,0,2.343,1.447,6.318,6.318,0,0,0,3.6-.086,5.17,5.17,0,0,0,2.228-1.568,9.667,9.667,0,0,0,1.453-2.412,16.507,16.507,0,0,0,.712-2.085c.1-.362.178-.683.281-1.091l.207-.81.057-.207v-.1h.109l.431.092,1.149.23c1.195.253,1.562.408,1.752.747a1.148,1.148,0,0,1,.126.23c.069.241-.459.31-1.35.172l-.994-.161-.247-.04h-.236v.2h0l-.029.126c-.092.339-.178.678-.281,1.017a14.3,14.3,0,0,1-1.78,4.02,6.846,6.846,0,0,1-2.556,2.343,6.364,6.364,0,0,1-3.417.638Z" transform="translate(-96.559 -54.799)" fill="#7b809a"/>
    <path id="Path_1927" data-name="Path 1927" d="M275.182,223.5a7.044,7.044,0,0,0,1.1,4.75,1.562,1.562,0,0,0,.293.322,3.881,3.881,0,0,0,.322.293,5.967,5.967,0,0,0,.747.482,5.7,5.7,0,0,0,3.033.9,4.98,4.98,0,0,0,2.964-1.08,8.247,8.247,0,0,0,1.941-2.211,22.881,22.881,0,0,0,1.6-3.446c.155-.368.408-.253.574.161a2.6,2.6,0,0,1-.121,1.867,12.14,12.14,0,0,1-2.3,3.578A6.513,6.513,0,0,1,281.5,231.2a6.236,6.236,0,0,1-1.35.052,5.317,5.317,0,0,1-.666-.1,4.017,4.017,0,0,1-.655-.144,8.387,8.387,0,0,1-2.395-1.149,5.3,5.3,0,0,1-1.775-2.349,8.387,8.387,0,0,1-.574-2.8,17.053,17.053,0,0,1,.253-3.446c.075-.419.149-.844.241-1.264l.178-.775.1-.431a3,3,0,0,1,.448,0l.781.057.632.057,1.269.132a37.214,37.214,0,0,1,3.894.574,8.666,8.666,0,0,1,.85.2c1.057.3,1.361.574,1.453.9a.961.961,0,0,1,.052.241c0,.247-.454.207-1.177,0a45.945,45.945,0,0,0-6.949-1.045H275.7v.063l-.057.276c-.046.218-.092.436-.132.655a18.526,18.526,0,0,0-.327,2.607Z" transform="translate(-108.555 -56.904)" fill="#7b809a"/>
    <path id="Path_1928" data-name="Path 1928" d="M262.881,231.044c.167-.615.35-1.218.534-1.821.069-.218.109-.442.178-.661.258-.77.54-1.522.8-2.3.115-.333.207-.683.293-1.028a4.085,4.085,0,0,1,.437-1.281c.086-.144.333,0,.546.2a.793.793,0,0,1,.327.724,17.857,17.857,0,0,1-.948,2.6,12.688,12.688,0,0,0-.5,1.625c-.184.574-.362,1.195-.528,1.792-.1.368-.2.735-.27,1.1l-.063.373a.879.879,0,0,0,0,.247c0,.034,0,.092.046.1l.121.029.293.046c.448.069.9.075,1.338.109h.3c.362.052.465.144.488.436a.814.814,0,0,1,0,.2c0,.224-.178.379-.459.4a7.421,7.421,0,0,1-1.235-.04,3.807,3.807,0,0,1-.626-.08l-.494-.08a.88.88,0,0,1-.287-.08.989.989,0,0,1-.247-.121.965.965,0,0,1-.327-.724,4.852,4.852,0,0,1,.063-.793c.057-.339.132-.655.2-.971Z" transform="translate(-103.669 -59.081)" fill="#7b809a"/>
    <path id="Path_1929" data-name="Path 1929" d="M253.366,225.387a2.1,2.1,0,0,1,.4,1.281,1.344,1.344,0,0,1-.086.574.89.89,0,0,1-.178.264.735.735,0,0,1-.258.2.953.953,0,0,1-.574.1,1.464,1.464,0,0,1-.793-.333,1.522,1.522,0,0,1-.488-.574.8.8,0,0,1,.235-1.011c.092-.063.27.161.448.373a3.138,3.138,0,0,0,.253.276c.057.069.161.1.069.063a.185.185,0,0,0-.08,0h.138a.752.752,0,0,0,.172.253.179.179,0,0,0,.057.046v.046h0v-.034a.434.434,0,0,1,0-.121v-.172a.884.884,0,0,0-.075-.333.465.465,0,0,0-.212-.258.3.3,0,0,0-.408.057c-.052.1,0,.19.115.27s.052.034.069.057.052.161-.144.379l-.126.149a.385.385,0,0,1-.505.121,1.1,1.1,0,0,1-.471-.93,1.263,1.263,0,0,1,.747-1.108,1.459,1.459,0,0,1,.948-.063,1.511,1.511,0,0,1,.729.482Z" transform="translate(-98.697 -59.512)" fill="#7b809a"/>
    <path id="Path_1930" data-name="Path 1930" d="M279.185,227.534a1.8,1.8,0,0,1,.448,1.327,1.843,1.843,0,0,1-.046.494,1.212,1.212,0,0,1-.638.764,1.148,1.148,0,0,1-.959,0,1,1,0,0,1-.574-.7.856.856,0,0,1,.35-.919c.086-.046.27.161.442.379s.322.431.339.448H278.5a.715.715,0,0,0-.172,0h-.052a.041.041,0,0,0,.04-.034.259.259,0,0,0,.057-.08v-.04a.126.126,0,0,0,.046.086c.08.075.115,0,.149-.184a1.2,1.2,0,0,0,0-.333.833.833,0,0,0-.057-.3c-.04-.1-.08-.161-.167-.172a.327.327,0,0,0-.373.189c-.034.121.069.207.167.276s.057,0,.075.046c.1.063.08.144-.075.391l-.1.172a.373.373,0,0,1-.477.2,1.085,1.085,0,0,1-.615-.81,1.264,1.264,0,0,1,.431-1.195,1.379,1.379,0,0,1,.873-.345,1.31,1.31,0,0,1,.93.345Z" transform="translate(-109.767 -60.481)" fill="#7b809a"/>
    <path id="Path_1931" data-name="Path 1931" d="M227.919,170.628a11.1,11.1,0,0,0-3.779,5.743,15.622,15.622,0,0,0-.672,3.446,13.365,13.365,0,0,0,.144,3.521,8.8,8.8,0,0,0,2.148,4.5,13.374,13.374,0,0,0,8,3.957,12.888,12.888,0,0,0,2.3.184,9.31,9.31,0,0,0,1.149-.04l1.149-.149a22.973,22.973,0,0,0,4.434-1.355,41.351,41.351,0,0,0,7.277-4.02,85.571,85.571,0,0,0,8.356-6.582c.827-.729.919-.431.419.408a14.76,14.76,0,0,1-3.251,3.526q-2.142,1.723-4.445,3.285a47.707,47.707,0,0,1-4.75,2.872,30.9,30.9,0,0,1-5.14,2.2,15.506,15.506,0,0,1-5.617.873,18.556,18.556,0,0,1-6.668-1.6,11.233,11.233,0,0,1-5.226-4.595,10.607,10.607,0,0,1-1.183-3.676,16,16,0,0,1-.063-3.814,15.719,15.719,0,0,1,2.516-7.122,8.14,8.14,0,0,1,.724-.936,7.736,7.736,0,0,1,.827-.856,8.147,8.147,0,0,1,.9-.741,9.129,9.129,0,0,1,.936-.689,16.621,16.621,0,0,1,4.129-2.119,16.121,16.121,0,0,1,3.446-.8,18.086,18.086,0,0,1,3.526,0,22.019,22.019,0,0,1,6.725,1.809,32.817,32.817,0,0,1,8.891,5.835c.574.534,1.149,1.062,1.666,1.648a14.656,14.656,0,0,1,1.913,2.481,3.033,3.033,0,0,1,.488,1.332,2.644,2.644,0,0,1,0,.454c-.092.345-.683-.643-2.01-2.228a33.757,33.757,0,0,0-7.081-6.231,25.27,25.27,0,0,0-8.793-3.779,15.95,15.95,0,0,0-3.532-.345,13.21,13.21,0,0,0-3.509.431,14.99,14.99,0,0,0-3.32,1.229c-.517.3-1.051.574-1.539.9l-.741.494-.7.574Z" transform="translate(-86.563 -34.422)" fill="#7b809a"/>
    <path id="Path_1932" data-name="Path 1932" d="M297.562,188.511a13.785,13.785,0,0,0-4.348-.706,9.017,9.017,0,0,0-4.193.925,2.5,2.5,0,0,0-.994.919,2.193,2.193,0,0,0-.161,1.315,12.057,12.057,0,0,0,.8,2.711,25.744,25.744,0,0,0,1.269,2.63,30.593,30.593,0,0,0,3.314,4.842,18.2,18.2,0,0,0,3.825,3.446,9.108,9.108,0,0,0,2.935,1.275,5.255,5.255,0,0,0,3.05-.2c.574-.23.695.029.247.528a1.752,1.752,0,0,1-.459.385,2.8,2.8,0,0,1-.695.345,3.336,3.336,0,0,1-.907.2h-.511a4.237,4.237,0,0,1-.528-.057,9.012,9.012,0,0,1-3.446-1.361,16.656,16.656,0,0,1-2.791-2.257,27.179,27.179,0,0,1-4.279-5.611,33.587,33.587,0,0,1-1.953-3.819,14.935,14.935,0,0,1-.729-2.085,5.525,5.525,0,0,1-.126-.574,4.6,4.6,0,0,1-.08-.574,3.021,3.021,0,0,1,.115-1.246l.115-.327c.057-.109.121-.213.184-.316a2.71,2.71,0,0,1,.454-.528,4.668,4.668,0,0,1,1.068-.735,8.717,8.717,0,0,1,2.343-.752,13.721,13.721,0,0,1,4.8.046,14.933,14.933,0,0,1,5.445,2.24,15.908,15.908,0,0,1,5.686,6.679,7.88,7.88,0,0,1,.6,3.406,10.155,10.155,0,0,1-.672,3.371,8.344,8.344,0,0,1-.678,1.384,5.055,5.055,0,0,1-1.384,1.522,1.361,1.361,0,0,1-.9.3,1.287,1.287,0,0,1-.316,0c-.126-.052-.057-.218.161-.454.109-.109.253-.247.408-.431l.264-.276.276-.339a8.741,8.741,0,0,0,1.775-5.244,6.789,6.789,0,0,0-.477-2.74,15.445,15.445,0,0,0-1.5-2.562,13.784,13.784,0,0,0-7.018-5.2Z" transform="translate(-113.964 -43.243)" fill="#7b809a"/>
    <path id="Path_1933" data-name="Path 1933" d="M254.56,384.815l.063.04c.54.379.362,1.3.293,1.556a8.776,8.776,0,0,1-.339,1.057,16.791,16.791,0,0,1-.9,1.924,17.542,17.542,0,0,1-2.395,3.48,8.289,8.289,0,0,1-1.183,1.091,3.448,3.448,0,0,1-.414.281l-.144.086h-1.189a69.636,69.636,0,0,1-10.591-.827c-.775-.115-1.551-.276-2.3-.408s-1.551-.3-2.3-.511a20.905,20.905,0,0,1-5.686-2.091c-.574-.3-.339-.511.253-.523a4.594,4.594,0,0,1,1.12.132,9.106,9.106,0,0,1,1.47.408,51.289,51.289,0,0,0,11.739,2.51c1.212.132,2.452.207,3.7.236h2.82a4.794,4.794,0,0,0,.718,0,1.22,1.22,0,0,0,.144-.1l.19-.132c.121-.1.247-.2.368-.31.235-.218.465-.454.683-.7a14.365,14.365,0,0,0,1.2-1.6,17.753,17.753,0,0,0,1.838-3.584,6.146,6.146,0,0,0,.218-.781,1.332,1.332,0,0,0,.029-.172.63.63,0,0,0,0-.1.178.178,0,0,0-.092-.167l-.615-.431c-.224-.161-.465-.293-.695-.442-.465-.293-.959-.546-1.442-.81A48.035,48.035,0,0,0,244.067,381c-1.872-.615-3.756-1.086-5.657-1.511l-1.252-.258c-1.568-.333-2.05-.465-2.343-.81a1.341,1.341,0,0,1-.2-.23c-.126-.235.574-.333,1.752-.155A52.927,52.927,0,0,1,246.99,380.9c1.3.494,2.6,1.039,3.859,1.666.638.3,1.258.643,1.878.988l.913.574c.155.1.3.207.448.3l.511.356Z" transform="translate(-88.582 -124.652)" fill="#7b809a"/>
    <path id="Path_1934" data-name="Path 1934" d="M220.5,292.81a51.987,51.987,0,0,1,6.622-7.506,31.556,31.556,0,0,1,3.98-3.1,20.261,20.261,0,0,1,4.554-2.251l1.453-.414a1.34,1.34,0,0,1,.3,0,.736.736,0,0,1,.3.029.614.614,0,0,1,.276.132.684.684,0,0,1,.218.207,1.867,1.867,0,0,1,.345,1.04,8.655,8.655,0,0,1-.08,1.568,28.165,28.165,0,0,1-.574,2.918c-.982,4.152-2.148,8.224-3.153,12.342s-1.924,8.242-2.6,12.417a72.631,72.631,0,0,0-.965,11.176,34.63,34.63,0,0,0,2.516,13.9c.626,1.315.3,1.3-.517.276a14.932,14.932,0,0,1-2.452-6,50.834,50.834,0,0,1-.27-14.869,116.677,116.677,0,0,1,2.688-14.594c.7-2.872,1.447-5.806,2.2-8.741.373-1.47.741-2.941,1.114-4.411s.7-2.946.925-4.405a8.351,8.351,0,0,0,.109-1.436,2.766,2.766,0,0,0-.034-.293.253.253,0,0,0-.04-.121.178.178,0,0,0-.224-.075l-.925.264-.488.138-.477.19-.948.391c-.322.121-.615.31-.919.459l-.913.482-.867.574a18.026,18.026,0,0,0-1.694,1.195,39.879,39.879,0,0,0-5.979,5.795,66.977,66.977,0,0,0-6.972,10,86.268,86.268,0,0,0-7.518,16.862,65.027,65.027,0,0,0-1.809,6.846,50.776,50.776,0,0,0-.982,6.944c-.052.517-.052,1.022-.063,1.533a15.177,15.177,0,0,0,0,1.533c.04.517,0,.913.034,1.315s.057.764.086,1.091c.034.666.115,1.189.172,1.625a13.774,13.774,0,0,1,.126,1.826,4.127,4.127,0,0,1-.04.573c-.052.213-.23-.045-.5-.717a7.109,7.109,0,0,1-.414-1.321,13.121,13.121,0,0,1-.339-1.9,30.437,30.437,0,0,1-.052-6.513,50.2,50.2,0,0,1,1.005-6.553,78.4,78.4,0,0,1,4.02-12.819,84.763,84.763,0,0,1,9.7-17.609Z" transform="translate(-79.393 -82.764)" fill="#7b809a"/>
    <path id="Path_1935" data-name="Path 1935" d="M306.378,400.017a25.639,25.639,0,0,0-4.5-3.934c-.574-.419-1.235-.775-1.861-1.149a9.976,9.976,0,0,0-3.48-1.327,24.19,24.19,0,0,0-3.859.046,33.218,33.218,0,0,1-3.549.057,12.347,12.347,0,0,1-4.468-.936c-.437-.19-.264-.419.189-.546a4.6,4.6,0,0,1,1.987,0,18.855,18.855,0,0,0,4.348.385c1.482,0,3-.167,4.595-.1a9.189,9.189,0,0,1,2.872.615,17.716,17.716,0,0,1,2.6,1.3,28.718,28.718,0,0,1,4.939,3.865c.454.448.89.919,1.3,1.407a8.259,8.259,0,0,1,.574.781l.27.413a2.057,2.057,0,0,1,.121.224l.155.3v.052a1.332,1.332,0,0,1,.121.925.712.712,0,0,1-.706.482,1.643,1.643,0,0,1-.948-.224,7.2,7.2,0,0,1-.666-.477c-.758-.615-1.482-1.246-2.205-1.867l-1.373-1.149-.683-.574-.345-.27-.167-.121a.16.16,0,0,0-.086-.046l-.793-.224-.936-.264c-1.149-.35-1.5-.54-1.654-.89a1.022,1.022,0,0,1-.1-.236c-.034-.241.5-.264,1.355-.057l1.223.31,1.3.356c.1.034.184.109.281.149a1.589,1.589,0,0,1,.178.132l.281.218.54.442,1.068.9,2.131,1.809.712.574.31.235h0a1.756,1.756,0,0,0-.167-.293c-.1-.149-.19-.3-.3-.454-.23-.3-.471-.574-.735-.884Z" transform="translate(-112.953 -130.688)" fill="#7b809a"/>
    <path id="Path_1936" data-name="Path 1936" d="M289.841,289.678c-.626-1.723-1.281-3.394-1.987-5.043-.178-.408-.368-.781-.574-1.206l-.04-.075-.063-.138-.126-.287a2.061,2.061,0,0,1-.121-.574,1.051,1.051,0,0,1,.1-.511.953.953,0,0,1,.385-.356,1.557,1.557,0,0,1,.534-.138h.62a4.515,4.515,0,0,1,.741.121c.465.1.925.224,1.378.345a17.144,17.144,0,0,1,5.037,2.527,24.907,24.907,0,0,1,4.083,3.8,40.378,40.378,0,0,1,4.595,6.633,80.658,80.658,0,0,1,5.6,12.957c1.528,4.44,2.791,8.959,3.934,13.5,1.017,4.02,1.953,8.109,2.872,12.13q.867,3.877,1.723,7.759c.287,1.292.574,2.584.9,3.865a37.9,37.9,0,0,0,1.057,3.768c.276.747.4,1.04.293,1.086s-.436-.224-.821-.844a23.641,23.641,0,0,1-2.366-6.674c-2.338-10.573-4.405-21.158-7.633-31.531a74.023,74.023,0,0,0-8.041-18.08,34.772,34.772,0,0,0-3.274-4.313,20.957,20.957,0,0,0-4.02-3.555,16.281,16.281,0,0,0-2.326-1.321,14.973,14.973,0,0,0-2.516-.867,11.142,11.142,0,0,0-1.287-.264,1,1,0,0,0-.293,0,.149.149,0,0,0-.121.08.207.207,0,0,0,0,.144,1.281,1.281,0,0,0,.046.138l.092.19.31.615c.207.425.385.856.574,1.275,1.723,4.193,3.216,8.471,4.554,12.785a176.011,176.011,0,0,1,4.9,19.912c.235,1.3.465,2.6.7,3.888l.574,3.877c.213,1.287.35,2.579.5,3.877s.327,2.59.414,3.894c.086,1.149.172,2.269.264,3.446.034.534.063,1.028.1,1.476s0,.861,0,1.241v1.849a8.272,8.272,0,0,1-.235,2.033,5.369,5.369,0,0,1-.184.609c-.212.408-.431-1.338-.574-4.463-.029-1.149-.144-2.3-.241-3.492s-.155-2.355-.27-3.5-.27-2.366-.408-3.555l-.207-1.792c-.086-.574-.178-1.195-.264-1.792l-.534-3.6c-.212-1.195-.431-2.395-.643-3.6s-.465-2.4-.712-3.6-.482-2.4-.781-3.6a172.2,172.2,0,0,0-6.214-21.038Z" transform="translate(-114.025 -83.536)" fill="#7b809a"/>
    <path id="Path_1937" data-name="Path 1937" d="M267.039,286.478c-.528-.414-1.045-.839-1.551-1.258l-1-.833-.086.109-.178.258-.213.287a19.459,19.459,0,0,1-1.275,1.551,11.7,11.7,0,0,1-6.048,3.6,8.04,8.04,0,0,1-3.182-.034,7.736,7.736,0,0,1-3.584-1.826c-.31-.281-.08-.454.35-.465a3.733,3.733,0,0,1,1.66.459,7.156,7.156,0,0,0,3.446.925,8.041,8.041,0,0,0,3.515-.9,12.022,12.022,0,0,0,3.572-3.009c.27-.316.534-.643.787-.976l.184-.253.218-.316.574-.89c.3.2.6.419.9.638l.609.488,1.074.884a28.445,28.445,0,0,0,2.625,1.947,12.8,12.8,0,0,0,4.44,1.964,6.318,6.318,0,0,0,3.555-.31c.236-.115.471-.207.7-.345.856-.465,1.108-.643,1.47-.546a.987.987,0,0,1,.241.063c.109.052.109.178,0,.362a2.372,2.372,0,0,1-.649.678,6.559,6.559,0,0,1-3.549,1.269,9.063,9.063,0,0,1-3.8-.666,20.165,20.165,0,0,1-4.79-2.826Z" transform="translate(-98.213 -84.196)" fill="#7b809a"/>
    <path id="Path_1943" data-name="Path 1943" d="M171.137,427.825c-4.863-.247-9.725-.5-14.583-.626-2.429-.069-4.858-.046-7.3-.046h-7.3l-10.65.04H98.47c-1.546,0-3.12.092-4.671.155-5.545.247-11.126.574-16.634.873-3.536.178-7.086.345-10.636.4-1.78,0-3.555,0-5.334-.046a28.688,28.688,0,0,1-5.339-.6,3.769,3.769,0,0,1-1.2-.482c-.243-.189-.327-.3-.29-.333a.819.819,0,0,1,.467.08c.262.04.621.121,1.084.155,1.868.178,5.26.086,9.342.063,7.207-.063,14.429-.488,21.66-.844,3.62-.178,7.245-.368,10.884-.454s7.273,0,10.921,0c8.716.046,17.792-.04,26.709-.057H150.15c4.9-.063,9.809.121,14.718.345l18.1.925c9.127.459,18.306.925,27.368,1.057,3.527.046,7.007.034,10.491-.086,1.738-.063,3.471-.161,5.2-.31a39.6,39.6,0,0,0,5.138-.729c.369-.092.729-.207,1.093-.3.192-.052.3-.121.467-.178a2.84,2.84,0,0,0,.406-.178.148.148,0,0,0,.065-.088.188.188,0,0,0,0-.119.721.721,0,0,0-.047-.109c0-.04-.07-.121-.126-.2a7.581,7.581,0,0,0-.771-.942c-1.06-1.114-2.046-1.947-2.849-2.659s-1.467-1.275-2.009-1.723a15.793,15.793,0,0,1-2.107-2.119,5.031,5.031,0,0,1-.593-.764c-.121-.3.2,0,1.1.661s2.275,1.723,4.026,3.165c.649.54,1.294,1.091,1.929,1.683a13.5,13.5,0,0,1,1.822,1.959,3.534,3.534,0,0,1,.224.356,2.376,2.376,0,0,1,.224.574,1.158,1.158,0,0,1-.248,1.1.977.977,0,0,1-.36.212l-.346.155-.346.155-.173.075-.15.046c-.4.109-.8.241-1.2.333l-1.2.247a74.852,74.852,0,0,1-9.692.81c-6.511.184-13.1.029-19.7-.19-9.809-.345-19.642-.907-29.456-1.4Z" transform="translate(-15.028 -141.617)" fill="#7b809a"/>
    <path id="Path_1944" data-name="Path 1944" d="M334.563,400.926l-3.968-.318-1.446-.1-5.1-.479c-.756-.074-1.512-.122-2.261-.166a24.775,24.775,0,0,1-2.889-.235c-.595-.1.209-.823,1.318-.745,1.96.139,3.921.318,5.892.571,1.182.148,2.416.2,3.627.3l3.99.314,2.46.17c1.241.074,2.489.152,3.719.179h1.428l1.413-.057c.206,0,.408-.035.617-.044.778-.031.977-.048,1.182.157a.913.913,0,0,1,.136.126c.11.148-.2.348-.8.457a31.637,31.637,0,0,1-5.312.122c-1.336-.048-2.676-.139-4.012-.222Z" transform="translate(-127.55 -133.564)" fill="#7b809a"/>
    <path id="Path_1945" data-name="Path 1945" d="M264.913,253.711c-.138-.04-.149-.2-.063-.4a.466.466,0,0,1,.218-.207,1.509,1.509,0,0,1,.236,0,4.435,4.435,0,0,0,.758.327c.178.063.356.115.528.19a4.266,4.266,0,0,0,1.1.218,1.151,1.151,0,0,1,.241,0,1.465,1.465,0,0,0,.833-.075.106.106,0,0,0,.121-.069c.029-.069.683-.4.747-.477a1.028,1.028,0,0,0,.31-.189,1.611,1.611,0,0,0,.281-.247s.034-.063.086-.069a.489.489,0,0,0,.207-.155,2.417,2.417,0,0,1,.207-.287.576.576,0,0,1,.178-.115.138.138,0,0,1,.155.052c0,.069.08.046.126.057a.063.063,0,0,1,.046,0,2.372,2.372,0,0,1-.109.907,2.9,2.9,0,0,1-.35.534,4.754,4.754,0,0,1-.5.574.494.494,0,0,1-.2.1,4.936,4.936,0,0,1-.448.293,4.1,4.1,0,0,1-.488.23,1.224,1.224,0,0,1-.609.075.287.287,0,0,0-.121,0,1.723,1.723,0,0,1-.511,0,2.483,2.483,0,0,1-.505-.057,2.205,2.205,0,0,1-.505-.08.293.293,0,0,1-.086-.04l-.109-.04a6.592,6.592,0,0,1-1.114-.437,4.451,4.451,0,0,1-.494-.4C265.016,253.958,264.947,253.734,264.913,253.711Z" transform="translate(-104.604 -71.106)" fill="#7b809a"/>
    <path id="Path_1946" data-name="Path 1946" d="M135.974,214.742a8.007,8.007,0,0,1,1.206-.482c.149-.046.281-.132.436-.167a6.7,6.7,0,0,1,1.66-.155c.258.029.505,0,.775.046a1.149,1.149,0,0,1,.976.482c.069.109-.19.3-.454.488s-.465.391-.528.373a6.453,6.453,0,0,0-1.229-.241,2.515,2.515,0,0,0-.948.19,8.042,8.042,0,0,0-1.034.385,3.56,3.56,0,0,0-.574.327,3.153,3.153,0,0,0-.775.649,1.522,1.522,0,0,0-.258.678v.144c0,.161-.109.178-.448.178h-.224a.413.413,0,0,1-.465-.379,2.355,2.355,0,0,1,.81-1.723,5.963,5.963,0,0,1,1.1-.793Z" transform="translate(-48.966 -54.839)" fill="#7b809a"/>
    <path id="Path_1947" data-name="Path 1947" d="M140.912,256.591a2.355,2.355,0,0,1-.884-.574c-.08-.092-.2-.149-.264-.253a3.336,3.336,0,0,1-.448-1.149,4.418,4.418,0,0,0-.1-.494,1.373,1.373,0,0,1,.052-.643c0-.063,0-.052.029,0s.2.1.3.172c.425.253.695.436.81.735.069.184.264.27.391.391a5.164,5.164,0,0,0,.448.414,1.686,1.686,0,0,0,.339.212,1.441,1.441,0,0,0,.609.172c.167,0,.322-.052.511-.052h.121c.155,0,.241.034.276,0h0a.574.574,0,0,0-.092.178,3.263,3.263,0,0,1-.4.574,2.3,2.3,0,0,1-.287.23,1.548,1.548,0,0,1-.345.155,1.826,1.826,0,0,1-1.108,0Z" transform="translate(-51.142 -71.654)" fill="#7b809a"/>
    <g id="Group_1135" data-name="Group 1135" transform="translate(62.136 60.675)">
      <path id="Path_1974" data-name="Path 1974" d="M202.172,109.579a41.312,41.312,0,0,0,6.019-5.707c.647-.782,1.28-1.568,1.856-2.4a37.987,37.987,0,0,0,5.093-9.381c.134-.374.288-.743.4-1.122l.321-1.151.312-1.146c.077-.388.149-.777.221-1.165.091-.48.2-.993.264-1.492l.163-1.511c.153-1,.139-2.009.259-3.017.062-.628.36-.552.623,0a4.494,4.494,0,0,1,.35,1.141,5.087,5.087,0,0,1,.067,1.64,32.852,32.852,0,0,1-3.7,12.2,52.721,52.721,0,0,1-4.153,6.614,42.822,42.822,0,0,1-5.956,6.235,40.492,40.492,0,0,1-4.254,3.137c-.566.35-1.132.71-1.707,1.05l-1.77.959a25.245,25.245,0,0,1-3.7,1.53,50.4,50.4,0,0,0-5.621,2.11c-.388.187-.758.388-1.132.6s-.623.379-.868.513-.422.264-.59.35a1.525,1.525,0,0,1-.782.24,1.731,1.731,0,0,1-.321,0c-.139-.034-.115-.2.067-.48a3.625,3.625,0,0,1,.393-.48,7.516,7.516,0,0,1,.643-.547,18.642,18.642,0,0,1,5.112-2.484c1.794-.623,3.6-1.141,5.275-1.894a41.062,41.062,0,0,0,7.093-4.345Z" transform="translate(-175.72 -81.047)" fill="#7b809a"/>
      <path id="Path_1975" data-name="Path 1975" d="M172.712,168.741c-.451-.024-.9-.048-1.348-.048-.163,0-.326.034-.48.034a15.817,15.817,0,0,0-1.722.053,3.5,3.5,0,0,0-.739.163,2.465,2.465,0,0,1-.921.254c-.216,0-.355-1.132.053-1.281a5.5,5.5,0,0,1,2.139-.254,11.467,11.467,0,0,0,1.281-.077h1.405l.858.029c.432,0,.868.043,1.295.029a9.939,9.939,0,0,0,.988-.129,1.683,1.683,0,0,1,.216-.034c.273,0,.355.062.408.374,0,.067.029.139.034.211a.451.451,0,0,1-.293.48,5.726,5.726,0,0,1-1.8.221h-1.362Z" transform="translate(-167.295 -126.027)" fill="#7b809a"/>
      <path id="Path_1976" data-name="Path 1976" d="M178.789,190.9l.8-4.2c.1-.508.158-1.022.254-1.535l.523-2.7c.182-.892.355-1.784.48-2.681a15.318,15.318,0,0,0,.154-2.4,14.785,14.785,0,0,0-.393-2.921c-.058-.288.221-.388.585-.221a1.707,1.707,0,0,1,.906,1.29,13.01,13.01,0,0,1,0,3.357,25.2,25.2,0,0,1-.571,3.189c-.307,1.247-.456,2.551-.686,3.837l-.786,4.235-.48,2.6c-.225,1.314-.48,2.633-.614,3.947-.125,1.021-.158,2.033-.216,3.045a5.247,5.247,0,0,1-.029.671c-.062.83-.158,1.089-.48,1.242a1.5,1.5,0,0,1-.221.1c-.245.062-.408-.3-.427-.921a35.65,35.65,0,0,1,.441-5.693c.2-1.439.451-2.849.7-4.268Z" transform="translate(-172.653 -129.504)" fill="#7b809a"/>
      <path id="Path_1977" data-name="Path 1977" d="M302.688,111.178a43.069,43.069,0,0,1-6.052-6.067c-.647-.815-1.333-1.6-1.918-2.479a39.658,39.658,0,0,1-4.877-9.8c-.129-.388-.278-.767-.393-1.156L289.12,90.5l-.336-1.17c-.086-.4-.168-.8-.254-1.189-.1-.508-.23-1.012-.321-1.52L288,85.074a18.755,18.755,0,0,1-.134-3.113c0-.647.312-.552.623,0a4.8,4.8,0,0,1,.436,1.089,12.744,12.744,0,0,1,.288,1.544,40.469,40.469,0,0,0,3.208,11.841,37.646,37.646,0,0,0,3.923,6.513,42.49,42.49,0,0,0,5.664,6.134,37.305,37.305,0,0,0,4.1,3.16l1.655,1.06,1.722.959a21.26,21.26,0,0,0,3.6,1.5c1.918.628,3.894,1.074,5.808,1.87.417.177.83.355,1.237.576s.681.4.959.561a6.451,6.451,0,0,1,.571.48,1.323,1.323,0,0,1,.436.743,1.267,1.267,0,0,1,.043.307c0,.139-.192.139-.48,0-.144-.058-.3-.153-.5-.259s-.422-.235-.671-.388a23.823,23.823,0,0,0-4.983-1.938,46,46,0,0,1-5.458-1.918,40.169,40.169,0,0,1-7.366-4.614Z" transform="translate(-197.05 -81.288)" fill="#7b809a"/>
      <path id="Path_1978" data-name="Path 1978" d="M360.816,167.471c.48.053.926.115,1.386.187a3.643,3.643,0,0,1,.508.048c.595.11,1.185.259,1.77.417.259.067.523.115.787.158a2.029,2.029,0,0,1,.993.307c.177.139-.48,1.1-.782,1.007a16.306,16.306,0,0,1-1.851-.58,5.309,5.309,0,0,0-1.2-.2c-.446-.062-.9-.129-1.352-.177-.278-.029-.556-.062-.835-.077a11.389,11.389,0,0,0-1.276-.048,7.561,7.561,0,0,0-.959.158c-.067,0-.139.034-.211.038-.269.029-.355-.048-.417-.355a1.494,1.494,0,0,1-.043-.211.451.451,0,0,1,.269-.508,5.112,5.112,0,0,1,1.832-.259c.48,0,.935.034,1.405.067Z" transform="translate(-233.204 -125.971)" fill="#7b809a"/>
      <path id="Path_1979" data-name="Path 1979" d="M358.182,191.448l-.571-4.235c-.072-.518-.173-1.026-.24-1.544l-.34-2.719c-.12-.911-.235-1.827-.321-2.753-.072-.815-.149-1.645-.173-2.47a6.714,6.714,0,0,1,.48-3.208c.153-.321.4-.139.585.211a2.4,2.4,0,0,1,.259,1.367,30.421,30.421,0,0,0,.177,6.12c.115,1.266.369,2.585.547,3.865l.6,4.264.369,2.623c.177,1.328.36,2.662.537,3.981.149,1.022.345,2.019.508,3.031.034.225.077.441.105.671.1.835.038,1.113-.249,1.319a1.337,1.337,0,0,1-.2.134c-.225.1-.451-.225-.576-.825-.369-1.789-.633-3.674-.906-5.573Z" transform="translate(-232.78 -129.604)" fill="#7b809a"/>
    </g>
    <path id="Path_1980" data-name="Path 1980" d="M278.82,211.11c-.161.149-.327-.086-.5-.574a1.724,1.724,0,0,1-.052-.7,2.4,2.4,0,0,1,.247-.368c.052-.046.959-.4,1.281-.546a3.255,3.255,0,0,1,.953-.23,18.5,18.5,0,0,1,2.073-.132,1.275,1.275,0,0,1,.477.092,11.678,11.678,0,0,0,1.66.408.477.477,0,0,0,.31,0,2.193,2.193,0,0,1,.982.258,3.119,3.119,0,0,1,.907.574,7.314,7.314,0,0,1,.879,1.436c0,.075.092.121.052.235a.505.505,0,0,0,.075.5,1.774,1.774,0,0,1,.138.626,1.281,1.281,0,0,1-.121.373c-.046.115-.333.19-.379.178a1.237,1.237,0,0,0-.333.138l-.115.057a4.271,4.271,0,0,1-.574-.235c-.241-.138-.546-.184-.574-.23l-.138-.132c-.08-.075-.212-.138-.327-.224a2.3,2.3,0,0,0-.362-.178c-.1-.052-.172-.1-.207-.092s-.092-.086-.126-.149a3.855,3.855,0,0,0-.913-.207c-.167-.086-.373-.034-.534-.276-.029-.046-.069-.046-.109-.052a6.709,6.709,0,0,1-1.091-.224,3.444,3.444,0,0,0-.574,0c-.034,0-.069-.029-.109-.046a.316.316,0,0,0-.138-.04,7.659,7.659,0,0,0-1.487.069,4.766,4.766,0,0,0-.833-.121C279.119,211.345,278.883,211.047,278.82,211.11Z" transform="translate(-110.333 -52.552)" fill="#7b809a"/>
    <path id="Path_1981" data-name="Path 1981" d="M263.348,206.711c.23.057.2.362-.046.724a1.723,1.723,0,0,1-.482.379l-.373.075a4.853,4.853,0,0,0-.976-.155,2.176,2.176,0,0,1-.724-.126,10.664,10.664,0,0,0-1.545-.293,1.021,1.021,0,0,1-.356-.109,2.521,2.521,0,0,0-1.246-.218.315.315,0,0,0-.218.057,4.18,4.18,0,0,1-1.419.046,10.345,10.345,0,0,0-1.149-.322.169.169,0,0,1-.167-.075c-.126-.207-.241-.161-.362-.172a2.4,2.4,0,0,1-.488-.08.919.919,0,0,1-.27-.207c-.086-.075-.086-.373-.069-.408a.853.853,0,0,0-.04-.35.641.641,0,0,1,0-.132,4.783,4.783,0,0,1,1.074-.741c.029-.029,1.516-.247,1.688-.27a.46.46,0,0,1,.27.057c.04,0,1.24-.109,1.292-.092a1.279,1.279,0,0,1,.735.2.207.207,0,0,0,.149.04,5.555,5.555,0,0,1,1.275.27c.212.069.437.075.655.132a.609.609,0,0,1,.115.069.459.459,0,0,0,.138.075,16,16,0,0,1,1.574.54c.132.052.574.528.735.626S263.267,206.694,263.348,206.711Z" transform="translate(-99.759 -50.737)" fill="#7b809a"/>
    <path id="Path_1982" data-name="Path 1982" d="M288,189.285a5.244,5.244,0,0,1,.465-2.8c.31-.689,1.12-2.211,2.079-1.752.247.121,1.149-.264.8-.436a2.62,2.62,0,0,0-2.923.85,5.657,5.657,0,0,0-1.424,4.405C287.04,189.819,288.045,189.606,288,189.285Z" transform="translate(-114.044 -42.144)" fill="#7b809a"/>
    <path id="Path_1983" data-name="Path 1983" d="M285.139,184.668c.77-2.481,1.453-4.468-.626-6.5-.235-.23-1.149.138-.936.373,2.022,1.981,1.309,3.888.574,6.266-.1.316.9.178.994-.138Z" transform="translate(-112.585 -39.583)" fill="#7b809a"/>
    <path id="Path_1984" data-name="Path 1984" d="M260.181,181.834c-4.48,4.537-17.379,13.146-23.881,12.98-3.814-.1-8.041-1.539-10.039-4.9-2.332-3.882-2.47-10.763,1.608-14.628C238.85,164.863,256.1,177.09,260.181,181.834Z" transform="translate(-87.506 -36.646)" fill="#7b809a"/>
    <path id="Path_1985" data-name="Path 1985" d="M304.294,207.846c-6.358,3.492-15.208-10.407-15.128-13.847-.281-2.786,11.6-5.054,17.264,5.261C307.757,201.672,307.149,206.284,304.294,207.846Z" transform="translate(-114.976 -45.354)" fill="#7b809a"/>
    <path id="Path_1986" data-name="Path 1986" d="M173.945,400.028l6.57.953,2.4.316,2.447.379,5.129-2.567c1.149-.574,2.24-1.149,3.343-1.769,1.413-.77,2.8-1.591,4.279-2.24.925-.4.281,1.108-1.355,1.976-2.872,1.551-5.824,3.038-8.822,4.451l-1.12.574-1.264.649-3.693-.5-6.616-.948-4.072-.574c-2.056-.276-4.124-.574-6.168-.775-1.6-.172-3.165-.27-4.738-.373l-1.034-.057a8.774,8.774,0,0,1-1.361-.155,1.062,1.062,0,0,1-.574-.293,1.27,1.27,0,0,1-.2-.2c-.075-.109,0-.207.27-.287a2.993,2.993,0,0,1,.482-.1h.643a83.808,83.808,0,0,1,8.822.695c2.211.27,4.428.574,6.645.861Z" transform="translate(-58.749 -131.929)" fill="#7b809a"/>
    <path id="Path_1987" data-name="Path 1987" d="M276.723,306.439a.574.574,0,0,1-.615.086.643.643,0,0,1-.419-.741.827.827,0,0,1,.7-.758h.08a.8.8,0,0,1,.172,0,.477.477,0,0,1,.345.391A1.1,1.1,0,0,1,276.723,306.439Z" transform="translate(-109.235 -93.613)" fill="#7b809a"/>
    <path id="Path_1988" data-name="Path 1988" d="M240.491,404.859q-1.723-.233-3.446-.574c-.414-.086-.839-.138-1.258-.23-.729-.161-1.459-.362-2.182-.574s-1.447-.414-2.154-.684-1.269-.413-1.89-.655a9.517,9.517,0,0,1-2.337-1.057c-.442-.293.649-.919,1.482-.528,1.528.655,3.084,1.264,4.7,1.809a10.909,10.909,0,0,0,1.5.413c.511.121,1.034.218,1.545.31s1.149.23,1.723.316,1.149.19,1.723.264c.7.1,1.413.178,2.119.247,1.074.1,2.159.19,3.228.207.833,0,1.654-.052,2.475-.1.184,0,.356-.029.54-.034.678-.029.9.04,1.051.327a1.5,1.5,0,0,1,.092.2c.063.218-.2.4-.7.477a24.87,24.87,0,0,1-4.646.149c-1.149-.046-2.349-.161-3.521-.287Z" transform="translate(-88.568 -134.227)" fill="#7b809a"/>
    <path id="Path_1989" data-name="Path 1989" d="M284.641,406.415l-2.906-.092h-1.063l-3.75-.144h-1.66a12.5,12.5,0,0,1-2.125,0c-.437-.057.121-.948.936-.959,1.442,0,2.872.029,4.342.155.867.075,1.775.034,2.665.052l2.941.075a6.709,6.709,0,0,1,.93.046,8.184,8.184,0,0,1,.925.155,15.237,15.237,0,0,1,2.659.844,19.136,19.136,0,0,1,1.953.879l.413.23c.5.316.6.5.574.758a1.5,1.5,0,0,1-.034.184c-.075.184-.356.167-.712-.029a24.781,24.781,0,0,0-3.389-1.516,11.484,11.484,0,0,0-2.682-.6Z" transform="translate(-108.09 -136.265)" fill="#7b809a"/>
    <g id="Group_1134" data-name="Group 1134" transform="translate(178.676 267.669)">
      <path id="Path_1938" data-name="Path 1938" d="M366.634,418.811a13.15,13.15,0,0,1,2.3.862c.258.121.528.212.781.345.9.448,1.763.948,2.625,1.436.385.224.781.419,1.149.615a5.305,5.305,0,0,1,1.47.884c.132.132-.052.339-.327.482a.965.965,0,0,1-.89.08c-.965-.546-1.947-1.1-2.9-1.723a14.42,14.42,0,0,0-1.861-.93,19.582,19.582,0,0,0-2.085-.873c-.4-.132-.913-.218-1.378-.368a18.968,18.968,0,0,1-2.062-.8c-.523-.23-1.045-.419-1.556-.666l-.339-.161c-.408-.235-.488-.385-.408-.678a.629.629,0,0,1,.057-.2c.1-.2.345-.247.649-.132.9.35,1.786.793,2.705,1.149a11.712,11.712,0,0,0,2.073.649Z" transform="translate(-360.553 -410.261)" fill="#7b809a"/>
      <path id="Path_1939" data-name="Path 1939" d="M400.473,409.314a2.64,2.64,0,0,1,.752.505.937.937,0,0,1,.287.615.724.724,0,0,1-.264.574l-.787.419c-.23.109-.408.178-.609.27s-.4.172-.574.247l-.959.465c-.459.235-.907.5-1.367.741-1.631.844-3.262,1.723-4.87,2.6-.712.4-1.413.821-2.1,1.252a24.938,24.938,0,0,1-2.688,1.6c-.574.276-.425-1.039.574-1.671,1.821-1.114,3.676-2.16,5.611-3.113,1.149-.574,2.3-1.269,3.446-1.884.643-.333,1.292-.666,1.953-.976.167-.086.287-.132.431-.2l.362-.155.23-.075c.075,0,.161-.115.086-.178a.735.735,0,0,0-.235-.172l-.132-.069-.2-.092c-.4-.172-.816-.327-1.229-.477l-3.739-1.355c-.982-.356-1.964-.666-2.929-1.114-.212-.1-.425-.2-.632-.322-.775-.46-.953-.8-.867-1.12a.753.753,0,0,1,.075-.218c.138-.189.425-.057.913.212a19.235,19.235,0,0,0,2.447,1.074c.873.333,1.775.649,2.688.965l2.045.718,1.034.379.517.2.27.115c.161.069.316.132.471.212Z" transform="translate(-371.551 -405.325)" fill="#7b809a"/>
      <path id="Path_1990" data-name="Path 1990" d="M365.621,420.915a13.3,13.3,0,0,1,2.263.844c.264.115.528.212.787.339.9.448,1.763.93,2.625,1.419.385.218.781.419,1.149.615a5.853,5.853,0,0,1,1.465.873c.138.132,0,.3-.276.419a.959.959,0,0,1-.85,0c-.971-.546-1.958-1.1-2.923-1.723a17.644,17.644,0,0,0-1.867-.925,20.479,20.479,0,0,0-2.1-.861c-.4-.132-.913-.213-1.378-.362a16.714,16.714,0,0,1-2.056-.793c-.517-.23-1.04-.431-1.545-.683-.109-.057-.224-.1-.333-.167-.4-.23-.488-.373-.431-.632a.847.847,0,0,1,.046-.172c.075-.178.3-.2.609-.075.89.373,1.78.827,2.705,1.195a11.791,11.791,0,0,0,2.1.649Z" transform="translate(-360.132 -411.125)" fill="#7b809a"/>
      <path id="Path_1991" data-name="Path 1991" d="M395.418,419.865l-2.125,1.108c-.253.138-.494.3-.752.437l-2.694,1.436c-.4.218-.787.459-1.149.7a8.915,8.915,0,0,1-1.493.89c-.339.132-.414-.867.155-1.218a27.786,27.786,0,0,1,3.13-1.723c.649-.3,1.269-.712,1.907-1.062l2.119-1.149,1.309-.695,1.981-1.051c.5-.287.976-.574,1.482-.89l.327-.2c.431-.212.62-.207.793,0,.04.046.086.086.121.132.1.161,0,.385-.293.574a28.9,28.9,0,0,1-2.694,1.591l-2.108,1.149Z" transform="translate(-371.544 -409.995)" fill="#7b809a"/>
    </g>
    <path id="Path_1992" data-name="Path 1992" d="M293,407.954c-.775-.425-1.545-.856-2.3-1.332-.414-.264-.724-.482-1.1-.695a11.9,11.9,0,0,0-1.149-.574c-.574-.258-1.149-.465-1.723-.666-.258-.092-.523-.178-.781-.258a6.939,6.939,0,0,0-.718-.172l-1.671-.046-3.394-.08H277.16a35.823,35.823,0,0,1-3.848,0c-.8-.075.212-1.108,1.689-1.149,2.619,0,5.232.029,7.863.178.8.046,1.568.046,2.429.063a4.455,4.455,0,0,1,.689.121l.609.167c.4.121.793.253,1.177.4a16.731,16.731,0,0,1,2.475,1.149,5.754,5.754,0,0,1,.574.362c.178.126.35.235.546.35.368.224.752.442,1.149.66q1.419.793,2.872,1.533l.712.356c.207.1.419.207.643.3l.339.144.172.057c.052,0,.161,0,.1-.046a4.069,4.069,0,0,0-.465-.54c-.247-.253-.523-.494-.752-.689s-.907-.821-1.177-1.051l-.132-.034c-.27-.092-.54-.167-.8-.27-.988-.385-1.281-.649-1.332-1.011a.9.9,0,0,1,0-.241c.057-.235.454-.167,1.149.069l.775.258.942.293,1.074.971.276.253.454.442c.31.3.62.615.913.919a8.951,8.951,0,0,1,.775.879,1.149,1.149,0,0,1,.27.574.35.35,0,0,1-.132.281l-.052.057-.04.046h0c-.086-.057.115.08.092.069h0a.962.962,0,0,1-.1.149.574.574,0,0,1-.4.1h-.207l-.109-.029-.431-.1-.224-.057-.281-.126-.574-.241c-.373-.155-.787-.368-1.177-.546l-.517-.253-.3-.149-.574-.3-1.189-.62Z" transform="translate(-108.11 -135.311)" fill="#7b809a"/>
    <path id="Path_1993" data-name="Path 1993" d="M314.017,406.145l.953.959a13.36,13.36,0,0,1,1.3,1.453,1.091,1.091,0,0,1,.155.471.408.408,0,0,1,0,.213,1.22,1.22,0,0,1-.2.155.471.471,0,0,1-.224.1,2.951,2.951,0,0,1-1.114-.04c-.212-.063-.419-.109-.626-.178l-.247-.109-.19-.086a13.006,13.006,0,0,1-1.43-.844l-1.292-.856a8.806,8.806,0,0,1-1.551-1.2c-.287-.293.666-.678,1.258-.23,1.051.781,2.079,1.568,3.164,2.228a2.4,2.4,0,0,0,.379.2l.109.057h.069a.872.872,0,0,0,.293.052h.155v-.046a2.054,2.054,0,0,0-.264-.345l-.046-.057-.121-.115-.23-.241-.477-.471c-.4-.391-.793-.775-1.195-1.149l-.907-.844-.454-.413-.425-.368h0l-.9-.27c-.31-.092-.62-.184-.93-.293-.138-.052-.276-.092-.408-.149-.5-.218-.632-.373-.609-.643a.89.89,0,0,1,0-.178c.063-.189.31-.212.66-.1l2.636.839.741.637c.678.574,1.338,1.218,2,1.838Z" transform="translate(-123.004 -135.208)" fill="#7b809a"/>
    <path id="Path_1994" data-name="Path 1994" d="M322.6,409.688a1.075,1.075,0,0,1-.092.574.6.6,0,0,1-.437.327l-.2.04a1.9,1.9,0,0,1-.253,0,5.816,5.816,0,0,1-1.286-.4,3.982,3.982,0,0,0-.465-.138.936.936,0,0,1-.574-.281c-.046-.063.1-.258.253-.431s.327-.339.408-.31a6.038,6.038,0,0,1,1.005.477.873.873,0,0,0,.167.075l.109.034a.489.489,0,0,1,.121,0h0a.322.322,0,0,0,.167.029.121.121,0,0,0,.063-.126.534.534,0,0,0-.034-.224,1.608,1.608,0,0,0-.126-.27,1.522,1.522,0,0,0-.638-.66c-.029,0-.069-.046-.1-.075-.121-.1-.1-.172.046-.368l.109-.08a.373.373,0,0,1,.408-.149,2.038,2.038,0,0,1,.879.8c.046.063.08.132.121.2s.057.115.138.264a2.911,2.911,0,0,1,.236.729Z" transform="translate(-127.799 -137.327)" fill="#7b809a"/>
    <path id="Path_1995" data-name="Path 1995" d="M94.929,401.137a52.832,52.832,0,0,1-8.11,5.2c-1.051.517-2.073,1.1-3.147,1.551a64.064,64.064,0,0,1-11.711,3.837l-2.671.574c-.89.189-1.792.327-2.676.494a45.281,45.281,0,0,1-6.892.787c-1.447.034.3-1.292,2.906-1.539a89.7,89.7,0,0,0,13.686-2.671,52.091,52.091,0,0,0,8.041-3.124,53.452,53.452,0,0,0,8.167-4.813,49.841,49.841,0,0,0,4.531-3.693,39.053,39.053,0,0,0,5.778-6.662,24.45,24.45,0,0,0,2.941-6c.063-.236.132-.465.2-.695s.109-.465.161-.7c.1-.431.138-.793.2-1.091s.069-.54.092-.735a2.135,2.135,0,0,1,.086-.488,1.929,1.929,0,0,1,.132-.35,2.821,2.821,0,0,1,.149-.322c.1-.126.241-.029.425.322a3.693,3.693,0,0,1,.253,1.689,16.311,16.311,0,0,1-1.93,6.185,31.692,31.692,0,0,1-3.607,5.468,45.054,45.054,0,0,1-6.972,6.829Z" transform="translate(-17.088 -125.801)" fill="#7b809a"/>
    <path id="Path_1996" data-name="Path 1996" d="M174.531,429.871c-4.8-.247-9.592-.5-14.388-.643-2.393-.08-4.787-.086-7.194-.08h-7.2l-10.506.04H107.452c-3.093,0-6.168-.04-9.247.1-5.472.224-10.973.574-16.408.9-3.49.189-7,.373-10.5.442-1.75.029-3.5.034-5.258-.029a27.039,27.039,0,0,1-5.272-.609,3.791,3.791,0,0,1-1.176-.488c-.243-.19-.322-.3-.285-.333a.805.805,0,0,1,.467.08,10.763,10.763,0,0,0,1.068.161c1.819.2,5.188.1,9.2.057,7.11-.092,14.234-.574,21.372-.925,3.574-.184,7.143-.385,10.73-.413l10.768.046c8.6.046,17.556-.04,26.355-.057h14.514c4.843-.046,9.685.178,14.523.4l17.85.913c9.009.46,18.06.907,27,1.028,3.48.046,6.923.029,10.348-.1a59.335,59.335,0,0,0,10.194-1.068l1.068-.31.429-.178c.135-.063.317-.121.331-.167a.425.425,0,0,0,0-.23l-.075-.132c-.042-.075-.1-.155-.154-.235a9.621,9.621,0,0,0-.779-.919c-1.059-1.1-2.025-1.918-2.823-2.619l-1.983-1.723a14.91,14.91,0,0,1-2.076-2.1,5.09,5.09,0,0,1-.523-.758c-.121-.3.2,0,1.082.649s2.249,1.689,3.975,3.124c.639.534,1.278,1.08,1.908,1.654a15.155,15.155,0,0,1,1.829,1.935,3.5,3.5,0,0,1,.467.775,1.382,1.382,0,0,1,0,1.149,1.153,1.153,0,0,1-.163.218.455.455,0,0,1-.187.132l-.336.155-.686.31-1.185.339-1.185.247a70.091,70.091,0,0,1-9.564.839c-6.424.2-12.928.052-19.441-.161-9.671-.327-19.38-.879-29.061-1.367Z" transform="translate(-17.442 -142.468)" fill="#7b809a"/>
    <path id="Path_1997" data-name="Path 1997" d="M156.974,371.8a1.648,1.648,0,0,1,1.1,1.516c0,.212-.31.517-.482.459-.333-.115-.672-.2-1.005-.281a9.365,9.365,0,0,0-1.821-.574,14.31,14.31,0,0,0-2.63-.345c-1.1-.034-2.211-.075-3.343-.08a62.53,62.53,0,0,0-6.993.392c-.514.051-1.037.079-1.565.085a42.024,42.024,0,0,0-5.416.505,3.616,3.616,0,0,0-.89.19,25.459,25.459,0,0,1-2.958.471c-1.373.178-2.8.264-3.124.258-1.631-.046-3.274-.063-4.945-.276a2.1,2.1,0,0,1-.712-.138,5.952,5.952,0,0,0-1.528-.437,5.065,5.065,0,0,1-2.1-1.04,2.618,2.618,0,0,1-.615-1.062c-.109-.345.241-.3.316-.235.235.207.218-.08.31-.155a.236.236,0,0,1,.1-.069,4.3,4.3,0,0,0,.419.287,4.593,4.593,0,0,0,1.091.327,16.726,16.726,0,0,0,2.079.1s.368.029.9.029a19.284,19.284,0,0,0,1.97-.075c1.47-.1,3.021-.322,3.337-.373a5.933,5.933,0,0,1,1.011-.04c.149,0,4.646-.695,4.836-.724a15.118,15.118,0,0,1,2.837-.213,2.731,2.731,0,0,0,.574-.04c1.62-.23,3.262-.333,4.911-.425l2.533-.184h1.04a43,43,0,0,1,6.117.212,11.387,11.387,0,0,1,1.6.379c.683.207,1.367.471,1.637.574S156.722,371.7,156.974,371.8Z" transform="translate(-42.089 -121.115)" fill="#7b809a"/>
  </g>
</svg>
