<svg xmlns="http://www.w3.org/2000/svg" width="200" height="158.972" viewBox="0 0 200 158.972">
  <g id="Group_11" data-name="Group 11" transform="translate(0.042 -29.118)">
    <path id="Path_85" data-name="Path 85" d="M132.15,77.682c.231,0,.462-.23.615-.537a3.354,3.354,0,0,1,.691-.844.718.718,0,0,1,.769-.077l.307.307a1.725,1.725,0,0,1,.384.844.827.827,0,0,1,.077.384c0,.153.077.23.077.46v.23h-.154a.974.974,0,0,1-.461-.077,2.251,2.251,0,0,1-.692-.153,3.332,3.332,0,0,1-.922-.384c-.23,0-.461-.23-.691-.153q-.346,0-.461.691a2.335,2.335,0,0,0,.922,1.842,3.2,3.2,0,0,0,1.23.69c.23.077.384.153.615.23l.153.077.307.077c.154,0,.385.077.615.077a2.443,2.443,0,0,0,2.153-.921,2.933,2.933,0,0,0,.461-1.228V77.989a2.729,2.729,0,0,0-.153-.767c-.077-.23-.154-.46-.231-.767a4.688,4.688,0,0,0-1-1.688,3.027,3.027,0,0,0-1.921-1.074,2.975,2.975,0,0,0-3.074,1.535,3.241,3.241,0,0,0-.231,1.995A.721.721,0,0,0,132.15,77.682Z" transform="translate(-16.168 -8.549)" fill="#7c809a"/>
    <path id="Path_86" data-name="Path 86" d="M135.2,30.8c.231,0,.462-.23.615-.537a3.358,3.358,0,0,1,.692-.844.717.717,0,0,1,.768-.077l.307.307a1.733,1.733,0,0,1,.385.844.835.835,0,0,1,.077.384c0,.153.077.23.077.46v.23h-.153a.978.978,0,0,1-.462-.077,2.246,2.246,0,0,1-.691-.153,3.322,3.322,0,0,1-.922-.384c-.231,0-.462-.23-.692-.153q-.345,0-.461.69a2.34,2.34,0,0,0,.922,1.842,3.2,3.2,0,0,0,1.23.691c.231.077.384.153.615.23l.154.077.307.077c.153,0,.384.077.615.077a2.442,2.442,0,0,0,2.152-.921,2.921,2.921,0,0,0,.461-1.228V31.106a2.729,2.729,0,0,0-.153-.767c-.077-.23-.154-.46-.231-.767a4.7,4.7,0,0,0-1-1.688,3.031,3.031,0,0,0-1.922-1.074,2.975,2.975,0,0,0-3.074,1.535,3.247,3.247,0,0,0-.231,1.995A.722.722,0,0,0,135.2,30.8Z" transform="translate(-39.304 4.417)" fill="#a8a8a8"/>
    <path id="Path_87" data-name="Path 87" d="M93.78,83.83a.766.766,0,0,0,.307.384,2.423,2.423,0,0,0,1.307.691c.307.077.922.23,1-.077.077-.23-.154-.614-.307-.844-.384-.691-1.153-1.611-2-1.535C93.472,82.526,93.472,83.217,93.78,83.83Z" transform="translate(-18.084 -10.9)" fill="#fff"/>
    <path id="Path_88" data-name="Path 88" d="M93.681,83.682a1.209,1.209,0,0,0-.077-.307v-.307c0-.153.077-.23.231-.307.077-.077.154,0,.231.077l.231.23c.154.153.538.384.845.691.077.077.154.153.154.23.077.077.077.153.154.23l.077.153s.077.153.077.077h-.538a3.307,3.307,0,0,1-.922-.153,2.926,2.926,0,0,1-.461-.384c.077-.153,0-.23,0-.23a.593.593,0,0,0,.077.23,1.77,1.77,0,0,0,.384.537,2.408,2.408,0,0,0,.845.614c.077.077.154.077.307.077s.154.077.384.077a.747.747,0,0,0,.922-.46v-.307a.461.461,0,0,0-.077-.307c0-.153-.077-.153-.077-.23l-.077-.23c-.077-.077-.077-.23-.154-.307s-.077-.23-.154-.307a2.564,2.564,0,0,0-1.383-1.3,1.489,1.489,0,0,0-1,0,.911.911,0,0,0-.615.767,1.494,1.494,0,0,0,.077.614c.077.153.077.23.154.307A1.713,1.713,0,0,1,93.681,83.682Z" transform="translate(-17.985 -10.751)" fill="#7c809a"/>
    <path id="Path_89" data-name="Path 89" d="M86.96,67.861c-.307-1.842,1.153-3.146,3.151-2.916a6.934,6.934,0,0,1,4.919,4.067c.692,1.918-.384,3.606-2.229,3.606a3.645,3.645,0,0,0-1.307.077c-.845.23-1,1.3-.615,2.3A10.9,10.9,0,0,0,92.8,77.836" transform="translate(-16.798 -7.514)" fill="#fff"/>
    <path id="Path_90" data-name="Path 90" d="M92.792,77.883l-.154-.153c-.077-.153-.231-.307-.384-.537s-.307-.537-.538-.844c-.154-.384-.384-.767-.538-1.151a1.933,1.933,0,0,1-.077-1.3.54.54,0,0,1,.307-.384c.077-.077.231-.077.538-.077a5.731,5.731,0,0,0,1.153,0,3.787,3.787,0,0,0,1.307-.46,3.035,3.035,0,0,0,1.383-2.455,2.978,2.978,0,0,0-.154-1.151,3.852,3.852,0,0,0-.384-1,7.678,7.678,0,0,0-1.537-1.918,7.4,7.4,0,0,0-1.921-1.228,4.413,4.413,0,0,0-1.921-.46,3.065,3.065,0,0,0-1.691.384,2.094,2.094,0,0,0-1,1,1.855,1.855,0,0,0-.307,1v.614c0,.153,0,.23.077.23v-.23a1.9,1.9,0,0,1,.077-.614,2.947,2.947,0,0,1,.384-.921,2.06,2.06,0,0,1,1-.767,3.4,3.4,0,0,1,1.537-.153,5.02,5.02,0,0,1,1.691.614,7,7,0,0,1,2.767,2.992,1.478,1.478,0,0,1,.231.767,1.3,1.3,0,0,1,0,.767,2.144,2.144,0,0,1-.845,1.381,1.3,1.3,0,0,1-.769.23c-.231.077-.538,0-.922.077a2.3,2.3,0,0,0-1.307.384,1.578,1.578,0,0,0-.615,1.151A2.753,2.753,0,0,0,90.64,75.5a6.675,6.675,0,0,0,1.614,1.842Z" transform="translate(-16.789 -7.484)" fill="#7c809a"/>
    <path id="Path_91" data-name="Path 91" d="M120.837,216.178c30.666,0,55.568-7.98,55.568-17.111s-24.825-16.5-55.491-16.573c-30.666,0-55.567,7.289-55.567,16.42C65.269,208.045,90.094,216.1,120.837,216.178Z" transform="translate(-12.631 -30.226)" fill="#7c809a"/>
    <path id="Path_92" data-name="Path 92" d="M61.05,205.938c.077-.153-.538-.613-1.537-1.611a11.451,11.451,0,0,1-1.691-1.995,5.255,5.255,0,0,1-.922-3.146,5.453,5.453,0,0,1,1.921-3.53,16.473,16.473,0,0,1,4.3-2.993,59.789,59.789,0,0,1,12.451-4.526,162.822,162.822,0,0,1,34.97-4.527,178.7,178.7,0,0,1,21.058.537,137.891,137.891,0,0,1,22.442,3.607,56.7,56.7,0,0,1,8.839,2.916,27.414,27.414,0,0,1,7.686,4.527,10.344,10.344,0,0,1,.922.921c.153.153.231.307.384.46a1.236,1.236,0,0,1,.307.537,4.58,4.58,0,0,1,.769,2.072,5.422,5.422,0,0,1-1.768,4.066,15.973,15.973,0,0,1-4.227,3.146,35.989,35.989,0,0,1-4.919,2.3,82.413,82.413,0,0,1-10.222,3.146,96.541,96.541,0,0,1-10.068,1.918,186,186,0,0,1-35.277,1.612,195.128,195.128,0,0,1-23.441-2.456c-5.457-.921-8.454-1.611-8.531-1.38s2.844,1.3,8.224,2.608a146.087,146.087,0,0,0,23.6,3.376,175.826,175.826,0,0,0,35.815-1.074,100.724,100.724,0,0,0,10.3-1.919,69.822,69.822,0,0,0,10.607-3.223,35.928,35.928,0,0,0,5.226-2.455,24.171,24.171,0,0,0,4.918-3.683,10.413,10.413,0,0,0,1.922-2.762,6.18,6.18,0,0,0,.615-3.53,7.082,7.082,0,0,0-1.153-3.376l-.461-.691a4.267,4.267,0,0,0-.538-.691c-.385-.383-.769-.844-1.153-1.151a28.823,28.823,0,0,0-8.531-5.064,76.5,76.5,0,0,0-9.222-3.069,130.849,130.849,0,0,0-22.98-3.606,202.8,202.8,0,0,0-21.443-.384,154.524,154.524,0,0,0-35.431,5.218,58.15,58.15,0,0,0-12.758,5.064,17.5,17.5,0,0,0-4.534,3.53,7.026,7.026,0,0,0-2.075,4.527,6.162,6.162,0,0,0,1.383,3.76,11.235,11.235,0,0,0,2,1.918C60.2,205.785,60.973,206.092,61.05,205.938Z" transform="translate(-10.717 -29.884)" fill="#7c809a"/>
    <path id="Path_93" data-name="Path 93" d="M72.782,63.384c-.231,0-.692,2.148-.538,6.138a39.279,39.279,0,0,0,4.919,16.266,29.561,29.561,0,0,0,3.3,4.757,23.107,23.107,0,0,0,4.765,4.22,12.924,12.924,0,0,0,6.687,2.3,10.975,10.975,0,0,0,7.378-2.3,15.679,15.679,0,0,0,4.765-6.368,27.269,27.269,0,0,0,2-7.826,37.391,37.391,0,0,0-.077-8.287,46.964,46.964,0,0,0-1.922-8.363,42.452,42.452,0,0,0-2.843-6.292,40.68,40.68,0,0,0-4-5.755,21.776,21.776,0,0,0-6.917-5.448A15.194,15.194,0,0,0,81.7,45.045a16.371,16.371,0,0,0-7.609,3.376,18.866,18.866,0,0,0-5,6.062,21.945,21.945,0,0,0-2.306,6.982,33.636,33.636,0,0,0-.307,6.752,52.667,52.667,0,0,0,.845,6.215c.231,1,.461,1.918.692,2.839.307.921.538,1.842.845,2.685A29.87,29.87,0,0,0,73.7,88.474a26.39,26.39,0,0,0,5.457,4.988c3.382,2.225,5.687,2.608,5.687,2.379.077-.23-1.921-1-4.919-3.377A28.054,28.054,0,0,1,75.165,87.4a29.388,29.388,0,0,1-4.227-8.21c-.307-.767-.461-1.688-.769-2.532-.231-.921-.384-1.765-.538-2.762a46.571,46.571,0,0,1-.692-5.831,23.577,23.577,0,0,1,2.536-12.353,17.373,17.373,0,0,1,4.381-5.141,13.379,13.379,0,0,1,6.3-2.762,12.071,12.071,0,0,1,6.917,1.151,18.466,18.466,0,0,1,5.995,4.757,30.08,30.08,0,0,1,3.612,5.218,40.009,40.009,0,0,1,2.69,5.831,39.18,39.18,0,0,1,1.844,7.75,36.691,36.691,0,0,1,.154,7.673,23.25,23.25,0,0,1-1.691,6.982,13.139,13.139,0,0,1-3.843,5.294,8.383,8.383,0,0,1-5.61,1.842,11.855,11.855,0,0,1-5.534-1.842,20.267,20.267,0,0,1-4.381-3.683,33.037,33.037,0,0,1-3.228-4.3,36.686,36.686,0,0,1-3.843-8.44,44.733,44.733,0,0,1-1.614-6.829C72.936,65.532,73.013,63.384,72.782,63.384Z" transform="translate(-12.842 -3.65)" fill="#7c809a"/>
    <path id="Path_94" data-name="Path 94" d="M148.336,210.744c1.076-.383-.154-1.151-.307-2-3.075-14.118-13.835-27.085-16.525-41.279a21.985,21.985,0,0,1-8.377,5.754c-5.149,1.841-10.913-.614-10.913-.614.231,7.136,4.689,13.427,7.532,19.95,2.075,4.757,3.766,13.2,4.227,18.414A35.562,35.562,0,0,0,148.336,210.744Z" transform="translate(-21.684 -27.323)" fill="#fff"/>
    <path id="Path_95" data-name="Path 95" d="M148.494,211.168c1.153-.537.538-1.458.077-2.3a17.584,17.584,0,0,1-.615-2.149c-.231-.767-.384-1.535-.615-2.225a62.1,62.1,0,0,0-3.536-8.824c-2.767-5.985-6.071-11.816-8.608-17.955a54.955,54.955,0,0,1-3.3-10.436.619.619,0,0,0-1-.23,19.262,19.262,0,0,1-7.993,5.524,15.313,15.313,0,0,1-10.76-.537.539.539,0,0,0-.691.537c.231,5.678,2.921,10.742,5.38,15.653a54.537,54.537,0,0,1,3.228,7.213,59.684,59.684,0,0,1,1.844,7.289,72.9,72.9,0,0,1,1.23,8.21.507.507,0,0,0,.461.537,27.255,27.255,0,0,0,7.379,1.765,38.206,38.206,0,0,0,17.37-1.995c.692-.23.384-1.381-.307-1.075a35.873,35.873,0,0,1-17.062,1.919A27.991,27.991,0,0,1,123.9,210.4c.154.153.307.383.462.537a76.174,76.174,0,0,0-2.69-14.348c-1.537-5.141-4.3-9.591-6.456-14.425a24.7,24.7,0,0,1-2.536-9.591c-.231.153-.462.384-.691.537a16.6,16.6,0,0,0,11.375.537,20.977,20.977,0,0,0,8.531-5.832c-.307-.077-.615-.153-1-.23,2.383,12.123,9.838,22.405,14.218,33.837.615,1.611,1.153,3.223,1.614,4.911.231.766.384,1.611.615,2.379a2.291,2.291,0,0,0,.307.767c.077.153.538.613.307.69C147.187,210.478,147.8,211.475,148.494,211.168Z" transform="translate(-21.534 -27.211)" fill="#7c809a"/>
    <path id="Path_96" data-name="Path 96" d="M112.516,172.7c-.231-.077-.384-.307-.307-.461.307-.844,1.69-3.069,7.608-4.68,7.455-2.072,10.837-1.918,11.99-.691C132.883,168.024,123.506,176.157,112.516,172.7Z" transform="translate(-21.679 -27.034)" fill="#7c809a"/>
    <path id="Path_97" data-name="Path 97" d="M119.023,171.4s1.537,1.075,4.534-.153a7.915,7.915,0,0,0,3.92-3.146l-3.843-4.527-5.226,1.842-.385,1Z" transform="translate(-22.806 -26.57)" fill="#fff"/>
    <path id="Path_98" data-name="Path 98" d="M112,135.377c.23-.307-.923-1.458-3.075-3.376a28.238,28.238,0,0,1-3.536-3.376,12.377,12.377,0,0,1-1.614-2.3,4.513,4.513,0,0,0-.307-.614v-.153c0-.077,0-.153.077-.153s.077,0,.154.077l.153.077.231.153c.154.077.384.23.538.307.768.461,1.614,1,2.459,1.611,1.691,1.151,3.612,2.225,5.534,3.3.307.153.615.383.922.537l.845.614.692.691a5.391,5.391,0,0,1,.615.767,8.489,8.489,0,0,1,1.076,2.225c.231.844.385,1.688.538,2.532a40.067,40.067,0,0,1,.231,5.218v2.455a6.615,6.615,0,0,0,.077,1.228,6.719,6.719,0,0,0,.154,1.227,22,22,0,0,0,1.076,4.3,19.227,19.227,0,0,0,2.921,5.448c.846,1.151,1.537,1.611,1.768,1.457.154-.153-.153-.844-.691-2.148a38.379,38.379,0,0,1-1.922-5.448,19.039,19.039,0,0,1-.615-3.913c0-.384-.077-.691-.077-1.075v-1.151c0-.767.077-1.611.077-2.455a44.734,44.734,0,0,0-.077-5.524,23.35,23.35,0,0,0-.538-3.069,10.18,10.18,0,0,0-1.46-3.069,13.147,13.147,0,0,0-.845-1.075,12,12,0,0,1-1-1c-.384-.307-.691-.537-1.076-.844l-1.153-.691c-2-1.074-3.766-2.072-5.457-3.146a29.074,29.074,0,0,0-2.613-1.535c-.231-.153-.462-.23-.692-.383l-.384-.154-.538-.23c-.23-.077-.461-.077-.615-.153l-.307-.077h-.307a5.957,5.957,0,0,0-1.153.153,1.952,1.952,0,0,0-1.076,1,2.211,2.211,0,0,0-.231,1.381,5.331,5.331,0,0,0,.462,1.458,4.163,4.163,0,0,0,.461.844,12.6,12.6,0,0,0,2.152,2.608,18.173,18.173,0,0,0,4.227,3.223C110.382,134.84,111.766,135.608,112,135.377Z" transform="translate(-19.469 -18.634)" fill="#7c809a"/>
    <path id="Path_99" data-name="Path 99" d="M109.019,155.183c-.845.614,1,3.683,3.69,7.442a81831.763,81831.763,0,0,1,.768,1.075c.385.46.692.921,1,1.3a3.815,3.815,0,0,0,.537.614s.077,0,.077.23c.153.307.23.691.384,1.075.077.383.231.767.307,1.074.384,1.381.691,2.225,1.23,2.225.462,0,.846-.921.922-2.455a7.359,7.359,0,0,0,0-1.3,6.738,6.738,0,0,0-.231-1.611,3.683,3.683,0,0,0-.537-1.151,4.219,4.219,0,0,0-.462-.614l-.922-1.381a2.3,2.3,0,0,1-.384-.537c-.154-.153-.231-.383-.385-.537C112.248,157.1,109.788,154.646,109.019,155.183Z" transform="translate(-21.027 -24.936)" fill="#7c809a"/>
    <path id="Path_100" data-name="Path 100" d="M99.86,145.1c-.23-.153-.461-.077-.845.307a2.818,2.818,0,0,0-.615,1.918,4.462,4.462,0,0,0,1,2.685,12.2,12.2,0,0,0,2.229,2.225l.692.461.23.077.307.077c.154.077.385.153.538.23a4.248,4.248,0,0,0,1.384.154,2.576,2.576,0,0,0,1.153-.384,2.155,2.155,0,0,0,1.076-1.841,6.82,6.82,0,0,0-.23-1.075c-.154-.383-.307-.691-.462-1a2.122,2.122,0,0,0-.461-.614c-.154-.153-.231-.307-.385-.46-1.076-1.075-2.075-1.228-2.305-.844s.153,1.074.615,2.071c.077.153.077.231.153.384s.154.307.077.383c0,.153,0,.153-.077.153-.077.077-.231,0-.153-.077H103.7a3.13,3.13,0,0,1-.307-.23,10.592,10.592,0,0,1-1.921-1.611,4.521,4.521,0,0,1-1-1.3,6.4,6.4,0,0,1-.308-1.151C100.168,145.486,100.091,145.179,99.86,145.1Z" transform="translate(-19.016 -22.989)" fill="#7c809a"/>
    <path id="Path_101" data-name="Path 101" d="M104.557,140.75c.384-.307-.231-1.611-1.69-3.607-.385-.461-.769-1-1.307-1.535a8.789,8.789,0,0,0-.846-.844,3.346,3.346,0,0,0-.537-.461c-.231-.23-.616-.307-.923-.537A2.374,2.374,0,0,0,97.1,134a2.948,2.948,0,0,0-.845.844,3.313,3.313,0,0,0-.307.537c-.077.23-.154.307-.154.46a11.227,11.227,0,0,0-.384,1.535c0,.231-.077.461-.077.767,0,.231-.077.537-.077.767a3.727,3.727,0,0,0,.077.921c.077.154.077.307.154.461l.154.383a5.654,5.654,0,0,0,.922,1.228l.922.921c.692.614,1.383,1.151,2,1.688.154.154.307.231.462.384l.231.23c.077.077.23.153.307.23a3.88,3.88,0,0,0,1.23.691,6.967,6.967,0,0,0,2.536.767,2.1,2.1,0,0,0,.691,0c.231,0,.462-.077.769-.077a3.477,3.477,0,0,0,1.46-.844,4.59,4.59,0,0,0,.461-.844.965.965,0,0,0,.077-.461v-.46a1.548,1.548,0,0,0-.231-.844,1.24,1.24,0,0,0-.307-.537,5.477,5.477,0,0,0-1.153-1.381c-.691-.613-1.23-.844-1.46-.613-.153.153,0,.69.307,1.457.154.384.384.845.538,1.3,0,.153.077.23.077.384v.153c0,.077-.077.23-.153.23s-.154.077-.231,0h-.231a.463.463,0,0,1-.307-.077,9.227,9.227,0,0,1-1.614-.691,6.569,6.569,0,0,1-.769-.537c-.077-.077-.153-.077-.153-.153l-.231-.153-.462-.461c-.615-.537-1.306-1.074-1.844-1.611a7.166,7.166,0,0,1-.768-.767,4.185,4.185,0,0,1-.538-.691,10.266,10.266,0,0,1,.384-2.379.267.267,0,0,1,.077-.153v-.077a.075.075,0,0,1,.077-.077h.077c.154.077.231.153.384.23a5.449,5.449,0,0,1,.769.614c.538.384,1,.844,1.46,1.228C103.1,140.136,104.249,140.98,104.557,140.75Z" transform="translate(-18.408 -20.784)" fill="#7c809a"/>
    <path id="Path_102" data-name="Path 102" d="M107.319,134.473c.384-.307-.231-1.611-1.691-3.607-.384-.46-.769-1-1.306-1.535a8.878,8.878,0,0,0-.846-.844,3.352,3.352,0,0,0-.538-.46c-.231-.231-.615-.307-.922-.537a2.379,2.379,0,0,0-2.152.23,2.957,2.957,0,0,0-.846.844,3.376,3.376,0,0,0-.307.537c-.077.23-.154.307-.154.461a11.178,11.178,0,0,0-.384,1.535c0,.23-.077.46-.077.767,0,.23-.077.537-.077.767a3.73,3.73,0,0,0,.077.921c.077.153.077.307.154.46l.154.384a5.646,5.646,0,0,0,.922,1.227l.922.921c.769.69,1.614,1.3,2.306,1.918a3.3,3.3,0,0,1,.537.461l.692.46a11.506,11.506,0,0,0,1.383.691,5.633,5.633,0,0,0,3,.461,2.472,2.472,0,0,0,2.306-2.379,2.723,2.723,0,0,0-.153-.767,5.38,5.38,0,0,0-.231-.614,1.962,1.962,0,0,0-.538-.767,6.024,6.024,0,0,0-1-1c-.615-.614-1.076-.767-1.23-.537-.154.153-.077.537.23,1.228.154.307.307.69.462,1.074s.307.921.231,1a.526.526,0,0,1-.385.23,3.789,3.789,0,0,1-1.69-.537c-.307-.153-.615-.384-.922-.537-.154-.077-.307-.23-.462-.307l-.461-.461c-.692-.614-1.46-1.227-2.153-1.841a7.331,7.331,0,0,1-.768-.767,4.267,4.267,0,0,1-.538-.691,10.288,10.288,0,0,1,.384-2.379.267.267,0,0,1,.077-.153v-.077a.075.075,0,0,1,.077-.077h.077c.154.077.231.154.384.231a5.335,5.335,0,0,1,.769.614c.538.383,1,.844,1.46,1.227C105.859,133.783,107.012,134.7,107.319,134.473Z" transform="translate(-18.942 -19.572)" fill="#7c809a"/>
    <path id="Path_103" data-name="Path 103" d="M97.543,106.45l5.765,14.655,5,2.379-4.227-18.876S102.232,106.6,97.543,106.45Z" transform="translate(-18.85 -15.181)" fill="#7c809a"/>
    <path id="Path_104" data-name="Path 104" d="M108.022,133.423l6.532,16.957.692.307-2.537-13.734Z" transform="translate(-20.874 -20.747)" fill="#7c809a"/>
    <path id="Path_105" data-name="Path 105" d="M213.558,140.367l17.754-2.379s2.767,16.65,1.46,22.405c-11.6,2.149-20.444,3.3-20.444,3.3s5.457-6.6,2.075-20.717" transform="translate(-33.864 -21.629)" fill="#b1d5f8"/>
    <path id="Path_106" data-name="Path 106" d="M214.13,142.773c-.077,0-.077.537.077,1.535q.116.691.231,1.842a20.477,20.477,0,0,1,.231,2.455,28.155,28.155,0,0,1-.231,6.6,26.025,26.025,0,0,1-.922,3.913,21.3,21.3,0,0,1-.768,2q-.116.23-.231.461l-.154.23v.077c0,.077-.077.077-.077.153l-.231.23-.307.461c-.077.153-.231.307-.384.537-.307.383-.538.691-.846,1.074.462-.077,1.153-.153,1.691-.23s1.076-.153,1.69-.231a16.687,16.687,0,0,0,1.922-.307c1.306-.23,2.69-.383,4.073-.614,2.767-.46,5.688-.921,8.686-1.458,1.075-.23,2.152-.383,3.151-.537.154,0,.846-.153,1.306-.231l.231-1.3c.077-.537.077-1.075.154-1.688a66.583,66.583,0,0,0-.231-7.9c-.231-2.532-.538-4.91-.846-7.212-.153-1.151-.307-2.225-.461-3.3-.077-.691-.231-1.381-.307-2.072v-.23a.075.075,0,0,0-.077-.077l-.384.077-.691.077c-.307.077-.615.077-.846.153-2,.307-3.843.537-5.534.844-6.763,1-10.837,1.765-10.837,2s4.15-.153,10.914-.921q2.535-.346,5.533-.691c.231,0,.462-.077.691-.077h.077v.307c0,.23.077.537.077.767.153,1.075.307,2.149.462,3.3.307,2.225.537,4.68.768,7.136a63.019,63.019,0,0,1,.231,7.672c-.077.537-.077,1.075-.154,1.535-.077.384,0,.231-.077.231,0,0,.077,0-.231.077-1.076.153-2.075.383-3.151.537-3,.537-5.918,1-8.685,1.458-2.229.384-4.381.691-6.38,1a.27.27,0,0,0,.077-.154l.153-.383c.077-.153.154-.384.231-.537.307-.691.615-1.458.846-2.149a22.1,22.1,0,0,0,.846-4.143,24.949,24.949,0,0,0-.077-6.829c-.077-.921-.307-1.765-.384-2.455-.153-.691-.307-1.3-.462-1.765C214.361,143.234,214.207,142.773,214.13,142.773Z" transform="translate(-33.515 -21.427)" fill="#7c809a"/>
    <path id="Path_107" data-name="Path 107" d="M144.772,131.123s4.918-12.046,22.826-13.581l12.3,13.965s-21.981,7.442-19.752,15.422c-15.218-8.747-15.448-13.12-15.448-13.12" transform="translate(-18.51 -17.999)" fill="#b1d5f8"/>
    <path id="Path_108" data-name="Path 108" d="M144.782,133.529c-.077,0-.077.614.384,1.458a13.794,13.794,0,0,0,2.613,3.377,38.714,38.714,0,0,0,5.073,4.22c1.076.767,2.152,1.535,3.381,2.3l1.844,1.151c.385.23,2,1.227,3.152,1.841-.077-.384-.154-.844-.231-1.228s-.077-.767-.154-1.151v-.461l.077-.23a1.425,1.425,0,0,1,.153-.537,7,7,0,0,1,1.153-2.071,15.61,15.61,0,0,1,3.92-3.453,55.644,55.644,0,0,1,10.453-5.371c.538-.23,1.153-.46,1.691-.691l.846-.307,1.46-.537.768-.307-2.843-3.223c-2-2.3-4-4.527-5.918-6.676-.922-1.074-1.844-2.071-2.767-3.146-.462-.537-.923-1.074-1.384-1.535l-.307-.383-.077-.077h-.307l-.692.077c-.307.077-.691.077-1,.153a40.667,40.667,0,0,0-7.3,1.688l-1.615.691c-.231.077-.538.23-.768.307a7.022,7.022,0,0,1-.769.384,12.328,12.328,0,0,0-1.384.767c-.461.307-.845.537-1.306.844-.231.153-.384.23-.615.383a3.394,3.394,0,0,0-.538.461,13.16,13.16,0,0,0-1.076.844c-.616.614-1.307,1.151-1.845,1.688a25.218,25.218,0,0,0-2.536,3.069,8.647,8.647,0,0,0-1.46,3.069c.077.077.615-1,1.921-2.685a21.006,21.006,0,0,1,2.613-2.839,19.566,19.566,0,0,1,1.844-1.535c.385-.23.692-.537,1.076-.767.153-.153.384-.23.538-.383.231-.154.384-.231.615-.384a10.663,10.663,0,0,0,1.23-.767l1.384-.691c.23-.077.461-.23.691-.307a8.2,8.2,0,0,1,.768-.307c.538-.23,1-.383,1.538-.613a31.893,31.893,0,0,1,7.07-1.535,3.828,3.828,0,0,0,.922-.154h.307c.462.461.846,1,1.307,1.458.922,1,1.844,2.072,2.767,3.146,1.844,2.149,3.843,4.374,5.842,6.676l1.076,1.228.307.383-.231.077-.845.307c-.538.23-1.153.46-1.691.69a54,54,0,0,0-10.683,5.6,18.029,18.029,0,0,0-4.15,3.836,7.568,7.568,0,0,0-1.306,2.456,2.239,2.239,0,0,0-.154.691l-.077.383v.461c.307.23-1.614-.921-2.69-1.611-1.23-.691-2.306-1.458-3.381-2.149a47.367,47.367,0,0,1-5.073-3.913,21.427,21.427,0,0,1-2.767-2.993C145.013,133.99,144.858,133.529,144.782,133.529Z" transform="translate(-18.52 -17.797)" fill="#7c809a"/>
    <path id="Path_109" data-name="Path 109" d="M184.227,70.924s14.372,6.292,23.9-4.45c2.844,8.056,10.222,10.128,14.449,10.972C208.514,89.186,202.6,93.713,202.6,93.713s-9.761-4.681-16.755-18.645" transform="translate(-35.594 -7.815)" fill="#b1d5f8"/>
    <path id="Path_110" data-name="Path 110" d="M185.818,74.755A10.728,10.728,0,0,0,187.2,77.9a42.257,42.257,0,0,0,5.3,7.75,38.471,38.471,0,0,0,4.688,4.68c.922.767,1.922,1.535,2.921,2.3.538.384,1.076.691,1.691,1.074l.768.384c.154.153.231-.077.385-.154l.384-.307c.307-.23.538-.46.846-.69,4.15-3.376,8.761-7.059,13.6-10.972,1-.767,1.922-1.611,2.921-2.379.538-.46,1.076-.921,1.691-1.381.461-.384,1-.767,1.46-1.151l.384-.307.077-.077h0l-.231-.077-.922-.23-1.153-.23-.845-.23A4.406,4.406,0,0,1,220.1,75.6c-.691-.23-1.46-.46-2.075-.691a16.272,16.272,0,0,1-3.766-2.072A11.424,11.424,0,0,1,211.335,70c-.462-.537-.769-1.074-1.153-1.611a8.364,8.364,0,0,0-.462-.844q-.115-.23-.231-.46l-.23-.614-.385-.844-.153-.46-.077-.23-.077-.077a.075.075,0,0,0-.077.077l-1.306,1.3-.692.69a4.924,4.924,0,0,1-.691.614,16.881,16.881,0,0,1-1.383,1.074c-.461.307-1,.614-1.46.921a17.255,17.255,0,0,1-5.995,1.995,24.891,24.891,0,0,1-5.227.23,18.492,18.492,0,0,1-2.152-.23,17.185,17.185,0,0,0-1.768-.307c-2.152-.46-3.3-.844-3.3-.691-.077.077,1,.691,3.151,1.3.538.153,1.153.307,1.768.46a17.4,17.4,0,0,0,2.229.307,21.585,21.585,0,0,0,5.457,0,17.993,17.993,0,0,0,6.379-1.995l1.614-.921c.538-.384,1-.767,1.537-1.151a3.014,3.014,0,0,0,.769-.614,4.923,4.923,0,0,1,.691-.614l.077-.077a.075.075,0,0,0,.077.077l.154.307q.115.23.231.46l.461.921a14.468,14.468,0,0,0,1.23,1.765,17.923,17.923,0,0,0,3.228,3.146,20.815,20.815,0,0,0,6.3,2.992,6.413,6.413,0,0,0,1.153.307l.307.077-1.23,1c-1,.767-1.921,1.535-2.921,2.379-4.842,3.99-9.376,7.673-13.527,11.049-.231.23-.461.384-.691.614-.077.077,0,.077-.154,0a18.386,18.386,0,0,1-1.614-1,27.492,27.492,0,0,1-2.844-2.148,52.567,52.567,0,0,1-4.688-4.45,62.423,62.423,0,0,1-5.611-7.366C186.511,75.753,185.9,74.678,185.818,74.755Z" transform="translate(-35.649 -7.502)" fill="#7c809a"/>
    <path id="Path_111" data-name="Path 111" d="M28.621,138.846l13.911-3.452S31.7,155.957,28.621,146.749s-2.921-12.66-2.921-12.66L.953,134.7S1.644,153.425,14.1,152.2s14.6-2.532,14.6-2.532" transform="translate(-0.192 -20.876)" fill="#b1d5f8"/>
    <path id="Path_112" data-name="Path 112" d="M28.429,149.426c-.077-.077-1.383.383-3.92.767s-6.3.844-10.914,1.227A8.983,8.983,0,0,1,6.909,149.2a16.118,16.118,0,0,1-4.15-7.366,28.732,28.732,0,0,1-1-4.6c-.077-.383-.077-.844-.154-1.227a6.64,6.64,0,0,1-.077-.845h1.46c3.459-.077,7.071-.153,10.76-.307,1.46-.077,3-.077,4.458-.153s2.921-.077,4.458-.153a10.331,10.331,0,0,0,1.537-.077h.769l.077.69a8.551,8.551,0,0,1,.154,1.3,24.512,24.512,0,0,0,.538,2.532c.384,1.689.845,3.3,1.307,4.911.231.767.461,1.535.769,2.3a5.891,5.891,0,0,0,1.23,2.379,2.591,2.591,0,0,0,1.307.844,2.622,2.622,0,0,0,.769.077c.231-.077.461-.077.692-.153a6.346,6.346,0,0,0,2.152-1.228,20.635,20.635,0,0,0,3.074-3.3c.845-1.151,1.691-2.225,2.383-3.376.692-1.075,1.383-2.225,2-3.223.307-.613.615-1.151.922-1.688.231-.46.461-.844.692-1.3l.307-.614.154-.307c-.077,0-.231.077-.307.077-.461.077-.922.23-1.307.307s-.845.23-1.23.307c-.538.153-1,.231-1.46.384-.922.23-1.845.537-2.69.691-1.691.46-3.074.844-4.3,1.227-2.306.691-3.612,1.075-3.535,1.228a25.581,25.581,0,0,0,3.689-.614c1.23-.23,2.613-.614,4.381-1,.845-.231,1.768-.384,2.69-.614a10.158,10.158,0,0,0,1.46-.384,1.428,1.428,0,0,0,.538-.153h.077v.077l-.077.154-.154.23a13.42,13.42,0,0,1-.845,1.381c-.615,1-1.307,2.071-2,3.146s-1.537,2.148-2.383,3.223a15.384,15.384,0,0,1-2.921,2.993,4.9,4.9,0,0,1-1.691,1,1.319,1.319,0,0,1-1.46-.384,3.159,3.159,0,0,1-.538-.844,8.286,8.286,0,0,1-.384-1.074l-.692-2.3c-.461-1.535-.922-3.146-1.307-4.757-.154-.844-.384-1.611-.461-2.455a6.712,6.712,0,0,1-.154-1.228c0-.23-.077-.383-.077-.691v-1.38c-1.23,0-2.459.077-3.766.077-1.46.077-3,.077-4.458.153s-2.921.077-4.458.153c-3.689.077-7.3.23-10.76.307a7.4,7.4,0,0,0-1.307.077H-.008c-.077,0,0,.077,0,.153v.614A16.1,16.1,0,0,0,.146,136c.077.46.077.844.154,1.227a31.679,31.679,0,0,0,1.076,4.834,17.015,17.015,0,0,0,4.611,7.9,9.314,9.314,0,0,0,3.689,2.072,9.45,9.45,0,0,0,3.843.307,84.525,84.525,0,0,0,10.991-1.689C27.2,150.27,28.506,149.579,28.429,149.426Z" transform="translate(0 -20.637)" fill="#7c809a"/>
    <path id="Path_113" data-name="Path 113" d="M225.283,145.3c0-.307-1.383-.461-3.151-.461h-.461c-1.768,0-3.151.153-3.151.461s1.383.383,3.151.46h.461C223.9,145.679,225.283,145.526,225.283,145.3Z" transform="translate(-35.06 -22.951)" fill="#7c809a"/>
    <path id="Path_114" data-name="Path 114" d="M229.86,148.988c-.077-.307-1.921,0-4.38.153h-.769c-2.459.154-4.3.077-4.38.384,0,.23,1.921.614,4.38.537h.769C228.093,149.832,229.937,149.218,229.86,148.988Z" transform="translate(-35.41 -23.728)" fill="#7c809a"/>
    <path id="Path_115" data-name="Path 115" d="M174.734,125.311c.23-.23-.307-.921-1.076-1.688-.077,0-.077-.077-.154-.077l-.077-.077c-.768-.767-1.46-1.228-1.69-1s.307.844,1.076,1.688c.077,0,.077.077.154.077l.077.077C173.81,125,174.579,125.542,174.734,125.311Z" transform="translate(-23.723 -18.94)" fill="#7c809a"/>
    <path id="Path_116" data-name="Path 116" d="M174.824,130.739c.231-.23-.922-1.688-2.537-3.607a1.059,1.059,0,0,1-.23-.307,1.045,1.045,0,0,1-.231-.307c-1.614-1.842-3-3.223-3.228-2.993-.231.153.922,1.688,2.537,3.606a1.075,1.075,0,0,1,.23.307,1.045,1.045,0,0,1,.231.307C173.209,129.589,174.593,130.893,174.824,130.739Z" transform="translate(-23.122 -19.151)" fill="#7c809a"/>
    <path id="Path_117" data-name="Path 117" d="M151.8,136.636a1.406,1.406,0,0,0,.231-2.071l-.077-.077-.077-.077a1.409,1.409,0,0,0-2.075-.307,1.463,1.463,0,0,0-.231,2.072l.077.077.077.077A1.49,1.49,0,0,0,151.8,136.636Z" transform="translate(-19.39 -21.134)" fill="#7c809a"/>
    <path id="Path_118" data-name="Path 118" d="M14.843,140.416c-.077-.307-1.845-.153-4.227-.077H9.847c-2.383.154-4.227.154-4.227.461s1.845.461,4.227.383h.769C13.075,141.03,14.843,140.647,14.843,140.416Z" transform="translate(-1.094 -22.062)" fill="#7c809a"/>
    <path id="Path_119" data-name="Path 119" d="M20.781,144.05c-.077-.307-2.613.153-5.995.384H13.711c-3.382.23-5.995.077-5.995.383,0,.23,2.613.691,6.072.537h1.076C18.245,145.047,20.858,144.279,20.781,144.05Z" transform="translate(-1.499 -22.78)" fill="#7c809a"/>
    <path id="Path_120" data-name="Path 120" d="M40.008,141.633c0,1,.307,1.381.769,1.458h.154c.461-.077.769-.461.769-1.458,0-.921-.307-1.381-.769-1.458h-.154C40.392,140.252,40.008,140.712,40.008,141.633Z" transform="translate(-7.736 -22.051)" fill="#7c809a"/>
    <path id="Path_121" data-name="Path 121" d="M220.2,78.259c0-.307-1.922-.46-4.15-1.611-.077-.077-.231-.077-.307-.153l-.307-.153c-2.152-1.151-3.459-2.685-3.69-2.455-.23.153.923,1.918,3.228,3.223.154.077.231.153.385.153.153.077.23.153.384.153C218.129,78.566,220.281,78.49,220.2,78.259Z" transform="translate(-40.905 -9.242)" fill="#7c809a"/>
    <path id="Path_122" data-name="Path 122" d="M214.483,80.723c.077-.307-1.46-.844-3-2.148l-.231-.23-.231-.23c-1.537-1.381-2.383-2.762-2.613-2.609-.23.077.385,1.765,2.075,3.3l.231.23.231.23C212.715,80.646,214.483,81.03,214.483,80.723Z" transform="translate(-40.257 -9.557)" fill="#7c809a"/>
    <path id="Path_123" data-name="Path 123" d="M168.919,43.067c.231,0,.462-.23.615-.537a3.359,3.359,0,0,1,.692-.844.717.717,0,0,1,.768-.077l.307.307a1.732,1.732,0,0,1,.385.844.835.835,0,0,1,.077.384c0,.153.077.23.077.46v.23h-.153a.978.978,0,0,1-.462-.077,2.241,2.241,0,0,1-.691-.153,3.322,3.322,0,0,1-.922-.384,4.931,4.931,0,0,0-.692-.153q-.345,0-.461.691a2.337,2.337,0,0,0,.922,1.841,3.2,3.2,0,0,0,1.23.691c.231.077.384.153.615.23l.154.077.307.077c.153,0,.384.077.615.077a2.442,2.442,0,0,0,2.152-.921,2.922,2.922,0,0,0,.461-1.228V43.374a2.728,2.728,0,0,0-.153-.767c-.077-.23-.154-.46-.231-.767a4.7,4.7,0,0,0-1-1.688,3.031,3.031,0,0,0-1.922-1.074,2.975,2.975,0,0,0-3.074,1.535,3.247,3.247,0,0,0-.231,1.995C168.458,42.99,168.766,43.144,168.919,43.067Z" transform="translate(-18.833 2.988)" fill="#a8a8a8"/>
    <path id="Path_125" data-name="Path 125" d="M135.968,114.363c-.922.384-1.153,1-1,1.611v.154a1.207,1.207,0,0,0,1.768.537,1.366,1.366,0,0,0,1-1.611.075.075,0,0,0-.077-.077V114.9C137.429,114.286,136.813,113.979,135.968,114.363Z" transform="translate(-26.071 -17.032)" fill="#a8a8a8"/>
    <path id="Path_126" data-name="Path 126" d="M86.017,150.953c0,1,.461,1.381,1.076,1.458h.154c.615-.077,1.076-.461,1.076-1.458,0-.921-.461-1.381-1.076-1.458h-.154C86.478,149.572,86.017,150.032,86.017,150.953Z" transform="translate(-16.624 -23.851)" fill="#a8a8a8"/>
    <path id="Path_127" data-name="Path 127" d="M27.474,77.326a1.144,1.144,0,0,0,0,1.381,4.777,4.777,0,0,0,1.845,1.535l.231.077.231.077a5.634,5.634,0,0,0,2.383.307c.615-.153,1-.46,1.076-1,.077-.921-1.076-1.458-2.383-2.072l-.231-.077C29.242,77.1,28.089,76.635,27.474,77.326Z" transform="translate(-5.271 -9.843)" fill="#a8a8a8"/>
    <path id="Path_128" data-name="Path 128" d="M41.945,29.861c-1,0-1.383.844-1.46,1.918v.307c.077,1.074.461,1.918,1.46,1.918.922,0,1.383-.844,1.46-1.918v-.307C43.328,30.628,42.867,29.861,41.945,29.861Z" transform="translate(-7.828 -0.742)" fill="#a8a8a8"/>
    <path id="Path_131" data-name="Path 131" d="M221.917,116.8c.384.921,1,1.151,1.614.921a.076.076,0,0,0,.077-.077h.077a1.483,1.483,0,0,0-1.076-2.685.075.075,0,0,0-.077.077h-.077A1.279,1.279,0,0,0,221.917,116.8Z" transform="translate(-42.848 -17.173)" fill="#a8a8a8"/>
    <path id="Path_132" data-name="Path 132" d="M186.117,165.99c.307.921,1.46,1,2.844.537.077,0,.153-.077.231-.077s.153-.077.23-.077c1.307-.537,2.153-1.3,1.845-2.225-.307-.844-1.46-.921-2.844-.537-.077,0-.153.077-.231.077s-.153.077-.23.077C186.655,164.3,185.809,165.069,186.117,165.99Z" transform="translate(-35.947 -26.536)" fill="#a8a8a8"/>
    <path id="Path_134" data-name="Path 134" d="M67.473,137.962c1,0,1.383-.767,1.46-1.688v-.307c-.077-.921-.461-1.688-1.46-1.688-.922,0-1.383.767-1.46,1.688v.307C66.09,137.195,66.551,137.962,67.473,137.962Z" transform="translate(-12.76 -20.912)" fill="#7c809a"/>
    <path id="Path_135" data-name="Path 135" d="M35.436,182.145c0,1,1.768,1.381,4,1.458h.615c2.306-.077,4-.461,4-1.458,0-.921-1.768-1.381-4-1.458h-.615C37.2,180.764,35.436,181.224,35.436,182.145Z" transform="translate(-6.853 -29.877)" fill="#7c809a"/>
  </g>
</svg>
