<?xml version="1.0" encoding="UTF-8"?>
<svg id="Layer_1" data-name="Layer 1" xmlns="http://www.w3.org/2000/svg" version="1.1" viewBox="0 0 847.6 223">
  <defs>
    <style>
      .cls-1 {
        fill: #666;
      }

      .cls-1, .cls-2 {
        fill-rule: evenodd;
      }

      .cls-1, .cls-2, .cls-3 {
        stroke-width: 0px;
      }

      .cls-2, .cls-3 {
        fill: #fff;
      }
    </style>
  </defs>
  <path class="cls-3" d="M416.1,220.6c5.1,0,8.6-2.6,8.6-7.3s-2.7-5.9-7.4-7.1c-4-1-5-1.5-5-3.1s1-2.1,3-2.1,4,.9,6.1,2.3l2.7-3.9c-2.4-1.9-5.3-3-8.7-3s-8.2,2.8-8.2,7.1,3,6,7.8,7.2c3.9,1,4.7,1.7,4.7,3s-1.3,2.3-3.4,2.3-4.9-1.1-7-2.8l-3,3.6c2.8,2.5,6.4,3.7,9.9,3.7M389.3,220.7c4.5,0,7.2-1.4,9.6-4l-3.3-3.5c-1.8,1.7-3.5,2.7-6.2,2.7-4,0-6.8-3.3-6.8-7.4s2.8-7.4,6.8-7.4,4.2,1,6,2.6l3.1-3.5c-2.2-2.1-4.7-3.8-9.1-3.8-7.2,0-12.2,5.5-12.2,12.1s5.1,12.1,12,12.1ZM362.6,220.3h5.2v-23.4h-5.2v23.4ZM341.3,220.3h5.2v-18.7h7.1v-4.7h-19.4v4.7h7.1v18.7ZM313.7,220.3h5.2v-9.3l9-14.1h-5.9l-5.7,9.4-5.6-9.4h-6l9,14.2v9.2ZM286,220.3h16.8v-4.7h-11.7v-18.7h-5.2v23.4ZM262,210.5l3.1-7.6,3.1,7.6h-6.2ZM252.8,220.3h5.3l2.1-5.3h9.9l2.1,5.3h5.4l-10-23.6h-4.7l-10,23.6ZM223.6,220.3h5.1v-14.9l11.3,14.9h4.4v-23.4h-5.1v14.4l-11-14.4h-4.8v23.4ZM199.6,210.5l3.1-7.6,3.1,7.6h-6.2ZM190.4,220.3h5.3l2.1-5.3h9.9l2.1,5.3h5.4l-10-23.6h-4.7l-10,23.6ZM156.6,215.7v-14.1h4c4.2,0,7.1,2.9,7.1,7.1s-2.8,7.1-7.1,7.1h-4ZM151.4,220.3h9.1c7.4,0,12.4-5.1,12.4-11.7s-5.1-11.7-12.4-11.7h-9.1v23.4ZM120.2,220.3h5.1v-14.9l11.3,14.9h4.4v-23.4h-5.1v14.4l-11-14.4h-4.7v23.4ZM98.4,216c-4.1,0-7.1-3.3-7.1-7.4s2.9-7.4,7-7.4,7.1,3.3,7.1,7.4-2.9,7.4-7,7.4ZM98.4,220.7c7.2,0,12.5-5.5,12.5-12.1s-5.2-12.1-12.4-12.1-12.5,5.5-12.5,12.1,5.2,12.1,12.4,12.1ZM66.9,220.3h5.2v-9.3l9-14.1h-5.9l-5.7,9.4-5.6-9.4h-6l9,14.2v9.2ZM33.1,220.3h17.8v-4.6h-12.7v-4.9h11v-4.6h-11v-4.8h12.5v-4.6h-17.7v23.4ZM9.2,215.8v-5.2h6c2.6,0,3.8,1,3.8,2.5s-1.4,2.6-3.6,2.6h-6.1ZM9.2,206.4v-5h5.1c2.2,0,3.4.9,3.4,2.4s-1.4,2.5-3.7,2.5h-4.8ZM4.2,220.3h11.1c5.3,0,8.8-2.1,8.8-6.4s-1.7-4.8-4.4-5.8c1.7-.9,3.1-2.4,3.1-5s-.5-3-1.6-4c-1.3-1.3-3.4-2.1-6.1-2.1H4.2v23.4Z"/>
  <path class="cls-2" d="M205.6,42.5V4.9h26.4v37.6h27.2v23.1h-27.2v97h-26.4V42.5ZM30.6,56.7c9.8-10.8,22.1-16.2,36.8-16.2s3.2,0,4.8.2v27.7c-3.3-.9-6.7-1.4-10.5-1.4-9.4,0-16.9,2.9-22.5,8.8-5.7,6-8.6,14.1-8.7,24.3v62.5H4.2V42.5h26.5v14.2ZM166,91.7c-1.5-9.3-5.7-16.5-12.6-21.6-6.3-4.6-13.6-6.9-21.8-6.7-8.2.2-15.3,2.7-21.3,7.5-6.4,5.2-10,12.2-10.7,20.9h66.4ZM99.6,112.1c.9,7.4,3.6,13.7,8.3,18.9,4.3,4.8,9.6,8.2,15.9,10,6.4,1.8,12.7,1.8,18.9-.1,6.7-2,12.3-5.7,16.9-11.2h31.3c-8,13.4-17.3,22.8-28.1,28.1-9,4.6-18.9,6.9-29.7,6.9-18.2,0-33-5.9-44.7-17.6-11.7-11.6-17.6-26.6-17.6-44.8s5.9-33,17.6-44.7c11.7-11.7,26.6-17.6,44.7-17.6s33.2,5.9,44.8,17.6c11.7,11.7,17.6,26.6,17.6,44.7v9.9h-95.8ZM340.3,56.7c9.8-10.8,22.1-16.2,36.8-16.2s25.9,5,35.7,15.1c10.9,11.1,16.3,26.1,16.3,45.1v62h-26.5v-62c0-10.5-2.9-18.8-8.7-24.9-5.6-5.9-13.1-8.8-22.4-8.8s-16.9,2.9-22.5,8.8c-5.7,6-8.6,14.1-8.7,24.3v62.5h-26.5V42.5h26.5v14.2ZM273.3,42.5h26.5v120.1h-26.5V42.5ZM846,110.2V6.8c.1-1.1-.7-1.9-1.8-1.9h-22.9c-1.1,0-1.9.9-1.9,1.9s0,22.7,0,43.5c-10.8-7.9-24-12.6-38.4-12.6-35.8,0-64.8,29-64.8,64.8s29,64.8,64.8,64.8,27.7-4.7,38.4-12.6c0,3.2,0,6.6,0,8.1s.9,1.9,1.9,1.9h22.9c1.1,0,1.9-.9,1.9-1.9v-52.4ZM781.1,64.4c21,0,38,17,38,38s-17,38-38,38-38-17-38-38,17-38,38-38Z"/>
  <path class="cls-1" d="M582.9,70.8c18.3-17.4,32.1-33.1,60.9-33.1s64.8,29,64.8,64.8v60.2c0,1.1-.9,1.9-1.9,1.9h-22.9c-1.1,0-1.9-.9-1.9-1.9s0-4.7,0-7.8c-10.7,7.8-23.9,12.4-38.1,12.4-28,0-51.9-17.8-60.9-42.7l22.9-21.8c.1,20.9,17.1,37.7,38,37.7s38-17,38-38-17-38-38-38-26.5,9.8-37.6,20.4c-11.3,11.1-22.7,22-34.3,32.8-7.9,7.3-6.1,5.5-6.1,16.4v28.6c0,1.1-.8,1.9-1.8,1.9h-22.9c-1.1,0-1.9-.9-1.9-1.9s0-4.8,0-8.1c-10.8,7.9-24,12.6-38.4,12.6-35.8,0-64.8-29-64.8-64.8s29-64.8,64.8-64.8,47.9,15,58.4,36.6l-21.2,20.2c-3.7-17.2-18.9-30-37.2-30s-38,17-38,38,3.7,18.8,9.8,25.5c7,7.7,17,12.5,28.2,12.5s10-2.1,14.9-5.2c10.3-6.5,20-17.6,26.8-24.3,15.9-15.6,33.3-33.4,40.4-40.2"/>
</svg>