<svg xmlns="http://www.w3.org/2000/svg" width="683.89" height="131.92" viewBox="0 0 683.89 131.92">
  <g id="Group_5" data-name="Group 5" transform="translate(-931 -891.902)">
    <path id="Path_40" data-name="Path 40" d="M167.8,35.443V4.9h21.445V35.443h22.1V54.208h-22.1V133H167.8ZM25.645,46.978a38.72,38.72,0,0,1,29.893-13.16c11.941,0,2.6,0,3.9.162v22.5a31.833,31.833,0,0,0-8.529-1.137c-7.636,0-13.728,2.356-18.277,7.148Q25.686,69.8,25.564,82.233V133H4.2V35.443H25.726V46.978ZM135.633,75.409Q133.805,64.077,125.4,57.863a29.447,29.447,0,0,0-35.011.65A23.4,23.4,0,0,0,81.7,75.49h53.938ZM81.7,91.98a27.291,27.291,0,0,0,19.658,23.476,26.7,26.7,0,0,0,15.353-.081,27.916,27.916,0,0,0,13.728-9.1H155.86c-6.5,10.885-14.053,18.521-22.826,22.826a52.23,52.23,0,0,1-24.126,5.6c-14.784,0-26.806-4.793-36.311-14.3-9.5-9.423-14.3-21.608-14.3-36.392s4.793-26.806,14.3-36.311,21.608-14.3,36.311-14.3,26.969,4.793,36.392,14.3q14.256,14.256,14.3,36.311v8.042H81.776Zm195.525-45a38.72,38.72,0,0,1,29.893-13.16c11.941,0,21.039,4.062,29,12.266Q349.394,59.61,349.353,82.72v50.364H327.827V82.72q0-12.794-7.067-20.227c-4.549-4.793-10.641-7.148-18.2-7.148s-13.728,2.356-18.277,7.148q-6.945,7.311-7.067,19.739V133H255.693V35.443H277.22ZM222.794,35.443h21.526V133H222.794ZM688.008,90.437V6.443A1.387,1.387,0,0,0,686.546,4.9h-18.6A1.542,1.542,0,0,0,666.4,6.443V41.779a52.639,52.639,0,1,0-31.193,95.041c29.081,0,22.5-3.818,31.193-10.235v6.58a1.369,1.369,0,0,0,1.543,1.543h18.6a1.542,1.542,0,0,0,1.543-1.543V90.6Zm-52.719-37.2A30.868,30.868,0,1,1,604.421,84.1a30.854,30.854,0,0,1,30.868-30.868Z" transform="translate(926.8 887.002)" fill="#016dd5" fill-rule="evenodd"/>
    <path id="Path_41" data-name="Path 41" d="M555.329,64.569C570.195,50.435,581.4,37.681,604.8,37.681s52.638,23.557,52.638,52.638v48.9a1.542,1.542,0,0,1-1.543,1.543h-18.6a1.542,1.542,0,0,1-1.543-1.543v-6.336a52.609,52.609,0,0,1-80.419-24.613l18.6-17.709A30.869,30.869,0,1,0,604.8,59.451c-17.059,0-21.526,7.961-30.543,16.571q-13.769,13.525-27.862,26.644c-6.417,5.93-4.955,4.468-4.955,13.322v23.232a1.476,1.476,0,0,1-1.462,1.543h-18.6a1.542,1.542,0,0,1-1.543-1.543v-6.58A52.639,52.639,0,1,1,488.638,37.6c29.081,0,38.91,12.185,47.439,29.731L518.856,83.74a30.852,30.852,0,0,0-30.218-24.37c-14.865,0-30.868,13.809-30.868,30.868s3.006,15.272,7.961,20.714a30.8,30.8,0,0,0,22.907,10.154c9.1,0,8.123-1.706,12.1-4.224,8.367-5.28,16.246-14.3,21.77-19.739,12.916-12.672,27.05-27.131,32.818-32.655" transform="translate(845.758 880.865)" fill="#3a05a2" fill-rule="evenodd"/>
  </g>
</svg>
