<svg id="logo2" xmlns="http://www.w3.org/2000/svg" width="683.89" height="175.298" viewBox="0 0 683.89 175.298">
  <path id="Path_37" data-name="Path 37" d="M338.793,216.058c4.143,0,6.986-2.112,6.986-5.93s-2.193-4.793-6.011-5.767c-3.249-.812-4.062-1.218-4.062-2.518s.812-1.706,2.437-1.706A9.183,9.183,0,0,1,343.1,202l2.193-3.168a11.122,11.122,0,0,0-7.067-2.437c-2.762,0-6.661,2.274-6.661,5.767s2.437,4.874,6.336,5.849c3.168.812,3.818,1.381,3.818,2.437s-1.056,1.868-2.762,1.868a9.955,9.955,0,0,1-5.686-2.275l-2.437,2.924a12.083,12.083,0,0,0,8.042,3.006m-21.851.162a9.581,9.581,0,0,0,7.8-3.249l-2.681-2.843a6.747,6.747,0,0,1-5.036,2.193c-3.249,0-5.524-2.681-5.524-6.011s2.274-6.011,5.524-6.011,3.412.812,4.874,2.112l2.518-2.843A9.8,9.8,0,0,0,317.1,196.4a9.829,9.829,0,0,0-.162,19.658Zm-21.689-.325h4.224V196.806h-4.224Zm-17.3,0h4.224v-15.19h5.767v-3.818H272.265v3.818h5.767v15.19Zm-22.42,0h4.224V208.26l7.311-11.454h-4.793l-4.63,7.636-4.549-7.636H248.3l7.311,11.535v7.473Zm-22.5,0h13.647V212h-9.5v-15.19H233.03v19.008Zm-19.5-7.961,2.518-6.174,2.518,6.174Zm-7.473,7.961h4.305l1.706-4.305H220.2l1.706,4.305h4.387l-8.123-19.171h-3.818l-8.123,19.171Zm-23.72,0h4.143v-12.1l9.179,12.1h3.574V196.806h-4.143v11.7l-8.935-11.7h-3.9v19.008Zm-19.5-7.961,2.518-6.174,2.518,6.174h-5.036Zm-7.473,7.961h4.305l1.706-4.305h8.042l1.706,4.305H175.6l-8.123-19.171h-3.818l-8.123,19.171ZM128,212.078V200.624h3.249a5.767,5.767,0,0,1,0,11.535H128Zm-4.224,3.737h7.392c6.011,0,10.073-4.143,10.073-9.5s-4.143-9.5-10.073-9.5h-7.392Zm-25.344,0h4.143v-12.1l9.179,12.1h3.574V196.806h-4.143v11.7l-8.935-11.7H98.429v19.008ZM80.72,212.321a5.8,5.8,0,0,1-5.767-6.011,5.73,5.73,0,0,1,5.686-6.011,5.8,5.8,0,0,1,5.767,6.011A5.73,5.73,0,0,1,80.72,212.321Zm0,3.818a9.833,9.833,0,1,0-10.073-9.829A9.887,9.887,0,0,0,80.72,216.139Zm-25.588-.325h4.224V208.26l7.311-11.454H61.875l-4.63,7.636L52.7,196.806H47.821l7.311,11.535v7.473Zm-27.456,0H42.135v-3.737H31.819V208.1h8.935v-3.737H31.819v-3.9H41.973v-3.737H27.595v19.008ZM8.262,212.159v-4.224h4.874c2.112,0,3.087.812,3.087,2.031s-1.137,2.112-2.924,2.112H8.343Zm0-7.636v-4.062H12.4c1.787,0,2.762.731,2.762,1.95s-1.137,2.031-3.006,2.031h-3.9ZM4.2,215.814h9.017c4.305,0,7.148-1.706,7.148-5.2s-1.381-3.9-3.574-4.711a4.344,4.344,0,0,0,2.518-4.062c0-2.112-.406-2.437-1.3-3.249a6.877,6.877,0,0,0-4.955-1.706H4.2V215.9Z" transform="translate(-4.2 -40.841)" fill="#016dd5"/>
  <path id="Path_38" data-name="Path 38" d="M167.8,35.443V4.9h21.445V35.443h22.1V54.208h-22.1V133H167.8ZM25.645,46.978a38.72,38.72,0,0,1,29.893-13.16c11.941,0,2.6,0,3.9.162v22.5a31.833,31.833,0,0,0-8.529-1.137c-7.636,0-13.728,2.356-18.277,7.148Q25.686,69.8,25.564,82.233V133H4.2V35.443H25.726V46.978ZM135.633,75.409Q133.805,64.077,125.4,57.863a29.447,29.447,0,0,0-35.011.65A23.4,23.4,0,0,0,81.7,75.49h53.938ZM81.7,91.98a27.291,27.291,0,0,0,19.658,23.476,26.7,26.7,0,0,0,15.353-.081,27.916,27.916,0,0,0,13.728-9.1H155.86c-6.5,10.885-14.053,18.521-22.826,22.826a52.23,52.23,0,0,1-24.126,5.6c-14.784,0-26.806-4.793-36.311-14.3-9.5-9.423-14.3-21.608-14.3-36.392s4.793-26.806,14.3-36.311,21.608-14.3,36.311-14.3,26.969,4.793,36.392,14.3q14.256,14.256,14.3,36.311v8.042H81.776Zm195.525-45a38.72,38.72,0,0,1,29.893-13.16c11.941,0,21.039,4.062,29,12.266Q349.394,59.61,349.353,82.72v50.364H327.827V82.72q0-12.794-7.067-20.227c-4.549-4.793-10.641-7.148-18.2-7.148s-13.728,2.356-18.277,7.148q-6.945,7.311-7.067,19.739V133H255.693V35.443H277.22ZM222.794,35.443h21.526V133H222.794ZM688.008,90.437V6.443A1.387,1.387,0,0,0,686.546,4.9h-18.6A1.542,1.542,0,0,0,666.4,6.443V41.779a52.639,52.639,0,1,0-31.193,95.041c29.081,0,22.5-3.818,31.193-10.235v6.58a1.369,1.369,0,0,0,1.543,1.543h18.6a1.542,1.542,0,0,0,1.543-1.543V90.6Zm-52.719-37.2A30.868,30.868,0,1,1,604.421,84.1a30.854,30.854,0,0,1,30.868-30.868Z" transform="translate(-4.2 -4.9)" fill="#016dd5" fill-rule="evenodd"/>
  <path id="Path_39" data-name="Path 39" d="M555.329,64.569C570.195,50.435,581.4,37.681,604.8,37.681s52.638,23.557,52.638,52.638v48.9a1.542,1.542,0,0,1-1.543,1.543h-18.6a1.542,1.542,0,0,1-1.543-1.543v-6.336a52.609,52.609,0,0,1-80.419-24.613l18.6-17.709A30.869,30.869,0,1,0,604.8,59.451c-17.059,0-21.526,7.961-30.543,16.571q-13.769,13.525-27.862,26.644c-6.417,5.93-4.955,4.468-4.955,13.322v23.232a1.476,1.476,0,0,1-1.462,1.543h-18.6a1.542,1.542,0,0,1-1.543-1.543v-6.58A52.639,52.639,0,1,1,488.638,37.6c29.081,0,38.91,12.185,47.439,29.731L518.856,83.74a30.852,30.852,0,0,0-30.218-24.37c-14.865,0-30.868,13.809-30.868,30.868s3.006,15.272,7.961,20.714a30.8,30.8,0,0,0,22.907,10.154c9.1,0,8.123-1.706,12.1-4.224,8.367-5.28,16.246-14.3,21.77-19.739,12.916-12.672,27.05-27.131,32.818-32.655" transform="translate(-85.242 -11.037)" fill="#3a05a2" fill-rule="evenodd"/>
</svg>
