<svg xmlns="http://www.w3.org/2000/svg" width="883.9" height="137.4" viewBox="0 0 883.9 137.4">
  <g id="logo" transform="translate(-69.5 -168.3)">
    <path id="Path_1" data-name="Path 1" d="M767.8,226c15.1-14.4,26.5-27.3,50.3-27.3s53.5,23.9,53.5,53.5v49.7a1.58,1.58,0,0,1-1.6,1.6H851.1a1.58,1.58,0,0,1-1.6-1.6v-6.5a53.468,53.468,0,0,1-81.8-24.9l18.9-18A31.4,31.4,0,1,0,818,220.9c-17.4,0-21.9,8.1-31.1,16.8-9.3,9.2-18.7,18.1-28.3,27-6.5,6.1-5,4.5-5,13.6v23.6a1.561,1.561,0,0,1-1.5,1.6H733.2a1.58,1.58,0,0,1-1.6-1.6v-6.7a52.821,52.821,0,0,1-31.7,10.4,53.5,53.5,0,1,1,0-107c29.6,0,39.5,12.3,48.2,30.2l-17.5,16.6a31.333,31.333,0,0,0-30.7-24.8c-15.1,0-31.4,14-31.4,31.4s3.1,15.5,8.1,21a31.312,31.312,0,0,0,23.3,10.3c9.3,0,8.2-1.7,12.3-4.3,8.5-5.4,16.5-14.6,22.1-20,13.1-12.9,27.5-27.6,33.4-33.2" fill="#fff" fill-rule="evenodd"/>
    <path id="Path_2" data-name="Path 2" d="M376.4,218.6a32.2,32.2,0,1,0,32.2,32.2,32.179,32.179,0,0,0-32.2-32.2m-54.9,38.8V169.9a1.444,1.444,0,0,1,1.5-1.6h19.4a1.58,1.58,0,0,1,1.6,1.6v36.8a54.792,54.792,0,1,1,32.5,98.9c-30.3,0-23.4-4-32.5-10.7v6.8a1.424,1.424,0,0,1-1.6,1.6H323a1.58,1.58,0,0,1-1.6-1.6V257.4Z" fill="#fff" fill-rule="evenodd"/>
    <path id="Path_3" data-name="Path 3" d="M243.1,204V172.2h22.4V204h23v19.5h-23v82.1H243.1V204Z" fill="#fff" fill-rule="evenodd"/>
    <path id="Path_4" data-name="Path 4" d="M91.9,216A40.443,40.443,0,0,1,123,202.3c12.4,0,2.7,0,4,.2v23.4a31.705,31.705,0,0,0-8.8-1.2c-7.9,0-14.3,2.5-19,7.4-4.8,5.1-7.3,11.9-7.3,20.6v52.9H69.5V204H91.9v12Z" fill="#fff" fill-rule="evenodd"/>
    <path id="Path_5" data-name="Path 5" d="M156.8,261.2a28.508,28.508,0,0,0,7,16,27.271,27.271,0,0,0,13.5,8.4,28.693,28.693,0,0,0,30.3-9.5H234c-6.7,11.3-14.7,19.3-23.8,23.8a54.346,54.346,0,0,1-25.2,5.8c-15.4,0-28-5-37.8-14.9-9.9-9.8-14.9-22.5-14.9-37.9s5-28,14.9-37.8c9.9-9.9,22.5-14.9,37.8-14.9s28.1,5,37.9,14.9c9.9,9.9,14.9,22.5,14.9,37.8v8.4H156.7ZM213,243.9c-1.3-7.8-4.8-13.9-10.7-18.3a29.7,29.7,0,0,0-18.5-5.7,29.322,29.322,0,0,0-18,6.3,24.082,24.082,0,0,0-9.1,17.6h56.2Z" fill="#fff" fill-rule="evenodd"/>
    <rect id="Rectangle_1" data-name="Rectangle 1" width="22.4" height="101.6" transform="translate(293.7 204)" fill="#fff"/>
    <path id="Path_6" data-name="Path 6" d="M459.4,258.8a30.9,30.9,0,0,0,30.3,25.1c15,0,30.9-13.8,30.9-30.9a30.856,30.856,0,0,0-30.9-30.9c-17.1,0-34.1,16.8-30.3,36.7M451,216.6c10.5-11,23.6-16.3,38.7-16.3a52.6,52.6,0,0,1,52.6,52.6v52.6H520.6V295.4a52.872,52.872,0,0,1-69.8-78.9Z" fill="#fff" fill-rule="evenodd"/>
    <path id="Path_7" data-name="Path 7" d="M946.7,196.1l1.9.6a4.42,4.42,0,0,1-1.4,2.2,4.069,4.069,0,0,1-2.4.8,4.714,4.714,0,0,1-3.2-1.3,4.958,4.958,0,0,1-1.2-3.5,5.11,5.11,0,0,1,.5-2.6,3.778,3.778,0,0,1,1.6-1.7,4.645,4.645,0,0,1,2.3-.6,3.691,3.691,0,0,1,2.3.7,4.948,4.948,0,0,1,1.5,2.1l-1.9.4a2.285,2.285,0,0,0-.8-1.2,1.594,1.594,0,0,0-1.2-.4,2.136,2.136,0,0,0-1.7.8,3.923,3.923,0,0,0-.7,2.5,4.184,4.184,0,0,0,.6,2.5,1.943,1.943,0,0,0,1.6.8,1.727,1.727,0,0,0,1.3-.5,2.747,2.747,0,0,0,.9-1.5m-2.1-8.5a7.3,7.3,0,0,0-3.5.9,6.506,6.506,0,0,0-2.6,2.6,7.255,7.255,0,0,0,0,7,6.506,6.506,0,0,0,2.6,2.6,7.256,7.256,0,0,0,7,0,6.506,6.506,0,0,0,2.6-2.6,7.255,7.255,0,0,0,0-7,6.506,6.506,0,0,0-2.6-2.6A7.3,7.3,0,0,0,944.6,187.7Zm0-1.7a9.472,9.472,0,0,1,4.3,1.1,8.46,8.46,0,0,1,3.3,3.2,8.667,8.667,0,0,1,0,8.8,8.2,8.2,0,0,1-3.2,3.2,8.667,8.667,0,0,1-8.8,0,8.2,8.2,0,0,1-3.2-3.2,8.667,8.667,0,0,1,0-8.8,7.826,7.826,0,0,1,3.3-3.2,8.358,8.358,0,0,1,4.3-1.1Z" fill="#fff"/>
    <path id="Path_8" data-name="Path 8" d="M899.2,216a40.443,40.443,0,0,1,31.1-13.7c12.4,0,2.7,0,4,.2v23.4a31.705,31.705,0,0,0-8.8-1.2c-7.9,0-14.3,2.5-19,7.4-4.8,5.1-7.3,11.9-7.3,20.6v52.9H876.8V204h22.4Z" fill="#fff" fill-rule="evenodd"/>
    <path id="Path_9" data-name="Path 9" d="M607.5,223.2H552.2V200.8h99.3l-59.9,82.4h50.5v22.4H547.7Z" fill="#fff"/>
  </g>
</svg>
