<svg xmlns="http://www.w3.org/2000/svg" xmlns:xlink="http://www.w3.org/1999/xlink" width="71.575" height="88" viewBox="0 0 71.575 88">
  <defs>
    <clipPath id="clip-path">
      <rect id="Rectangle_3" data-name="Rectangle 3" width="71.575" height="88" transform="translate(12)" fill="#fff"/>
    </clipPath>
  </defs>
  <g id="Mask_Group_2" data-name="Mask Group 2" transform="translate(-12)" clip-path="url(#clip-path)">
    <g id="PDF_file_icon" transform="translate(12)">
      <path id="Path_20" data-name="Path 20" d="M-44.459,183.975a9.1,9.1,0,0,0-9.088,9.091v69.817a9.1,9.1,0,0,0,9.088,9.091H8.928a9.1,9.1,0,0,0,9.088-9.091V205.474a7.525,7.525,0,0,0-.587-3.317,9.191,9.191,0,0,0-1.8-2.6l-.008-.011L2.376,186.553l-.022-.022a10.477,10.477,0,0,0-2.807-1.8,10.258,10.258,0,0,0-4.008-.758l.03,0Z" transform="translate(53.548 -183.975)" fill="#ff2116"/>
      <path id="Path_21" data-name="Path 21" d="M-44.3,187.118H-4.244a8.532,8.532,0,0,1,2.771.518,7.6,7.6,0,0,1,1.931,1.22l.006.006,13.212,12.962a7.29,7.29,0,0,1,1.182,1.705,6.474,6.474,0,0,1,.331,1.975q0,.032,0,.063V263.04a6.057,6.057,0,0,1-6.1,6.1H-44.3a6.057,6.057,0,0,1-6.1-6.1V193.222a6.057,6.057,0,0,1,6.1-6.1Z" transform="translate(53.392 -184.131)" fill="#f5f5f5"/>
      <path id="Path_22" data-name="Path 22" d="M-34.783,237.256c-2.055-2.055.168-4.878,6.2-7.876l3.8-1.887,1.479-3.236c.813-1.78,2.027-4.683,2.7-6.453l1.219-3.217-.84-2.381c-1.033-2.927-1.4-7.327-.746-8.909.888-2.143,3.795-1.923,4.946.374.9,1.794.807,5.042-.259,9.139l-.874,3.359.769,1.306a45.34,45.34,0,0,0,2.747,3.791l2.044,2.543,2.544-.332c8.081-1.055,10.849.738,10.849,3.307,0,3.243-6.345,3.511-11.673-.232a16.19,16.19,0,0,1-2.022-1.678s-3.338.68-4.982,1.122c-1.7.457-2.543.744-5.028,1.582,0,0-.872,1.266-1.44,2.187-2.114,3.425-4.582,6.263-6.344,7.3C-31.673,238.219-33.741,238.3-34.783,237.256Zm3.225-1.152c1.155-.714,3.493-3.479,5.111-6.045l.655-1.039-2.983,1.5c-4.608,2.317-6.715,4.5-5.619,5.821C-33.779,237.083-33.043,237.021-31.559,236.1Zm29.928-8.4a1.734,1.734,0,0,0-.311-3.029c-.994-.5-1.8-.6-4.377-.565-1.587.108-4.138.428-4.571.525,0,0,1.4.969,2.024,1.325a26.889,26.889,0,0,0,4.311,1.8C-3.1,228.2-2.266,228.158-1.63,227.7Zm-12.034-5a29.524,29.524,0,0,1-2.583-3.333,18.567,18.567,0,0,1-1.448-2.157s-.7,2.267-1.283,3.631l-1.8,4.458-.523,1.011s2.78-.912,4.195-1.281c1.5-.391,4.539-.989,4.539-.989Zm-3.878-15.552c.174-1.463.248-2.925-.222-3.661-1.3-1.426-2.878-.237-2.612,3.153a23.12,23.12,0,0,0,.752,4.291l.689,2.184.485-1.645a43.174,43.174,0,0,0,.909-4.321Z" transform="translate(52.652 -184.862)" fill="#ff2116"/>
      <path id="Path_23" data-name="Path 23" d="M-31.067,249.123h3.336a9.064,9.064,0,0,1,2.6.306,3.047,3.047,0,0,1,1.678,1.332,4.379,4.379,0,0,1,.681,2.477,4.505,4.505,0,0,1-.553,2.29,3.245,3.245,0,0,1-1.49,1.382,7.259,7.259,0,0,1-2.862.424h-1.155v5.26h-2.23Zm2.23,1.727v4.7h1.105A2.91,2.91,0,0,0-25.688,255a2.412,2.412,0,0,0,.572-1.8,2.7,2.7,0,0,0-.375-1.5,1.538,1.538,0,0,0-.829-.711,5.187,5.187,0,0,0-1.411-.138Zm7.767-1.727h3.03a6.848,6.848,0,0,1,3.513.78,4.848,4.848,0,0,1,1.994,2.319,8.351,8.351,0,0,1,.681,3.415,9.533,9.533,0,0,1-.612,3.523,5.6,5.6,0,0,1-1.855,2.487,5.768,5.768,0,0,1-3.553.947h-3.2Zm2.23,1.786v9.9h.928a3.124,3.124,0,0,0,2.823-1.342,6.531,6.531,0,0,0,.878-3.6q0-4.954-3.7-4.954Zm9.129-1.786h7.481v1.786h-5.25v4.027h4.2v1.786h-4.2v5.872H-9.71Z" transform="translate(52.43 -187.214)" fill="#2c2c2c"/>
    </g>
  </g>
</svg>
