<svg xmlns="http://www.w3.org/2000/svg" width="42" height="42" viewBox="0 0 42 42">
  <g id="Recently_Audited" data-name="Recently Audited" transform="translate(-376 -246)">
    <rect id="Rectangle_7018" data-name="Rectangle 7018" width="42" height="42" rx="6" transform="translate(376 246)" fill="#e2edf8"/>
    <path id="Path_99620" data-name="Path 99620" d="M26.265,19.035a7.192,7.192,0,0,1,4.861,1.89V9.9a2.755,2.755,0,0,0-2.75-2.75H10.59A2.755,2.755,0,0,0,7.84,9.9V26.88a2.752,2.752,0,0,0,2.75,2.75h9.28a7.224,7.224,0,0,1,6.4-10.6ZM11.75,10.455H27.22a.75.75,0,1,1,0,1.5H11.75a.75.75,0,0,1,0-1.5Zm0,4.67H27.22a.75.75,0,1,1,0,1.5H11.75a.75.75,0,1,1,0-1.5ZM15.915,25.96h-4.17a.75.75,0,1,1,0-1.5h4.17a.75.75,0,1,1,0,1.5Zm1.49-4.665h-5.66a.75.75,0,0,1,0-1.5h5.66a.75.75,0,0,1,0,1.5Zm8.86-.76A5.733,5.733,0,1,0,32,26.269,5.732,5.732,0,0,0,26.265,20.535Zm.75,5.375a.736.736,0,0,1-.02.18.685.685,0,0,1,.02.18.752.752,0,0,1-.75.75H23.27a.75.75,0,0,1,0-1.5h2.245V22.7a.75.75,0,0,1,1.5,0Z" transform="translate(377.16 247.85)" fill="#006dd5"/>
  </g>
</svg>
