<svg xmlns="http://www.w3.org/2000/svg" width="602.6" height="163.1" viewBox="0 0 602.6 163.1">
  <g id="logo" transform="translate(-210.1 -155.5)">
    <path id="Path_1" data-name="Path 1" d="M390.4,215.2V183h22.8v32.2h23.3v19.9H413.2v83.3H390.4V215.2Z" fill="#016dd5" fill-rule="evenodd"/>
    <path id="Path_2" data-name="Path 2" d="M232.9,227.5c8.4-9.3,19-13.9,31.6-13.9s2.7,0,4.1.2v23.8a32.628,32.628,0,0,0-9-1.2c-8.1,0-14.5,2.5-19.3,7.5-4.9,5.2-7.4,12.1-7.4,20.9v53.7H210.1V215.3h22.8v12.2Z" fill="#016dd5" fill-rule="evenodd"/>
    <path id="Path_3" data-name="Path 3" d="M300.8,273.3a28.543,28.543,0,0,0,7.1,16.2,29.259,29.259,0,0,0,29.9,8.6,29.5,29.5,0,0,0,14.5-9.6h26.9c-6.8,11.5-14.9,19.6-24.2,24.2a55.767,55.767,0,0,1-25.6,5.9c-15.6,0-28.4-5.1-38.4-15.1-10.1-10-15.1-22.9-15.1-38.5s5-28.4,15.1-38.4c10-10.1,22.8-15.1,38.4-15.1s28.5,5.1,38.5,15.1C378,236.6,383,249.4,383,265v8.5H300.7Zm57-17.5c-1.3-8-4.9-14.1-10.8-18.6a29.926,29.926,0,0,0-18.7-5.8,30.277,30.277,0,0,0-18.3,6.4,24.817,24.817,0,0,0-9.2,17.9h57.1Z" fill="#016dd5" fill-rule="evenodd"/>
    <rect id="Rectangle_1" data-name="Rectangle 1" width="22.8" height="103.2" transform="translate(443.8 215.2)" fill="#016dd5"/>
    <path id="Path_4" data-name="Path 4" d="M473.9,215.2V183h22.7v32.2H520v19.9H496.6v83.3H473.9V215.2Z" fill="#3a05a2" fill-rule="evenodd"/>
    <path id="Path_5" data-name="Path 5" d="M550,227.5c8.4-9.3,19-13.9,31.6-13.9s2.7,0,4.1.2v23.8a32.628,32.628,0,0,0-9-1.2c-8.1,0-14.5,2.5-19.3,7.5-4.9,5.2-7.4,12.1-7.4,20.9v53.7H527.2V215.3H550v12.2Z" fill="#3a05a2" fill-rule="evenodd"/>
    <path id="Path_6" data-name="Path 6" d="M616.4,270.9a31.352,31.352,0,0,0,30.8,25.5c15.3,0,31.4-14,31.4-31.4a31.326,31.326,0,0,0-31.4-31.4c-17.4,0-34.6,17-30.8,37.2m-8.5-42.7c10.7-11.2,24-16.5,39.3-16.5A53.39,53.39,0,0,1,700.6,265v53.4h-22V308.2A53.729,53.729,0,0,1,607.7,228Z" fill="#3a05a2" fill-rule="evenodd"/>
    <path id="Path_7" data-name="Path 7" d="M806,225.5l1.9.6a4.64,4.64,0,0,1-1.5,2.3,4.069,4.069,0,0,1-2.4.8,4.714,4.714,0,0,1-3.2-1.3,5.271,5.271,0,0,1-1.3-3.6,4.686,4.686,0,0,1,.6-2.7,4.034,4.034,0,0,1,1.6-1.8,4.645,4.645,0,0,1,2.3-.6,4.2,4.2,0,0,1,2.4.7,5.336,5.336,0,0,1,1.5,2.2l-1.9.5a2.285,2.285,0,0,0-.8-1.2,1.746,1.746,0,0,0-1.2-.4,2.136,2.136,0,0,0-1.7.8,4.138,4.138,0,0,0-.7,2.5,3.56,3.56,0,0,0,.7,2.5,2.088,2.088,0,0,0,1.6.8,1.727,1.727,0,0,0,1.3-.5,2.747,2.747,0,0,0,.9-1.5m-2.3-8.6a7.3,7.3,0,0,0-3.5.9,7.1,7.1,0,0,0-3.7,6.2,7.683,7.683,0,0,0,.9,3.6,6.506,6.506,0,0,0,2.6,2.6,7.4,7.4,0,0,0,3.6.9,7.683,7.683,0,0,0,3.6-.9,6.506,6.506,0,0,0,2.6-2.6,7.4,7.4,0,0,0,.9-3.6,6.765,6.765,0,0,0-1-3.6,6.176,6.176,0,0,0-2.7-2.6,7.3,7.3,0,0,0-3.5-.9Zm0-1.8a8.834,8.834,0,0,1,4.4,1.2,8.715,8.715,0,0,1,3.3,3.3,8.923,8.923,0,0,1,1.2,4.5,8.564,8.564,0,0,1-1.2,4.4,8.715,8.715,0,0,1-3.3,3.3,8.667,8.667,0,0,1-8.8,0,8.715,8.715,0,0,1-3.3-3.3,8.834,8.834,0,0,1-1.2-4.4,9.488,9.488,0,0,1,1.2-4.5,8.715,8.715,0,0,1,3.3-3.3A8.834,8.834,0,0,1,803.8,215.2Z" fill="#3a05a2"/>
    <path id="Path_8" data-name="Path 8" d="M708,155.5h21.8v96.8l34.9-37.5h28.5l-44.6,47.9,45.1,55.7H766.6l-36.8-45.5v45.5H708Z" fill="#3a05a2"/>
  </g>
</svg>
