<svg xmlns="http://www.w3.org/2000/svg" width="173.622" height="163.951" viewBox="0 0 173.622 163.951">
  <g id="n.138_Empty_Inbox" data-name="n.138 Empty Inbox" transform="translate(-75.05 -85.33)">
    <path id="Path_329" data-name="Path 329" d="M276.887,327.962l-.212-9.61-.1-3.5c-.075-4.122-.122-8.239-.165-12.361,0-1.828-.057-3.665-.085-5.478-.038-2.327-.137-4.668,0-7,.038-.725.188-.631.367,0a11.62,11.62,0,0,1,.283,1.272,10.245,10.245,0,0,1,.17,1.814c.085,4.753.165,9.5.151,14.3,0,2.869.118,5.851.188,8.785q.118,4.833.236,9.676.071,2.977.146,5.954c.071,3.01.141,6.03.212,9.011.075,2.322.151,4.6.226,6.892,0,.5.042,1,.047,1.507.028,1.884-.057,2.492-.278,2.9a1.5,1.5,0,0,1-.155.268c-.174.184-.33-.589-.405-1.969-.179-4.094-.283-8.413-.4-12.747-.08-3.222-.165-6.458-.25-9.69Z" transform="translate(-106.424 -107.999)" fill="#7c809a"/>
    <path id="Path_330" data-name="Path 330" d="M152.432,407.549l-11.305-2.826L137,403.705l-14.509-3.768-6.444-1.62c-2.737-.692-5.507-1.324-8.211-2.153-.843-.25-.7-.344.061-.311a15.256,15.256,0,0,1,1.554.137,18.053,18.053,0,0,1,2.176.382c5.624,1.3,11.221,2.7,16.84,4.192,3.363.89,6.892,1.71,10.363,2.563l11.4,2.826,7.023,1.686c3.547.838,7.113,1.691,10.651,2.445,2.751.594,5.464,1.088,8.2,1.583l1.8.316c2.247.405,2.949.608,3.373,1.022a1.983,1.983,0,0,1,.283.278c.17.292-.787.325-2.45.085-4.941-.74-10.076-1.851-15.215-3.024-3.816-.871-7.636-1.8-11.447-2.727Z" transform="translate(-17.04 -164.245)" fill="#7c809a"/>
    <path id="Path_331" data-name="Path 331" d="M293.935,240.435l-11.305,4.126-4.112,1.531-14.523,5.266-1.616.589-.405.146c-.141.052-.33.113-.495.16l-.259.066h-.207l-.424-.042c-1.131-.108-2.28-.188-3.41-.311a42.183,42.183,0,0,1-8.639-1.668c-.876-.278-.692-.443.1-.429a26.327,26.327,0,0,1,3.825.471c1.446.278,2.9.471,4.371.659s2.93.259,4.452.433c.132-.038.188-.113.292-.141l.5-.179,1.05-.377,2.11-.754,4.24-1.5c3.392-1.187,6.877-2.534,10.321-3.806l11.371-4.192,7-2.586c3.528-1.31,7.066-2.614,10.571-3.947,2.718-1.032,5.356-2.1,8.008-3.151l1.757-.7c2.2-.848,2.93-1.06,3.5-.989a1.885,1.885,0,0,1,.372.047c.278.09-.556.612-2.153,1.272-4.744,1.974-9.807,3.9-14.895,5.8l-11.381,4.24Z" transform="translate(-91.459 -76.042)" fill="#231f20"/>
    <path id="Path_332" data-name="Path 332" d="M247.552,296.062c.556-.966,1.149-1.908,1.757-2.826.226-.334.424-.692.655-1.022a38.48,38.48,0,0,1,2.7-3.349l1.277-1.413a9.754,9.754,0,0,1,1.79-1.649c.419-.278.556.871-.071,1.489-1.121,1.121-2.153,2.322-3.26,3.509a20.518,20.518,0,0,0-1.743,2.407c-.612.9-1.187,1.837-1.748,2.784-.339.584-.678,1.173-.994,1.771-.471.9-.942,1.823-1.366,2.756-.32.725-.551,1.474-.834,2.2-.061.16-.108.325-.174.471-.245.6-.4.754-.716.773a1.127,1.127,0,0,1-.217,0c-.226-.028-.292-.339-.179-.81a18.579,18.579,0,0,1,.65-2.082c.273-.688.57-1.375.9-2.054.471-1.008,1-2,1.545-2.982Z" transform="translate(-89.563 -106.016)" fill="#7c809a"/>
    <path id="Path_333" data-name="Path 333" d="M134.322,306.289c-2.826-.862-5.653-1.724-8.512-2.553-1.041-.306-2.087-.575-3.123-.876-3.655-1.055-7.325-2.063-11.018-2.987-1.639-.415-3.3-.81-4.927-1.192-2.11-.471-4.2-1.027-6.27-1.63-.645-.193-.528-.292.057-.3a16.214,16.214,0,0,1,2.878.264l1.62.311c.542.1,1.074.24,1.611.358l3.213.763c2.139.523,4.305,1.032,6.439,1.649,2.558.735,5.243,1.413,7.857,2.148,2.873.815,5.737,1.668,8.6,2.53l5.285,1.587c2.666.8,5.342,1.606,8.008,2.355,2.068.579,4.112,1.088,6.171,1.6l1.352.334c1.691.433,2.209.65,2.5,1.008a1.6,1.6,0,0,1,.193.24c.108.245-.622.231-1.884-.033-3.721-.8-7.584-1.884-11.442-3l-8.606-2.553Z" transform="translate(-13.216 -111.829)" fill="#7c809a"/>
    <path id="Path_334" data-name="Path 334" d="M289.238,293.3a19.007,19.007,0,0,0-1.357-2.412c-.193-.278-.386-.556-.594-.824a23.848,23.848,0,0,0-2.313-2.76,15.068,15.068,0,0,0-1.173-1.093c-.528-.438-1.074-.848-1.587-1.31-.155-.141-.061-.236.17-.24a1.663,1.663,0,0,1,.942.3,14.814,14.814,0,0,1,3.213,2.855c.273.334.561.669.857.994s.575.678.838,1.032A20.678,20.678,0,0,1,289.8,292.3c.137.264.283.528.419.8l.367.815a20.949,20.949,0,0,1,.9,2.548l.165.495.137.5c.094.33.2.664.283,1,.028.151.066.3.085.471.075.57,0,.763-.24.9a1.469,1.469,0,0,1-.165.094c-.184.066-.382-.146-.518-.532a7.807,7.807,0,0,1-.226-.867c-.085-.292-.17-.579-.24-.876l-.108-.443-.141-.438-.268-.881c-.155-.433-.311-.862-.471-1.3a11.679,11.679,0,0,0-.565-1.267Z" transform="translate(-109.538 -105.434)" fill="#7c809a"/>
    <path id="Path_335" data-name="Path 335" d="M336.388,285.939l7.066-2.826,2.577-1.05,9.134-3.561c1.357-.523,2.7-1.088,4.037-1.616a50.792,50.792,0,0,1,5.219-1.908c.556-.165.528,0,.132.316a10.034,10.034,0,0,1-2.115,1.319c-3.462,1.493-6.972,2.859-10.542,4.178-2.134.787-4.305,1.733-6.463,2.61l-7.1,2.859-4.376,1.776c-2.209.9-4.433,1.8-6.595,2.732-1.691.725-3.326,1.493-4.984,2.242l-1.093.495c-1.375.589-1.851.688-2.252.57a1.455,1.455,0,0,1-.264-.085c-.212-.132.283-.532,1.262-1.032,2.916-1.451,6.077-2.8,9.252-4.131l7.113-2.93Z" transform="translate(-128.886 -100.278)" fill="#7c809a"/>
    <path id="Path_336" data-name="Path 336" d="M324.914,410.115l4-1.248c.471-.155.942-.339,1.451-.471l5.182-1.55c.758-.236,1.521-.495,2.27-.749a16.083,16.083,0,0,1,2.972-.805c.325-.047.3.118.085.344a3.509,3.509,0,0,1-1.168.758c-.942.4-1.941.7-2.921,1.036s-1.978.641-2.982.942c-1.206.344-2.417.838-3.627,1.244l-4.018,1.314-2.473.81c-1.244.41-2.5.805-3.735,1.239-.942.334-1.884.73-2.826,1.083-.207.075-.41.16-.622.231-.791.259-1.074.245-1.328,0a1.213,1.213,0,0,1-.17-.179c-.141-.217.127-.509.674-.744a54.168,54.168,0,0,1,5.182-1.931l4.018-1.31Z" transform="translate(-126.904 -169.237)" fill="#231f20"/>
    <path id="Path_337" data-name="Path 337" d="M378.473,368.43s12.766,0,12.766,4.164c0,5.549-24.867,12.05-46.658,17.057L378.27,375.8Z" transform="translate(-142.566 -149.744)" fill="#7c809a"/>
    <path id="Path_338" data-name="Path 338" d="M243.387,191.16c-.113.768-.207,39.041-.207,39.041l15.389,2.007,63.39-23.289s2.6-1.757-4.956-3.142Z" transform="translate(-88.931 -55.978)" fill="#b1d5f8"/>
    <path id="Path_339" data-name="Path 339" d="M93.442,324.649l.061-6.2c0-.754-.047-1.5-.038-2.256l.075-3.99.1-3.985v-3.538a28.9,28.9,0,0,1,.137-4.513c.061-.471.367-.41.7,0a3.815,3.815,0,0,1,.782,1.988l.089,1.149.047.57v2.873c0,1.536-.038,3.071-.113,4.621-.1,1.847,0,3.768,0,5.653v10.085c0,1.941,0,3.891.047,5.813.033,1.5.212,2.963.269,4.447,0,.325.038.645.038.97a4.485,4.485,0,0,1-.132,1.3,1.13,1.13,0,0,1-.471.575,1.837,1.837,0,0,1-.269.174c-.151.061-.287-.033-.424-.254a2.492,2.492,0,0,1-.358-1.013,57.087,57.087,0,0,1-.556-8.211c-.033-2.077,0-4.164-.038-6.246Z" transform="translate(-9.701 -113.462)" fill="#7c809a"/>
    <path id="Path_340" data-name="Path 340" d="M146.9,404.461l-12.247-3.128-4.475-1.107-15.7-4.089c-2.322-.608-4.673-1.168-6.986-1.748-2.972-.744-5.973-1.413-8.894-2.355-.914-.283-.749-.41.085-.405.415,0,1,.028,1.7.094a16.634,16.634,0,0,1,2.355.382c6.124,1.375,12.167,2.873,18.258,4.5,3.646.975,7.471,1.847,11.216,2.77l12.351,3.057,7.608,1.884c3.839.942,7.692,1.884,11.522,2.746,2.972.674,5.912,1.239,8.865,1.828l1.945.377c2.426.5,3.175.763,3.608,1.3a2.247,2.247,0,0,1,.283.363c.165.377-.881.429-2.68.127-5.332-.9-10.872-2.186-16.43-3.509-4.122-.984-8.253-2.021-12.379-3.043Z" transform="translate(-12.13 -162.015)" fill="#7c809a"/>
    <path id="Path_341" data-name="Path 341" d="M274.923,322.385q0-5.5-.028-11l-.071-4.013-.042-14.132c0-2.1-.028-4.2-.071-6.279a72.064,72.064,0,0,1,.085-8.008c.071-.829.325-.716.626,0a10.245,10.245,0,0,1,.471,1.456,9.246,9.246,0,0,1,.193.98,10.15,10.15,0,0,1,.071,1.1c.085,5.445.174,10.881.061,16.379-.061,3.3.08,6.7.118,10.062l.085,11.093v6.826c0,3.448-.052,6.91-.066,10.335,0,2.661.038,5.271,0,7.9v1.734c-.066,2.167-.25,2.85-.65,3.3a1.88,1.88,0,0,1-.278.292c-.306.188-.518-.7-.565-2.285-.052-4.711,0-9.624.033-14.6,0-3.688.033-7.391,0-11.089Z" transform="translate(-105.572 -102.106)" fill="#7c809a"/>
    <path id="Path_342" data-name="Path 342" d="M337.285,335.366q3.844-1.493,7.669-3.015c1.277-.509,2.548-1.022,3.811-1.55s2.534-1.06,3.735-1.616l.316-.151s.071,0,.061-.047v-1.31c0-1,0-2.007.024-3.01l.4-21.2c.052-3.137.038-6.293.047-9.421,0-4-.094-8.008.212-12.021.09-1.244.433-1.079.815-.024a14.652,14.652,0,0,1,.57,2.186,16.058,16.058,0,0,1,.325,3.118c.038,4.089.108,8.173.038,12.247s-.17,8.192-.32,12.313c-.179,4.927-.113,10.057-.174,15.1l-.024,2.238v.966a.556.556,0,0,1-.09.052l-.193.094-.382.193-.683.339-.471.24c-1.281.565-2.563,1.121-3.849,1.644-2.567,1.069-5.144,2.1-7.721,3.123l-9.539,3.731-14.443,5.591c-3.717,1.451-7.315,2.977-10.99,4.428-.805.32-1.587.655-2.412.942l-1.055.382c-.325.1-.626.184-.9.264-.551.141-1,.245-1.38.306a6.685,6.685,0,0,1-.942.1,2.826,2.826,0,0,1-.678-.075,2.746,2.746,0,0,1-.5-.113c-.174-.09.047-.283.551-.57l.975-.542c.405-.217.876-.448,1.413-.7.787-.405,1.611-.721,2.431-1.06l2.487-1.022,5.036-2.021c3.4-1.366,6.863-2.723,10.33-4.089l15.488-6.086Z" transform="translate(-118.195 -103.579)" fill="#7c809a"/>
    <path id="Path_343" data-name="Path 343" d="M192.155,250l-5.474,1.969-1.375.471-.688.245-.174.061-.283.09c-.193.057-.391.1-.584.141l-.146.024a.3.3,0,0,1-.122,0l-.179-.028-.367-.052-.73-.108-1.446-.231c-3.853-.636-7.678-1.333-11.5-2.04-2.793-.513-5.591-.994-8.375-1.531q-14.725-2.859-29.38-6.077c-4.334-.942-8.691-1.884-12.982-2.9-2.76-.641-5.521-1.3-8.262-2.035a61.623,61.623,0,0,1-8.126-2.676c-1.649-.8-1.211-1,.264-.725a72.339,72.339,0,0,1,7.292,1.583c5.544,1.489,11.164,2.77,16.793,4.051s11.305,2.515,16.958,3.768c6.8,1.484,13.924,2.775,20.92,4.075q5.773,1.074,11.55,2.1c1.927.334,3.853.669,5.78.97l1.441.217.363.052c.118,0,.259.052.3,0a1.02,1.02,0,0,1,.184-.1l.1-.038.174-.061,2.76-.994,13.585-4.946c6.849-2.515,13.736-5.026,20.515-7.579,5.271-1.983,10.4-4.028,15.587-6.053l3.406-1.342c4.277-1.635,5.676-2.059,6.764-1.969a5.764,5.764,0,0,1,.716.052c.523.146-1.1,1.135-4.211,2.4-9.214,3.768-19.035,7.48-28.913,11.15l-22.1,8.107Z" transform="translate(-13.675 -75.626)" fill="#7c809a"/>
    <path id="Path_344" data-name="Path 344" d="M143.512,198.974q-5.116,1.686-10.222,3.425l-3.712,1.31c-4.376,1.484-8.757,2.963-13.119,4.489-1.936.669-3.872,1.385-5.775,2.1l-3.674,1.413c-1.225.471-2.473.862-3.717,1.253-.782.24-.768-.033-.221-.528a11.305,11.305,0,0,1,3.024-1.823c4.984-1.927,10-3.768,15.126-5.412,3.067-1,6.194-2.2,9.3-3.3q5.13-1.795,10.278-3.547l6.336-2.148,9.591-3.231,7.306-2.586c.542-.179,1.065-.372,1.611-.546a11.659,11.659,0,0,1,2.2-.546,1.715,1.715,0,0,1,1.079.155,2.161,2.161,0,0,1,.363.207c.273.278-.471.768-1.941,1.258-4.31,1.531-8.9,3.109-13.515,4.645l-10.307,3.462Z" transform="translate(-14.615 -54.979)" fill="#7c809a"/>
    <path id="Path_345" data-name="Path 345" d="M292.54,200.591l-12.04-2.4-4.4-.815L260.617,194.3c-2.285-.471-4.593-.89-6.873-1.314-1.465-.269-2.935-.537-4.395-.829-.735-.141-1.465-.3-2.2-.471s-1.451-.334-2.19-.579c-.942-.292-.669-.532.165-.627a14.8,14.8,0,0,1,3.962.2l8.95,1.62c1.493.273,2.991.565,4.484.876l4.484.942c3.58.782,7.349,1.413,11.027,2.106l12.144,2.355,7.466,1.479,11.305,2.266c2.911.565,5.775,1.065,8.658,1.644.636.137,1.258.25,1.884.4s1.079.24,1.484.377a9.832,9.832,0,0,1,.984.377,2.638,2.638,0,0,1,.994.683,2.757,2.757,0,0,1,.264.32c.146.306-.876.287-2.6,0-5.116-.98-10.538-2.021-15.964-3.109l-12.144-2.4Z" transform="translate(-89.561 -55.592)" fill="#7c809a"/>
    <path id="Path_346" data-name="Path 346" d="M420.543,236.729a16.549,16.549,0,0,0-1.5-2.52c-.2-.3-.471-.542-.692-.829A21.126,21.126,0,0,0,415.7,230.6a12.105,12.105,0,0,0-1.361-1.055c-.6-.424-1.244-.777-1.823-1.244-.184-.146-.061-.3.207-.372a1.587,1.587,0,0,1,1.093.113,13.223,13.223,0,0,1,3.768,2.746c.33.339.664.678,1.008,1.018a13.1,13.1,0,0,1,.994,1.05,17.9,17.9,0,0,1,1.837,2.591,7.974,7.974,0,0,1,.471.862c.146.292.3.579.438.871l.542,1.385c.146.471.273.942.424,1.413.132.358.188.735.306,1.1l.155.551.08.278.047.283c.024.165.061.325.08.495.047.631-.089.834-.471.97a2.506,2.506,0,0,1-.245.085c-.273.057-.532-.184-.692-.6a5,5,0,0,1-.231-.942c-.066-.311-.174-.612-.24-.942a6.393,6.393,0,0,0-.231-.942c-.113-.316-.188-.617-.278-.942a17.334,17.334,0,0,0-1.079-2.69Z" transform="translate(-178.452 -75.398)" fill="#7c809a"/>
    <path id="Path_347" data-name="Path 347" d="M289.134,291.944c-.245-.471-.471-.942-.725-1.413a15.682,15.682,0,0,0-.834-1.347c-.217-.32-.471-.612-.688-.942a30.032,30.032,0,0,0-2.624-3.17,14.577,14.577,0,0,0-1.347-1.244c-.6-.495-1.244-.942-1.832-1.413-.184-.141-.09-.3.188-.372a1.606,1.606,0,0,1,1.159.2,14.571,14.571,0,0,1,3.745,3.25c.311.391.655.758.984,1.149s.683.758.98,1.173l.5.669c.16.231.306.471.471.7l.471.7.414.73c.353.594.636,1.225.942,1.847A21.274,21.274,0,0,1,292,295.4c.061.193.127.382.193.575l.1.631c.1.391.231.777.316,1.173.024.179.066.353.085.532.052.669-.085.89-.429,1.032a1.887,1.887,0,0,1-.24.09c-.268.061-.523-.193-.683-.631a8.007,8.007,0,0,1-.24-.98c-.1-.32-.188-.65-.268-.98l-.113-.495-.16-.471-.3-.994c-.193-.471-.353-.97-.537-1.456s-.419-.942-.65-1.413Z" transform="translate(-108.93 -104.031)" fill="#7c809a"/>
    <path id="Path_348" data-name="Path 348" d="M332.566,280.492l8.9-3.42,3.236-1.281,11.475-4.31c1.7-.636,3.382-1.328,5.064-1.978l3.236-1.258.82-.3.829-.259c.551-.174,1.116-.33,1.682-.471.707-.179.664.024.17.471-.25.212-.612.471-1.055.777-.221.151-.471.306-.725.471l-.41.236c-.146.066-.292.132-.471.193l-3.264,1.347c-1.088.471-2.186.886-3.3,1.3q-3.3,1.267-6.675,2.454c-2.685.942-5.408,2.106-8.116,3.17l-8.95,3.491-5.483,2.125c-2.77,1.1-5.563,2.2-8.291,3.34-2.12.89-4.164,1.851-6.237,2.789-.471.207-.895.424-1.357.626-1.715.74-2.3.867-2.826.683a1.7,1.7,0,0,1-.344-.127c-.283-.188.325-.716,1.54-1.371,3.66-1.851,7.622-3.509,11.6-5.149,2.963-1.211,5.954-2.388,8.95-3.575Z" transform="translate(-124.489 -96.174)" fill="#7c809a"/>
    <path id="Path_349" data-name="Path 349" d="M77.509,255.1c.3-.528.584-1.06.909-1.569l.471-.768.5-.754c.245-.367.471-.758.716-1.107a27.054,27.054,0,0,1,3.076-3.491c.254-.236.495-.471.744-.721l.768-.7c.316-.306.683-.57,1.032-.848a4.622,4.622,0,0,1,1.2-.622c.268-.1.386.245.363.674a1.55,1.55,0,0,1-.532,1.178,46.636,46.636,0,0,0-3.688,3.3,10.75,10.75,0,0,0-1.013,1.187c-.306.429-.589.876-.9,1.3s-.641.966-.942,1.456-.617.989-.89,1.5l-.518.942c-.165.32-.316.645-.471.966a23.4,23.4,0,0,0-1.22,3.02,17.691,17.691,0,0,0-.471,2.431c-.028.179-.052.353-.075.532-.094.655-.236.848-.664.942a2.022,2.022,0,0,1-.292.066c-.32.028-.532-.287-.551-.829a7.918,7.918,0,0,1,.033-1.206,7.424,7.424,0,0,1,.174-1.211,18.9,18.9,0,0,1,.7-2.355,32.816,32.816,0,0,1,1.507-3.345Z" transform="translate(0 -84.194)" fill="#7c809a"/>
    <path id="Path_350" data-name="Path 350" d="M244.732,294.032c.688-1.088,1.413-2.143,2.19-3.189.283-.382.532-.777.82-1.149A42.161,42.161,0,0,1,251.087,286l1.564-1.554a10.561,10.561,0,0,1,2.162-1.8c.259-.146.429.141.448.556a1.668,1.668,0,0,1-.5,1.286c-1.352,1.239-2.61,2.553-3.98,3.834a20.809,20.809,0,0,0-2.148,2.661c-.763,1-1.474,2.049-2.172,3.1-.415.664-.843,1.314-1.225,2-.3.513-.6,1.022-.876,1.55s-.561,1.041-.806,1.578c-.391.824-.664,1.691-1.008,2.525-.071.188-.127.372-.207.561-.292.683-.471.857-.89.853a1.8,1.8,0,0,1-.278,0c-.3-.052-.4-.424-.259-.97a17.9,17.9,0,0,1,.773-2.412c.325-.791.7-1.578,1.1-2.355.589-1.149,1.239-2.285,1.917-3.392Z" transform="translate(-87.7 -104.349)" fill="#7c809a"/>
    <path id="Path_351" data-name="Path 351" d="M120.855,300.963c-3.556-1.032-7.113-2.059-10.684-3.034-1.3-.358-2.614-.664-3.919-1.013q-3.443-.942-6.9-1.79c-2.294-.561-4.621-1.05-6.953-1.54-2.068-.433-4.164-.834-6.218-1.3-.664-.146-1.324-.306-1.983-.471s-1.31-.372-1.96-.584a30.619,30.619,0,0,1-3.768-1.517c-.763-.372-.579-.5.16-.443a25.182,25.182,0,0,1,3.538.589c.664.151,1.319.311,1.988.443s1.319.316,1.983.471c1.324.3,2.661.584,4,.853,2.685.546,5.408,1.05,8.121,1.738,3.236.843,6.595,1.587,9.892,2.459,3.613.942,7.212,1.964,10.8,2.982l6.628,1.884c3.349.942,6.7,1.931,10.034,2.826,2.6.692,5.182,1.272,7.739,1.884.57.132,1.131.25,1.7.391,2.115.528,2.76.806,3.114,1.328a1.7,1.7,0,0,1,.226.353c.127.363-.8.4-2.355.108-4.678-.9-9.515-2.2-14.358-3.533L120.892,301Z" transform="translate(-1.549 -107.869)" fill="#7c809a"/>
    <path id="Path_352" data-name="Path 352" d="M244.046,219.946l.08-5.54v-2.021l.118-7.122v-3.156c0-1.343-.028-2.694.1-4.042.075-.834.678.25.688,1.79,0,2.737,0,5.474-.122,8.239-.061,1.653,0,3.373-.033,5.064l-.052,5.582c0,1.145-.024,2.289-.038,3.434,0,1.733-.038,3.476-.052,5.182,0,1.338,0,2.652.033,3.976v.876a2.621,2.621,0,0,1-.344,1.658,1.069,1.069,0,0,1-.108.146c-.057.052-.1-.038-.155-.236a5.217,5.217,0,0,1-.141-.909c-.094-2.355-.061-4.847-.047-7.348,0-1.856.033-3.721.052-5.587Z" transform="translate(-89.34 -59.477)" fill="#7c809a"/>
    <path id="Path_353" data-name="Path 353" d="M242,214.958l.038-5.968c0-.725-.038-1.451-.033-2.176l.09-7.678v-5.591a11.63,11.63,0,0,1,.212-2.219c.165-.57.41-.292.631.085a3.769,3.769,0,0,1,.5,1.884c0,1.456.042,2.93,0,4.4s-.057,2.958-.122,4.447c-.075,1.785,0,3.637.028,5.46v15.324c0,1.441.1,2.859.1,4.3v.942c-.033,1.2-.363,1.583-.688,1.785a.819.819,0,0,1-.212.108c-.1,0-.16-.1-.217-.3-.028-.108-.066-.24-.1-.4a3.919,3.919,0,0,1-.08-.556c-.122-2.487-.127-5.182-.141-7.862v-6.011Z" transform="translate(-88.307 -55.893)" fill="#7c809a"/>
    <path id="Path_354" data-name="Path 354" d="M146.913,200l-9.708,3.4-3.524,1.277-12.459,4.433c-1.837.664-3.679,1.352-5.493,2.04l-3.5,1.328c-1.168.433-2.355.843-3.533,1.229-.74.24-.7.052-.146-.339a15.657,15.657,0,0,1,2.949-1.55c4.758-1.823,9.525-3.6,14.381-5.271,2.9-1,5.888-2.143,8.842-3.213l9.76-3.486,6.015-2.115,9.12-3.166c2.355-.82,4.63-1.668,6.958-2.468l1.526-.528c1.931-.622,2.577-.725,3.067-.584a1.517,1.517,0,0,1,.33.1c.245.155-.471.561-1.884,1.041l-12.888,4.484-9.793,3.41Z" transform="translate(-17.499 -55.857)" fill="#7c809a"/>
    <path id="Path_355" data-name="Path 355" d="M273.009,214.492l-4.094-.989-1.5-.334-5.266-1.244q-1.173-.268-2.355-.5c-1-.193-2.007-.4-3.01-.565-.311-.052-.269-.09,0-.108a6.518,6.518,0,0,1,1.366.047c2.077.287,4.136.627,6.185,1.088,1.225.292,2.511.528,3.768.8l4.145.914,2.563.556c1.286.283,2.577.584,3.858.843.994.2,1.983.358,2.968.551q.325.057.65.127c.806.188,1.05.3,1.182.518a.613.613,0,0,1,.09.146c.052.151-.306.2-.909.132-.9-.094-1.814-.24-2.737-.41s-1.842-.391-2.77-.6Z" transform="translate(-96.013 -66.332)" fill="#7c809a"/>
    <path id="Path_356" data-name="Path 356" d="M275.8,226.458l-1.781-.448-.65-.146-2.294-.565c-.339-.08-.683-.151-1.022-.217a11.1,11.1,0,0,1-1.3-.287c-.264-.085.165-.405.664-.306.89.179,1.776.377,2.661.627.528.146,1.093.245,1.639.367l1.8.429,1.107.273,1.672.415c.433.1.862.174,1.3.264l.283.057c.349.085.471.146.471.3a.85.85,0,0,1,.028.1c0,.108-.16.155-.424.113-.777-.118-1.573-.316-2.355-.513l-1.795-.447Z" transform="translate(-102.414 -73.597)" fill="#7c809a"/>
    <path id="Path_357" data-name="Path 357" d="M362.215,129.342a6.427,6.427,0,0,1-.942,1.361,6.821,6.821,0,0,1-1.286,1.05,8.606,8.606,0,0,1-2.892,1.079,19.431,19.431,0,0,1-2.054.325,27.738,27.738,0,0,0-3.34.429,7.928,7.928,0,0,0-2.93,1.2,5.257,5.257,0,0,0-1.743,2.1,4.278,4.278,0,0,0-.363,1.6,2.643,2.643,0,0,0,.358,1.446c.165.283-.052.565-.6.556a1.192,1.192,0,0,1-.471-.1,1.46,1.46,0,0,1-.5-.3,2.049,2.049,0,0,1-.707-1.253,3.637,3.637,0,0,1,0-1.357,6.006,6.006,0,0,1,.363-1.211,6.954,6.954,0,0,1,1.3-2.04,8.06,8.06,0,0,1,4.023-2.219,43.34,43.34,0,0,1,5.064-.843,6.371,6.371,0,0,0,4.357-1.842,4.531,4.531,0,0,0,.749-1.244,6.121,6.121,0,0,0,.25-.716,3.3,3.3,0,0,0,.108-.678,4.617,4.617,0,0,0-2.063-3.768,4.908,4.908,0,0,0-3.2-.9,4.465,4.465,0,0,0-.645.137,3.5,3.5,0,0,1-.848.165,1.244,1.244,0,0,1-.664-.226,3.674,3.674,0,0,1-.334-.184c-.16-.113-.207-.292-.137-.57a1.017,1.017,0,0,1,.245-.433,2.3,2.3,0,0,1,.509-.438,4.428,4.428,0,0,1,2.157-.608,5.855,5.855,0,0,1,2.2.339,7.73,7.73,0,0,1,3.509,2.6,6.27,6.27,0,0,1,1.3,3.2,5.271,5.271,0,0,1-.155,1.837,8.226,8.226,0,0,1-.594,1.531Z" transform="translate(-142.621 -18.26)" fill="#7c809a"/>
    <path id="Path_358" data-name="Path 358" d="M345.539,169.528a1.54,1.54,0,0,0,.631,1.851,1.649,1.649,0,0,0,1.884-.33,2.026,2.026,0,0,0,.41-2.271,1.3,1.3,0,0,0-1.1-.749,1.583,1.583,0,0,0-1.22.584.906.906,0,0,0,1.281,1.281,1.13,1.13,0,0,1,.127-.132c-.08.057-.08.061,0,0a.537.537,0,0,1-.513,0,.471.471,0,0,1-.188-.179c.033.066.038.061,0,0s-.033-.075,0,0v.071c0,.1,0,.085-.042.127.061-.132.066-.155.024-.071l-.024.042c-.057.075-.038.057.052-.066l-.066.071c-.071.061-.047.042.075-.057l-.075.047c-.085.042-.052.028.1-.038l-.118.033c.174,0,.217-.024.122,0h-.075c.179.028.221.033.132,0s-.047,0,.118.047c-.132-.066.165.16.071.057.1.141.127.17.075.094.061.16.08.193.047.108s0-.057,0,.108a.38.38,0,0,1,0-.1c-.042.3,0,0,.024-.052a.9.9,0,0,0-1.748-.471Z" transform="translate(-143.021 -43.744)" fill="#7c809a"/>
    <path id="Path_359" data-name="Path 359" d="M169.855,93.724a4.521,4.521,0,0,0,.471,1.017,4.777,4.777,0,0,0,.758.853,6.661,6.661,0,0,0,2.219,1.159,19.456,19.456,0,0,0,1.978.471A29.609,29.609,0,0,1,179.05,98.3a10.8,10.8,0,0,1,3.5,2.073,9.737,9.737,0,0,1,1.234,1.366,8.239,8.239,0,0,1,.9,1.6,5.333,5.333,0,0,1,.471,2.412A3.128,3.128,0,0,1,183.921,108c-.471.306-.579-.085-.608-.608a1.881,1.881,0,0,0-.033-.419v-.212a.45.45,0,0,0-.038-.217,5.949,5.949,0,0,1-.113-.777,5.139,5.139,0,0,0-1.149-3,8.145,8.145,0,0,0-2.864-2.355,19.687,19.687,0,0,0-4.984-1.366,12.1,12.1,0,0,1-3-1.046,6.7,6.7,0,0,1-2.515-2.181,6.275,6.275,0,0,1-.862-1.856,8.788,8.788,0,0,1-.231-.97c-.024-.174-.047-.353-.061-.532a5,5,0,0,1,0-.532,5.6,5.6,0,0,1,1.036-2.921,8.507,8.507,0,0,1,2.129-2.1,7.763,7.763,0,0,1,4.395-1.578,5.064,5.064,0,0,1,1.116.122,2.3,2.3,0,0,1,1.31.758.89.89,0,0,1,.188.41,1.173,1.173,0,0,1-.047.438,1.971,1.971,0,0,1-.113.377c-.193.349-.791.339-1.413.217a5,5,0,0,0-2.826.344,6.68,6.68,0,0,0-2.563,1.743,4.141,4.141,0,0,0-1.017,1.884,2.671,2.671,0,0,0-.042.942,6,6,0,0,0,.292,1.145Z" transform="translate(-48.877)" fill="#7c809a"/>
    <path id="Path_360" data-name="Path 360" d="M198.736,139.829c.042.2-.024-.207,0,.066,0,.17.075-.226,0,0,.071-.151.09-.193.052-.132s0,.028.089-.113c-.071.066-.038.042.1-.075q-.127.071.127-.042c-.217.071.212,0,.057,0s.254.052.085,0,.16.09,0,0l-.085-.052c.122.1.155.122.1.075l-.057-.057c-.066-.071-.047-.047.052.075a.644.644,0,0,1-.061-.094c-.042-.089-.033-.066.028.075l-.057-.2c.057.221,0-.061,0-.132v.047c-.061.127-.066.146,0,.052s-.122.127-.155.146a.575.575,0,0,1-.546.028c-.09-.08-.094-.075,0,0a1.373,1.373,0,0,1,.132.151.966.966,0,0,0,1.366,0,1,1,0,0,0,0-1.366,1.649,1.649,0,0,0-1.291-.664,1.413,1.413,0,0,0-1.2.782,2.181,2.181,0,0,0,.353,2.44,1.766,1.766,0,0,0,1.809.509,1.642,1.642,0,0,0,.942-2.059.97.97,0,0,0-1.187-.674.985.985,0,0,0-.674,1.187Z" transform="translate(-64.639 -27.658)" fill="#7c809a"/>
    <g id="Group_59" data-name="Group 59" transform="translate(154.762 91.472)" opacity="0.3">
      <path id="Path_361" data-name="Path 361" d="M244.524,98.982c-.113-.221.089-.415.471-.57a.942.942,0,0,1,.561,0,2.324,2.324,0,0,1,.283.353c.033.071.273,1.22.386,1.6a6.3,6.3,0,0,1,.2,1.135c.09.777.217,1.55.339,2.322a2.463,2.463,0,0,1,.028.528,6.123,6.123,0,0,0,.217,1.781.579.579,0,0,0,.108.283,8.757,8.757,0,0,1,.471,1.931,14.709,14.709,0,0,0,.071,1.583c0,.075.047.146,0,.231a.52.52,0,0,0,0,.5,6.183,6.183,0,0,1,.09.669,1.414,1.414,0,0,1-.08.372c-.028.113-.259.141-.3.118s-.174.042-.259.08a.649.649,0,0,1-.094.038,4.037,4.037,0,0,1-.471-.575,4.336,4.336,0,0,1-.471-.707s-.174-.471-.353-.985-.344-1.013-.386-1.116a.942.942,0,0,1-.033-.349c0-.057-.471-1.559-.471-1.62a2.317,2.317,0,0,1-.061-.97.381.381,0,0,0,0-.193,12.088,12.088,0,0,1-.179-1.649,7.391,7.391,0,0,0-.113-.843.867.867,0,0,1,0-.155.9.9,0,0,0,0-.193c-.1-.664-.085-1.338-.207-2.007,0-.155.1-.9.075-1.083C244.322,99.406,244.567,99.072,244.524,98.982Z" transform="translate(-244.27 -98.369)" fill="#231f20"/>
    </g>
    <path id="Path_362" data-name="Path 362" d="M298.708,141.106c-.028.188-.254.17-.6.028a1.022,1.022,0,0,1-.377-.334,2.029,2.029,0,0,1-.028-.363c0-.066.405-.829.518-1.1a3.769,3.769,0,0,1,.438-.716c.33-.471.641-.942.942-1.413a1.634,1.634,0,0,1,.259-.283,4.022,4.022,0,0,0,.815-1.036.335.335,0,0,0,.075-.207,4.711,4.711,0,0,1,.806-1.229c.334-.24.626-.509.942-.758.047-.033.071-.09.155-.094a.429.429,0,0,0,.334-.193,3.337,3.337,0,0,1,.386-.334,1.136,1.136,0,0,1,.268-.1c.085-.028.2.108.2.141s.1.094.165.132a.226.226,0,0,1,.066.042,3.955,3.955,0,0,1-.1.532c-.057.269-.113.546-.137.594s-.042.089-.1.212-.141.287-.221.471c-.16.334-.33.678-.367.749a.57.57,0,0,1-.174.179c-.024.028-.537,1.013-.57,1.046-.146.179-.231.4-.471.509-.047,0-.066.061-.089.1a7.78,7.78,0,0,1-.749.942c-.132.155-.236.334-.358.495,0,.033-.061.047-.09.071a.406.406,0,0,0-.1.1c-.278.4-.626.735-.876,1.154-.057.1-.518.415-.584.528S298.717,141.035,298.708,141.106Z" transform="translate(-117.769 -25.195)" fill="#7c809a"/>
    <g id="Group_60" data-name="Group 60" transform="translate(101.473 122.369)" opacity="0.3">
      <path id="Path_363" data-name="Path 363" d="M131.269,164.859c-.184-.071-.151-.292,0-.6.047-.1.278-.306.349-.3a1.884,1.884,0,0,1,.372.066c.066,0,.848.631,1.126.834a4.536,4.536,0,0,1,.711.664l1.338,1.451a1.941,1.941,0,0,1,.25.358,5.45,5.45,0,0,0,.9,1.192.4.4,0,0,0,.2.155,5.3,5.3,0,0,1,1.083,1.258c.174.415.382.806.575,1.206.028.057.085.094.061.184-.047.2.057.292.127.405a2.985,2.985,0,0,1,.259.5.975.975,0,0,1,0,.334c0,.1-.226.217-.264.212-.113,0-.165.1-.24.174l-.085.066a5.8,5.8,0,0,1-1.107-.645l-.561-.6c-.287-.3-.584-.612-.655-.674a.688.688,0,0,1-.137-.245c0-.033-.886-.942-.909-.97a1.668,1.668,0,0,1-.386-.669.268.268,0,0,0-.08-.132,11.489,11.489,0,0,1-.768-1.079c-.122-.188-.283-.349-.419-.528a.415.415,0,0,1-.052-.113.636.636,0,0,0-.075-.137c-.349-.4-.631-.857-1.017-1.225-.089-.085-.353-.631-.471-.725S131.344,164.888,131.269,164.859Z" transform="translate(-131.143 -163.959)" fill="#231f20"/>
    </g>
    <path id="Path_364" data-name="Path 364" d="M128.837,320.019l-2.5-.575c-.306-.075-.612-.122-.942-.2-1.065-.273-2.129-.565-3.184-.862-.471-.127-.942-.245-1.413-.358a10.838,10.838,0,0,1-1.8-.5c-.358-.151.3-.716.994-.565,1.234.278,2.45.594,3.665.989.725.236,1.507.367,2.266.537l2.511.546,1.55.32c.787.151,1.573.32,2.355.471.612.1,1.22.165,1.828.259a2,2,0,0,1,.405.057c.471.1.636.2.678.471a.914.914,0,0,1,.028.188c0,.2-.24.311-.6.278a33.008,33.008,0,0,1-3.335-.523l-2.5-.513Z" transform="translate(-23.192 -122.506)" fill="#7c809a"/>
    <path id="Path_365" data-name="Path 365" d="M127.15,335.984l-1.211-.268c-.146-.028-.3-.047-.447-.08-.518-.113-1.041-.245-1.559-.377-.231-.057-.471-.108-.7-.155a3.076,3.076,0,0,1-.881-.269c-.17-.094.236-.5.546-.41.57.155,1.154.3,1.748.471.353.108.735.146,1.107.221l1.225.25.758.16,1.14.264c.3.066.594.108.89.179a.553.553,0,0,1,.193.047c.24.08.3.146.3.306v.1c0,.118-.151.17-.325.146-.518-.075-1.041-.188-1.578-.316l-1.206-.268Z" transform="translate(-25.001 -131.749)" fill="#7c809a"/>
  </g>
</svg>
