<svg id="Verified" xmlns="http://www.w3.org/2000/svg" width="62" height="62" viewBox="0 0 62 62">
  <rect id="Rectangle_7018" data-name="Rectangle 7018" width="62" height="62" rx="6" fill="#239d28" opacity="0.24"/>
  <path id="Verified-2" data-name="Verified" d="M170.859-862.407l7.734-7.673-2.227-2.209-5.508,5.464L168.672-869l-2.227,2.209ZM172.5-849a51.7,51.7,0,0,1-9.395-9.862Q160-863.415,160-867.29a11.939,11.939,0,0,1,3.77-9.261A12.541,12.541,0,0,1,172.5-880a12.541,12.541,0,0,1,8.73,3.449A11.939,11.939,0,0,1,185-867.29q0,3.875-3.1,8.428A51.7,51.7,0,0,1,172.5-849Z" transform="translate(-141 895)" fill="#239d28"/>
</svg>
