<svg id="All-Transactions" xmlns="http://www.w3.org/2000/svg" width="62" height="62" viewBox="0 0 62 62">
  <rect id="Rectangle_7018" data-name="Rectangle 7018" width="62" height="62" rx="6" fill="#016dd5" opacity="0.2"/>
  <path id="payments_24dp_E3E3E3_FILL1_wght400_GRAD0_opsz24" d="M43.928-768.572a3.783,3.783,0,0,1-2.774-1.154A3.783,3.783,0,0,1,40-772.5v-21.606h3.928V-772.5H77.32v3.928Zm7.857-7.857a3.783,3.783,0,0,1-2.774-1.154,3.783,3.783,0,0,1-1.154-2.774v-15.714a3.783,3.783,0,0,1,1.154-2.775A3.783,3.783,0,0,1,51.785-800h27.5a3.783,3.783,0,0,1,2.774,1.154,3.783,3.783,0,0,1,1.154,2.775v15.714a3.783,3.783,0,0,1-1.154,2.774,3.783,3.783,0,0,1-2.774,1.154Zm3.928-3.928a3.783,3.783,0,0,0-1.154-2.774,3.783,3.783,0,0,0-2.774-1.154v3.928Zm19.642,0h3.928v-3.928a3.783,3.783,0,0,0-2.774,1.154,3.783,3.783,0,0,0-1.153,2.773Zm-9.821-1.964a5.682,5.682,0,0,0,4.174-1.719,5.682,5.682,0,0,0,1.719-4.174,5.683,5.683,0,0,0-1.719-4.174,5.683,5.683,0,0,0-4.174-1.719,5.683,5.683,0,0,0-4.174,1.719,5.683,5.683,0,0,0-1.719,4.174,5.682,5.682,0,0,0,1.719,4.174,5.683,5.683,0,0,0,4.175,1.718Zm-13.75-9.821A3.783,3.783,0,0,0,54.56-793.3a3.783,3.783,0,0,0,1.154-2.774H51.785Zm27.5,0v-3.928H75.356a3.783,3.783,0,0,0,1.154,2.77,3.783,3.783,0,0,0,2.774,1.157Z" transform="translate(-31 815)" fill="#016dd5"/>
</svg>
