<svg xmlns="http://www.w3.org/2000/svg" width="79.922" height="79.922" viewBox="0 0 79.922 79.922">
  <g id="data-not-found" transform="translate(-10.039 -10.039)">
    <path id="Path_3189" data-name="Path 3189" d="M78.57,10.039H26.621A11.379,11.379,0,0,0,16.41,16.41a11.394,11.394,0,0,0-6.371,10.211V78.57A11.4,11.4,0,0,0,21.43,89.961H73.379A11.379,11.379,0,0,0,83.59,83.59a11.394,11.394,0,0,0,6.371-10.211V21.43A11.4,11.4,0,0,0,78.57,10.039Zm9.391,63.34a9.4,9.4,0,0,1-5.531,8.551,9.262,9.262,0,0,1-3.859.828l-51.949,0a9.4,9.4,0,0,1-9.391-9.391V21.43a10.248,10.248,0,0,1,.07-1.109,9.2,9.2,0,0,1,.77-2.75,9.4,9.4,0,0,1,8.551-5.531H78.57a9.4,9.4,0,0,1,9.391,9.391Z" fill="#dfdfe0"/>
    <path id="Path_3190" data-name="Path 3190" d="M75.1,60.328H74.063a1,1,0,0,0,0,2H75.1a1.5,1.5,0,0,1,1.059,2.559.443.443,0,0,1-.109.09.994.994,0,0,0,.59,1.8.961.961,0,0,0,.6-.2,4.461,4.461,0,0,0,.34-.289,3.505,3.505,0,0,0-2.488-5.969Z" fill="#dfdfe0"/>
    <path id="Path_3191" data-name="Path 3191" d="M54.441,65.328H30.1a1.5,1.5,0,0,1-1.059-2.559,1.517,1.517,0,0,1,1.059-.441H51.152a1,1,0,0,0,0-2H30.1a3.5,3.5,0,1,0,0,7h24.34a1,1,0,0,0,0-2Z" fill="#dfdfe0"/>
    <path id="Path_3192" data-name="Path 3192" d="M32.6,57.328h10a1,1,0,0,0,1-1V43.59a3.262,3.262,0,0,0-3.262-3.262H34.872A3.262,3.262,0,0,0,31.61,43.59V56.328a1,1,0,0,0,1,1Zm1-13.738a1.264,1.264,0,0,1,1.262-1.262h5.469a1.264,1.264,0,0,1,1.262,1.262V55.328h-8V43.59Z" fill="#a1cffc"/>
    <path id="Path_3193" data-name="Path 3193" d="M47.6,57.328h2.941a1,1,0,0,0,0-2H48.6V28.59a1.269,1.269,0,0,1,1.262-1.262h5.469A1.27,1.27,0,0,1,56.6,28.59v17.8a1,1,0,0,0,2,0V28.59a3.269,3.269,0,0,0-3.27-3.262H49.864A3.262,3.262,0,0,0,46.6,28.59V56.328A1,1,0,0,0,47.6,57.328Z" fill="#a1cffc"/>
    <path id="Path_3194" data-name="Path 3194" d="M62.6,46.289a1,1,0,0,0,1-1v-6.7a1.269,1.269,0,0,1,1.262-1.262h5.469A1.27,1.27,0,0,1,71.6,38.59V50.57a1,1,0,0,0,2,0V38.59a3.269,3.269,0,0,0-3.27-3.262H64.864A3.262,3.262,0,0,0,61.6,38.59v6.7A1,1,0,0,0,62.6,46.289Z" fill="#a1cffc"/>
    <path id="Path_3195" data-name="Path 3195" d="M70.469,62.441c-.059-.059-.129-.1-.191-.16.1-.16.211-.309.309-.48a9.166,9.166,0,0,0,1.129-4.4,4.28,4.28,0,0,0-.02-.5c-.012-.238-.039-.48-.07-.691a7.156,7.156,0,0,0-.16-.91,9.1,9.1,0,0,0-17.781.2,4.748,4.748,0,0,0-.1.641,7.88,7.88,0,0,0-.09,1.25,2.258,2.258,0,0,0,.012.281,8.251,8.251,0,0,0,.211,1.7,8.407,8.407,0,0,0,.922,2.41A9.09,9.09,0,0,0,67.5,65.062c.051.059.09.129.148.191l5.672,5.672a2,2,0,1,0,2.82-2.828l-5.672-5.672Zm-14.09-1.609a6.451,6.451,0,0,1-.711-1.879,6.214,6.214,0,0,1-.16-1.328v-.2a5.475,5.475,0,0,1,.078-.988c.02-.172.051-.34.078-.5a7.107,7.107,0,0,1,13.519-1.242,8.307,8.307,0,0,1,.359,1.078,6.231,6.231,0,0,1,.121.711,4.9,4.9,0,0,1,.051.578c0,.121.02.23.02.359a7.107,7.107,0,0,1-13.34,3.422Z" fill="#dfdfe0"/>
  </g>
</svg>
