<svg id="Refunds" xmlns="http://www.w3.org/2000/svg" width="62" height="62" viewBox="0 0 62 62">
  <rect id="Rectangle_7018" data-name="Rectangle 7018" width="62" height="62" rx="6" fill="#239d28" opacity="0.2"/>
  <path id="Path_102755" data-name="Path 102755" d="M30.837,17.457H8.379c-2.323.011-4.2,2.558-4.211,5.7v18.3c.007,3.147,1.888,5.694,4.211,5.7H30.837c2.323-.011,4.2-2.558,4.211-5.7v-18.3C35.042,20.015,33.16,17.467,30.837,17.457Zm1.4,24h0a2.285,2.285,0,0,1-.411,1.344,1.251,1.251,0,0,1-.994.556H8.379c-.775,0-1.4-.85-1.4-1.9V29.038H32.241Z" transform="translate(11.391 -1.31)" fill="#239d28"/>
  <path id="Path_102756" data-name="Path 102756" d="M65.234,57.614a3.185,3.185,0,1,0-2.258-.933,3.182,3.182,0,0,0,2.258.933Z" transform="translate(-27.986 -17.68)" fill="#239d28"/>
</svg>
