<svg id="Refunds" xmlns="http://www.w3.org/2000/svg" width="62" height="62" viewBox="0 0 62 62">
  <rect id="Rectangle_7018" data-name="Rectangle 7018" width="62" height="62" rx="6" fill="#f44335" opacity="0.2"/>
  <path id="Proof_uploaded" data-name="Proof uploaded" d="M170.938-861.4h3.125v-4.65h4.688v-3.1h-4.687v-4.65h-3.125v4.65H166.25v3.1h4.688ZM172.5-849a51.7,51.7,0,0,1-9.395-9.862Q160-863.415,160-867.29a11.939,11.939,0,0,1,3.77-9.261A12.541,12.541,0,0,1,172.5-880a12.541,12.541,0,0,1,8.73,3.449A11.939,11.939,0,0,1,185-867.29q0,3.875-3.1,8.428A51.7,51.7,0,0,1,172.5-849Z" transform="translate(-141.988 895)" fill="#f44335"/>
</svg>
