<svg xmlns="http://www.w3.org/2000/svg" width="62" height="62" viewBox="0 0 62 62">
  <g id="Refunds" transform="translate(-1443 -261)">
    <rect id="Rectangle_7018" data-name="Rectangle 7018" width="62" height="62" rx="6" transform="translate(1443 261)" fill="#fb8c00" opacity="0.24"/>
    <g id="Group_41683" data-name="Group 41683" transform="translate(1456 277)">
      <path id="credit_card_gear_24dp_E3E3E3_FILL1_wght400_GRAD0_opsz24" d="M83.681-770.552a3.545,3.545,0,0,1-2.6-1.081,3.545,3.545,0,0,1-1.081-2.6v-22.086a3.545,3.545,0,0,1,1.081-2.6,3.545,3.545,0,0,1,2.6-1.081h29.448a3.545,3.545,0,0,1,2.6,1.081,3.545,3.545,0,0,1,1.081,2.6v9.8a12.624,12.624,0,0,0-1.749-1.058,13.386,13.386,0,0,0-1.933-.782v-4.279H83.681v7.362h16.565a12.892,12.892,0,0,0-2.83,4.118,12.559,12.559,0,0,0-1.035,5.084A12.815,12.815,0,0,0,96.7-773.2a12.547,12.547,0,0,0,.92,2.646Z" transform="translate(-80 800)" fill="#fb8c00"/>
      <path id="Path_101021" data-name="Path 101021" d="M56.516,58.016a.29.29,0,0,0,.208-.087.31.31,0,0,0,.087-.225c-.261-10.363-5.634-12.538-10.1-12.538a.459.459,0,0,1-.459-.459v-.973h0a.4.4,0,0,0-.234-.368.383.383,0,0,0-.421.06L41.806,46.7a.4.4,0,0,0,0,.608L45.6,50.577h0a.383.383,0,0,0,.419.058.4.4,0,0,0,.236-.367V49.3a.459.459,0,0,1,.458-.459c6.945,0,9.041,6.857,9.52,8.958a.288.288,0,0,0,.282.222Z" transform="translate(-20 -28.605)" fill="#fb8c00" stroke="#fb8c00" stroke-width="0.8"/>
    </g>
  </g>
</svg>
