<svg id="Refunds" xmlns="http://www.w3.org/2000/svg" width="62" height="62" viewBox="0 0 62 62">
  <rect id="Rectangle_7018" data-name="Rectangle 7018" width="62" height="62" rx="6" fill="#016dd5" opacity="0.2"/>
  <path id="for_you_24dp_E8EAED_FILL1_wght300_GRAD0_opsz24" d="M188.054-840.93a37.966,37.966,0,0,0,6.626-.606,31.814,31.814,0,0,0,6.038-1.633v15.222a27.8,27.8,0,0,1-5.878,1.713,36.366,36.366,0,0,1-6.786.654,36.366,36.366,0,0,1-6.786-.654,27.8,27.8,0,0,1-5.878-1.713v-15.222a31.819,31.819,0,0,0,6.038,1.633,37.967,37.967,0,0,0,6.626.606Zm0-15.99a5.79,5.79,0,0,1,4.246,1.766,5.789,5.789,0,0,1,1.766,4.246,5.789,5.789,0,0,1-1.766,4.246,5.789,5.789,0,0,1-4.246,1.766,5.789,5.789,0,0,1-4.246-1.766,5.789,5.789,0,0,1-1.766-4.246,5.789,5.789,0,0,1,1.766-4.246,5.789,5.789,0,0,1,4.246-1.766Z" transform="translate(-157.39 871.921)" fill="#016dd5"/>
</svg>
