<svg id="visa" xmlns="http://www.w3.org/2000/svg" width="34.234" height="21.821" viewBox="0 0 34.234 21.821">
  <path id="Path_100891" data-name="Path 100891" d="M0,20.737V1.08C.2.239.5,0,1.373,0Q17.116,0,32.86,0a1.786,1.786,0,0,1,.626.07,1.119,1.119,0,0,1,.747,1.009V20.736c-.2.841-.5,1.08-1.373,1.081q-15.743,0-31.487,0a1.786,1.786,0,0,1-.626-.07A1.121,1.121,0,0,1,0,20.737Z" transform="translate(0 0.002)" fill="#21246e"/>
  <path id="Path_100892" data-name="Path 100892" d="M254.279,80.452a.543.543,0,0,1,.091-.337q1.651-3.95,3.3-7.9a1.14,1.14,0,0,1,1.271-.855c.523,0,1.047.005,1.57,0,.166,0,.259.027.3.215q.891,4.31,1.8,8.615c.04.192.023.276-.211.268-.567-.019-1.136-.014-1.7,0-.173,0-.233-.063-.261-.215-.057-.306-.13-.609-.183-.916-.029-.169-.1-.235-.28-.234-.857.011-1.715.008-2.572,0-.153,0-.26.029-.287.2a.452.452,0,0,1-.036.093c-.142.347-.145.837-.429,1.014-.268.166-.712.049-1.078.052-.431,0-.862,0-1.292,0Z" transform="translate(-231.598 -64.994)" fill="#fefefe"/>
  <path id="Path_100893" data-name="Path 100893" d="M28.44,77.429c.776-1.962,1.544-3.893,2.3-5.827a.359.359,0,0,1,.4-.285c.709.019,1.42.006,2.178.006-.109.261-.2.484-.293.706q-1.7,4.058-3.4,8.119a.363.363,0,0,1-.41.271q-.935-.025-1.872,0c-.235.006-.343-.051-.406-.3-.574-2.274-1.176-4.541-1.741-6.817a1.459,1.459,0,0,0-.97-1.12,14.312,14.312,0,0,0-1.716-.536c-.093-.022-.235,0-.211-.186s.144-.136.246-.136c1.248,0,2.5-.005,3.744,0a1.065,1.065,0,0,1,1.117.944c.318,1.615.617,3.234.923,4.851a.587.587,0,0,0,.105.308Z" transform="translate(-20.313 -64.956)" fill="#fefefe"/>
  <path id="Path_100894" data-name="Path 100894" d="M185.334,69.615a6.29,6.29,0,0,1,1.744.3c.212.063.246.162.2.358-.105.443-.206.889-.284,1.338-.045.252-.109.318-.377.211a3.833,3.833,0,0,0-2.189-.26,1.326,1.326,0,0,0-.465.177.6.6,0,0,0-.067,1.069,7.369,7.369,0,0,0,1.059.63c.26.149.526.292.773.461a2.506,2.506,0,0,1,.408,3.921,3.953,3.953,0,0,1-2.5,1.125,7.4,7.4,0,0,1-3.2-.326c-.192-.062-.258-.133-.2-.355.126-.473.218-.954.3-1.436.043-.244.109-.3.353-.184a4.347,4.347,0,0,0,2.531.412,1.506,1.506,0,0,0,.68-.257.688.688,0,0,0,.083-1.117,3.427,3.427,0,0,0-.87-.552,7.922,7.922,0,0,1-1.12-.658,2.4,2.4,0,0,1-.1-3.878,4.755,4.755,0,0,1,3.24-.985Z" transform="translate(-164.145 -63.407)" fill="#fefefe"/>
  <path id="Path_100895" data-name="Path 100895" d="M140.028,71.342c-.459,2.146-.911,4.253-1.361,6.36-.169.793-.35,1.584-.5,2.381-.053.279-.161.371-.449.358-.566-.026-1.135-.016-1.7,0-.218.005-.285-.036-.234-.273q.928-4.266,1.833-8.537c.045-.216.11-.3.337-.29.678.015,1.356.005,2.077.005Z" transform="translate(-123.657 -64.975)" fill="#fefefe"/>
  <path id="Path_100896" data-name="Path 100896" d="M294.5,103.6c.4-1.118.8-2.206,1.194-3.294l.066,0q.243,1.156.488,2.311c.054.26.1.524.161.783.034.136.033.2-.137.2C295.7,103.6,295.119,103.6,294.5,103.6Z" transform="translate(-268.237 -91.364)" fill="#21246e"/>
</svg>
