<svg xmlns="http://www.w3.org/2000/svg" width="30" height="30" viewBox="0 0 30 30">
  <g id="Group_18" data-name="Group 18" transform="translate(-1 -1)">
    <g id="Group_17" data-name="Group 17">
      <g id="Group_16" data-name="Group 16">
        <g id="Group_15" data-name="Group 15">
          <g id="Group_12" data-name="Group 12" transform="translate(0.999 0.999)">
            <g id="Group_13" data-name="Group 13" transform="translate(0.001 0.001)">
              <path id="Path_97" data-name="Path 97" d="M15,0A15,15,0,1,1,0,15,15,15,0,0,1,15,0" transform="translate(0 0)" fill="#fff"/>
              <path id="Path_98" data-name="Path 98" d="M15,.545a14.45,14.45,0,1,0,5.626,1.136A14.459,14.459,0,0,0,15,.545M15,0A15,15,0,1,1,0,15,15,15,0,0,1,15,0" transform="translate(0 0)" fill="#036dd5"/>
            </g>
          </g>
        </g>
      </g>
    </g>
    <path id="Male_Artists" data-name="Male Artists" d="M22.967,94.405a3.106,3.106,0,0,1,.546,1.808,3.215,3.215,0,0,1-.219,1.2l-.959,3.847h1.978V80.947H10.977L3.324,93.5H7.76v4.976h5.316v2.785H18.27l-.953-3.826a3.174,3.174,0,0,1-.224-1.214,3.106,3.106,0,0,1,.546-1.808h5.328ZM23,91.329a4.054,4.054,0,0,1-.291.382H18.021a2.978,2.978,0,0,1-.291-.261A3.967,3.967,0,0,1,16.5,88.775a3.523,3.523,0,0,1,.892-2.684,3.23,3.23,0,0,1,2.5-1.1,3.317,3.317,0,0,1,.431.025,3.4,3.4,0,0,0-.777,2.045A3.674,3.674,0,0,1,20.192,87a3.283,3.283,0,0,1,2.281.849A2.734,2.734,0,0,1,23,91.325Zm-.073.989V93.8H17.639v-1.48ZM10.537,86.826a1.037,1.037,0,0,1,1.032,1.031.98.98,0,0,1-.3.722.994.994,0,0,1-.728.3,1.036,1.036,0,0,1-1.028-1.028.994.994,0,0,1,.3-.728.981.981,0,0,1,.722-.3Z" transform="translate(0.557 -75.102)" fill="#026dd5"/>
  </g>
</svg>
