<svg xmlns="http://www.w3.org/2000/svg" width="30" height="30" viewBox="0 0 30 30">
  <g id="Group_19" data-name="Group 19" transform="translate(-1 -1)">
    <g id="Group_18" data-name="Group 18">
      <g id="Group_17" data-name="Group 17">
        <g id="Group_16" data-name="Group 16">
          <g id="Group_15" data-name="Group 15">
            <g id="Group_12" data-name="Group 12" transform="translate(0.999 0.999)">
              <g id="Group_13" data-name="Group 13" transform="translate(0.001 0.001)">
                <path id="Path_97" data-name="Path 97" d="M15,0A15,15,0,1,1,0,15,15,15,0,0,1,15,0" transform="translate(0 0)" fill="#fff"/>
                <path id="Path_98" data-name="Path 98" d="M15,.545a14.45,14.45,0,1,0,5.626,1.136A14.459,14.459,0,0,0,15,.545M15,0A15,15,0,1,1,0,15,15,15,0,0,1,15,0" transform="translate(0 0)" fill="#036dd5"/>
              </g>
            </g>
          </g>
        </g>
      </g>
    </g>
    <g id="First_time_voters" data-name="First time  voters" transform="translate(8.473 4)">
      <path id="Path_28430" data-name="Path 28430" d="M33.2,48.921a.5.5,0,0,0-.484-.361H20.976a.5.5,0,0,0-.482.361L19.32,52.936v7.025a.25.25,0,0,0,.25.25H34.123a.25.25,0,0,0,.25-.25V52.936h0Zm-2.339,2.133H22.832a.376.376,0,0,1,0-.751h8.029a.376.376,0,0,1,0,.751Z" transform="translate(-19.32 -37.617)" fill="#026dd5"/>
      <rect id="Rectangle_6720" data-name="Rectangle 6720" width="1.004" height="1.004" rx="0.5" transform="translate(4.921 5.53) rotate(-19.993)" fill="#026dd5"/>
      <path id="Path_28432" data-name="Path 28432" d="M37.354,8.471a.25.25,0,0,0-.14-.13L32.773,6.725a.25.25,0,0,0-.321.15L31.569,9.3l-1.53-4.188a.25.25,0,0,0-.321-.158L25.276,6.582a.25.25,0,0,0-.15.321l2.426,6.664a.25.25,0,0,0,.321.15l2.406-.877-.25.7a.25.25,0,0,0,.15.321l4.439,1.616a.25.25,0,0,0,.321-.15l2.426-6.664a.25.25,0,0,0-.01-.2ZM27.936,13.16,25.681,6.966l3.969-1.44,1.643,4.516L30.5,12.235Zm6.616,1.753L30.58,13.486,32.839,7.3,36.8,8.721Z" transform="translate(-23.658 -4.944)" fill="#026dd5"/>
      <rect id="Rectangle_6721" data-name="Rectangle 6721" width="0.946" height="0.946" rx="0.47" transform="translate(9.025 7.555) rotate(-70.007)" fill="#026dd5"/>
    </g>
  </g>
</svg>
