<svg xmlns="http://www.w3.org/2000/svg" width="30" height="30" viewBox="0 0 30 30">
  <g id="Group_20" data-name="Group 20" transform="translate(-1 -1)">
    <g id="Group_19" data-name="Group 19">
      <g id="Group_18" data-name="Group 18">
        <g id="Group_17" data-name="Group 17">
          <g id="Group_16" data-name="Group 16">
            <g id="Group_15" data-name="Group 15">
              <g id="Group_12" data-name="Group 12" transform="translate(0.999 0.999)">
                <g id="Group_13" data-name="Group 13" transform="translate(0.001 0.001)">
                  <path id="Path_97" data-name="Path 97" d="M15,0A15,15,0,1,1,0,15,15,15,0,0,1,15,0" transform="translate(0 0)" fill="#fff"/>
                  <path id="Path_98" data-name="Path 98" d="M15,.545a14.45,14.45,0,1,0,5.626,1.136A14.459,14.459,0,0,0,15,.545M15,0A15,15,0,1,1,0,15,15,15,0,0,1,15,0" transform="translate(0 0)" fill="#036dd5"/>
                </g>
              </g>
            </g>
          </g>
        </g>
      </g>
    </g>
    <g id="gym" transform="translate(4 3.25)">
      <path id="Path_28269" data-name="Path 28269" d="M74.733,72.7l-.334.112-1.2.444V76.88h1.505V72.7Z" transform="translate(-54.729 -55.834)" fill="#026dd5"/>
      <path id="Path_28270" data-name="Path 28270" d="M28.412,72.148,38.95,68.3h0l.195-.056,2.871-1.06a.226.226,0,0,0,.139-.308l-.195-.613a.229.229,0,0,0-.139-.139c-.028-.028-.056-.028-.112-.028a.1.1,0,0,0-.084.028l-2.509.922L26.237,71.73a.216.216,0,0,0,.084.418Z" transform="translate(-20.758 -51.072)" fill="#026dd5"/>
      <path id="Path_28271" data-name="Path 28271" d="M7.136,70.838a2.883,2.883,0,1,1,2.588,1.893,2.885,2.885,0,0,1-2.588-1.893Z" transform="translate(-6.954 -51.686)" fill="#026dd5"/>
      <path id="Path_28272" data-name="Path 28272" d="M35.932,58.423a1.419,1.419,0,0,1-2.454,1.059,1.363,1.363,0,0,1-.391-1.059l.334-4.823a5.852,5.852,0,0,0,2.2,0l.195,3.011h0Z" transform="translate(-25.798 -42.059)" fill="#026dd5"/>
      <path id="Path_28273" data-name="Path 28273" d="M45.35,54.812a2.132,2.132,0,0,0-1.533-.334L32.3,57.433c.112,1.727.112,1.645.112,1.756a1.753,1.753,0,0,1-.53,1.172,1.7,1.7,0,0,1-2.871-1.338l.056-.753-.223.056a1.344,1.344,0,0,0-.948,1.756l.391,1.087a1.325,1.325,0,0,0,1.7.808l12.88-4.684a.626.626,0,0,1,.837.585l.139,4.936a.925.925,0,0,0,.92.892h0a.9.9,0,0,0,.92-.892l.308-6.58a1.757,1.757,0,0,0-.643-1.423Z" transform="translate(-22 -42.685)" fill="#026dd5"/>
      <path id="Path_28274" data-name="Path 28274" d="M27.34,13.732A5.578,5.578,0,0,0,23.464,12.2a2.11,2.11,0,0,0-.418.028,5.683,5.683,0,0,0-.195,11.319,4.318,4.318,0,0,0,.613.028,5.681,5.681,0,0,0,3.875-9.841Zm-2.481,4.4a1.454,1.454,0,0,1-1.172,1.172h0c-.084,0-.167.028-.251.028a1.415,1.415,0,0,1-1-.418,1.388,1.388,0,0,1-.391-1.254,1.454,1.454,0,0,1,1.172-1.172,1.412,1.412,0,0,1,1.645,1.645Z" transform="translate(-14.751 -12.2)" fill="#026dd5"/>
    </g>
  </g>
</svg>
