<svg xmlns="http://www.w3.org/2000/svg" width="30" height="30" viewBox="0 0 30 30">
  <g id="Group_21" data-name="Group 21" transform="translate(-1 -1)">
    <g id="Group_20" data-name="Group 20">
      <g id="Group_19" data-name="Group 19">
        <g id="Group_18" data-name="Group 18">
          <g id="Group_17" data-name="Group 17">
            <g id="Group_16" data-name="Group 16">
              <g id="Group_15" data-name="Group 15">
                <g id="Group_12" data-name="Group 12" transform="translate(0.999 0.999)">
                  <g id="Group_13" data-name="Group 13" transform="translate(0.001 0.001)">
                    <path id="Path_97" data-name="Path 97" d="M15,0A15,15,0,1,1,0,15,15,15,0,0,1,15,0" transform="translate(0 0)" fill="#fff"/>
                    <path id="Path_98" data-name="Path 98" d="M15,.545a14.45,14.45,0,1,0,5.626,1.136A14.459,14.459,0,0,0,15,.545M15,0A15,15,0,1,1,0,15,15,15,0,0,1,15,0" transform="translate(0 0)" fill="#036dd5"/>
                  </g>
                </g>
              </g>
            </g>
          </g>
        </g>
      </g>
    </g>
    <g id="Infrequent_voters" data-name="Infrequent voters" transform="translate(7.795 4.612)">
      <path id="Path_28464" data-name="Path 28464" d="M20.505,11.137a.933.933,0,0,1,.82-.474h3.041l2.8-3.862a1.967,1.967,0,0,1,.134-.151,1.335,1.335,0,0,1,.988-.4,1.3,1.3,0,0,1,.962.4l.214.2V1.019H17.041V14.07h3.222L17.826,22.89a.576.576,0,0,0,.438.706.635.635,0,0,0,.155.019.608.608,0,0,0,.592-.433l2.516-9.108h3.459L27.5,23.182a.607.607,0,0,0,.592.433.639.639,0,0,0,.155-.019.576.576,0,0,0,.438-.706l-2.438-8.816h3.222V12.1l-2.3-2.191L25.62,12.036a.945.945,0,0,1-.766.378H21.325a.9.9,0,0,1-.929-.877.819.819,0,0,1,.061-.3l-.442.913a.317.317,0,0,1-.41.144.286.286,0,0,1-.153-.387L20.9,8.916a.319.319,0,0,1,.405-.133.286.286,0,0,1,.158.376Zm3.108-6.291a1.878,1.878,0,0,1,2.216-1.37,1.777,1.777,0,0,1,1.459,2.088,1.876,1.876,0,0,1-2.206,1.385,1.786,1.786,0,0,1-1.469-2.1Z" transform="translate(-17.041 -1.019)" fill="#026dd5"/>
      <path id="Path_28465" data-name="Path 28465" d="M72.226,30.386l-4.372-4.11v5.248L69.4,33V41.68a1.34,1.34,0,0,0,.452,1.028,1.574,1.574,0,0,0,1.1.417,1.54,1.54,0,0,0,1.074-.412,1.34,1.34,0,0,0,.451-1.028V30.973A.778.778,0,0,0,72.226,30.386Z" transform="translate(-55.429 -20.445)" fill="#026dd5"/>
    </g>
  </g>
</svg>
