<svg xmlns="http://www.w3.org/2000/svg" width="30" height="30" viewBox="0 0 30 30">
  <g id="Group_22" data-name="Group 22" transform="translate(-1 -1)">
    <g id="Group_16" data-name="Group 16">
      <g id="Group_15" data-name="Group 15">
        <g id="Group_12" data-name="Group 12" transform="translate(0.999 0.999)">
          <g id="Group_13" data-name="Group 13" transform="translate(0.001 0.001)">
            <path id="Path_97" data-name="Path 97" d="M15,0A15,15,0,1,1,0,15,15,15,0,0,1,15,0" transform="translate(0 0)" fill="#fff"/>
            <path id="Path_98" data-name="Path 98" d="M15,.545a14.45,14.45,0,1,0,5.626,1.136A14.459,14.459,0,0,0,15,.545M15,0A15,15,0,1,1,0,15,15,15,0,0,1,15,0" transform="translate(0 0)" fill="#036dd5"/>
          </g>
        </g>
      </g>
    </g>
    <g id="Male_Adults" data-name="Male Adults" transform="translate(7.928 3.357)">
      <path id="Path_28433" data-name="Path 28433" d="M34.885,43.7H25.227a3.231,3.231,0,0,0-2.759,4.926l4.814,7.939a3.242,3.242,0,0,0,5.546,0l4.814-7.939A3.231,3.231,0,0,0,34.885,43.7Z" transform="translate(-21.983 -32.84)" fill="#036dd5"/>
      <path id="Path_28434" data-name="Path 28434" d="M41.269,13.2l.9-.873a3.925,3.925,0,0,0,.592-4.9h0a4.926,4.926,0,0,0-8.389.084h0a3.915,3.915,0,0,0,.563,4.758l.844.844a3.875,3.875,0,0,0,5.489.085Z" transform="translate(-30.48 -5.124)" fill="#036dd5"/>
    </g>
  </g>
</svg>
