<svg xmlns="http://www.w3.org/2000/svg" width="30" height="30" viewBox="0 0 30 30">
  <g id="middle-class" transform="translate(-1 -1)">
    <g id="Group_23" data-name="Group 23">
      <g id="Group_22" data-name="Group 22">
        <g id="Group_16" data-name="Group 16">
          <g id="Group_15" data-name="Group 15">
            <g id="Group_12" data-name="Group 12" transform="translate(0.999 0.999)">
              <g id="Group_13" data-name="Group 13" transform="translate(0.001 0.001)">
                <path id="Path_97" data-name="Path 97" d="M15,0A15,15,0,1,1,0,15,15,15,0,0,1,15,0" transform="translate(0 0)" fill="#fff"/>
                <path id="Path_98" data-name="Path 98" d="M15,.545a14.45,14.45,0,1,0,5.626,1.136A14.459,14.459,0,0,0,15,.545M15,0A15,15,0,1,1,0,15,15,15,0,0,1,15,0" transform="translate(0 0)" fill="#036dd5"/>
              </g>
            </g>
          </g>
        </g>
      </g>
    </g>
    <g id="middle-class-2" data-name="middle-class" transform="translate(3.533 4.817)">
      <path id="Path_28454" data-name="Path 28454" d="M75.381,12.2a1.49,1.49,0,1,0-1.49-1.49A1.49,1.49,0,0,0,75.381,12.2Z" transform="translate(-56.054 -9.22)" fill="#026dd5"/>
      <path id="Path_28455" data-name="Path 28455" d="M69.193,25.915a2.737,2.737,0,0,0-2.732-2.735H65a2.73,2.73,0,0,0-2.132,1,1.106,1.106,0,0,0-1.38.147l-.416.429a1.1,1.1,0,0,0,0,1.572,1.139,1.139,0,0,0,.165.136l.015.015,1.129.951.38,4.841a.542.542,0,0,0,.54.495h4.844a.542.542,0,0,0,.54-.495l.453-5.763a.388.388,0,0,0,0-.055A2.925,2.925,0,0,0,69.193,25.915Z" transform="translate(-46.351 -19.523)" fill="#026dd5"/>
      <path id="Path_28456" data-name="Path 28456" d="M77.04,62H75.206a.348.348,0,0,0-.348.371l.495,7.838a.354.354,0,0,0,.354.33h.838a.351.351,0,0,0,.348-.33l.495-7.838A.348.348,0,0,0,77.04,62Z" transform="translate(-56.767 -48.174)" fill="#026dd5"/>
      <path id="Path_28457" data-name="Path 28457" d="M24.476,70.59H23.132a.262.262,0,0,0-.262.262l.364,5.763a.262.262,0,0,0,.262.244h.619a.262.262,0,0,0,.262-.244l.364-5.763a.262.262,0,0,0-.265-.262Z" transform="translate(-18.399 -54.513)" fill="#026dd5"/>
      <path id="Path_28458" data-name="Path 28458" d="M22.243,14.263a1.49,1.49,0,1,0-1.493-1.485A1.49,1.49,0,0,0,22.243,14.263Z" transform="translate(-16.834 -10.741)" fill="#026dd5"/>
      <path id="Path_28459" data-name="Path 28459" d="M13.286,28.026h0a.856.856,0,0,1-.548-.707V25.06a1.533,1.533,0,1,0-3.062,0v2.227a.854.854,0,0,1-.557.736h0A4.613,4.613,0,0,0,5.8,32.456s0,.015,0,.024V34.75a.356.356,0,0,0,.356.356h10.1a.356.356,0,0,0,.356-.356V32.437h0A4.618,4.618,0,0,0,13.286,28.026Z" transform="translate(-5.8 -19.732)" fill="#026dd5"/>
      <path id="Path_28460" data-name="Path 28460" d="M57.389,81.74h-.723a.139.139,0,0,0-.136.147l.194,3.089a.139.139,0,0,0,.139.131h.33a.139.139,0,0,0,.139-.131l.194-3.089a.139.139,0,0,0-.136-.147Z" transform="translate(-43.241 -62.743)" fill="#026dd5"/>
      <path id="Path_28461" data-name="Path 28461" d="M55.434,49.8a1.066,1.066,0,1,0-1.064-1.066A1.066,1.066,0,0,0,55.434,49.8Z" transform="translate(-41.647 -37.598)" fill="#026dd5"/>
      <path id="Path_28462" data-name="Path 28462" d="M51.388,59.057h0a.456.456,0,0,1-.293-.38V57.47a.82.82,0,1,0-1.64,0v1.191a.461.461,0,0,1-.3.4h0a2.475,2.475,0,0,0-1.779,2.373v1.226a.191.191,0,0,0,.191.191h5.407a.191.191,0,0,0,.191-.191V61.418h0a2.475,2.475,0,0,0-1.782-2.36Z" transform="translate(-36.488 -44.225)" fill="#026dd5"/>
      <path id="Path_28463" data-name="Path 28463" d="M57,24.256a.883.883,0,1,0-.883-.883.883.883,0,0,0,.883.883Z" transform="translate(-42.938 -19.014)" fill="#026dd5"/>
    </g>
  </g>
</svg>
