<svg xmlns="http://www.w3.org/2000/svg" width="30" height="30" viewBox="0 0 30 30">
  <g id="Movie_enthusiasts" data-name="Movie enthusiasts" transform="translate(-1 -1)">
    <g id="middle-class">
      <g id="Group_23" data-name="Group 23">
        <g id="Group_22" data-name="Group 22">
          <g id="Group_16" data-name="Group 16">
            <g id="Group_15" data-name="Group 15">
              <g id="Group_12" data-name="Group 12" transform="translate(0.999 0.999)">
                <g id="Group_13" data-name="Group 13" transform="translate(0.001 0.001)">
                  <path id="Path_97" data-name="Path 97" d="M15,0A15,15,0,1,1,0,15,15,15,0,0,1,15,0" transform="translate(0 0)" fill="#fff"/>
                  <path id="Path_98" data-name="Path 98" d="M15,.545a14.45,14.45,0,1,0,5.626,1.136A14.459,14.459,0,0,0,15,.545M15,0A15,15,0,1,1,0,15,15,15,0,0,1,15,0" transform="translate(0 0)" fill="#036dd5"/>
                </g>
              </g>
            </g>
          </g>
        </g>
      </g>
    </g>
    <g id="Movie_enthusiasts-2" data-name="Movie enthusiasts" transform="translate(5.098 5.098)">
      <path id="Path_28287" data-name="Path 28287" d="M19.721,16.542,25.4,17.564a24.887,24.887,0,0,0-.744-7.3L24.579,10,10,12.626l.024.269a25.951,25.951,0,0,0,1.447,6.146c1.491,3.994,3.793,6.552,6.675,7.436a18.235,18.235,0,0,1-.222-2.346c-.022-.712-.007-1.4.032-2.057a3.177,3.177,0,0,0-.728.8l-.75-.471a4.114,4.114,0,0,1,1.567-1.44,24.747,24.747,0,0,1,.668-3.789l.217-.776Zm1.232-3.027a1.787,1.787,0,0,1,1.322.274,1.707,1.707,0,0,1,.737,1.12l-.872.157a.828.828,0,0,0-.355-.541.906.906,0,0,0-.672-.137.875.875,0,0,0-.728,1l-.872.157a1.761,1.761,0,0,1,1.44-2.027ZM15.789,16.21a.828.828,0,0,0-.359-.543.924.924,0,0,0-1.252.225.828.828,0,0,0-.147.634l-.872.157a1.707,1.707,0,0,1,.3-1.309,1.81,1.81,0,0,1,2.467-.444,1.707,1.707,0,0,1,.737,1.121Z" transform="translate(-10 -10)" fill="#026dd5"/>
      <path id="Path_28288" data-name="Path 28288" d="M44.878,51.327c8.642-.816,9.72-13.677,9.72-13.677l-14.067-2.53S37.06,47.55,44.878,51.327Zm4.094-11.618a1.792,1.792,0,0,1,1.323-.274,1.761,1.761,0,0,1,1.44,2.026l-.872-.157a.875.875,0,0,0-.728-1,.908.908,0,0,0-.672.137.828.828,0,0,0-.359.543l-.872-.157a1.707,1.707,0,0,1,.739-1.121Zm-.9,7.163.655.6a3.618,3.618,0,0,1-2.688,1.182,3.8,3.8,0,0,1-.672-.06,3.641,3.641,0,0,1-2.758-2.222l.822-.331a2.807,2.807,0,0,0,4.642.835Zm-5.454-8.305a1.789,1.789,0,0,1,1.322-.274,1.761,1.761,0,0,1,1.444,2.026l-.872-.157a.875.875,0,0,0-.728-.994.909.909,0,0,0-.672.137.828.828,0,0,0-.359.543l-.875-.157a1.707,1.707,0,0,1,.739-1.123Z" transform="translate(-30.975 -27.703)" fill="#026dd5"/>
    </g>
  </g>
</svg>
