<svg xmlns="http://www.w3.org/2000/svg" width="30" height="30" viewBox="0 0 30 30">
  <g id="Group_24" data-name="Group 24" transform="translate(-1 -1)">
    <g id="Group_12" data-name="Group 12" transform="translate(0.999 0.999)">
      <g id="Group_13" data-name="Group 13" transform="translate(0.001 0.001)">
        <path id="Path_97" data-name="Path 97" d="M15,0A15,15,0,1,1,0,15,15,15,0,0,1,15,0" transform="translate(0 0)" fill="#fff"/>
        <path id="Path_98" data-name="Path 98" d="M15,.545a14.45,14.45,0,1,0,5.626,1.136A14.459,14.459,0,0,0,15,.545M15,0A15,15,0,1,1,0,15,15,15,0,0,1,15,0" transform="translate(0 0)" fill="#036dd5"/>
      </g>
    </g>
    <g id="Skilled_Job_Seekers" data-name="Skilled Job Seekers" transform="translate(4.737 4.715)">
      <g id="Group_892" data-name="Group 892" transform="translate(0.71 12.827)">
        <path id="Path_28488" data-name="Path 28488" d="M11.478,42.244l-.039,2.483H4.963A1.883,1.883,0,0,1,3.08,42.844v-5.5a2.152,2.152,0,0,0,.684.247l.049.007.095,0c1.446.254,3.005.448,4.635.575A5.143,5.143,0,0,0,11.478,42.244Z" transform="translate(-3.08 -37.345)" fill="#026dd5"/>
        <path id="Path_28489" data-name="Path 28489" d="M47.439,37.425V42.9a1.883,1.883,0,0,1-1.883,1.883H39.149L39.11,42.3a5.136,5.136,0,0,0,2.935-4.071c1.665-.129,3.266-.328,4.761-.585A2.243,2.243,0,0,0,47.439,37.425Z" transform="translate(-26.402 -37.397)" fill="#026dd5"/>
      </g>
      <g id="Group_893" data-name="Group 893" transform="translate(9.782 11.402)">
        <path id="Path_28490" data-name="Path 28490" d="M31.7,33.3v1.756l-.54,1.182H29.34l-.54-1.184V33.3Z" transform="translate(-28.8 -33.3)" fill="#026dd5"/>
      </g>
      <path id="Path_28491" data-name="Path 28491" d="M23.178,5.041a1.5,1.5,0,0,0-1.086-.462h-6.1V3.235a1.5,1.5,0,0,0-1.492-1.5A1.093,1.093,0,0,0,13.472.99c-1.545.123-2.853-.406-3.252.74a1.5,1.5,0,0,0-1.5,1.5V4.577H2.566a1.5,1.5,0,0,0-1.5,1.566l.289,5.8a1.5,1.5,0,0,0,1.231,1.414l.092,0c1.411.251,2.935.441,4.529.568a5.123,5.123,0,0,1,10.242-.007c1.615-.129,3.166-.323,4.61-.571a1.466,1.466,0,0,0,.6-.244c.028-.021.056-.039.088-.065a1.516,1.516,0,0,0,.554-1.1l.289-5.8A1.5,1.5,0,0,0,23.178,5.041Zm-7.89-.462H9.426V3.235a.8.8,0,0,1,.787-.8,1.115,1.115,0,0,0,1.034.744c1.7-.085,2.5.218,2.995-.323a1.177,1.177,0,0,0,.264-.423.8.8,0,0,1,.783.8Z" transform="translate(-1.066 -0.975)" fill="#026dd5"/>
      <g id="Group_894" data-name="Group 894" transform="translate(6.859 8.668)">
        <path id="Path_28492" data-name="Path 28492" d="M24.9,34.368a4.411,4.411,0,1,1,1.18-.158,4.411,4.411,0,0,1-1.18.158Zm0-7.42a3,3,0,0,0-.8,5.9,3.06,3.06,0,0,0,1.6,0,3,3,0,0,0-.8-5.9Z" transform="translate(-20.496 -25.545)" fill="#026dd5"/>
      </g>
      <g id="Group_895" data-name="Group 895" transform="translate(9.761 17.991)">
        <path id="Path_28493" data-name="Path 28493" d="M31.745,55.051a1.5,1.5,0,1,1-3.005.028l.049-3.093.088.025a5.169,5.169,0,0,0,2.73,0l.088-.025Z" transform="translate(-28.74 -51.986)" fill="#026dd5"/>
      </g>
    </g>
  </g>
</svg>
