<svg xmlns="http://www.w3.org/2000/svg" width="30" height="30" viewBox="0 0 30 30">
  <g id="Group_25" data-name="Group 25" transform="translate(-1 -1)">
    <g id="Group_15" data-name="Group 15">
      <g id="Group_12" data-name="Group 12" transform="translate(0.999 0.999)">
        <g id="Group_13" data-name="Group 13" transform="translate(0.001 0.001)">
          <path id="Path_97" data-name="Path 97" d="M15,0A15,15,0,1,1,0,15,15,15,0,0,1,15,0" transform="translate(0 0)" fill="#fff"/>
          <path id="Path_98" data-name="Path 98" d="M15,.545a14.45,14.45,0,1,0,5.626,1.136A14.459,14.459,0,0,0,15,.545M15,0A15,15,0,1,1,0,15,15,15,0,0,1,15,0" transform="translate(0 0)" fill="#036dd5"/>
        </g>
      </g>
    </g>
    <path id="Teenagers" d="M588.277,1726.768l6.051-17.577-6.051,6.155-5.44-2.345Zm13.393,0L607.11,1713l-5.44,2.345-6.051-6.155Zm-13.393-20.329a2.754,2.754,0,1,1-2.754,2.754,2.754,2.754,0,0,1,2.754-2.754Zm13.393,0a2.754,2.754,0,1,1-2.754,2.754,2.754,2.754,0,0,1,2.754-2.754Zm-6.7-3.506a1.826,1.826,0,0,1,2.7-.565c.674.565.674,1.695,0,2.823a7.414,7.414,0,0,1-2.7,2.259,7.413,7.413,0,0,1-2.7-2.259c-.674-1.13-.674-2.259,0-2.823a1.826,1.826,0,0,1,2.7.566Z" transform="translate(-578.974 -1698.383)" fill="#026dd5" fill-rule="evenodd"/>
  </g>
</svg>
