<svg xmlns="http://www.w3.org/2000/svg" width="30" height="30" viewBox="0 0 30 30">
  <g id="TravellerEnthusiasts" transform="translate(-1 -1)">
    <g id="Teenagers">
      <g id="Group_15" data-name="Group 15">
        <g id="Group_12" data-name="Group 12" transform="translate(0.999 0.999)">
          <g id="Group_13" data-name="Group 13" transform="translate(0.001 0.001)">
            <path id="Path_97" data-name="Path 97" d="M15,0A15,15,0,1,1,0,15,15,15,0,0,1,15,0" transform="translate(0 0)" fill="#fff"/>
            <path id="Path_98" data-name="Path 98" d="M15,.545a14.45,14.45,0,1,0,5.626,1.136A14.459,14.459,0,0,0,15,.545M15,0A15,15,0,1,1,0,15,15,15,0,0,1,15,0" transform="translate(0 0)" fill="#036dd5"/>
          </g>
        </g>
      </g>
    </g>
    <g id="TravellerEnthusiasts-2" data-name="TravellerEnthusiasts" transform="translate(6.82 5.645)">
      <path id="Path_28451" data-name="Path 28451" d="M32.594,30.211a.344.344,0,0,0-.076-.009h-10.8a1.173,1.173,0,0,1-1.089-1.24V13.876a.965.965,0,0,0-.024-1.213l-1.73-1.969a.725.725,0,0,0-1.1,0l-.187.213a.972.972,0,0,0,0,1.247l1.73,1.969a.725.725,0,0,0,.548.258h0v14.58a2,2,0,0,0,1.763,2.1,1.617,1.617,0,0,0-.121.61,1.3,1.3,0,1,0,2.573,0,1.621,1.621,0,0,0-.118-.605h7.381a1.625,1.625,0,0,0-.118.605,1.3,1.3,0,1,0,1.366-1.457Z" transform="translate(-17.362 -10.444)" fill="#026dd5"/>
      <path id="Path_28452" data-name="Path 28452" d="M44.709,20.856h-.745v-.4a1.95,1.95,0,0,0-1.947-1.947h-1a1.95,1.95,0,0,0-1.948,1.947v.4h-.742A1.95,1.95,0,0,0,36.377,22.8v8.24a1.95,1.95,0,0,0,1.947,1.947h6.385a1.95,1.95,0,0,0,1.947-1.947V22.805A1.95,1.95,0,0,0,44.709,20.856Zm-4.887-.4a1.193,1.193,0,0,1,1.192-1.192h1a1.193,1.193,0,0,1,1.192,1.192v.4H39.822Zm.031,9.4a.378.378,0,1,1-.755,0v-5.24a.378.378,0,1,1,.755,0Zm2.041-.605a.378.378,0,0,1-.755,0V24a.378.378,0,0,1,.755,0Zm2.041.605a.378.378,0,1,1-.755,0v-5.24a.378.378,0,1,1,.755,0Z" transform="translate(-31.589 -16.476)" fill="#026dd5"/>
    </g>
  </g>
</svg>
