<svg xmlns="http://www.w3.org/2000/svg" width="30" height="30" viewBox="0 0 30 30">
  <g id="Urban_females" data-name="Urban females" transform="translate(-1 -1)">
    <g id="TravellerEnthusiasts">
      <g id="Teenagers">
        <g id="Group_15" data-name="Group 15">
          <g id="Group_12" data-name="Group 12" transform="translate(0.999 0.999)">
            <g id="Group_13" data-name="Group 13" transform="translate(0.001 0.001)">
              <path id="Path_97" data-name="Path 97" d="M15,0A15,15,0,1,1,0,15,15,15,0,0,1,15,0" transform="translate(0 0)" fill="#fff"/>
              <path id="Path_98" data-name="Path 98" d="M15,.545a14.45,14.45,0,1,0,5.626,1.136A14.459,14.459,0,0,0,15,.545M15,0A15,15,0,1,1,0,15,15,15,0,0,1,15,0" transform="translate(0 0)" fill="#036dd5"/>
            </g>
          </g>
        </g>
      </g>
    </g>
    <path id="Urban_females-2" data-name="Urban females" d="M26.385,13.637a11.775,11.775,0,0,0,2.477,2.958,5.939,5.939,0,0,1-.84,9.623,7.178,7.178,0,0,0-1.452-.738l-2.294-.852a2.05,2.05,0,0,1-1.338-1.922V21.651a.518.518,0,0,1,.518-.518H25.8a.73.73,0,0,0,.776-.755c0-.81-.1-1.012.253-1.356a.3.3,0,0,0-.088-.526c.435-.224.35-.472.221-.647a.616.616,0,0,1-.082-.7,1.667,1.667,0,0,0,.7-.458.3.3,0,0,0-.007-.371,6.931,6.931,0,0,1-1.273-1.78,1.061,1.061,0,0,1,.08-.9ZM16.742,5.471h0A6.335,6.335,0,0,0,13.267,13.7L24.99,8.891A6.335,6.335,0,0,0,16.742,5.471ZM30.761,8.858l-.294-.715L8.586,17.114l.294.717a2.448,2.448,0,0,0,3.193,1.34l1.215-.5a6.555,6.555,0,0,1-1.469,2.843h0a4.663,4.663,0,0,0,3.469,7.777,6.674,6.674,0,0,0,.791-.067A2.692,2.692,0,0,0,18.17,26.6a10.811,10.811,0,0,0-.4-1.973,1.863,1.863,0,0,1,1.147-2.01c2.627-1.381,4.125-3.333,4.125-6.1a6.582,6.582,0,0,0-.237-1.755l6.622-2.714a2.448,2.448,0,0,0,1.339-3.191Z" transform="translate(-4.626 -1.594)" fill="#026dd5"/>
  </g>
</svg>
