<svg xmlns="http://www.w3.org/2000/svg" width="30" height="30" viewBox="0 0 30 30">
  <g id="Group_25" data-name="Group 25" transform="translate(-1 -1)">
    <g id="Urban_females" data-name="Urban females">
      <g id="TravellerEnthusiasts">
        <g id="Teenagers">
          <g id="Group_15" data-name="Group 15">
            <g id="Group_12" data-name="Group 12" transform="translate(0.999 0.999)">
              <g id="Group_13" data-name="Group 13" transform="translate(0.001 0.001)">
                <path id="Path_97" data-name="Path 97" d="M15,0A15,15,0,1,1,0,15,15,15,0,0,1,15,0" transform="translate(0 0)" fill="#fff"/>
                <path id="Path_98" data-name="Path 98" d="M15,.545a14.45,14.45,0,1,0,5.626,1.136A14.459,14.459,0,0,0,15,.545M15,0A15,15,0,1,1,0,15,15,15,0,0,1,15,0" transform="translate(0 0)" fill="#036dd5"/>
              </g>
            </g>
          </g>
        </g>
      </g>
    </g>
    <g id="Urban_Male" data-name="Urban Male" transform="translate(2.561 4.585)">
      <path id="Path_28423" data-name="Path 28423" d="M38.04,16.657A4.454,4.454,0,1,0,33.588,12.2,4.454,4.454,0,0,0,38.04,16.657Z" transform="translate(-24.602 -7.747)" fill="#026dd5"/>
      <path id="Path_28424" data-name="Path 28424" d="M36.883,39.181a4.973,4.973,0,0,1-7.648,0c-1.516,1.362-2.5,1.993-2.5,4.416,0,4.119.57,8.979,6.318,8.979s6.32-4.86,6.32-8.979C39.377,41.174,38.4,40.544,36.883,39.181ZM33.055,50.614c-1.228,0-1.262-6.053-1.262-6.347s.886-.708.886-.708-.875-.625-.875-.948a2.259,2.259,0,0,1,1.29-1.22c.364,0,1.2.913,1.2,1.22s-.824.961-.824.961.848.4.848.693S34.282,50.614,33.055,50.614Z" transform="translate(-19.62 -30.616)" fill="#026dd5"/>
      <path id="Path_28425" data-name="Path 28425" d="M78.673,31.4a2.613,2.613,0,1,0-2.613-2.615A2.613,2.613,0,0,0,78.673,31.4Z" transform="translate(-55.501 -21.151)" fill="#026dd5"/>
      <path id="Path_28426" data-name="Path 28426" d="M7.235,31.4a2.613,2.613,0,1,0-2.61-2.615A2.613,2.613,0,0,0,7.235,31.4Z" transform="translate(-3.53 -21.151)" fill="#026dd5"/>
      <path id="Path_28427" data-name="Path 28427" d="M80.35,44.615a2.917,2.917,0,0,1-4.486,0c-.213.193-.407.359-.582.523a4.587,4.587,0,0,1,.49,2.294,19.99,19.99,0,0,1-.328,4,3.317,3.317,0,0,0,2.662,1.042c3.372,0,3.707-2.852,3.707-5.269C81.814,45.785,81.24,45.414,80.35,44.615Z" transform="translate(-54.935 -34.569)" fill="#026dd5"/>
      <path id="Path_28428" data-name="Path 28428" d="M6.559,44.614a2.917,2.917,0,0,1-4.486,0c-.89.8-1.465,1.17-1.465,2.591,0,2.417.334,5.269,3.707,5.269a3.32,3.32,0,0,0,2.664-1.041,19.894,19.894,0,0,1-.329-4,4.575,4.575,0,0,1,.491-2.294C6.966,44.973,6.772,44.807,6.559,44.614Z" transform="translate(-0.608 -34.568)" fill="#026dd5"/>
    </g>
  </g>
</svg>
