<svg xmlns="http://www.w3.org/2000/svg" width="30" height="30" viewBox="0 0 30 30">
  <g id="Group_26" data-name="Group 26" transform="translate(-1 -1)">
    <g id="Group_25" data-name="Group 25">
      <g id="Urban_females" data-name="Urban females">
        <g id="TravellerEnthusiasts">
          <g id="Teenagers">
            <g id="Group_15" data-name="Group 15">
              <g id="Group_12" data-name="Group 12" transform="translate(0.999 0.999)">
                <g id="Group_13" data-name="Group 13" transform="translate(0.001 0.001)">
                  <path id="Path_97" data-name="Path 97" d="M15,0A15,15,0,1,1,0,15,15,15,0,0,1,15,0" transform="translate(0 0)" fill="#fff"/>
                  <path id="Path_98" data-name="Path 98" d="M15,.545a14.45,14.45,0,1,0,5.626,1.136A14.459,14.459,0,0,0,15,.545M15,0A15,15,0,1,1,0,15,15,15,0,0,1,15,0" transform="translate(0 0)" fill="#036dd5"/>
                </g>
              </g>
            </g>
          </g>
        </g>
      </g>
    </g>
    <g id="Wealthy_with_Limited_Education_Seekers" data-name="Wealthy with Limited Education Seekers" transform="translate(6.7 2.368)">
      <path id="Path_99848" data-name="Path 99848" d="M95.044,173.285v7.12a1.515,1.515,0,0,0,2.964,0l1.749-8.822a4.7,4.7,0,0,1-.627.533,7.33,7.33,0,0,1-4.086,1.169Z" transform="translate(-85.496 -154.347)" fill="#026dd5"/>
      <path id="Path_99849" data-name="Path 99849" d="M1.688,137.833.426,136.573l1.111-1.111q0-.214,0-.423L0,136.573l1.743,1.743Q1.713,138.073,1.688,137.833Z" transform="translate(0 -121.473)" fill="#026dd5"/>
      <rect id="Rectangle_8545" data-name="Rectangle 8545" width="0.387" height="2.754" transform="translate(4.679 12.117) rotate(-45)" fill="#026dd5"/>
      <path id="Path_99850" data-name="Path 99850" d="M43.841,125.126l.273-.273-1.945-1.945-.234.234c0,.024,0,.049,0,.073Z" transform="translate(-37.716 -110.559)" fill="#026dd5"/>
      <path id="Path_99851" data-name="Path 99851" d="M19.392,50.5A7.934,7.934,0,0,0,17.9,53.512a18.7,18.7,0,0,0-.253,7.091,1.105,1.105,0,1,0,2.194-.271,16.035,16.035,0,0,1,.232-6.37l.215.044a9.078,9.078,0,0,0-.214.916l.692-.692,3.223,3.223-4.654,4.655L19,61.771c-.029.006-.056.012-.087.015a1.352,1.352,0,0,1-.164.01,1.313,1.313,0,0,1-.161-.011l.749.749.788-.788,1.607,8.1a1.363,1.363,0,0,0,1.482,1.2,1.363,1.363,0,0,0,1.477-1.2v-7.12A7.334,7.334,0,0,1,20.6,61.559l-.169-.128.215-.215A7.1,7.1,0,0,0,24.96,62.43c3.141,0,6.012-1.311,6.012-5a8.25,8.25,0,0,0-.778-3.416h.333a8.516,8.516,0,0,1,.748,3.416,5,5,0,0,1-1.142,3.4,1.1,1.1,0,0,0,2.142-.219c.569-4.612-.017-8.012-1.745-10.1a5.2,5.2,0,0,0-2.837-1.825,3.311,3.311,0,0,1-5.463,0A5.2,5.2,0,0,0,19.392,50.5Zm5.569,10.092-1.428-1.8.072-.532.806-.806-.611-.611.556-4.111a1.723,1.723,0,0,0,.605.111h0a1.722,1.722,0,0,0,.6-.111l.824,6.061Zm0-9.695h.571l.286,1.127-.043.068a1.27,1.27,0,0,1-1.626,0l-.044-.069.286-1.127Z" transform="translate(-15.684 -43.787)" fill="#026dd5"/>
      <circle id="Ellipse_725" data-name="Ellipse 725" cx="3.014" cy="3.014" r="3.014" transform="translate(6.263 -0.002)" fill="#026dd5"/>
    </g>
  </g>
</svg>
