<svg xmlns="http://www.w3.org/2000/svg" width="30" height="30" viewBox="0 0 30 30">
  <g id="Young_enthusiasts" data-name="Young enthusiasts" transform="translate(-1 -1)">
    <g id="Group_26" data-name="Group 26">
      <g id="Group_25" data-name="Group 25">
        <g id="Urban_females" data-name="Urban females">
          <g id="TravellerEnthusiasts">
            <g id="Teenagers">
              <g id="Group_15" data-name="Group 15">
                <g id="Group_12" data-name="Group 12" transform="translate(0.999 0.999)">
                  <g id="Group_13" data-name="Group 13" transform="translate(0.001 0.001)">
                    <path id="Path_97" data-name="Path 97" d="M15,0A15,15,0,1,1,0,15,15,15,0,0,1,15,0" transform="translate(0 0)" fill="#fff"/>
                    <path id="Path_98" data-name="Path 98" d="M15,.545a14.45,14.45,0,1,0,5.626,1.136A14.459,14.459,0,0,0,15,.545M15,0A15,15,0,1,1,0,15,15,15,0,0,1,15,0" transform="translate(0 0)" fill="#036dd5"/>
                  </g>
                </g>
              </g>
            </g>
          </g>
        </g>
      </g>
    </g>
    <g id="Group_10" data-name="Group 10" transform="translate(-152.593 -835.529)">
      <path id="Young_enthusiasts-2" data-name="Young enthusiasts" d="M18.918,16.355a2.353,2.353,0,0,0,.477-.067,2.319,2.319,0,0,1-2.075,1.3H2.308A2.308,2.308,0,0,1,0,15.279V4.837H0A2.308,2.308,0,0,1,1.42,2.7a2.272,2.272,0,0,0-.1.633V14.314A2.042,2.042,0,0,0,3.33,16.356ZM22.191,1.941V12.76h0a2.308,2.308,0,0,1-2.308,2.308H4.871A2.308,2.308,0,0,1,2.565,12.76V2.319h0A2.308,2.308,0,0,1,4.871,0H20.25A1.941,1.941,0,0,1,22.191,1.941ZM19.85,5.548a3.684,3.684,0,0,1-3.074-3.107H8.321A4.039,4.039,0,0,1,4.893,5.87V9.553a3.7,3.7,0,0,1,3.074,3.118h8.466A4.039,4.039,0,0,1,19.85,9.2Z" transform="translate(157.497 842.734)" fill="#026dd5"/>
      <circle id="Ellipse_1" data-name="Ellipse 1" cx="1.926" cy="1.926" r="1.926" transform="translate(167.851 848.159)" fill="#036dd5"/>
    </g>
  </g>
</svg>
