<svg xmlns="http://www.w3.org/2000/svg" width="30" height="30" viewBox="0 0 30 30">
  <g id="Young_Parents" data-name="Young Parents" transform="translate(-1 -1)">
    <g id="Young_enthusiasts" data-name="Young enthusiasts">
      <g id="Group_26" data-name="Group 26">
        <g id="Group_25" data-name="Group 25">
          <g id="Urban_females" data-name="Urban females">
            <g id="TravellerEnthusiasts">
              <g id="Teenagers">
                <g id="Group_15" data-name="Group 15">
                  <g id="Group_12" data-name="Group 12" transform="translate(0.999 0.999)">
                    <g id="Group_13" data-name="Group 13" transform="translate(0.001 0.001)">
                      <path id="Path_97" data-name="Path 97" d="M15,0A15,15,0,1,1,0,15,15,15,0,0,1,15,0" transform="translate(0 0)" fill="#fff"/>
                      <path id="Path_98" data-name="Path 98" d="M15,.545a14.45,14.45,0,1,0,5.626,1.136A14.459,14.459,0,0,0,15,.545M15,0A15,15,0,1,1,0,15,15,15,0,0,1,15,0" transform="translate(0 0)" fill="#036dd5"/>
                    </g>
                  </g>
                </g>
              </g>
            </g>
          </g>
        </g>
      </g>
    </g>
    <g id="Young_Parents-2" data-name="Young Parents" transform="translate(2.798 7.576)">
      <path id="Path_28444" data-name="Path 28444" d="M14.426,24.577A2.133,2.133,0,1,0,16.56,26.71a2.133,2.133,0,0,0-2.133-2.133Z" transform="translate(-10.153 -24.577)" fill="#026dd5"/>
      <path id="Path_28445" data-name="Path 28445" d="M8.47,53.74A1.872,1.872,0,0,1,6.6,52.286l-1.574-8A1.822,1.822,0,0,1,5,43.933a1.925,1.925,0,0,1,1.925-1.925h4.693a1.925,1.925,0,0,1,1.925,1.925,1.822,1.822,0,0,1-.03.351l-1.574,8a1.874,1.874,0,0,1-1.865,1.454" transform="translate(-5 -36.894)" fill="#026dd5"/>
      <path id="Path_28446" data-name="Path 28446" d="M45.738,37.9a1.77,1.77,0,1,1,1.77-1.769A1.839,1.839,0,0,1,45.738,37.9Z" transform="translate(-32.535 -31.49)" fill="#026dd5"/>
      <path id="Path_28447" data-name="Path 28447" d="M38.633,50.023,36.2,56.389a1.606,1.606,0,0,0,1.5,2.163h4.959a1.606,1.606,0,0,0,1.5-2.163l-2.43-6.366a1.6,1.6,0,0,0-3.095,0Z" transform="translate(-26.978 -41.706)" fill="#026dd5"/>
      <path id="Path_28448" data-name="Path 28448" d="M75.3,24.577a2.133,2.133,0,1,1-2.133,2.132A2.217,2.217,0,0,1,75.3,24.577Z" transform="translate(-53.166 -24.577)" fill="#026dd5"/>
      <path id="Path_28449" data-name="Path 28449" d="M70.953,53.74a1.872,1.872,0,0,0,1.865-1.454l1.574-8a1.821,1.821,0,0,0,.03-.351A1.925,1.925,0,0,0,72.5,42.007H67.8a1.925,1.925,0,0,0-1.925,1.925,1.821,1.821,0,0,0,.03.351l1.574,8a1.874,1.874,0,0,0,1.865,1.454" transform="translate(-48.018 -36.893)" fill="#026dd5"/>
    </g>
  </g>
</svg>
