<svg xmlns="http://www.w3.org/2000/svg" width="35" height="35" viewBox="0 0 35 35">
  <g id="Locations" transform="translate(-376 -246)">
    <rect id="Rectangle_7018" data-name="Rectangle 7018" width="35" height="35" rx="6" transform="translate(376 246)" fill="#e2edf8"/>
    <g id="Group_37062" data-name="Group 37062" transform="translate(368.032 238.532)">
      <path id="Path_84837" data-name="Path 84837" d="M33.778,34.5V26.177a3.366,3.366,0,0,1-.767.059,4.207,4.207,0,0,1-4.191-4.191,6.232,6.232,0,0,1,.059-.767H20.556a5.568,5.568,0,0,0-4.1,1.476,5.691,5.691,0,0,0-1.476,4.1V34.5a5.568,5.568,0,0,0,1.476,4.1,5.568,5.568,0,0,0,4.1,1.476H28.2A5.568,5.568,0,0,0,32.3,38.6,5.821,5.821,0,0,0,33.778,34.5Zm-3.9-5.814L26.577,32.7a.909.909,0,0,1-1.21.148L22.681,30.84,20.054,34a.93.93,0,0,1-.679.325.779.779,0,0,1-.561-.207.889.889,0,0,1-.118-1.24l3.188-3.807a.909.909,0,0,1,1.21-.148l2.686,2.007,2.774-3.335a.863.863,0,0,1,1.24-.118A.843.843,0,0,1,29.882,28.685Z" transform="translate(0 -4.488)" fill="#006dd5"/>
      <circle id="Ellipse_712" data-name="Ellipse 712" cx="2.5" cy="2.5" r="2.5" transform="translate(31 14.467)" fill="#006dd5"/>
    </g>
  </g>
</svg>
