<svg xmlns="http://www.w3.org/2000/svg" width="54.736" height="56.797" viewBox="0 0 54.736 56.797">
  <g id="Group_43699" data-name="Group 43699" transform="translate(-849.632 -446.192)">
    <path id="Path_101335" data-name="Path 101335" d="M32.4,26.31A12.513,12.513,0,1,1,19.876,38.832,12.518,12.518,0,0,1,32.4,26.31ZM8.315,83.107A3.3,3.3,0,0,1,5.77,81.98a2.766,2.766,0,0,1-.67-2.526L7.773,67.3a15.752,15.752,0,0,1,13.546-12,19.817,19.817,0,0,0,22.15,0,15.752,15.752,0,0,1,13.546,12l2.673,12.151a2.756,2.756,0,0,1-.67,2.526,3.305,3.305,0,0,1-2.544,1.127H8.314Z" transform="translate(844.605 419.882)" fill="#016dd5" fill-rule="evenodd"/>
    <path id="Path_101339" data-name="Path 101339" d="M36.829,18.923c0-.642,3.652-.642,3.652,0,0,2.505,1.894,10.761,1.894,10.761l-3.72,2.847L35,29.6S36.829,21.371,36.829,18.923Z" transform="translate(838.158 468.458)" fill="#f5faff"/>
    <path id="Path_101340" data-name="Path 101340" d="M44.537.6c0-.8-5.422-.8-5.422,0,0,.552.431,3.235.864,2.861a3.733,3.733,0,0,1,3.709,0C44.12,3.838,44.537,1.319,44.537.6Z" transform="translate(834.959 482.812)" fill="#f5faff"/>
  </g>
</svg>
