<svg xmlns="http://www.w3.org/2000/svg" width="36.75" height="35.561" viewBox="0 0 36.75 35.561">
  <path id="Male_Artists" data-name="Male Artists" d="M37.718,104.512a5.438,5.438,0,0,1,.956,3.166,5.63,5.63,0,0,1-.383,2.093l-1.679,6.736h3.464V80.947H16.724l-13.4,21.972h7.767v8.712H20.4v4.877h9.094l-1.668-6.7a5.558,5.558,0,0,1-.393-2.125,5.439,5.439,0,0,1,.956-3.166h9.329Zm.064-5.387a7.1,7.1,0,0,1-.51.669H29.059a5.218,5.218,0,0,1-.51-.457A6.946,6.946,0,0,1,26.4,94.653a6.169,6.169,0,0,1,1.562-4.7,5.655,5.655,0,0,1,4.377-1.934,5.809,5.809,0,0,1,.754.043,5.961,5.961,0,0,0-1.36,3.581,6.431,6.431,0,0,1,1.126-.1,5.748,5.748,0,0,1,3.994,1.487,4.787,4.787,0,0,1,.925,6.088Zm-.128,1.732v2.592H28.389v-2.592Zm-21.7-9.616a1.815,1.815,0,0,1,1.807,1.806,1.716,1.716,0,0,1-.532,1.265,1.741,1.741,0,0,1-1.275.531,1.814,1.814,0,0,1-1.8-1.8,1.74,1.74,0,0,1,.531-1.275,1.718,1.718,0,0,1,1.265-.531Z" transform="translate(-3.326 -80.947)" fill="#026dd5"/>
</svg>
