<svg xmlns="http://www.w3.org/2000/svg" width="74.873" height="66.284" viewBox="0 0 74.873 66.284">
  <g id="Buyer_prints" data-name="Buyer prints" transform="translate(-5.027 -10.183)">
    <path id="Path_101335" data-name="Path 101335" d="M52.485,18.754h3.8V16.8a6.626,6.626,0,0,1,13.253,0v1.954h3.8a2.028,2.028,0,0,1,1.974,1.622l4.555,22.818a1.973,1.973,0,0,1-.426,1.678,1.932,1.932,0,0,1-1.548.738H47.93a1.932,1.932,0,0,1-1.548-.738,1.971,1.971,0,0,1-.426-1.678l4.552-22.818a2.032,2.032,0,0,1,1.977-1.622ZM29.2,26.31A11.05,11.05,0,1,1,18.14,37.368,11.054,11.054,0,0,1,29.2,26.31ZM7.93,76.467a2.914,2.914,0,0,1-2.247-.995,2.443,2.443,0,0,1-.592-2.23l2.361-10.73a13.911,13.911,0,0,1,11.962-10.6,17.5,17.5,0,0,0,19.561,0,13.911,13.911,0,0,1,11.962,10.6L53.3,73.241a2.434,2.434,0,0,1-.592,2.23,2.919,2.919,0,0,1-2.247.995H7.93ZM56.282,18.754v5.531a1.8,1.8,0,0,0-.572,1.327,1.824,1.824,0,0,0,3.648,0,1.8,1.8,0,0,0-.572-1.327V18.754Zm2.5,0h8.239V16.8a4.12,4.12,0,0,0-8.239,0Zm8.242,0v5.531a1.813,1.813,0,0,0,1.252,3.134A1.826,1.826,0,0,0,70.1,25.611a1.8,1.8,0,0,0-.572-1.327V18.754ZM57.775,37.388a1.255,1.255,0,0,1,.146-1.753,1.235,1.235,0,0,1,1.753.15l1.753,2.045,4.958-5.973A1.245,1.245,0,1,1,68.3,33.444l-5.9,7.134v-.016c-.055.055-.091.111-.146.166a1.251,1.251,0,0,1-1.753-.15Z" transform="translate(0 0)" fill="#016dd5" fill-rule="evenodd"/>
  </g>
</svg>
