<svg xmlns="http://www.w3.org/2000/svg" xmlns:xlink="http://www.w3.org/1999/xlink" width="62" height="58" viewBox="0 0 62 58">
  <defs>
    <clipPath id="clip-path">
      <rect id="Rectangle_9816" data-name="Rectangle 9816" width="62" height="58" rx="3" transform="translate(315 720)" fill="#fff"/>
    </clipPath>
  </defs>
  <g id="Group_40499" data-name="Group 40499" transform="translate(-19 -21)">
    <g id="Group_40209" data-name="Group 40209" transform="translate(-296 -699)">
      <g id="Mask_Group_62" data-name="Mask Group 62" clip-path="url(#clip-path)">
        <g id="noun-zip-5435888" transform="translate(316.352 719.784)">
          <path id="Path_2110" data-name="Path 2110" d="M19.745,12.147V7.41L12.91,14.245h4.359a2.447,2.447,0,0,0,2.476-2.1Z" transform="translate(-0.339 -0.339)" fill="none"/>
          <path id="Path_2111" data-name="Path 2111" d="M11.5,51.818a2.7,2.7,0,0,0,2.7,2.7H45.72a2.7,2.7,0,0,0,2.7-2.7V23H11.5Z" transform="translate(-0.199 -1.889)" fill="none"/>
          <path id="Path_2112" data-name="Path 2112" d="M45.523,4H19.938L9.5,14.438V49.929a4.5,4.5,0,0,0,4.5,4.5H45.52a4.5,4.5,0,0,0,4.5-4.5V8.5A4.5,4.5,0,0,0,45.52,4ZM19.379,7.071v4.737a2.4,2.4,0,0,1-2.45,2.1H12.571ZM48.225,49.929a2.7,2.7,0,0,1-2.7,2.7H14a2.7,2.7,0,0,1-2.7-2.7V21.111H48.225Z" fill="#a3a3a3"/>
          <path id="Path_2113" data-name="Path 2113" d="M41.745,12.848a.766.766,0,0,0,.216-.585.784.784,0,0,0-.216-.585.9.9,0,0,0-.657-.207H40.25v1.558h.838a.9.9,0,0,0,.657-.18Z" transform="translate(-3.057 -0.742)" fill="#a3a3a3"/>
          <path id="Path_2168" data-name="Path 2168" d="M61.8,44.095H34.86c-.738,0-1.337-.4-1.337-.9s.6-.9,1.337-.9H61.8c.738,0,1.337.4,1.337.9S62.535,44.095,61.8,44.095Z" transform="translate(-18.565 -14.549)" fill="#a3a3a3"/>
          <path id="Path_3185" data-name="Path 3185" d="M56.8,44.095H34.86c-.738,0-1.337-.4-1.337-.9s.6-.9,1.337-.9H56.8c.738,0,1.337.4,1.337.9S57.535,44.095,56.8,44.095Z" transform="translate(-18.565 -8.549)" fill="#a3a3a3"/>
          <path id="Path_3186" data-name="Path 3186" d="M51.8,44.095H34.86c-.738,0-1.337-.4-1.337-.9s.6-.9,1.337-.9H51.8c.738,0,1.337.4,1.337.9S52.535,44.095,51.8,44.095Z" transform="translate(-18.565 -2.549)" fill="#a3a3a3"/>
        </g>
      </g>
    </g>
    <path id="Path_3187" data-name="Path 3187" d="M5.256-.483A2.64,2.64,0,0,1,3.4.18a2.794,2.794,0,0,1-2.2-.9,3.588,3.588,0,0,1-.8-2.47A3.557,3.557,0,0,1,1.314-5.8a2.711,2.711,0,0,1,2.013-.8A2.722,2.722,0,0,1,5.717-5.528,2.321,2.321,0,0,1,6.166-4.32H4.812a1.828,1.828,0,0,0-.338-.7,1.376,1.376,0,0,0-1.094-.422,1.356,1.356,0,0,0-1.165.6,2.862,2.862,0,0,0-.426,1.685,2.512,2.512,0,0,0,.45,1.633,1.423,1.423,0,0,0,1.145.543,1.309,1.309,0,0,0,1.085-.466,2.023,2.023,0,0,0,.343-.751h1.34A2.913,2.913,0,0,1,5.256-.483ZM9.976,0H7.185V-6.478H9.976a3.4,3.4,0,0,1,1,.141,2.138,2.138,0,0,1,1.1.822,2.883,2.883,0,0,1,.461,1.046A5.021,5.021,0,0,1,12.665-3.4a4.305,4.305,0,0,1-.519,2.188A2.34,2.34,0,0,1,9.976,0Zm1.006-4.825a1.316,1.316,0,0,0-1.235-.527H8.5v4.228H9.747a1.348,1.348,0,0,0,1.336-.945A3.332,3.332,0,0,0,11.29-3.3,3.071,3.071,0,0,0,10.982-4.825ZM16.436-2.54h-1.4V0H13.715V-6.478h3.177a2.96,2.96,0,0,1,1.048.167,1.637,1.637,0,0,1,.622.453,2.006,2.006,0,0,1,.334.545,1.776,1.776,0,0,1,.123.681,1.941,1.941,0,0,1-.233.907,1.3,1.3,0,0,1-.769.631,1.209,1.209,0,0,1,.635.512,2.131,2.131,0,0,1,.187,1.013v.435a3.328,3.328,0,0,0,.035.6.541.541,0,0,0,.246.369V0h-1.49q-.062-.215-.088-.347a3.19,3.19,0,0,1-.057-.558l-.009-.6a1.176,1.176,0,0,0-.226-.826A1.2,1.2,0,0,0,16.436-2.54Zm.822-1.178a.722.722,0,0,0,.4-.729.805.805,0,0,0-.391-.791,1.478,1.478,0,0,0-.659-.114H15.038v1.74h1.534A1.709,1.709,0,0,0,17.257-3.718Z" transform="translate(45 37)" fill="#fff"/>
  </g>
</svg>
