<svg xmlns="http://www.w3.org/2000/svg" width="184.176" height="190.036" viewBox="0 0 184.176 190.036">
  <g id="contact-us" transform="translate(0 0)">
    <g id="Group_37419" data-name="Group 37419">
      <path id="Path_99740" data-name="Path 99740" d="M178.471,65.756a74.767,74.767,0,0,0-10.8-18.274c-4.4-5.485-12.993-12.406-20.052-13.145-6.971-.73-16.667-.081-23.059,6.612a186.631,186.631,0,0,0-10.485-20.667C107.676,9.441,97.481,2.221,82.048.2c-7.291-.957-23.536,1.636-32.2,6.953s-9.931,15.945-7.991,20.205a18.311,18.311,0,0,0-14.472,4.7,16.694,16.694,0,0,0-5.143,8.4,17.2,17.2,0,0,0-.311,5.411c.138,1.832.6,3.932-.028,5.719-.545,1.547-2.05,2.533-3.316,3.449a30.826,30.826,0,0,0-4.445,3.769c-2.524,2.68-7.315,8.962-8.733,12.344C2.4,78.31,1.785,83.634.81,91.307c-1.069,8.419-1.238,16.41.467,24.8a48.141,48.141,0,0,0,8.351,18.574c.273-.126.555-.246.85-.358a11.827,11.827,0,0,1,5.457-1.059c-1.932-4.611-3.812-8.592-2.963-13.78.789-4.82,3.227-10.338,9.3-10.612l.8-.069c1.4-10.589,2.852-21.6,5.377-32.278Q30.965,65.906,33.616,55.3c.469-1.88,2.846-13.23,5.392-11.576,2.331,1.514-1.479,13.051-1.868,15.417.479-1.628,4.926-19.836,8.162-17.875,1.854,1.123,1.3,6.575.466,11.427,1.783-7.421,5.009-17.107,8.374-13.828,1.894,1.846-.314,8.468-.824,10.612-.721,3.028-1.57,5.988-2.516,8.918,3.065-5.337,9.13-8.316,14.632-2.751,1.338,1.354,4.634,7.249,3.237,9.263-2.165,3.12-4.4-1.785-6.586-3.709-2.694-2.371-6.347.756-7.672,3.423-1.492,3-1.8,9.243-.768,12.463,1.56,4.85,6.716,5,9.546,1.236.889-1.182.975-2.94,2.317-3.551a2.706,2.706,0,0,1,3.92,1.5C70.7,79.758,67.491,84.4,64,87.286s-11.919,3.642-16.11.792c-.416,6.226-.361,12.44-.591,18.622l.6-.053c3.607.489,5.816,3.825,5.118,8.344-.547,3.545-1.27,8.284-3.011,11.67,1.344-1.475,3.9-2.176,5.222-.8,3.216,3.335-1.6,12.679-2.983,15.888.238-.4,1.016-.792,1.375-1.15,7.209,5.845.078,19.642-1.417,26.566,2.067-3.625,4.09-3.079,5.629-1.57a12.916,12.916,0,0,1,3.151,5.48c.095.447.2.92.306,1.4a34.64,34.64,0,0,1,6.681-9.213c3.288-3.014,7.672-5.206,11.885-1.275a35.467,35.467,0,0,1,4.829-9.548,28.3,28.3,0,0,1,6.439-6.3l.094.023c-.1-7.155-.317-15.695-.6-23.108a3.518,3.518,0,0,1-1.078-.14,15.319,15.319,0,0,1-6.123-7.856c-2.479-.271-4.725-1.082-5.989-3.44-2.521-4.7.4-7.046,4.234-8.091,0-.131,0-.263,0-.394.013-3.45.53-7.154,2.821-9.885A8.682,8.682,0,0,1,90.2,90.1a5.208,5.208,0,0,1,2.009-4.7c1.973-1.59,4.716-2,7.173-2.117,6.1-.28,12.109,1.976,18.212,1.1a1.1,1.1,0,0,1,.844,2q-1.825,1.167-3.751,2.145c4.876,1.171,9.657,2.919,13.98,4.169a99.932,99.932,0,0,1,12.493,4.658c-3.753,2.011-20.4,7.165-20.4,7.165s1.15,11.248,1.6,15.577c.447,4.28,1.778,16.818,2.494,23.571a78.816,78.816,0,0,1,18.816,7.405,171.737,171.737,0,0,1,16.363,10.388q1.011-1.233,1.978-2.515a113.417,113.417,0,0,0,20.577-46.679c2.9-15.531,1.966-31.845-4.123-46.524m-48.707-6.338c-5.072,1.639-8.916,2.775-14.111,3.973-6.9,1.591-13.566,3.193-20.55,4.384-6.247,1.066-13.34,2.268-19.591,3.014-3.1.37-10.412,2.192-10.412.274.4-3.6,16.435-6.85,16.435-6.85s-2.392-9.2-3.146-12.7c-1.159-5.374-2.621-11.448-1.647-17.032A8.884,8.884,0,0,1,87.568,27.5a9.941,9.941,0,0,1,3.714,1.93c1.585-1.96,3.863-3.843,6.418-3.8,5.426.093,8.675,7.613,10.863,11.72,3.305,6.2,4.847,13.276,7.5,19.462,0,0,7.82-1.125,12.193-1.918,2.454-.445,9.938-2.651,10.823-.685s-6.689,4.357-9.316,5.206" transform="translate(0 0)" fill="#f4f6f9"/>
      <path id="Path_99741" data-name="Path 99741" d="M12.3,441.195c-.479-4.341-1.134-9.26.959-13.289a10.151,10.151,0,0,1,5.8-5.1,11.829,11.829,0,0,1,5.457-1.059c-1.932-4.611-3.812-8.592-2.963-13.78.789-4.82,3.227-10.338,9.3-10.612" transform="translate(-8.574 -288.48)" fill="none" stroke="#333" stroke-linecap="round" stroke-linejoin="round" stroke-width="2"/>
      <path id="Path_99742" data-name="Path 99742" d="M174.839,389.225c3.607.489,5.816,3.825,5.118,8.344-.621,4.025-1.467,9.591-3.775,12.967.681-2.262,4.316-3.832,5.987-2.1,3.216,3.336-1.6,12.679-2.983,15.888.238-.4,1.016-.791,1.375-1.15,7.209,5.845.077,19.642-1.417,26.566,2.067-3.625,4.09-3.079,5.629-1.57a12.917,12.917,0,0,1,3.151,5.48,70.373,70.373,0,0,1,1.37,7.261,9.216,9.216,0,0,1-.706,3.932c-.7,1.3-2.211.9-2.86-.233-1.094-1.907.812-6.015,1.648-7.824a36.5,36.5,0,0,1,7.534-10.946c3.288-3.014,7.672-5.206,11.885-1.275a35.463,35.463,0,0,1,4.829-9.548,28.292,28.292,0,0,1,6.439-6.3c8.9,2.192,16.038,3.091,20.413,2.892a22.858,22.858,0,0,0,13.289-5.358,78.767,78.767,0,0,1,18.844,7.412,167.591,167.591,0,0,1,25.544,17.522" transform="translate(-126.933 -282.577)" fill="none" stroke="#333" stroke-linecap="round" stroke-linejoin="round" stroke-width="2"/>
      <path id="Path_99743" data-name="Path 99743" d="M514.758,624.355A67.879,67.879,0,0,0,498.592,626" transform="translate(-361.978 -453.282)" fill="none" stroke="#333" stroke-linecap="round" stroke-linejoin="round" stroke-width="2"/>
      <path id="Path_99744" data-name="Path 99744" d="M525.592,617.355c1.041,2.368,1.1,9.864,1.1,9.864" transform="translate(-381.58 -448.2)" fill="none" stroke="#333" stroke-linecap="round" stroke-linejoin="round" stroke-width="2"/>
      <path id="Path_99745" data-name="Path 99745" d="M535.592,614.355c1.77,2.022,1.635,5.3,1.644,7.946" transform="translate(-388.84 -446.022)" fill="none" stroke="#333" stroke-linecap="round" stroke-linejoin="round" stroke-width="2"/>
      <path id="Path_99746" data-name="Path 99746" d="M402.612,591.355c-1.468,3.837-3.781,10.413-1.971,14.248,1.642,3.479,5.3,2.426,7.449,5.739,1.321,2.04,1.518,4.5,1.92,6.865" transform="translate(-290.384 -429.324)" fill="none" stroke="#333" stroke-linecap="round" stroke-linejoin="round" stroke-width="2"/>
      <path id="Path_99747" data-name="Path 99747" d="M327.592,545.739c3.028,3.786,8.45,9.67,13.426,9.727,5.208.059,6.965-4.78,10.138-8.247,1.806,2.824,4.241,7.215,8.233,5.377,3.537-1.629,5.793-7.62,5.741-11.241" transform="translate(-237.832 -393.024)" fill="none" stroke="#333" stroke-linecap="round" stroke-linejoin="round" stroke-width="2"/>
      <path id="Path_99748" data-name="Path 99748" d="M293.8,377.415c-.035-10.253-.313-20.593-.863-30.921-4.366-.246-10.41.926-12.837-3.6-3.653-6.818,4.121-8.675,9.548-8.812.958-6.1,3.756-11.386,10.015-13.964,10.151-4.181,22.05,1.085,31.675,3.867a99.933,99.933,0,0,1,12.493,4.658c-3.753,2.011-20.4,7.165-20.4,7.165s1.15,11.248,1.6,15.577c.624,5.968,2.466,23.564,2.466,23.564" transform="translate(-202.665 -231.276)" fill="none" stroke="#333" stroke-linecap="round" stroke-linejoin="round" stroke-width="2"/>
      <line id="Line_437" data-name="Line 437" x2="0.822" y2="2.74" transform="translate(106.474 99.285)" fill="none" stroke="#333" stroke-linecap="round" stroke-linejoin="round" stroke-width="2"/>
      <line id="Line_438" data-name="Line 438" x2="0.822" y2="2.466" transform="translate(111.132 98.737)" fill="none" stroke="#333" stroke-linecap="round" stroke-linejoin="round" stroke-width="2"/>
      <path id="Path_99749" data-name="Path 99749" d="M392.592,404.355c1.416,2.069,3.776,2.016,6.3,1.37" transform="translate(-285.022 -293.562)" fill="none" stroke="#333" stroke-linecap="round" stroke-linejoin="round" stroke-width="2"/>
      <path id="Path_99750" data-name="Path 99750" d="M299.466,396.91a32.906,32.906,0,0,1,4.179.792" transform="translate(-217.412 -288.157)" fill="none" stroke="#333" stroke-linecap="round" stroke-linejoin="round" stroke-width="2"/>
      <path id="Path_99751" data-name="Path 99751" d="M82.592,213.4c1.549-11.6,3.029-23.828,5.822-35.635q2.513-10.622,5.164-21.226c.469-1.88,2.846-13.23,5.392-11.576,2.331,1.514-1.478,13.051-1.868,15.417.479-1.628,4.926-19.836,8.162-17.875,3.125,1.893-.586,16.08-.964,18.971,0-1.9,4.743-26.3,9.8-21.372,1.894,1.846-.314,8.468-.824,10.612a130.621,130.621,0,0,1-4.4,14.391c1.12-8.135,9.3-15.518,16.513-8.224,1.339,1.354,4.634,7.249,3.237,9.263-2.165,3.12-4.4-1.785-6.586-3.709-2.694-2.371-6.347.756-7.671,3.423-1.492,3-1.8,9.244-.769,12.463,1.56,4.85,6.716,5,9.546,1.236.889-1.182.975-2.94,2.317-3.551a2.706,2.706,0,0,1,3.92,1.5c1.274,3.489-1.937,8.133-5.424,11.017s-11.919,3.642-16.11.793c-.425,6.354-.356,12.7-.6,19.005-.088,2.245-.189,3.221-2.7,3.762-2.93.631-6.734,1.218-9.9,1.591C91.2,214.084,83.615,213.995,82.592,213.4Z" transform="translate(-59.962 -101.241)" fill="none" stroke="#333" stroke-linecap="round" stroke-linejoin="round" stroke-width="2"/>
      <path id="Path_99752" data-name="Path 99752" d="M90.592,351.821c3.558.494,6.848-.053,10.412-.267,4.471-.268,7.881-1.422,12.33-2.2" transform="translate(-65.77 -253.632)" fill="none" stroke="#333" stroke-linecap="round" stroke-linejoin="round" stroke-width="2"/>
      <path id="Path_99753" data-name="Path 99753" d="M268.554,102.813c-1.74-2.983-5.262-6.649-8.494-7.392a8.884,8.884,0,0,0-10.826,6.981c-.974,5.584.488,11.658,1.647,17.032.755,3.5,3.147,12.7,3.147,12.7s-16.034,3.247-16.436,6.85c0,1.918,7.311.1,10.412-.274,6.251-.746,13.344-1.948,19.591-3.014,6.984-1.191,13.653-2.793,20.55-4.384,5.2-1.2,9.039-2.334,14.111-3.973,2.627-.849,10.2-3.24,9.316-5.206s-8.369.24-10.823.685c-4.373.793-12.193,1.918-12.193,1.918-2.654-6.186-4.2-13.258-7.5-19.462-2.188-4.107-5.437-11.627-10.863-11.72-2.555-.044-4.833,1.84-6.418,3.8" transform="translate(-172.492 -67.918)" fill="none" stroke="#333" stroke-linecap="round" stroke-linejoin="round" stroke-width="2"/>
      <path id="Path_99754" data-name="Path 99754" d="M304.45,419.918a15.316,15.316,0,0,0,6.123,7.856,1.017,1.017,0,0,0,.915.081c0-2.592-.053-5.184-.191-7.776-2.092-.118-4.568.088-6.848-.161" transform="translate(-221.031 -304.861)" fill="#333"/>
      <path id="Path_99755" data-name="Path 99755" d="M333.971,305.018c-6.1.875-12.11-1.381-18.212-1.1-2.458.113-5.2.527-7.173,2.117a5.209,5.209,0,0,0-2.009,4.7,8.681,8.681,0,0,0-5.716,3.143c-2.29,2.731-2.808,6.435-2.821,9.885,0,.131,0,.262,0,.394a22.88,22.88,0,0,1,5.21-.716c.205.85.433,1.695.652,2.532a30.028,30.028,0,0,0,2.5,6.7,1.108,1.108,0,0,0,1.893,0c2.577-3.8,5.4-7.861,6.3-12.452a8.215,8.215,0,0,0-.454-5.326,4.711,4.711,0,0,0-.674-.978,44.332,44.332,0,0,0,21.352-6.895,1.1,1.1,0,0,0-.844-2" transform="translate(-216.377 -220.626)" fill="#333"/>
      <path id="Path_99756" data-name="Path 99756" d="M392.086,184.278s3.811-.465,5.62-.7" transform="translate(-284.655 -133.277)" fill="none" stroke="#333" stroke-linecap="round" stroke-linejoin="round" stroke-width="2"/>
      <path id="Path_99757" data-name="Path 99757" d="M296.092,205.068A281.272,281.272,0,0,1,325,199.177c1.339-.183,3.488-.137,4.658-.822" transform="translate(-214.963 -144.006)" fill="none" stroke="#333" stroke-linecap="round" stroke-linejoin="round" stroke-width="2"/>
      <path id="Path_99758" data-name="Path 99758" d="M292.592,194.824c2.549-1.411,7.219-2.658,9.868-3.284,3.164-.748,7.933-1.344,12.344-2.2" transform="translate(-212.422 -137.461)" fill="none" stroke="#333" stroke-linecap="round" stroke-linejoin="round" stroke-width="2"/>
    </g>
  </g>
</svg>
