<svg id="Family_oriented_people_" data-name="Family oriented people " xmlns="http://www.w3.org/2000/svg" width="40" height="31.652" viewBox="0 0 40 31.652">
  <circle id="Ellipse_663" data-name="Ellipse 663" cx="3.034" cy="3.034" r="3.034" transform="translate(15.967 13.163)" fill="#026dd5"/>
  <ellipse id="Ellipse_664" data-name="Ellipse 664" cx="3.8" cy="5.813" rx="3.8" ry="5.813" transform="translate(15.202 20.025)" fill="#026dd5"/>
  <circle id="Ellipse_665" data-name="Ellipse 665" cx="5.194" cy="5.194" r="5.194" transform="translate(1.311)" fill="#026dd5"/>
  <ellipse id="Ellipse_666" data-name="Ellipse 666" cx="6.506" cy="9.952" rx="6.506" ry="9.952" transform="translate(0 11.749)" fill="#026dd5"/>
  <circle id="Ellipse_667" data-name="Ellipse 667" cx="5.194" cy="5.194" r="5.194" transform="translate(27.013)" fill="#026dd5"/>
  <path id="Path_28453" data-name="Path 28453" d="M66.629,41.166c-4.306,0-7.795,8.054-7.795,10.652a3.977,3.977,0,0,0,2.1,3.205c.882,3.729,3.1,6.38,5.7,6.38s4.813-2.651,5.694-6.38a3.976,3.976,0,0,0,2.1-3.205C74.423,49.22,70.934,41.166,66.629,41.166Z" transform="translate(-34.422 -29.752)" fill="#026dd5"/>
</svg>
