<svg xmlns="http://www.w3.org/2000/svg" width="23.072" height="36.135" viewBox="0 0 23.072 36.135">
  <g id="Female_Adults" data-name="Female Adults" transform="translate(0 0)">
    <path id="Path_28435" data-name="Path 28435" d="M37.495,45.884a4.635,4.635,0,0,0-7.929,0L22.682,57.234a4.64,4.64,0,0,0,3.945,7.044H40.433a4.621,4.621,0,0,0,3.945-7.044Z" transform="translate(-21.997 -28.143)" fill="#026dd5"/>
    <path id="Path_28436" data-name="Path 28436" d="M44.473,16.666l1.288-1.248a5.612,5.612,0,0,0,.845-7h0a7.043,7.043,0,0,0-11.995.121h0a5.6,5.6,0,0,0,.805,6.8l1.208,1.208A5.54,5.54,0,0,0,44.473,16.666Z" transform="translate(-29.056 -5.124)" fill="#026dd5"/>
  </g>
</svg>
