<svg xmlns="http://www.w3.org/2000/svg" width="50" height="50" viewBox="0 0 50 50">
  <g id="Group_40243" data-name="Group 40243" transform="translate(-71 -184)">
    <rect id="Rectangle_7018" data-name="Rectangle 7018" width="50" height="50" rx="6" transform="translate(71 184)" fill="#e2edf8"/>
    <g id="Group_40242" data-name="Group 40242" transform="translate(3 3)">
      <path id="tune_24dp_E3E3E3_FILL1_wght300_GRAD0_opsz24" d="M140.6-806.819V-814.1h1.989v2.649h10.6v1.987h-10.6v2.649ZM130-809.468v-1.987h7.286v1.987Zm5.3-5.3v-2.647H130V-819.4h5.3v-2.649h1.987v7.286Zm5.3-2.649V-819.4h12.586v1.987Zm5.3-5.3V-830h1.987v2.649h5.3v1.987h-5.3v2.649ZM130-825.363v-1.987h12.586v1.987Z" transform="translate(-48.592 1024.408)" fill="#006dd5"/>
      <path id="tune_24dp_E3E3E3_FILL1_wght300_GRAD0_opsz24_-_Outline" data-name="tune_24dp_E3E3E3_FILL1_wght300_GRAD0_opsz24 - Outline" d="M140.1-806.5v-8.1H142.9v2.649h10.6v2.8H142.9v2.649Zm.816-7.286v6.469h1.173v-2.649h10.6v-1.17h-10.6v-2.649Zm-3.312,4.636h-8.1v-2.8h8.1Zm-7.286-.816h6.469v-1.17h-6.469Zm7.285-4.479-2.8,0V-817.1h-5.3v-2.8h5.3v-2.649h2.8Zm-1.987-.819,1.17,0v-6.469h-1.17v2.649h-5.3v1.17h5.3ZM153.5-817.1H140.1v-2.8h13.4Zm-12.586-.816h11.77v-1.17h-11.77Zm4.482-4.481v-8.1h2.8v2.649h5.3v2.8h-5.3v2.649Zm.816-7.287v6.47h1.17v-2.649h5.3v-1.17h-5.3v-2.649Zm-3.308,4.637H129.5v-2.8h13.4Zm-12.586-.816h11.77v-1.17h-11.77Z" transform="translate(-48.5 1024.5)" fill="#006dd5"/>
    </g>
  </g>
</svg>
