<svg id="First_time_voters" data-name="First time  voters" xmlns="http://www.w3.org/2000/svg" width="24.04" height="36.082" viewBox="0 0 24.04 36.082">
  <path id="Path_28430" data-name="Path 28430" d="M41.485,49.137a.8.8,0,0,0-.773-.577H21.964a.8.8,0,0,0-.769.577L19.32,55.548V66.766a.4.4,0,0,0,.4.4H42.959a.4.4,0,0,0,.4-.4V55.548h0ZM37.75,52.543H24.929a.6.6,0,0,1,0-1.2H37.75a.6.6,0,1,1,0,1.2Z" transform="translate(-19.32 -31.085)" fill="#026dd5"/>
  <rect id="Rectangle_6720" data-name="Rectangle 6720" width="1.603" height="1.603" rx="0.5" transform="matrix(0.94, -0.342, 0.342, 0.94, 7.858, 8.83)" fill="#026dd5"/>
  <path id="Path_28432" data-name="Path 28432" d="M44.662,10.576a.4.4,0,0,0-.224-.208l-7.092-2.58a.4.4,0,0,0-.513.24l-1.41,3.878L32.979,5.219a.4.4,0,0,0-.513-.252L25.375,7.559a.4.4,0,0,0-.24.513l3.874,10.642a.4.4,0,0,0,.513.24l3.842-1.4-.4,1.122a.4.4,0,0,0,.24.513l7.088,2.58a.4.4,0,0,0,.513-.24l3.874-10.642a.4.4,0,0,0-.016-.313ZM29.622,18.064l-3.6-9.892,6.338-2.3,2.624,7.212L33.72,16.586Zm10.565,2.8-6.342-2.28L37.451,8.7l6.334,2.276Z" transform="translate(-22.79 -4.944)" fill="#026dd5"/>
  <rect id="Rectangle_6721" data-name="Rectangle 6721" width="1.51" height="1.51" rx="0.47" transform="matrix(0.342, -0.94, 0.94, 0.342, 14.412, 12.064)" fill="#026dd5"/>
</svg>
