<svg xmlns="http://www.w3.org/2000/svg" xmlns:xlink="http://www.w3.org/1999/xlink" width="24" height="24" viewBox="0 0 24 24">
  <defs>
    <clipPath id="clip-path">
      <rect id="Rectangle_10" data-name="Rectangle 10" width="24" height="24" fill="#fff"/>
    </clipPath>
  </defs>
  <g id="Mask_Group_14" data-name="Mask Group 14" clip-path="url(#clip-path)">
    <g id="Group_37601" data-name="Group 37601" transform="translate(-1096.427 -538.999)">
      <path id="Path_99826" data-name="Path 99826" d="M21.255,1.514c-.393,0-.764-.007-1.136,0a1.444,1.444,0,0,0-.446.079c-.914.335-1.828.679-2.742,1.019-.228.083-.228.085-.228.331v9.51c0,.2,0,.2-.2.2H10.793c-.053,0-.137.009-.153.04-.066.131-.176.129-.292.129H7.957c-.142,0-.343-.041-.409.033s-.024.279-.045.423a.584.584,0,0,1-.09.286c-.308.364-.631.715-.947,1.072l-1.858,2.08A.7.7,0,0,1,4,17c-.289-.022-.582,0-.873-.008-.147,0-.185.046-.184.189.006.987,0,1.975,0,2.962a.428.428,0,0,1-.05.216c-.074.114-.169.228-.254.337q-.318.422-.633.845c-.441.59-.868,1.2-1.333,1.766a.84.84,0,0,0-.155.594c0,.03.048.072.082.086a.353.353,0,0,0,.127.006H23.8a.633.633,0,0,0,.114,0,.106.106,0,0,0,.069-.039.847.847,0,0,0-.093-.571c-.071-.08-.133-.168-.2-.254.2-.126.213-.192.086-.362-.7-.931-1.4-1.86-2.091-2.8a.513.513,0,0,1-.1-.284c-.007-1.074,0-2.147,0-3.221V1.223a.163.163,0,0,1,.115-.183c.669-.234,1.331-.47,2-.709.114-.039.179-.1.15-.218-.025-.1-.127-.138-.259-.091-.722.257-1.443.518-2.171.771a.218.218,0,0,0-.173.242c.008.152,0,.3,0,.48M7.153,12.14V2.934c0-.228-.006-.24-.228-.32-.665-.248-1.34-.471-1.991-.749A4.113,4.113,0,0,0,2.918,1.51c-.1.009-.206,0-.324,0,0-.163-.008-.306,0-.448A.247.247,0,0,0,2.41.782C1.713.541,1.028.292.342.044.147-.023.056-.008.015.1s.016.19.214.259l1.925.685a.161.161,0,0,1,.131.179V19.729a.343.343,0,0,1-.064.194q-.914,1.222-1.828,2.44l-.343.457a.157.157,0,0,0,.023.24.163.163,0,0,0,.239-.042c.018-.022.034-.046.053-.069C1.079,22,1.8,21.044,2.506,20.086a.54.54,0,0,0,.1-.3c.007-.988,0-1.975,0-2.962v-.183c.4,0,.778-.009,1.158,0a.506.506,0,0,0,.423-.19q1.434-1.6,2.866-3.211a.492.492,0,0,0,.1-.266c.016-.165,0-.331,0-.508h2.954c.109,0,.179-.053.181-.159a.153.153,0,0,0-.176-.163H7.158" transform="translate(1096.427 539)" fill="#fff"/>
      <path id="Path_99827" data-name="Path 99827" d="M22.786,1.514c0-.176.006-.328,0-.48a.218.218,0,0,1,.171-.241C23.681.538,24.4.278,25.128.021c.133-.047.234-.013.259.091.03.122-.041.181-.15.218-.668.241-1.331.476-1.995.711a.162.162,0,0,0-.129.183V19.686a.515.515,0,0,0,.1.284c.692.935,1.393,1.865,2.091,2.794.128.17.114.235-.086.362.067.086.129.174.2.254a.847.847,0,0,1,.093.571.106.106,0,0,1-.069.039.632.632,0,0,1-.114,0H2.263a.359.359,0,0,1-.127,0c-.034-.014-.082-.056-.082-.086a.841.841,0,0,1,.155-.594c.463-.571.892-1.176,1.334-1.766l.633-.845c.085-.114.181-.218.254-.337a.428.428,0,0,0,.05-.216V17.184c0-.143.037-.193.184-.187.291.01.584-.014.873.008a.7.7,0,0,0,.6-.283q.925-1.042,1.853-2.082c.316-.356.64-.707.947-1.072a.582.582,0,0,0,.09-.286c.021-.144-.032-.343.045-.423s.267-.032.409-.033h2.39c.114,0,.228,0,.292-.129.016-.032.1-.04.153-.04h5.71c.2,0,.2,0,.2-.2v-9.5c0-.247,0-.247.228-.331.914-.343,1.828-.685,2.742-1.019a1.446,1.446,0,0,1,.446-.079c.371-.011.743,0,1.136,0M19.657,21.644c-.025-.093-.04-.158-.062-.219-.187-.56-.377-1.12-.562-1.681q-.736-2.224-1.466-4.456a.165.165,0,0,0-.191-.136c-.433.007-.865,0-1.3,0h-6.3a1.639,1.639,0,0,0-.2,0,.211.211,0,0,0-.2.2.625.625,0,0,1-.025.125q-.174.532-.351,1.065c-.129.387-.26.773-.39,1.161s-.267.8-.4,1.2c-.114.343-.228.692-.343,1.036-.139.409-.289.815-.427,1.224-.051.151-.083.308-.127.471ZM18.559,6.8v6.08a.352.352,0,0,0,.083.213q1.257,1.424,2.533,2.84a1.006,1.006,0,0,0,.08.07V6.8Zm4.218-4.943H21.6V16.3h1.174Zm-1.513.071-.15.053c-.808.3-1.615.6-2.424.9a.173.173,0,0,0-.134.2q0,1.618,0,3.234v.139h2.705ZM17.874,15.142c.01.041.018.082.032.122l1.9,5.691c.085.252.17.5.25.76.054.171-.01.255-.186.257H7.362c-.114,0-.2.013-.21.147a.2.2,0,0,0,.206.207H20.093a.87.87,0,0,0,.171-.008.2.2,0,0,0,.16-.267c-.17-.484-.343-.969-.506-1.457q-.647-1.931-1.284-3.865c-.157-.474-.307-.951-.457-1.427a.228.228,0,0,0-.3-.158m3.531,1.507c.131.184.254.343.487.343h.6c.343,0,.3.03.292-.312,0-.008-.007-.016-.015-.032Z" transform="translate(1094.895 539)"/>
      <path id="Path_99828" data-name="Path 99828" d="M7.159,12.153h2.956a.153.153,0,0,1,.176.163c0,.106-.072.159-.181.159H7.159c0,.178.011.343,0,.508a.492.492,0,0,1-.1.266Q5.63,14.861,4.192,16.464a.5.5,0,0,1-.423.19c-.38-.014-.761,0-1.158,0V19.8a.542.542,0,0,1-.1.3Q1.432,21.529.359,22.963c-.017.023-.033.046-.051.069a.163.163,0,0,1-.239.042.157.157,0,0,1-.023-.24q.171-.231.343-.457l1.828-2.44a.343.343,0,0,0,.064-.194q0-9.254,0-18.508a.161.161,0,0,0-.129-.184C1.509.825.868.594.228.366.031.3-.03.227.015.106S.147-.014.343.054c.685.247,1.371.5,2.068.738a.247.247,0,0,1,.2.283c-.01.142,0,.284,0,.448.114,0,.222.008.324,0a4.113,4.113,0,0,1,2.015.354c.651.279,1.326.5,1.991.749.217.081.228.089.228.32v9.206M4.139,6.809v9.184a.153.153,0,0,0,.088-.069q1.268-1.417,2.534-2.84a.334.334,0,0,0,.066-.206V6.955a1.094,1.094,0,0,0-.007-.146Zm-1.522,9.5H3.788V1.86H2.617ZM4.132,1.933V6.458H6.817a.2.2,0,0,0,.011-.038V3.031a.179.179,0,0,0-.1-.126c-.175-.075-.355-.136-.534-.2L4.132,1.933" transform="translate(1096.427 538.991)"/>
      <path id="Path_99829" data-name="Path 99829" d="M35.1,66.074H22.762c.043-.162.077-.32.127-.471.138-.409.288-.815.427-1.224.114-.343.228-.685.343-1.036q.2-.6.4-1.2c.129-.387.26-.773.39-1.161q.177-.531.351-1.064a.631.631,0,0,0,.024-.125.211.211,0,0,1,.2-.2,1.588,1.588,0,0,1,.2,0H32.82a.165.165,0,0,1,.191.136q.729,2.227,1.466,4.456c.185.561.376,1.12.563,1.679.021.063.035.127.062.219M26.013,62.5c.061-.222.125-.44.178-.66a.852.852,0,0,1,.353-.5,1.22,1.22,0,0,1,.813-.214.539.539,0,0,1,.535.6c-.017.4-.043.8-.073,1.2-.025.343-.064.685-.093,1.021a.176.176,0,0,0,.16.215c.12.011.182-.066.191-.184.057-.765.123-1.53.166-2.3a.773.773,0,0,0-.427-.753,1.323,1.323,0,0,0-.73-.155,1.363,1.363,0,0,0-1.22.889c-.21.736-.407,1.476-.608,2.215-.043.16,0,.259.114.289s.2-.049.238-.193l.3-1.115c.014-.051.03-.1.034-.114a1.7,1.7,0,0,0,.31.072c.262.009.523,0,.785,0h.586c.1,0,.183-.055.171-.149-.008-.069-.082-.134-.136-.191-.017-.018-.064-.011-.1-.011H26.523c-.166,0-.33.027-.515.043m4.54,1.658v-.023c.171,0,.343.011.514,0a1.181,1.181,0,0,0,1.112-1.545c-.055-.229-.121-.45-.178-.676A1.414,1.414,0,0,0,30.88,60.83a5.555,5.555,0,0,0-1.12-.072c-.242,0-.282.045-.266.29.025.4.059.807.09,1.211.042.555.082,1.112.128,1.667.015.186.085.229.272.229h.571" transform="translate(1079.453 494.559)" fill="#fff"/>
      <path id="Path_99830" data-name="Path 99830" d="M66.987,26.746h2.7v9.2a.968.968,0,0,1-.08-.07q-1.268-1.419-2.533-2.84a.352.352,0,0,1-.083-.212q-.007-2.976,0-5.953v-.127m.192,4.207c-.042.045-.109.083-.128.139-.034.095.029.159.114.2l1,.5,1.213.608c.105.053.2.047.255-.064s-.011-.181-.105-.228l-.051-.025-2.12-1.06c-.046-.023-.1-.038-.174-.067M69.49,29.4s.03,0,.039-.01c.043-.055.114-.114.114-.171.008-.1-.082-.138-.174-.153l-1.522-.255-.685-.114a.161.161,0,0,0-.207.128.154.154,0,0,0,.141.194l.1.019,1.169.2,1.028.169" transform="translate(1046.466 519.053)" fill="#fff"/>
      <rect id="Rectangle_8527" data-name="Rectangle 8527" width="1.174" height="14.449" transform="translate(1116.497 540.856)" fill="#fff"/>
      <path id="Path_99831" data-name="Path 99831" d="M69.685,7.577V12.1H66.979V8.724a.174.174,0,0,1,.134-.2c.81-.3,1.617-.6,2.424-.9l.15-.053m-2.508,3,.029-.024.155-.023,1.142-.192.971-.162c.107-.018.181-.08.159-.2s-.114-.145-.218-.128l-.056.01-.986.162-1.182.2c-.105.017-.176.082-.15.185.016.063.09.114.138.167" transform="translate(1046.474 533.348)" fill="#fff"/>
      <path id="Path_99832" data-name="Path 99832" d="M32.838,59.539a.229.229,0,0,1,.3.158c.151.476.3.953.457,1.427q.64,1.933,1.284,3.865c.163.487.336.971.506,1.457a.2.2,0,0,1-.16.267.85.85,0,0,1-.171.008H22.317a.2.2,0,0,1-.206-.207c.01-.135.1-.147.21-.147H34.828c.176,0,.24-.087.186-.257-.08-.254-.166-.506-.25-.76l-1.9-5.691c-.014-.04-.022-.081-.032-.122" transform="translate(1079.936 494.603)" fill="#fff"/>
      <path id="Path_99833" data-name="Path 99833" d="M78.19,65.5h1.363c.008.016.015.024.015.032,0,.343.049.308-.292.312h-.6c-.228,0-.356-.16-.487-.343" transform="translate(1038.11 490.148)" fill="#fff"/>
      <path id="Path_99834" data-name="Path 99834" d="M16.286,26.751h2.685c0,.054.007.1.007.146v5.924a.334.334,0,0,1-.066.206q-1.257,1.424-2.533,2.84a.154.154,0,0,1-.089.065Zm2.644,4.42c0-.169-.114-.228-.251-.173-.169.078-.332.165-.5.247l-1.725.86c-.1.05-.162.129-.105.242a.157.157,0,0,0,.228.065c.745-.371,1.485-.743,2.234-1.118.055-.027.09-.095.114-.122M16.472,29.43,16.5,29.4h.029l2.2-.366c.153-.025.217-.1.193-.21s-.114-.139-.254-.114q-.661.114-1.323.223l-.859.143c-.1.017-.182.077-.157.182.016.067.094.114.144.178" transform="translate(1084.28 519.049)" fill="#fff"/>
      <rect id="Rectangle_8528" data-name="Rectangle 8528" width="1.171" height="14.451" transform="translate(1099.044 540.85)" fill="#fff"/>
      <path id="Path_99835" data-name="Path 99835" d="M16.26,7.567l2.063.769c.178.066.359.127.534.2a.178.178,0,0,1,.1.126q0,1.695,0,3.39a.188.188,0,0,1-.011.038H16.26Zm.175,2.258c-.033.04-.114.094-.125.159-.022.125.081.168.189.185l2.171.359c.114.018.2,0,.235-.12s-.038-.176-.182-.2l-1.337-.228c-.3-.05-.6-.1-.948-.154" transform="translate(1084.299 533.356)" fill="#fff"/>
      <path id="Path_99836" data-name="Path 99836" d="M33.3,65.927c.185-.016.351-.04.515-.043.343-.007.7,0,1.044,0,.033,0,.08-.007.1.011.054.058.128.122.136.191.01.094-.07.149-.171.149h-.586c-.262,0-.524.007-.785,0a1.7,1.7,0,0,1-.31-.072c0,.015-.021.065-.034.114l-.3,1.115c-.039.144-.133.219-.238.193s-.163-.129-.114-.289c.2-.739.4-1.478.608-2.215a1.363,1.363,0,0,1,1.22-.889,1.326,1.326,0,0,1,.73.155.775.775,0,0,1,.427.753c-.041.767-.109,1.531-.166,2.3-.009.114-.07.2-.191.184a.176.176,0,0,1-.161-.215c.03-.343.067-.685.094-1.021.03-.4.056-.8.073-1.2a.539.539,0,0,0-.535-.6,1.22,1.22,0,0,0-.813.214.852.852,0,0,0-.353.5c-.054.22-.114.439-.178.66" transform="translate(1072.168 491.128)"/>
      <path id="Path_99837" data-name="Path 99837" d="M50.3,67.589h-.571c-.191,0-.256-.043-.272-.228-.046-.555-.086-1.112-.128-1.667-.031-.4-.064-.807-.089-1.21-.015-.246.024-.3.266-.29a5.572,5.572,0,0,1,1.12.072,1.414,1.414,0,0,1,1.115,1.086c.057.228.123.45.178.676a1.181,1.181,0,0,1-1.1,1.535c-.17.014-.343,0-.514,0v.023m-.51-.36c.3,0,.571.009.848,0a1.512,1.512,0,0,0,.444-.086.81.81,0,0,0,.514-.979c-.058-.246-.126-.489-.189-.732a1.142,1.142,0,0,0-.747-.8,2.39,2.39,0,0,0-.875-.085c-.2,0-.2.008-.185.2.038.494.073.988.114,1.485.025.332.051.664.079,1" transform="translate(1059.705 491.124)"/>
      <path id="Path_99838" data-name="Path 99838" d="M67.337,43.3c.077.03.127.043.174.067l2.12,1.06.051.025c.094.05.157.125.105.228s-.149.114-.255.064q-.605-.305-1.213-.608l-1-.5c-.086-.042-.147-.106-.114-.2.021-.056.086-.1.128-.139" transform="translate(1046.308 506.709)"/>
      <path id="Path_99839" data-name="Path 99839" d="M69.647,35.1l-1.028-.169-1.169-.2-.1-.019a.154.154,0,0,1-.141-.194.161.161,0,0,1,.207-.128l.685.114,1.522.255c.091.015.182.051.174.153,0,.061-.072.114-.114.171-.009.011-.035.009-.039.01" transform="translate(1046.303 513.352)"/>
      <path id="Path_99840" data-name="Path 99840" d="M67.352,17.209c-.048-.055-.122-.1-.138-.167-.026-.1.045-.168.15-.185l1.182-.2.986-.162.056-.01c.114-.018.2.013.218.128s-.051.177-.159.2c-.323.056-.648.109-.971.162l-1.142.192-.155.023-.029.024" transform="translate(1046.301 526.71)"/>
      <path id="Path_99841" data-name="Path 99841" d="M19.033,43.568c-.024.027-.059.095-.114.122-.743.376-1.485.747-2.234,1.118a.157.157,0,0,1-.228-.065c-.057-.114,0-.191.105-.242l1.725-.86c.166-.082.33-.169.5-.247.131-.061.246,0,.251.173" transform="translate(1084.172 506.652)"/>
      <path id="Path_99842" data-name="Path 99842" d="M16.586,35.136c-.05-.058-.128-.114-.144-.178-.025-.1.056-.165.157-.182l.859-.143q.661-.114,1.323-.223c.139-.024.228.016.254.114s-.04.185-.193.21l-2.2.366h-.029l-.031.026" transform="translate(1084.167 513.341)"/>
      <path id="Path_99843" data-name="Path 99843" d="M16.572,16.447c.343.056.648.1.948.154l1.337.228c.144.025.208.095.182.2-.032.126-.125.138-.235.12l-2.171-.359c-.106-.017-.209-.061-.189-.185.011-.065.091-.114.125-.159" transform="translate(1084.162 526.733)"/>
      <path id="Path_99844" data-name="Path 99844" d="M50.848,68.257c-.026-.343-.054-.669-.079-1-.038-.494-.072-.988-.114-1.485-.015-.2-.01-.206.185-.2a2.39,2.39,0,0,1,.875.085,1.142,1.142,0,0,1,.747.8c.063.244.13.487.189.732a.81.81,0,0,1-.514.979,1.511,1.511,0,0,1-.444.086c-.275.014-.551,0-.848,0" transform="translate(1058.648 490.097)" fill="#fff"/>
    </g>
  </g>
</svg>
