<svg xmlns="http://www.w3.org/2000/svg" width="34.468" height="31.367" viewBox="0 0 34.468 31.367">
  <g id="Food_enthusiasts_" data-name="Food enthusiasts " transform="translate(0)">
    <path id="Path_28289" data-name="Path 28289" d="M13.337.033A13.282,13.282,0,1,1,.056,13.314,13.283,13.283,0,0,1,13.337.033Zm0,3.471a9.811,9.811,0,1,1-9.811,9.81A9.811,9.811,0,0,1,13.337,3.5Z" transform="translate(-0.056 4.601)" fill="#026dd5" fill-rule="evenodd"/>
    <path id="Path_28291" data-name="Path 28291" d="M7.16,10.1c0,.658-1.771.708-2.1.919V30.517q-1.232,1.7-2.7,0V11.024c-.333-.213-2.1-.261-2.1-.919V.912C.25.555.824.3,1.64.158V8.525H2.98V.016c.471-.022.96-.021,1.43,0V8.525H5.75V.167c.827.15,1.41.4,1.41.746V10.1Z" transform="translate(27.307 0)" fill="#026dd5" fill-rule="evenodd"/>
    <path id="Path_28292" data-name="Path 28292" d="M8.78.065A8.691,8.691,0,1,1,.089,8.756,8.692,8.692,0,0,1,8.78.065Z" transform="translate(4.502 9.158)" fill="#026dd5" fill-rule="evenodd"/>
  </g>
</svg>
