<svg id="gym" xmlns="http://www.w3.org/2000/svg" width="38.887" height="34.163" viewBox="0 0 38.887 34.163">
  <path id="Path_28269" data-name="Path 28269" d="M75.685,72.7l-.542.181L73.2,73.6v5.875h2.44V72.7Z" transform="translate(-43.264 -45.361)" fill="#026dd5"/>
  <path id="Path_28270" data-name="Path 28270" d="M29.85,75.906,46.931,69.67h0l.316-.09L51.9,67.862a.366.366,0,0,0,.226-.5l-.316-.994a.371.371,0,0,0-.226-.226c-.045-.045-.09-.045-.181-.045a.166.166,0,0,0-.136.045L47.2,67.636,26.325,75.228a.35.35,0,0,0,.136.678Z" transform="translate(-17.447 -41.743)" fill="#026dd5"/>
  <path id="Path_28271" data-name="Path 28271" d="M7.246,73.247a4.677,4.677,0,1,1,8.631.362A4.673,4.673,0,0,1,7.246,73.247Z" transform="translate(-6.954 -42.202)" fill="#026dd5"/>
  <path id="Path_28272" data-name="Path 28272" d="M37.7,61.418a2.3,2.3,0,0,1-3.977,1.717,2.21,2.21,0,0,1-.633-1.717l.542-7.818a9.485,9.485,0,0,0,3.57,0l.316,4.88h0Z" transform="translate(-21.278 -34.892)" fill="#026dd5"/>
  <path id="Path_28273" data-name="Path 28273" d="M56.234,55.037a3.455,3.455,0,0,0-2.485-.542l-18.663,4.79c.181,2.8.181,2.666.181,2.847a2.841,2.841,0,0,1-.859,1.9,2.758,2.758,0,0,1-4.654-2.169l.09-1.22-.362.09a2.178,2.178,0,0,0-1.536,2.847l.633,1.762a2.147,2.147,0,0,0,2.757,1.31l20.877-7.592a1.014,1.014,0,0,1,1.356.949l.226,8a1.5,1.5,0,0,0,1.491,1.446h0a1.466,1.466,0,0,0,1.491-1.446l.5-10.665A2.848,2.848,0,0,0,56.234,55.037Z" transform="translate(-18.39 -35.38)" fill="#026dd5"/>
  <path id="Path_28274" data-name="Path 28274" d="M33.283,14.685A9.042,9.042,0,0,0,27,12.2a3.42,3.42,0,0,0-.678.045,9.211,9.211,0,0,0-.316,18.347,7,7,0,0,0,.994.045,9.209,9.209,0,0,0,6.281-15.952Zm-4.022,7.14a2.357,2.357,0,0,1-1.9,1.9h0c-.136,0-.271.045-.407.045a2.293,2.293,0,0,1-1.627-.678,2.25,2.25,0,0,1-.633-2.033,2.357,2.357,0,0,1,1.9-1.9,2.289,2.289,0,0,1,2.666,2.666Z" transform="translate(-12.881 -12.2)" fill="#026dd5"/>
</svg>
