<svg xmlns="http://www.w3.org/2000/svg" width="234" height="185.997" viewBox="0 0 234 185.997">
  <g id="Group_11" data-name="Group 11" transform="translate(0.042 -29.118)">
    <path id="Path_85" data-name="Path 85" d="M132.265,78.367c.27,0,.54-.269.719-.628a3.924,3.924,0,0,1,.809-.988.84.84,0,0,1,.9-.09l.36.359a2.018,2.018,0,0,1,.449.988.968.968,0,0,1,.091.449c0,.18.09.269.09.539v.269h-.18a1.14,1.14,0,0,1-.539-.09,2.634,2.634,0,0,1-.81-.18,3.9,3.9,0,0,1-1.079-.449c-.269,0-.539-.269-.809-.18q-.4,0-.539.808a2.732,2.732,0,0,0,1.079,2.155,3.749,3.749,0,0,0,1.439.808c.269.09.449.18.719.269l.179.09.36.09c.18,0,.45.09.719.09A2.858,2.858,0,0,0,138.74,81.6a3.431,3.431,0,0,0,.539-1.436V78.726a3.193,3.193,0,0,0-.179-.9c-.091-.269-.18-.539-.27-.9a5.484,5.484,0,0,0-1.17-1.975,3.542,3.542,0,0,0-2.248-1.257,3.48,3.48,0,0,0-3.6,1.8,3.792,3.792,0,0,0-.27,2.334A.843.843,0,0,0,132.265,78.367Z" transform="translate(3.441 -2.43)" fill="#1b1b1b"/>
    <path id="Path_86" data-name="Path 86" d="M135.313,31.483c.27,0,.54-.269.719-.628a3.93,3.93,0,0,1,.81-.988.839.839,0,0,1,.9-.09l.36.359a2.027,2.027,0,0,1,.45.988.977.977,0,0,1,.09.449c0,.18.09.269.09.539v.269h-.179a1.144,1.144,0,0,1-.54-.09,2.628,2.628,0,0,1-.809-.179,3.886,3.886,0,0,1-1.079-.449c-.27,0-.54-.269-.81-.18q-.4,0-.539.808a2.738,2.738,0,0,0,1.079,2.155,3.749,3.749,0,0,0,1.439.808c.27.09.449.18.719.269l.18.09.36.09c.179,0,.449.09.719.09a2.857,2.857,0,0,0,2.518-1.077,3.418,3.418,0,0,0,.539-1.436V31.842a3.193,3.193,0,0,0-.179-.9c-.09-.269-.18-.539-.27-.9a5.5,5.5,0,0,0-1.169-1.975,3.546,3.546,0,0,0-2.249-1.257,3.48,3.48,0,0,0-3.6,1.8,3.8,3.8,0,0,0-.27,2.334A.844.844,0,0,0,135.313,31.483Z" transform="translate(-23.11 4.769)" fill="#a8a8a8"/>
    <path id="Path_87" data-name="Path 87" d="M93.814,84.066a.9.9,0,0,0,.36.449,2.835,2.835,0,0,0,1.529.808c.36.09,1.079.269,1.169-.09.09-.269-.18-.718-.36-.988-.45-.808-1.349-1.885-2.338-1.8C93.455,82.54,93.455,83.348,93.814,84.066Z" transform="translate(-5.243 -3.687)" fill="#fff"/>
    <path id="Path_88" data-name="Path 88" d="M93.786,84.023a1.414,1.414,0,0,0-.09-.359V83.3c0-.18.09-.269.27-.359.09-.09.18,0,.27.09l.27.269c.18.18.629.449.989.808.09.09.18.18.18.269.09.09.09.18.18.269l.09.18s.09.18.09.09H95.4a3.869,3.869,0,0,1-1.079-.18,3.424,3.424,0,0,1-.54-.449c.09-.18,0-.269,0-.269a.694.694,0,0,0,.09.269,2.071,2.071,0,0,0,.45.628,2.817,2.817,0,0,0,.989.718c.09.09.18.09.36.09s.18.09.45.09A.874.874,0,0,0,97.2,85.28v-.359a.539.539,0,0,0-.09-.359c0-.18-.09-.18-.09-.269l-.09-.269c-.09-.09-.09-.269-.18-.359s-.09-.269-.18-.359a3,3,0,0,0-1.619-1.526,1.742,1.742,0,0,0-1.169,0,1.066,1.066,0,0,0-.719.9,1.748,1.748,0,0,0,.09.718c.09.18.09.269.18.359A2,2,0,0,1,93.786,84.023Z" transform="translate(-5.214 -3.644)" fill="#1b1b1b"/>
    <path id="Path_89" data-name="Path 89" d="M86.967,68.362c-.36-2.155,1.349-3.681,3.687-3.411a8.113,8.113,0,0,1,5.755,4.758c.809,2.244-.45,4.219-2.608,4.219a4.264,4.264,0,0,0-1.529.09c-.989.269-1.169,1.526-.719,2.693A12.755,12.755,0,0,0,93.8,80.032" transform="translate(-4.87 -2.706)" fill="#fff"/>
    <path id="Path_90" data-name="Path 90" d="M93.8,80.113l-.18-.18c-.09-.18-.27-.359-.45-.628s-.36-.628-.629-.988c-.18-.449-.45-.9-.629-1.347a2.262,2.262,0,0,1-.09-1.526A.632.632,0,0,1,92.18,75c.09-.09.27-.09.629-.09a6.7,6.7,0,0,0,1.349,0,4.431,4.431,0,0,0,1.529-.539,3.551,3.551,0,0,0,1.619-2.873,3.484,3.484,0,0,0-.18-1.347,4.507,4.507,0,0,0-.45-1.167,8.983,8.983,0,0,0-1.8-2.244A8.659,8.659,0,0,0,92.629,65.3a5.163,5.163,0,0,0-2.248-.539,3.586,3.586,0,0,0-1.978.449,2.45,2.45,0,0,0-1.169,1.167,2.171,2.171,0,0,0-.36,1.167v.718c0,.18,0,.269.09.269v-.269a2.227,2.227,0,0,1,.09-.718,3.447,3.447,0,0,1,.45-1.077,2.411,2.411,0,0,1,1.169-.9,3.981,3.981,0,0,1,1.8-.18,5.873,5.873,0,0,1,1.978.718,8.19,8.19,0,0,1,3.237,3.5,1.729,1.729,0,0,1,.27.9,1.526,1.526,0,0,1,0,.9,2.508,2.508,0,0,1-.989,1.616,1.521,1.521,0,0,1-.9.269c-.27.09-.629,0-1.079.09a2.69,2.69,0,0,0-1.529.449,1.846,1.846,0,0,0-.719,1.347,3.221,3.221,0,0,0,.54,2.154,7.809,7.809,0,0,0,1.888,2.155Z" transform="translate(-4.868 -2.697)" fill="#1b1b1b"/>
    <path id="Path_91" data-name="Path 91" d="M130.27,221.9c35.879,0,65.014-9.336,65.014-20.019s-29.045-19.3-64.924-19.391c-35.879,0-65.014,8.528-65.014,19.211C65.256,212.389,94.3,221.814,130.27,221.9Z" transform="translate(-3.662 -9.29)" fill="#1b1b1b"/>
    <path id="Path_92" data-name="Path 92" d="M62,210.224c.09-.179-.629-.717-1.8-1.885a13.4,13.4,0,0,1-1.978-2.334,6.148,6.148,0,0,1-1.079-3.681,6.381,6.381,0,0,1,2.248-4.13,19.274,19.274,0,0,1,5.036-3.5A69.952,69.952,0,0,1,79,189.4a190.5,190.5,0,0,1,40.915-5.3,209.079,209.079,0,0,1,24.638.628,161.332,161.332,0,0,1,26.257,4.22,66.345,66.345,0,0,1,10.341,3.412,32.075,32.075,0,0,1,8.993,5.3,12.106,12.106,0,0,1,1.079,1.077c.179.179.27.359.449.538a1.447,1.447,0,0,1,.36.629,5.359,5.359,0,0,1,.9,2.424,6.343,6.343,0,0,1-2.068,4.758,18.689,18.689,0,0,1-4.946,3.681,42.107,42.107,0,0,1-5.756,2.693,96.422,96.422,0,0,1-11.96,3.681,112.952,112.952,0,0,1-11.78,2.244,217.624,217.624,0,0,1-41.274,1.886,228.306,228.306,0,0,1-27.426-2.874c-6.384-1.077-9.891-1.885-9.981-1.615s3.327,1.525,9.622,3.052a170.926,170.926,0,0,0,27.606,3.95,205.721,205.721,0,0,0,41.9-1.256,117.85,117.85,0,0,0,12.049-2.245,81.692,81.692,0,0,0,12.41-3.77,42.039,42.039,0,0,0,6.114-2.873,28.281,28.281,0,0,0,5.755-4.309,12.183,12.183,0,0,0,2.249-3.231,7.23,7.23,0,0,0,.719-4.13,8.286,8.286,0,0,0-1.349-3.95l-.539-.808a4.992,4.992,0,0,0-.63-.808c-.45-.448-.9-.987-1.349-1.346a33.723,33.723,0,0,0-9.982-5.925,89.5,89.5,0,0,0-10.79-3.591,153.094,153.094,0,0,0-26.887-4.219,237.282,237.282,0,0,0-25.089-.449,180.791,180.791,0,0,0-41.454,6.1A68.034,68.034,0,0,0,63.173,192.9a20.476,20.476,0,0,0-5.305,4.13,8.22,8.22,0,0,0-2.428,5.3,7.209,7.209,0,0,0,1.619,4.4,13.145,13.145,0,0,0,2.338,2.244C61.015,210.045,61.914,210.4,62,210.224Z" transform="translate(-3.107 -9.191)" fill="#1b1b1b"/>
    <path id="Path_93" data-name="Path 93" d="M73.86,66.523c-.27,0-.809,2.514-.629,7.182a45.957,45.957,0,0,0,5.755,19.032A34.588,34.588,0,0,0,82.853,98.3a27.036,27.036,0,0,0,5.575,4.937,15.121,15.121,0,0,0,7.823,2.693,12.841,12.841,0,0,0,8.632-2.693,18.344,18.344,0,0,0,5.575-7.451,31.905,31.905,0,0,0,2.338-9.157,43.748,43.748,0,0,0-.09-9.7,54.949,54.949,0,0,0-2.249-9.785,49.668,49.668,0,0,0-3.327-7.361,47.6,47.6,0,0,0-4.677-6.733,25.477,25.477,0,0,0-8.093-6.374,17.776,17.776,0,0,0-10.071-1.616,19.154,19.154,0,0,0-8.9,3.95,22.073,22.073,0,0,0-5.845,7.092,25.675,25.675,0,0,0-2.7,8.169,39.355,39.355,0,0,0-.36,7.9,61.62,61.62,0,0,0,.989,7.272c.27,1.167.539,2.244.809,3.322.36,1.077.629,2.155.989,3.142a34.948,34.948,0,0,0,5.665,9.965,30.877,30.877,0,0,0,6.385,5.835c3.957,2.6,6.654,3.052,6.654,2.783.09-.269-2.248-1.167-5.755-3.951a32.824,32.824,0,0,1-5.575-5.925A34.384,34.384,0,0,1,71.7,85.016c-.36-.9-.54-1.975-.9-2.963-.27-1.077-.45-2.065-.629-3.232A54.491,54.491,0,0,1,69.364,72a27.585,27.585,0,0,1,2.967-14.453,20.326,20.326,0,0,1,5.126-6.015A15.654,15.654,0,0,1,84.831,48.3a14.123,14.123,0,0,1,8.093,1.347,21.606,21.606,0,0,1,7.014,5.566,35.193,35.193,0,0,1,4.226,6.1,46.81,46.81,0,0,1,3.147,6.823,45.84,45.84,0,0,1,2.158,9.067,42.929,42.929,0,0,1,.18,8.977,27.2,27.2,0,0,1-1.979,8.169,15.372,15.372,0,0,1-4.5,6.194,9.808,9.808,0,0,1-6.564,2.155,13.87,13.87,0,0,1-6.474-2.155,23.713,23.713,0,0,1-5.126-4.309,38.653,38.653,0,0,1-3.777-5.027,42.924,42.924,0,0,1-4.5-9.875,52.338,52.338,0,0,1-1.888-7.99C74.04,69.037,74.13,66.523,73.86,66.523Z" transform="translate(-3.723 -1.585)" fill="#1b1b1b"/>
    <path id="Path_94" data-name="Path 94" d="M154.477,218.1c1.258-.448-.18-1.346-.36-2.335-3.6-16.518-16.187-31.689-19.334-48.3a25.723,25.723,0,0,1-9.8,6.733c-6.025,2.154-12.769-.718-12.769-.718.27,8.349,5.486,15.71,8.812,23.341,2.428,5.566,4.407,15.441,4.946,21.545A41.607,41.607,0,0,0,154.477,218.1Z" transform="translate(-6.287 -8.449)" fill="#fff"/>
    <path id="Path_95" data-name="Path 95" d="M154.793,218.7c1.349-.629.63-1.706.09-2.693a20.572,20.572,0,0,1-.719-2.514c-.27-.9-.449-1.8-.719-2.6a72.658,72.658,0,0,0-4.137-10.324c-3.237-7-7.1-13.825-10.072-21.007a64.3,64.3,0,0,1-3.867-12.21.724.724,0,0,0-1.169-.269,22.536,22.536,0,0,1-9.352,6.464,17.916,17.916,0,0,1-12.589-.629.631.631,0,0,0-.809.629c.27,6.643,3.417,12.568,6.295,18.314a63.807,63.807,0,0,1,3.777,8.439,69.83,69.83,0,0,1,2.158,8.528,85.29,85.29,0,0,1,1.439,9.605.593.593,0,0,0,.539.629,31.888,31.888,0,0,0,8.633,2.065,44.7,44.7,0,0,0,20.322-2.334c.81-.269.449-1.616-.36-1.257a41.971,41.971,0,0,1-19.963,2.245,32.75,32.75,0,0,1-8.273-1.975c.18.179.36.448.54.628a89.124,89.124,0,0,0-3.147-16.787c-1.8-6.015-5.035-11.221-7.554-16.878a28.9,28.9,0,0,1-2.967-11.221c-.27.179-.54.449-.809.629,4.046,1.616,9.172,2.154,13.308.629a24.543,24.543,0,0,0,9.981-6.823c-.36-.09-.719-.179-1.169-.269,2.788,14.184,11.51,26.214,16.635,39.589.719,1.885,1.349,3.77,1.889,5.746.27.9.449,1.885.719,2.783a2.68,2.68,0,0,0,.36.9c.09.179.63.717.36.807C153.264,217.888,153.983,219.055,154.793,218.7Z" transform="translate(-6.243 -8.416)" fill="#1b1b1b"/>
    <path id="Path_96" data-name="Path 96" d="M112.571,173.849c-.27-.09-.449-.36-.36-.539.36-.987,1.978-3.591,8.9-5.476,8.723-2.424,12.68-2.244,14.028-.808C136.4,168.373,125.43,177.888,112.571,173.849Z" transform="translate(-6.285 -8.365)" fill="#1b1b1b"/>
    <path id="Path_97" data-name="Path 97" d="M119.193,172.726s1.8,1.257,5.305-.179a9.26,9.26,0,0,0,4.586-3.681l-4.5-5.3-6.114,2.155-.45,1.167Z" transform="translate(-6.612 -8.23)" fill="#fff"/>
    <path id="Path_98" data-name="Path 98" d="M113.909,137.568c.269-.359-1.08-1.706-3.6-3.95a33.037,33.037,0,0,1-4.137-3.95,14.481,14.481,0,0,1-1.888-2.693,5.28,5.28,0,0,0-.36-.718v-.179c0-.09,0-.179.09-.179s.091,0,.18.09l.179.09.27.179c.18.09.449.269.63.359.9.539,1.888,1.168,2.877,1.885,1.979,1.347,4.226,2.6,6.475,3.861.36.179.719.448,1.079.628l.988.718.81.808a6.308,6.308,0,0,1,.719.9,9.933,9.933,0,0,1,1.258,2.6c.27.987.45,1.975.63,2.962a46.879,46.879,0,0,1,.27,6.1v2.873a7.739,7.739,0,0,0,.09,1.437,7.862,7.862,0,0,0,.18,1.436,25.745,25.745,0,0,0,1.258,5.028,22.5,22.5,0,0,0,3.417,6.374c.989,1.346,1.8,1.885,2.068,1.7.18-.179-.179-.987-.809-2.513a44.9,44.9,0,0,1-2.249-6.374,22.276,22.276,0,0,1-.719-4.578c0-.449-.09-.808-.09-1.257v-1.346c0-.9.09-1.885.09-2.873a52.338,52.338,0,0,0-.09-6.464,27.318,27.318,0,0,0-.63-3.591,11.91,11.91,0,0,0-1.709-3.591,15.381,15.381,0,0,0-.988-1.257,14.037,14.037,0,0,1-1.17-1.167c-.449-.359-.809-.629-1.258-.987l-1.349-.808c-2.338-1.256-4.407-2.424-6.385-3.681a34.016,34.016,0,0,0-3.057-1.8c-.27-.179-.54-.269-.81-.448l-.449-.18-.63-.269c-.269-.09-.539-.09-.719-.179l-.36-.09h-.36a6.97,6.97,0,0,0-1.349.179,2.284,2.284,0,0,0-1.258,1.167,2.587,2.587,0,0,0-.27,1.616,6.237,6.237,0,0,0,.54,1.706,4.872,4.872,0,0,0,.539.987,14.74,14.74,0,0,0,2.518,3.052,21.263,21.263,0,0,0,4.946,3.77C112.02,136.941,113.639,137.838,113.909,137.568Z" transform="translate(-5.644 -5.93)" fill="#1b1b1b"/>
    <path id="Path_99" data-name="Path 99" d="M109.055,155.2c-.988.718,1.17,4.309,4.317,8.707a224034.979,224034.979,0,0,1,.9,1.257c.45.538.81,1.077,1.17,1.525a4.464,4.464,0,0,0,.629.718s.091,0,.091.269c.179.36.269.808.449,1.257.09.448.27.9.36,1.256.449,1.616.809,2.6,1.439,2.6.54,0,.989-1.077,1.079-2.873a8.61,8.61,0,0,0,0-1.526,7.883,7.883,0,0,0-.27-1.885,4.309,4.309,0,0,0-.629-1.346,4.938,4.938,0,0,0-.54-.718l-1.079-1.616a2.687,2.687,0,0,1-.449-.629c-.18-.179-.27-.448-.45-.628C112.832,157.44,109.954,154.567,109.055,155.2Z" transform="translate(-6.096 -7.757)" fill="#1b1b1b"/>
    <path id="Path_100" data-name="Path 100" d="M100.109,145.115c-.269-.179-.539-.09-.989.36a3.3,3.3,0,0,0-.719,2.244,5.22,5.22,0,0,0,1.169,3.142,14.272,14.272,0,0,0,2.607,2.6l.81.539.269.09.36.09c.18.09.45.179.63.269a4.97,4.97,0,0,0,1.619.18,3.014,3.014,0,0,0,1.349-.449,2.521,2.521,0,0,0,1.258-2.154,7.979,7.979,0,0,0-.269-1.257c-.18-.448-.36-.808-.54-1.167a2.483,2.483,0,0,0-.539-.718c-.18-.179-.27-.359-.45-.538-1.258-1.257-2.428-1.437-2.7-.987s.179,1.256.719,2.423c.09.179.09.27.179.449s.18.359.09.448c0,.179,0,.179-.09.179-.09.091-.27,0-.179-.09H104.6a3.663,3.663,0,0,1-.36-.269A12.392,12.392,0,0,1,102,148.616a5.291,5.291,0,0,1-1.169-1.526,7.488,7.488,0,0,1-.361-1.346C100.468,145.564,100.379,145.2,100.109,145.115Z" transform="translate(-5.513 -7.192)" fill="#1b1b1b"/>
    <path id="Path_101" data-name="Path 101" d="M106.138,141.963c.449-.36-.27-1.885-1.978-4.22-.45-.539-.9-1.167-1.529-1.8a10.283,10.283,0,0,0-.989-.987,3.914,3.914,0,0,0-.629-.539c-.27-.269-.72-.359-1.08-.628a2.778,2.778,0,0,0-2.517.269,3.45,3.45,0,0,0-.989.987,3.877,3.877,0,0,0-.36.629c-.09.269-.18.359-.18.538a13.135,13.135,0,0,0-.45,1.8c0,.27-.09.539-.09.9,0,.27-.09.629-.09.9a4.361,4.361,0,0,0,.09,1.077c.09.18.09.36.18.539l.18.448a6.616,6.616,0,0,0,1.079,1.437l1.079,1.077c.809.718,1.619,1.347,2.338,1.975.18.18.36.27.54.449l.27.269c.09.09.269.179.36.269a4.54,4.54,0,0,0,1.439.808,8.152,8.152,0,0,0,2.967.9,2.45,2.45,0,0,0,.809,0c.27,0,.54-.09.9-.09a4.068,4.068,0,0,0,1.709-.987,5.369,5.369,0,0,0,.539-.987,1.129,1.129,0,0,0,.091-.539v-.538a1.812,1.812,0,0,0-.27-.987,1.45,1.45,0,0,0-.36-.629,6.409,6.409,0,0,0-1.349-1.616c-.809-.717-1.439-.987-1.709-.717-.179.179,0,.807.36,1.7.18.449.449.988.63,1.526,0,.179.09.269.09.449v.179c0,.09-.09.269-.179.269s-.18.09-.27,0h-.27a.542.542,0,0,1-.36-.09,10.8,10.8,0,0,1-1.888-.808,7.687,7.687,0,0,1-.9-.629c-.09-.09-.179-.09-.179-.179l-.27-.179-.54-.539c-.719-.628-1.528-1.256-2.158-1.885a8.384,8.384,0,0,1-.9-.9,4.9,4.9,0,0,1-.629-.808,12.011,12.011,0,0,1,.45-2.783.313.313,0,0,1,.09-.179v-.09a.088.088,0,0,1,.09-.09h.09c.18.09.27.179.449.269a6.376,6.376,0,0,1,.9.718c.63.449,1.169.987,1.709,1.437C104.429,141.244,105.778,142.232,106.138,141.963Z" transform="translate(-5.337 -6.553)" fill="#1b1b1b"/>
    <path id="Path_102" data-name="Path 102" d="M108.9,135.686c.449-.359-.27-1.885-1.979-4.22-.449-.538-.9-1.167-1.528-1.8a10.386,10.386,0,0,0-.989-.987,3.922,3.922,0,0,0-.63-.538c-.27-.27-.719-.36-1.079-.629a2.784,2.784,0,0,0-2.518.269,3.46,3.46,0,0,0-.989.987,3.95,3.95,0,0,0-.36.629c-.09.269-.18.359-.18.539a13.08,13.08,0,0,0-.45,1.8c0,.269-.09.538-.09.9,0,.269-.09.628-.09.9a4.364,4.364,0,0,0,.09,1.077c.09.179.09.359.18.538l.18.449a6.606,6.606,0,0,0,1.079,1.436l1.079,1.078c.9.807,1.888,1.526,2.7,2.244a3.864,3.864,0,0,1,.629.539l.81.538a13.462,13.462,0,0,0,1.618.808,6.59,6.59,0,0,0,3.507.539,2.892,2.892,0,0,0,2.7-2.783,3.186,3.186,0,0,0-.179-.9,6.294,6.294,0,0,0-.27-.718,2.3,2.3,0,0,0-.63-.9,7.047,7.047,0,0,0-1.169-1.167c-.719-.718-1.259-.9-1.439-.629-.18.179-.091.629.269,1.437.18.359.36.807.54,1.256s.36,1.077.27,1.167a.615.615,0,0,1-.45.269,4.433,4.433,0,0,1-1.978-.628c-.36-.179-.719-.449-1.079-.629-.18-.09-.36-.269-.54-.359l-.539-.539c-.81-.718-1.709-1.436-2.519-2.154a8.577,8.577,0,0,1-.9-.9,4.992,4.992,0,0,1-.63-.808,12.037,12.037,0,0,1,.449-2.783.312.312,0,0,1,.091-.179v-.09a.088.088,0,0,1,.09-.091h.09c.18.091.27.18.449.27a6.242,6.242,0,0,1,.9.718c.63.448,1.169.987,1.709,1.436C107.192,134.878,108.541,135.955,108.9,135.686Z" transform="translate(-5.492 -6.201)" fill="#1b1b1b"/>
    <path id="Path_103" data-name="Path 103" d="M97.543,106.763l6.745,17.147,5.844,2.783-4.946-22.085S103.029,106.943,97.543,106.763Z" transform="translate(-5.465 -4.928)" fill="#1b1b1b"/>
    <path id="Path_104" data-name="Path 104" d="M108.022,133.423l7.643,19.84.81.359-2.968-16.069Z" transform="translate(-6.052 -6.542)" fill="#1b1b1b"/>
    <path id="Path_105" data-name="Path 105" d="M213.767,140.771l20.773-2.783s3.237,19.48,1.708,26.214c-13.578,2.514-23.919,3.86-23.919,3.86s6.384-7.72,2.428-24.239" transform="translate(-3.518 -6.798)" fill="#b1d5f8"/>
    <path id="Path_106" data-name="Path 106" d="M214.744,143.764c-.09,0-.09.629.09,1.8q.136.809.27,2.155a23.958,23.958,0,0,1,.27,2.873,32.942,32.942,0,0,1-.27,7.72,30.448,30.448,0,0,1-1.079,4.578,24.927,24.927,0,0,1-.9,2.335q-.136.269-.27.539l-.18.269v.09c0,.09-.09.09-.09.179l-.27.269-.36.539c-.09.179-.27.359-.449.629-.36.448-.63.808-.989,1.256.54-.09,1.349-.179,1.979-.269s1.258-.179,1.978-.27a19.525,19.525,0,0,0,2.249-.359c1.528-.269,3.147-.448,4.765-.718,3.238-.538,6.655-1.077,10.162-1.706,1.258-.269,2.518-.448,3.686-.628.18,0,.989-.179,1.528-.27l.27-1.525c.09-.629.09-1.257.18-1.975a77.9,77.9,0,0,0-.27-9.247c-.27-2.962-.63-5.745-.989-8.438-.179-1.346-.36-2.6-.539-3.86-.091-.808-.27-1.616-.36-2.424v-.269a.088.088,0,0,0-.091-.09l-.449.09-.809.09c-.36.09-.719.09-.989.179-2.338.36-4.5.629-6.475.987-7.913,1.168-12.679,2.065-12.679,2.335s4.856-.179,12.769-1.077q2.967-.4,6.474-.808c.27,0,.54-.09.809-.09h.091v.359c0,.269.09.629.09.9.179,1.257.36,2.514.54,3.86.36,2.6.629,5.476.9,8.35a73.731,73.731,0,0,1,.27,8.976c-.09.629-.09,1.257-.18,1.8-.09.449,0,.27-.09.27,0,0,.09,0-.27.09-1.258.179-2.428.448-3.686.628-3.507.629-6.924,1.168-10.161,1.706-2.608.449-5.126.808-7.464,1.168a.316.316,0,0,0,.091-.18l.179-.448c.09-.179.18-.449.27-.629.36-.808.719-1.706.989-2.514a25.859,25.859,0,0,0,.989-4.847,29.19,29.19,0,0,0-.091-7.99c-.09-1.077-.36-2.065-.449-2.873-.179-.808-.36-1.525-.54-2.065C215.014,144.3,214.834,143.764,214.744,143.764Z" transform="translate(-3.417 -6.739)" fill="#1b1b1b"/>
    <path id="Path_107" data-name="Path 107" d="M144.786,133.431s5.755-14.094,26.707-15.889l14.387,16.339s-25.717,8.707-23.11,18.044c-17.8-10.234-18.075-15.35-18.075-15.35" transform="translate(2.948 -6.027)" fill="#b1d5f8"/>
    <path id="Path_108" data-name="Path 108" d="M144.788,136.425c-.091,0-.091.718.449,1.706a16.139,16.139,0,0,0,3.058,3.951,45.3,45.3,0,0,0,5.935,4.937c1.258.9,2.518,1.8,3.956,2.693l2.158,1.347c.45.269,2.338,1.436,3.687,2.154-.09-.449-.18-.987-.27-1.437s-.09-.9-.18-1.346v-.539l.091-.269a1.667,1.667,0,0,1,.179-.629,8.187,8.187,0,0,1,1.349-2.423,18.263,18.263,0,0,1,4.586-4.04,65.1,65.1,0,0,1,12.229-6.284c.63-.269,1.349-.538,1.979-.808l.989-.359,1.709-.629.9-.359-3.327-3.77c-2.338-2.693-4.677-5.3-6.924-7.811-1.079-1.256-2.158-2.423-3.237-3.681-.54-.629-1.08-1.256-1.619-1.8l-.36-.448-.09-.09h-.36l-.81.09c-.36.09-.809.09-1.169.179a47.581,47.581,0,0,0-8.542,1.975l-1.889.808c-.27.09-.63.269-.9.359a8.216,8.216,0,0,1-.9.449,14.424,14.424,0,0,0-1.619.9c-.539.359-.988.629-1.528.987-.27.179-.449.269-.719.448a3.971,3.971,0,0,0-.63.539,15.4,15.4,0,0,0-1.258.987c-.72.718-1.529,1.347-2.159,1.975a29.5,29.5,0,0,0-2.967,3.591c-1.349,2.155-1.8,3.5-1.709,3.591s.719-1.167,2.248-3.142a24.576,24.576,0,0,1,3.058-3.322,22.89,22.89,0,0,1,2.158-1.8c.45-.269.81-.629,1.259-.9.179-.179.449-.269.63-.448.27-.18.449-.27.719-.449a12.473,12.473,0,0,0,1.439-.9l1.619-.808c.269-.09.539-.269.809-.359a9.587,9.587,0,0,1,.9-.36c.63-.269,1.17-.448,1.8-.717a37.315,37.315,0,0,1,8.272-1.8,4.479,4.479,0,0,0,1.079-.18h.36c.54.539.989,1.168,1.529,1.706,1.079,1.168,2.158,2.424,3.237,3.681,2.158,2.514,4.5,5.117,6.835,7.811l1.258,1.437.36.448-.27.09-.988.36c-.63.269-1.349.538-1.979.807a63.182,63.182,0,0,0-12.5,6.554,21.093,21.093,0,0,0-4.856,4.488,8.854,8.854,0,0,0-1.528,2.874,2.62,2.62,0,0,0-.18.808l-.09.448v.539c.36.269-1.888-1.078-3.147-1.885-1.439-.808-2.7-1.706-3.956-2.514a55.416,55.416,0,0,1-5.935-4.578,25.071,25.071,0,0,1-3.237-3.5C145.058,136.964,144.878,136.425,144.788,136.425Z" transform="translate(2.946 -5.969)" fill="#1b1b1b"/>
    <path id="Path_109" data-name="Path 109" d="M184.227,71.681s16.815,7.361,27.966-5.207c3.328,9.426,11.96,11.85,16.905,12.838-16.456,13.735-23.379,19.032-23.379,19.032s-11.42-5.476-19.6-21.815" transform="translate(-10.32 -2.793)" fill="#b1d5f8"/>
    <path id="Path_110" data-name="Path 110" d="M186.041,76.438c-.09.09.36,1.347,1.619,3.681a49.442,49.442,0,0,0,6.2,9.067,45.015,45.015,0,0,0,5.485,5.476c1.079.9,2.249,1.8,3.417,2.693.63.449,1.259.808,1.979,1.257l.9.449c.18.179.27-.09.45-.18l.449-.359c.36-.269.63-.539.989-.808,4.856-3.95,10.251-8.259,15.916-12.838,1.17-.9,2.249-1.885,3.417-2.783.63-.539,1.259-1.077,1.979-1.616.539-.449,1.169-.9,1.709-1.347l.449-.359.09-.09h0l-.27-.09-1.079-.269-1.349-.269-.988-.269a5.155,5.155,0,0,1-1.259-.359c-.809-.269-1.709-.539-2.428-.808a19.039,19.039,0,0,1-4.407-2.424,13.366,13.366,0,0,1-3.416-3.322c-.54-.628-.9-1.257-1.349-1.885a9.786,9.786,0,0,0-.54-.988q-.134-.269-.27-.539l-.269-.718-.45-.988-.179-.539-.09-.269-.091-.09a.088.088,0,0,0-.09.09l-1.528,1.526-.81.808a5.76,5.76,0,0,1-.809.718,19.742,19.742,0,0,1-1.618,1.257c-.54.359-1.17.718-1.709,1.077a20.188,20.188,0,0,1-7.014,2.334,29.123,29.123,0,0,1-6.115.269,21.635,21.635,0,0,1-2.518-.269,20.1,20.1,0,0,0-2.068-.359c-2.518-.539-3.867-.988-3.867-.808-.09.09,1.169.808,3.686,1.526.63.18,1.349.359,2.068.539a20.353,20.353,0,0,0,2.608.359,25.254,25.254,0,0,0,6.384,0,21.051,21.051,0,0,0,7.463-2.334l1.889-1.077c.63-.449,1.169-.9,1.8-1.347a3.526,3.526,0,0,0,.9-.718,5.759,5.759,0,0,1,.809-.718l.09-.09a.088.088,0,0,0,.09.09l.18.359q.135.269.27.539l.539,1.077a16.925,16.925,0,0,0,1.439,2.065A20.969,20.969,0,0,0,218.5,75.45a24.354,24.354,0,0,0,7.374,3.5,7.5,7.5,0,0,0,1.349.359l.36.09-1.439,1.167c-1.169.9-2.248,1.8-3.417,2.783-5.665,4.668-10.97,8.977-15.826,12.927-.27.269-.54.449-.809.718-.091.09,0,.09-.18,0a21.511,21.511,0,0,1-1.888-1.167,32.162,32.162,0,0,1-3.328-2.514,61.5,61.5,0,0,1-5.485-5.207,73.035,73.035,0,0,1-6.565-8.618C186.851,77.6,186.132,76.348,186.041,76.438Z" transform="translate(-10.335 -2.702)" fill="#1b1b1b"/>
    <path id="Path_111" data-name="Path 111" d="M33.325,139.655,49.6,135.615S36.922,159.674,33.325,148.9s-3.417-14.812-3.417-14.812l-28.955.718s.809,21.9,15.377,20.468,17.085-2.962,17.085-2.962" transform="translate(-0.056 -6.579)" fill="#b1d5f8"/>
    <path id="Path_112" data-name="Path 112" d="M33.269,152.244c-.09-.09-1.619.448-4.586.9s-7.374.987-12.769,1.436a10.51,10.51,0,0,1-7.823-2.6,18.858,18.858,0,0,1-4.856-8.619,33.617,33.617,0,0,1-1.169-5.386c-.09-.448-.09-.987-.18-1.436a7.769,7.769,0,0,1-.09-.988H3.5c4.047-.09,8.273-.179,12.589-.359,1.709-.09,3.507-.09,5.215-.179s3.417-.09,5.215-.179a12.087,12.087,0,0,0,1.8-.09h.9l.09.807a10,10,0,0,1,.18,1.526,28.679,28.679,0,0,0,.629,2.962c.45,1.976.989,3.861,1.529,5.746.27.9.539,1.8.9,2.693a6.892,6.892,0,0,0,1.439,2.783,3.031,3.031,0,0,0,1.529.987,3.068,3.068,0,0,0,.9.09c.27-.09.539-.09.809-.179a7.425,7.425,0,0,0,2.518-1.437,24.142,24.142,0,0,0,3.6-3.86c.989-1.347,1.978-2.6,2.788-3.95.809-1.257,1.619-2.6,2.338-3.771.36-.717.719-1.346,1.079-1.975.27-.538.54-.987.809-1.525l.36-.718.18-.36c-.09,0-.27.091-.36.091-.54.09-1.079.269-1.529.359s-.989.269-1.439.359c-.629.179-1.169.27-1.709.449-1.079.269-2.158.628-3.147.808-1.978.538-3.6.987-5.036,1.436-2.7.808-4.226,1.257-4.136,1.437a29.932,29.932,0,0,0,4.316-.718c1.439-.269,3.057-.718,5.126-1.167.989-.27,2.068-.449,3.147-.718a11.884,11.884,0,0,0,1.708-.449,1.67,1.67,0,0,0,.629-.179h.09v.09l-.09.18-.18.269a15.7,15.7,0,0,1-.989,1.616c-.719,1.167-1.529,2.423-2.338,3.681s-1.8,2.513-2.788,3.77a18,18,0,0,1-3.417,3.5,5.729,5.729,0,0,1-1.978,1.167,1.544,1.544,0,0,1-1.709-.449,3.7,3.7,0,0,1-.629-.987,9.7,9.7,0,0,1-.45-1.256l-.809-2.693c-.539-1.8-1.079-3.681-1.529-5.566-.18-.987-.45-1.885-.54-2.873a7.854,7.854,0,0,1-.18-1.437c0-.269-.09-.448-.09-.808v-1.615c-1.439,0-2.878.09-4.406.09-1.709.09-3.507.09-5.216.179s-3.417.09-5.215.179c-4.316.09-8.543.269-12.589.359a8.655,8.655,0,0,0-1.529.091H0c-.09,0,0,.09,0,.179v.718a18.834,18.834,0,0,0,.18,1.885c.09.538.09.987.18,1.436a37.064,37.064,0,0,0,1.259,5.656,19.907,19.907,0,0,0,5.4,9.246,10.9,10.9,0,0,0,4.316,2.424,11.056,11.056,0,0,0,4.5.36,98.89,98.89,0,0,0,12.859-1.976C31.83,153.231,33.359,152.423,33.269,152.244Z" transform="translate(0 -6.51)" fill="#1b1b1b"/>
    <path id="Path_113" data-name="Path 113" d="M226.433,145.374c0-.36-1.618-.539-3.686-.539h-.54c-2.068,0-3.686.179-3.686.539s1.618.448,3.686.538h.54C224.815,145.822,226.433,145.643,226.433,145.374Z" transform="translate(-3.865 -7.181)" fill="#1b1b1b"/>
    <path id="Path_114" data-name="Path 114" d="M231.48,149.01c-.09-.359-2.248,0-5.125.179h-.9c-2.877.18-5.035.091-5.125.449,0,.269,2.248.718,5.125.629h.9C229.412,150,231.57,149.28,231.48,149.01Z" transform="translate(-3.966 -7.406)" fill="#1b1b1b"/>
    <path id="Path_115" data-name="Path 115" d="M175.252,125.8c.269-.269-.36-1.077-1.259-1.975-.09,0-.09-.09-.18-.09l-.09-.09c-.9-.9-1.709-1.437-1.978-1.167s.36.987,1.258,1.975c.09,0,.09.09.18.09l.09.09C174.172,125.445,175.072,126.074,175.252,125.8Z" transform="translate(1.437 -6.3)" fill="#1b1b1b"/>
    <path id="Path_116" data-name="Path 116" d="M175.887,131.97c.27-.269-1.079-1.975-2.968-4.22a1.238,1.238,0,0,1-.269-.359,1.222,1.222,0,0,1-.27-.359c-1.889-2.155-3.507-3.77-3.777-3.5-.27.179,1.079,1.975,2.968,4.219a1.257,1.257,0,0,1,.269.36,1.222,1.222,0,0,1,.27.359C174,130.624,175.617,132.149,175.887,131.97Z" transform="translate(1.611 -6.361)" fill="#1b1b1b"/>
    <path id="Path_117" data-name="Path 117" d="M152.234,137.123a1.645,1.645,0,0,0,.27-2.423l-.09-.091-.09-.09a1.649,1.649,0,0,0-2.428-.359,1.712,1.712,0,0,0-.27,2.424l.09.09.09.09A1.743,1.743,0,0,0,152.234,137.123Z" transform="translate(2.693 -6.936)" fill="#1b1b1b"/>
    <path id="Path_118" data-name="Path 118" d="M16.411,140.447c-.09-.359-2.158-.179-4.946-.09h-.9c-2.788.18-4.946.18-4.946.539s2.158.539,4.946.448h.9C14.343,141.166,16.411,140.717,16.411,140.447Z" transform="translate(-0.317 -6.924)" fill="#1b1b1b"/>
    <path id="Path_119" data-name="Path 119" d="M23,144.067c-.09-.359-3.057.179-7.014.449H14.73c-3.957.269-7.014.09-7.014.448,0,.269,3.057.808,7.1.629h1.259C20.035,145.234,23.093,144.336,23,144.067Z" transform="translate(-0.434 -7.132)" fill="#1b1b1b"/>
    <path id="Path_120" data-name="Path 120" d="M40.008,141.881c0,1.167.36,1.616.9,1.706h.18c.539-.09.9-.539.9-1.706,0-1.077-.36-1.616-.9-1.706h-.18C40.458,140.265,40.008,140.8,40.008,141.881Z" transform="translate(-2.243 -6.92)" fill="#1b1b1b"/>
    <path id="Path_121" data-name="Path 121" d="M221.646,79.007c0-.359-2.249-.539-4.856-1.885-.09-.09-.27-.09-.36-.18l-.36-.18c-2.518-1.347-4.047-3.142-4.317-2.873-.269.18,1.08,2.244,3.777,3.77.18.09.27.18.45.18.179.09.269.18.449.18C219.218,79.366,221.736,79.276,221.646,79.007Z" transform="translate(-11.859 -3.207)" fill="#1b1b1b"/>
    <path id="Path_122" data-name="Path 122" d="M215.523,81.612c.09-.359-1.709-.988-3.507-2.514l-.27-.269-.27-.269c-1.8-1.616-2.788-3.232-3.058-3.052-.269.09.45,2.065,2.428,3.86l.27.269.27.269C213.455,81.522,215.523,81.971,215.523,81.612Z" transform="translate(-11.671 -3.298)" fill="#1b1b1b"/>
    <path id="Path_123" data-name="Path 123" d="M169.034,43.751c.27,0,.54-.269.719-.628a3.93,3.93,0,0,1,.81-.988.839.839,0,0,1,.9-.09l.36.359a2.027,2.027,0,0,1,.45.988.977.977,0,0,1,.09.449c0,.18.09.269.09.539v.269h-.179a1.144,1.144,0,0,1-.54-.09,2.622,2.622,0,0,1-.809-.18,3.886,3.886,0,0,1-1.079-.449,5.768,5.768,0,0,0-.81-.18q-.4,0-.539.808a2.735,2.735,0,0,0,1.079,2.154,3.749,3.749,0,0,0,1.439.808c.27.09.449.18.719.269l.18.09.36.09c.179,0,.449.09.719.09a2.857,2.857,0,0,0,2.518-1.077,3.418,3.418,0,0,0,.539-1.436V44.11a3.192,3.192,0,0,0-.179-.9c-.09-.269-.18-.539-.27-.9a5.5,5.5,0,0,0-1.169-1.975,3.546,3.546,0,0,0-2.249-1.257,3.48,3.48,0,0,0-3.6,1.8,3.8,3.8,0,0,0-.27,2.334C168.495,43.661,168.855,43.841,169.034,43.751Z" transform="translate(6.574 5.183)" fill="#a8a8a8"/>
    <path id="Path_125" data-name="Path 125" d="M136.146,114.391c-1.079.449-1.349,1.168-1.17,1.885v.18a1.412,1.412,0,0,0,2.068.628,1.6,1.6,0,0,0,1.17-1.885.088.088,0,0,0-.091-.09v-.09C137.854,114.3,137.134,113.943,136.146,114.391Z" transform="translate(-7.558 -5.465)" fill="#a8a8a8"/>
    <path id="Path_126" data-name="Path 126" d="M86.017,151.2c0,1.167.539,1.616,1.259,1.706h.18c.719-.09,1.259-.539,1.259-1.706,0-1.077-.54-1.616-1.259-1.706h-.18C86.557,149.585,86.017,150.124,86.017,151.2Z" transform="translate(-4.82 -7.442)" fill="#a8a8a8"/>
    <path id="Path_127" data-name="Path 127" d="M27.513,77.386a1.338,1.338,0,0,0,0,1.616,5.589,5.589,0,0,0,2.158,1.8l.27.09.27.09A6.592,6.592,0,0,0,33,81.336c.719-.18,1.169-.539,1.259-1.167.09-1.077-1.259-1.706-2.788-2.424l-.27-.09C29.582,77.116,28.233,76.578,27.513,77.386Z" transform="translate(-1.528 -3.381)" fill="#a8a8a8"/>
    <path id="Path_128" data-name="Path 128" d="M42.193,29.861c-1.169,0-1.619.988-1.708,2.244v.359c.09,1.257.539,2.244,1.708,2.244,1.079,0,1.619-.988,1.709-2.244v-.359C43.811,30.759,43.272,29.861,42.193,29.861Z" transform="translate(-2.27 -0.742)" fill="#a8a8a8"/>
    <path id="Path_131" data-name="Path 131" d="M221.94,117.125c.449,1.077,1.169,1.347,1.888,1.077a.088.088,0,0,0,.091-.09h.09a1.735,1.735,0,0,0-1.259-3.142.088.088,0,0,0-.09.09h-.09A1.5,1.5,0,0,0,221.94,117.125Z" transform="translate(-12.423 -5.506)" fill="#a8a8a8"/>
    <path id="Path_132" data-name="Path 132" d="M186.128,166.432c.36,1.078,1.709,1.168,3.328.629.09,0,.179-.09.27-.09s.179-.09.269-.09c1.529-.629,2.519-1.526,2.159-2.6-.36-.987-1.709-1.077-3.328-.629-.09,0-.179.09-.27.09s-.179.091-.269.091C186.757,164.457,185.768,165.354,186.128,166.432Z" transform="translate(-10.422 -8.22)" fill="#a8a8a8"/>
    <path id="Path_134" data-name="Path 134" d="M67.722,138.588c1.169,0,1.619-.9,1.708-1.975v-.36c-.09-1.077-.539-1.975-1.708-1.975-1.079,0-1.619.9-1.709,1.975v.36C66.1,137.691,66.643,138.588,67.722,138.588Z" transform="translate(-3.699 -6.59)" fill="#1b1b1b"/>
    <path id="Path_135" data-name="Path 135" d="M35.436,182.393c0,1.167,2.068,1.616,4.676,1.706h.719c2.7-.09,4.676-.539,4.676-1.706,0-1.077-2.068-1.616-4.676-1.706h-.719C37.5,180.777,35.436,181.316,35.436,182.393Z" transform="translate(-1.987 -9.189)" fill="#1b1b1b"/>
  </g>
</svg>
