<svg id="Infrequent_voters" data-name="Infrequent voters" xmlns="http://www.w3.org/2000/svg" width="25.534" height="35.969" viewBox="0 0 25.534 35.969">
  <path id="Path_28464" data-name="Path 28464" d="M22.228,17.066a1.385,1.385,0,0,1,1.228-.751h4.553l4.2-6.126c.057-.084.2-.24.2-.24a1.943,1.943,0,0,1,1.48-.634,1.9,1.9,0,0,1,1.44.634l.321.319V1.019H17.041v20.7h4.824L18.217,35.707a.917.917,0,0,0,.656,1.119.9.9,0,0,0,.232.03.918.918,0,0,0,.887-.686L23.76,21.724h5.179L32.7,36.17a.917.917,0,0,0,.887.686.906.906,0,0,0,.232-.03.917.917,0,0,0,.656-1.119L30.825,21.724h4.824V18.594L32.2,15.119l-2.313,3.373a1.389,1.389,0,0,1-1.147.6H23.456a1.391,1.391,0,0,1-1.391-1.391,1.366,1.366,0,0,1,.092-.483l-.662,1.448a.463.463,0,0,1-.843-.386l2.163-4.736a.464.464,0,0,1,.843.386Zm4.654-9.978a2.81,2.81,0,1,1,2.2,3.334A2.825,2.825,0,0,1,26.882,7.088Z" transform="translate(-17.041 -1.019)" fill="#026dd5"/>
  <path id="Path_28465" data-name="Path 28465" d="M74.4,32.794l-6.546-6.518V34.6l2.315,2.338v13.77a2.184,2.184,0,0,0,.677,1.631A2.284,2.284,0,0,0,72.5,53a2.236,2.236,0,0,0,1.608-.654,2.184,2.184,0,0,0,.676-1.631V33.725A1.268,1.268,0,0,0,74.4,32.794Z" transform="translate(-49.25 -17.028)" fill="#026dd5"/>
</svg>
