<svg xmlns="http://www.w3.org/2000/svg" xmlns:xlink="http://www.w3.org/1999/xlink" width="24" height="24" viewBox="0 0 24 24">
  <defs>
    <clipPath id="clip-path">
      <rect id="Rectangle_10" data-name="Rectangle 10" width="24" height="24" fill="#fff"/>
    </clipPath>
  </defs>
  <g id="Mask_Group_12" data-name="Mask Group 12" clip-path="url(#clip-path)">
    <g id="Group_37477" data-name="Group 37477" transform="translate(0 0)">
      <path id="Path_99819" data-name="Path 99819" d="M22.592,5.714H16.181A1.407,1.407,0,0,0,14.8,6.9H13.454V6.37a.65.65,0,0,0-.343-.571V4.009l3.657-2.025A.457.457,0,0,1,17,1.924h.6a1.642,1.642,0,0,0,1.613,1.361h.343A1.643,1.643,0,0,0,21.17,1.924h.114a.962.962,0,0,0,.96-.96h0a.962.962,0,0,0-.96-.96H17.658A4.406,4.406,0,0,0,15.4.627L12.854,2.142a1.509,1.509,0,0,0-1.714,0L8.6.623A4.393,4.393,0,0,0,6.34,0H2.707a.962.962,0,0,0-.96.96h0a.962.962,0,0,0,.96.96h.123A1.64,1.64,0,0,0,4.443,3.284h.343A1.643,1.643,0,0,0,6.4,1.923H7a.435.435,0,0,1,.229.059l3.657,2.025V5.8a.65.65,0,0,0-.343.571v.526H9.2A1.409,1.409,0,0,0,7.818,5.714H1.406A1.409,1.409,0,0,0,0,7.117V20.174A1.409,1.409,0,0,0,1.406,21.58H7.818A1.41,1.41,0,0,0,9.2,20.4h1.339v.521a.65.65,0,0,0,.343.571v2.224a.281.281,0,0,0,.562,0V21.582h1.106v2.137a.281.281,0,0,0,.562,0V21.494a.65.65,0,0,0,.343-.571V20.4H14.8a1.407,1.407,0,0,0,1.384,1.177H22.6a1.411,1.411,0,0,0,1.4-1.4V7.117a1.411,1.411,0,0,0-1.407-1.4M13.107,2.647l2.578-1.541A3.847,3.847,0,0,1,17.658.562h3.63a.4.4,0,0,1,.4.4h0a.4.4,0,0,1-.4.4H16.994a1.011,1.011,0,0,0-.5.131L13.113,3.364ZM7.349,19.705H1.875V7.586H7.349ZM9.225,7.455h1.317V8.1H9.225ZM10.541,19.84H9.225V19.2h1.317Zm.343-2.3a.657.657,0,0,0-.343.571v.519H9.225V8.658h1.317v.521a.657.657,0,0,0,.343.571Zm0-14.171L7.5,1.493A1.029,1.029,0,0,0,7,1.361H2.707a.4.4,0,0,1-.4-.4h0a.4.4,0,0,1,.4-.4H6.34a3.823,3.823,0,0,1,1.969.544l2.572,1.537Zm1.668,14.089H11.446V9.836h1.106Zm0-11.741H11.444V2.61a.914.914,0,0,1,1.106,0Zm2.224,14.13h-1.32V19.2h1.32Zm0-1.208h-1.32v-.521a.656.656,0,0,0-.343-.571V9.754a.656.656,0,0,0,.343-.571V8.658h1.32Zm0-10.537h-1.32V7.455h1.32Zm7.349,11.61H16.65V7.586h5.475Z" transform="translate(0 0)"/>
      <path id="Path_99820" data-name="Path 99820" d="M70.525,49.183a.278.278,0,0,0,.2-.082l1.091-1.091a.281.281,0,0,0-.4-.4L70.326,48.7a.281.281,0,0,0,.2.48" transform="translate(-52.493 -35.518)"/>
      <path id="Path_99821" data-name="Path 99821" d="M70.422,50.754a.278.278,0,0,0,.2-.082l2.752-2.752a.281.281,0,1,0-.4-.4l-2.752,2.752a.282.282,0,0,0,0,.4.278.278,0,0,0,.2.082" transform="translate(-52.415 -35.451)"/>
      <path id="Path_99822" data-name="Path 99822" d="M12.066,49.183a.278.278,0,0,0,.194-.087L13.351,48a.281.281,0,0,0-.4-.4L11.862,48.7a.282.282,0,0,0,0,.4.3.3,0,0,0,.2.082" transform="translate(-8.808 -35.519)"/>
      <path id="Path_99823" data-name="Path 99823" d="M11.976,50.754a.278.278,0,0,0,.2-.082l2.752-2.752a.281.281,0,0,0-.4-.4l-2.752,2.752a.282.282,0,0,0,0,.4.266.266,0,0,0,.2.082" transform="translate(-8.74 -35.451)"/>
    </g>
  </g>
</svg>
