<svg id="Locations" xmlns="http://www.w3.org/2000/svg" width="62" height="62" viewBox="0 0 62 62">
  <rect id="Rectangle_7018" data-name="Rectangle 7018" width="62" height="62" rx="6" fill="#016dd5" opacity="0.2"/>
  <path id="pin_drop_24dp_E3E3E3_FILL1_wght400_GRAD0_opsz24" d="M212.5-849.4a42.082,42.082,0,0,1-9.4-9.09,15.033,15.033,0,0,1-3.1-8.64,12.8,12.8,0,0,1,3.482-9.247A11.949,11.949,0,0,1,212.5-880a11.949,11.949,0,0,1,9.018,3.622A12.8,12.8,0,0,1,225-867.13a15.033,15.033,0,0,1-3.1,8.64,42.084,42.084,0,0,1-9.4,9.09Zm0-14.4a3.426,3.426,0,0,0,2.522-1.057,3.48,3.48,0,0,0,1.049-2.542,3.48,3.48,0,0,0-1.049-2.543A3.425,3.425,0,0,0,212.5-871a3.425,3.425,0,0,0-2.522,1.057,3.48,3.48,0,0,0-1.049,2.543,3.48,3.48,0,0,0,1.049,2.542A3.426,3.426,0,0,0,212.5-863.8ZM200-844v-3.6h25v3.6Z" transform="translate(-181 893)" fill="#016dd5"/>
</svg>
