<svg xmlns="http://www.w3.org/2000/svg" width="23.167" height="36.296" viewBox="0 0 23.167 36.296">
  <g id="Male_Adults" data-name="Male Adults" transform="translate(0 0)">
    <path id="Path_28433" data-name="Path 28433" d="M40.5,43.7H26.637a4.638,4.638,0,0,0-3.96,7.071l6.91,11.395a4.653,4.653,0,0,0,7.96,0l6.91-11.395A4.638,4.638,0,0,0,40.5,43.7Z" transform="translate(-21.983 -28.113)" fill="#026dd5"/>
    <path id="Path_28434" data-name="Path 28434" d="M44.514,16.711l1.293-1.253a5.634,5.634,0,0,0,.849-7.031h0a7.07,7.07,0,0,0-12.041.121h0a5.619,5.619,0,0,0,.808,6.829l1.212,1.212A5.562,5.562,0,0,0,44.514,16.711Z" transform="translate(-29.031 -5.124)" fill="#026dd5"/>
  </g>
</svg>
