<svg id="Middle_Class" data-name="Middle Class" xmlns="http://www.w3.org/2000/svg" width="36.92" height="36.149" viewBox="0 0 36.92 36.149">
  <path id="Path_28454" data-name="Path 28454" d="M76.3,14.038a2.409,2.409,0,1,0-2.409-2.409A2.409,2.409,0,0,0,76.3,14.038Z" transform="translate(-45.061 -9.22)" fill="#026dd5"/>
  <path id="Path_28455" data-name="Path 28455" d="M74.4,27.6a4.424,4.424,0,0,0-4.416-4.42H67.626A4.412,4.412,0,0,0,64.18,24.8a1.787,1.787,0,0,0-2.231.237l-.673.694a1.782,1.782,0,0,0,0,2.54,1.841,1.841,0,0,0,.267.22l.025.025,1.825,1.537.614,7.824a.876.876,0,0,0,.872.8h7.829a.876.876,0,0,0,.872-.8l.732-9.315a.631.631,0,0,0,0-.089A4.726,4.726,0,0,0,74.4,27.6Z" transform="translate(-37.481 -17.269)" fill="#026dd5"/>
  <path id="Path_28456" data-name="Path 28456" d="M78.385,62H75.421a.563.563,0,0,0-.563.6l.8,12.668a.572.572,0,0,0,.572.533h1.355a.567.567,0,0,0,.563-.533l.8-12.668a.563.563,0,0,0-.563-.6Z" transform="translate(-45.619 -39.653)" fill="#026dd5"/>
  <path id="Path_28457" data-name="Path 28457" d="M25.465,70.59H23.293a.423.423,0,0,0-.423.423l.589,9.315a.423.423,0,0,0,.423.394h1a.423.423,0,0,0,.423-.394l.589-9.315a.423.423,0,0,0-.428-.423Z" transform="translate(-15.643 -44.606)" fill="#026dd5"/>
  <path id="Path_28458" data-name="Path 28458" d="M23.163,16.1a2.409,2.409,0,1,0-2.413-2.4A2.409,2.409,0,0,0,23.163,16.1Z" transform="translate(-14.42 -10.408)" fill="#026dd5"/>
  <path id="Path_28459" data-name="Path 28459" d="M17.9,30.84h0a1.384,1.384,0,0,1-.885-1.143v-3.65a2.477,2.477,0,1,0-4.949,0v3.6a1.38,1.38,0,0,1-.9,1.19h0A7.456,7.456,0,0,0,5.8,38s0,.025,0,.038v3.671a.576.576,0,0,0,.576.576h16.33a.576.576,0,0,0,.576-.576V37.97h0A7.464,7.464,0,0,0,17.9,30.84Z" transform="translate(-5.8 -17.436)" fill="#026dd5"/>
  <path id="Path_28460" data-name="Path 28460" d="M57.918,81.74H56.75a.224.224,0,0,0-.22.237l.313,4.992a.224.224,0,0,0,.224.212H57.6a.224.224,0,0,0,.224-.212l.313-4.992a.224.224,0,0,0-.22-.237Z" transform="translate(-35.051 -51.036)" fill="#026dd5"/>
  <path id="Path_28461" data-name="Path 28461" d="M56.089,51.116a1.723,1.723,0,1,0-1.719-1.723,1.723,1.723,0,0,0,1.719,1.723Z" transform="translate(-33.806 -31.391)" fill="#026dd5"/>
  <path id="Path_28462" data-name="Path 28462" d="M53.858,60.541h0a.737.737,0,0,1-.474-.614V57.975a1.325,1.325,0,0,0-2.65,0V59.9a.745.745,0,0,1-.478.639h0a4,4,0,0,0-2.875,3.836v1.981a.309.309,0,0,0,.309.309h8.739a.309.309,0,0,0,.309-.309v-2h0A4,4,0,0,0,53.858,60.541Z" transform="translate(-29.775 -36.568)" fill="#026dd5"/>
  <path id="Path_28463" data-name="Path 28463" d="M57.547,25.344a1.427,1.427,0,1,0-1.427-1.427,1.427,1.427,0,0,0,1.427,1.427Z" transform="translate(-34.815 -16.872)" fill="#026dd5"/>
</svg>
