<svg id="Movie_enthusiasts_" data-name="Movie enthusiasts  " xmlns="http://www.w3.org/2000/svg" width="36.084" height="36.084" viewBox="0 0 36.084 36.084">
  <path id="Path_28287" data-name="Path 28287" d="M24.848,19.993l8.667,1.561A38.014,38.014,0,0,0,32.378,10.4l-.11-.4L10,14.011l.036.411a39.638,39.638,0,0,0,2.21,9.388c2.278,6.1,5.793,10.008,10.195,11.358a27.854,27.854,0,0,1-.339-3.583c-.033-1.087-.01-2.143.049-3.142a4.853,4.853,0,0,0-1.112,1.227l-1.146-.719a6.284,6.284,0,0,1,2.394-2.2,37.8,37.8,0,0,1,1.021-5.787l.331-1.186ZM26.73,15.37a2.729,2.729,0,0,1,2.02.419A2.608,2.608,0,0,1,29.875,17.5l-1.332.24A1.264,1.264,0,0,0,28,16.913a1.384,1.384,0,0,0-1.026-.21,1.336,1.336,0,0,0-1.112,1.523l-1.332.24A2.69,2.69,0,0,1,26.73,15.37Zm-7.887,4.116a1.264,1.264,0,0,0-.548-.829A1.411,1.411,0,0,0,16.382,19a1.264,1.264,0,0,0-.224.968l-1.332.24a2.608,2.608,0,0,1,.457-2,2.764,2.764,0,0,1,3.768-.678,2.608,2.608,0,0,1,1.125,1.713Z" transform="translate(-10 -10)" fill="#026dd5"/>
  <path id="Path_28288" data-name="Path 28288" d="M47.576,59.875c13.2-1.247,14.847-20.89,14.847-20.89L40.937,35.121S35.634,54.105,47.576,59.875Zm6.253-17.746a2.737,2.737,0,0,1,2.021-.419,2.69,2.69,0,0,1,2.2,3.094l-1.332-.24a1.336,1.336,0,0,0-1.112-1.523,1.387,1.387,0,0,0-1.026.21,1.264,1.264,0,0,0-.548.83l-1.332-.24A2.608,2.608,0,0,1,53.829,42.129ZM52.459,53.07l1,.911a5.526,5.526,0,0,1-4.106,1.805,5.8,5.8,0,0,1-1.026-.092A5.562,5.562,0,0,1,44.114,52.3l1.255-.505a4.288,4.288,0,0,0,7.09,1.275Zm-8.33-12.686a2.732,2.732,0,0,1,2.02-.419,2.69,2.69,0,0,1,2.205,3.094l-1.332-.24A1.336,1.336,0,0,0,45.91,41.3a1.389,1.389,0,0,0-1.026.21,1.265,1.265,0,0,0-.548.83L43,42.1A2.608,2.608,0,0,1,44.129,40.385Z" transform="translate(-26.339 -23.79)" fill="#026dd5"/>
</svg>
