<svg xmlns="http://www.w3.org/2000/svg" width="50" height="50" viewBox="0 0 50 50">
  <g id="Group_42129" data-name="Group 42129" transform="translate(-331 -342)">
    <g id="Locations" transform="translate(331 342)">
      <rect id="Rectangle_7018" data-name="Rectangle 7018" width="50" height="50" rx="6" fill="#e2edf8"/>
    </g>
    <path id="receipt_24dp_E3E3E3_FILL1_wght400_GRAD0_opsz24" d="M120-850.237V-880l2.232,2.232L124.464-880l2.232,2.232L128.929-880l2.232,2.232L133.393-880l2.232,2.232L137.857-880l2.232,2.232L142.321-880l2.232,2.232L146.786-880v29.762l-2.232-2.232-2.232,2.232-2.232-2.232-2.232,2.232-2.232-2.232-2.232,2.232-2.232-2.232-2.232,2.232-2.232-2.232-2.232,2.232-2.232-2.232Zm4.464-7.441h17.857v-2.976H124.464Zm0-5.953h17.857v-2.976H124.464Zm0-5.953h17.857v-2.976H124.464Z" transform="translate(222.607 1231.821)" fill="#016dd5"/>
  </g>
</svg>
