<svg xmlns="http://www.w3.org/2000/svg" width="56" height="56" viewBox="0 0 56 56">
  <g id="Payments" transform="translate(-376 -246)">
    <rect id="Rectangle_7018" data-name="Rectangle 7018" width="56" height="56" rx="6" transform="translate(376 246)" fill="#e2edf8"/>
    <path id="Path_99826" data-name="Path 99826" d="M2,26.292A3.863,3.863,0,0,0,5.858,30.15H34.153a3.863,3.863,0,0,0,3.858-3.858v-9H2ZM30.295,23.72h3.858a1.286,1.286,0,0,1,0,2.572H30.295a1.286,1.286,0,0,1,0-2.572Zm-7.717,0h3.858a1.286,1.286,0,0,1,0,2.572H22.578a1.286,1.286,0,0,1,0-2.572ZM38.012,10.858v3.858H2V10.858A3.863,3.863,0,0,1,5.858,7H34.153A3.863,3.863,0,0,1,38.012,10.858Z" transform="translate(383.994 255.425)" fill="#006dd5"/>
  </g>
</svg>
