<svg xmlns="http://www.w3.org/2000/svg" width="50" height="50" viewBox="0 0 50 50">
  <g id="Group_42132" data-name="Group 42132" transform="translate(-752 -342)">
    <rect id="Rectangle_7018" data-name="Rectangle 7018" width="50" height="50" rx="6" transform="translate(752 342)" fill="#e2edf8"/>
    <path id="not_listed_location_24dp_016DD5_FILL1_wght400_GRAD0_opsz24" d="M171.207-860.389a1.413,1.413,0,0,0,1.033-.438,1.413,1.413,0,0,0,.438-1.033,1.413,1.413,0,0,0-.438-1.033,1.413,1.413,0,0,0-1.033-.438,1.413,1.413,0,0,0-1.033.438,1.413,1.413,0,0,0-.438,1.033,1.413,1.413,0,0,0,.438,1.033A1.413,1.413,0,0,0,171.207-860.389Zm-1.051-4.343h2.1a8.191,8.191,0,0,1,.053-1.051,2.475,2.475,0,0,1,.158-.63,2.739,2.739,0,0,1,.4-.578q.263-.3.858-.893a5.761,5.761,0,0,0,1.1-1.471,3.264,3.264,0,0,0,.368-1.471,3.311,3.311,0,0,0-1.086-2.609,4.22,4.22,0,0,0-2.907-.963,4.117,4.117,0,0,0-2.521.805,3.955,3.955,0,0,0-1.471,2.136l1.891.77a2.415,2.415,0,0,1,.805-1.243,2.045,2.045,0,0,1,1.3-.438,2.011,2.011,0,0,1,1.366.455,1.462,1.462,0,0,1,.525,1.156,1.97,1.97,0,0,1-.263,1.033,4.342,4.342,0,0,1-.928,1,8.034,8.034,0,0,0-.946.893,3.3,3.3,0,0,0-.525.788,2.487,2.487,0,0,0-.228.858Q170.156-865.677,170.156-864.731Zm1.051,12.747a46.566,46.566,0,0,1-8.422-8.913A13.86,13.86,0,0,1,160-868.513a10.834,10.834,0,0,1,3.379-8.37A11.2,11.2,0,0,1,171.207-880a11.2,11.2,0,0,1,7.827,3.117,10.834,10.834,0,0,1,3.379,8.37,13.86,13.86,0,0,1-2.784,7.617A46.566,46.566,0,0,1,171.207-851.984Z" transform="translate(606 1233)" fill="#016dd5"/>
  </g>
</svg>
