<svg xmlns="http://www.w3.org/2000/svg" width="50" height="50" viewBox="0 0 50 50">
  <g id="Group_42138" data-name="Group 42138" transform="translate(-1592 -342)">
    <rect id="Rectangle_7018" data-name="Rectangle 7018" width="50" height="50" rx="6" transform="translate(1592 342)" fill="#e2edf8"/>
    <path id="schedule_24dp_E3E3E3_FILL1_wght400_GRAD0_opsz24" d="M96.3-861.985l1.716-1.716-4.533-4.534v-5.638H91.029v6.618Zm-4.044,6.5a11.932,11.932,0,0,1-4.779-.965,12.376,12.376,0,0,1-3.891-2.62,12.376,12.376,0,0,1-2.62-3.891,11.933,11.933,0,0,1-.965-4.78,11.934,11.934,0,0,1,.965-4.779,12.376,12.376,0,0,1,2.62-3.891,12.376,12.376,0,0,1,3.891-2.62A11.934,11.934,0,0,1,92.255-880a11.933,11.933,0,0,1,4.779.965,12.375,12.375,0,0,1,3.891,2.62,12.377,12.377,0,0,1,2.62,3.891,11.933,11.933,0,0,1,.965,4.779,11.933,11.933,0,0,1-.965,4.779,12.376,12.376,0,0,1-2.62,3.891,12.375,12.375,0,0,1-3.891,2.62,11.933,11.933,0,0,1-4.779.964Z" transform="translate(1524.5 1234.5)" fill="#016dd5"/>
  </g>
</svg>
