<svg xmlns="http://www.w3.org/2000/svg" width="224.575" height="159.278" viewBox="0 0 224.575 159.278">
  <g id="reports-illustration" transform="translate(-0.05 0)">
    <path id="Path_99447" data-name="Path 99447" d="M2.895,1.9,47.315,0l5.459,9.666L56,25H6.555Z" transform="translate(163.901 130)" fill="#ffe945"/>
    <path id="Path_99414" data-name="Path 99414" d="M60.276,87.662,83.95,80.855a145.535,145.535,0,0,0-14.191,31.691C69,114.993,71.8,116.8,73.88,115.714l18.493-9.684a49.377,49.377,0,0,0-6.453,21.277c2.588-1.334,5.108-2.685,7.479-3.951,4.529-2.419,9.484-5.511,14.628-6.879a127.645,127.645,0,0,1,14.275-3.234c1.715-.266,3.5-.49,5.309-.673v0c-1.484-2.251.082-7.163,2.443-6.458-1.309-1.327-1.215-4.021.884-4.157l.075,0-.113-.287a65.176,65.176,0,0,0-3.742-7.28c.227-.114.452-.224.677-.333l-.223-.483-1.5-2.689A12.254,12.254,0,0,1,118.069,92c-3.423-.545-6.972-2.2-8.212-4.345a4.534,4.534,0,0,1-5.909-.154c-1.881-1.761-2.975-9.363,1.768-10.848l.02.035c.33-3.712,3.094-6.257,7.255-6.257l.022.082c1.606-1.541,4.513-2.249,7.512-2.249l.211-.049a7.3,7.3,0,0,0-4.259-3.156,23.78,23.78,0,0,0-9.334-1.216c-2.374.268-6.694,1.459-8.9.385-2.325-1.133-1.653-4.032.76-5.332,3.1-1.667,6.684-1.854,10.056-1.972,3.857-.135,7.264.73,10.949,1.721C133.606,62.3,140.831,76.732,147.6,87.492l.067.193c2.479-.25,2.387,1.1,3.5,3.707.712,1.662,2.08,6.663,2.081,6.663,3.8.194,6.84,1.956,7.505,7.147l.173,1.007a28.65,28.65,0,0,1,3.217-.566A114.169,114.169,0,0,0,175.7,94.082a141.857,141.857,0,0,0-9.568-13.548q-2.933-3.689-6.117-7.169-1.55-1.694-3.158-3.333c-1.011-1.032-2.181-1.993-3.091-3.115-.679-.837.11-1.132.842-1.843q1.689-1.64,3.446-3.209,3.825-3.428,7.931-6.522a2.926,2.926,0,0,0,1.289-3.168,2.817,2.817,0,0,0-2.705-2.06,143.744,143.744,0,0,1-19.9.438A118.374,118.374,0,0,1,161.24,29.134c2.2-2.253-.62-6.068-3.4-4.406q-16.134,9.649-33.014,17.957A188.006,188.006,0,0,1,116.78,4.129a3.579,3.579,0,0,0-.409-1.351,2.847,2.847,0,0,0-3.55-2.692c-3.1.734-4.249,3.742-4.511,6.605-.314,3.425-.042,6.936-.245,10.379a116.43,116.43,0,0,1-2.435,17.693A327.738,327.738,0,0,0,76.223,17.553c-2.279-1.178-5.594,1.391-3.838,3.838,6.21,8.653,12.464,17.345,19.661,25.208A148.661,148.661,0,0,0,65.39,43.448c-2.658-.072-3.99,4.033-1.416,5.228A174.543,174.543,0,0,1,85.984,60.9c-2.953,4.448-7.561,7.407-12.162,10.148-5.766,3.435-11.862,6.737-16.274,11.924-1.726,2.028-.134,5.512,2.729,4.689" transform="translate(-40.97)" fill="#f4f6f9"/>
    <path id="Path_99415" data-name="Path 99415" d="M3.5,555.7c11.344.759,23.312-1.33,34.73-.9,19.905.743,39.8-.875,59.74-1.2,38.157-.63,76.768-1.8,114.892-.381,5.36.2,13.557.252,13.557.252" transform="translate(-2.599 -397.541)" fill="none" stroke="#333" stroke-linecap="round" stroke-linejoin="round" stroke-width="1.6"/>
    <path id="Path_99416" data-name="Path 99416" d="M306.413,509.581c3.208-8.495,3.722-14.091,4.891-18.111,1.072,4.477,2.712,13.685,5.741,18.111" transform="translate(-220.537 -353.602)" fill="none" stroke="#333" stroke-linecap="round" stroke-linejoin="round" stroke-width="1.6"/>
    <path id="Path_99417" data-name="Path 99417" d="M231.221,435.466a77.622,77.622,0,0,0-2.274-11.11,42.874,42.874,0,0,0-6.68-15.182c-8.239.359-16.6.243-24.993.992-7.418.662-15.156,1.251-22.588.506-3.993-.4-7.808-1.7-11.658-2.554-5.242-1.168-8.8-2.489-13.158-5.806-4.291-3.265-7.264-8.2-12.011-10.879-6.657-3.753-16.876-2.965-22.913,1.675a32.885,32.885,0,0,0-8.2,9.688,53.166,53.166,0,0,0-5.06,12.177c-2.166-9.031-5.251-14.023-10.834-17.209-9.6-5.479-19.212,1.123-27.425,5.508-7.139,3.812-15.617,8.4-23.284,10.942-4.439,1.472-12.315,3.367-17.112,2.561a117.266,117.266,0,0,0-7.857,21.449" transform="translate(-10.997 -279.918)" fill="none" stroke="#333" stroke-linecap="round" stroke-linejoin="round" stroke-width="1.6"/>
    <path id="Path_99418" data-name="Path 99418" d="M239.182,403.807a127.471,127.471,0,0,1,14.316-3.246,104.89,104.89,0,0,1,15.557-1.212c2.115,0,5.6-.129,7.461.762" transform="translate(-172.166 -287.319)" fill="none" stroke="#333" stroke-linecap="round" stroke-linejoin="round" stroke-width="1.6"/>
    <path id="Path_99419" data-name="Path 99419" d="M383.329,378.552a104.593,104.593,0,0,1,11.312-4.587c4.087-1.255,8.8-1.145,13.017-1.559,6.851-.672,13.971-1.163,20.753,0,6.665,1.145,14.217,4.8,19.829,8.725,6.652,4.654,15.353,10.177,20.808,12.072a51.951,51.951,0,0,0,18.1,3.487" transform="translate(-275.877 -267.434)" fill="none" stroke="#333" stroke-linecap="round" stroke-linejoin="round" stroke-width="1.6"/>
    <path id="Path_99420" data-name="Path 99420" d="M152.777,467.632a21.136,21.136,0,0,0-8.225-6.2,19.681,19.681,0,0,0-10.731-.389c-9.191,1.957-15.523,6.811-24.194,10.321-4.4,1.779-12.692,3.6-17.112,4.488" transform="translate(-66.643 -331.311)" fill="none" stroke="#333" stroke-linecap="round" stroke-linejoin="round" stroke-width="1.6"/>
    <path id="Path_99421" data-name="Path 99421" d="M44.516,531.535c17.766-1.029,27.975-4.952,33.943-5.682a115.333,115.333,0,0,1,26-.416,46.157,46.157,0,0,1,10.847,3.091" transform="translate(-32.108 -377.645)" fill="none" stroke="#333" stroke-linecap="round" stroke-linejoin="round" stroke-width="1.6"/>
    <path id="Path_99422" data-name="Path 99422" d="M249.633,502.051c-3.788-2.018-11.724-4.482-19.525-1.876" transform="translate(-165.637 -359.055)" fill="none" stroke="#333" stroke-linecap="round" stroke-linejoin="round" stroke-width="1.6"/>
    <path id="Path_99423" data-name="Path 99423" d="M347.849,445.515c3.846-4.874,6.21-8.722,11.858-11.739,4.82-2.574,8.727-2.825,13.815-.433,3.486,1.639,9.211,5.148,12.57,7.106" transform="translate(-250.35 -310.59)" fill="none" stroke="#333" stroke-linecap="round" stroke-linejoin="round" stroke-width="1.6"/>
    <path id="Path_99424" data-name="Path 99424" d="M356.516,485.357c4.163-1.783,11.512-4.875,16.138-5.332a58.592,58.592,0,0,1,11.248.259c7.869.733,15.751,3.477,23.459,5.1a38.825,38.825,0,0,0,7.685.786" transform="translate(-256.586 -345.241)" fill="none" stroke="#333" stroke-linecap="round" stroke-linejoin="round" stroke-width="1.6"/>
    <path id="Path_99425" data-name="Path 99425" d="M590.556,466.685c2.147,6.331,3.642,16.778,4.293,24.085" transform="translate(-424.972 -335.769)" fill="none" stroke="#333" stroke-linecap="round" stroke-linejoin="round" stroke-width="1.6"/>
    <path id="Path_99426" data-name="Path 99426" d="M363.253,526.294c6.245-.576,10.18-.763,16.718-1.111,4.909-.261,20.1.855,20.1.855" transform="translate(-261.433 -377.828)" fill="none" stroke="#333" stroke-linecap="round" stroke-linejoin="round" stroke-width="1.6"/>
    <line id="Line_373" data-name="Line 373" x2="2.024" transform="translate(151.16 148.465)" fill="none" stroke="#333" stroke-linecap="round" stroke-linejoin="round" stroke-width="1.6"/>
    <path id="Path_99427" data-name="Path 99427" d="M699.238,491.621c-2.381-.17-16.815.141-19.45.772" transform="translate(-489.173 -353.677)" fill="none" stroke="#333" stroke-linecap="round" stroke-linejoin="round" stroke-width="1.6"/>
    <path id="Path_99428" data-name="Path 99428" d="M659.308,508.391c-5.976.508-33.79,1.061-39.461,1.248" transform="translate(-446.046 -365.777)" fill="none" stroke="#333" stroke-linecap="round" stroke-linejoin="round" stroke-width="1.6"/>
    <path id="Path_99429" data-name="Path 99429" d="M662.992,529.246c-10.961,0-21.787-.005-33.476.563" transform="translate(-453.003 -380.781)" fill="none" stroke="#333" stroke-linecap="round" stroke-linejoin="round" stroke-width="1.6"/>
    <path id="Path_99430" data-name="Path 99430" d="M340.8,356.644c-1.509-11.775-15.256-5.911-22.277-4.1a42.475,42.475,0,0,1-7.538.854c-2.1.136-2.193,2.83-.884,4.157-2.361-.7-3.927,4.208-2.443,6.458" transform="translate(-221.012 -251.441)" fill="none" stroke="#333" stroke-linecap="round" stroke-linejoin="round" stroke-width="1.6"/>
    <path id="Path_99431" data-name="Path 99431" d="M311.266,326.478a65.208,65.208,0,0,0-3.742-7.28,97.093,97.093,0,0,1,11.838-4.745,56.638,56.638,0,0,1,7.849-1.828c3.331-.629,3.1.717,4.323,3.585.712,1.663,2.081,6.664,2.081,6.664" transform="translate(-221.337 -224.818)" fill="none" stroke="#333" stroke-linecap="round" stroke-linejoin="round" stroke-width="1.6"/>
    <path id="Path_99432" data-name="Path 99432" d="M250.133,233.454c-6.766-10.76-13.99-25.195-27.584-28.848-3.685-.99-7.092-1.856-10.949-1.721-3.372.118-6.961.3-10.056,1.972-2.414,1.3-3.085,4.2-.76,5.332,2.2,1.074,6.522-.117,8.9-.385a23.78,23.78,0,0,1,9.334,1.216,7.327,7.327,0,0,1,4.785,4.114" transform="translate(-143.506 -145.961)" fill="none" stroke="#333" stroke-linecap="round" stroke-linejoin="round" stroke-width="1.6"/>
    <path id="Path_99433" data-name="Path 99433" d="M262.967,261.63a47.168,47.168,0,0,0-12.675,1.7c-2.047.569-4.511,1.106-5.447,3.334s.706,3.7,3.17,3.744c2.9.052,5.8-.564,9.73-.47-.551,1.411-.66,5.009,1.4,5.789" transform="translate(-176.049 -188.229)" fill="none" stroke="#333" stroke-linecap="round" stroke-linejoin="round" stroke-width="1.6"/>
    <path id="Path_99434" data-name="Path 99434" d="M261.335,243.348c-5.434,0-10.577,2.318-8.194,7.725" transform="translate(-181.779 -175.083)" fill="none" stroke="#333" stroke-linecap="round" stroke-linejoin="round" stroke-width="1.6"/>
    <path id="Path_99435" data-name="Path 99435" d="M238.329,251.073c-5.193,0-8.216,3.964-7.037,9.214,1.282,5.711,9.266,8.7,10.523,3.546" transform="translate(-166.307 -180.642)" fill="none" stroke="#333" stroke-linecap="round" stroke-linejoin="round" stroke-width="1.6"/>
    <path id="Path_99436" data-name="Path 99436" d="M222.437,273.254c-4.744,1.485-3.649,9.087-1.768,10.848,2.532,2.37,7.128.9,6.845-2.176" transform="translate(-157.691 -196.601)" fill="none" stroke="#333" stroke-linecap="round" stroke-linejoin="round" stroke-width="1.6"/>
    <path id="Path_99437" data-name="Path 99437" d="M245.855,312.473c1.24,2.14,4.789,3.8,8.212,4.345a12.255,12.255,0,0,0,8.043-1.124l1.5,2.688" transform="translate(-176.967 -224.818)" fill="none" stroke="#333" stroke-linecap="round" stroke-linejoin="round" stroke-width="1.6"/>
    <path id="Path_99438" data-name="Path 99438" d="M439.371,306.8a124.138,124.138,0,0,0,13.038-13.234,64.512,64.512,0,0,0,9.928-13.98c2.323,1.463,4.9,2.3,12.388,2.67a100.947,100.947,0,0,0,16.592-.364c2.723-.447,3.068.953,3.724,3.679a24.138,24.138,0,0,0,3.178,7.853c3.909,5.8,6.311,8.852,11.062,15.787A232.7,232.7,0,0,1,522,329.633" transform="translate(-316.198 -201.156)" fill="none" stroke="#333" stroke-linecap="round" stroke-linejoin="round" stroke-width="1.6"/>
    <path id="Path_99439" data-name="Path 99439" d="M511.358,304.109c.846,2.805,2.677,4.968,6.143,3.057a18.715,18.715,0,0,0,7.234-6.244c2.208,4.888,4.331,7.2,8.084,9.531,3.885,2.413,9.692-.378,12.606-3.58" transform="translate(-367.991 -216.507)" fill="none" stroke="#333" stroke-linecap="round" stroke-linejoin="round" stroke-width="1.6"/>
    <path id="Path_99440" data-name="Path 99440" d="M489.081,160.289l-.8-17.672s-9.221,1.2-13.087,1.94a53.241,53.241,0,0,1,4.11-11.9c1.767-4.039,3.472-7.741,6.5-11.021,5.486-5.944,17.089-11.278,23.651-3.725,3.836,4.416,3.147,10.84,3.45,16.286,3.834-.85,9.709-4.513,12.169.981,2.613,5.835-6.262,5.844-9.9,5.92.667,5.275,2.787,17.926,3.251,21.214" transform="translate(-341.974 -82.158)" fill="none" stroke="#333" stroke-linecap="round" stroke-linejoin="round" stroke-width="1.6"/>
    <path id="Path_99441" data-name="Path 99441" d="M558.06,219.185c3.745,0,6.072-1.9,6.072-3.795" transform="translate(-401.592 -154.967)" fill="none" stroke="#333" stroke-linecap="round" stroke-linejoin="round" stroke-width="1.6"/>
    <line id="Line_374" data-name="Line 374" x2="0.506" y2="2.25" transform="translate(153.939 49.796)" fill="none" stroke="#333" stroke-linecap="round" stroke-linejoin="round" stroke-width="1.6"/>
    <line id="Line_375" data-name="Line 375" x2="0.506" y2="2.25" transform="translate(150.331 50.642)" fill="none" stroke="#333" stroke-linecap="round" stroke-linejoin="round" stroke-width="1.6"/>
    <path id="Path_9944211" data-name="Path 9944211" d="M535.607,122.521q-.1-1.047-.249-2.092a29.735,29.735,0,0,0-1.467-6.887c-.847-3.22-2.677-8.4-5.633-10.069a4.824,4.824,0,0,0-4.044-.988c-.011-.027-.022-.054-.034-.081a4.482,4.482,0,0,0-2.43-1.88,9.992,9.992,0,0,0-6.847.006c-5.368,1.728-8.754,6.7-13.93,8.768a.763.763,0,0,0,.2,1.491l7.44.051a36.543,36.543,0,0,0,6.762-.355,11.811,11.811,0,0,0,5.59-2.533,10.568,10.568,0,0,0,3.606,6.811c1.61,1.253,3.05,2.376,3.618,4.427.638,2.3.922,4.746,1.355,7.094.139.751,1.569.7,1.744,0,.208-.824.406-1.684.59-2.564,1.151-.331,2.432-.818,3.727-1.2" transform="translate(-360.139 -71.891)" fill="#333"/>
    <path id="Path_9944311" data-name="Path 9944311" d="M617.721,209.936c.157,1.245.4,2.9.675,4.75a.737.737,0,0,0,1.21-.365q.344-2.221.5-4.455c-.9.044-1.724.056-2.38.07" transform="translate(-444.517 -150.994)" fill="#333"/>
    <path id="Path_99444" data-name="Path 99444" d="M552.824,316.587c-1.452,2.647-.008,5.348.566,8.042.669,3.14-1.63,5.194-1.875,8.041" transform="translate(-396.883 -227.777)" fill="none" stroke="#333" stroke-linecap="round" stroke-linejoin="round" stroke-width="1.6"/>
    <path id="Path_99445" data-name="Path 99445" d="M565.349,336.92a.345.345,0,0,0,.28.281" transform="translate(-406.836 -242.407)" fill="none" stroke="#333" stroke-linecap="round" stroke-linejoin="round" stroke-width="1.6"/>
    <path id="Path_99446" data-name="Path 99446" d="M564.349,368.92c.2.056.358.1.561.14" transform="translate(-406.117 -265.43)" fill="none" stroke="#333" stroke-linecap="round" stroke-linejoin="round" stroke-width="1.6"/>
  </g>
</svg>
