<svg xmlns="http://www.w3.org/2000/svg" width="69.383" height="57.311" viewBox="0 0 69.383 57.311">
  <g id="Seller_prints" data-name="Seller prints" transform="translate(-1725.015 -516.038)">
    <path id="Path_101335" data-name="Path 101335" d="M29.2,26.31A11.05,11.05,0,1,1,18.14,37.368,11.054,11.054,0,0,1,29.2,26.31ZM7.93,76.467a2.914,2.914,0,0,1-2.247-.995,2.443,2.443,0,0,1-.592-2.23l2.361-10.73a13.911,13.911,0,0,1,11.962-10.6,17.5,17.5,0,0,0,19.561,0,13.911,13.911,0,0,1,11.962,10.6L53.3,73.241a2.434,2.434,0,0,1-.592,2.23,2.919,2.919,0,0,1-2.247.995H7.93Z" transform="translate(1719.988 496.882)" fill="#016dd5" fill-rule="evenodd"/>
    <path id="Path_101338" data-name="Path 101338" d="M17.43,2.5A14.93,14.93,0,1,1,2.5,17.43,14.929,14.929,0,0,1,17.43,2.5ZM14.916,21.679l-2.754.858a5.1,5.1,0,0,0,3.9,3.5v1.853h2.89V25.98a4.985,4.985,0,0,0,3.964-4.862c0-3.94-2.594-4.5-5.187-5.053-1.448-.311-2.9-.621-2.9-2.232a1.953,1.953,0,0,1,.856-1.648c1.278-.9,3.661-.731,4.247,1.062l2.743-.891a5.09,5.09,0,0,0-3.727-3.4V6.974h-2.89V8.932a5.011,5.011,0,0,0-4.118,4.9c0,3.94,2.594,4.5,5.187,5.053,1.448.311,2.9.621,2.9,2.232a1.952,1.952,0,0,1-.872,1.66c-1.3.889-3.675.7-4.238-1.1Z" transform="translate(1762.039 513.538)" fill="#016dd5" fill-rule="evenodd"/>
  </g>
</svg>
