<svg xmlns="http://www.w3.org/2000/svg" width="56" height="56" viewBox="0 0 56 56">
  <g id="OK_Locations" data-name="OK Locations" transform="translate(-376 -246)">
    <rect id="Rectangle_7018" data-name="Rectangle 7018" width="56" height="56" rx="6" transform="translate(376 246)" fill="#e2edf8"/>
    <path id="Path_99582" data-name="Path 99582" d="M-163.941,226.659A12.79,12.79,0,0,0-177.2,213.886a12.854,12.854,0,0,0-12.29,11.547,13.44,13.44,0,0,0,.186,3.676h0s.037.149.074.408a11.233,11.233,0,0,0,.854,2.525c1.3,3.045,4.233,8.131,10.916,13.664a1.118,1.118,0,0,0,1.411,0c6.646-5.532,9.617-10.619,10.916-13.664a12.647,12.647,0,0,0,.854-2.525,1.659,1.659,0,0,0,.074-.408h0A11,11,0,0,0-163.941,226.659Zm-12.773,7.909a7.757,7.757,0,0,1-7.76-7.76,7.757,7.757,0,0,1,7.76-7.76,7.781,7.781,0,0,1,7.76,7.76A7.757,7.757,0,0,1-176.714,234.567Zm-4.716-6.535a1.009,1.009,0,0,1,0-1.448,1.009,1.009,0,0,1,1.448,0l1.6,1.6,4.938-4.938a1.009,1.009,0,0,1,1.448,0,1.009,1.009,0,0,1,0,1.448l-5.681,5.681a1.058,1.058,0,0,1-.52.3,1.609,1.609,0,0,0-.186.037,1.179,1.179,0,0,1-.743-.3Z" transform="translate(580.91 44.122)" fill="#006dd5"/>
  </g>
</svg>
