<svg id="Skilled_Job_Seekers" data-name="Skilled Job Seekers" xmlns="http://www.w3.org/2000/svg" width="34.864" height="34.964" viewBox="0 0 34.864 34.964">
  <g id="Group_892" data-name="Group 892" transform="translate(1.099 19.854)">
    <path id="Path_28488" data-name="Path 28488" d="M16.077,44.927l-.06,3.843H5.995A2.914,2.914,0,0,1,3.08,45.855v-8.51a3.33,3.33,0,0,0,1.059.382l.076.011.147.005c2.238.393,4.651.693,7.173.89A7.959,7.959,0,0,0,16.077,44.927Z" transform="translate(-3.08 -37.345)" fill="#026dd5"/>
    <path id="Path_28489" data-name="Path 28489" d="M52,37.425v8.467a2.914,2.914,0,0,1-2.915,2.915H39.17l-.06-3.843a7.949,7.949,0,0,0,4.542-6.3c2.577-.2,5.055-.508,7.369-.906A3.472,3.472,0,0,0,52,37.425Z" transform="translate(-19.442 -37.381)" fill="#026dd5"/>
  </g>
  <g id="Group_893" data-name="Group 893" transform="translate(15.139 17.643)">
    <path id="Path_28490" data-name="Path 28490" d="M33.287,33.3v2.718l-.835,1.829H29.635L28.8,36.014V33.3Z" transform="translate(-28.8 -33.295)" fill="#026dd5"/>
  </g>
  <path id="Path_28491" data-name="Path 28491" d="M35.289,7.269a2.324,2.324,0,0,0-1.681-.715H24.17V4.474a2.323,2.323,0,0,0-2.309-2.32A1.692,1.692,0,0,0,20.267,1c-2.391.191-4.416-.628-5.033,1.146a2.326,2.326,0,0,0-2.32,2.325v2.08H3.388a2.314,2.314,0,0,0-2.32,2.424l.448,8.969a2.322,2.322,0,0,0,1.905,2.189l.142.005c2.184.388,4.542.682,7.009.879a7.929,7.929,0,0,1,15.852-.011c2.5-.2,4.9-.5,7.135-.884a2.269,2.269,0,0,0,.928-.377c.044-.033.087-.06.136-.1a2.347,2.347,0,0,0,.857-1.7l.448-8.969A2.317,2.317,0,0,0,35.289,7.269ZM23.078,6.554H14.005V4.474A1.236,1.236,0,0,1,15.223,3.24a1.726,1.726,0,0,0,1.6,1.152c2.637-.131,3.865.338,4.635-.5a1.821,1.821,0,0,0,.409-.655,1.235,1.235,0,0,1,1.212,1.234Z" transform="translate(-1.066 -0.975)" fill="#026dd5"/>
  <g id="Group_894" data-name="Group 894" transform="translate(10.595 13.407)">
    <path id="Path_28492" data-name="Path 28492" d="M27.31,39.2a6.827,6.827,0,1,1,1.826-.245A6.865,6.865,0,0,1,27.31,39.2Zm0-11.483a4.649,4.649,0,0,0-1.239,9.129,4.736,4.736,0,0,0,2.482,0,4.649,4.649,0,0,0-1.243-9.129Z" transform="translate(-20.475 -25.536)" fill="#026dd5"/>
  </g>
  <g id="Group_895" data-name="Group 895" transform="translate(15.107 27.845)">
    <path id="Path_28493" data-name="Path 28493" d="M33.391,56.729a2.326,2.326,0,1,1-4.651.044l.076-4.787c.044.011.093.027.136.038a8,8,0,0,0,4.225,0c.044-.011.093-.027.136-.038Z" transform="translate(-28.74 -51.985)" fill="#026dd5"/>
  </g>
</svg>
