<svg id="Group_44253" data-name="Group 44253" xmlns="http://www.w3.org/2000/svg" width="15.176" height="16.774" viewBox="0 0 15.176 16.774">
  <path id="Path_99824" data-name="Path 99824" d="M13.588,0h-12A1.678,1.678,0,0,0,0,1.755v7.85l1.059-1.17,3.224-3.56a1.484,1.484,0,0,1,2.246,0h0L9.282,7.919a.505.505,0,0,0,.748,0L14.118,3.4l1.059-1.17V1.755A1.678,1.678,0,0,0,13.588,0M9.658,4.544a.932.932,0,0,1-.882-.975.932.932,0,0,1,.882-.975.932.932,0,0,1,.882.975.932.932,0,0,1-.882.975" transform="translate(0 0)" fill="#673ab7"/>
  <path id="Path_99825" data-name="Path 99825" d="M11.363,27.6a1.482,1.482,0,0,1-2.244,0h0L6.367,24.555a.494.494,0,0,0-.748,0L.7,30a1.6,1.6,0,0,0,1.479,1.119H5.814v3.343H3.782a.588.588,0,0,0,0,1.17h8.782a.588.588,0,0,0,0-1.17H10.532V31.118h3.636a1.678,1.678,0,0,0,1.587-1.755V22.731L14.7,23.9Z" transform="translate(-0.579 -18.857)" fill="#673ab7"/>
</svg>
