<svg xmlns="http://www.w3.org/2000/svg" width="75.371" height="67.54" viewBox="0 0 75.371 67.54">
  <g id="My_Support_Request" data-name="My Support Request" transform="translate(0 2.98)">
    <path id="Path_103571" data-name="Path 103571" d="M46.19,61.827A35.037,35.037,0,0,0,41.158,59.9a23.625,23.625,0,0,1-13.276,3.962A23.864,23.864,0,0,1,14.713,59.9a35.037,35.037,0,0,0-5.032,1.927A12.605,12.605,0,0,0,2.4,73.284v13.17a4.409,4.409,0,0,0,4.39,4.39H49.081a4.481,4.481,0,0,0,4.39-4.39V73.284A12.605,12.605,0,0,0,46.19,61.827Z" transform="translate(-2.4 -26.282)" fill="#016dd5"/>
    <ellipse id="Ellipse_963" data-name="Ellipse 963" cx="16.595" cy="16.596" rx="16.595" ry="16.596" transform="translate(8.992)" fill="#016dd5"/>
    <path id="Path_103572" data-name="Path 103572" d="M61.192,11.2a12.9,12.9,0,0,0-12.88,12.881,12.558,12.558,0,0,0,1.816,6.605A8.844,8.844,0,0,1,46.22,33.6a1.173,1.173,0,0,0-.826,1.1,1.226,1.226,0,0,0,.661,1.211,9.3,9.3,0,0,0,4.459,1.046,14.142,14.142,0,0,0,5.449-1.156,13.211,13.211,0,0,0,5.284,1.156A12.881,12.881,0,0,0,61.192,11.2Zm0,23.229a10.219,10.219,0,0,1-4.624-1.1,1.11,1.11,0,0,0-.605-.165,1.607,1.607,0,0,0-.5.11,13.3,13.3,0,0,1-5.615,1.156,15.218,15.218,0,0,0,2.807-2.917,1.239,1.239,0,0,0,0-1.486,10.353,10.353,0,1,1,8.532,4.4Z" transform="translate(1.298 -14.18)" fill="#016dd5"/>
    <path id="Path_103573" data-name="Path 103573" d="M70.379,21.7A4.477,4.477,0,0,0,65.7,25.718a.888.888,0,0,0,.165.5.537.537,0,0,0,.5.22h1.1a.6.6,0,0,0,.606-.55,2.392,2.392,0,0,1,4.349-.771,1.665,1.665,0,0,1-.11,1.817,4.474,4.474,0,0,1-1.1.991,3.725,3.725,0,0,0-1.816,3.193.888.888,0,0,0,.165.5.679.679,0,0,0,.44.22h1.1a.6.6,0,0,0,.605-.55,1.335,1.335,0,0,1,.826-1.376,6.708,6.708,0,0,0,1.651-1.541,4.144,4.144,0,0,0,.33-4.294A4.508,4.508,0,0,0,70.379,21.7Z" transform="translate(-7.834 -18.899)" fill="#016dd5"/>
    <ellipse id="Ellipse_964" data-name="Ellipse 964" cx="1.431" cy="1.431" rx="1.431" ry="1.431" transform="translate(61.279 14.084)" fill="#016dd5"/>
  </g>
</svg>
