<svg xmlns="http://www.w3.org/2000/svg" width="35.248" height="35.973" viewBox="0 0 35.248 35.973">
  <path id="Teenagers" d="M590.737,1737.97l8.787-25.526-8.787,8.938-7.9-3.405Zm19.45,0,7.9-19.993-7.9,3.405-8.787-8.938Zm-19.45-29.522a4,4,0,1,1-4,4A4,4,0,0,1,590.737,1708.449Zm19.45,0a4,4,0,1,1-4,4A4,4,0,0,1,610.187,1708.449Zm-9.725-5.092a2.652,2.652,0,0,1,3.914-.821c.979.821.979,2.461,0,4.1a10.766,10.766,0,0,1-3.914,3.281,10.765,10.765,0,0,1-3.915-3.281c-.979-1.641-.979-3.281,0-4.1A2.652,2.652,0,0,1,600.462,1703.357Z" transform="translate(-582.838 -1701.997)" fill="#026dd5" fill-rule="evenodd"/>
</svg>
