<svg xmlns="http://www.w3.org/2000/svg" width="249.738" height="231.005" viewBox="0 0 249.738 231.005">
  <g id="Thanks-illustration" transform="translate(0.231 -12.909)">
    <path id="Path_99560" data-name="Path 99560" d="M114.569,182.694a9.562,9.562,0,0,1,6.417-1.535,17.04,17.04,0,0,1,2.281.446l0-.006s13.722-13.108,21.534-18.689a14.952,14.952,0,0,1,8.716-3.13c3.714-3.14,9.395-9.347,12.789-13.159l-.009-.458c-1.612-7.516-4.938-14.739-8.379-21.584-1.827-3.637-8.73-14.511-.546-14.481,3.048.011,7.329,4.342,9.837,8.273-2.85-7.074-4.821-13.5-7.775-20.62-1.413-3.406-6.265-17.655,2.654-17.441h1.282A3.879,3.879,0,0,1,166,75.586c4.905-1.985,7.092,2.916,9.022,5.569l.023.031c.477-6.41,8.638-3.53,10.951,3.76l.036.159a3.864,3.864,0,0,1,3.106.346c-.222-1-1.694-3.7-2.068-5.356-.839-3.72-.138-8.4,4.429-7.13,8.476,2.357,12.429,19.37,14.085,26.226-1.394-9.433-2.113-12.195-4.084-18.17-1.134-3.441-5.343-9.283-3.516-12.982,2.116-4.283,8.231-1.254,10.366,1.164,7.188,8.135,7.676,20.723,9.52,30.825a130.441,130.441,0,0,0-1.551-18.873c-.957-6.225-3.275-13.906-.362-16.624,5.157-4.812,9.106,2.8,10.223,7.081,3.36,12.868,3.255,28.3,1.849,41.79v0c1.517-2.421,3.116-4.773,4.817-7,2.885-3.775,8.115-13.105,14.368-11.024,6.035,2.008.011,11.489-1.631,15.314-2.838,6.608-5.053,13.433-7.89,20.008-1.395,3.231-5.308,9.574-6.31,14.2,0,0,10.011,13.41,15.005,19.467.063.015.125.032.187.05.275-.542.517-1.067.714-1.561,7.611,6.224,13.006,12.843,19.65,19.29,1.074,1.042,1.923,1.781,2.535,2.459.29-.361.58-.723.864-1.09,12.257-15.789,17.7-35.319,18.488-54.668a147.026,147.026,0,0,0-2.154-30.672,90.228,90.228,0,0,0-8.28-26.052,57.59,57.59,0,0,0-18.556-21.169c-7.931-5.506-17.326-9.072-26.79-11.467-19.858-5.026-42.387-6.846-62.189-.694-18.742,5.823-33.342,18.911-44.257,34.043-20.855,28.915-30.859,68.684-16.084,101.945a79.861,79.861,0,0,0,4.055,7.912" transform="translate(-59.615 -20.133)" fill="#f4f6f9"/>
    <path id="Path_99561" data-name="Path 99561" d="M301.939,388.073A159.565,159.565,0,0,1,287.6,369.987c.5-.149.991-.31,1.483-.476-2.393-2.808-15.556-18.431-16.207-23.112-.8.826-1.609,1.64-2.371,2.455-6.811,7.288-11.7,13.694-17.921,21.5l-.6.352c-.452,5.389-4.258,9.027-8.145,13.545a159.5,159.5,0,0,1-11.988,12.117c10.451,1.855,21.151,1.761,31.713.855a244.207,244.207,0,0,0,31.624-4.5c3.026-.668,6.043-1.443,9.021-2.344-.894-.841-1.683-1.653-2.273-2.309" transform="translate(-133.672 -199.838)" fill="#f4f6f9"/>
    <g id="Group_37230" data-name="Group 37230" transform="translate(0.084 13.283)">
      <path id="Path_99562" data-name="Path 99562" d="M3.5,414.127c1.2-5.295,7.3-11.383,11.662-14.678,1.778-1.342,4.731-3.7,7.073-2.639,2.82,1.273,2.621,6.68,4.817,8.684.646-6.14,5.76-14.685,10.273-18.783,2.982-2.709,6.627-2.085,9.745.376,4.3-2.624,7.247-7.286,12.931-6.6,4.834.581,9.781,3.649,13.373,6.848,5.329,4.747,9.8,9.025,12.858,15.541,2.191,4.663,2.688,9.671,3.8,14.879,1.487,6.985-1.451,11.1-8.9,11.045-.052,2.623-2.126,6.238-3.6,8.381-2.328,3.387-4.874,3.159-7.7,5.223-1.974,1.442-3.039,3.937-4.5,5.818-2.269,2.924-4.823,5.489-6.719,8.628" transform="translate(-2.02 -228.276)" fill="none" stroke="#333" stroke-linecap="round" stroke-linejoin="round" stroke-width="3"/>
      <path id="Path_99563" data-name="Path 99563" d="M184.5,485.866a5.87,5.87,0,0,1,1.5-1.874" transform="translate(-110.669 -290.449)" fill="none" stroke="#333" stroke-linecap="round" stroke-linejoin="round" stroke-width="3"/>
      <path id="Path_99564" data-name="Path 99564" d="M150.235,350.671s12.964-12.383,20.344-17.656c6.989-4.994,13.265-3.255,19.932,2.166,6.444,5.24,10.071,13.226,11.263,21.378,1,6.852-3.24,10.741-7.589,15.8-3.332,3.872-12.533,13.2-16.075,15.169" transform="translate(-90.101 -198.045)" fill="none" stroke="#333" stroke-linecap="round" stroke-linejoin="round" stroke-width="3"/>
      <rect id="Rectangle_8393" data-name="Rectangle 8393" width="7" height="7" rx="1" transform="translate(20 101.053)" fill="#ffe945"/>
      <path id="Path_99565" data-name="Path 99565" d="M40.055,237.563c3.2,7.728,3.425,11.078-2.738,15.831,6.01-5.618,10.639-3.626,14.863,2.156-3.577-4.7-4.046-5.88-3.464-9.194.315-1.79,3.224-4.875,4.922-6.074C50.332,242.554,44.052,245.691,40.055,237.563Z" transform="translate(-22.318 -142.523)" fill="none" stroke="#333" stroke-linecap="round" stroke-linejoin="round" stroke-width="3"/>
      <path id="Path_99566" data-name="Path 99566" d="M221.731,306.794C227.009,302.331,236.5,291.3,236.5,291.3" transform="translate(-133.018 -174.782)" fill="none" stroke="#333" stroke-linecap="round" stroke-linejoin="round" stroke-width="3"/>
      <path id="Path_99567" data-name="Path 99567" d="M280.853,253.01c5.879-7.379,10.5-13.431,16.931-20.317,2.282-2.443,5.037-4.873,6.378-7.717,1.513-3.207,1.68-9.321,1.68-12.874,0-13.908-1.286-29.21-6.175-42.354-1.386-3.725-4.9-14.292-8.792-16.127-3.8-1.792-5.14,1.539-4.7,4.2,1.192,7.218,2.979,14.57,3.736,20.927" transform="translate(-168.508 -91.83)" fill="none" stroke="#333" stroke-linecap="round" stroke-linejoin="round" stroke-width="3"/>
      <line id="Line_389" data-name="Line 389" x1="9.743" y1="1.124" transform="translate(47.199 49.072)" fill="none" stroke="#333" stroke-linecap="round" stroke-linejoin="round" stroke-width="3"/>
      <line id="Line_390" data-name="Line 390" x1="5.71" y1="3.747" transform="translate(61.438 24.715)" fill="none" stroke="#333" stroke-linecap="round" stroke-linejoin="round" stroke-width="3"/>
      <path id="Path_99568" data-name="Path 99568" d="M282.923,142.809c-2.531-7.978-12.487-10.377-9.968,0,.915,3.771,1.174,9.1,2.115,12.94.867,3.542,1.991,10.018,1.991,10.018" transform="translate(-163.525 -81.494)" fill="none" stroke="#333" stroke-linecap="round" stroke-linejoin="round" stroke-width="3"/>
      <path id="Path_99569" data-name="Path 99569" d="M310.063,342.124c1.126.134,3.106-1.124,3.106-1.124" transform="translate(-186.043 -204.614)" fill="none" stroke="#333" stroke-linecap="round" stroke-linejoin="round" stroke-width="3"/>
      <path id="Path_99570" data-name="Path 99570" d="M255.9,135.673c-1.823-2.507-3.889-7.137-8.524-5.262-4.257,1.722-2.267,5.815-.829,9.126,2.776,6.39,6.662,21.718,6.662,21.718" transform="translate(-146.87 -77.94)" fill="none" stroke="#333" stroke-linecap="round" stroke-linejoin="round" stroke-width="3"/>
      <path id="Path_99571" data-name="Path 99571" d="M359.75,339.164a3.5,3.5,0,0,1,3.373-1.124" transform="translate(-215.869 -202.777)" fill="none" stroke="#333" stroke-linecap="round" stroke-linejoin="round" stroke-width="3"/>
      <path id="Path_99572" data-name="Path 99572" d="M234.551,142.226c-8.427-.2-3.842,13.259-2.507,16.477,2.791,6.726,4.653,12.8,7.345,19.481.763,1.895,2.495,6.438,2.495,6.438" transform="translate(-137.741 -85.292)" fill="none" stroke="#333" stroke-linecap="round" stroke-linejoin="round" stroke-width="3"/>
      <path id="Path_99573" data-name="Path 99573" d="M390.633,199.311a98.715,98.715,0,0,1,7.433-11.466c2.726-3.566,7.667-12.381,13.574-10.415,5.7,1.9.011,10.854-1.541,14.467-2.681,6.243-4.774,12.691-7.454,18.9-1.687,3.91-7.28,12.645-5.995,16.612" transform="translate(-234.407 -106.255)" fill="none" stroke="#333" stroke-linecap="round" stroke-linejoin="round" stroke-width="3"/>
      <path id="Path_99574" data-name="Path 99574" d="M233.722,246.706c-1.524-7.1-4.666-13.925-7.916-20.392-1.726-3.436-8.248-13.709-.516-13.681,2.879.011,6.924,4.1,9.293,7.816" transform="translate(-132.935 -127.558)" fill="none" stroke="#333" stroke-linecap="round" stroke-linejoin="round" stroke-width="3"/>
      <path id="Path_99575" data-name="Path 99575" d="M339.3,148.922c1.328-12.744,1.427-27.324-1.747-39.481-1.055-4.042-4.786-11.237-9.658-6.69-2.752,2.569-.562,9.824.341,15.706a123.231,123.231,0,0,1,1.466,17.83c-1.742-9.544-2.2-21.437-8.994-29.122-2.018-2.284-7.795-5.145-9.794-1.1-1.726,3.495,2.25,9.014,3.322,12.265,1.862,5.646,2.541,8.254,3.858,17.166-1.566-6.477-5.3-22.551-13.307-24.777-4.315-1.2-4.977,3.221-4.184,6.736.354,1.568,1.744,4.114,1.954,5.06" transform="translate(-180.19 -60.724)" fill="none" stroke="#333" stroke-linecap="round" stroke-linejoin="round" stroke-width="3"/>
      <path id="Path_99576" data-name="Path 99576" d="M405.771,294.9s9.5,12.724,14.207,18.429" transform="translate(-243.495 -176.938)" fill="none" stroke="#333" stroke-linecap="round" stroke-linejoin="round" stroke-width="3"/>
      <path id="Path_99577" data-name="Path 99577" d="M328.813,346.395c.674,4.863,15.264,21.848,15.264,21.848" transform="translate(-197.298 -207.853)" fill="none" stroke="#333" stroke-linecap="round" stroke-linejoin="round" stroke-width="3"/>
      <path id="Path_99578" data-name="Path 99578" d="M380.98,354.309c-5.444,3.767-11.185,7.081-17.365,8.933a150.8,150.8,0,0,0,13.544,17.087c1.983,2.2,6.293,6.264,9.269,6.819,3.376.63,7.887-1.823,10.451-3.621A110.8,110.8,0,0,0,411.4,371.134c2.1-2.036,5.044-5.916,5.818-8.79.938-3.482-.247-3.957-3.164-6.787-6.278-6.091-11.374-12.345-18.565-18.224C393.548,342.222,387.414,349.857,380.98,354.309Z" transform="translate(-218.189 -202.413)" fill="none" stroke="#333" stroke-linecap="round" stroke-linejoin="round" stroke-width="3"/>
      <path id="Path_99579" data-name="Path 99579" d="M419.917,461.956a15.406,15.406,0,0,0,1.14,10.768c1.491,3.166,5.607,4.906,6.7,8.148.977,2.906.153,6.007,2.255,8.7,1.4,1.8,8.661,6.293,10.893,6.475" transform="translate(-251.679 -277.221)" fill="none" stroke="#333" stroke-linecap="round" stroke-linejoin="round" stroke-width="3"/>
      <path id="Path_99580" data-name="Path 99580" d="M498.5,394.562c13.723,1.466,23.669,14.047,30.913,24.636-.1-3.835,3.676-5.152,6.611-4.9,6.312.534,6.977,6.143,10.442,10.121" transform="translate(-299.159 -236.766)" fill="none" stroke="#333" stroke-linecap="round" stroke-linejoin="round" stroke-width="3"/>
      <rect id="Rectangle_8392" data-name="Rectangle 8392" width="7" height="7" rx="1" transform="translate(218 109.053)" fill="#ffe945"/>
      <path id="Path_99581" data-name="Path 99581" d="M543.658,248.188c-.489,2.867-3.4,7.864-5.608,9.926-2.646,2.469-7.666,2.569-11.142,2.815,11-.006,8.763,6.521,8.131,14.876,1.289-6.632,1.758-8.879,3.728-11.138,2.583-2.962,6.242-2.114,9.254-3.383-4.152.07-6.816.638-6.986-3.915C540.913,254.067,542.618,251.373,543.658,248.188Z" transform="translate(-316.21 -148.901)" fill="none" stroke="#333" stroke-linecap="round" stroke-linejoin="round" stroke-width="3"/>
      <line id="Line_391" data-name="Line 391" y1="4.964" x2="6.453" transform="translate(204.505 36.331)" fill="none" stroke="#333" stroke-linecap="round" stroke-linejoin="round" stroke-width="3"/>
      <line id="Line_392" data-name="Line 392" y1="5.996" x2="5.246" transform="translate(200.092 22.466)" fill="none" stroke="#333" stroke-linecap="round" stroke-linejoin="round" stroke-width="3"/>
      <line id="Line_393" data-name="Line 393" y1="5.246" x2="1.499" transform="translate(142.007 1.48)" fill="none" stroke="#333" stroke-linecap="round" stroke-linejoin="round" stroke-width="3"/>
      <line id="Line_394" data-name="Line 394" x1="2.248" y1="6.396" transform="translate(106.033 8.3)" fill="none" stroke="#333" stroke-linecap="round" stroke-linejoin="round" stroke-width="3"/>
    </g>
  </g>
</svg>
