<svg id="TravellerEnthusiasts_" data-name="TravellerEnthusiasts " xmlns="http://www.w3.org/2000/svg" width="25.837" height="35.655" viewBox="0 0 25.837 35.655">
  <path id="Path_28451" data-name="Path 28451" d="M41.3,41.508a.54.54,0,0,0-.12-.014H24.2a1.844,1.844,0,0,1-1.712-1.949V37.577s0-.006,0-.009V15.838a1.516,1.516,0,0,0-.038-1.906l-2.719-3.095a1.139,1.139,0,0,0-1.721,0l-.294.335a1.527,1.527,0,0,0,0,1.959l2.719,3.095a1.139,1.139,0,0,0,.861.406H21.3V38.918s0,.006,0,.009v.618a3.142,3.142,0,0,0,2.771,3.293,2.541,2.541,0,0,0-.19.959,2.179,2.179,0,0,0,2.022,2.3,2.179,2.179,0,0,0,2.022-2.3,2.547,2.547,0,0,0-.186-.951h11.6a2.554,2.554,0,0,0-.186.951A2.038,2.038,0,1,0,41.3,41.508Z" transform="translate(-17.362 -10.444)" fill="#026dd5"/>
  <path id="Path_28452" data-name="Path 28452" d="M49.471,22.2H48.3v-.635a3.064,3.064,0,0,0-3.06-3.06H43.664a3.064,3.064,0,0,0-3.061,3.06V22.2H39.437a3.064,3.064,0,0,0-3.06,3.061v12.95a3.064,3.064,0,0,0,3.06,3.06H49.471a3.064,3.064,0,0,0,3.06-3.06V25.263A3.064,3.064,0,0,0,49.471,22.2Zm-7.68-.635a1.875,1.875,0,0,1,1.873-1.873h1.579a1.875,1.875,0,0,1,1.873,1.873V22.2H41.791Zm.048,14.765a.594.594,0,1,1-1.187,0V28.095a.594.594,0,1,1,1.187,0Zm3.208-.951a.594.594,0,0,1-1.187,0V27.144a.594.594,0,0,1,1.187,0Zm3.207.951a.594.594,0,1,1-1.187,0V28.095a.594.594,0,1,1,1.187,0Z" transform="translate(-28.851 -15.316)" fill="#026dd5"/>
</svg>
