<svg xmlns="http://www.w3.org/2000/svg" xmlns:xlink="http://www.w3.org/1999/xlink" width="24" height="24" viewBox="0 0 24 24">
  <defs>
    <clipPath id="clip-path">
      <rect id="Rectangle_10" data-name="Rectangle 10" width="24" height="24" fill="#fff"/>
    </clipPath>
  </defs>
  <g id="Mask_Group_9" data-name="Mask Group 9" clip-path="url(#clip-path)">
    <g id="Group_37454" data-name="Group 37454" transform="translate(2.565)">
      <path id="Path_99793" data-name="Path 99793" d="M27.4,43.079l-.595-.952-.595.952a.746.746,0,0,1-.453.327l-1.091.272.721.861a.744.744,0,0,1,.172.533l-.079,1.12,1.041-.421a.749.749,0,0,1,.561,0l1.04.421-.079-1.12a.757.757,0,0,1,.172-.533l.721-.861-1.091-.272a.749.749,0,0,1-.447-.327Z" transform="translate(-17.372 -31.872)"/>
      <path id="Path_99794" data-name="Path 99794" d="M16.875,0H2A1.875,1.875,0,0,0,0,1.723V16.836a1.611,1.611,0,0,0,.584,1.218,2.165,2.165,0,0,0,1.411.5H16.875a1.874,1.874,0,0,0,2-1.723V1.723A1.611,1.611,0,0,0,18.286.5,2.165,2.165,0,0,0,16.875,0Zm-3.2,12.327L12.626,13.4l.114,1.4a1.079,1.079,0,0,1-.539.991,1.485,1.485,0,0,1-1.259.132L9.434,15.4l-1.506.527a1.494,1.494,0,0,1-.493.083,1.415,1.415,0,0,1-.956-.362,1.044,1.044,0,0,1-.347-.849l.112-1.4L5.2,12.327a1.012,1.012,0,0,1-.244-1.076,1.249,1.249,0,0,1,.929-.747l1.573-.341.862-1.191a1.486,1.486,0,0,1,2.222,0l.862,1.191,1.579.339a1.25,1.25,0,0,1,.928.748,1.013,1.013,0,0,1-.243,1.076ZM5.806,6.242a.813.813,0,0,1,.866-.747H12.2a.813.813,0,0,1,.866.747.813.813,0,0,1-.866.747H6.672a.813.813,0,0,1-.866-.747M14,4.043H4.875A.813.813,0,0,1,4.009,3.3a.813.813,0,0,1,.866-.747H14a.813.813,0,0,1,.866.747A.813.813,0,0,1,14,4.043" transform="translate(0 0)"/>
      <path id="Path_99795" data-name="Path 99795" d="M24.815,84.8H22.653V82.353H16.536V84.8H14.374a.768.768,0,1,0,0,1.495H24.815a.768.768,0,1,0,0-1.495Z" transform="translate(-10.158 -62.299)"/>
    </g>
  </g>
</svg>
