<svg id="Urban_Male_" data-name="Urban Male " xmlns="http://www.w3.org/2000/svg" width="43" height="35.134" viewBox="0 0 43 35.134">
  <path id="Path_28423" data-name="Path 28423" d="M40.71,22a7.126,7.126,0,1,0-7.122-7.126A7.127,7.127,0,0,0,40.71,22Z" transform="translate(-19.212 -7.747)" fill="#026dd5"/>
  <path id="Path_28424" data-name="Path 28424" d="M42.967,39.181a7.956,7.956,0,0,1-12.235,0c-2.425,2.179-3.992,3.188-3.992,7.065,0,6.589.912,14.365,10.107,14.365s10.11-7.775,10.11-14.365C46.957,42.37,45.39,41.361,42.967,39.181ZM36.843,57.472c-1.964,0-2.019-9.683-2.019-10.154s1.417-1.132,1.417-1.132-1.4-1-1.4-1.516a3.614,3.614,0,0,1,2.064-1.952c.582,0,1.927,1.461,1.927,1.952s-1.318,1.538-1.318,1.538,1.356.637,1.356,1.109S38.806,57.472,36.843,57.472Z" transform="translate(-15.349 -25.479)" fill="#026dd5"/>
  <path id="Path_28425" data-name="Path 28425" d="M80.241,34.533A4.181,4.181,0,1,0,76.06,30.35,4.182,4.182,0,0,0,80.241,34.533Z" transform="translate(-43.171 -18.14)" fill="#026dd5"/>
  <path id="Path_28426" data-name="Path 28426" d="M8.8,34.533A4.181,4.181,0,1,0,4.625,30.35,4.182,4.182,0,0,0,8.8,34.533Z" transform="translate(-2.874 -18.14)" fill="#026dd5"/>
  <path id="Path_28427" data-name="Path 28427" d="M83.39,44.615a4.666,4.666,0,0,1-7.177,0c-.341.308-.651.574-.931.836a7.338,7.338,0,0,1,.784,3.67,31.979,31.979,0,0,1-.525,6.4A5.307,5.307,0,0,0,79.8,57.188c5.395,0,5.93-4.562,5.93-8.429C85.732,46.486,84.813,45.893,83.39,44.615Z" transform="translate(-42.732 -28.544)" fill="#026dd5"/>
  <path id="Path_28428" data-name="Path 28428" d="M10.128,44.614a4.666,4.666,0,0,1-7.177,0C1.527,45.893.608,46.486.608,48.759c0,3.866.534,8.429,5.93,8.429A5.311,5.311,0,0,0,10.8,55.523a31.827,31.827,0,0,1-.526-6.4,7.319,7.319,0,0,1,.785-3.67C10.78,45.188,10.469,44.922,10.128,44.614Z" transform="translate(-0.608 -28.544)" fill="#026dd5"/>
</svg>
