<svg xmlns="http://www.w3.org/2000/svg" width="33.131" height="36" viewBox="0 0 33.131 36">
  <path id="Urban_females" data-name="Urban females" d="M34.961,17.8a17.448,17.448,0,0,0,3.67,4.383,8.8,8.8,0,0,1-1.244,14.259,10.637,10.637,0,0,0-2.152-1.094l-3.4-1.262a3.037,3.037,0,0,1-1.982-2.848V29.676a.768.768,0,0,1,.768-.768H34.1a1.082,1.082,0,0,0,1.15-1.119c0-1.2-.142-1.5.375-2.009A.445.445,0,0,0,35.494,25c.644-.332.519-.7.328-.958A.913.913,0,0,1,35.7,23a2.47,2.47,0,0,0,1.04-.678.451.451,0,0,0-.01-.55,10.27,10.27,0,0,1-1.887-2.638A1.572,1.572,0,0,1,34.961,17.8ZM20.671,5.7h0a9.387,9.387,0,0,0-5.148,12.188l17.37-7.121A9.387,9.387,0,0,0,20.671,5.7Zm20.774,5.019L41.009,9.66,8.586,22.952l.436,1.063A3.627,3.627,0,0,0,13.753,26l1.8-.737a9.714,9.714,0,0,1-2.177,4.213v0A6.91,6.91,0,0,0,18.516,41a9.889,9.889,0,0,0,1.172-.1,3.989,3.989,0,0,0,3.1-3.888,16.02,16.02,0,0,0-.6-2.923,2.761,2.761,0,0,1,1.7-2.978C27.78,29.064,30,26.172,30,22.073a9.753,9.753,0,0,0-.351-2.6l9.812-4.022A3.627,3.627,0,0,0,41.445,10.723Z" transform="translate(-8.586 -5)" fill="#026dd5"/>
</svg>
