<svg xmlns="http://www.w3.org/2000/svg" width="50" height="50" viewBox="0 0 50 50">
  <g id="Group_42132" data-name="Group 42132" transform="translate(-752 -342)">
    <rect id="Rectangle_7018" data-name="Rectangle 7018" width="50" height="50" rx="6" transform="translate(752 342)" fill="#e2edf8"/>
    <path id="where_to_vote_24dp_016DD5_FILL1_wght400_GRAD0_opsz24" d="M169.736-864.1l6.934-6.934-2-2-4.938,4.938-1.961-1.961-2,2Zm1.471,12.117a46.568,46.568,0,0,1-8.422-8.913A13.86,13.86,0,0,1,160-868.513a10.834,10.834,0,0,1,3.379-8.37A11.2,11.2,0,0,1,171.207-880a11.2,11.2,0,0,1,7.827,3.117,10.834,10.834,0,0,1,3.379,8.37,13.86,13.86,0,0,1-2.784,7.617A46.568,46.568,0,0,1,171.207-851.984Z" transform="translate(606 1233)" fill="#016dd5"/>
  </g>
</svg>
