<svg xmlns="http://www.w3.org/2000/svg" width="30.238" height="49.063" viewBox="0 0 30.238 49.063">
  <g id="Wealthy_with_Limited_Education_Seekers" data-name="Wealthy with Limited Education Seekers" transform="translate(0 0.002)">
    <path id="Path_99848" data-name="Path 99848" d="M95.044,174.647v12.815a2.727,2.727,0,0,0,5.335,0l3.148-15.879a8.458,8.458,0,0,1-1.128.96A13.193,13.193,0,0,1,95.044,174.647Z" transform="translate(-77.859 -140.559)" fill="#026dd5"/>
    <path id="Path_99849" data-name="Path 99849" d="M3.039,140.069.767,137.8l2-2q-.006-.385-.005-.762L0,137.8l3.138,3.138Q3.084,140.5,3.039,140.069Z" transform="translate(0 -110.622)" fill="#026dd5"/>
    <rect id="Rectangle_8545" data-name="Rectangle 8545" width="0.696" height="4.956" transform="matrix(0.707, -0.707, 0.707, 0.707, 8.422, 21.811)" fill="#026dd5"/>
    <path id="Path_99850" data-name="Path 99850" d="M45.369,126.9l.492-.492-3.5-3.5-.422.422c0,.044-.006.088-.008.132Z" transform="translate(-34.345 -100.681)" fill="#026dd5"/>
    <path id="Path_99851" data-name="Path 99851" d="M20.967,51.96a14.28,14.28,0,0,0-2.685,5.42,33.647,33.647,0,0,0-.455,12.762,1.989,1.989,0,1,0,3.948-.487c-.657-5.317-.309-8.966.418-11.465l.387.08a16.34,16.34,0,0,0-.386,1.648l1.245-1.245,5.8,5.8-8.377,8.378-.606-.606c-.052.01-.1.021-.156.027a2.434,2.434,0,0,1-.295.018,2.363,2.363,0,0,1-.29-.02l1.348,1.348,1.419-1.419,2.892,14.583a2.453,2.453,0,0,0,2.667,2.159A2.454,2.454,0,0,0,30.5,86.777V73.963a13.2,13.2,0,0,1-7.356-2.1c-.1-.075-.2-.153-.305-.231l.387-.387a12.78,12.78,0,0,0,7.763,2.186c5.653,0,10.82-2.36,10.82-9.006a14.849,14.849,0,0,0-1.4-6.148h.6a15.328,15.328,0,0,1,1.347,6.148A9,9,0,0,1,40.3,70.536a1.988,1.988,0,0,0,3.856-.394c1.025-8.3-.031-14.42-3.14-18.181a9.365,9.365,0,0,0-5.107-3.285,5.96,5.96,0,0,1-9.832,0A9.363,9.363,0,0,0,20.967,51.96ZM30.99,70.123l-2.57-3.246.13-.958L30,64.468l-1.1-1.1,1-7.4a3.1,3.1,0,0,0,1.089.2h0a3.1,3.1,0,0,0,1.088-.2L33.56,66.876Zm0-17.449h1.028l.514,2.029-.078.123a2.285,2.285,0,0,1-2.927,0l-.079-.125.514-2.029Z" transform="translate(-14.294 -39.875)" fill="#026dd5"/>
    <circle id="Ellipse_725" data-name="Ellipse 725" cx="5.424" cy="5.424" r="5.424" transform="translate(11.272 -0.002)" fill="#026dd5"/>
  </g>
</svg>
