<svg id="Young_Parents_" data-name="Young Parents " xmlns="http://www.w3.org/2000/svg" width="40.585" height="25.894" viewBox="0 0 40.585 25.894">
  <path id="Path_28444" data-name="Path 28444" d="M15.572,24.577a3.279,3.279,0,1,0,0,6.557,3.279,3.279,0,1,0,0-6.557Z" transform="translate(-9.004 -24.577)" fill="#026dd5"/>
  <path id="Path_28445" data-name="Path 28445" d="M10.333,60.041a2.878,2.878,0,0,1-2.867-2.235l-2.42-12.3A2.8,2.8,0,0,1,5,44.967a2.959,2.959,0,0,1,2.959-2.959h7.214a2.959,2.959,0,0,1,2.959,2.959,2.8,2.8,0,0,1-.046.54l-2.42,12.3A2.88,2.88,0,0,1,12.8,60.042" transform="translate(-5 -34.147)" fill="#026dd5"/>
  <path id="Path_28446" data-name="Path 28446" d="M46.688,39.8a2.72,2.72,0,1,1,2.721-2.719A2.827,2.827,0,0,1,46.688,39.8Z" transform="translate(-26.395 -29.949)" fill="#026dd5"/>
  <path id="Path_28447" data-name="Path 28447" d="M39.992,50.672l-3.735,9.784a2.468,2.468,0,0,0,2.3,3.325h7.622a2.468,2.468,0,0,0,2.3-3.325l-3.735-9.784a2.452,2.452,0,0,0-4.757,0Z" transform="translate(-22.078 -37.887)" fill="#026dd5"/>
  <path id="Path_28448" data-name="Path 28448" d="M76.443,24.577a3.279,3.279,0,1,1-3.279,3.277A3.407,3.407,0,0,1,76.443,24.577Z" transform="translate(-42.426 -24.577)" fill="#026dd5"/>
  <path id="Path_28449" data-name="Path 28449" d="M73.678,60.041a2.878,2.878,0,0,0,2.867-2.235l2.42-12.3a2.8,2.8,0,0,0,.046-.54,2.959,2.959,0,0,0-2.959-2.959H68.838a2.959,2.959,0,0,0-2.959,2.959,2.8,2.8,0,0,0,.046.54l2.42,12.3a2.88,2.88,0,0,0,2.867,2.235" transform="translate(-38.426 -34.147)" fill="#026dd5"/>
</svg>
