<svg xmlns="http://www.w3.org/2000/svg" width="46.087" height="36.531" viewBox="0 0 46.087 36.531">
  <g id="Group_10" data-name="Group 10" transform="translate(-157.497 -842.734)">
    <path id="Young_enthusiasts" data-name="Young enthusiasts" d="M39.289,33.966a4.886,4.886,0,0,0,.991-.139,4.816,4.816,0,0,1-4.309,2.7H4.793A4.793,4.793,0,0,1,0,31.732V10.046H0A4.793,4.793,0,0,1,2.95,5.6a4.719,4.719,0,0,0-.207,1.314V29.727a4.241,4.241,0,0,0,4.173,4.241Zm6.8-29.934V26.5h0a4.793,4.793,0,0,1-4.793,4.793H10.116A4.793,4.793,0,0,1,5.327,26.5V4.816h0A4.793,4.793,0,0,1,10.116,0H42.055A4.032,4.032,0,0,1,46.087,4.032Zm-4.862,7.49A7.65,7.65,0,0,1,34.842,5.07H17.282a8.388,8.388,0,0,1-7.121,7.121v7.65a7.673,7.673,0,0,1,6.384,6.475H34.128a8.388,8.388,0,0,1,7.1-7.213Z" transform="translate(157.497 842.734)" fill="#026dd5"/>
    <circle id="Ellipse_1" data-name="Ellipse 1" cx="4" cy="4" r="4" transform="translate(179 854)" fill="#036dd5"/>
  </g>
</svg>
