<svg xmlns="http://www.w3.org/2000/svg" xmlns:xlink="http://www.w3.org/1999/xlink" width="62" height="58" viewBox="0 0 62 58">
  <defs>
    <clipPath id="clip-path">
      <rect id="Rectangle_9816" data-name="Rectangle 9816" width="62" height="58" rx="3" transform="translate(315 720)" fill="#fff"/>
    </clipPath>
  </defs>
  <g id="Group_40209" data-name="Group 40209" transform="translate(-315 -720)">
    <g id="Mask_Group_62" data-name="Mask Group 62" clip-path="url(#clip-path)">
      <g id="noun-zip-5435888" transform="translate(316.352 719.784)">
        <path id="Path_2109" data-name="Path 2109" d="M34.289,36.86a1.036,1.036,0,1,0,0-2.071H32.623v-2.2h1.666a1.036,1.036,0,1,0,0-2.071H32.623V29.106a1.036,1.036,0,1,0-2.071,0V30.52H28.886a1.036,1.036,0,1,0,0,2.071h1.639v2.2H28.886a1.036,1.036,0,0,0,0,2.071h1.639v2.188H28.886a1.036,1.036,0,1,0,0,2.071h1.639v1.8H28.886a1.045,1.045,0,0,0-1.036,1.036v3.278a3.107,3.107,0,0,0,3.107,3.1h1.207a3.107,3.107,0,0,0,3.107-3.1v-3.3a1.045,1.045,0,0,0-.982-1.036H32.623V41.1h1.666a1.036,1.036,0,1,0,0-2.071H32.623V36.86ZM33.253,47.216a1.045,1.045,0,0,1-1.036,1.036H30.984a1.045,1.045,0,0,1-1.036-1.036V44.974h3.278Z" transform="translate(-1.824 -2.393)" fill="#a3a3a3"/>
        <path id="Path_2110" data-name="Path 2110" d="M19.745,12.147V7.41L12.91,14.245h4.359A2.447,2.447,0,0,0,19.745,12.147Z" transform="translate(-0.339 -0.339)" fill="none"/>
        <path id="Path_2111" data-name="Path 2111" d="M11.5,51.818a2.7,2.7,0,0,0,2.7,2.7h31.52a2.7,2.7,0,0,0,2.7-2.7V23H11.5Z" transform="translate(-0.199 -1.889)" fill="none"/>
        <path id="Path_2112" data-name="Path 2112" d="M45.523,4H19.938L9.5,14.438V49.929a4.5,4.5,0,0,0,4.5,4.5h31.52a4.5,4.5,0,0,0,4.5-4.5V8.5a4.5,4.5,0,0,0-4.5-4.5ZM35.617,9.457h2.495a2.864,2.864,0,0,1,1.279.261,1.8,1.8,0,0,1,.783.72,2.2,2.2,0,0,1,0,2.062,1.8,1.8,0,0,1-.774.729,2.7,2.7,0,0,1-1.3.279h-.91V15.78h-1.54Zm-2.657,0h1.576v6.3H33Zm-5.476,5.151,2.7-3.89h-2.7V9.457h4.5v1.171l-2.7,3.89h2.7V15.78h-4.5ZM19.379,7.071v4.737a2.4,2.4,0,0,1-2.45,2.1H12.571ZM48.225,49.929a2.7,2.7,0,0,1-2.7,2.7H14a2.7,2.7,0,0,1-2.7-2.7V21.111H48.225Z" fill="#a3a3a3"/>
        <path id="Path_2113" data-name="Path 2113" d="M41.745,12.848a.766.766,0,0,0,.216-.585.784.784,0,0,0-.216-.585.9.9,0,0,0-.657-.207H40.25v1.558h.838a.9.9,0,0,0,.657-.18Z" transform="translate(-3.057 -0.742)" fill="#a3a3a3"/>
      </g>
    </g>
  </g>
</svg>
