<svg xmlns="http://www.w3.org/2000/svg" width="62" height="62" viewBox="0 0 62 62">
  <g id="Active" transform="translate(-914 -254)">
    <rect id="Rectangle_7018" data-name="Rectangle 7018" width="62" height="62" rx="6" transform="translate(914 254)" fill="#c26eff" opacity="0.24"/>
    <path id="inactive_order_24dp_E3E3E3_FILL1_wght300_GRAD0_opsz24" d="M164.687-788.672h1.693v-6.953h-1.693Zm4.415,0h1.693v-6.953H169.1Zm-23.583-21.063H167V-812.6H145.519Zm22.222,26.2a8.3,8.3,0,0,1-6.1-2.513,8.3,8.3,0,0,1-2.513-6.1,8.3,8.3,0,0,1,2.513-6.1,8.3,8.3,0,0,1,6.1-2.513,8.3,8.3,0,0,1,6.1,2.513,8.3,8.3,0,0,1,2.513,6.1,8.3,8.3,0,0,1-2.513,6.1,8.3,8.3,0,0,1-6.1,2.508ZM140-785.784v-30.757a3.33,3.33,0,0,1,1.016-2.443A3.33,3.33,0,0,1,143.459-820h25.607a3.33,3.33,0,0,1,2.443,1.016,3.33,3.33,0,0,1,1.016,2.443v12.071a11.456,11.456,0,0,0-3.148-.778,13.043,13.043,0,0,0-3.236.076H145.519v2.87H159.3a12.417,12.417,0,0,0-2.022,2.055,12.477,12.477,0,0,0-1.514,2.508h-10.25v2.869h9.36a10.126,10.126,0,0,0-.221,1.245,11.744,11.744,0,0,0-.07,1.312,12.652,12.652,0,0,0,.412,3.228,12.109,12.109,0,0,0,1.236,3l-.176.177-2.52-2.226-2.723,2.355-2.722-2.355-2.722,2.355-2.722-2.355Z" transform="translate(787 1087)" fill="#c26eff"/>
  </g>
</svg>
