<svg xmlns="http://www.w3.org/2000/svg" width="62" height="62" viewBox="0 0 62 62">
  <g id="All_Campaigns" data-name="All Campaigns" transform="translate(-382 -260)">
    <rect id="Rectangle_7018" data-name="Rectangle 7018" width="62" height="62" rx="6" transform="translate(382 260)" fill="#016dd5" opacity="0.2"/>
    <path id="campaign_24dp_E3E3E3_FILL1_wght400_GRAD0_opsz24" d="M112.686-781.614V-785.7h8.172v4.086Zm2.451,14.3-6.537-4.9,2.451-3.269,6.537,4.9Zm-4.086-24.515L108.6-795.1l6.537-4.9,2.451,3.269ZM86.129-769.356v-8.172H84.086a3.934,3.934,0,0,1-2.886-1.2,3.934,3.934,0,0,1-1.2-2.886V-785.7a3.934,3.934,0,0,1,1.2-2.886,3.934,3.934,0,0,1,2.886-1.2h8.172l10.214-6.129V-771.4l-10.214-6.129H90.214v8.172Zm18.386-7.457V-790.5a9.329,9.329,0,0,1,2.222,2.988,8.82,8.82,0,0,1,.843,3.856,8.82,8.82,0,0,1-.843,3.856,9.328,9.328,0,0,1-2.222,2.987Z" transform="translate(313 1075)" fill="#016dd5"/>
  </g>
</svg>
