<svg xmlns="http://www.w3.org/2000/svg" width="62" height="62" viewBox="0 0 62 62">
  <g id="All_Orders" data-name="All Orders" transform="translate(-392 -254)">
    <rect id="Rectangle_7018" data-name="Rectangle 7018" width="62" height="62" rx="6" transform="translate(392 254)" fill="#016dd5" opacity="0.2"/>
    <path id="receipt_24dp_E3E3E3_FILL1_wght300_GRAD0_opsz24" d="M140-819.377v-36l2.656,2.361,2.73-2.361,2.73,2.361,2.73-2.361,2.73,2.361,2.73-2.361,2.73,2.361,2.73-2.361,2.73,2.361,2.73-2.361,2.73,2.361,2.656-2.361v36l-2.656-2.361-2.73,2.361-2.73-2.361-2.73,2.361-2.73-2.361-2.73,2.361-2.73-2.361-2.73,2.361-2.73-2.361-2.73,2.361-2.73-2.361Zm5.275-9.48h22.059v-2.877H145.275Zm0-7.083h22.059v-2.877H145.275Zm0-7.083h22.059V-845.9H145.275Z" transform="translate(267 1122.379)" fill="#016dd5"/>
  </g>
</svg>
