<svg xmlns="http://www.w3.org/2000/svg" width="62" height="62" viewBox="0 0 62 62">
  <g id="All_Users" data-name="All Users" transform="translate(-342 -180)">
    <rect id="Rectangle_7018" data-name="Rectangle 7018" width="62" height="62" rx="6" transform="translate(342 180)" fill="#016dd5" opacity="0.2"/>
    <g id="noun-users-1743551" transform="translate(20.222 92.922)">
      <path id="Path_101022" data-name="Path 101022" d="M40.118,103.078a7.289,7.289,0,0,0-.579,14.555,7.155,7.155,0,0,1-.273-.818c-1.575-4.752,1.562-10.054,6.165-11.437a7.268,7.268,0,0,0-5.313-2.3Zm15.967,0a7.269,7.269,0,0,0-5.352,2.341,9.3,9.3,0,0,1,4.32,2.817,8.922,8.922,0,0,1,1.476,9.405,7.289,7.289,0,0,0-.445-14.564ZM48.1,106.873a7.289,7.289,0,1,0,7.289,7.289,7.289,7.289,0,0,0-7.289-7.289ZM32.243,118.227c-3.744-.071-6.237,6.076-6.643,10.924h6.712a16.764,16.764,0,0,1,3.154-6.587,6.218,6.218,0,0,1,4.148-2.324,8.134,8.134,0,0,1,1.546-.047c-.076-.085-.15-.172-.224-.26a7.417,7.417,0,0,1-.818.044c-3.023,0-3.775-1.672-7.875-1.75Zm31.71.013c-4.1.076-4.845,1.738-7.868,1.736a7.344,7.344,0,0,1-.869-.051q-.12.153-.246.3a6.361,6.361,0,0,1,3.634.649l.023.013.022.015c2.955,1.919,4.419,5.02,5.2,8.248H70.6c-.411-4.843-2.908-10.98-6.648-10.911Zm-23.727,3.782c-3.744-.071-6.237,6.076-6.643,10.924H62.618c-.411-4.843-2.908-10.98-6.648-10.911-4.1.076-4.845,1.738-7.868,1.736s-3.775-1.672-7.875-1.75Z" transform="translate(304.178)" fill="#016dd5"/>
    </g>
  </g>
</svg>
