<svg xmlns="http://www.w3.org/2000/svg" width="62" height="62" viewBox="0 0 62 62">
  <g id="Approved" transform="translate(-891 -180)">
    <rect id="Rectangle_7018" data-name="Rectangle 7018" width="62" height="62" rx="6" transform="translate(891 180)" fill="#239d28" opacity="0.24"/>
    <g id="Group_41707" data-name="Group 41707" transform="translate(36.528 -36)">
      <path id="Path_101027" data-name="Path 101027" d="M28.546,20.2a8.337,8.337,0,1,0,5.9,2.436,8.337,8.337,0,0,0-5.9-2.436Zm4.163,6.948-4.4,4.379a1.21,1.21,0,0,1-1.666,0l-2.261-2.251a1.17,1.17,0,0,1-.026-1.682.866.866,0,0,1,.705-.326.922.922,0,0,1,.736.326l1.689,1.682,3.664-3.788a1.077,1.077,0,0,1,1.556,0,1.172,1.172,0,0,1,0,1.661Z" transform="translate(867.162 228.224)" fill="#239d28"/>
      <g id="noun-unverified-7748063" transform="translate(859.145 219.648)">
        <path id="Path_101023" data-name="Path 101023" d="M42.131,14.888c0,3.609-2.927,8.714-6.538,8.714s-6.538-5.1-6.538-8.714a6.538,6.538,0,1,1,13.076,0Z" transform="translate(-11.511)" fill="#239d28"/>
        <path id="Path_101024" data-name="Path 101024" d="M31.174,67.154H12.686a4.359,4.359,0,0,1-4.13-5.741l3.63-10.889a4.367,4.367,0,0,1,4.15-2.981h15.5a4.358,4.358,0,0,1,3.113,1.315,10.187,10.187,0,0,0-3.78,18.3Z" transform="translate(0 -21.765)" fill="#239d28"/>
      </g>
    </g>
  </g>
</svg>
