<svg xmlns="http://www.w3.org/2000/svg" width="62" height="62" viewBox="0 0 62 62">
  <g id="Complete" transform="translate(-914 -281)">
    <rect id="Rectangle_7018" data-name="Rectangle 7018" width="62" height="62" rx="6" transform="translate(914 281)" fill="#239d28" opacity="0.24"/>
    <path id="credit_score_24dp_E3E3E3_FILL1_wght400_GRAD0_opsz24" d="M95.064-768.577H83.708a3.474,3.474,0,0,1-2.619-1.154A3.9,3.9,0,0,1,80-772.505v-23.567a3.9,3.9,0,0,1,1.089-2.774A3.474,3.474,0,0,1,83.708-800h29.664a3.474,3.474,0,0,1,2.619,1.154,3.9,3.9,0,0,1,1.089,2.774v11.784h-5.052l-8.018,8.494-5.284-5.5L90.892-773Zm8.945,3.928L96.13-773l2.6-2.75,5.284,5.5,10.475-11.1,2.6,2.848Zm-20.3-27.495v7.856h29.664v-7.856Z" transform="translate(846 1094)" fill="#239d28"/>
  </g>
</svg>
