<svg xmlns="http://www.w3.org/2000/svg" width="62" height="62" viewBox="0 0 62 62">
  <g id="Completed" transform="translate(-1959 -254)">
    <rect id="Rectangle_7018" data-name="Rectangle 7018" width="62" height="62" rx="6" transform="translate(1959 254)" fill="#239d28" opacity="0.24"/>
    <path id="order_approve_24dp_E3E3E3_FILL1_wght300_GRAD0_opsz24" d="M166.446-788.359l6.041-5.975-1.6-1.6-4.437,4.36-1.847-1.865-1.6,1.633Zm-20.927-21.376H167V-812.6H145.519Zm22.222,26.2a8.3,8.3,0,0,1-6.1-2.513,8.3,8.3,0,0,1-2.513-6.1,8.3,8.3,0,0,1,2.513-6.1,8.3,8.3,0,0,1,6.1-2.513,8.3,8.3,0,0,1,6.1,2.513,8.3,8.3,0,0,1,2.513,6.1,8.3,8.3,0,0,1-2.513,6.1,8.3,8.3,0,0,1-6.1,2.509ZM140-785.784v-30.757a3.333,3.333,0,0,1,1.013-2.445A3.333,3.333,0,0,1,143.459-820h25.607a3.333,3.333,0,0,1,2.445,1.013,3.333,3.333,0,0,1,1.013,2.445v12.071a11.454,11.454,0,0,0-3.148-.778,13.046,13.046,0,0,0-3.236.076H145.519v2.87H159.3a12.418,12.418,0,0,0-2.022,2.055,12.477,12.477,0,0,0-1.514,2.508h-10.25v2.869h9.36a10.142,10.142,0,0,0-.221,1.245,11.729,11.729,0,0,0-.07,1.312,12.608,12.608,0,0,0,.412,3.225,12.272,12.272,0,0,0,1.236,3l-.176.176-2.52-2.226-2.723,2.355-2.722-2.355-2.722,2.355-2.722-2.355Z" transform="translate(1832 1087)" fill="#239d28"/>
  </g>
</svg>
