<svg id="Digital" xmlns="http://www.w3.org/2000/svg" width="110.135" height="162.264" viewBox="0 0 110.135 162.264">
  <g id="Group_41485" data-name="Group 41485" transform="translate(0 0)">
    <path id="Path_101321" data-name="Path 101321" d="M117.842,6.25H31A11.651,11.651,0,0,0,19.351,17.894V120.08A11.641,11.641,0,0,0,31,131.724h86.846a11.646,11.646,0,0,0,11.644-11.64V17.894A11.641,11.641,0,0,0,117.842,6.25ZM99.14,89.587l-6.105,7.271.659,9.475a7.64,7.64,0,0,1-10.487,7.616l-8.788-3.56-8.8,3.559a7.644,7.644,0,0,1-10.485-7.622l.659-9.475-6.105-7.271a7.637,7.637,0,0,1,4.01-12.322l9.215-2.295,5.032-8.051a7.914,7.914,0,0,1,12.962,0l5.032,8.051,9.215,2.295a7.642,7.642,0,0,1,3.989,12.331Zm-45.9-41.136a5.049,5.049,0,0,1,5.053-5.058H90.56a5.053,5.053,0,1,1,0,10.106H58.29a5.049,5.049,0,0,1-5.053-5.048Zm47.8-14.873H47.8a5.053,5.053,0,1,1,0-10.106h53.235a5.053,5.053,0,1,1,0,10.106Z" transform="translate(-19.351 -6.25)" fill="#016dd5"/>
    <path id="Path_101322" data-name="Path 101322" d="M92.519,98.3H80.967V81.711h-32.7V98.288H36.709a5.053,5.053,0,1,0,0,10.106H92.519a5.053,5.053,0,1,0,0-10.106Z" transform="translate(-9.175 53.869)" fill="#016dd5"/>
  </g>
  <rect id="Rectangle_10629" data-name="Rectangle 10629" width="94.674" height="110.175" rx="4" transform="translate(8.091 8.117)" fill="#026dd5"/>
  <path id="Path_101329" data-name="Path 101329" d="M62.209,24.928a25.272,25.272,0,1,0,18.029,7.314,25.272,25.272,0,0,0-18.029-7.314Zm9.963,28.84-11.69,7.392a4.263,4.263,0,0,1-6.56-3.571V42.836a4.263,4.263,0,0,1,6.56-3.571l11.69,7.383a4.195,4.195,0,0,1,0,7.112Z" transform="translate(-7.203 4.243)" fill="#fff"/>
  <line id="Line_799" data-name="Line 799" x2="62.628" transform="translate(24.46 101.772)" fill="none" stroke="#fff" stroke-linecap="round" stroke-width="5"/>
</svg>
