<svg xmlns="http://www.w3.org/2000/svg" width="125.677" height="108.845" viewBox="0 0 125.677 108.845">
  <g id="Group_1089" data-name="Group 1089" transform="translate(-27.162 -26)">
    <g id="Group_1086" data-name="Group 1086" transform="translate(-3.017 13.631)">
      <g id="noun-maps-1605392" transform="translate(44 26.774)">
        <g id="Group_1083" data-name="Group 1083" transform="translate(0)">
          <path id="Path_1876" data-name="Path 1876" d="M17.619,49.591a1.884,1.884,0,0,0-.965,1.072L2.606,93.452a1.859,1.859,0,0,0,2.252,2.359l18.124-5.684L30.6,43.8Z" transform="translate(-2.522 -3.66)" fill="#9acdff" stroke="#d6d9e6" stroke-width="1"/>
          <path id="Path_1877" data-name="Path 1877" d="M26.6,90.386l22.413,6.971V49.742L34.429,43.2Z" transform="translate(-0.778 -3.703)" fill="#9acdff" stroke="#d6d9e6" stroke-width="1"/>
          <path id="Path_1878" data-name="Path 1878" d="M66.548,58.6,58.827,46.7,52.5,49.6V97.21L74.806,90.24,70.087,61.5A8.478,8.478,0,0,1,66.548,58.6Z" transform="translate(1.097 -3.45)" fill="#9acdff" stroke="#d6d9e6" stroke-width="1"/>
          <path id="Path_1879" data-name="Path 1879" d="M99.094,93.083,85.046,50.4a1.612,1.612,0,0,0-.965-1.072l-.858-.429L77,58.444a6.933,6.933,0,0,1-3,2.574l4.719,28.74,18.124,5.684A1.859,1.859,0,0,0,99.094,93.083Z" transform="translate(2.654 -3.291)" fill="#9acdff" stroke="#d6d9e6" stroke-width="1"/>
          <path id="Path_1880" data-name="Path 1880" d="M92.386,25.705a19.9,19.9,0,0,0-39.786.536,19.147,19.147,0,0,0,2.681,9.866L70.187,59.164a2.806,2.806,0,0,0,4.719,0L89.812,36.108A19.987,19.987,0,0,0,92.386,25.705ZM72.547,35.893a9.759,9.759,0,1,1,9.759-9.759A9.795,9.795,0,0,1,72.547,35.893Z" transform="translate(1.104 -6.37)" fill="#016dd5" stroke="#d6d9e6" stroke-width="1"/>
        </g>
      </g>
      <path id="Path_1881" data-name="Path 1881" d="M213.114,116.689a.655.655,0,0,0,.572.057,1.845,1.845,0,0,1,.8-.057.592.592,0,0,1,.458.343v.286a4.254,4.254,0,0,1-.229.628c-.057.114-.115.171-.172.285s-.115.171-.172.285l-.057.115-.057.057-.057-.057c-.057-.115-.172-.171-.229-.286-.115-.171-.229-.285-.286-.4a1.094,1.094,0,0,1-.229-.685c-.172-.229-.229-.456-.343-.571s-.344-.114-.63.115a1.559,1.559,0,0,0-.458,1.427,2.327,2.327,0,0,0,.286,1.028,1.706,1.706,0,0,1,.229.456l.057.114.115.171a1.514,1.514,0,0,0,.286.343,1.72,1.72,0,0,0,1.6.628,1.947,1.947,0,0,0,.859-.4c.115-.115.286-.229.4-.343l.172-.171.115-.114a3.2,3.2,0,0,0,.344-.457c.115-.171.171-.343.286-.514a4.08,4.08,0,0,0,.4-1.427,2.67,2.67,0,0,0-.4-1.6,2.2,2.2,0,0,0-2.4-.856,1.959,1.959,0,0,0-1.145.914C212.942,116.347,212.942,116.575,213.114,116.689Z" transform="translate(-181.822 -44.344)" fill="#d6d9e6"/>
      <path id="Path_1882" data-name="Path 1882" d="M40.113,62.689a.658.658,0,0,0,.572.057,1.843,1.843,0,0,1,.8-.057.593.593,0,0,1,.458.342v.285a4.321,4.321,0,0,1-.229.628c-.057.114-.115.171-.172.285s-.114.171-.172.285l-.057.114-.057.057L41.2,64.63c-.057-.114-.172-.171-.229-.285-.115-.171-.229-.285-.286-.4a1.1,1.1,0,0,1-.229-.685c-.172-.228-.172-.457-.343-.571-.114-.114-.343-.114-.63.114a1.559,1.559,0,0,0-.458,1.427,2.321,2.321,0,0,0,.286,1.027,1.7,1.7,0,0,1,.229.457l.057.114.115.171a1.513,1.513,0,0,0,.286.342,1.721,1.721,0,0,0,1.6.628,1.949,1.949,0,0,0,.859-.4c.114-.114.286-.228.4-.342l.172-.171.115-.114a3.173,3.173,0,0,0,.343-.457c.115-.171.172-.342.286-.514a4.084,4.084,0,0,0,.4-1.427,2.672,2.672,0,0,0-.4-1.6,2.2,2.2,0,0,0-2.4-.856A1.958,1.958,0,0,0,40.228,62C39.942,62.346,40,62.575,40.113,62.689Z" transform="translate(13.821 -34.226)" fill="#016dd5"/>
      <path id="Path_1883" data-name="Path 1883" d="M195.23,86.975a.659.659,0,0,0,.573.057,1.841,1.841,0,0,1,.8-.057.594.594,0,0,1,.458.342V87.6a4.325,4.325,0,0,1-.229.628c-.057.114-.114.171-.171.285s-.115.171-.172.285l-.057.114-.057.057-.057-.057c-.057-.114-.172-.171-.229-.285-.115-.171-.229-.285-.286-.4a1.094,1.094,0,0,1-.229-.685c-.172-.228-.172-.457-.344-.571-.115-.114-.343-.114-.63.114a1.56,1.56,0,0,0-.458,1.427,2.319,2.319,0,0,0,.286,1.027,1.707,1.707,0,0,1,.229.457l.057.114.115.171a1.511,1.511,0,0,0,.286.342,1.722,1.722,0,0,0,1.6.628,1.951,1.951,0,0,0,.859-.4c.114-.114.286-.228.4-.342l.172-.171.115-.114a3.12,3.12,0,0,0,.343-.457c.115-.171.172-.342.286-.514a4.083,4.083,0,0,0,.4-1.427,2.671,2.671,0,0,0-.4-1.6,2.2,2.2,0,0,0-2.4-.856,1.96,1.96,0,0,0-1.145.913C195.058,86.632,195.115,86.86,195.23,86.975Z" transform="translate(-54.722 -67.538)" fill="#d6d9e6"/>
      <path id="Path_1884" data-name="Path 1884" d="M233.579,65.506c-.516-.514-1.66.171-2.92,1.37l-.172.171-.172.171c-1.144,1.256-1.889,2.34-1.374,2.911.458.457,1.66-.171,2.92-1.37l.172-.171.171-.171C233.407,67.161,234.094,65.963,233.579,65.506Z" transform="translate(-77.896 -28.4)" fill="#016dd5"/>
      <path id="Path_1886" data-name="Path 1886" d="M58.644,105.349c-.515.514-.515.97-.229,1.313l.057.057.057.057c.343.285.8.285,1.317-.229.458-.456.515-.97.229-1.313l-.057-.057-.057-.057C59.617,104.835,59.16,104.835,58.644,105.349Z" transform="translate(24.616 -63.05)" fill="#d6d9e6"/>
      <path id="Path_1887" data-name="Path 1887" d="M135.162,27.925c-.515-.514-1.2-.285-1.775.228-.057,0-.057.057-.057.114-.057,0-.057.057-.115.057-.515.571-.744,1.256-.229,1.769.458.457,1.144.285,1.775-.228a.2.2,0,0,0,.057-.114c.057,0,.057-.057.115-.057C135.449,29.066,135.677,28.381,135.162,27.925Z" transform="translate(-40.537 -15.266)" fill="#d6d9e6"/>
      <path id="Path_1888" data-name="Path 1888" d="M250.987,110.737a1.135,1.135,0,0,0-1.66.115l-.057.057-.057.057a1.127,1.127,0,0,0-.114,1.655,1.186,1.186,0,0,0,1.66-.114l.057-.057.057-.057C251.33,111.822,251.445,111.194,250.987,110.737Z" transform="translate(-106.794 -42.255)" fill="#d6d9e6"/>
      <path id="Path_1889" data-name="Path 1889" d="M174.907,27.167c-.515-.514-.8-.685-.916-.685-.057.114.115.342.687.913a2.414,2.414,0,0,0,.916.685C175.594,27.966,175.422,27.681,174.907,27.167Z" transform="translate(-115.971 26.667)" fill="#a8a8a8"/>
    </g>
    <path id="Path_1891" data-name="Path 1891" d="M125.293,85.026c-.864-.549-2.2.94-3.773,2.9l-.236.313-.236.313c-1.493,1.959-2.672,3.526-1.965,4.31.628.705,2.515-.313,4.322-2.429l.236-.313.236-.392C125.45,87.534,126.078,85.418,125.293,85.026Z" transform="translate(21.767 -58.788) rotate(16)" fill="#d6d9e6"/>
    <path id="Path_1892" data-name="Path 1892" d="M119.212,85.026c.864-.549,2.2.94,3.773,2.9l.236.313.236.313c1.493,1.959,2.672,3.526,1.965,4.31-.628.705-2.515-.313-4.322-2.429l-.236-.313-.236-.392C119.054,87.534,118.426,85.418,119.212,85.026Z" transform="translate(-7.5 -28.538)" fill="#d6d9e6"/>
  </g>
</svg>
