<svg xmlns="http://www.w3.org/2000/svg" width="62" height="62" viewBox="0 0 62 62">
  <g id="Failed" transform="translate(-1959 -281)">
    <rect id="Rectangle_7018" data-name="Rectangle 7018" width="62" height="62" rx="6" transform="translate(1959 281)" fill="#f44335" opacity="0.24"/>
    <g id="Group_41682" data-name="Group 41682" transform="translate(1972 297)">
      <path id="credit_card_gear_24dp_E3E3E3_FILL1_wght400_GRAD0_opsz24" d="M83.681-770.552a3.545,3.545,0,0,1-2.6-1.081,3.545,3.545,0,0,1-1.081-2.6v-22.086a3.545,3.545,0,0,1,1.081-2.6,3.545,3.545,0,0,1,2.6-1.081h29.448a3.545,3.545,0,0,1,2.6,1.081,3.545,3.545,0,0,1,1.081,2.6v9.8a12.624,12.624,0,0,0-1.749-1.058,13.386,13.386,0,0,0-1.933-.782v-4.279H83.681v7.362h16.565a12.892,12.892,0,0,0-2.83,4.118,12.559,12.559,0,0,0-1.035,5.084A12.815,12.815,0,0,0,96.7-773.2a12.547,12.547,0,0,0,.92,2.646Z" transform="translate(-80 800)" fill="#f44335"/>
      <path id="close_24dp_E3E3E3_FILL1_wght400_GRAD0_opsz24" d="M201.261-747.388,200-748.649l5.045-5.045L200-758.739,201.261-760l5.045,5.045L211.351-760l1.261,1.261-5.045,5.045,5.045,5.045-1.261,1.261-5.045-5.045Z" transform="translate(-176.732 776.003)" fill="#f44335" stroke="#f44335" stroke-width="1.4"/>
    </g>
  </g>
</svg>
