<svg xmlns="http://www.w3.org/2000/svg" width="56" height="56" viewBox="0 0 56 56">
  <g id="Orders" transform="translate(-2052 -1387)">
    <rect id="Rectangle_7018" data-name="Rectangle 7018" width="56" height="56" rx="6" transform="translate(2052 1387)" fill="#016dd5" opacity="0.197"/>
    <path id="list_alt_24dp_E3E3E3_FILL1_wght400_GRAD0_opsz24" d="M129.844-812.437a1.9,1.9,0,0,0,1.4-.566,1.9,1.9,0,0,0,.566-1.4,1.9,1.9,0,0,0-.566-1.4,1.9,1.9,0,0,0-1.4-.566,1.9,1.9,0,0,0-1.4.566,1.9,1.9,0,0,0-.566,1.4,1.9,1.9,0,0,0,.566,1.4,1.9,1.9,0,0,0,1.4.566Zm0-7.875a1.905,1.905,0,0,0,1.4-.566,1.9,1.9,0,0,0,.566-1.4,1.9,1.9,0,0,0-.566-1.4,1.9,1.9,0,0,0-1.4-.566,1.9,1.9,0,0,0-1.4.566,1.9,1.9,0,0,0-.566,1.4,1.9,1.9,0,0,0,.566,1.4,1.9,1.9,0,0,0,1.4.566Zm0-7.875a1.9,1.9,0,0,0,1.4-.566,1.905,1.905,0,0,0,.566-1.4,1.9,1.9,0,0,0-.566-1.4,1.9,1.9,0,0,0-1.4-.566,1.9,1.9,0,0,0-1.4.566,1.9,1.9,0,0,0-.566,1.4,1.9,1.9,0,0,0,.566,1.4,1.9,1.9,0,0,0,1.4.565Zm5.906,15.75h11.813v-3.937H135.75Zm0-7.875h11.813v-3.937H135.75Zm0-7.875h11.813v-3.937H135.75Zm-11.813,23.625a3.791,3.791,0,0,1-2.781-1.157A3.792,3.792,0,0,1,120-808.5v-27.562a3.792,3.792,0,0,1,1.157-2.781,3.791,3.791,0,0,1,2.78-1.157H151.5a3.791,3.791,0,0,1,2.781,1.156,3.792,3.792,0,0,1,1.157,2.781V-808.5a3.792,3.792,0,0,1-1.157,2.781,3.792,3.792,0,0,1-2.781,1.157Z" transform="translate(1942 2237)" fill="#016dd5"/>
  </g>
</svg>
