<svg id="Order-Summary" xmlns="http://www.w3.org/2000/svg" width="35" height="35" viewBox="0 0 35 35">
  <rect id="Rectangle_10261" data-name="Rectangle 10261" width="35" height="35" rx="6" fill="#016dd5" opacity="0.2"/>
  <path id="order_approve_24dp_E3E3E3_FILL1_wght400_GRAD0_opsz24" d="M134.745-822.182l3.589-3.564-1.085-1.085-2.5,2.453-1.007-1.007-1.085,1.11ZM123.1-833.8h12.395v-2.066H123.1Zm12.395,14.461a4.978,4.978,0,0,1-3.654-1.511,4.977,4.977,0,0,1-1.511-3.654,4.977,4.977,0,0,1,1.511-3.654,4.977,4.977,0,0,1,3.654-1.511,4.977,4.977,0,0,1,3.654,1.511,4.977,4.977,0,0,1,1.511,3.654,4.977,4.977,0,0,1-1.511,3.654,4.978,4.978,0,0,1-3.655,1.508ZM120-820.375v-17.559a1.989,1.989,0,0,1,.607-1.459,1.989,1.989,0,0,1,1.459-.607h14.461a1.989,1.989,0,0,1,1.459.607,1.989,1.989,0,0,1,.607,1.459v6.9a6.293,6.293,0,0,0-1.511-.529,7.6,7.6,0,0,0-1.588-.168H123.1v2.066h7.334a7.938,7.938,0,0,0-.813.955,7.123,7.123,0,0,0-.658,1.11H123.1v2.066h5.242a3.507,3.507,0,0,0-.065.5q-.013.245-.013.53a7.224,7.224,0,0,0,.3,2.079,7.191,7.191,0,0,0,.891,1.9l-.155.155-1.549-1.549-1.549,1.549-1.549-1.549-1.549,1.549-1.549-1.549Z" transform="translate(-113.003 847.172)" fill="#016dd5"/>
</svg>
