<svg xmlns="http://www.w3.org/2000/svg" width="62" height="62" viewBox="0 0 62 62">
  <g id="Pending" transform="translate(-1440 -180)">
    <rect id="Rectangle_7018" data-name="Rectangle 7018" width="62" height="62" rx="6" transform="translate(1440 180)" fill="#fb8c00" opacity="0.24"/>
    <g id="Group_41709" data-name="Group 41709" transform="translate(-0.473)">
      <g id="noun-unverified-7748063" transform="translate(1444.146 183.648)">
        <path id="Path_101023" data-name="Path 101023" d="M42.131,14.888c0,3.609-2.927,8.714-6.538,8.714s-6.538-5.1-6.538-8.714a6.538,6.538,0,1,1,13.076,0Z" transform="translate(-11.511)" fill="#fb8c00"/>
        <path id="Path_101024" data-name="Path 101024" d="M31.174,67.154H12.686a4.359,4.359,0,0,1-4.13-5.741l3.63-10.889a4.367,4.367,0,0,1,4.15-2.981h15.5a4.358,4.358,0,0,1,3.113,1.315,10.187,10.187,0,0,0-3.78,18.3Z" transform="translate(0 -21.765)" fill="#fb8c00"/>
      </g>
      <path id="Path_101031" data-name="Path 101031" d="M18.89,47.84a8.32,8.32,0,1,0,8.321,8.32,8.32,8.32,0,0,0-8.321-8.32ZM21.1,58.366H17.864a1.114,1.114,0,0,1-1.115-1.114V52.8a1.115,1.115,0,1,1,2.23,0v3.36H21.1a1.114,1.114,0,1,1,0,2.228Z" transform="translate(1462.316 164.557)" fill="#fb8c00"/>
    </g>
  </g>
</svg>
