<svg xmlns="http://www.w3.org/2000/svg" width="62" height="62" viewBox="0 0 62 62">
  <g id="Pending" transform="translate(-1437 -254)">
    <rect id="Rectangle_7018" data-name="Rectangle 7018" width="62" height="62" rx="6" transform="translate(1437 254)" fill="#fb8c00" opacity="0.24"/>
    <g id="Group_41770" data-name="Group 41770" transform="translate(-4794 -9169)">
      <path id="inactive_order_24dp_E3E3E3_FILL1_wght300_GRAD0_opsz24_1_" data-name="inactive_order_24dp_E3E3E3_FILL1_wght300_GRAD0_opsz24 (1)" d="M145.519-809.735H167V-812.6H145.519ZM140-785.784v-30.757a3.33,3.33,0,0,1,1.016-2.443A3.33,3.33,0,0,1,143.459-820h25.607a3.33,3.33,0,0,1,2.443,1.016,3.33,3.33,0,0,1,1.016,2.443v12.071a11.454,11.454,0,0,0-3.148-.778,13.046,13.046,0,0,0-3.236.076H145.519v2.87H159.3a12.417,12.417,0,0,0-2.022,2.055,12.48,12.48,0,0,0-1.514,2.508h-10.25v2.869h9.36a10.133,10.133,0,0,0-.221,1.245,11.736,11.736,0,0,0-.07,1.312,12.652,12.652,0,0,0,.412,3.228,12.111,12.111,0,0,0,1.236,3l-.176.176-2.52-2.226-2.723,2.355-2.722-2.355-2.722,2.355-2.722-2.355Z" transform="translate(6104 10256)" fill="#fb8c00"/>
      <path id="schedule_24dp_E3E3E3_FILL1_wght300_GRAD0_opsz24" d="M111.756-847.287l.955-.955-3.423-3.423v-4.256h-1.359v4.807Zm-3.146,4.507a8.386,8.386,0,0,1-3.358-.678,8.694,8.694,0,0,1-2.734-1.84,8.7,8.7,0,0,1-1.841-2.733,8.381,8.381,0,0,1-.678-3.357,8.389,8.389,0,0,1,.678-3.358,8.7,8.7,0,0,1,1.84-2.734,8.7,8.7,0,0,1,2.733-1.841,8.377,8.377,0,0,1,3.357-.678,8.388,8.388,0,0,1,3.358.678,8.692,8.692,0,0,1,2.734,1.84,8.7,8.7,0,0,1,1.841,2.733,8.381,8.381,0,0,1,.678,3.357,8.389,8.389,0,0,1-.678,3.358,8.7,8.7,0,0,1-1.84,2.734,8.7,8.7,0,0,1-2.733,1.841,8.376,8.376,0,0,1-3.357.678Z" transform="translate(6163.132 10315.241)" fill="#fb8c00"/>
    </g>
  </g>
</svg>
