<svg id="Group_2" data-name="Group 2" xmlns="http://www.w3.org/2000/svg" xmlns:xlink="http://www.w3.org/1999/xlink" width="62" height="62" viewBox="0 0 62 62">
  <defs>
    <clipPath id="clip-path">
      <rect id="Rectangle_1" data-name="Rectangle 1" width="62" height="62" fill="none"/>
    </clipPath>
  </defs>
  <g id="Group_1" data-name="Group 1" clip-path="url(#clip-path)">
    <path id="Path_1" data-name="Path 1" d="M6,0H56a6,6,0,0,1,6,6V56a6,6,0,0,1-6,6H6a6,6,0,0,1-6-6V6A6,6,0,0,1,6,0" fill="#fb8c00" opacity="0.24"/>
    <path id="Path_2" data-name="Path 2" d="M43.69,33.39h8.17V29.3H43.69Zm-1.64,6.13L39.6,42.79l6.54,4.9,2.45-3.27ZM46.14,15,39.6,19.9l2.45,3.27,6.54-4.9ZM17.39,31.18V28.72h-.78V31.5l2.21,2.21.55-.55Zm0,0V28.72h-.78V31.5l2.21,2.21.55-.55Zm5.87-5.97H15.09A4.1,4.1,0,0,0,11,29.3v4.09a4.1,4.1,0,0,0,4.09,4.08h2.04v8.17h4.08V37.47h2.05L33.47,43.6V19.08Zm-1.68,8.07a5.1,5.1,0,0,1-1.06,1.58,4.989,4.989,0,0,1-1.58,1.06,4.781,4.781,0,0,1-1.94.4v-.01a4.772,4.772,0,0,1-1.94-.39,4.923,4.923,0,0,1-2.64-2.64,4.9,4.9,0,0,1,0-3.88,4.989,4.989,0,0,1,1.06-1.58,5.191,5.191,0,0,1,1.58-1.07,5.02,5.02,0,0,1,3.88,0,5.316,5.316,0,0,1,1.58,1.07,4.989,4.989,0,0,1,1.06,1.58,4.781,4.781,0,0,1,.4,1.94,4.85,4.85,0,0,1-.4,1.94m-4.19-4.56h-.78V31.5l2.21,2.21.55-.55-1.98-1.98Zm20.35-1.23a9.369,9.369,0,0,0-2.23-2.99V38.19a9.48,9.48,0,0,0,2.23-2.99,9.266,9.266,0,0,0,0-7.71" fill="#fb8c00"/>
  </g>
</svg>
