<svg xmlns="http://www.w3.org/2000/svg" width="56" height="56" viewBox="0 0 56 56">
  <g id="Pop" transform="translate(-2394 -1387)">
    <rect id="Rectangle_7018" data-name="Rectangle 7018" width="56" height="56" rx="6" transform="translate(2394 1387)" fill="#c26eff" opacity="0.24"/>
    <path id="add_photo_alternate_24dp_E3E3E3_FILL1_wght400_GRAD0_opsz24" d="M123.938-804.563a3.792,3.792,0,0,1-2.781-1.157A3.791,3.791,0,0,1,120-808.5v-27.563a3.792,3.792,0,0,1,1.157-2.781A3.791,3.791,0,0,1,123.938-840h17.719a9.2,9.2,0,0,0-1.477,2.8,10.043,10.043,0,0,0-.492,3.1,9.487,9.487,0,0,0,2.879,6.964,9.487,9.487,0,0,0,6.964,2.879,10.045,10.045,0,0,0,3.1-.492,9.2,9.2,0,0,0,2.805-1.477V-808.5a3.791,3.791,0,0,1-1.157,2.781,3.791,3.791,0,0,1-2.781,1.157Zm1.969-7.875h23.625l-7.383-9.844-5.906,7.875-4.43-5.906Zm21.656-15.75v-3.937h-3.938v-3.937h3.938V-840H151.5v3.938h3.937v3.937H151.5v3.938Z" transform="translate(2284 2237)" fill="#c26eff"/>
  </g>
</svg>
