<svg id="Proof_Pending" data-name="Proof Pending" xmlns="http://www.w3.org/2000/svg" width="62" height="62" viewBox="0 0 62 62">
  <path id="Rectangle_7018" data-name="Rectangle 7018" d="M6,0H56a6,6,0,0,1,6,6V56a6,6,0,0,1-6,6H6a6,6,0,0,1-6-6V6A6,6,0,0,1,6,0Z" fill="#fb8c00" opacity="0.24"/>
  <path id="Proof_Pending-2" data-name="Proof Pending" d="M170.938-866.05h3.125v-7.75h-3.125Zm1.563,6.2a1.518,1.518,0,0,0,1.113-.446,1.5,1.5,0,0,0,.449-1.1,1.494,1.494,0,0,0-.449-1.1,1.518,1.518,0,0,0-1.113-.446,1.518,1.518,0,0,0-1.113.446,1.494,1.494,0,0,0-.449,1.1,1.494,1.494,0,0,0,.449,1.1,1.518,1.518,0,0,0,1.112.446Zm0,10.85a51.7,51.7,0,0,1-9.4-9.862Q160-863.415,160-867.29a11.939,11.939,0,0,1,3.77-9.261A12.541,12.541,0,0,1,172.5-880a12.541,12.541,0,0,1,8.73,3.449A11.939,11.939,0,0,1,185-867.29q0,3.875-3.1,8.428A51.7,51.7,0,0,1,172.5-849Z" transform="translate(-141 895)" fill="#fb8c00"/>
</svg>
