<svg xmlns="http://www.w3.org/2000/svg" width="62" height="62" viewBox="0 0 62 62">
  <g id="Proof_Uploaded" data-name="Proof Uploaded" transform="translate(-1087 -323)">
    <path id="Rectangle_7018" data-name="Rectangle 7018" d="M6,0H56a6,6,0,0,1,6,6V56a6,6,0,0,1-6,6H6a6,6,0,0,1-6-6V6A6,6,0,0,1,6,0Z" transform="translate(1087 323)" fill="#e3b800" opacity="0.24"/>
    <path id="Proof_uploaded-2" data-name="Proof uploaded" d="M170.938-861.4h3.125v-4.65h4.688v-3.1h-4.687v-4.65h-3.125v4.65H166.25v3.1h4.688ZM172.5-849a51.7,51.7,0,0,1-9.395-9.862Q160-863.415,160-867.29a11.939,11.939,0,0,1,3.77-9.261A12.541,12.541,0,0,1,172.5-880a12.541,12.541,0,0,1,8.73,3.449A11.939,11.939,0,0,1,185-867.29q0,3.875-3.1,8.428A51.7,51.7,0,0,1,172.5-849Z" transform="translate(946 1219)" fill="#e3b800"/>
  </g>
</svg>
