<svg id="Proof-of-Posting" xmlns="http://www.w3.org/2000/svg" width="35" height="35" viewBox="0 0 35 35">
  <rect id="Rectangle_7018" data-name="Rectangle 7018" width="35" height="35" rx="6" fill="#016dd5" opacity="0.2"/>
  <path id="add_location_alt_24dp_E3E3E3_FILL1_wght400_GRAD0_opsz24" d="M168.089-947.856a1.947,1.947,0,0,0,1.428-.595,1.95,1.95,0,0,0,.594-1.43,1.95,1.95,0,0,0-.594-1.429,1.946,1.946,0,0,0-1.428-.595,1.946,1.946,0,0,0-1.428.595,1.95,1.95,0,0,0-.594,1.429,1.95,1.95,0,0,0,.594,1.43,1.947,1.947,0,0,0,1.428.6Zm0,10.12a33.628,33.628,0,0,1-6.079-6.439,10.019,10.019,0,0,1-2.01-5.5,7.83,7.83,0,0,1,2.439-6.047,8.078,8.078,0,0,1,5.65-2.252,8.127,8.127,0,0,1,1.011.063,8.528,8.528,0,0,1,1.011.19v3.8h3.033v3.036H176.1a4.291,4.291,0,0,1,.063.595q.013.316.013.62a10.019,10.019,0,0,1-2.01,5.5,33.633,33.633,0,0,1-6.077,6.435Zm6.067-14.168v-3.036h-3.033v-2.024h3.033V-960h2.022v3.036h3.033v2.024h-3.033v3.036Z" transform="translate(-151.846 966.272)" fill="#016dd5"/>
</svg>
