<svg xmlns="http://www.w3.org/2000/svg" width="35" height="35" viewBox="0 0 35 35">
  <g id="Quick_links" data-name="Quick links" transform="translate(-1970 -1287)">
    <rect id="Rectangle_10261" data-name="Rectangle 10261" width="35" height="35" rx="6" transform="translate(1970 1287)" fill="#016dd5" opacity="0.2"/>
    <g id="noun-links-6211710" transform="translate(1956.004 1274)">
      <path id="Path_101292" data-name="Path 101292" d="M37.877,25A4.876,4.876,0,0,0,34.7,26.183l-.214.184L31.324,24.33l.06-.259a4.126,4.126,0,1,0-4.01,3.181,4.077,4.077,0,0,0,2.524-.87l.21-.161,3.166,2.037-.079.27a4.741,4.741,0,0,0-.038,2.558l.071.27-2.453,1.47-.206-.2a5.626,5.626,0,1,0,1.448,2.412l-.083-.281,2.453-1.47.206.188A4.876,4.876,0,1,0,37.877,25ZM25.5,23.126ZM37.877,32.5A2.626,2.626,0,1,1,40.5,29.877,2.626,2.626,0,0,1,37.877,32.5Z" fill="#016dd5"/>
    </g>
  </g>
</svg>
