<svg xmlns="http://www.w3.org/2000/svg" width="62" height="62" viewBox="0 0 62 62">
  <g id="Rejected" transform="translate(-1960 -180)">
    <rect id="Rectangle_7018" data-name="Rectangle 7018" width="62" height="62" rx="6" transform="translate(1960 180)" fill="#f44335" opacity="0.24"/>
    <g id="noun-unverified-7748063" transform="translate(1963.673 183.648)">
      <path id="Path_101023" data-name="Path 101023" d="M42.131,14.888c0,3.609-2.927,8.714-6.538,8.714s-6.538-5.1-6.538-8.714a6.538,6.538,0,1,1,13.076,0Z" transform="translate(-11.511)" fill="#f44335"/>
      <path id="Path_101024" data-name="Path 101024" d="M31.174,67.154H12.686a4.359,4.359,0,0,1-4.13-5.741l3.63-10.889a4.367,4.367,0,0,1,4.15-2.981h15.5a4.358,4.358,0,0,1,3.113,1.315,10.187,10.187,0,0,0-3.78,18.3Z" transform="translate(0 -21.765)" fill="#f44335"/>
      <path id="Path_101025" data-name="Path 101025" d="M62.5,54.207a8.334,8.334,0,1,0,8.336,8.335A8.334,8.334,0,0,0,62.5,54.207Zm3.279,10.277a.949.949,0,0,1,0,1.315.964.964,0,0,1-1.315,0L62.5,63.836,60.542,65.8a.905.905,0,0,1-.648.259.926.926,0,0,1-.667-.259.949.949,0,0,1,0-1.315l1.963-1.963-1.963-1.963a.93.93,0,1,1,1.315-1.315l1.963,1.963,1.963-1.963a.93.93,0,1,1,1.315,1.315L63.82,62.522Z" transform="translate(-25.457 -25.465)" fill="#f44335"/>
    </g>
  </g>
</svg>
