<svg id="Group_25885" data-name="Group 25885" xmlns="http://www.w3.org/2000/svg" width="110.135" height="162.264" viewBox="0 0 110.135 162.264">
  <g id="Rectangle_545" data-name="Rectangle 545" transform="translate(8.911 6.31)" fill="#fff" stroke="#707070" stroke-width="1">
    <rect width="92.545" height="111.475" stroke="none"/>
    <rect x="0.5" y="0.5" width="91.545" height="110.475" fill="none"/>
  </g>
  <g id="static-media" transform="translate(0 0)">
    <path id="Path_101320" data-name="Path 101320" d="M60.428,51.292l-4.02-6.436-4.02,6.436a5.053,5.053,0,0,1-3.061,2.226l-7.369,1.838,4.878,5.819A5.025,5.025,0,0,1,48,64.782l-.533,7.573L54.5,69.506a5.057,5.057,0,0,1,3.789,0l7.032,2.849-.532-7.573a5.109,5.109,0,0,1,1.166-3.608l4.878-5.819L63.46,53.517a5.069,5.069,0,0,1-3.033-2.225Z" transform="translate(-1.339 24.508)" fill="#026dd5"/>
    <path id="Path_101321" data-name="Path 101321" d="M117.842,6.25H31A11.651,11.651,0,0,0,19.351,17.894V120.082A11.641,11.641,0,0,0,31,131.726h86.846a11.646,11.646,0,0,0,11.644-11.64V17.894A11.641,11.641,0,0,0,117.842,6.25ZM99.14,89.587l-6.105,7.271.659,9.475a7.64,7.64,0,0,1-10.487,7.616l-8.787-3.56-8.8,3.559a7.644,7.644,0,0,1-10.485-7.622l.659-9.475-6.105-7.271a7.637,7.637,0,0,1,4.008-12.322l9.215-2.295,5.032-8.051a7.914,7.914,0,0,1,12.962,0l5.032,8.051,9.215,2.295a7.642,7.642,0,0,1,3.989,12.331Zm-45.9-41.136a5.049,5.049,0,0,1,5.053-5.058H90.56a5.053,5.053,0,1,1,0,10.106H58.29a5.049,5.049,0,0,1-5.053-5.048Zm47.8-14.873H47.8a5.053,5.053,0,1,1,0-10.106h53.235a5.053,5.053,0,1,1,0,10.106Z" transform="translate(-19.351 -6.25)" fill="#026dd5"/>
    <path id="Path_101322" data-name="Path 101322" d="M92.519,98.3H80.967V81.711h-32.7V98.288H36.709a5.053,5.053,0,1,0,0,10.106H92.519a5.053,5.053,0,1,0,0-10.106Z" transform="translate(-9.547 53.869)" fill="#026dd5"/>
  </g>
</svg>
