<svg id="Campaigns" xmlns="http://www.w3.org/2000/svg" width="62" height="62" viewBox="0 0 62 62">
  <rect id="Rectangle_7018" data-name="Rectangle 7018" width="62" height="62" rx="6" fill="#c26eff" opacity="0.24"/>
  <path id="campaign_24dp_E3E3E3_FILL1_wght400_GRAD0_opsz24" d="M107.862-784.328v-3.483h6.966v3.483Zm2.09,12.19-5.572-4.179,2.09-2.786,5.572,4.179Zm-3.483-20.9-2.09-2.786L109.952-800l2.09,2.786ZM85.224-773.879v-6.966H83.483a3.354,3.354,0,0,1-2.46-1.023A3.354,3.354,0,0,1,80-784.328v-3.483a3.354,3.354,0,0,1,1.023-2.46,3.354,3.354,0,0,1,2.46-1.023h6.966l8.707-5.224v20.9l-8.707-5.224H88.707v6.966Zm15.672-6.356V-791.9a7.956,7.956,0,0,1,1.894,2.547,7.519,7.519,0,0,1,.718,3.287,7.518,7.518,0,0,1-.718,3.287,7.951,7.951,0,0,1-1.89,2.544Z" transform="translate(-66 817)" fill="#c26eff"/>
</svg>
