<svg xmlns="http://www.w3.org/2000/svg" width="35" height="35" viewBox="0 0 35 35">
  <g id="Transaction_Summary" data-name="Transaction Summary" transform="translate(0.324)">
    <rect id="Rectangle_10262" data-name="Rectangle 10262" width="35" height="35" rx="6" transform="translate(-0.324)" fill="#016dd5" opacity="0.2"/>
    <path id="add_card_24dp_E3E3E3_FILL1_wght400_GRAD0_opsz24" d="M82.086-791.658H98.77v-4.171H82.086ZM97.727-781.23v-3.128H94.6v-2.086h3.128v-3.128h2.086v3.128h3.128v2.086H99.813v3.128Zm-15.642-2.086a2.008,2.008,0,0,1-1.473-.613A2.008,2.008,0,0,1,80-785.4v-12.513a2.008,2.008,0,0,1,.613-1.473A2.008,2.008,0,0,1,82.086-800H98.77a2.008,2.008,0,0,1,1.473.613,2.008,2.008,0,0,1,.613,1.473v6.257H97.727a5.025,5.025,0,0,0-3.689,1.525,5.025,5.025,0,0,0-1.525,3.689v3.128Z" transform="translate(-73.853 808.103)" fill="#016dd5"/>
  </g>
</svg>
