<svg xmlns="http://www.w3.org/2000/svg" width="111.296" height="49.796" viewBox="0 0 111.296 49.796">
  <g id="Users" transform="translate(-6.246 -30.422)">
    <g id="Group_41328" data-name="Group 41328" transform="translate(6.246 30.422)">
      <path id="Path_100829" data-name="Path 100829" d="M10.226,78.822H27.156a11.82,11.82,0,0,1-.238-7.234l.477-1.669A35.666,35.666,0,0,1,39.319,52.034a23.215,23.215,0,0,1-1.272-7.472,20.857,20.857,0,0,1,.755-5.684,13.692,13.692,0,0,0-19.793,18.76,23.876,23.876,0,0,0-12.2,14.746l-.4,1.391a3.938,3.938,0,0,0,.636,3.5,3.991,3.991,0,0,0,3.18,1.55Z" transform="translate(-6.246 -29.041)" fill="#bb6dd6"/>
      <path id="Path_100830" data-name="Path 100830" d="M79.08,69.919l.477,1.709a12,12,0,0,1-.238,7.194H97a3.991,3.991,0,0,0,3.18-1.55,3.938,3.938,0,0,0,.636-3.5l-.4-1.391a23.878,23.878,0,0,0-12.2-14.746A13.668,13.668,0,0,0,77.45,35.5a13.854,13.854,0,0,0-9.618,3.9,22.148,22.148,0,0,1,.6,5.167,23.215,23.215,0,0,1-1.272,7.472A35.671,35.671,0,0,1,79.08,69.918Z" transform="translate(10.312 -29.041)" fill="#9b6bd5"/>
      <path id="Path_100831" data-name="Path 100831" d="M29.026,73.486l-.477,1.669a3.975,3.975,0,0,0,3.826,5.063H78.618a3.975,3.975,0,0,0,3.821-5.063l-.472-1.669a27.54,27.54,0,0,0-14.9-17.339,15.506,15.506,0,1,0-23.141,0,27.537,27.537,0,0,0-14.9,17.339Z" transform="translate(-0.225 -30.422)" fill="#7c69d5"/>
    </g>
  </g>
</svg>
