<svg xmlns="http://www.w3.org/2000/svg" width="64" height="54.165" viewBox="0 0 64 54.165">
  <g id="Visiters" transform="translate(-4 -5.844)">
    <path id="Path_100832" data-name="Path 100832" d="M18.523,5.844A10.279,10.279,0,1,0,28.8,16.124,10.292,10.292,0,0,0,18.523,5.844Z" transform="translate(7.072 0)" fill="#7193d6"/>
    <path id="Path_100833" data-name="Path 100833" d="M38.477,18.717a21.377,21.377,0,0,0-12.885-4.291A21.621,21.621,0,0,0,4,36.021a2.668,2.668,0,0,0,2.667,2.667H21.213A25.648,25.648,0,0,1,38.477,18.717Z" transform="translate(0 14.303)" fill="#7193d6"/>
    <path id="Path_100834" data-name="Path 100834" d="M33.4,17.058A21.618,21.618,0,0,0,11.8,38.653a2.668,2.668,0,0,0,2.667,2.667H52.325a2.666,2.666,0,0,0,2.667-2.667A21.62,21.62,0,0,0,33.4,17.058Z" transform="translate(13.008 18.69)" fill="#7bb5d8"/>
    <path id="Path_100835" data-name="Path 100835" d="M26.325,8.476a10.279,10.279,0,1,0,10.28,10.28A10.29,10.29,0,0,0,26.325,8.476Z" transform="translate(20.08 4.387)" fill="#7bb5d8"/>
  </g>
</svg>
