<svg id="PENDING_ILLUSTRATION" data-name="PENDING ILLUSTRATION" xmlns="http://www.w3.org/2000/svg" xmlns:xlink="http://www.w3.org/1999/xlink" width="383.718" height="269.473" viewBox="0 0 383.718 269.473">
  <defs>
    <clipPath id="clip-path">
      <rect id="Rectangle_8379" data-name="Rectangle 8379" width="383.718" height="269.473" fill="none"/>
    </clipPath>
  </defs>
  <g id="Group_37226" data-name="Group 37226" clip-path="url(#clip-path)">
    <path id="Path_99487" data-name="Path 99487" d="M680.3,187.424a60.008,60.008,0,0,0-2.974-7.1,47.6,47.6,0,0,1-3.652-14.712c-.261-2.922-.313-5.791-.365-8.713a.814.814,0,0,0-.365-.678,14.22,14.22,0,0,0-.835-5.321,12.894,12.894,0,0,0-3.6-5.426c-.313-.626-.678-1.252-1.043-1.878a.051.051,0,0,1-.052-.052c-.1-.052-1.1-.365-1.461-.47s-.73-.156-1.1-.261c-.209-.052-.365-.1-.417-.1a3.875,3.875,0,0,1-1.3.1c-.052.1-.156.261-.209.365a6.4,6.4,0,0,0-.991.1,4.536,4.536,0,0,0-2.191,1.461,8.953,8.953,0,0,0-1.357,2.087,4.2,4.2,0,0,0-.469,1.356v.1a6.226,6.226,0,0,0-.417.835,66.735,66.735,0,0,0-2.191-9.965,1.985,1.985,0,0,0-.887-1.148,3.3,3.3,0,0,1-.1-.365,2.376,2.376,0,0,0-2.243-1.617,5.469,5.469,0,0,0-5.635.1,11.587,11.587,0,0,0-4.122,4.9,16.64,16.64,0,0,0-3.965,7.878,20.624,20.624,0,0,0-.417,4.748,17.741,17.741,0,0,0,.156,2.348,4.421,4.421,0,0,0,.678,2.348,2.347,2.347,0,0,0,2.191,1.93h.156a1.149,1.149,0,0,0,.417.052,13.947,13.947,0,0,1,8.4,3.756,2.2,2.2,0,0,0,1.617.626c.261.522.574.991.835,1.513a1.586,1.586,0,0,0,.626.678c.678,1.252,1.356,2.556,2.035,3.809a1.868,1.868,0,0,0,1.148.991,75.852,75.852,0,0,1-.1,10.33c-.052.156-.156.261-.209.417-.417.939-.783,1.93-1.148,2.922-.313.991-.626,1.982-.835,2.974-.1.522-.209,1.043-.261,1.565-1.513,2.661-3.026,5.374-4.539,8.034a1.939,1.939,0,0,0-.261,1.2c-.156.157-.313.261-.469.417a.838.838,0,0,0-.261.574c-.052.052-.157.1-.209.156a1.141,1.141,0,0,0-.156.261.47.47,0,0,0-.052.261.391.391,0,0,0,.052.261c.052.1.1.156.156.261a.927.927,0,0,0,.522.209.314.314,0,0,0,.209-.052c.1-.052.261-.1.313-.209l.052-.052a1.324,1.324,0,0,0,.626-.1,1.091,1.091,0,0,0,.313-.209,1.929,1.929,0,0,0,1.1.313,6.184,6.184,0,0,1,4.435,1.878,25.851,25.851,0,0,1,1.3,3.861,13.269,13.269,0,0,1,.365,2.452v.052a18.238,18.238,0,0,1-.626,3.756,18.843,18.843,0,0,1-.887,2.4,11,11,0,0,1-.991,1.2,3.629,3.629,0,0,1-1.565.991c-1.3,1.148-2.556,2.3-3.861,3.391a.742.742,0,0,0-.313.1,6.778,6.778,0,0,1-6,.574c-.052-.052-.1-.052-.209-.1-1.669-.313-3.235-1.878-4.226-3.13a9.725,9.725,0,0,1-1.513-2.556,1.682,1.682,0,0,0-1.3.365,7.589,7.589,0,0,0-1.722,2.348,2.136,2.136,0,0,0-.835.835c-2.191,4.121-4.435,8.765-4.278,13.46-.052.574-.1,1.1-.1,1.617a14.283,14.283,0,0,0,.574,3.965v.209a5.284,5.284,0,0,0,3.443,4.069,4.118,4.118,0,0,0,1.3.991,20.994,20.994,0,0,0,8.347-1.252,1.523,1.523,0,0,1,.469-.1c.052-.052.1-.156.157-.209.73-.209,1.461-.522,2.139-.783,1.2-.522,2.4-.991,3.6-1.513l3.6-1.565a17.775,17.775,0,0,0,3.652-1.982.528.528,0,0,0,.209-.365,16.321,16.321,0,0,0,6.365-3.6,18.161,18.161,0,0,0,1.983-1.2,23.663,23.663,0,0,0,2.974-2.609,12.873,12.873,0,0,0,2.3-3.026.051.051,0,0,1,.052-.052c.47-.417.887-.887,1.356-1.3a2.433,2.433,0,0,0,.626-1.043,2.864,2.864,0,0,0,.47-.365,9.382,9.382,0,0,0,1.774-2.035,14.194,14.194,0,0,0,2.087-5.321,62.3,62.3,0,0,0,.887-6.261,15.12,15.12,0,0,1,.73-3.652" transform="translate(-300.701 -64.715)"/>
    <path id="Path_99488" data-name="Path 99488" d="M516.554,351.919c-5.269,5.582-13.043,10.382-20.608,11.165-9.5.991-22.747-2.243-21.442-10.643,1.252-8.4,12.834-11.165,12.834-11.165,0-.052-8.139-1.617-8.139-1.669-4.852-.574-11.843,1.043-27.129,7.721-18.312,7.982-29.32,17.008-49.3,15.912a3.224,3.224,0,0,0-.47,1.461,23.28,23.28,0,0,0,.991,9.286,2.834,2.834,0,0,0,2.661,2.035c5.113-.417,10.226-.991,15.286-1.148,4.643-.156,9.86-.261,14.243-1.93a.051.051,0,0,0,.052-.052c-.939,1.043-1.878,2.139-2.817,3.182-2.869,3.287-6.052,6.521-8.243,10.33a2.84,2.84,0,0,0-.365,1.409,200.085,200.085,0,0,1-15.964,14.5,2.151,2.151,0,0,1-.678.522c-1.3.73-2.556,1.669-3.913,2.3-.157.052-.261.1-.417.157v.156c.1,5.53.261,11.112.365,16.643a2.1,2.1,0,0,0,.313,1.148c13.2,1.93,63.44.261,70.327-3.809,45.545-26.868,50.084-48,50.084-54.571-.052-6.73-7.669-12.938-7.669-12.938" transform="translate(-192.363 -162.379)" fill="#71d0f6"/>
    <path id="Path_99489" data-name="Path 99489" d="M0,293.343q22.538-13.695,45.128-27.338c16.643,32.763,26.4,49.458,45.441,81.7L54.31,387.094" transform="translate(0 -127.228)"/>
    <path id="Path_99490" data-name="Path 99490" d="M54.31,412.156C33.494,375.637,20.816,354.925,0,318.4" transform="translate(0 -152.29)"/>
    <path id="Path_99491" data-name="Path 99491" d="M175.235,219.154a12.167,12.167,0,0,1-2.4-4.226c-.939-3.026-5.687-1.722-4.748,1.3a17.118,17.118,0,0,0,3.652,6.417,2.472,2.472,0,1,0,3.5-3.5" transform="translate(-80.336 -101.976)"/>
    <path id="Path_99492" data-name="Path 99492" d="M203.087,266.522c.887,1.2,1.722,2.348,2.609,3.548a2.443,2.443,0,1,0,4.226-2.452c-.887-1.2-1.722-2.348-2.609-3.548a2.443,2.443,0,0,0-4.226,2.452" transform="translate(-96.972 -125.71)"/>
    <path id="Path_99493" data-name="Path 99493" d="M605.637,222.542a2.152,2.152,0,0,0-2.452.365,1.987,1.987,0,0,0-.417,2.452,2.454,2.454,0,0,0,2.087,1.2,2.247,2.247,0,0,0,2.035-1.3,2.759,2.759,0,0,0-.209-2.765.465.465,0,0,0-.417-.261c-.156,0-.365,0-.47.157a8.881,8.881,0,0,0-1.513,2.4.6.6,0,0,0,.73.73h.1c.1.052.261.052.365.1a2.363,2.363,0,0,0,.835.157c1.043-.157,1.043-1.565.939-2.348a1.943,1.943,0,0,0-1.565-1.565,2.682,2.682,0,0,0-2.243.626,1.73,1.73,0,0,0-.574,2.191,2.492,2.492,0,0,0,1.982.835,5.063,5.063,0,0,0,.887.052.941.941,0,0,0,.626-.157,1.269,1.269,0,0,0,.522-.73,1.856,1.856,0,0,0-.156-1.409,1.634,1.634,0,0,0-1.461-.73,2.176,2.176,0,0,0-2.035,2.452,1.331,1.331,0,0,0,1.2,1.148,1.3,1.3,0,0,0,1.3-.887.959.959,0,0,0-.1-.835.589.589,0,0,0-.783-.209.545.545,0,0,0-.209.783l.052.052s-.052-.1-.052-.052v-.1c0,.1.052-.1,0,0s.052-.052-.052.052a.051.051,0,0,0-.052.052h0a.051.051,0,0,0-.052.052c-.052.052.1,0,.052,0h-.052c-.1.052.052-.052.052,0h-.052c-.052-.052,0,0,.052,0l-.052-.052h0l-.052-.052c0,.052.052.1,0,0,0-.052-.052-.209,0-.052v-.261h0v-.157c0-.052.052-.157,0-.052,0-.052.052-.1.052-.157s.1-.157.052-.052l.157-.157.052-.052h0c.052,0,.052-.052.1-.052,0,0,.156-.1.1-.052h0c.052,0,.052,0,.1-.052.052,0,.157-.052.052,0h.209c.052,0,.209.052.1,0a.182.182,0,0,1,.1.052l-.052-.052.052.052a.051.051,0,0,0,.052.052l-.052-.052a.753.753,0,0,0,.1.157l.052.052s-.052-.1,0-.052c0,.052.052.1.052.157v.1h0c0,.052-.052.1-.052.157v-.052a.182.182,0,0,0-.052.1c-.052.1.052-.052,0,0l-.052.052h0c.1-.052.209-.052.313-.1H604.49a1.988,1.988,0,0,1-.522-.157c-.156-.052.1.052,0,0-.052,0-.052-.052-.1-.052s-.052-.052-.1-.052l.052.052-.052-.052-.052-.052c.1.052.052.1,0,0s0,.1,0,.052v-.052c-.052-.052,0,.157,0,.052v-.1c0-.1-.052.157,0,0a.182.182,0,0,1,.052-.1v.052a.182.182,0,0,0,.052-.1c.052-.1.1-.157.156-.261l-.052.052.052-.052.1-.1.1-.1-.052.052.052-.052c.1-.052.157-.1.261-.157l.1-.052c0,.052-.1.052-.052,0h.052c.1-.052.209-.052.313-.1,0,0,.1-.052.156,0h.365c.052,0,.1,0,.1.052h.052c.1.052-.052-.052,0,0a.4.4,0,0,0,.209.1l-.052-.052.052.052.1.1-.052-.052.052.052c0,.052.052.052.052.1a.051.051,0,0,0,.052.052c.052.1,0-.052,0-.052a.526.526,0,0,0,.052.157l.052.157v.73c0,.1.052-.157,0,0v.052a.192.192,0,0,1-.052.157v.052s.1-.157,0-.052v.052c-.052.1.052-.052.052-.052l-.052.052.052-.052c-.052.052.156-.052.052,0h0c-.052,0-.052-.052.052,0h-.1c-.052,0-.156-.052-.209-.052a1.935,1.935,0,0,0-1.2-.157l.73.73c0-.052.052-.1.1-.209a1.141,1.141,0,0,1,.156-.261c.1-.157.209-.365.313-.522a5.691,5.691,0,0,1,.678-.887,5.75,5.75,0,0,0-.939-.1,1.308,1.308,0,0,1,.209.365c-.052-.157,0,.052.052.1,0,.1.052.157.052.261.052.1,0-.157,0,0v.417c0,.1.052-.157,0,0,0,.1-.052.157-.052.261,0,.052,0,.052-.052.1,0,0-.052.157,0,.052s0,.052,0,.052c0,.052-.052.052-.052.1-.052.052-.052.1-.1.209s.052-.052,0,0l-.1.1-.052.052-.052.052-.052.052-.052.052c-.052,0-.052.052-.1.052.1-.052.052,0,0,0-.1,0-.156.052-.261.052H604.7c-.1,0-.157-.052-.261-.052,0,0-.157-.052-.052,0s-.052,0-.052,0c-.052-.052-.1-.052-.209-.1l-.052-.052c-.1-.052.052.052,0,0l-.157-.157-.052-.052c.052.052,0-.052-.052-.052-.052-.052-.052-.1-.1-.156h0a.182.182,0,0,0-.052-.1v-.1c-.052-.1,0,.1,0,0v-.209c-.052.1,0,.052,0,0s0-.052.052-.1c0-.052,0-.052.052-.1h0c.052-.052.052-.1.1-.209h0l.1-.1c.052,0,.052-.052.1-.052l.052-.052a.271.271,0,0,1,.209-.1c.052,0,.156-.052,0,0a.182.182,0,0,0,.1-.052h.1s.209-.052.1,0h.156c.157,0-.1-.052,0,0,.052,0,.1,0,.1.052.052,0,.052,0,.1.052-.156-.052,0,0,.052.052a.576.576,0,0,0,.783-.209c.156-.73.052-1.1-.209-1.252" transform="translate(-288.177 -106.094)"/>
    <path id="Path_99494" data-name="Path 99494" d="M588.637,204.042a2.152,2.152,0,0,0-2.452.365,1.987,1.987,0,0,0-.417,2.452,2.454,2.454,0,0,0,2.087,1.2,2.247,2.247,0,0,0,2.035-1.3,2.759,2.759,0,0,0-.209-2.765.465.465,0,0,0-.417-.261c-.156,0-.365,0-.469.157a8.875,8.875,0,0,0-1.513,2.4.6.6,0,0,0,.73.73h.1c.1.052.261.052.365.1a2.363,2.363,0,0,0,.835.157c1.043-.157,1.043-1.565.939-2.348a1.943,1.943,0,0,0-1.565-1.565,2.682,2.682,0,0,0-2.243.626,1.73,1.73,0,0,0-.574,2.191,2.492,2.492,0,0,0,1.982.835,5.061,5.061,0,0,0,.887.052.941.941,0,0,0,.626-.157,1.27,1.27,0,0,0,.522-.73,1.857,1.857,0,0,0-.156-1.409,1.634,1.634,0,0,0-1.461-.73,2.176,2.176,0,0,0-2.035,2.452,1.331,1.331,0,0,0,1.2,1.148,1.3,1.3,0,0,0,1.3-.887.959.959,0,0,0-.1-.835.589.589,0,0,0-.783-.209.545.545,0,0,0-.209.783l.052.052s-.052-.1-.052-.052v-.1c0,.1.052-.1,0,0s.052-.052-.052.052a.051.051,0,0,0-.052.052h0a.051.051,0,0,0-.052.052c-.052.052.1,0,.052,0h-.052c-.1.052.052-.052.052,0h-.052c-.052-.052,0,0,.052,0l-.052-.052h0l-.052-.052c0,.052.052.1,0,0,0-.052-.052-.209,0-.052v-.261h0v-.157c0-.052.052-.157,0-.052,0-.052.052-.1.052-.157s.1-.157.052-.052l.157-.157.052-.052h0c.052,0,.052-.052.1-.052,0,0,.156-.1.1-.052h0c.052,0,.052,0,.1-.052.052,0,.156-.052.052,0h.209c.052,0,.209.052.1,0a.182.182,0,0,1,.1.052l-.052-.052.052.052a.051.051,0,0,0,.052.052l-.052-.052a.752.752,0,0,0,.1.157l.052.052s-.052-.1,0-.052c0,.052.052.1.052.157v.1h0c0,.052-.052.1-.052.157v-.052a.182.182,0,0,0-.052.1c-.052.1.052-.052,0,0l-.052.052h0c.1-.052.209-.052.313-.1h-1.409a1.988,1.988,0,0,1-.522-.157c-.156-.052.1.052,0,0-.052,0-.052-.052-.1-.052s-.052-.052-.1-.052l.052.052-.052-.052-.052-.052c.1.052.052.1,0,0s0,.1,0,.052v-.052c-.052-.052,0,.157,0,.052v-.1c0-.1-.052.157,0,0a.182.182,0,0,1,.052-.1v.052a.182.182,0,0,0,.052-.1c.052-.1.1-.157.156-.261l-.052.052.052-.052.1-.1.1-.1-.052.052.052-.052c.1-.052.156-.1.261-.157l.1-.052c0,.052-.1.052-.052,0h.052c.1-.052.209-.052.313-.1,0,0,.1-.052.156,0h.365c.052,0,.1,0,.1.052h.052c.1.052-.052-.052,0,0a.4.4,0,0,0,.209.1l-.052-.052.052.052.1.1-.052-.052.052.052c0,.052.052.052.052.1a.051.051,0,0,0,.052.052c.052.1,0-.052,0-.052a.525.525,0,0,0,.052.157l.052.157v.73c0,.1.052-.157,0,0v.052a.192.192,0,0,1-.052.157v.052s.1-.157,0-.052v.052c-.052.1.052-.052.052-.052l-.052.052.052-.052c-.052.052.156-.052.052,0h0c-.052,0-.052-.052.052,0h-.1c-.052,0-.157-.052-.209-.052a1.935,1.935,0,0,0-1.2-.157l.73.73c0-.052.052-.1.1-.209a1.143,1.143,0,0,1,.156-.261c.1-.157.209-.365.313-.522a5.7,5.7,0,0,1,.678-.887,5.749,5.749,0,0,0-.939-.1,1.307,1.307,0,0,1,.209.365c-.052-.157,0,.052.052.1,0,.1.052.157.052.261.052.1,0-.157,0,0v.417c0,.1.052-.157,0,0,0,.1-.052.157-.052.261,0,.052,0,.052-.052.1,0,0-.052.157,0,.052s0,.052,0,.052c0,.052-.052.052-.052.1-.052.052-.052.1-.1.209s.052-.052,0,0l-.1.1-.052.052-.052.052-.052.052-.052.052c-.052,0-.052.052-.1.052.1-.052.052,0,0,0-.1,0-.157.052-.261.052H587.7c-.1,0-.157-.052-.261-.052,0,0-.156-.052-.052,0s-.052,0-.052,0c-.052-.052-.1-.052-.209-.1l-.052-.052c-.1-.052.052.052,0,0l-.157-.157-.052-.052c.052.052,0-.052-.052-.052-.052-.052-.052-.1-.1-.156h0a.182.182,0,0,0-.052-.1v-.1c-.052-.1,0,.1,0,0v-.209c-.052.1,0,.052,0,0s0-.052.052-.1c0-.052,0-.052.052-.1h0c.052-.052.052-.1.1-.209h0l.1-.1c.052,0,.052-.052.1-.052l.052-.052a.271.271,0,0,1,.209-.1c.052,0,.156-.052,0,0a.182.182,0,0,0,.1-.052h.1s.209-.052.1,0h.157c.157,0-.1-.052,0,0,.052,0,.1,0,.1.052.052,0,.052,0,.1.052-.156-.052,0,0,.052.052a.575.575,0,0,0,.783-.209c.1-.73.052-1.1-.209-1.252" transform="translate(-280.046 -97.245)"/>
    <path id="Path_99495" data-name="Path 99495" d="M204,421.3c1.3-.052,2.661-.052,3.965-.1a7.856,7.856,0,0,0-.522-.887c-6.834,10.852-13.408,21.912-20.451,32.607-2.087,3.182-4.226,6.365-6.417,9.5a4.584,4.584,0,0,1,.522-.313c-10.643.365-21.286.73-31.981.783-9.13.052-18.26-.209-27.39-.574q-9.782-.391-19.564-.939c.157.313.261.678.417.991l28.642-30.52c2.713-2.922,5.478-5.843,8.191-8.713-.157.052-.261.1-.417.157,8.973-.209,17.947-.47,26.972-.835,6.939-.261,13.877-.574,20.868-.783,5.739-.052,11.425-.209,17.164-.365.73,0,.783-1.2,0-1.148-7.513.157-14.973.365-22.486.626l-15.912.626q-9.939.391-19.877.626c-1.1.052-2.191.052-3.287.1-.522,0-1.1.052-1.617.052a7.55,7.55,0,0,0-1.878.052c-.417.1-.73.574-1.043.939-.47.47-.887.939-1.356,1.409l-2.5,2.661c-3.287,3.5-6.574,7.043-9.86,10.539-6.626,7.1-13.3,14.191-19.929,21.234l-2.5,2.661a.582.582,0,0,0,.417.991c8.5.417,17.008.835,25.512,1.148,6.834.209,13.721.365,20.555.365,7.669,0,15.338-.209,23.007-.47,2.3-.052,4.591-.156,6.887-.209.574,0,1.2-.052,1.774-.052.417,0,1.2.1,1.565-.209a6.83,6.83,0,0,0,.991-1.409c.365-.574.783-1.148,1.148-1.722,2.713-4.017,5.426-8.086,8.034-12.208,5.061-7.93,9.912-15.964,14.869-23.947l1.878-2.974a.6.6,0,0,0-.522-.887c-1.3.052-2.661.052-3.965.1-.626-.052-.626,1.1.1,1.1" transform="translate(-48.582 -200.932)"/>
    <path id="Path_99496" data-name="Path 99496" d="M154.239,133.711c-.47-.939-.939-1.878-1.409-2.765a.589.589,0,0,0-.783-.209c-5.947,3.5-11.738,7.3-17.425,11.269-6.521,4.539-12.938,9.286-19.042,14.4-3.235,2.661-6.365,5.426-9.339,8.4a.631.631,0,0,0-.1.73c4.9,10.9,10.33,21.651,15.7,32.346,5.478,10.9,11.008,21.755,16.069,32.868,2.765,6.052,5.374,12.208,7.773,18.469a.6.6,0,0,0,.991.261c10.852-9.965,22.016-19.564,33.6-28.694,3.287-2.556,6.574-5.113,9.912-7.617a.6.6,0,0,0,.261-.678c-4.278-10.382-8.66-20.712-13.251-30.99q-6.965-15.495-14.4-30.729c-2.817-5.687-5.687-11.373-8.556-17.06a.573.573,0,1,0-.991.574c5.113,9.965,10.069,20.086,14.869,30.207q7.2,15.26,13.825,30.677,3.756,8.765,7.356,17.529c.1-.209.156-.417.261-.678-11.791,8.921-23.268,18.26-34.329,28.016-3.182,2.765-6.313,5.634-9.391,8.452.313.1.678.157.991.261-4.278-11.217-9.339-22.068-14.556-32.816-5.374-11.06-11.06-21.964-16.486-32.972q-4.461-9-8.608-18.156c-.052.261-.052.47-.1.73a182.093,182.093,0,0,1,17.477-14.817c6.1-4.643,12.365-9.026,18.782-13.251,3.078-1.982,6.156-3.913,9.286-5.791-.261-.052-.522-.157-.783-.209.47.939.939,1.878,1.409,2.765.313.783,1.3.156.991-.522" transform="translate(-50.732 -62.495)"/>
    <path id="Path_99497" data-name="Path 99497" d="M212.025,210.288a15.869,15.869,0,0,1,4.643-12c.522-.522-.313-1.356-.835-.835a16.853,16.853,0,0,0-4.956,12.834c0,.783,1.2.783,1.148,0" transform="translate(-100.849 -94.361)"/>
    <path id="Path_99498" data-name="Path 99498" d="M227.346,166.465a32.1,32.1,0,0,1,11.217-13.878c.626-.417.052-1.461-.574-.991a33.7,33.7,0,0,0-11.738,14.556c-.313.73.835,1.043,1.1.313" transform="translate(-108.188 -72.45)"/>
    <path id="Path_99499" data-name="Path 99499" d="M266.9,137.126c2.243-1.356,4.487-2.765,6.73-4.122.626-.417.052-1.409-.574-.991-2.243,1.356-4.487,2.765-6.73,4.122a.573.573,0,1,0,.574.991" transform="translate(-127.233 -63.092)"/>
    <path id="Path_99500" data-name="Path 99500" d="M305.862,128.751H313.9a.574.574,0,0,0,0-1.148h-8.034c-.783-.052-.783,1.148,0,1.148" transform="translate(-146.01 -61.031)"/>
    <path id="Path_99501" data-name="Path 99501" d="M331.049,137.1a8.017,8.017,0,0,1-1.826,10.173c-.574.47.261,1.3.835.835a9.193,9.193,0,0,0,2.035-11.582.6.6,0,0,0-1.043.574" transform="translate(-157.372 -65.154)"/>
    <path id="Path_99502" data-name="Path 99502" d="M307.768,155.226c-3.287,1.148-7.408-1.252-7.826-4.748a.617.617,0,0,0-.574-.574.547.547,0,0,0-.574.574c.47,4.226,5.217,7.356,9.286,5.9.678-.261.417-1.409-.313-1.148" transform="translate(-142.908 -71.698)"/>
    <path id="Path_99503" data-name="Path 99503" d="M293.56,120.547A73.908,73.908,0,0,1,298.83,106.2c.313-.678-.678-1.252-.991-.574a73.725,73.725,0,0,0-5.374,14.66c-.261.678.887.991,1.1.261" transform="translate(-139.865 -50.375)"/>
    <path id="Path_99504" data-name="Path 99504" d="M318.783,79.323c2.661-2.661,5.321-5.374,7.982-8.034.522-.522-.313-1.356-.835-.835-2.661,2.661-5.321,5.374-7.982,8.034-.522.522.313,1.356.835.835" transform="translate(-151.993 -33.618)"/>
    <path id="Path_99505" data-name="Path 99505" d="M364.558,20.715c3.913,1.3,7.826,2.609,11.791,3.913,3.339,1.1,6.939,2.087,10.486,1.669a12.808,12.808,0,0,0,2.452-.522c.417-.157.783-.313,1.148-.47a4.769,4.769,0,0,0,1.252-1.043c1.409-1.461,2.869-2.922,4.278-4.435,2.869-2.922,5.739-5.9,8.608-8.817C407.86,7.672,411.2,4.333,414.538.994c.47-.47-.1-1.2-.73-.939-12.521,6.313-25.929,10.539-39.233,14.817-3.652,1.2-7.3,2.4-10.956,3.652a.6.6,0,0,0,.313,1.148c13.3-4.591,26.816-8.452,39.806-13.773,3.6-1.461,7.147-3.078,10.643-4.8-.261-.313-.47-.626-.73-.939-5.687,5.687-11.373,11.425-16.956,17.164-1.461,1.461-2.869,2.922-4.278,4.435-.678.678-1.3,1.356-1.983,2.035a5.622,5.622,0,0,1-2.556,1.1c-3.443.783-7.1-.157-10.434-1.148-4.226-1.3-8.452-2.765-12.625-4.174-.678-.209-.991.939-.261,1.148" transform="translate(-173.716 0)"/>
    <path id="Path_99506" data-name="Path 99506" d="M363.8,37.279a51.238,51.238,0,0,0,1.722,8.869,31.123,31.123,0,0,0,3.5,8.243.592.592,0,0,0,.939.1l10.173-11.269c.522-.574-.313-1.409-.835-.835L369.12,53.661a5.75,5.75,0,0,0,.939.1,31.7,31.7,0,0,1-3.391-7.982A53.887,53.887,0,0,1,365,37.227c-.1-.678-1.252-.73-1.2.052" transform="translate(-174 -17.556)"/>
    <path id="Path_99507" data-name="Path 99507" d="M352.4,35.713c-4.069,2.609-8.087,5.165-12.156,7.773-.365.261-.417.991.156,1.1a34.643,34.643,0,0,0,13.512-.261c.73-.157.417-1.3-.313-1.148a33.468,33.468,0,0,1-12.886.261l.157,1.1c4.069-2.609,8.087-5.165,12.156-7.773.626-.47,0-1.461-.626-1.043" transform="translate(-162.606 -17.033)"/>
    <path id="Path_99508" data-name="Path 99508" d="M586.59,230.882c-2.4,2.556-2.3,6.365-.678,9.339a9.153,9.153,0,0,0,8.817,4.956c4.226-.365,7.93-3.287,10.017-6.887,2.035-3.548,2.765-8.3.73-12-1.1-1.93-3.078-3.6-5.374-3.443-2.5.156-4.643,1.983-6.156,3.808.313.261.626.47.939.73a77.421,77.421,0,0,0,8.608-15.651c2.243-5.634,3.861-12.208,1.93-18.156-2.035-6.26-7.826-10.173-14.086-11.321-6.834-1.252-13.93.052-20.4,2.3-6.521,2.243-12.991,5.843-16.695,11.843a13.763,13.763,0,0,0-1.2,2.3,4.587,4.587,0,0,1,.522-.313c-5.791.47-10.226-4.226-13.878-8.087-1.982-2.139-4.017-4.382-6.782-5.53a6.626,6.626,0,0,0-7.147,1.043c-3.861,3.443-3.652,9.652-1.878,14.034a22.491,22.491,0,0,0,11.112,11.686c6.469,3.13,13.877,3.443,20.921,2.4.73-.1.417-1.252-.313-1.148-6,.887-12.365.73-18.1-1.461a21.926,21.926,0,0,1-11.738-10.226c-2.139-4.122-3.078-10.069.209-13.877a5.425,5.425,0,0,1,6.73-1.3c2.556,1.2,4.435,3.391,6.365,5.426,3.808,4.017,8.5,8.713,14.5,8.191a.574.574,0,0,0,.522-.313c2.869-6.313,8.765-10.33,15.025-12.834,6.156-2.452,12.938-4.017,19.564-3.443,6.208.522,12.469,3.443,15.13,9.391,2.452,5.426,1.2,11.791-.73,17.216a71.4,71.4,0,0,1-8.191,15.7c-.313.47-.626.939-.991,1.461s.47,1.2.939.73c1.252-1.513,2.817-3.026,4.852-3.391a4.638,4.638,0,0,1,4.539,2.191c2.087,3.078,1.669,7.408.1,10.591a12.743,12.743,0,0,1-8.243,6.939,7.83,7.83,0,0,1-8.347-3.182c-1.826-2.609-2.5-6.417-.1-8.921.313-.522-.522-1.356-1.043-.783" transform="translate(-249.983 -86.939)"/>
    <path id="Path_99509" data-name="Path 99509" d="M686.394,181.353c-1.1-3.078-2.609-6.052-3.443-9.234-1.617-6.208-.887-12.678-2.087-18.99a19.265,19.265,0,0,0-3.391-8.347c-1.565-1.982-4.226-3.5-6.782-2.974-2.5.522-4.174,2.817-4.9,5.113a10.744,10.744,0,0,0-.522,4.278c.1,1.93.678,3.861.887,5.791.365-.052.783-.1,1.148-.157-1.409-3.861-1.3-8.034-1.722-12.1-.365-3.443-.887-7.878-4.33-9.6-3.339-1.722-7.2-.209-9.7,2.3a21.852,21.852,0,0,0-5.321,9.756,24.5,24.5,0,0,0,.209,12.73c.261.73,1.409.417,1.2-.313a22.572,22.572,0,0,1,3.756-20.19c2.087-2.556,5.426-4.748,8.817-3.5,3.5,1.3,3.965,5.843,4.278,9.026.365,4.069.313,8.3,1.722,12.156.209.574,1.252.522,1.148-.157-.313-2.869-1.3-5.687-.73-8.556.417-2.035,1.513-4.278,3.5-5.165,2.3-1.043,4.852.365,6.365,2.139,1.878,2.191,2.765,5.217,3.287,7.982,1.148,5.843.574,11.947,1.826,17.79a54.967,54.967,0,0,0,3.026,8.5,62.45,62.45,0,0,1,2.713,9.078" transform="translate(-308.728 -64.279)"/>
    <path id="Path_99510" data-name="Path 99510" d="M720.709,261.721a4.292,4.292,0,0,0-.365-2.452c-.261-.365-.678-.313-1.043-.052l.835.835c4.591-4.278,4.9-10.9,4.069-16.747" transform="translate(-344.034 -116.37)"/>
    <path id="Path_99511" data-name="Path 99511" d="M678.6,238.505c1.3,6.156,1.722,13.721-3.287,18.364-.574.522.261,1.3.835.835.522-.417-.835.261-.783-.156,0,.052.052.1.052.156,0,.1.052.261.052.417a13.666,13.666,0,0,1,.052,1.461c0,.991,0,1.983-.052,2.974a10.33,10.33,0,0,1-.887,3.287,29.823,29.823,0,0,1-2.661,5.321c-3.808,6.156-9.547,10.7-15.808,14.243a73.947,73.947,0,0,1-10.278,4.852,50.667,50.667,0,0,1-5.426,1.774,32.849,32.849,0,0,1-5.008,1.043,5.968,5.968,0,0,1-5.687-2.661,11.465,11.465,0,0,1-1.356-6.678,24.315,24.315,0,0,1,.783-4.33c.417-1.669.887-3.339,1.461-5.008,1.148-3.339,2.765-6.678,5.634-8.869.574-.47-.261-1.3-.835-.835a18.8,18.8,0,0,0-5.53,8.3,40.915,40.915,0,0,0-1.513,4.9,41.954,41.954,0,0,0-.991,4.435c-.626,4.7.626,11.112,6.208,11.895a14.857,14.857,0,0,0,4.8-.417,46.479,46.479,0,0,0,5.843-1.669,74.051,74.051,0,0,0,11.217-4.956c6.834-3.7,13.147-8.5,17.373-15.182a31.111,31.111,0,0,0,2.817-5.582,14.155,14.155,0,0,0,.991-3.809c.052-1.043.1-2.139.052-3.182" transform="translate(-299.992 -114.075)"/>
    <path id="Path_99512" data-name="Path 99512" d="M560.533,244.016c-3.287,1.878-6.626,3.808-9.912,5.687a.545.545,0,0,0-.209.783c4.435,6.313,9.808,13.408,18.26,13.721a11.711,11.711,0,0,0,6.052-1.356c.678-.365.052-1.356-.574-.991a11.97,11.97,0,0,1-10.173.157,22.154,22.154,0,0,1-8.608-6.887c-1.356-1.669-2.609-3.443-3.861-5.217-.052.261-.156.522-.209.783,3.287-1.878,6.626-3.808,9.912-5.687.574-.365,0-1.409-.678-.991" transform="translate(-263.21 -116.664)"/>
    <path id="Path_99513" data-name="Path 99513" d="M545.6,264.413a29.18,29.18,0,0,0-7.826,9.286c-1.043,1.826-1.93,3.652-2.869,5.53-.939,1.93-2.139,4.122-1.409,6.313.626,1.93,2.452,3.548,3.913,4.9a28.785,28.785,0,0,0,5.269,3.809,23.907,23.907,0,0,0,4.9,2.087,16.82,16.82,0,0,1,4.069,1.565,3.657,3.657,0,0,1,1.722,4.435c-.783,2.452-3.026,4.33-4.852,6.052-.574.522.261,1.356.835.835,2.609-2.4,6.887-6.156,5.008-10.173-1.252-2.661-4.643-3.235-7.147-4.069a26.176,26.176,0,0,1-10.278-6.678,10,10,0,0,1-2.087-2.609,4.513,4.513,0,0,1,0-3.5,50.811,50.811,0,0,1,2.817-5.9c2.139-4.122,4.7-8.139,8.5-10.9.626-.417.052-1.409-.574-.991" transform="translate(-255.057 -126.418)"/>
    <path id="Path_99514" data-name="Path 99514" d="M667.519,273.536c1.982,2.4.156,6.834-2.922,7.147-.73.052-.73,1.252,0,1.148,4.174-.417,6.417-5.948,3.756-9.13-.469-.626-1.3.209-.835.835" transform="translate(-317.608 -130.324)"/>
    <path id="Path_99515" data-name="Path 99515" d="M372.969,495.838a16.475,16.475,0,0,0-5.217,1.409,12.2,12.2,0,0,1-4.487,1.409,13.068,13.068,0,0,1-8.034-2.452,10.4,10.4,0,0,1-2.869-2.974,7.015,7.015,0,0,0-2.191-2.713,3.722,3.722,0,0,0-3.548.052,9.174,9.174,0,0,0-2.4,2.5c-.991,1.252-2.087,2.348-3.808,2.452a2.985,2.985,0,0,1-2.348-.835,2.309,2.309,0,0,1-.522-2.3c.313-.678-.73-1.3-.991-.574a3.479,3.479,0,0,0,.887,3.913,4.358,4.358,0,0,0,4.539.678,7.481,7.481,0,0,0,3.13-2.556c.678-.887,1.356-2.035,2.452-2.4a2.729,2.729,0,0,1,1.93.1,3.54,3.54,0,0,1,1.3,1.461,12.731,12.731,0,0,0,2.661,3.339,14.184,14.184,0,0,0,8.087,3.5,10.645,10.645,0,0,0,4.956-.73c1.043-.417,2.035-.991,3.13-1.356a13.734,13.734,0,0,1,3.235-.678c.887-.157.887-1.356.1-1.252" transform="translate(-160.841 -234.406)"/>
    <path id="Path_99516" data-name="Path 99516" d="M440.462,444.319c-4.8,5.374-11.947,7.356-18.886,8.034a94.8,94.8,0,0,1-10.9.365c-4.7-.052-9.443-.156-14.138-.261s-9.391-.156-14.086-.052c-2.4.052-4.748.156-7.147.313a34.162,34.162,0,0,1-6.521.313,6,6,0,0,1-2.922-1.043,12.835,12.835,0,0,1-2.035-2.087c-1.1-1.409-2.243-2.817-3.443-4.121-2.243-2.4-4.956-4.748-8.3-5.53-7.147-1.669-13.825,4.435-14.556,11.321a10.909,10.909,0,0,0,0,2.609c.1.73,1.252.73,1.148,0a11.9,11.9,0,0,1,3.235-9.547,10.652,10.652,0,0,1,9.652-3.287c3.339.73,5.947,3.078,8.191,5.53,1.2,1.356,2.348,2.765,3.443,4.174a7.9,7.9,0,0,0,4.7,3.026,25.582,25.582,0,0,0,6.313-.156c2.3-.156,4.591-.261,6.887-.365,4.7-.156,9.391-.1,14.086,0,4.643.1,9.286.261,13.93.313,3.7.052,7.408.052,11.06-.209,6.782-.522,13.93-2.087,19.2-6.678a20.1,20.1,0,0,0,1.826-1.826c.626-.574-.209-1.409-.73-.835" transform="translate(-161.399 -210.434)"/>
    <path id="Path_99517" data-name="Path 99517" d="M372.64,383.505a48.862,48.862,0,0,0-8.713.887c-2.922.626-5.791,1.669-8.66,2.556a28.759,28.759,0,0,0-12.26,7.1,13.235,13.235,0,0,0-3.913,7.3c-.1.73,1.043,1.043,1.148.313.73-4.748,4.643-8.3,8.608-10.591a26.6,26.6,0,0,1,6.1-2.713c2.713-.835,5.478-1.774,8.243-2.5a38.309,38.309,0,0,1,9.443-1.1c.73-.052.73-1.252,0-1.252" transform="translate(-162.182 -183.427)"/>
    <path id="Path_99518" data-name="Path 99518" d="M476.686,359.313c-10.278,7.826-18.312,18.156-26.451,28.12q-3.365,4.148-6.887,8.139c-.522.574.313,1.409.835.835,8.452-9.547,15.912-20.034,25.042-29.007a79.786,79.786,0,0,1,8.087-7.043c.574-.47,0-1.461-.626-1.043" transform="translate(-211.97 -171.808)"/>
    <path id="Path_99519" data-name="Path 99519" d="M723.977,274.339a21.641,21.641,0,0,0-3.026-2.243c-.574-.47-1.2.574-.522.991,3.861,2.452,6.887,6,7.721,10.591" transform="translate(-344.433 -130.084)"/>
    <path id="Path_99520" data-name="Path 99520" d="M639.635,318.3a61.713,61.713,0,0,1-8.869,13.617c-3.808,4.748-8.034,9.234-12.208,13.669-8.973,9.443-18.051,18.782-27.025,28.224-8.66,9.078-17.373,18.1-25.668,27.546-6.417,7.252-13.147,15.13-22.642,18.26a22.667,22.667,0,0,1-3.7.939c-.73.157-.417,1.252.313,1.148A33.143,33.143,0,0,0,553.5,415.4a77.4,77.4,0,0,0,10.7-10.382c8.3-9.339,16.851-18.469,25.459-27.546,9.182-9.6,18.416-19.147,27.546-28.746,4.382-4.591,8.765-9.182,12.834-14.034a74.955,74.955,0,0,0,9.756-14.034" transform="translate(-257.848 -152.242)"/>
    <path id="Path_99521" data-name="Path 99521" d="M147.48,186.564a1.307,1.307,0,0,0-1.826,0l-9.5,8.556a1.291,1.291,0,1,0,1.826,1.826c3.182-2.869,6.313-5.687,9.5-8.556a1.307,1.307,0,0,0,0-1.826" transform="translate(-64.946 -89.054)"/>
    <path id="Path_99522" data-name="Path 99522" d="M239.877,276.147a1.049,1.049,0,0,0-1.3-.261c-.626.417-1.252.835-1.826,1.3a20.212,20.212,0,0,0-1.617,1.356c-1.1.887-2.191,1.826-3.235,2.713a1.087,1.087,0,0,0,0,1.565,1.19,1.19,0,0,0,1.565,0c1.1-.887,2.191-1.774,3.235-2.609.522-.417,1.1-.835,1.617-1.3s1.043-.939,1.565-1.461a1.023,1.023,0,0,0,0-1.3" transform="translate(-110.754 -131.892)"/>
    <path id="Path_99523" data-name="Path 99523" d="M152.46,204.938a1.048,1.048,0,0,0-1.3-.261c-.626.417-1.252.835-1.826,1.3a20.222,20.222,0,0,0-1.617,1.356c-1.1.887-2.191,1.826-3.235,2.713a1.087,1.087,0,0,0,0,1.565,1.19,1.19,0,0,0,1.565,0c1.1-.887,2.191-1.774,3.235-2.609.522-.417,1.1-.835,1.617-1.3s1.043-.939,1.565-1.461a1.022,1.022,0,0,0,0-1.3" transform="translate(-68.943 -97.833)"/>
    <path id="Path_99524" data-name="Path 99524" d="M160.885,250.164a1.048,1.048,0,0,0-1.3-.261c-.626.417-1.252.835-1.826,1.3a20.227,20.227,0,0,0-1.617,1.356c-1.1.887-2.191,1.826-3.235,2.713a1.087,1.087,0,0,0,0,1.565,1.19,1.19,0,0,0,1.565,0c1.1-.887,2.191-1.774,3.235-2.609.522-.417,1.1-.835,1.617-1.3s1.043-.939,1.565-1.461a1.022,1.022,0,0,0,0-1.3" transform="translate(-72.973 -119.464)"/>
    <path id="Path_99525" data-name="Path 99525" d="M167.092,259.475a1.049,1.049,0,0,0-1.3-.261c-.626.417-1.252.835-1.826,1.3a20.218,20.218,0,0,0-1.617,1.356c-1.1.887-2.191,1.826-3.235,2.713a1.087,1.087,0,0,0,0,1.565,1.19,1.19,0,0,0,1.565,0c1.1-.887,2.191-1.774,3.235-2.609.522-.417,1.1-.835,1.617-1.3s1.043-.939,1.565-1.461a1.023,1.023,0,0,0,0-1.3" transform="translate(-75.941 -123.918)"/>
    <path id="Path_99526" data-name="Path 99526" d="M241.61,287.471a3.083,3.083,0,0,0-.73.313c-.209.156-.417.261-.626.417-.417.261-.783.574-1.2.887-.783.574-1.565,1.2-2.348,1.774a.841.841,0,1,0,.835,1.461c.783-.574,1.617-1.2,2.4-1.774.417-.313.835-.626,1.252-.991.209-.157.365-.313.574-.47.209-.209.365-.417.574-.626.417-.47-.157-1.2-.73-.991" transform="translate(-113.009 -137.477)"/>
    <path id="Path_99527" data-name="Path 99527" d="M83.283,362.092h0l-.209-.209-.052-.052.052.052c0-.052-.052-.052-.052-.1-.052-.1-.1-.156-.157-.261,0-.052-.052-.052-.052-.1a2.941,2.941,0,0,1-.209-.626c0-.1-.052-.209-.052-.365v-.156a.391.391,0,0,0-.052-.261.882.882,0,0,0,.261.1c.1.052.261.1.365.157.052.052.157.052.209.1.052,0,.1.052.157.1s.1.1.157.1.209.209.1.1c-.157-.1.052.052.052.1.052.052.052.1.1.156.052.1.052.209.1.313v.47a.182.182,0,0,1-.052.1l-.052.052c-.052.052-.1.052-.1.1h-.417c-.052.1-.1.1-.1.1" transform="translate(-39.459 -172.187)" fill="#fff"/>
    <path id="Path_99528" data-name="Path 99528" d="M93.152,359.571a3.286,3.286,0,0,1-1.813,2.556c-1.188.783-2.5,1.461-3.751,2.243-2.938,1.774-5.939,3.6-8.877,5.374s-6,3.548-8.94,5.321a9.714,9.714,0,0,1-3.563,1.617,4.835,4.835,0,0,1-3.5-1.2c-1.563-1.3-3.126-3.391-3.251-5.269-.063-1.252,1.063-2.087,2.063-2.869,1.313-.939,2.626-1.93,4-2.869,5.5-3.808,11.253-7.408,17.191-10.747,1.063-.626,2.188-1.409,3.563-.991a9.454,9.454,0,0,1,2.938,1.565c1.75,1.356,3.813,3.13,3.938,5.269.063.783,1.5.783,1.5,0-.125-2.191-1.75-3.965-3.5-5.426-1.438-1.252-3.688-2.922-6-2.765-1.625.156-3.126,1.2-4.438,1.982-1.626.939-3.313,1.878-4.939,2.869-3.188,1.93-6.376,3.965-9.439,6.052-1.626,1.1-3.188,2.191-4.751,3.287a10.382,10.382,0,0,0-3.376,3.13c-1.063,2.087.626,4.643,2.063,6.313,1.563,1.878,4.126,3.5,7,2.661a18.4,18.4,0,0,0,4.126-2.139c1.688-.991,3.313-1.93,5-2.922,3.813-2.243,7.564-4.591,11.377-6.834,1.563-.939,3.251-1.774,4.689-2.817a4.084,4.084,0,0,0,2.063-3.339c.125-.835-1.375-.835-1.375-.052" transform="translate(-27.68 -168.057)" fill="#fff"/>
    <path id="Path_99529" data-name="Path 99529" d="M48.706,295.69a2.154,2.154,0,0,0,.417,3.13,2.372,2.372,0,0,0,1.617.574,1.908,1.908,0,0,0,1.513-.991,2.693,2.693,0,0,0-.522-3.078,2.01,2.01,0,0,0-1.565-.626,2.174,2.174,0,0,0-1.565.783,2.788,2.788,0,0,0-.1,3.7.59.59,0,1,0,.835-.835l-.1-.1c-.052-.1.052.052,0,.052l-.052-.052a.162.162,0,0,1-.052-.1.051.051,0,0,0-.052-.052c-.052-.052.052.1,0,0s-.052-.209-.1-.313v-.47c0-.052.052-.1.052-.209,0-.052.052-.1.052-.156,0,0,.052-.157.052-.1h0a.051.051,0,0,1,.052-.052c.052-.052.052-.1.1-.157a.112.112,0,0,1,.1-.1c.1-.1-.052.1,0-.052.052-.1.157-.157.209-.261.1-.1-.1.052,0,0,.052-.052.1-.052.1-.1a.192.192,0,0,1,.157-.052c.052-.052,0,.052-.052,0a.162.162,0,0,0,.1-.052c.052,0,.1-.052.157-.052h.417a.182.182,0,0,1,.1.052c.1,0-.1-.052,0,0,.052,0,.1.052.157.052l.052.052c.052.052-.052,0-.052-.052l.1.1.1.1.052.052v.052l-.052-.052c0,.052.1.157.157.261a.182.182,0,0,0,.052.1.051.051,0,0,0,.052.052c-.052-.1-.052-.052,0,0,.052.1.052.156.1.261a.192.192,0,0,0,.052.157v.313a.192.192,0,0,1-.052.156c0,.052,0,.1-.052.1v.052c-.052.1,0-.052,0-.052,0,.052-.1.261-.157.261l.052-.052-.052.052-.1.1.052-.052L51,298.09c-.052.052-.1.052-.157.1s0-.052.052,0h-.052a.192.192,0,0,0-.157.052h-.157a.192.192,0,0,1-.157-.052h-.052c-.1-.052.052,0,.052,0-.052-.052-.1-.052-.157-.1s-.1-.052-.157-.1l-.052-.052h0l-.261-.261-.052-.052h0c-.052-.052-.052-.1-.1-.156a.192.192,0,0,1-.052-.157h0c.052.1,0,0,0-.052s-.052-.1-.052-.157v-.052h0v-.417h0c.052-.052.052-.1.1-.156s0,.052,0,.052l.052-.1a.583.583,0,0,0,0-.835.766.766,0,0,0-.939.1" transform="translate(-22.882 -140.948)"/>
    <path id="Path_99530" data-name="Path 99530" d="M173.262,476.581a1.293,1.293,0,0,0-1.774,0c-1.043,1.356-2.087,2.661-3.078,4.017a1.438,1.438,0,0,0-.261,1.356c-.1.1-.157.209-.261.313a.928.928,0,0,0-.417.365,1.421,1.421,0,0,0-.313.626.967.967,0,0,0,1.774.73,16.464,16.464,0,0,1,1.148-1.513l.1-.1c1.043-1.356,2.087-2.661,3.078-4.017a1.293,1.293,0,0,0,0-1.774" transform="translate(-79.928 -227.775)"/>
    <path id="Path_99531" data-name="Path 99531" d="M184.17,464.79a1.03,1.03,0,0,0-1.2.156,3.655,3.655,0,0,0-.417.522c-.052.1-.157.261-.209.365l-.47.783c-.313.522-.626,1.043-.991,1.565a.916.916,0,0,0,.313,1.252.928.928,0,0,0,1.252-.313c.365-.522.73-.991,1.1-1.513a8.854,8.854,0,0,1,.522-.73,3.5,3.5,0,0,0,.574-.939,1.027,1.027,0,0,0-.47-1.148" transform="translate(-86.454 -222.245)"/>
    <path id="Path_99532" data-name="Path 99532" d="M194.469,451.883a1.122,1.122,0,0,0-.47-.626,1.1,1.1,0,0,0-.783-.261,1.5,1.5,0,0,0-.939.365,2.887,2.887,0,0,0-.313.417c-.1.156-.209.261-.313.417-.209.261-.365.522-.574.783-.365.522-.783,1.1-1.148,1.617a1.312,1.312,0,0,0-.157.991,1.474,1.474,0,0,0,.574.783,1.121,1.121,0,0,0,.991.1,1.706,1.706,0,0,0,.783-.574l1.148-1.565.574-.783.313-.417c.052-.052.1-.156.157-.209a1.229,1.229,0,0,0,.157-1.043" transform="translate(-90.753 -215.702)"/>
    <path id="Path_99533" data-name="Path 99533" d="M204.713,436.744a.83.83,0,0,0-.678-.156,2.7,2.7,0,0,0-1.2,1.1,7.162,7.162,0,0,1-.678,1.043c-.417.73-.835,1.409-1.252,2.139a.967.967,0,0,0,.313,1.252.916.916,0,0,0,1.252-.313c.47-.678.939-1.356,1.356-2.035.209-.365.417-.678.626-1.043.1-.156.157-.365.261-.522a1.843,1.843,0,0,0,.209-.887.521.521,0,0,0-.209-.574" transform="translate(-96.041 -208.806)"/>
    <path id="Path_99534" data-name="Path 99534" d="M187.748,477.914a1.022,1.022,0,0,0-1.3.052,20.445,20.445,0,0,0-2.035,3.026c-.626.991-1.2,1.983-1.826,2.974a.856.856,0,0,0,.313,1.2.981.981,0,0,0,1.252-.313c.678-.939,1.3-1.878,1.982-2.817.313-.47.626-.887.939-1.356a14.724,14.724,0,0,0,.939-1.513.924.924,0,0,0-.261-1.252" transform="translate(-87.267 -228.481)"/>
    <path id="Path_99535" data-name="Path 99535" d="M198.445,464.4a1.267,1.267,0,0,0-1.148.052,2.119,2.119,0,0,0-.73.783l-.626,1.1c-.47.783-.887,1.513-1.356,2.3a1.065,1.065,0,0,0,1.826,1.1c.47-.73.991-1.461,1.461-2.243.209-.365.47-.678.678-1.043.417-.574.626-1.617-.1-2.035" transform="translate(-93.008 -222.061)"/>
    <path id="Path_99536" data-name="Path 99536" d="M208.607,451.7a1.1,1.1,0,0,0-1.356-.73,1.46,1.46,0,0,0-.887.783c-.1.156-.157.313-.261.469-.209.365-.365.678-.574,1.043s-.365.678-.574,1.043a9.877,9.877,0,0,0-.47,1.1,1.2,1.2,0,0,0-.1.73.928.928,0,0,0,.417.574.992.992,0,0,0,1.3-.313c.261-.313.47-.626.73-.939.209-.313.417-.678.626-.991s.417-.678.626-.991l.313-.47c.052-.1.1-.156.157-.261a2.421,2.421,0,0,0,.052-1.043" transform="translate(-97.744 -215.674)"/>
    <path id="Path_99537" data-name="Path 99537" d="M216.859,439.59a1.3,1.3,0,0,0-.574-.73,1.18,1.18,0,0,0-1.617.417c-.522.835-1.043,1.722-1.513,2.556a1.074,1.074,0,0,0-.1.887,1.152,1.152,0,0,0,.522.678,1.192,1.192,0,0,0,1.617-.417c.522-.835,1.043-1.722,1.565-2.556a1.144,1.144,0,0,0,.1-.835" transform="translate(-101.874 -209.826)"/>
    <path id="Path_99538" data-name="Path 99538" d="M205.891,477.622a2.827,2.827,0,0,0-1.1,1.252c-.261.417-.522.783-.783,1.2-.47.783-.939,1.617-1.409,2.4a.9.9,0,0,0,.313,1.2.867.867,0,0,0,1.2-.313c.574-.73,1.148-1.513,1.669-2.243.261-.365.522-.783.783-1.148a3.343,3.343,0,0,0,.73-1.565c.052-.73-.835-1.043-1.409-.783" transform="translate(-96.854 -228.398)"/>
    <path id="Path_99539" data-name="Path 99539" d="M214.091,465.257a1.142,1.142,0,0,0-.47.522.4.4,0,0,0-.1.261c-.1.156-.157.365-.261.522l-.47.939c-.313.678-.678,1.3-.991,1.982a.958.958,0,0,0,1.669.939l1.1-1.878c.157-.313.365-.626.522-.939.1-.157.157-.313.261-.47a2.935,2.935,0,0,0,.365-.939,1.076,1.076,0,0,0-1.617-.939" transform="translate(-101.245 -222.45)"/>
    <path id="Path_99540" data-name="Path 99540" d="M224.435,450.624a.847.847,0,0,0-.47-.261,1.12,1.12,0,0,0-1.252.522c-.73,1.356-1.409,2.661-2.139,4.017a1.023,1.023,0,0,0,.365,1.409,1.1,1.1,0,0,0,1.461-.365c.73-1.3,1.461-2.661,2.243-3.965a1.281,1.281,0,0,0-.209-1.357" transform="translate(-105.433 -215.382)"/>
    <path id="Path_99541" data-name="Path 99541" d="M231.469,440.384a1.119,1.119,0,0,0-1.3.209,1.736,1.736,0,0,0-.313.522c-.1.209-.261.417-.365.678-.157.261-.261.47-.417.73a2.271,2.271,0,0,0-.209.365,2.181,2.181,0,0,0-.209.522.47.47,0,0,1-.052.261.888.888,0,0,0,.052.365.928.928,0,0,0,.365.417,1.523,1.523,0,0,0,.47.1.864.864,0,0,0,.626-.261l.156-.156a1.585,1.585,0,0,0,.261-.365c.052-.052.1-.1.1-.157l.052-.052a4.768,4.768,0,0,0,.417-.678c.156-.209.261-.417.417-.626a4.586,4.586,0,0,0,.313-.522,1.064,1.064,0,0,0-.365-1.356" transform="translate(-109.337 -210.568)"/>
    <path id="Path_99542" data-name="Path 99542" d="M221.491,482.079a1.023,1.023,0,0,0-1.409.365c-.626,1.2-1.252,2.4-1.878,3.548a.913.913,0,0,0,1.565.939c.678-1.148,1.409-2.3,2.087-3.443a1.043,1.043,0,0,0-.365-1.409" transform="translate(-104.315 -230.508)"/>
    <path id="Path_99543" data-name="Path 99543" d="M232.415,453.155a11.017,11.017,0,0,0-1.1,1.617c-.261.47-.522.939-.835,1.409-.574.991-1.148,1.93-1.722,2.922-1.148,1.982-2.191,4.017-3.287,6.052a1.03,1.03,0,0,0,1.774,1.043c1.252-1.93,2.556-3.809,3.756-5.791.574-.939,1.2-1.93,1.774-2.869.261-.469.574-.939.835-1.409a7.923,7.923,0,0,0,.939-1.722,1.281,1.281,0,0,0-2.139-1.252" transform="translate(-107.779 -216.557)"/>
    <path id="Path_99544" data-name="Path 99544" d="M246.569,441.669a1.27,1.27,0,0,0-1.409.157,3.6,3.6,0,0,0-.678,1.043c-.157.261-.313.574-.47.835l-.939,1.722a1.023,1.023,0,0,0,.365,1.409,1.152,1.152,0,0,0,1.461-.365c.365-.574.73-1.1,1.1-1.669.157-.261.365-.522.522-.783a5.527,5.527,0,0,0,.574-1.1,1.163,1.163,0,0,0-.522-1.252" transform="translate(-116.194 -211.175)"/>
    <path id="Path_99545" data-name="Path 99545" d="M623.49,337.528a74.7,74.7,0,0,0-5.687,7.826c-1.043,1.669-3.391,4.852-1.1,6.521.626.47,1.2-.574.574-.991-.783-.574-.209-1.93.1-2.609.574-1.148,1.356-2.243,2.035-3.339a76.31,76.31,0,0,1,4.852-6.574c.522-.574-.313-1.409-.783-.835" transform="translate(-294.499 -161.344)"/>
    <path id="Path_99546" data-name="Path 99546" d="M379.385,445.614c-.157-2.556-.365-5.061-.522-7.617-.156-2.035-.313-4.33-1.878-5.9a3.708,3.708,0,0,0-4.852-.678c-1.826,1.356-1.826,3.756-1.617,5.791.1.73,1.252.73,1.148,0-.209-1.669-.365-3.913,1.252-4.956,1.461-.991,3.235.313,3.913,1.617.835,1.669.783,3.652.939,5.478.156,2.087.261,4.121.417,6.208.052.783,1.252.783,1.2.052" transform="translate(-177.17 -206.042)"/>
    <path id="Path_99547" data-name="Path 99547" d="M350.022,456.208c-2.139-1.148-4.33-2.556-6.73-3.026a5.459,5.459,0,0,0-5.582,2.035c-.678.887-1.252,1.878-1.878,2.765-.678.991-1.461,1.878-2.243,2.817-1.252,1.461-2.765,2.869-3.026,4.852a3.766,3.766,0,0,0,2.556,4.226c.73.261,1.043-.887.313-1.148a2.685,2.685,0,0,1-1.722-3.182c.365-1.669,1.826-2.974,2.869-4.226a49.768,49.768,0,0,0,3.5-4.7c1.148-1.669,2.661-2.765,4.8-2.4,2.348.417,4.487,1.878,6.521,2.974.73.365,1.3-.626.626-.991" transform="translate(-158.085 -216.688)"/>
    <path id="Path_99548" data-name="Path 99548" d="M352.464,469.257c-1.93-2.556-6-6.313-9.286-3.809a35.2,35.2,0,0,0-4.435,4.382c-1.252,1.409-2.348,3.391-4.121,4.226-.678.313-.1,1.356.574.991,1.565-.73,2.5-2.243,3.548-3.5,1.252-1.461,2.556-2.869,3.965-4.226a6.3,6.3,0,0,1,2.139-1.565,3.493,3.493,0,0,1,2.661.574,11.823,11.823,0,0,1,3.913,3.443c.47.678,1.513.1,1.043-.522" transform="translate(-159.901 -222.225)"/>
    <path id="Path_99549" data-name="Path 99549" d="M350.24,482.022c-.991-.574-2.035-1.1-3.026-1.669a9.276,9.276,0,0,0-2.765-1.2c-1.93-.365-3.13,1.1-4.121,2.556-.626.887-1.3,1.722-1.983,2.556a7.957,7.957,0,0,1-2.3,2.087c-.939.417-1.826-.365-2.139-1.252a2.743,2.743,0,0,1,.365-2.452c.47-.574-.365-1.409-.835-.835a3.856,3.856,0,0,0,.1,4.9,2.646,2.646,0,0,0,2.5.835,5.793,5.793,0,0,0,2.609-1.878,29.336,29.336,0,0,0,2.3-2.765,9.281,9.281,0,0,1,1.93-2.348c1.1-.73,2.348,0,3.339.574l3.443,1.878c.626.417,1.252-.626.574-.991" transform="translate(-159.085 -229.147)"/>
    <path id="Path_99550" data-name="Path 99550" d="M417.185,401.25c-4.278,2.087-9.078,2.5-13.721,2.556-2.4.052-4.852-.052-7.252,0a60.925,60.925,0,0,0-7.565.783,35.026,35.026,0,0,0-6.887,1.722,28.286,28.286,0,0,0-5.374,2.974c-1.669,1.148-3.287,2.452-4.956,3.652-.835.626-1.722,1.2-2.609,1.774-.417.261-.835.522-1.3.783a7.316,7.316,0,0,1-1.565.783c-1.252.261-1.513-1.565-1.513-2.4a6.1,6.1,0,0,1,1.1-3.391,10.817,10.817,0,0,1,6.208-4.121.6.6,0,0,0-.313-1.148,12.718,12.718,0,0,0-6,3.5,7.678,7.678,0,0,0-2.087,6.052,3.373,3.373,0,0,0,1.3,2.4c.991.626,2.035.157,2.974-.313a44.43,44.43,0,0,0,5.53-3.7c3.652-2.765,7.252-5.478,11.738-6.574a56.923,56.923,0,0,1,8.347-1.409c2.661-.261,5.374-.209,8.034-.209,5.582.052,11.373-.209,16.538-2.713.678-.313.052-1.3-.626-.991" transform="translate(-173.755 -191.885)"/>
    <path id="Path_99551" data-name="Path 99551" d="M347.748,411.556a45.429,45.429,0,0,1-14.451,9.286c-2.035.835-6.1,2.661-7.408-.157-.626-1.356.574-2.139,1.669-2.661l4.382-2.191,10.017-5.008c.678-.313.1-1.356-.574-.991-3.391,1.669-6.782,3.391-10.121,5.061-1.617.783-3.235,1.565-4.8,2.4a3.048,3.048,0,0,0-1.878,2.922,3.647,3.647,0,0,0,2.139,2.765,6.484,6.484,0,0,0,4.539-.157,45.777,45.777,0,0,0,17.373-10.486c.47-.47-.313-1.3-.887-.783" transform="translate(-155.237 -195.983)"/>
    <path id="Path_99552" data-name="Path 99552" d="M67.186,385.993a.553.553,0,0,1-.02-.176.657.657,0,0,1,.033-.183.454.454,0,0,1,.089-.156.285.285,0,0,1,.152-.088,4.515,4.515,0,0,1,.385-.455,2.73,2.73,0,0,1,.447-.374,2.158,2.158,0,0,1,.513-.253,1.663,1.663,0,0,1,.586-.081,1.514,1.514,0,0,1,.493.094,2.1,2.1,0,0,1,.45.225,1.79,1.79,0,0,1,.79,1.336,1.9,1.9,0,0,1-.1.77,1.939,1.939,0,0,1-.424.707,2.247,2.247,0,0,1-.5.408,6.047,6.047,0,0,1-.568.3l.379.62c.029.047.061.094.1.143a1.516,1.516,0,0,1,.1.151,1.07,1.07,0,0,1,.073.162.467.467,0,0,1,.023.175.368.368,0,0,1-.1.278.459.459,0,0,1-.241.13.514.514,0,0,1-.278-.024.429.429,0,0,1-.227-.19l-.7-1.15a.522.522,0,0,1-.277-.051.394.394,0,0,1-.17-.163.462.462,0,0,1-.052-.228.529.529,0,0,1,.07-.245l-1-1.637Zm2.033-.857a1.175,1.175,0,0,0-.586.271,2.4,2.4,0,0,0-.439.5l.852,1.393a2.875,2.875,0,0,0,.63-.35,1.467,1.467,0,0,0,.458-.544.743.743,0,0,0,.068-.464.963.963,0,0,0-.179-.408,1,1,0,0,0-.353-.29.964.964,0,0,0-.451-.106" transform="translate(-32.124 -183.77)" fill="#fff"/>
    <path id="Path_99553" data-name="Path 99553" d="M77.827,383.226a.485.485,0,0,1,.238-.062.567.567,0,0,1,.221.045.42.42,0,0,1,.172.136.436.436,0,0,1,.081.227.426.426,0,0,1-.016.154.3.3,0,0,1-.067.142,4.509,4.509,0,0,1-.749.665,5.836,5.836,0,0,1-.863.506c-.086.041-.18.087-.281.136a.636.636,0,0,1-.3.072.48.48,0,0,1-.421-.244l-1.665-2.723a.495.495,0,0,1-.347-.187.4.4,0,0,1-.079-.18.369.369,0,0,1,.025-.2.8.8,0,0,1,.21-.317q.144-.136.289-.26a5.174,5.174,0,0,1,.633-.458q.333-.2.674-.42a2.516,2.516,0,0,0,.227-.161.58.58,0,0,1,.25-.122.472.472,0,0,1,.278.023.5.5,0,0,1,.208.154.416.416,0,0,1,.088.236.429.429,0,0,1-.09.275.984.984,0,0,1-.308.267c-.124.07-.241.138-.352.207q-.243.149-.483.3a5.634,5.634,0,0,0-.462.335l.544.889a5.016,5.016,0,0,0,.461-.282c.148-.1.294-.207.441-.314q.1-.069.192-.145a1.059,1.059,0,0,1,.211-.129.377.377,0,0,1,.288-.018.494.494,0,0,1,.223.158.454.454,0,0,1,.1.259.4.4,0,0,1-.083.28,1.36,1.36,0,0,1-.253.247q-.171.135-.37.27c-.133.09-.265.175-.4.256s-.244.146-.337.2l.481.787a3.841,3.841,0,0,0,.717-.422,5.033,5.033,0,0,0,.629-.551Z" transform="translate(-35.27 -181.731)" fill="#fff"/>
    <path id="Path_99554" data-name="Path 99554" d="M82.445,375.729a.561.561,0,0,1-.005-.287.487.487,0,0,1,.123-.224.411.411,0,0,1,.216-.115.441.441,0,0,1,.276.043.475.475,0,0,1,.095.047.22.22,0,0,1,.073.068q.572.908,1.107,1.831t1.042,1.87a.345.345,0,0,1,.049.287.508.508,0,0,1-.147.234.5.5,0,0,1-.254.121.383.383,0,0,1-.28-.054.023.023,0,0,1-.014-.008l.008.013q-.833-.43-1.679-.778t-1.724-.664l.884,1.445.3.492c.081.132.145.241.191.327s.081.154.1.205a.671.671,0,0,1,.045.139.392.392,0,0,1-.051.312.455.455,0,0,1-.224.172.449.449,0,0,1-.535-.2l-.171-.281c-.079-.127-.167-.272-.267-.435l-.319-.521-.334-.547q-.164-.268-.311-.5c-.1-.154-.178-.285-.243-.391-.089-.145-.178-.288-.27-.428s-.18-.284-.264-.431a.376.376,0,0,1-.059-.219.442.442,0,0,1,.065-.2.571.571,0,0,1,.15-.157.558.558,0,0,1,.2-.088.489.489,0,0,1,.222.01c.086.02.173.046.262.076s.174.064.257.1.151.062.2.081l.671.235c.254.088.489.173.71.256s.442.175.658.264.429.183.639.278q-.337-.594-.682-1.173t-.7-1.161Z" transform="translate(-38.17 -179.404)" fill="#fff"/>
    <path id="Path_99555" data-name="Path 99555" d="M90.428,377.238a.619.619,0,0,1-.379.02.485.485,0,0,1-.3-.228L88.1,374.339a.455.455,0,0,1-.242.108.517.517,0,0,1-.251-.022.392.392,0,0,1-.186-.14.319.319,0,0,1-.056-.242.912.912,0,0,1,.087-.3,1.523,1.523,0,0,1,.169-.27,2.537,2.537,0,0,1,.217-.242q.118-.115.23-.22a3.56,3.56,0,0,1,.7-.466,2.7,2.7,0,0,1,.774-.258,2.4,2.4,0,0,1,.8,0,2.063,2.063,0,0,1,.784.311,2.147,2.147,0,0,1,.415.348,3.3,3.3,0,0,1,.331.426,2.411,2.411,0,0,1,.285.625,2.32,2.32,0,0,1-.011,1.333,2.448,2.448,0,0,1-.29.617,2.616,2.616,0,0,1-.4.466c-.157.142-.312.279-.466.409l-.246.207a2.069,2.069,0,0,1-.264.193Zm-1.386-3.817c-.055.033-.106.068-.152.1s-.1.073-.146.115l1.568,2.564a.3.3,0,0,0,.06-.045.275.275,0,0,1,.047-.038.158.158,0,0,0,.041-.034c.054-.045.1-.081.135-.109s.069-.055.1-.082.061-.056.092-.087.066-.067.1-.109a1.35,1.35,0,0,0,.372-1.431,1.422,1.422,0,0,0-.2-.467,1.531,1.531,0,0,0-.334-.367,1.388,1.388,0,0,0-.435-.23,1.2,1.2,0,0,0-.5-.048,1.465,1.465,0,0,0-.392.1q-.178.074-.359.167" transform="translate(-41.784 -178.042)" fill="#fff"/>
    <path id="Path_99556" data-name="Path 99556" d="M98.385,371.184a.511.511,0,0,1,.335-.069.493.493,0,0,1,.272.128.4.4,0,0,1,.028.562,1.131,1.131,0,0,1-.237.224c-.1.073-.2.139-.307.2s-.206.116-.3.165-.163.087-.21.115l-.377.231a.425.425,0,0,1-.275.067.483.483,0,0,1-.245-.092.438.438,0,0,1-.152-.206.472.472,0,0,1-.01-.283.428.428,0,0,1,.174-.247,1.928,1.928,0,0,1,.294-.179l-1.548-2.532c-.1.06-.19.115-.277.165a.54.54,0,0,1-.312.064.4.4,0,0,1-.227-.085.376.376,0,0,1-.123-.179.542.542,0,0,1-.021-.229.435.435,0,0,1,.086-.219.53.53,0,0,1,.162-.152q.326-.2.653-.4c.219-.136.44-.271.664-.4a.126.126,0,0,1,.073-.018.344.344,0,0,0,.08-.005.494.494,0,0,1,.343.115.4.4,0,0,1,.145.324.386.386,0,0,1-.04.187.506.506,0,0,1-.112.147.931.931,0,0,1-.153.116l-.16.1,1.556,2.544c.034-.021.064-.041.091-.059l.087-.067Z" transform="translate(-45.372 -175.918)" fill="#fff"/>
    <path id="Path_99557" data-name="Path 99557" d="M102.438,363.5a.561.561,0,0,1,0-.287.484.484,0,0,1,.122-.224.407.407,0,0,1,.215-.114.442.442,0,0,1,.276.042.486.486,0,0,1,.095.047.217.217,0,0,1,.073.069q.572.907,1.107,1.831t1.043,1.87a.345.345,0,0,1,.048.287.509.509,0,0,1-.147.234.5.5,0,0,1-.255.122.385.385,0,0,1-.279-.054.023.023,0,0,1-.014-.008l.008.013q-.834-.43-1.679-.778t-1.723-.664l.884,1.446.3.491c.081.133.144.242.19.327s.081.154.1.205a.65.65,0,0,1,.045.139.39.39,0,0,1-.051.312.451.451,0,0,1-.224.172.448.448,0,0,1-.535-.2l-.172-.281-.266-.435-.319-.521-.334-.547q-.164-.268-.31-.5c-.1-.154-.178-.285-.244-.391-.089-.145-.179-.287-.27-.427s-.179-.284-.264-.431a.371.371,0,0,1-.059-.219.438.438,0,0,1,.065-.2.558.558,0,0,1,.15-.158.542.542,0,0,1,.2-.088.485.485,0,0,1,.221.009c.086.021.173.047.262.077s.175.064.257.1l.2.082.671.235q.38.132.71.256c.223.087.442.175.658.265s.429.183.64.277q-.337-.593-.682-1.173t-.7-1.161Z" transform="translate(-47.733 -173.556)" fill="#fff"/>
    <path id="Path_99558" data-name="Path 99558" d="M112.138,360.336a.611.611,0,0,1,.294-.009.489.489,0,0,1,.236.12.382.382,0,0,1,.116.219.475.475,0,0,1-.061.3.536.536,0,0,0,.089.161c.061.089.128.193.2.31s.146.24.211.367a1.049,1.049,0,0,1,.117.32.745.745,0,0,1-.019.214,1.921,1.921,0,0,1-.06.2,2.129,2.129,0,0,1-.319.612,2.152,2.152,0,0,1-.473.461,2,2,0,0,1-.6.288,2.3,2.3,0,0,1-.7.091,2.236,2.236,0,0,1-.892-.2,2.662,2.662,0,0,1-1.151-.978,2.617,2.617,0,0,1-.279-.549,2.36,2.36,0,0,1-.137-.6,2.1,2.1,0,0,1,.269-1.263,5.136,5.136,0,0,1,.39-.591,2.731,2.731,0,0,1,.365-.407,2.206,2.206,0,0,1,.447-.318,3.009,3.009,0,0,1,.424-.176.987.987,0,0,1,.459-.047.566.566,0,0,1,.2.068.5.5,0,0,1,.161.134.406.406,0,0,1,.079.18.445.445,0,0,1-.158.4.682.682,0,0,1-.2.1,1.607,1.607,0,0,1-.23.056c-.079.014-.152.028-.218.046a.455.455,0,0,0-.164.069,1.521,1.521,0,0,0-.147.112,5.06,5.06,0,0,0-.355.432,2.5,2.5,0,0,0-.28.483,1.658,1.658,0,0,0-.134.521,1.137,1.137,0,0,0,.1.556,1.866,1.866,0,0,0,.428.629,1.526,1.526,0,0,0,.653.378,1.406,1.406,0,0,0,.5.05,1.291,1.291,0,0,0,.478-.13,1.236,1.236,0,0,0,.388-.3,1.039,1.039,0,0,0,.227-.447l-.422-.691c-.083.056-.166.118-.252.185s-.173.129-.263.187a1.587,1.587,0,0,1-.28.145.913.913,0,0,1-.3.065.4.4,0,0,1-.254-.077.446.446,0,0,1-.151-.2.514.514,0,0,1-.03-.25.41.41,0,0,1,.117-.239.969.969,0,0,1,.134-.1c.056-.038.113-.074.171-.109s.111-.066.159-.093.085-.047.11-.063c.166-.1.33-.205.491-.309s.328-.209.5-.313" transform="translate(-51.993 -171.636)" fill="#fff"/>
  </g>
</svg>
