<svg xmlns="http://www.w3.org/2000/svg" width="184.563" height="162.279" viewBox="0 0 184.563 162.279">
  <g id="Activity" transform="translate(-16.643 -55)">
    <g id="freepik--background-complete--inject-16" transform="translate(0 55)">
      <rect id="Rectangle_7095" data-name="Rectangle 7095" width="183.289" height="0.109" transform="translate(16.643 142.608)" fill="#ebebeb"/>
      <rect id="Rectangle_7096" data-name="Rectangle 7096" width="11.09" height="0.109" transform="translate(126.409 145.574)" fill="#ebebeb"/>
      <rect id="Rectangle_7097" data-name="Rectangle 7097" width="26.278" height="0.109" transform="translate(172.101 147.931)" fill="#ebebeb"/>
      <rect id="Rectangle_7098" data-name="Rectangle 7098" width="27.15" height="0.109" transform="translate(96.899 145.627)" fill="#ebebeb"/>
      <rect id="Rectangle_7099" data-name="Rectangle 7099" width="5.68" height="0.109" transform="translate(73.613 148.885)" fill="#ebebeb"/>
      <rect id="Rectangle_7100" data-name="Rectangle 7100" width="25.865" height="0.109" transform="translate(84.811 148.885)" fill="#ebebeb"/>
      <rect id="Rectangle_7101" data-name="Rectangle 7101" width="16.748" height="0.109" transform="translate(22.85 147.047)" fill="#ebebeb"/>
      <path id="Path_91041" data-name="Path 91041" d="M124.8,178.181H40.693a2.487,2.487,0,0,1-2.483-2.487V57.465A2.487,2.487,0,0,1,40.693,55H124.8a2.487,2.487,0,0,1,2.487,2.487V175.694a2.487,2.487,0,0,1-2.487,2.487ZM40.693,55.087a2.378,2.378,0,0,0-2.374,2.378V175.694a2.378,2.378,0,0,0,2.374,2.378H124.8a2.383,2.383,0,0,0,2.378-2.378V57.465a2.383,2.383,0,0,0-2.378-2.378Z" transform="translate(-21.567 -55)" fill="#ebebeb"/>
      <path id="Path_91042" data-name="Path 91042" d="M341.1,178.181H256.99a2.491,2.491,0,0,1-2.487-2.487V57.465A2.491,2.491,0,0,1,256.987,55H341.1a2.487,2.487,0,0,1,2.478,2.465V175.694a2.487,2.487,0,0,1-2.478,2.487ZM256.987,55.087a2.383,2.383,0,0,0-2.378,2.378V175.694a2.383,2.383,0,0,0,2.378,2.378H341.1a2.383,2.383,0,0,0,2.378-2.378V57.465a2.383,2.383,0,0,0-2.378-2.378Z" transform="translate(-143.646 -55)" fill="#ebebeb"/>
      <path id="Path_91043" data-name="Path 91043" d="M100.73,256.57s-.192,5.662-7.675,5.662-7.675-5.662-7.675-5.662Z" transform="translate(-48.19 -168.771)" fill="#f0f0f0"/>
      <path id="Path_91044" data-name="Path 91044" d="M142.38,256.57s-.2,5.662-7.675,5.662-7.675-5.662-7.675-5.662Z" transform="translate(-71.699 -168.771)" fill="#f0f0f0"/>
      <rect id="Rectangle_7102" data-name="Rectangle 7102" width="17.175" height="41.55" transform="translate(31.074 97.199)" fill="#f0f0f0"/>
      <rect id="Rectangle_7103" data-name="Rectangle 7103" width="55.54" height="3.859" transform="translate(34.371 138.749)" fill="#f0f0f0"/>
      <rect id="Rectangle_7104" data-name="Rectangle 7104" width="44.96" height="41.55" transform="translate(93.209 138.753) rotate(180)" fill="#f5f5f5"/>
      <rect id="Rectangle_7105" data-name="Rectangle 7105" width="31.453" height="12.784" transform="translate(86.458 115.04) rotate(180)" fill="#f0f0f0"/>
      <rect id="Rectangle_7106" data-name="Rectangle 7106" width="31.453" height="12.784" transform="translate(86.458 131.466) rotate(180)" fill="#f0f0f0"/>
      <rect id="Rectangle_7107" data-name="Rectangle 7107" width="47.247" height="3.724" transform="translate(48.249 93.475)" fill="#f0f0f0"/>
      <rect id="Rectangle_7108" data-name="Rectangle 7108" width="19.575" height="3.724" transform="translate(48.249 97.203) rotate(180)" fill="#e6e6e6"/>
      <rect id="Rectangle_7109" data-name="Rectangle 7109" width="87.529" height="62.836" transform="translate(83.261 9.13)" fill="#fafafa"/>
      <path id="Path_91045" data-name="Path 91045" d="M202.58,138.8l22.267-62.84h16.709L219.289,138.8Z" transform="translate(-114.341 -66.83)" fill="#fff"/>
      <path id="Path_91046" data-name="Path 91046" d="M305.73,138.8l22.262-62.84h6.094L311.824,138.8Z" transform="translate(-172.561 -66.83)" fill="#fff"/>
      <path id="Path_91047" data-name="Path 91047" d="M276.937,71H181.062a.392.392,0,0,0-.392.388h0a.392.392,0,0,0,.392.392h95.875a.392.392,0,0,0,.392-.392h0a.392.392,0,0,0-.392-.388Z" transform="translate(-101.974 -64.031)" fill="#e0e0e0"/>
      <rect id="Rectangle_7110" data-name="Rectangle 7110" width="1.037" height="63.106" transform="translate(127.546 72.101) rotate(180)" fill="#f0f0f0"/>
      <rect id="Rectangle_7111" data-name="Rectangle 7111" width="0.518" height="63.106" transform="translate(128.06 72.101) rotate(180)" fill="#e0e0e0"/>
      <rect id="Rectangle_7112" data-name="Rectangle 7112" width="1.037" height="88.74" transform="translate(82.655 41.071) rotate(-90)" fill="#f0f0f0"/>
      <path id="Path_91048" data-name="Path 91048" d="M278.5,137.581h0V74.57H189.76v63.011h0v1.037H278.5Zm-87.7,0V75.628h86.68V137.58Z" transform="translate(-107.105 -66.046)" fill="#f0f0f0"/>
      <rect id="Rectangle_7113" data-name="Rectangle 7113" width="0.518" height="64.047" transform="translate(171.914 72.572) rotate(180)" fill="#e0e0e0"/>
      <path id="Path_91049" data-name="Path 91049" d="M363.95,68.82v73.791h18.734L379.247,68.82Z" transform="translate(-205.422 -62.8)" fill="#ebebeb" opacity="0.5"/>
      <path id="Path_91050" data-name="Path 91050" d="M196.214,68.82v73.791H177.48l3.437-73.791Z" transform="translate(-100.174 -62.8)" fill="#ebebeb" opacity="0.5"/>
      <rect id="Rectangle_7114" data-name="Rectangle 7114" width="91.977" height="15.162" transform="translate(107.975 89.585)" fill="#ebebeb"/>
      <rect id="Rectangle_7115" data-name="Rectangle 7115" width="33.836" height="13.359" transform="translate(165.005 90.487)" fill="#f5f5f5"/>
      <rect id="Rectangle_7116" data-name="Rectangle 7116" width="33.836" height="13.359" transform="translate(129.968 90.487)" fill="#f5f5f5"/>
      <path id="Path_91051" data-name="Path 91051" d="M288.11,333.34h-2.03l4.343-37.86h2.03Z" transform="translate(-161.47 -190.732)" fill="#f5f5f5"/>
      <path id="Path_91052" data-name="Path 91052" d="M247.034,333.34H245l4.343-37.86h2.034Z" transform="translate(-138.284 -190.732)" fill="#f5f5f5"/>
      <path id="Path_91053" data-name="Path 91053" d="M410.563,333.34H412.6l-4.343-37.86H406.22Z" transform="translate(-229.28 -190.732)" fill="#f5f5f5"/>
      <path id="Path_91054" data-name="Path 91054" d="M451.633,333.34h2.034l-4.343-37.86H447.29Z" transform="translate(-252.461 -190.732)" fill="#f5f5f5"/>
      <path id="Path_91055" data-name="Path 91055" d="M336.715,222.33H329.6l-2.962,16.7h7.113Z" transform="translate(-184.363 -149.445)" fill="#e0e0e0"/>
      <path id="Path_91056" data-name="Path 91056" d="M334.541,189H294.76l1.211,24.2h39.781Z" transform="translate(-166.369 -130.633)" fill="#e6e6e6"/>
      <path id="Path_91057" data-name="Path 91057" d="M334.885,190.32h-37.9l1.154,23.051h37.9Z" transform="translate(-167.628 -131.378)" fill="#fafafa"/>
      <rect id="Rectangle_7117" data-name="Rectangle 7117" width="1.398" height="0.645" rx="0.322" transform="translate(179.297 87.564) rotate(180)" fill="#e0e0e0"/>
      <path id="Path_91058" data-name="Path 91058" d="M430.4,189.425l-8.624,8.624a6.1,6.1,0,0,1,8.624-8.624Z" transform="translate(-237.051 -129.865)" fill="#e6e6e6"/>
      <path id="Path_91059" data-name="Path 91059" d="M415.221,187.19l3.363,3.363,4.356-4.356-3.363-3.358a3.075,3.075,0,0,0-4.356,0h0a3.075,3.075,0,0,0,0,4.351Z" transform="translate(-233.851 -126.645)" fill="#e6e6e6"/>
      <rect id="Rectangle_7118" data-name="Rectangle 7118" width="0.727" height="20.298" transform="translate(167.02 70.491) rotate(-135)" fill="#e6e6e6"/>
      <rect id="Rectangle_7119" data-name="Rectangle 7119" width="0.727" height="20.298" transform="translate(177.366 87.578) rotate(149.331)" fill="#e6e6e6"/>
      <circle id="Ellipse_17" data-name="Ellipse 17" cx="1.254" cy="1.254" r="1.254" transform="translate(180.116 54.957)" fill="#e6e6e6"/>
      <circle id="Ellipse_18" data-name="Ellipse 18" cx="0.801" cy="0.801" r="0.801" transform="translate(165.946 69.448)" fill="#e6e6e6"/>
      <path id="Path_91060" data-name="Path 91060" d="M398.652,255.28h5.911l.466,2.348H398.19Z" transform="translate(-224.747 -168.043)" fill="#e6e6e6"/>
    </g>
    <g id="freepik--Shadow--inject-16" transform="translate(24.44 207.417)">
      <ellipse id="freepik--path--inject-16" cx="84.454" cy="4.931" rx="84.454" ry="4.931" transform="translate(0 0)" fill="#f5f5f5"/>
    </g>
    <g id="freepik--Board--inject-16" transform="translate(38.699 71.19)">
      <path id="Path_91061" data-name="Path 91061" d="M199.967,161.979H96.06a5.392,5.392,0,0,1-5.349-5.227L89.348,97.9a5.1,5.1,0,0,1,5.1-5.227H198.36a5.392,5.392,0,0,1,5.349,5.227l1.35,58.855a5.1,5.1,0,0,1-5.092,5.227Z" transform="translate(-89.128 -92.452)" fill="#407bff"/>
      <path id="Path_91062" data-name="Path 91062" d="M199.685,161.915H95.778a5.6,5.6,0,0,1-5.558-5.436l-1.372-58.86A5.31,5.31,0,0,1,94.17,92.17H198.077a5.6,5.6,0,0,1,5.567,5.44l1.363,58.855a5.31,5.31,0,0,1-5.323,5.449ZM94.17,92.606a4.874,4.874,0,0,0-4.887,5l1.372,58.855a5.162,5.162,0,0,0,5.131,5.013h103.9a4.878,4.878,0,0,0,4.887-5l-1.363-58.86a5.162,5.162,0,0,0-5.131-5.013Z" transform="translate(-88.846 -92.17)" fill="#407bff"/>
      <path id="Path_91063" data-name="Path 91063" d="M201.967,161.979H98.06a5.392,5.392,0,0,1-5.349-5.227L91.348,97.9a5.1,5.1,0,0,1,5.1-5.227H200.36a5.392,5.392,0,0,1,5.349,5.227l1.35,58.855a5.1,5.1,0,0,1-5.092,5.227Z" transform="translate(-90.257 -92.452)" fill="#f5f5f5"/>
      <path id="Path_91064" data-name="Path 91064" d="M201.685,161.915H97.778a5.6,5.6,0,0,1-5.558-5.436l-1.372-58.86A5.31,5.31,0,0,1,96.17,92.17H200.077a5.6,5.6,0,0,1,5.567,5.44l1.363,58.855a5.31,5.31,0,0,1-5.323,5.449ZM96.17,92.606a4.874,4.874,0,0,0-4.887,5l1.372,58.855a5.162,5.162,0,0,0,5.131,5.013h103.9a4.878,4.878,0,0,0,4.887-5l-1.363-58.86a5.162,5.162,0,0,0-5.131-5.013Z" transform="translate(-89.975 -92.17)" fill="#407bff"/>
      <path id="Path_91065" data-name="Path 91065" d="M129.126,118.526l-7.026-6.534c3.323-3.589,9.23-3.589,13.067,0a10.2,10.2,0,0,1,2.7,4.147Z" transform="translate(-107.615 -101.839)" fill="#e0e0e0"/>
      <path id="Path_91066" data-name="Path 91066" d="M122.86,122.332l-9.147.806a9.1,9.1,0,0,1,.226-3.972,8.433,8.433,0,0,1,1.9-3.376Z" transform="translate(-102.813 -105.502)" fill="#407bff" opacity="0.2"/>
      <path id="Path_91067" data-name="Path 91067" d="M128.324,132l-5.07,5.48a8.615,8.615,0,0,1-1.7-2.2,8.15,8.15,0,0,1-.871-2.613Z" transform="translate(-106.814 -114.651)" fill="#fff"/>
      <path id="Path_91068" data-name="Path 91068" d="M131.52,130.606l8.759-2.4a8.868,8.868,0,0,1-1.742,8.938c-3.323,3.589-9.23,3.589-13.067,0Z" transform="translate(-109.517 -112.512)" fill="#407bff" opacity="0.6"/>
      <path id="Path_91069" data-name="Path 91069" d="M184.376,118.526l-7.026-6.534c3.323-3.589,9.23-3.589,13.067,0a10.214,10.214,0,0,1,2.7,4.147Z" transform="translate(-138.8 -101.839)" fill="#407bff" opacity="0.2"/>
      <path id="Path_91070" data-name="Path 91070" d="M178.1,122.332l-9.147.806a9.034,9.034,0,0,1,.231-3.972,8.372,8.372,0,0,1,1.9-3.376Z" transform="translate(-133.992 -105.502)" fill="#e0e0e0"/>
      <path id="Path_91071" data-name="Path 91071" d="M183.569,132l-5.074,5.48a8.615,8.615,0,0,1-1.7-2.2,8.15,8.15,0,0,1-.871-2.613Z" transform="translate(-137.992 -114.651)" fill="#407bff" opacity="0.6"/>
      <path id="Path_91072" data-name="Path 91072" d="M186.76,130.606l8.759-2.4a8.855,8.855,0,0,1-1.742,8.938c-3.323,3.589-9.23,3.589-13.067,0Z" transform="translate(-140.696 -112.512)" fill="#fff"/>
      <g id="Group_35562" data-name="Group 35562" transform="translate(7.659 10.171)" opacity="0.3">
        <path id="Path_91073" data-name="Path 91073" d="M106.647,167.783h-.022a.226.226,0,0,1-.2-.24,18.118,18.118,0,0,1,8.507-13.15,27.29,27.29,0,0,1,15.415-3.92c1.516.031,3.049.157,4.543.283a48.147,48.147,0,0,0,6.826.235c2.548-.152,7.226-.932,9.909-4.46a18.573,18.573,0,0,0,2.178-4.216,15.641,15.641,0,0,1,2.8-4.979c1.777-1.869,4.508-2.931,8.124-3.162a50.96,50.96,0,0,1,5.6.052c1.607.074,3.271.152,4.9.087,2.884-.113,6.869-.806,9.469-3.485a18.172,18.172,0,0,0,2.823-4.286c.436-.784.849-1.6,1.333-2.365a18,18,0,0,1,6.673-6.211.213.213,0,0,1,.292.087.222.222,0,0,1-.087.3,17.575,17.575,0,0,0-6.534,6.1c-.475.754-.906,1.559-1.307,2.339a18.419,18.419,0,0,1-2.9,4.386c-2.139,2.178-5.514,3.437-9.766,3.6-1.646.065-3.319,0-4.935-.087a51.315,51.315,0,0,0-5.554-.052c-3.485.222-6.137,1.241-7.84,3.049a15.181,15.181,0,0,0-2.718,4.844,18.852,18.852,0,0,1-2.226,4.317c-2.792,3.663-7.61,4.473-10.236,4.63a48.229,48.229,0,0,1-6.882-.24c-1.481-.122-3.014-.248-4.517-.279a26.926,26.926,0,0,0-15.171,3.855,17.693,17.693,0,0,0-8.306,12.828A.226.226,0,0,1,106.647,167.783Z" transform="translate(-106.429 -116.885)" fill="#407bff"/>
        <path id="Path_91074" data-name="Path 91074" d="M308.082,118.752h-.039a.218.218,0,0,1-.152-.266l.475-1.851a4.421,4.421,0,0,1,.2-.619.048.048,0,0,0,0-.048,21.31,21.31,0,0,0-4.09.5.216.216,0,0,1-.091-.423,22.516,22.516,0,0,1,4.138-.531.475.475,0,0,1,.4.2.484.484,0,0,1,.048.466,4.349,4.349,0,0,0-.183.558l-.479,1.851a.213.213,0,0,1-.227.158Z" transform="translate(-218.065 -115.52)" fill="#407bff"/>
      </g>
    </g>
    <g id="freepik--Desk--inject-16" transform="translate(49.364 133.899)">
      <rect id="Rectangle_7120" data-name="Rectangle 7120" width="119.056" height="4.064" transform="translate(0 19.471)" fill="#407bff"/>
      <rect id="Rectangle_7121" data-name="Rectangle 7121" width="119.056" height="4.064" transform="translate(0 19.471)" fill="#fff" opacity="0.8"/>
      <rect id="Rectangle_7122" data-name="Rectangle 7122" width="34.846" height="4.064" transform="translate(84.215 19.471)" fill="#407bff" opacity="0.3"/>
      <path id="Path_91127" data-name="Path 91127" d="M319.16,344.4h-2.322l-3.088-54.23h5.41Z" transform="translate(-226.452 -266.635)" fill="#407bff"/>
      <path id="Path_91128" data-name="Path 91128" d="M373.332,344.4h2.326l-3.088-54.23h-5.41Z" transform="translate(-256.597 -266.635)" fill="#407bff"/>
      <path id="Path_91129" data-name="Path 91129" d="M115.656,344.4H113.33l3.088-54.229h5.41Z" transform="translate(-113.33 -266.635)" fill="#407bff"/>
      <path id="Path_91130" data-name="Path 91130" d="M173.83,344.4h2.322l3.088-54.229h-5.41Z" transform="translate(-147.478 -266.635)" fill="#407bff"/>
      <path id="Path_91131" data-name="Path 91131" d="M264.3,236.14H238.9a1.307,1.307,0,0,0-1.241,1.058L234.88,253.11a.871.871,0,0,0,.871,1.054h25.4a1.307,1.307,0,0,0,1.241-1.054l2.779-15.912a.871.871,0,0,0-.867-1.058Z" transform="translate(-181.922 -236.139)" fill="#407bff"/>
      <path id="Path_91132" data-name="Path 91132" d="M264.3,236.14H238.9a1.307,1.307,0,0,0-1.241,1.058L234.88,253.11a.871.871,0,0,0,.871,1.054h25.4a1.307,1.307,0,0,0,1.241-1.054l2.779-15.912a.871.871,0,0,0-.867-1.058Z" transform="translate(-181.922 -236.139)" fill="#fff" opacity="0.2"/>
      <path id="Path_91133" data-name="Path 91133" d="M263.172,236.139H237.765a1.307,1.307,0,0,0-1.241,1.058l-2.779,15.912a.871.871,0,0,0,.871,1.054h25.4a1.307,1.307,0,0,0,1.272-1.054l2.779-15.912a.871.871,0,0,0-.893-1.058Z" transform="translate(-181.284 -236.138)" fill="#407bff"/>
      <path id="Path_91134" data-name="Path 91134" d="M263.172,236.139H237.765a1.307,1.307,0,0,0-1.241,1.058l-2.779,15.912a.871.871,0,0,0,.871,1.054h25.4a1.307,1.307,0,0,0,1.272-1.054l2.779-15.912a.871.871,0,0,0-.893-1.058Z" transform="translate(-181.284 -236.138)" fill="#fff" opacity="0.4"/>
      <path id="Path_91135" data-name="Path 91135" d="M235.21,254.293a.457.457,0,0,1-.357-.148.488.488,0,0,1-.087-.4l2.779-15.912a.871.871,0,0,1,.81-.7h25.4a.462.462,0,0,1,.357.152.484.484,0,0,1,.087.4L261.432,253.6a.871.871,0,0,1-.81.7Z" transform="translate(-181.865 -236.703)" fill="#fff"/>
      <path id="Path_91136" data-name="Path 91136" d="M251.171,277.52H219.226a1.424,1.424,0,0,0-1.416,1.416h34.777a1.424,1.424,0,0,0-1.416-1.416Z" transform="translate(-172.301 -259.495)" fill="#407bff"/>
      <path id="Path_91137" data-name="Path 91137" d="M251.171,277.52H219.226a1.424,1.424,0,0,0-1.416,1.416h34.777a1.424,1.424,0,0,0-1.416-1.416Z" transform="translate(-172.301 -259.495)" fill="#fff" opacity="0.4"/>
      <path id="Path_91138" data-name="Path 91138" d="M283.343,277.52h-7.117a1.424,1.424,0,0,0-1.416,1.416h9.949a1.424,1.424,0,0,0-1.416-1.416Z" transform="translate(-204.473 -259.495)" fill="#407bff" opacity="0.8"/>
      <rect id="Rectangle_7123" data-name="Rectangle 7123" width="5.702" height="7.109" rx="1.19" transform="translate(90.417 12.363)" fill="#407bff"/>
      <path id="Path_91139" data-name="Path 91139" d="M322.229,270.63l.083-.409h-.392v-.436h.47l.113-.575h.436l-.118.575h.353l.118-.575h.457l-.118.575h.222v.436h-.309l-.083.409h.392v.436h-.483l-.113.566h-.431l.113-.562h-.353l-.113.566h-.436l.113-.566h-.222v-.436Zm.457,0h.353l.083-.409h-.353Z" transform="translate(-231.063 -254.804)" fill="#fff"/>
      <path id="Path_91140" data-name="Path 91140" d="M328.65,269.2v2.4h-.662v-1.572a1.951,1.951,0,0,1-.309.2,2.928,2.928,0,0,1-.379.144v-.536a1.665,1.665,0,0,0,.523-.261,1.05,1.05,0,0,0,.287-.37Z" transform="translate(-234.1 -254.799)" fill="#fff"/>
      <path id="Path_91141" data-name="Path 91141" d="M332.622,271.854c-1.128,0-2.012-1.22-2.012-2.775s.9-2.779,2.012-2.779,2.012,1.246,2.012,2.779S333.75,271.854,332.622,271.854Zm0-4.913c-.745,0-1.372.976-1.372,2.139s.627,2.134,1.372,2.134,1.372-.976,1.372-2.134-.631-2.14-1.372-2.14Z" transform="translate(-235.968 -253.162)" fill="#407bff"/>
    </g>
    <g id="freepik--character-1--inject-16" transform="translate(58.006 106.049)">
      <path id="Path_91142" data-name="Path 91142" d="M166.157,227.922l-.4.627-.436.688c-.283.462-.558.932-.832,1.407-.54.95-1.063,1.912-1.546,2.888A39.787,39.787,0,0,0,160.5,239.5c-.157.5-.3,1.011-.436,1.516l-.179.762-.074.379-.039.192a.284.284,0,0,1-.026.126c0-.017-.035,0-.078-.113a.645.645,0,0,0-.209-.253c-.074-.044-.087,0-.048.039a1.306,1.306,0,0,0,.3.2,4.879,4.879,0,0,0,1.172.4,14.32,14.32,0,0,0,1.494.266c1.037.135,2.178.2,3.249.257h.109a1.529,1.529,0,0,1,.436,2.966,18.848,18.848,0,0,1-3.711.919,11.447,11.447,0,0,1-4.26-.109,6.148,6.148,0,0,1-1.307-.483,5.035,5.035,0,0,1-1.4-1.054,4.6,4.6,0,0,1-1.019-1.786,5.166,5.166,0,0,1-.179-1.847.943.943,0,0,1,.026-.309l.03-.24.057-.488c.048-.318.091-.64.144-.958.109-.636.231-1.268.383-1.886a38.112,38.112,0,0,1,2.5-7.113c.527-1.124,1.089-2.23,1.7-3.306.3-.54.627-1.072.958-1.6.166-.266.335-.527.514-.793s.344-.505.571-.819a3.049,3.049,0,0,1,5.04,3.424Z" transform="translate(-145.084 -200.955)" fill="#407bff"/>
      <path id="Path_91143" data-name="Path 91143" d="M208.278,192.991c.044.3.235.51.436.484s.314-.292.27-.584-.235-.51-.436-.483S208.234,192.7,208.278,192.991Z" transform="translate(-175.557 -183.604)" fill="#263238"/>
      <path id="Path_91144" data-name="Path 91144" d="M208.77,194.93a10.634,10.634,0,0,0,1.777,2.3,1.707,1.707,0,0,1-1.363.47Z" transform="translate(-175.84 -185.029)" fill="#de5753"/>
      <path id="Path_91145" data-name="Path 91145" d="M205.083,189.313a.144.144,0,0,0,.1-.048,1.372,1.372,0,0,1,1.194-.4.179.179,0,0,0,.209-.135.174.174,0,0,0-.135-.2,1.716,1.716,0,0,0-1.511.5.179.179,0,0,0,0,.248A.183.183,0,0,0,205.083,189.313Z" transform="translate(-173.647 -181.398)" fill="#263238"/>
      <path id="Path_91146" data-name="Path 91146" d="M185.613,201.2c.126,2.744-.083,7.7-2.213,9.2,0,0,.327,2.809,5.279,3.55,5.44.81,3.005-2.317,3.005-2.317-2.866-1.15-2.461-3.345-1.633-5.336Z" transform="translate(-161.521 -188.568)" fill="#e4897b"/>
      <path id="Path_91147" data-name="Path 91147" d="M181.2,221.065c-.213-1.241-.436-2.657.5-2.875,1.028-.24,6.351.47,8.032,1.742s.819,3.485.819,3.485Z" transform="translate(-160.172 -198.132)" fill="#e0e0e0"/>
      <path id="Path_91148" data-name="Path 91148" d="M185,227.371c.2,4.391,0,13.1-2.979,26.278h-19.7c-.122-2.74,2.7-14.553,2.461-27.533a4.9,4.9,0,0,1,4.892-5,10.681,10.681,0,0,1,1.22.048,69.883,69.883,0,0,1,8.3,1.08c.819.187,1.616.4,2.339.627a4.931,4.931,0,0,1,3.463,4.5Z" transform="translate(-149.623 -199.811)" fill="#407bff"/>
      <path id="Path_91149" data-name="Path 91149" d="M207.126,253.61c-.314,2.23-1.037,6.1,1.572,10.375.3-1.773.536-3.432.732-4.983Z" transform="translate(-174.724 -218.149)" opacity="0.2"/>
      <path id="Path_91150" data-name="Path 91150" d="M241.005,260.006l3.315-1.141-1.35-3.485a4.2,4.2,0,0,0-3.35,2.731Z" transform="translate(-193.253 -219.148)" fill="#e4897b"/>
      <path id="Path_91151" data-name="Path 91151" d="M250.416,257.454l.353-2.814-3.458.287,1.35,3.5Z" transform="translate(-197.593 -218.731)" fill="#e4897b"/>
      <path id="Path_91152" data-name="Path 91152" d="M206.535,231.5c.183.64.409,1.385.627,2.082s.436,1.411.688,2.113c.47,1.4.989,2.783,1.533,4.134a39.289,39.289,0,0,0,1.812,3.885,17.2,17.2,0,0,0,2.178,3.236l-3.193-.492c.614-.266,1.246-.54,1.882-.871s1.285-.627,1.925-.976l1.96-1.032c.653-.344,1.307-.719,1.973-1.041l.07-.035a1.542,1.542,0,0,1,1.921,2.309,23.319,23.319,0,0,1-1.559,1.851c-.544.588-1.115,1.146-1.707,1.694s-1.22,1.067-1.873,1.564a23.583,23.583,0,0,1-2.082,1.42,2.518,2.518,0,0,1-3.023-.335l-.17-.161a20.472,20.472,0,0,1-3.332-4.212,37.42,37.42,0,0,1-2.33-4.421c-.684-1.494-1.272-3.01-1.808-4.534-.266-.762-.523-1.529-.754-2.3s-.436-1.529-.658-2.383a3.05,3.05,0,1,1,5.893-1.572Z" transform="translate(-171.179 -204.35)" fill="#407bff"/>
      <path id="Path_91153" data-name="Path 91153" d="M185.422,187.808c.762,3.572,1.024,5.7,3.123,7.283a4.855,4.855,0,0,0,7.688-3.672c.287-3.358-1-8.637-4.748-9.548a4.987,4.987,0,0,0-6.063,5.937Z" transform="translate(-162.593 -177.576)" fill="#e4897b"/>
      <path id="Path_91154" data-name="Path 91154" d="M186.39,183.927c1.707-.131,1.607-.919,1.224-1.5a13.356,13.356,0,0,1-.849-2.661s2.374.627,1.886-1.646-3.694-5.153-6.494-3.389c-5.58-.919-7.4,1.333-6.534,3.415-4.43,1.96-1.233,5.928.531,5.928-1.572,1.4.775,3.424,4.582,5.693C183.524,186.41,187.636,187.312,186.39,183.927Z" transform="translate(-155.865 -173.321)" fill="#263238"/>
      <path id="Path_91155" data-name="Path 91155" d="M187.678,174.752a.435.435,0,0,1-.309-.135,5.262,5.262,0,0,0-5.061-1.381.434.434,0,1,1-.2-.845,6.176,6.176,0,0,1,5.9,1.62.434.434,0,0,1-.327.74Z" transform="translate(-160.603 -172.199)" fill="#263238"/>
      <path id="Path_91156" data-name="Path 91156" d="M179.589,200a.436.436,0,0,1-.309-.126c-1.228-1.237-1.742-2.2-1.585-3.049a1.978,1.978,0,0,1,1.237-1.411.436.436,0,1,1,.375.788c-.457.218-.7.47-.754.771s.122,1.054,1.346,2.282a.436.436,0,0,1-.309.745Z" transform="translate(-158.285 -185.279)" fill="#263238"/>
      <path id="Path_91157" data-name="Path 91157" d="M198.3,193.573a4.155,4.155,0,0,0,1.612,2.108c1,.658,1.673-.087,1.542-1.163-.118-.971-.78-2.483-1.851-2.714S197.97,192.532,198.3,193.573Z" transform="translate(-169.879 -183.246)" fill="#e4897b"/>
      <path id="Path_91158" data-name="Path 91158" d="M275.076,406.2c.47,0,.928-.065,1.08-.274a.335.335,0,0,0,0-.383.435.435,0,0,0-.274-.2c-.614-.166-1.9.566-1.956.6a.078.078,0,0,0-.039.087.087.087,0,0,0,.065.074,6.916,6.916,0,0,0,1.124.1Zm.584-.714a.635.635,0,0,1,.166.022.261.261,0,0,1,.174.122c.061.109.039.161,0,.192-.174.24-1.106.244-1.79.148a3.986,3.986,0,0,1,1.468-.483Z" transform="translate(-212.593 -303.775)" fill="#407bff"/>
      <path id="Path_91159" data-name="Path 91159" d="M273.947,404.971h.035c.436-.2,1.328-.993,1.259-1.411,0-.1-.083-.218-.322-.244a.649.649,0,0,0-.484.148,2.507,2.507,0,0,0-.575,1.42.091.091,0,0,0,.039.078.065.065,0,0,0,.048.009Zm.9-1.494h.052c.157,0,.165.078.17.1.039.253-.558.871-1.015,1.15a2.051,2.051,0,0,1,.488-1.137.471.471,0,0,1,.307-.113Z" transform="translate(-212.578 -302.645)" fill="#407bff"/>
      <path id="Path_91160" data-name="Path 91160" d="M263.541,395.869h3.685l-.7-8.529H262.84Z" transform="translate(-206.358 -293.63)" fill="#e4897b"/>
      <path id="Path_91161" data-name="Path 91161" d="M267.038,405.94h-4.02a.27.27,0,0,0-.279.253l-.24,3.258a.636.636,0,0,0,.627.658c1.446-.026,3.528-.109,5.353-.109,2.13,0,2.352.113,4.852.113,1.511,0,1.7-1.529,1.05-1.664-2.971-.632-3.7-.7-6.416-2.234a1.925,1.925,0,0,0-.928-.274Z" transform="translate(-206.166 -304.128)" fill="#263238"/>
      <path id="Path_91162" data-name="Path 91162" d="M266.521,387.35l.366,4.395H263.2l-.362-4.395Z" transform="translate(-206.358 -293.635)" opacity="0.2"/>
      <path id="Path_91163" data-name="Path 91163" d="M222.655,406.2a1.207,1.207,0,0,0,.871-.24.37.37,0,0,0,0-.436.409.409,0,0,0-.274-.2c-.536-.126-1.555.571-1.6.6a.091.091,0,0,0-.035.087.078.078,0,0,0,.065.065,4.45,4.45,0,0,0,.973.124Zm.462-.7a.433.433,0,0,1,.109,0,.24.24,0,0,1,.161.118c.078.144.031.2,0,.222-.157.209-.91.209-1.459.118a2.831,2.831,0,0,1,1.163-.457Z" transform="translate(-183.091 -303.769)" fill="#407bff"/>
      <path id="Path_91164" data-name="Path 91164" d="M221.706,404.971h.039c.383-.209,1.119-1.015,1.041-1.424a.288.288,0,0,0-.279-.231.475.475,0,0,0-.37.113c-.436.348-.518,1.411-.518,1.455a.071.071,0,0,0,.087.087Zm.74-1.494h.039c.113,0,.126.065.131.087.044.244-.436.871-.806,1.141a2.1,2.1,0,0,1,.436-1.154.314.314,0,0,1,.2-.074Z" transform="translate(-183.092 -302.644)" fill="#407bff"/>
      <path id="Path_91165" data-name="Path 91165" d="M214.08,395.869h3.681l1.851-8.529h-3.681Z" transform="translate(-178.837 -293.63)" fill="#e4897b"/>
      <path id="Path_91166" data-name="Path 91166" d="M216.408,405.94h-4.134a.318.318,0,0,0-.314.253l-.727,3.258a.54.54,0,0,0,.536.658c1.446-.026,2.147-.109,3.968-.109,1.119,0,2.552.113,4.1.113s1.742-1.529,1.115-1.664a5.884,5.884,0,0,1-3.942-2.3.9.9,0,0,0-.6-.213Z" transform="translate(-177.223 -304.128)" fill="#263238"/>
      <path id="Path_91167" data-name="Path 91167" d="M175.162,295.8s20.429,6.2,20.934,14.4c.928,15.115-6.486,27.995-6.486,27.995h-5.523s2.1-6.386,2.853-20.076c.945-17.2-31.588.4-25.573-22.323Z" transform="translate(-148.666 -241.962)" fill="#7d8487"/>
      <g id="Group_35565" data-name="Group 35565" transform="translate(36.136 93.715)" opacity="0.2">
        <path id="Path_91168" data-name="Path 91168" d="M217.084,387.35h3.685l-.954,4.395H216.13Z" transform="translate(-216.13 -387.35)"/>
      </g>
      <path id="Path_91169" data-name="Path 91169" d="M189.906,295.8s26.418,1.742,27.463,15.764c1.2,16.116,1.546,26.636,1.546,26.636h-5.471s-2.814-9.883-5.227-24.092c-.727-4.256-9.753-4.987-18.294-5.493-7.361-.436-13.015-.871-13.634-9.025l.1-3.79Z" transform="translate(-157.508 -241.962)" fill="#7d8487"/>
      <path id="Path_91170" data-name="Path 91170" d="M266.671,389.78c.03,0-.353,2.613-.353,2.613h-7.583l-.2-2.313Z" transform="translate(-203.926 -295.007)" fill="#7d8487"/>
      <path id="Path_91171" data-name="Path 91171" d="M220.276,389.78c.03,0-.7,2.613-.7,2.613H212l.139-2.313Z" transform="translate(-177.663 -295.007)" fill="#7d8487"/>
      <path id="Path_91172" data-name="Path 91172" d="M164.379,286.838l-3.7-25.12a2.862,2.862,0,0,0-2.831-2.448H136.031a2.862,2.862,0,0,0-2.831,3.28l3.572,24.288h0a2.126,2.126,0,0,0,2.13,2.126h39.773a2.126,2.126,0,0,0-2.13-2.126Z" transform="translate(-133.169 -221.344)" fill="#407bff"/>
      <path id="Path_91173" data-name="Path 91173" d="M164.379,286.838l-3.7-25.12a2.862,2.862,0,0,0-2.831-2.448H136.031a2.862,2.862,0,0,0-2.831,3.28l3.572,24.288h0a2.126,2.126,0,0,0,2.13,2.126h39.773a2.126,2.126,0,0,0-2.13-2.126Z" transform="translate(-133.169 -221.344)" fill="#fff" opacity="0.5"/>
      <path id="Path_91174" data-name="Path 91174" d="M157.85,259.27H136.031a2.862,2.862,0,0,0-2.831,3.28l3.572,24.288a2.126,2.126,0,0,0,2.13,2.126h23.134Z" transform="translate(-133.169 -221.344)" fill="#407bff" opacity="0.3"/>
      <path id="Path_91175" data-name="Path 91175" d="M140.483,366.119H139.25l3.084-38.679h1.237Z" transform="translate(-136.601 -259.821)" fill="#407bff"/>
      <path id="Path_91176" data-name="Path 91176" d="M140.483,366.119H139.25l3.084-38.679h1.237Z" transform="translate(-136.601 -259.821)" fill="#fff" opacity="0.6"/>
      <path id="Path_91177" data-name="Path 91177" d="M188.633,366.119H187.4l3.088-38.679h1.233Z" transform="translate(-163.778 -259.821)" fill="#407bff"/>
      <path id="Path_91178" data-name="Path 91178" d="M188.633,366.119H187.4l3.088-38.679h1.233Z" transform="translate(-163.778 -259.821)" fill="#fff" opacity="0.6"/>
      <path id="Path_91179" data-name="Path 91179" d="M188.991,366.119h-1.237L184.67,327.44h1.23Z" transform="translate(-162.238 -259.821)" fill="#407bff"/>
      <path id="Path_91180" data-name="Path 91180" d="M188.991,366.119h-1.237L184.67,327.44h1.23Z" transform="translate(-162.238 -259.821)" fill="#fff" opacity="0.7"/>
      <path id="Path_91181" data-name="Path 91181" d="M237.141,366.119h-1.233L232.82,327.44h1.233Z" transform="translate(-189.414 -259.821)" fill="#407bff"/>
      <path id="Path_91182" data-name="Path 91182" d="M237.141,366.119h-1.233L232.82,327.44h1.233Z" transform="translate(-189.414 -259.821)" fill="#fff" opacity="0.7"/>
    </g>
  </g>
</svg>
