<svg xmlns="http://www.w3.org/2000/svg" width="200.564" height="137.219" viewBox="0 0 200.564 137.219">
  <g id="Group_22" data-name="Group 22" transform="translate(0 -15.619)">
    <g id="Group_21" data-name="Group 21" transform="translate(-8.076 -4.562)">
      <g id="Group_20" data-name="Group 20" transform="translate(116.225 86.196)">
        <path id="Path_318" data-name="Path 318" d="M4.2,15.59l49.738-1.813a1.032,1.032,0,0,1,.241.018.954.954,0,0,1,.465.22.983.983,0,0,1,.3.67,3.243,3.243,0,0,1-.249,1.368c-.218.6-.456,1.3-.69,2.01s-.464,1.435-.668,2.084-.379,1.222-.5,1.634-.2.661-.2.661L.005,24.029s.1-.37.288-.964.468-1.413.829-2.31a23.466,23.466,0,0,1,1.32-2.783A10.59,10.59,0,0,1,4.2,15.59Z" transform="translate(0)" fill="#b1d5f8"/>
        <g id="Group_20-2" data-name="Group 20" transform="translate(3.874 14.068)">
          <path id="Path_309" data-name="Path 309" d="M.738,1.737a.1.1,0,0,0,.057,0,.238.238,0,0,0,.063-.029.846.846,0,0,0,.072-.05l.082-.064c.029-.023.06-.048.092-.075s.066-.056.1-.084.076-.057.118-.084a1.11,1.11,0,0,1,.138-.075q.037-.017.073-.029a.716.716,0,0,1,.07-.021.575.575,0,0,1,.066-.012.472.472,0,0,1,.063,0,.384.384,0,0,1,.067.008.6.6,0,0,1,.073.02.594.594,0,0,1,.07.028A.365.365,0,0,1,2,1.3a.37.37,0,0,1,.047.041.407.407,0,0,1,.044.055.59.59,0,0,1,.042.074,1,1,0,0,1,.04.1.885.885,0,0,1,.025.1c.007.035.013.071.017.11s.006.08.007.122,0,.086,0,.13c0,.019,0,.039,0,.058s0,.037,0,.055,0,.034-.006.049a.226.226,0,0,1-.011.04.439.439,0,0,1,0,.053.41.41,0,0,1-.011.049c0,.016-.01.033-.017.052l-.023.062a.686.686,0,0,1-.012.074c-.005.024-.012.047-.018.069s-.014.043-.021.063l-.021.056-.018.046h0v0l0,.007-.005.013-.008,0-.019-.007-.024-.008L1.971,2.75l-.055-.019L1.862,2.71c-.018-.008-.035-.016-.052-.025a.437.437,0,0,1-.05-.032.481.481,0,0,1-.053-.022l-.052-.026L1.6,2.579a.479.479,0,0,0-.053-.022l-.084-.048-.081-.05c-.026-.017-.051-.034-.075-.052a.7.7,0,0,1-.066-.057,1.208,1.208,0,0,1-.111-.1.924.924,0,0,1-.084-.1.729.729,0,0,1-.059-.1.6.6,0,0,1-.038-.091C.929,1.938.908,1.911.889,1.886L.837,1.819a.408.408,0,0,0-.048-.052.151.151,0,0,0-.051-.031.086.086,0,0,0-.057,0,.155.155,0,0,0-.058.039.381.381,0,0,0-.058.078.828.828,0,0,0-.055.118.635.635,0,0,0-.036.165.914.914,0,0,0,0,.206,1.031,1.031,0,0,0,.058.228A1.073,1.073,0,0,0,.659,2.8a1.08,1.08,0,0,0,.084.117,1.4,1.4,0,0,0,.1.107c.035.035.072.068.11.1s.079.067.121.1l.063.041.058.039.058.039.063.041.067.042.069.043.074.044.081.047.051.017L1.7,3.6l.046.016.051.017a.727.727,0,0,0,.074.02c.025.006.05.01.074.013l.071.007.065,0a.813.813,0,0,0,.145,0,.871.871,0,0,0,.147-.031.839.839,0,0,0,.142-.057A.751.751,0,0,0,2.646,3.5c.019-.013.038-.028.057-.044A.592.592,0,0,0,2.76,3.4a.494.494,0,0,0,.05-.066.45.45,0,0,0,.04-.08.2.2,0,0,1,.017-.033l.022-.032.022-.032a.2.2,0,0,0,.017-.033l.012-.031.01-.027.01-.027.012-.031.038-.1c.012-.032.023-.064.033-.094s.019-.061.027-.092.014-.061.019-.092a.754.754,0,0,0,.024-.074c.007-.026.013-.053.018-.081s.01-.055.014-.083.007-.054.01-.079l.008-.076c0-.026.006-.051.009-.078s.007-.054.011-.082.008-.058.013-.089c0-.066-.006-.132-.012-.2s-.014-.134-.024-.2-.023-.134-.039-.2-.035-.134-.058-.2a1.446,1.446,0,0,0-.1-.2A1.409,1.409,0,0,0,2.824.8,1.306,1.306,0,0,0,2.66.645,1.186,1.186,0,0,0,2.467.518,1.459,1.459,0,0,0,2.259.429,1.347,1.347,0,0,0,2.051.375,1.271,1.271,0,0,0,1.845.357a1.222,1.222,0,0,0-.2.015,1.322,1.322,0,0,0-.187.044A1.3,1.3,0,0,0,1.29.482a1.331,1.331,0,0,0-.147.082,1.4,1.4,0,0,0-.129.093,1.575,1.575,0,0,0-.187.2A1.273,1.273,0,0,0,.7,1.05a1.008,1.008,0,0,0-.072.177.72.72,0,0,0-.029.15,1.485,1.485,0,0,0,.014.167.494.494,0,0,0,.028.111.15.15,0,0,0,.041.061A.086.086,0,0,0,.738,1.737Z" transform="translate(3.885 11.809)" fill="#231f20"/>
          <path id="Path_310" data-name="Path 310" d="M.748,1.75a.1.1,0,0,0,.058,0,.242.242,0,0,0,.064-.029.862.862,0,0,0,.073-.051l.083-.065c.03-.023.06-.049.093-.076s.067-.056.1-.085.077-.057.12-.084a1.123,1.123,0,0,1,.14-.075q.038-.017.074-.03a.73.73,0,0,1,.071-.021A.585.585,0,0,1,1.7,1.224a.481.481,0,0,1,.064,0,.4.4,0,0,1,.069.008.618.618,0,0,1,.074.02.607.607,0,0,1,.071.029.372.372,0,0,1,.058.034.377.377,0,0,1,.047.041.412.412,0,0,1,.045.055.592.592,0,0,1,.043.074.989.989,0,0,1,.041.1.88.88,0,0,1,.025.1c.007.035.013.072.017.111s.007.08.007.123,0,.086,0,.131c0,.02,0,.039,0,.058s0,.038,0,.055,0,.034-.006.049a.228.228,0,0,1-.011.04.435.435,0,0,1,0,.054.406.406,0,0,1-.011.049c0,.017-.01.034-.017.052l-.023.062a.694.694,0,0,1-.012.074c-.005.024-.012.047-.019.07s-.014.044-.021.064L2.1,2.726l-.018.047h0v0l0,.007L2.076,2.8l-.008,0-.02-.007-.024-.008L2,2.772l-.055-.019-.055-.021c-.018-.008-.036-.016-.053-.025a.449.449,0,0,1-.051-.032.49.49,0,0,1-.054-.022l-.053-.027L1.628,2.6a.492.492,0,0,0-.054-.022l-.085-.049-.082-.05c-.027-.017-.052-.035-.076-.053a.7.7,0,0,1-.066-.057,1.226,1.226,0,0,1-.113-.1.932.932,0,0,1-.085-.1.731.731,0,0,1-.06-.1.6.6,0,0,1-.039-.091C.948,1.955.931,1.928.914,1.9S.879,1.85.861,1.828a.289.289,0,0,0-.054-.055A.1.1,0,0,0,.748,1.75a.088.088,0,0,0-.057,0,.158.158,0,0,0-.059.039.384.384,0,0,0-.059.079.828.828,0,0,0-.056.119.635.635,0,0,0-.037.166.914.914,0,0,0,0,.207,1.033,1.033,0,0,0,.059.23,1.08,1.08,0,0,0,.125.235,1.1,1.1,0,0,0,.086.118,1.425,1.425,0,0,0,.1.108c.035.035.073.069.112.1s.081.067.123.1l.064.041.059.039.059.039.064.041.068.042.07.043.075.045.082.047.052.017.047.016.047.016.052.017A.742.742,0,0,0,1.9,3.68c.025.006.051.01.076.013l.073.007.066,0a.832.832,0,0,0,.147,0,.89.89,0,0,0,.149-.031.855.855,0,0,0,.144-.058.762.762,0,0,0,.13-.084c.019-.013.039-.028.058-.045A.6.6,0,0,0,2.8,3.426a.5.5,0,0,0,.051-.067.451.451,0,0,0,.04-.08.215.215,0,0,0,.028-.03.25.25,0,0,0,.021-.032c.006-.011.011-.023.016-.034l.014-.035.012-.031L3,3.089l.01-.027.012-.031.038-.1c.012-.033.023-.064.033-.1s.019-.062.027-.092.014-.061.019-.093a.761.761,0,0,0,.024-.075c.007-.026.013-.054.019-.082s.01-.056.014-.083.007-.054.01-.08l.008-.076c0-.026.006-.052.009-.079s.007-.054.011-.083.008-.058.013-.09c0-.066-.006-.133-.012-.2s-.014-.135-.025-.2-.024-.135-.04-.2-.036-.135-.059-.2A1.463,1.463,0,0,0,3,1,1.426,1.426,0,0,0,2.866.81,1.324,1.324,0,0,0,2.7.65,1.207,1.207,0,0,0,2.5.522a1.49,1.49,0,0,0-.211-.09A1.379,1.379,0,0,0,2.08.378,1.3,1.3,0,0,0,1.87.36a1.254,1.254,0,0,0-.2.015,1.348,1.348,0,0,0-.19.044,1.322,1.322,0,0,0-.169.066,1.356,1.356,0,0,0-.15.082,1.431,1.431,0,0,0-.13.094,1.589,1.589,0,0,0-.189.2,1.279,1.279,0,0,0-.127.2,1.009,1.009,0,0,0-.073.179.719.719,0,0,0-.029.152,1.434,1.434,0,0,0,.019.155.558.558,0,0,0,.03.107.214.214,0,0,0,.04.066A.12.12,0,0,0,.748,1.75Z" transform="translate(36.071 11.838)" fill="#231f20"/>
          <path id="Path_311" data-name="Path 311" d="M.743,1.744a.1.1,0,0,0,.058,0,.24.24,0,0,0,.064-.029.852.852,0,0,0,.072-.051L1.019,1.6c.029-.023.06-.049.093-.076s.067-.056.1-.084.076-.057.119-.084a1.119,1.119,0,0,1,.139-.075q.038-.017.074-.029a.723.723,0,0,1,.07-.021.581.581,0,0,1,.067-.012.478.478,0,0,1,.064,0,.389.389,0,0,1,.068.008.61.61,0,0,1,.074.02.6.6,0,0,1,.07.028.369.369,0,0,1,.058.034.373.373,0,0,1,.047.041.409.409,0,0,1,.044.055.592.592,0,0,1,.042.074,1,1,0,0,1,.041.1.886.886,0,0,1,.025.1c.007.035.013.072.017.111s.007.08.007.122,0,.086,0,.131c0,.019,0,.039,0,.058s0,.037,0,.055,0,.034-.006.049a.226.226,0,0,1-.011.04.439.439,0,0,1,0,.054.41.41,0,0,1-.011.049c0,.016-.01.033-.017.052l-.023.062a.686.686,0,0,1-.012.074c-.005.024-.012.047-.018.07s-.014.044-.021.064l-.021.056-.018.046h0v0l0,.007-.005.013-.008,0-.02-.007-.024-.008-.022-.007-.055-.019-.054-.021c-.018-.008-.035-.016-.053-.025a.441.441,0,0,1-.05-.032.487.487,0,0,1-.054-.022l-.052-.026-.052-.026a.484.484,0,0,0-.054-.022l-.085-.048L1.4,2.469c-.026-.017-.052-.034-.075-.053a.7.7,0,0,1-.066-.057,1.216,1.216,0,0,1-.112-.1.929.929,0,0,1-.084-.1.732.732,0,0,1-.06-.1A.6.6,0,0,1,.96,1.973L.906,1.9C.888,1.873.87,1.85.852,1.829A.438.438,0,0,0,.8,1.776a.18.18,0,0,0-.055-.032.087.087,0,0,0-.057,0,.156.156,0,0,0-.059.039.383.383,0,0,0-.058.079.831.831,0,0,0-.055.119.635.635,0,0,0-.037.166.914.914,0,0,0,0,.206,1.032,1.032,0,0,0,.058.229,1.077,1.077,0,0,0,.124.234,1.085,1.085,0,0,0,.085.117,1.41,1.41,0,0,0,.1.107c.035.035.072.068.112.1s.08.067.122.1l.063.041.058.039.058.039.063.041.067.042.07.043.074.044.081.047.051.017.047.016.047.016.051.017a.736.736,0,0,0,.075.021c.025.006.05.01.075.013l.072.007.066,0a.823.823,0,0,0,.146,0A.881.881,0,0,0,2.4,3.653.847.847,0,0,0,2.538,3.6a.756.756,0,0,0,.13-.084c.019-.013.038-.028.058-.044a.6.6,0,0,0,.056-.055.5.5,0,0,0,.051-.067.45.45,0,0,0,.04-.08.215.215,0,0,0,.027-.03A.252.252,0,0,0,2.921,3.2c.006-.011.011-.022.016-.034l.014-.035L2.962,3.1l.01-.027.01-.027L3,3.02l.038-.1c.012-.032.023-.064.033-.095s.019-.061.027-.092.014-.061.019-.092a.754.754,0,0,0,.024-.075c.007-.026.013-.054.019-.081s.01-.056.014-.083.007-.054.01-.079l.008-.076c0-.026.006-.052.009-.078s.007-.054.011-.083.008-.058.013-.089c0-.066-.006-.133-.012-.2s-.014-.134-.024-.2-.024-.135-.04-.2-.036-.134-.059-.2a1.451,1.451,0,0,0-.1-.2A1.417,1.417,0,0,0,2.846.807a1.315,1.315,0,0,0-.166-.16A1.2,1.2,0,0,0,2.485.52,1.475,1.475,0,0,0,2.276.43a1.363,1.363,0,0,0-.21-.053A1.286,1.286,0,0,0,1.858.359a1.237,1.237,0,0,0-.2.015,1.336,1.336,0,0,0-.189.044A1.311,1.311,0,0,0,1.3.484,1.341,1.341,0,0,0,1.15.566,1.408,1.408,0,0,0,1.02.659a1.582,1.582,0,0,0-.188.2,1.276,1.276,0,0,0-.126.195,1.008,1.008,0,0,0-.073.178A.719.719,0,0,0,.6,1.384a1.481,1.481,0,0,0,.014.168.494.494,0,0,0,.028.111.151.151,0,0,0,.042.062A.087.087,0,0,0,.743,1.744Z" transform="translate(20.406 11.811)" fill="#231f20"/>
          <path id="Path_312" data-name="Path 312" d="M.738,1.737a.1.1,0,0,0,.057,0A.238.238,0,0,0,.859,1.71a.842.842,0,0,0,.072-.05L1.012,1.6c.029-.023.06-.048.092-.075s.066-.055.1-.084.076-.057.118-.084a1.108,1.108,0,0,1,.138-.074q.037-.017.073-.029a.715.715,0,0,1,.07-.021.572.572,0,0,1,.066-.012.468.468,0,0,1,.063,0,.381.381,0,0,1,.067.008.6.6,0,0,1,.073.02.591.591,0,0,1,.07.028.349.349,0,0,1,.1.075.408.408,0,0,1,.044.055.593.593,0,0,1,.042.074,1,1,0,0,1,.04.1.884.884,0,0,1,.025.1c.007.035.013.071.017.11s.006.08.007.122,0,.086,0,.13c0,.019,0,.039,0,.058s0,.037,0,.055,0,.034-.006.049a.226.226,0,0,1-.011.04.439.439,0,0,1,0,.053.411.411,0,0,1-.011.049c0,.016-.01.033-.017.052l-.023.062a.689.689,0,0,1-.012.074c-.005.024-.012.047-.018.069s-.014.043-.021.063l-.021.056-.018.046h0v0l0,.007-.005.013-.008,0-.019-.007-.024-.008-.022-.007-.055-.019-.054-.021c-.018-.008-.035-.016-.052-.025a.439.439,0,0,1-.05-.032.478.478,0,0,1-.053-.022l-.052-.027L1.6,2.581a.476.476,0,0,0-.053-.022l-.084-.048-.081-.05c-.026-.017-.051-.034-.075-.053a.692.692,0,0,1-.066-.057,1.208,1.208,0,0,1-.111-.1.926.926,0,0,1-.084-.1.732.732,0,0,1-.059-.1.6.6,0,0,1-.038-.091L.894,1.874A.843.843,0,0,0,.844,1.8a.219.219,0,0,0-.05-.047.1.1,0,0,0-.056-.018.086.086,0,0,0-.056,0,.155.155,0,0,0-.058.039.38.38,0,0,0-.058.078.825.825,0,0,0-.055.118.635.635,0,0,0-.036.165.914.914,0,0,0,0,.206,1.033,1.033,0,0,0,.058.228,1.076,1.076,0,0,0,.123.233,1.082,1.082,0,0,0,.084.117,1.4,1.4,0,0,0,.1.107c.035.035.072.068.111.1s.079.067.121.1l.062.041.058.039.058.039.063.041.067.042.069.043.074.044.081.047.051.017L1.7,3.6l.046.016.051.017a.731.731,0,0,0,.074.021c.025.006.05.01.074.013l.071.007.066,0a.812.812,0,0,0,.145,0,.87.87,0,0,0,.147-.031.838.838,0,0,0,.142-.057A.751.751,0,0,0,2.647,3.5c.019-.013.038-.028.057-.044A.592.592,0,0,0,2.76,3.4a.494.494,0,0,0,.05-.066.448.448,0,0,0,.04-.079.214.214,0,0,0,.027-.03A.251.251,0,0,0,2.9,3.2c.006-.011.011-.022.016-.034l.014-.034L2.94,3.1l.01-.027.01-.027.012-.031.038-.1c.012-.032.023-.064.033-.094s.019-.061.027-.092.014-.061.019-.092a.753.753,0,0,0,.024-.074c.007-.026.013-.053.018-.081s.01-.055.014-.083.007-.054.01-.079l.008-.076c0-.026.006-.051.009-.078s.007-.054.011-.082.008-.058.013-.089c0-.066-.006-.133-.012-.2s-.014-.134-.024-.2-.023-.134-.04-.2-.035-.134-.058-.2a1.452,1.452,0,0,0-.1-.2A1.415,1.415,0,0,0,2.825.808,1.31,1.31,0,0,0,2.66.648,1.189,1.189,0,0,0,2.467.521,1.467,1.467,0,0,0,2.26.431,1.351,1.351,0,0,0,2.052.377,1.271,1.271,0,0,0,1.845.359a1.219,1.219,0,0,0-.2.015,1.322,1.322,0,0,0-.187.044A1.3,1.3,0,0,0,1.29.483a1.325,1.325,0,0,0-.147.082,1.393,1.393,0,0,0-.129.093,1.569,1.569,0,0,0-.187.2A1.27,1.27,0,0,0,.7,1.05a1.007,1.007,0,0,0-.072.177.718.718,0,0,0-.029.15.809.809,0,0,0,.008.151.423.423,0,0,0,.03.107A.225.225,0,0,0,.685,1.7.139.139,0,0,0,.738,1.737Z" transform="translate(3.885 18.942)" fill="#231f20"/>
          <path id="Path_313" data-name="Path 313" d="M.748,1.751a.1.1,0,0,0,.058,0,.242.242,0,0,0,.064-.029.86.86,0,0,0,.073-.051l.083-.064c.03-.023.061-.049.093-.076s.067-.056.1-.085.077-.057.12-.084a1.121,1.121,0,0,1,.14-.075q.038-.017.074-.029a.729.729,0,0,1,.071-.021A.584.584,0,0,1,1.7,1.226a.481.481,0,0,1,.064,0,.4.4,0,0,1,.069.008.619.619,0,0,1,.074.02.608.608,0,0,1,.071.029.373.373,0,0,1,.058.034.378.378,0,0,1,.047.041.414.414,0,0,1,.045.055.594.594,0,0,1,.043.074.991.991,0,0,1,.041.1.882.882,0,0,1,.025.1c.007.035.013.072.017.111s.007.08.007.123,0,.086,0,.131c0,.02,0,.039,0,.058s0,.038,0,.055,0,.034-.006.049a.228.228,0,0,1-.011.04.435.435,0,0,1,0,.054.406.406,0,0,1-.011.049c0,.017-.01.034-.017.052l-.024.062a.693.693,0,0,1-.012.074c-.005.024-.012.047-.019.07s-.014.044-.021.064L2.1,2.73l-.018.047h0v0l0,.007L2.076,2.8l-.008,0-.02-.007-.024-.008L2,2.775l-.055-.019-.055-.021c-.018-.008-.036-.016-.053-.026a.45.45,0,0,1-.051-.032.49.49,0,0,1-.054-.022l-.053-.027L1.629,2.6a.493.493,0,0,0-.054-.022L1.489,2.53l-.082-.05c-.027-.017-.052-.035-.076-.053a.7.7,0,0,1-.066-.057,1.229,1.229,0,0,1-.113-.1.935.935,0,0,1-.085-.1.733.733,0,0,1-.06-.1.6.6,0,0,1-.039-.091A.937.937,0,0,1,.9,1.9C.885,1.872.869,1.847.853,1.825A.267.267,0,0,0,.8,1.772a.092.092,0,0,0-.056-.021.088.088,0,0,0-.057,0,.157.157,0,0,0-.059.039.383.383,0,0,0-.059.079.827.827,0,0,0-.056.119.635.635,0,0,0-.037.166.915.915,0,0,0,0,.207,1.035,1.035,0,0,0,.059.23,1.083,1.083,0,0,0,.125.235,1.1,1.1,0,0,0,.086.118,1.429,1.429,0,0,0,.1.108c.035.035.073.069.112.1s.081.067.123.1l.064.041.059.039.059.039.064.041.068.042.07.043.075.045.082.047.052.017.047.016.047.016.052.017a.743.743,0,0,0,.075.021c.025.006.051.01.076.013l.073.007.066,0a.832.832,0,0,0,.147,0,.889.889,0,0,0,.149-.031.853.853,0,0,0,.144-.057.76.76,0,0,0,.131-.084c.019-.013.039-.028.058-.045A.6.6,0,0,0,2.8,3.431a.5.5,0,0,0,.051-.067.451.451,0,0,0,.04-.08.214.214,0,0,0,.028-.03.249.249,0,0,0,.021-.032c.006-.011.011-.023.016-.034l.014-.035.012-.031L3,3.095l.01-.027.012-.031.038-.1c.012-.033.023-.064.033-.1s.019-.062.027-.092.014-.061.019-.093a.761.761,0,0,0,.024-.075c.007-.026.013-.054.019-.082s.01-.056.014-.083.007-.054.01-.08l.008-.076c0-.026.006-.052.009-.079s.007-.054.011-.083.008-.058.013-.09c0-.066-.006-.134-.012-.2s-.014-.135-.025-.2-.024-.135-.04-.2-.036-.135-.059-.2A1.467,1.467,0,0,0,3,1,1.43,1.43,0,0,0,2.867.814,1.328,1.328,0,0,0,2.7.653,1.21,1.21,0,0,0,2.5.525,1.493,1.493,0,0,0,2.292.434,1.381,1.381,0,0,0,2.081.38a1.3,1.3,0,0,0-.21-.019,1.254,1.254,0,0,0-.2.015,1.346,1.346,0,0,0-.19.044,1.32,1.32,0,0,0-.17.066,1.353,1.353,0,0,0-.15.082,1.428,1.428,0,0,0-.131.093,1.585,1.585,0,0,0-.189.2,1.277,1.277,0,0,0-.127.2,1.008,1.008,0,0,0-.073.179.719.719,0,0,0-.029.152,1.436,1.436,0,0,0,.019.155.559.559,0,0,0,.03.107.215.215,0,0,0,.04.066A.121.121,0,0,0,.748,1.751Z" transform="translate(36.071 18.962)" fill="#231f20"/>
          <path id="Path_314" data-name="Path 314" d="M.671,1.7a.1.1,0,0,0,.058,0,.24.24,0,0,0,.064-.029.85.85,0,0,0,.072-.051l.083-.064c.029-.023.06-.049.093-.076s.067-.056.1-.084.076-.057.119-.084A1.117,1.117,0,0,1,1.4,1.235q.038-.017.074-.029a.722.722,0,0,1,.07-.021.581.581,0,0,1,.067-.012.478.478,0,0,1,.064,0,.389.389,0,0,1,.068.008.61.61,0,0,1,.074.02.6.6,0,0,1,.07.029.37.37,0,0,1,.058.034.374.374,0,0,1,.047.041.41.41,0,0,1,.044.055.594.594,0,0,1,.042.074,1,1,0,0,1,.041.1.887.887,0,0,1,.025.1c.007.035.013.072.017.111s.007.08.007.122,0,.086,0,.131c0,.019,0,.039,0,.058s0,.037,0,.055,0,.034-.006.049a.226.226,0,0,1-.011.04.439.439,0,0,1,0,.054.41.41,0,0,1-.011.049c0,.016-.01.033-.017.052l-.023.062a.686.686,0,0,1-.012.074c-.005.024-.012.047-.018.07s-.014.044-.021.064l-.021.056L2,2.7,2,2.712l0,.005H2v0l0,.007-.005.013h0l-.011,0-.016-.005-.018-.006-.092-.031-.094-.034c-.032-.012-.064-.026-.1-.04s-.067-.031-.1-.049a1.777,1.777,0,0,1-.165-.084,1.6,1.6,0,0,1-.139-.09A1.351,1.351,0,0,1,1.138,2.3a1.011,1.011,0,0,1-.086-.087.715.715,0,0,1-.076-.089.769.769,0,0,1-.054-.086c-.015-.028-.028-.055-.04-.081S.859,1.91.847,1.886.814,1.836.8,1.814s-.026-.043-.038-.06a.162.162,0,0,0-.04-.041A.094.094,0,0,0,.671,1.7a.106.106,0,0,0-.055,0,.127.127,0,0,0-.054.026.237.237,0,0,0-.05.057.47.47,0,0,0-.044.088.492.492,0,0,0-.049.119.691.691,0,0,0-.024.154.821.821,0,0,0,.012.181.932.932,0,0,0,.06.2,1.082,1.082,0,0,0,.1.2,1.567,1.567,0,0,0,.146.2A1.934,1.934,0,0,0,.9,3.115a2.043,2.043,0,0,0,.218.17c.032.024.066.048.1.073s.074.049.116.072.085.047.133.068a1.592,1.592,0,0,0,.154.061l.019.006.021.007.026.009.033.011L1.74,3.6l.03.01.034.011.036.012A.518.518,0,0,0,1.9,3.65l.068.011.069.007.066,0a.9.9,0,0,0,.126-.007.887.887,0,0,0,.128-.026.831.831,0,0,0,.126-.046A.763.763,0,0,0,2.6,3.524l.062-.054c.02-.017.04-.035.059-.053a.762.762,0,0,0,.056-.059.658.658,0,0,0,.053-.072.787.787,0,0,0,.042-.068c.013-.024.026-.048.039-.072s.025-.047.037-.067a.422.422,0,0,1,.037-.055l.038-.1c.012-.032.023-.064.033-.095s.019-.061.027-.092.014-.061.019-.092a.76.76,0,0,0,.024-.075c.007-.026.013-.054.019-.081s.01-.056.014-.083.007-.054.01-.079l.008-.076c0-.026.006-.052.009-.078S3.2,2.118,3.2,2.09s.008-.058.013-.089c0-.066-.006-.133-.012-.2s-.014-.134-.024-.2-.024-.135-.04-.2-.036-.134-.059-.2a1.455,1.455,0,0,0-.1-.2A1.421,1.421,0,0,0,2.838.811a1.319,1.319,0,0,0-.166-.16A1.2,1.2,0,0,0,2.477.523a1.478,1.478,0,0,0-.209-.09,1.364,1.364,0,0,0-.21-.054A1.288,1.288,0,0,0,1.85.36a1.24,1.24,0,0,0-.2.015,1.332,1.332,0,0,0-.189.044,1.308,1.308,0,0,0-.168.065,1.342,1.342,0,0,0-.149.082,1.419,1.419,0,0,0-.13.093,1.579,1.579,0,0,0-.188.2A1.274,1.274,0,0,0,.7,1.055a1.007,1.007,0,0,0-.073.178A.719.719,0,0,0,.6,1.384a.62.62,0,0,0-.018.127.3.3,0,0,0,.01.093.154.154,0,0,0,.033.061A.116.116,0,0,0,.671,1.7Z" transform="translate(20.415 18.96)" fill="#231f20"/>
          <path id="Path_315" data-name="Path 315" d="M.739,1.738a.1.1,0,0,0,.057,0A.237.237,0,0,0,.859,1.71a.837.837,0,0,0,.072-.05L1.013,1.6c.029-.023.06-.048.092-.075s.066-.055.1-.084.076-.057.118-.083a1.1,1.1,0,0,1,.138-.074q.037-.017.073-.029a.712.712,0,0,1,.07-.02.574.574,0,0,1,.066-.012.476.476,0,0,1,.063,0,.386.386,0,0,1,.067.008.606.606,0,0,1,.073.02.6.6,0,0,1,.07.029A.368.368,0,0,1,2,1.306a.377.377,0,0,1,.047.041.412.412,0,0,1,.044.055.591.591,0,0,1,.042.074.985.985,0,0,1,.04.1.879.879,0,0,1,.025.1c.007.035.013.072.017.11s.007.08.007.122,0,.086,0,.131c0,.019,0,.039,0,.058s0,.037,0,.055,0,.034-.006.049a.225.225,0,0,1-.011.04.439.439,0,0,1,0,.054.411.411,0,0,1-.011.049c0,.016-.01.033-.017.052l-.023.062a.692.692,0,0,1-.012.074c-.005.024-.012.047-.018.069s-.014.043-.021.063l-.021.056-.018.046h0v0l0,.007-.005.013-.008,0-.019-.007-.024-.008-.022-.007-.055-.019-.054-.021c-.018-.008-.035-.016-.052-.025a.444.444,0,0,1-.05-.032.483.483,0,0,1-.053-.022L1.657,2.61,1.6,2.584a.482.482,0,0,0-.053-.022l-.084-.049-.081-.05c-.026-.017-.051-.035-.075-.053a.689.689,0,0,1-.065-.057,1.217,1.217,0,0,1-.111-.1.928.928,0,0,1-.084-.1.73.73,0,0,1-.059-.1.6.6,0,0,1-.038-.091C.936,1.942.92,1.915.9,1.89s-.03-.05-.046-.072a.237.237,0,0,0-.052-.055.137.137,0,0,0-.068-.026.086.086,0,0,0-.056,0,.155.155,0,0,0-.058.039.381.381,0,0,0-.058.078.825.825,0,0,0-.055.118.634.634,0,0,0-.036.165.916.916,0,0,0,0,.206,1.035,1.035,0,0,0,.058.229,1.078,1.078,0,0,0,.123.234,1.091,1.091,0,0,0,.084.117,1.414,1.414,0,0,0,.1.108c.035.035.072.068.111.1s.079.067.121.1l.063.041.058.039.058.039.063.041.067.042.069.043.074.045.08.047.051.017L1.7,3.6l.046.016.051.017a.723.723,0,0,0,.074.021c.025.006.05.01.074.013l.072.008.065,0a.815.815,0,0,0,.145,0,.87.87,0,0,0,.147-.03.835.835,0,0,0,.142-.057.747.747,0,0,0,.129-.083c.019-.013.038-.028.057-.044a.587.587,0,0,0,.056-.054.492.492,0,0,0,.05-.066.451.451,0,0,0,.04-.08.2.2,0,0,1,.017-.033L2.89,3.2l.022-.032a.2.2,0,0,0,.017-.033L2.941,3.1l.01-.027.01-.027.012-.031.038-.1c.012-.032.023-.064.033-.094s.019-.061.027-.092.014-.061.019-.092a.762.762,0,0,0,.024-.074c.007-.026.013-.053.019-.081s.01-.055.014-.083.007-.054.01-.079l.008-.076c0-.026.006-.051.009-.078s.007-.054.011-.082S3.193,2.029,3.2,2c0-.066-.006-.133-.012-.2s-.014-.134-.024-.2-.023-.134-.039-.2-.035-.134-.058-.2a1.46,1.46,0,0,0-.1-.2A1.42,1.42,0,0,0,2.826.811a1.314,1.314,0,0,0-.165-.16A1.193,1.193,0,0,0,2.468.524a1.463,1.463,0,0,0-.208-.09A1.35,1.35,0,0,0,2.052.379,1.273,1.273,0,0,0,1.846.36a1.225,1.225,0,0,0-.2.015,1.314,1.314,0,0,0-.187.043,1.3,1.3,0,0,0-.167.065,1.331,1.331,0,0,0-.148.081,1.4,1.4,0,0,0-.129.093,1.569,1.569,0,0,0-.187.2A1.269,1.269,0,0,0,.7,1.05a1,1,0,0,0-.072.177.718.718,0,0,0-.029.15,1.437,1.437,0,0,0,.019.154.559.559,0,0,0,.029.107.214.214,0,0,0,.04.066A.119.119,0,0,0,.739,1.738Z" transform="translate(3.883 26.079)" fill="#231f20"/>
          <path id="Path_316" data-name="Path 316" d="M.675,1.7a.1.1,0,0,0,.058,0A.242.242,0,0,0,.8,1.675.856.856,0,0,0,.87,1.624L.953,1.56c.03-.023.061-.049.093-.076s.067-.056.1-.084.077-.057.12-.084a1.117,1.117,0,0,1,.14-.075q.038-.017.074-.029a.726.726,0,0,1,.071-.021.586.586,0,0,1,.067-.012.488.488,0,0,1,.064,0,.4.4,0,0,1,.068.008.62.62,0,0,1,.074.02.611.611,0,0,1,.071.029.375.375,0,0,1,.058.034.383.383,0,0,1,.047.041.416.416,0,0,1,.045.055.6.6,0,0,1,.043.074.99.99,0,0,1,.041.1.881.881,0,0,1,.025.1c.007.035.013.072.017.111s.007.08.007.123,0,.087,0,.132c0,.02,0,.039,0,.058s0,.038,0,.055,0,.034-.006.049a.226.226,0,0,1-.011.04.44.44,0,0,1,0,.054.409.409,0,0,1-.011.049c0,.017-.01.033-.017.052L2.1,2.42a.692.692,0,0,1-.012.074c-.005.024-.012.047-.019.07s-.014.044-.021.064l-.021.056-.01.027-.005.014,0,.005h0v0l0,.007L2,2.754H2l-.011,0-.016-.005-.018-.006-.093-.032-.095-.035c-.032-.012-.064-.026-.1-.041s-.067-.031-.1-.049A1.8,1.8,0,0,1,1.4,2.5a1.623,1.623,0,0,1-.14-.091,1.367,1.367,0,0,1-.114-.092,1.019,1.019,0,0,1-.086-.087.719.719,0,0,1-.077-.089.777.777,0,0,1-.054-.087C.913,2.023.9,2,.888,1.969S.865,1.918.853,1.894.818,1.845.8,1.823.77,1.783.755,1.766a.351.351,0,0,0-.042-.041A.13.13,0,0,0,.675,1.7a.107.107,0,0,0-.056,0,.128.128,0,0,0-.054.026.237.237,0,0,0-.05.057.469.469,0,0,0-.044.089.494.494,0,0,0-.05.119A.692.692,0,0,0,.4,2.145a.822.822,0,0,0,.013.182.936.936,0,0,0,.06.2,1.089,1.089,0,0,0,.1.2,1.58,1.58,0,0,0,.147.2A1.952,1.952,0,0,0,.9,3.128a2.065,2.065,0,0,0,.22.171c.033.024.067.049.1.073s.075.049.117.073.086.047.134.069a1.6,1.6,0,0,0,.155.061l.019.006.021.007L1.7,3.6l.033.011.023.008.03.01.034.012.037.012a.52.52,0,0,0,.061.016l.068.011.07.007.066,0a.909.909,0,0,0,.127-.006.9.9,0,0,0,.129-.025A.837.837,0,0,0,2.5,3.61a.767.767,0,0,0,.12-.068l.062-.054c.02-.017.04-.035.059-.053A.755.755,0,0,0,2.8,3.376.655.655,0,0,0,2.854,3.3.782.782,0,0,0,2.9,3.236c.014-.024.026-.048.039-.072s.025-.047.037-.068a.423.423,0,0,1,.038-.055l.038-.1c.012-.033.023-.064.034-.1s.019-.062.027-.092.014-.061.019-.093a.753.753,0,0,0,.024-.075c.007-.026.013-.054.019-.082s.01-.056.014-.083.007-.054.01-.08L3.2,2.264c0-.026.006-.052.009-.079s.007-.054.011-.083.009-.058.014-.09c0-.067-.006-.134-.012-.2s-.014-.135-.025-.2-.024-.135-.04-.2-.036-.135-.059-.2A1.463,1.463,0,0,0,3,1,1.432,1.432,0,0,0,2.859.817,1.333,1.333,0,0,0,2.691.656,1.216,1.216,0,0,0,2.5.527,1.5,1.5,0,0,0,2.284.437,1.384,1.384,0,0,0,2.073.382a1.3,1.3,0,0,0-.21-.019,1.247,1.247,0,0,0-.2.015,1.35,1.35,0,0,0-.19.044A1.32,1.32,0,0,0,1.3.487a1.346,1.346,0,0,0-.15.082,1.411,1.411,0,0,0-.13.093,1.583,1.583,0,0,0-.189.2,1.275,1.275,0,0,0-.127.2,1.008,1.008,0,0,0-.073.179A.72.72,0,0,0,.6,1.389a.451.451,0,0,0-.03.127.266.266,0,0,0,.01.1.144.144,0,0,0,.039.064A.087.087,0,0,0,.675,1.7Z" transform="translate(36.061 26.084)" fill="#231f20"/>
          <path id="Path_317" data-name="Path 317" d="M.744,1.745a.1.1,0,0,0,.058,0,.24.24,0,0,0,.064-.029.852.852,0,0,0,.072-.051L1.02,1.6c.03-.023.06-.048.093-.076s.067-.056.1-.084.076-.057.119-.084a1.116,1.116,0,0,1,.139-.075q.038-.017.074-.029a.717.717,0,0,1,.07-.021.582.582,0,0,1,.067-.012.484.484,0,0,1,.064,0,.39.39,0,0,1,.068.008.614.614,0,0,1,.074.02.606.606,0,0,1,.071.029.375.375,0,0,1,.058.034.379.379,0,0,1,.047.041.414.414,0,0,1,.044.055.6.6,0,0,1,.042.074,1,1,0,0,1,.041.1.9.9,0,0,1,.025.1c.007.035.013.072.017.111s.007.08.007.122,0,.086,0,.131c0,.019,0,.039,0,.058s0,.037,0,.055,0,.034-.006.049a.228.228,0,0,1-.011.04.44.44,0,0,1,0,.054.409.409,0,0,1-.011.049c0,.016-.01.033-.017.052l-.023.062a.684.684,0,0,1-.012.074c-.005.024-.012.047-.018.07s-.014.044-.021.064l-.021.056-.018.046h0v0l0,.007-.005.014-.008,0-.02-.007L2.01,2.775l-.022-.007-.055-.019-.054-.021c-.018-.008-.035-.016-.053-.026a.44.44,0,0,1-.05-.032.489.489,0,0,1-.054-.022L1.67,2.621l-.052-.027a.489.489,0,0,0-.054-.022l-.085-.049L1.4,2.473c-.026-.017-.052-.035-.075-.053a.711.711,0,0,1-.066-.057,1.221,1.221,0,0,1-.112-.1.935.935,0,0,1-.084-.1.738.738,0,0,1-.06-.1A.606.606,0,0,1,.96,1.975.93.93,0,0,1,.9,1.892C.879,1.866.863,1.841.847,1.819A.265.265,0,0,0,.8,1.766a.09.09,0,0,0-.055-.021.087.087,0,0,0-.057,0,.156.156,0,0,0-.059.039.381.381,0,0,0-.058.079.826.826,0,0,0-.055.119.635.635,0,0,0-.037.166.915.915,0,0,0,0,.207,1.036,1.036,0,0,0,.058.23,1.083,1.083,0,0,0,.124.235,1.091,1.091,0,0,0,.085.118,1.417,1.417,0,0,0,.1.108c.035.035.072.069.112.1s.08.067.123.1l.063.041.059.039.059.039.063.041.067.042.07.043.074.045.081.047L1.67,3.6l.047.016.047.016.051.017a.739.739,0,0,0,.075.021c.025.006.05.01.075.014l.072.008.066,0a.818.818,0,0,0,.146,0A.875.875,0,0,0,2.4,3.662a.843.843,0,0,0,.143-.057.755.755,0,0,0,.13-.084c.019-.013.038-.028.058-.044a.592.592,0,0,0,.057-.055.493.493,0,0,0,.051-.066.449.449,0,0,0,.04-.08.212.212,0,0,0,.027-.03.25.25,0,0,0,.021-.032c.006-.011.011-.022.016-.034l.014-.035.012-.031.01-.027.01-.027L3,3.03l.038-.1c.012-.032.023-.064.033-.095s.019-.061.027-.092.014-.061.019-.092a.753.753,0,0,0,.024-.075c.007-.026.013-.054.019-.081s.01-.056.014-.083.007-.054.01-.079l.008-.076c0-.026.006-.052.009-.078s.007-.054.011-.083.008-.058.013-.089c0-.066-.006-.133-.012-.2s-.014-.135-.024-.2-.024-.135-.04-.2-.036-.134-.059-.2a1.458,1.458,0,0,0-.1-.2A1.425,1.425,0,0,0,2.847.814,1.324,1.324,0,0,0,2.681.654,1.206,1.206,0,0,0,2.486.526,1.479,1.479,0,0,0,2.277.435a1.365,1.365,0,0,0-.21-.054A1.287,1.287,0,0,0,1.859.362a1.236,1.236,0,0,0-.2.015A1.336,1.336,0,0,0,1.467.42,1.308,1.308,0,0,0,1.3.485,1.336,1.336,0,0,0,1.15.567,1.4,1.4,0,0,0,1.021.66a1.576,1.576,0,0,0-.188.2,1.272,1.272,0,0,0-.126.194,1.007,1.007,0,0,0-.073.178A.72.72,0,0,0,.6,1.384a.81.81,0,0,0,.009.151.425.425,0,0,0,.031.107.226.226,0,0,0,.046.068A.14.14,0,0,0,.744,1.745Z" transform="translate(20.412 26.087)" fill="#231f20"/>
          <path id="Path_321" data-name="Path 321" d="M.048,1.525A18.122,18.122,0,0,0,2.2,1.606C3.374,1.613,4.97,1.6,6.9,1.573s4.188-.071,6.687-.128,5.243-.125,8.13-.2l.426-.01.426-.012.427-.015.428-.019.426-.01.426-.01.426-.01.426-.01c2.9-.082,5.606-.165,8.027-.245s4.559-.159,6.3-.234,3.1-.146,3.952-.212,1.216-.126.978-.178A17.482,17.482,0,0,0,42.292.2C41.121.2,39.509.21,37.552.237s-4.254.071-6.8.126-5.331.124-8.27.2l-.427.01-.426.012L21.2.6l-.426.019-.426.01-.426.01L19.5.653l-.426.01c-2.836.087-5.491.173-7.866.256s-4.466.164-6.182.239S1.972,1.3,1.11,1.365-.139,1.481.048,1.525Z" transform="translate(0 0)" fill="#1b1b1b"/>
        </g>
      </g>
      <path id="Path_322" data-name="Path 322" d="M.094,22.641.052,16.99C.06,16.3,0,15.616,0,14.928q.015-3.636.088-7.27C.1,6.583.114,5.5.127,4.433A13.877,13.877,0,0,1,.569.3c.192-.45.3-.346.392.013.065.185.134.438.23.747l.133.5.059.285.02.285.064,1.043.042.521L1.5,4.215q-.013,1.047.013,2.1c.007,1.4,0,2.8-.075,4.213-.078,1.686.045,3.439.077,5.164q.037,2.851.084,5.7l.058,3.5c.041,1.768.062,3.544.147,5.3.065,1.365.212,2.7.315,4.046.021.285.055.587.066.886.039,1.115-.051,1.475-.5,1.717a2.58,2.58,0,0,1-.265.157c-.274.1-.566-.339-.652-1.148-.3-2.395-.448-4.934-.546-7.485-.054-1.893-.112-3.8-.166-5.7Z" transform="matrix(0.985, 0.174, -0.174, 0.985, 117.944, 100.428)" fill="#231f20"/>
      <path id="Path_323" data-name="Path 323" d="M.094,22.641.052,16.99C.06,16.3,0,15.616,0,14.928q.015-3.636.088-7.27C.1,6.583.114,5.5.127,4.433A13.877,13.877,0,0,1,.569.3c.192-.45.3-.346.392.013.065.185.134.438.23.747l.133.5.059.285.02.285.064,1.043.042.521L1.5,4.215q-.013,1.047.013,2.1c.007,1.4,0,2.8-.075,4.213-.078,1.686.045,3.439.077,5.164q.037,2.851.084,5.7l.058,3.5c.041,1.768.062,3.544.147,5.3.065,1.365.212,2.7.315,4.046.021.285.055.587.066.886.039,1.115-.051,1.475-.5,1.717a2.58,2.58,0,0,1-.265.157c-.274.1-.566-.339-.652-1.148-.3-2.395-.448-4.934-.546-7.485-.054-1.893-.112-3.8-.166-5.7Z" transform="matrix(0.985, 0.174, -0.174, 0.985, 170.095, 100.428)" fill="#231f20"/>
      <path id="Path_324" data-name="Path 324" d="M.2,34.735l-.1-8.674c0-1.055-.063-2.109-.072-3.164q-.027-5.58,0-11.156c0-1.65,0-3.309,0-4.95A34.259,34.259,0,0,1,.388.454C.563-.233.662-.071.756.48c.063.284.13.674.224,1.151l.13.77.058.438.022.438.072,1.6.045.8v.8q0,1.606.036,3.217c.022,2.144.031,4.3-.022,6.464-.054,2.586.081,5.278.13,7.926q.067,4.376.143,8.753l.094,5.374c.058,2.713.1,5.44.2,8.131.076,2.1.229,4.145.341,6.215.022.438.058.9.072,1.361.049,1.711-.031,2.263-.448,2.626a2.446,2.446,0,0,1-.247.236c-.255.149-.533-.53-.623-1.772-.309-3.681-.475-7.58-.6-11.5-.072-2.906-.148-5.829-.22-8.753Z" transform="translate(168.033 136.088) rotate(90)" fill="#231f20"/>
    </g>
    <g id="n.121_Webflow" data-name="n.121 Webflow" transform="translate(-5.614 -74.948)">
      <path id="Path_189" data-name="Path 189" d="M283.78,183.994,295.8,176l12.021,8.53S294.239,196.76,283.78,183.994Z" transform="translate(-168.465 -50.736)" fill="#b1d5f8"/>
      <path id="Path_190" data-name="Path 190" d="M47.429,299.381l.15-7.655v-2.788c.055-3.281.138-6.558.15-9.836,0-1.455-.02-2.918-.071-4.362-.024-.923-.091-1.854-.087-2.78,0-.465,0-.931.02-1.4s.083-.931.13-1.392c.079-.584.276-.513.572-.032a8.614,8.614,0,0,1,.517,1,5.462,5.462,0,0,1,.339,1.443c.035.473.1.947.114,1.42l.039,1.424c.024.947.043,1.9.051,2.847q0,2.851-.138,5.718c-.106,2.291-.024,4.669-.047,7.008q-.063,3.857-.122,7.714-.035,2.366-.075,4.732c-.028,2.394-.071,4.8-.032,7.178.035,1.846.162,3.656.292,5.466l.1,1.183a6.862,6.862,0,0,1-.024,1.577,1.44,1.44,0,0,1-.359.738,1.917,1.917,0,0,1-.217.241c-.122.087-.252,0-.394-.276a3.7,3.7,0,0,1-.426-1.246c-.15-.824-.225-1.66-.3-2.5s-.114-1.692-.158-2.544c-.075-1.712-.1-3.439-.106-5.17,0-2.571.028-5.154.047-7.73Z" transform="translate(-25.276 -104.345)" fill="#231f20"/>
      <path id="Path_191" data-name="Path 191" d="M46.452,135.521c0-.623.032-1.246.032-1.873,0-.225-.032-.454-.028-.682,0-.789.032-1.609.024-2.414a10.647,10.647,0,0,0-.067-1.069,5.755,5.755,0,0,1-.059-.686,3.412,3.412,0,0,1,0-.347,1.463,1.463,0,0,1,.1-.351c.059-.15.193-.13.394,0a4.106,4.106,0,0,1,.343.233.655.655,0,0,1,.221.339,2.891,2.891,0,0,1,.106.686c0,.233.032.461.039.7a9.994,9.994,0,0,1-.055,1.412,15.834,15.834,0,0,0,.032,1.727v1.9l-.02,1.183c0,.592-.028,1.183,0,1.771,0,.454.091.9.134,1.353,0,.1.032.2.035.3a.6.6,0,0,1-.087.394.58.58,0,0,1-.292.17.738.738,0,0,0-.166.051.3.3,0,0,1-.252-.083.647.647,0,0,1-.221-.312,10.987,10.987,0,0,1-.241-2.481v-1.881Z" transform="translate(-24.67 -22.666)" fill="#231f20"/>
      <path id="Path_192" data-name="Path 192" d="M151.215,120.72q-11.985-.043-23.966,0l-8.739.083q-15.412.043-30.816.146c-4.555.039-9.138.126-13.661.225l-8.724.209c-2.91.043-5.821.059-8.727,0-1.822-.095-1.577-.394-.047-.765a39.5,39.5,0,0,1,7.686-.966c11.863-.3,23.722-.473,35.691-.426,7.154.028,14.592-.162,21.919-.221q12.076-.1,24.151-.114h14.864c7.493,0,15.041.067,22.479.106,5.789.035,11.468,0,17.2.1,1.262,0,2.5.043,3.778.095,1.183.039,2.161.118,2.985.189.394.035.789.071,1.116.114s.643.095.915.154a10.352,10.352,0,0,1,1.317.359,4.428,4.428,0,0,1,.852.477,4.339,4.339,0,0,1,.6.434c.181.213-.221.312-1.061.343-.414,0-.958.028-1.613.032q-.493,0-1.053-.024l-1.207-.032c-5.072-.174-10.321-.2-15.641-.248l-16.126-.114c-8.037-.047-16.114-.087-24.175-.083Z" transform="translate(-30.091 -17.153)" fill="#231f20"/>
      <path id="Path_193" data-name="Path 193" d="M460.156,309.243l-.071-7.075c0-.86-.071-1.719-.079-2.579-.024-3.037,0-6.073,0-9.11,0-1.349-.047-2.7-.091-4.038q-.059-1.286-.051-2.579a24.639,24.639,0,0,1,.178-2.579c.059-.536.292-.465.564,0a6.94,6.94,0,0,1,.43.931,6.14,6.14,0,0,1,.209.627l.091.343c0,.118.028.237.035.363l.083,1.309.039.655v.655l.024,2.627q0,2.627-.059,5.277c-.063,2.11.087,4.307.13,6.468q.051,3.549.11,7.13l.047,4.393c.024,2.22,0,4.449-.02,6.657,0,1.719.02,3.407-.114,5.127-.035.394-.051.753-.118,1.144a6.591,6.591,0,0,1-.193.9,2.478,2.478,0,0,1-.245.6.927.927,0,0,1-.639.509,1.4,1.4,0,0,1-.335.067c-.166,0-.256-.17-.288-.43a2.562,2.562,0,0,1,0-.469,6.2,6.2,0,0,1,.067-.631,44.442,44.442,0,0,0,.28-4.464c.035-1.546.047-3.123.047-4.709q0-3.549-.063-7.1Z" transform="translate(-275.057 -111.702)" fill="#231f20"/>
      <path id="Path_194" data-name="Path 194" d="M459.981,151.038c.039-.789.083-1.617.095-2.421,0-.3-.032-.588-.024-.879a28.961,28.961,0,0,0-.063-3.1c-.039-.461-.114-.931-.177-1.4a6.343,6.343,0,0,1-.071-.907,3.549,3.549,0,0,1,.138-.907c.047-.189.229-.162.446,0a2.408,2.408,0,0,1,.335.315,1.75,1.75,0,0,1,.166.209c.028.035.043.075.071.114a1.029,1.029,0,0,1,.032.118l.071.43.039.217.02.213.079.872a15,15,0,0,1,.071,1.85c-.028.749.083,1.514.079,2.268,0,.832-.02,1.656-.051,2.481l-.063,1.518c-.02.769-.075,1.538-.071,2.3,0,.592.075,1.183.114,1.759,0,.13.032.256.032.394,0,.481-.075.631-.422.722a1.764,1.764,0,0,1-.225.063c-.245.036-.481-.166-.54-.517a16.345,16.345,0,0,1-.181-3.242l.071-2.449Z" transform="translate(-275.031 -30.722)" fill="#231f20"/>
      <path id="Path_195" data-name="Path 195" d="M156.613,406.463l-21.915.2-7.994.106q-14.091.083-28.178.055h-12.5c-2.658,0-5.32,0-7.986-.055-1.333-.028-2.67-.071-4-.15a30.057,30.057,0,0,1-4.023-.434A1.991,1.991,0,0,1,69,405.746a.2.2,0,0,1-.063-.154.185.185,0,0,1,.047-.087c.047-.035.083-.071.11-.095s.032-.043.035-.036a.18.18,0,0,0,.15.1,4.359,4.359,0,0,0,.828-.02,60.994,60.994,0,0,1,7-.252c5.4.126,10.822.134,16.252.154l16.335.051c6.539.032,13.346-.15,20.034-.248l22.085-.319,13.582-.205c6.854-.114,13.744-.209,20.551-.371,5.289-.126,10.471-.355,15.7-.521,1.152-.035,2.279-.087,3.443-.106,4.307-.083,5.695.055,6.614.572a2.949,2.949,0,0,1,.6.367c.185.205-.142.343-.915.465a33.125,33.125,0,0,1-3.549.28c-9.331.394-19.19.623-29.089.789l-22.109.359Z" transform="translate(-38.351 -186.017)" fill="#231f20"/>
      <path id="Path_196" data-name="Path 196" d="M232.6,189.814l-.063-7.7c0-.935-.055-1.869-.059-2.808l-.028-9.9c0-1.467-.035-2.938-.071-4.389a42.559,42.559,0,0,1,.134-5.624c.063-.6.17-.493.319,0a14.109,14.109,0,0,1,.509,2.461l.1,1.424.047.714.024.714c.02.954.043,1.9.067,2.859.039,1.909.051,3.821,0,5.742-.039,2.3.079,4.689.114,7.04q.059,3.877.11,7.757.035,2.366.067,4.772c.043,2.41.067,4.831.146,7.221.059,1.857.193,3.679.292,5.521,0,.394.055.789.067,1.211.055,1.51,0,2-.355,2.331a1.54,1.54,0,0,1-.209.213c-.221.142-.485-.465-.572-1.577-.3-3.277-.426-6.74-.521-10.214-.055-2.583-.11-5.178-.162-7.769Z" transform="translate(-137.313 -40.276)" fill="#231f20"/>
      <path id="Path_197" data-name="Path 197" d="M255.866,173.2l-.091-7.816c0-.95-.055-1.9-.063-2.851q-.024-5.028,0-10.053v-4.46a31.6,31.6,0,0,1,.323-5.711c.154-.619.241-.473.323.024.055.256.114.607.2,1.037l.114.694.051.394.02.394.063,1.443.039.722v.722q0,1.447.032,2.9c.02,1.932.028,3.873-.02,5.825-.047,2.331.071,4.756.114,7.142q.059,3.944.126,7.887l.083,4.843c.051,2.445.087,4.9.174,7.327.067,1.889.2,3.735.3,5.6.02.394.051.812.063,1.226.043,1.542-.028,2.039-.394,2.366a2.166,2.166,0,0,1-.217.213c-.225.134-.469-.477-.548-1.6-.272-3.317-.418-6.831-.525-10.36-.063-2.619-.13-5.253-.193-7.887Z" transform="translate(-151.455 -30.213)" fill="#231f20"/>
      <path id="Path_198" data-name="Path 198" d="M131.705,293.7l-7.958-.02c-.97,0-1.936.039-2.9.028l-10.254-.11h-4.539c-1.932,0-3.869.039-5.805-.13-.6-.047-.513-.233,0-.418a8.991,8.991,0,0,1,2.556-.394c3.944-.114,7.864-.13,11.831-.075,2.366.039,4.847-.067,7.276-.1l8.018-.063,4.934-.047c2.488-.028,4.993-.043,7.462-.106,1.925-.051,3.806-.185,5.707-.272.418-.02.824-.055,1.25-.063,1.577-.043,2.078.055,2.406.43a1.743,1.743,0,0,1,.217.256c.13.292-.489.513-1.625.607-3.384.28-6.965.394-10.561.45l-8.029.063Z" transform="translate(-57.058 -119.791)" fill="#231f20"/>
      <path id="Path_199" data-name="Path 199" d="M304.329,275.287l-9.323-.067h-3.4l-11.989-.114c-1.771,0-3.549,0-5.312.024-2.264.02-4.523.1-6.8-.055-.718-.051-.6-.284,0-.5a9.91,9.91,0,0,1,2.989-.454c4.606-.051,9.22-.091,13.87,0,2.784.055,5.679-.039,8.522-.059l9.39-.039h5.782c2.914-.02,5.845,0,8.739-.075,2.252-.043,4.456-.17,6.681-.256.489,0,.97-.055,1.463-.067,1.83-.047,2.421.047,2.812.418a1.461,1.461,0,0,1,.26.256c.177.288-.568.528-1.9.623-3.971.276-8.167.343-12.375.394l-9.406.028Z" transform="translate(-158.307 -108.902)" fill="#231f20"/>
      <path id="Path_200" data-name="Path 200" d="M428.335,148.3c.091-1.333.181-2.666.252-4,.024-.485,0-.974.035-1.459.095-1.712.17-3.423.2-5.127,0-.757-.024-1.518-.1-2.264-.091-.95-.237-1.9-.394-2.788-.051-.28.118-.339.394-.166a1.9,1.9,0,0,1,.469.442,2.311,2.311,0,0,1,.347.749,21.745,21.745,0,0,1,.359,3.037c.028.5.043,1.006.039,1.51s0,1.006-.047,1.51c-.079,1.2-.028,2.453-.063,3.68-.039,1.349-.1,2.7-.162,4.042l-.118,2.488c-.055,1.25-.13,2.512-.142,3.758,0,.966.059,1.917.095,2.875,0,.209.032.414.036.627,0,.789-.079,1.037-.45,1.183a1.761,1.761,0,0,1-.233.11c-.245.071-.509-.256-.568-.832a36.807,36.807,0,0,1-.146-5.34c.039-1.349.1-2.7.17-4.046Z" transform="translate(-255.871 -25.336)" fill="#231f20"/>
      <path id="Path_201" data-name="Path 201" d="M284.681,140.393a14.328,14.328,0,0,0-7.217,10.522,13.937,13.937,0,0,0,1.861,8.743,12.928,12.928,0,0,0,2.761,3.238,14.825,14.825,0,0,0,3.672,2.2c.327.146.678.237,1.014.359l.513.174.528.122c.351.075.7.17,1.053.229l1.081.146a7.763,7.763,0,0,0,.958.055c.319,0,.643.032.962,0a14.894,14.894,0,0,0,1.917-.2c.316-.059.631-.106.943-.174l.927-.26.457-.13.446-.177.887-.351a14.127,14.127,0,0,0,3.971-2.784c.272-.3.568-.576.824-.891l.734-.966a12.662,12.662,0,0,0,1.223-2.1c.217-.457.363-.643.469-.588s.162.343.118.812a6.223,6.223,0,0,1-.5,1.861,7,7,0,0,1-.631,1.136,6.551,6.551,0,0,1-.891,1.183l-.469.493a3.94,3.94,0,0,1-.489.473l-1.045.868-1.136.749a4.34,4.34,0,0,1-.592.331l-.6.312a15.949,15.949,0,0,1-10.534,1.183,14.591,14.591,0,0,1-4.953-2.086,16.217,16.217,0,0,1-2.524-2.051,14.537,14.537,0,0,1-4.113-8.8,14.718,14.718,0,0,1,1.1-7.063,15.6,15.6,0,0,1,4.18-5.77,15.381,15.381,0,0,1,3.719-2.366,14.422,14.422,0,0,1,4.255-1.171,15.38,15.38,0,0,1,6.578.7,13.8,13.8,0,0,1,5.569,3.518,15.381,15.381,0,0,1,2.9,4.169,16.6,16.6,0,0,1,1.467,4.851c.043.375.083.745.126,1.116s0,.745.02,1.124a6.743,6.743,0,0,1-.055.97q-.047.438-.083.789c-.095.481-.193.864-.284,1.183a2.691,2.691,0,0,1-.312.734,3.028,3.028,0,0,1-.647.749c-.15.087-.193-.158-.134-.643.02-.245.091-.544.142-.907s.1-.789.166-1.262a15.657,15.657,0,0,0-1.554-8.424,13.531,13.531,0,0,0-6.022-6.211,14.312,14.312,0,0,0-6.393-1.412,13.345,13.345,0,0,0-6.31,1.7Z" transform="translate(-163.896 -28.461)" fill="#231f20"/>
      <path id="Path_202" data-name="Path 202" d="M309.619,147.892c0-.655.035-1.313.039-1.972,0-.241-.028-.481-.024-.722,0-.844.032-1.7.024-2.544,0-.394-.02-.753-.047-1.124a6.508,6.508,0,0,1-.043-1.439c.024-.154.221-.146.43-.032a.9.9,0,0,1,.469.607,13.549,13.549,0,0,1,.138,2.942c-.039.6.043,1.207.059,1.81.02.666.024,1.333.028,2v3.1c.02.481.1.946.158,1.42a1.69,1.69,0,0,1,.028.312,1.9,1.9,0,0,1-.024.248.545.545,0,0,1-.087.166.556.556,0,0,1-.264.185,1.4,1.4,0,0,1-.15.055c-.15.035-.315-.122-.461-.394a4.984,4.984,0,0,1-.233-1.29c-.039-.434-.055-.876-.067-1.321v-1.972Z" transform="translate(-184.069 -29.922)" fill="#231f20"/>
      <path id="Path_203" data-name="Path 203" d="M317.219,146.632c0-.635.024-1.27,0-1.909,0-.233-.028-.465-.028-.7v-2.469c0-.367,0-.734-.032-1.1a7.544,7.544,0,0,1,0-1.4c.035-.292.6.067.647.6a21.29,21.29,0,0,1,.095,2.843c-.024.572.047,1.183.071,1.751.02.647.036,1.294.036,1.94v1.183c0,.6-.024,1.207-.039,1.806,0,.465.032.923.039,1.388a1.978,1.978,0,0,1,0,.3.761.761,0,0,1-.114.394.4.4,0,0,1-.209.158.516.516,0,0,1-.114.043c-.11.028-.221-.138-.3-.418a6.9,6.9,0,0,1-.083-1.246v-3.187Z" transform="translate(-188.661 -29.305)" fill="#231f20"/>
      <path id="Path_204" data-name="Path 204" d="M285.023,174.608l-1.857-.02c-.225,0-.45.024-.678.02l-2.4-.051c-.355,0-.71,0-1.061.028a5.82,5.82,0,0,1-1.361-.035c-.142-.028-.122-.189,0-.359a.9.9,0,0,1,.592-.394,12.192,12.192,0,0,1,1.368-.075c.461,0,.919,0,1.384.035.556.035,1.132-.024,1.7-.039l1.873-.02h1.156c.584,0,1.183,0,1.751-.024.45,0,.891-.087,1.341-.126.1,0,.193-.028.3-.028.367,0,.485.055.556.316a1.4,1.4,0,0,1,.043.174c.032.2-.122.363-.394.394a14.59,14.59,0,0,1-2.441.185h-1.865Z" transform="translate(-164.703 -49.357)" fill="#231f20"/>
      <path id="Path_205" data-name="Path 205" d="M326.684,176.234l-1.7-1.049c-.209-.126-.422-.241-.627-.371-.722-.465-1.436-.943-2.145-1.424-.315-.213-.639-.426-.958-.627a8.054,8.054,0,0,1-1.183-.856c-.225-.2.367-.359.832-.075.832.509,1.668,1.006,2.481,1.577a18.054,18.054,0,0,0,1.578.907c.584.327,1.159.67,1.735,1.01l1.065.627c.54.312,1.077.643,1.617.946.422.241.856.438,1.282.663.095.047.189.091.28.146.339.205.414.319.359.552a.538.538,0,0,1-.036.158c-.063.162-.28.2-.544.083a21.544,21.544,0,0,1-2.323-1.223l-1.716-1.021Z" transform="translate(-190.416 -48.222)" fill="#231f20"/>
      <path id="Path_206" data-name="Path 206" d="M298.413,178.275l-1.806-1.234c-.15-.1-.3-.2-.45-.292l-.114-.075s-.032-.028-.047-.028a.221.221,0,0,0-.051.028l-.162.095-.473.284c-.457.276-.9.576-1.365.848l-4.867,2.887c-.714.434-1.428.887-2.13,1.329a25.276,25.276,0,0,1-2.761,1.637c-.3.146-.331,0-.174-.272a3.726,3.726,0,0,1,.367-.521,2.762,2.762,0,0,1,.623-.58c.9-.619,1.8-1.242,2.725-1.826s1.869-1.136,2.828-1.676c1.144-.647,2.276-1.424,3.419-2.137l.943-.584.469-.292.359-.221.193-.106.047-.028.047.024.1.051c.13.067.264.13.394.205l.264.158c.166.1.319.205.477.3.315.2.623.394.935.615l2.26,1.55,3.4,2.366c.879.607,1.775,1.152,2.654,1.743.193.134.394.256.58.394a3.442,3.442,0,0,1,.682.647.733.733,0,0,1,.126.5,1.408,1.408,0,0,1,0,.193c-.024.083-.126.087-.3.059a1.972,1.972,0,0,1-.674-.28c-1.577-.966-3.214-2.1-4.847-3.226-1.211-.836-2.425-1.692-3.648-2.516Z" transform="translate(-168.549 -50.485)" fill="#231f20"/>
      <path id="Path_207" data-name="Path 207" d="M322.307,235.712h-4.949c-.6,0-1.183.047-1.8.051l-6.365.043c-.943,0-1.889.039-2.82.071a26.416,26.416,0,0,1-3.62,0c-.394-.035-.315-.241,0-.442a3.45,3.45,0,0,1,1.577-.422c2.433-.087,4.878-.189,7.351-.15,1.475,0,3.013-.091,4.52-.134l4.985-.118,3.072-.059,4.642-.095c1.183-.039,2.366-.138,3.549-.189.264,0,.521-.035.789-.039a3.155,3.155,0,0,1,1.041.1.718.718,0,0,1,.446.351,1.29,1.29,0,0,1,.126.225c.079.245-.327.442-1.029.513-2.09.158-4.307.209-6.535.237l-4.985.063Z" transform="translate(-179.792 -85.467)" fill="#231f20"/>
      <path id="Path_209" data-name="Path 209" d="M339.312,246.507c-.852-.028-1.708-.047-2.56-.059-.312,0-.623.028-.935.02-1.1-.02-2.2-.051-3.3-.051-.489,0-.978,0-1.463.039a9.047,9.047,0,0,1-1.877,0c-.2-.032-.166-.241,0-.454a1.183,1.183,0,0,1,.808-.473c.627-.051,1.258-.1,1.893-.126s1.274,0,1.917.035c.769.051,1.578-.035,2.347-.047h4.165c.789,0,1.613.02,2.414,0,.623,0,1.234-.087,1.857-.11a3.626,3.626,0,0,1,.414,0c.521.043.682.158.753.454a1.224,1.224,0,0,1,.043.2c.02.225-.209.394-.564.446a22.086,22.086,0,0,1-3.348.177c-.856,0-1.716-.024-2.575-.028Z" transform="translate(-195.878 -92.049)" fill="#231f20"/>
      <path id="Path_211" data-name="Path 211" d="M380.7,140.821c-1.033-.028-2.067-.051-3.1-.063-.375,0-.753.028-1.132.02-1.329-.02-2.662-.055-3.991-.059-.592,0-1.183,0-1.771.043a13.647,13.647,0,0,1-2.272,0c-.237-.028-.2-.241,0-.454a1.534,1.534,0,0,1,.982-.473c.765-.055,1.534-.1,2.3-.126s1.542,0,2.319.035c.927.051,1.893-.032,2.839-.043h5.06c.974,0,1.972.024,2.922,0,.749,0,1.491-.087,2.244-.114a4.178,4.178,0,0,1,.5,0c.623.035.832.162.923.457a1.432,1.432,0,0,1,.059.2c.028.225-.245.394-.67.438a33.43,33.43,0,0,1-4.078.189l-3.12-.024Z" transform="translate(-219.63 -29.682)" fill="#231f20"/>
      <g id="Group_14" data-name="Group 14" transform="translate(157.989 113.337)" opacity="0.4">
        <path id="Path_212" data-name="Path 212" d="M394.788,148.436c.359.024.722.028,1.088.024.134,0,.268-.035.394-.035h1.443a5.73,5.73,0,0,0,.639-.043,1.913,1.913,0,0,1,.832,0c.087.024.071.217,0,.414s-.189.394-.335.394a6.27,6.27,0,0,1-1.617.087,6.31,6.31,0,0,0-1.014.079c-.375.024-.757.035-1.136.043h-.706c-.359,0-.718-.039-1.081-.047-.28,0-.564.024-.86,0a1.117,1.117,0,0,1-.2,0c-.241-.043-.284-.174-.237-.446a.333.333,0,0,1,.032-.174.54.54,0,0,1,.355-.394,6.515,6.515,0,0,1,1.329,0c.343,0,.694.043,1.057.039Z" transform="translate(-391.987 -148.304)" fill="#231f20"/>
      </g>
      <g id="Group_15" data-name="Group 15" transform="translate(65.189 138.231)" opacity="0.4">
        <path id="Path_213" data-name="Path 213" d="M159.474,208.386c.359.024.726.028,1.092.024.134,0,.264-.035.394-.035H162.4a5.864,5.864,0,0,0,.643-.043,1.893,1.893,0,0,1,.828,0c.087.024.075.217,0,.414s-.189.394-.335.394a6.4,6.4,0,0,1-1.613.091,5.953,5.953,0,0,0-1.017.075c-.394.024-.753.035-1.136.043h-.706c-.359,0-.718-.039-1.077-.047-.28,0-.568.028-.86,0a1.086,1.086,0,0,1-.2,0c-.245-.043-.288-.174-.241-.446a.333.333,0,0,1,.032-.174.556.556,0,0,1,.355-.394,6.515,6.515,0,0,1,1.329,0c.347,0,.7.043,1.057.039Z" transform="translate(-156.677 -208.254)" fill="#b1d5f8"/>
      </g>
      <path id="Path_214" data-name="Path 214" d="M150.215,161.642c-1.928-1.751-4.437,2.13-2.086,3.092,2.473,1.014,4.082-3.325,1.092-3.218" transform="translate(-85.734 -42.008)" fill="#231f20"/>
      <path id="Path_215" data-name="Path 215" d="M148.984,164.759a2.414,2.414,0,0,1-1.282.083,2.626,2.626,0,0,1-1.12-.521,1.881,1.881,0,0,1-.6-.761,2.161,2.161,0,0,1,.043-1.577,2.91,2.91,0,0,1,.82-1.159,2.658,2.658,0,0,1,1.124-.619,1.72,1.72,0,0,1,.872,0,1.333,1.333,0,0,1,.7.469c.11.138-.075.276-.308.394a1.811,1.811,0,0,1-.639.2,1.069,1.069,0,0,0-.757.15,2.639,2.639,0,0,0-.761.714,1.108,1.108,0,0,0-.193.611.95.95,0,0,0,.15.536,1.384,1.384,0,0,0,1.234.544,1.447,1.447,0,0,0,.836-.394,1.7,1.7,0,0,0,.588-1.313.718.718,0,0,0-.193-.442.813.813,0,0,0-.394-.193l-.2-.032c-.264-.051-.363-.091-.442-.422a.96.96,0,0,0-.055-.2.438.438,0,0,1,.454-.493,1.763,1.763,0,0,1,.848.1,1.7,1.7,0,0,1,.789.639,1.94,1.94,0,0,1,.312.962,2.5,2.5,0,0,1-.118.9,2.879,2.879,0,0,1-.639,1.1,2.721,2.721,0,0,1-1.073.73Z" transform="translate(-84.933 -41.379)" fill="#231f20"/>
      <path id="Path_216" data-name="Path 216" d="M173.975,161.642c-1.928-1.751-4.437,2.13-2.086,3.092,2.473,1.014,4.082-3.325,1.092-3.218" transform="translate(-100.124 -42.008)" fill="#231f20"/>
      <path id="Path_217" data-name="Path 217" d="M172.782,164.759a2.429,2.429,0,0,1-1.286.083,2.626,2.626,0,0,1-1.12-.521,1.838,1.838,0,0,1-.576-.761,2.161,2.161,0,0,1,.039-1.577,2.911,2.911,0,0,1,.82-1.159,2.658,2.658,0,0,1,1.124-.619,1.719,1.719,0,0,1,.872,0,1.333,1.333,0,0,1,.7.469c.11.138-.075.276-.308.394a1.81,1.81,0,0,1-.639.2,1.069,1.069,0,0,0-.757.15,2.579,2.579,0,0,0-.757.714,1.081,1.081,0,0,0-.2.611.95.95,0,0,0,.15.536,1.388,1.388,0,0,0,1.238.544,1.451,1.451,0,0,0,.832-.394,1.7,1.7,0,0,0,.588-1.313.674.674,0,0,0-.193-.442.812.812,0,0,0-.375-.193l-.2-.032c-.26-.051-.363-.091-.442-.422a.959.959,0,0,0-.055-.2.438.438,0,0,1,.454-.493,1.763,1.763,0,0,1,.848.1,1.7,1.7,0,0,1,.789.639,1.941,1.941,0,0,1,.312.962,2.5,2.5,0,0,1-.118.9,2.879,2.879,0,0,1-.639,1.1,2.721,2.721,0,0,1-1.073.73Z" transform="translate(-99.357 -41.379)" fill="#231f20"/>
      <path id="Path_218" data-name="Path 218" d="M69.567,188.464c.315-.28.6-.517.946-.789a11.277,11.277,0,0,1,1.077-.714c.706-.418,1.412-.789,2.118-1.144,1.412-.722,2.824-1.4,4.188-2.118.5-.268.978-.548,1.436-.844a6.808,6.808,0,0,0,1.183-.911c.083-.106.095-.11.106-.17a1.327,1.327,0,0,0,0-.217,2.16,2.16,0,0,0,0-.233.954.954,0,0,0-.146-.394,1.617,1.617,0,0,0-.816-.56,7.177,7.177,0,0,0-2.591-.264,15.851,15.851,0,0,0-2.737.394A13.5,13.5,0,0,0,73,180.9c-.213.075-.426.158-.623.245l-.28.142-.308.177c-1.577.907-3.179,1.759-4.811,2.5-1.053.481-2.118.935-3.2,1.329a24.641,24.641,0,0,1-3.34.919c-.706.142-.682-.162-.189-.615a9.371,9.371,0,0,1,2.638-1.577,54.682,54.682,0,0,0,6.271-2.761c.509-.264,1.01-.532,1.514-.812l.789-.434a6.7,6.7,0,0,1,.927-.394A15.925,15.925,0,0,1,76,178.865a12.226,12.226,0,0,1,3.549.091,4.887,4.887,0,0,1,.935.308,2.883,2.883,0,0,1,.9.607,2.327,2.327,0,0,1,.584,1.01l.063.28.024.28a1.223,1.223,0,0,1,0,.268v.3a2.279,2.279,0,0,1-.114.394,1.633,1.633,0,0,1-.2.335,2.219,2.219,0,0,1-.2.244,2.014,2.014,0,0,1-.205.205,6.74,6.74,0,0,1-.832.651,40.588,40.588,0,0,1-4.212,2.347c-1.408.718-2.839,1.4-4.141,2.2a6.1,6.1,0,0,0-.572.394c-.177.142-.355.284-.536.438-.367.308-.718.623-1.049.95a6.7,6.7,0,0,0-.879,1.041,12.886,12.886,0,0,1-.879,1.219,18.288,18.288,0,0,1-1.577,1.633,11.619,11.619,0,0,1-1.869,1.357,19.138,19.138,0,0,1-4.165,1.775A24.321,24.321,0,0,1,53.8,198.26c-.5,0-1.006,0-1.518-.032a7.861,7.861,0,0,1-1.972-.351,1.475,1.475,0,0,1-.789-.568,1.9,1.9,0,0,1-.209-.3c-.118-.288.678-.461,1.972-.371a28.652,28.652,0,0,0,5.916-.252,19.821,19.821,0,0,0,5.695-1.747,13.552,13.552,0,0,0,1.885-1.116c.142-.106.288-.209.426-.319a5.221,5.221,0,0,0,.394-.343c.28-.26.556-.521.816-.789a10.411,10.411,0,0,0,.722-.808c.221-.272.394-.552.647-.907a8.128,8.128,0,0,1,.836-1.049c.3-.319.607-.615.915-.887Z" transform="translate(-26.458 -52.333)" fill="#231f20"/>
      <path id="Path_219" data-name="Path 219" d="M28.293,146.985a15.274,15.274,0,0,1,3.2-2.307,9.271,9.271,0,0,1,1.913-.749,8.5,8.5,0,0,1,2.043-.268,17.266,17.266,0,0,1,3.873.446c1.246.272,2.429.56,3.648.856,1.763.434,3.549.852,5.281,1.365,1.542.454,3.076.943,4.594,1.518.757.284,1.51.6,2.252.95a10.778,10.778,0,0,1,2.181,1.317,3.735,3.735,0,0,1,.5.5,2.216,2.216,0,0,1,.418.714,1.534,1.534,0,0,1,.024.95,2.059,2.059,0,0,1-.446.749,3.182,3.182,0,0,1-1.238.769,6.309,6.309,0,0,1-1.274.316,9.229,9.229,0,0,1-2.532.039c-.789-.095-1.577-.2-2.4-.347a13.917,13.917,0,0,1-2.457-.639c-.394-.15-.789-.335-1.159-.517l-1.041-.528a.363.363,0,0,0-.229,0l-.438.043c-.3.032-.607.059-.911.083-.607.043-1.215.071-1.826.071a21.59,21.59,0,0,1-3.108-.237c-.26-.032-.517-.079-.789-.126s-.513-.095-.765-.158-.509-.118-.761-.193l-.394-.114-.185-.059-.095-.028a.028.028,0,0,1-.028-.024.394.394,0,0,0-.225.063c-.158.079-.331.181-.5.28a12.184,12.184,0,0,1-1.085.556,7.4,7.4,0,0,1-2.4.643,2.126,2.126,0,0,1-.647,0c-.134-.028-.193-.063-.185-.106a2.98,2.98,0,0,1,.737-.394,9.86,9.86,0,0,0,1.668-.887c.323-.213.666-.45,1.029-.718l.6-.422.189-.118a1.849,1.849,0,0,1,.331-.162.462.462,0,0,1,.177-.051,1.339,1.339,0,0,1,.181-.024c.063,0,.122.028.185,0h.181v0h.047l.217.059.138.035.28.071c.185.047.394.087.564.118l.564.13.568.1a19.4,19.4,0,0,0,2.291.26,21.5,21.5,0,0,0,2.311,0c.394-.024.789-.051,1.183-.091l.6-.059h.162a1.183,1.183,0,0,1,.268,0,1.44,1.44,0,0,1,.292.032h.106l.138.051.789.394c.229.118.454.233.674.335a9.822,9.822,0,0,0,1.317.521,19.836,19.836,0,0,0,2.907.592l.761.1c.241.028.536.071.726.087a8.919,8.919,0,0,0,1.412-.028,5.963,5.963,0,0,0,1.329-.28,2.761,2.761,0,0,0,.517-.252c.122-.1.248-.2.28-.3a.205.205,0,0,0,.032-.205,1.4,1.4,0,0,0-.312-.426,6.01,6.01,0,0,0-1.23-.86,21.511,21.511,0,0,0-3.021-1.321c-2.11-.765-4.3-1.376-6.484-1.972-1.183-.319-2.406-.619-3.616-.911s-2.429-.588-3.624-.824a14.253,14.253,0,0,0-3.549-.3,7.387,7.387,0,0,0-3.226,1.1,17.25,17.25,0,0,0-3.447,2.816,27.79,27.79,0,0,0-2.879,3.494c-2.686,3.762-5.151,7.749-7.69,11.614a99,99,0,0,1-6.156,8.779l-.789.9c-.268.288-.532.584-.82.868a11.607,11.607,0,0,1-2.5,1.972c-.158.083-.292.162-.426.221a3.252,3.252,0,0,1-.371.13,1.68,1.68,0,0,1-.588.1,2.757,2.757,0,0,1-.45,0c-.162-.035,0-.213.438-.485a17.33,17.33,0,0,0,1.779-1.518,32.955,32.955,0,0,0,3.025-3.6c.974-1.266,1.909-2.595,2.832-3.944,1.857-2.7,3.664-5.521,5.478-8.337,1.349-2.1,2.705-4.2,4.121-6.31.714-1.045,1.447-2.082,2.248-3.1.394-.5.824-1.01,1.278-1.495s.9-.919,1.38-1.361Z" transform="translate(0 -31.408)" fill="#231f20"/>
      <path id="Path_220" data-name="Path 220" d="M120.609,171a1.459,1.459,0,0,0-1.238,1.577c.118,1.077,1.625,1.865,2.583,1.972C124.454,174.881,126.919,171.394,120.609,171Z" transform="translate(-68.89 -47.841)" fill="#231f20"/>
      <path id="Path_221" data-name="Path 221" d="M124.445,172.826a2.662,2.662,0,0,1-1.045.9,3.419,3.419,0,0,1-1.227.355,3.1,3.1,0,0,1-.935,0,4.307,4.307,0,0,1-1.416-.611,3.4,3.4,0,0,1-1.092-1.1,1.79,1.79,0,0,1-.189-1.459,1.933,1.933,0,0,1,.489-.789,1.3,1.3,0,0,1,.879-.375c.217,0,.158.2.067.394a4.39,4.39,0,0,1-.248.592,1.057,1.057,0,0,0-.209.434,1.073,1.073,0,0,0-.024.217.584.584,0,0,0,0,.185,1.787,1.787,0,0,0,.615.919,2.721,2.721,0,0,0,1.53.611,2.315,2.315,0,0,0,1.656-.528.927.927,0,0,0,.394-.812c-.075-.426-.639-.808-1.219-.97a5.016,5.016,0,0,0-1.439-.138h-.319a.694.694,0,0,1-.394-.126.7.7,0,0,1-.166-.394,1.917,1.917,0,0,0-.043-.217.394.394,0,0,1,.11-.323.623.623,0,0,1,.394-.221,4.031,4.031,0,0,1,1.5.035,4.638,4.638,0,0,1,1.577.6,2.413,2.413,0,0,1,1.017,1.148,1.794,1.794,0,0,1,.11.9,2.027,2.027,0,0,1-.288.789Z" transform="translate(-68.345 -46.829)" fill="#231f20"/>
      <path id="Path_222" data-name="Path 222" d="M145.785,198.047l-2.962-.071h-1.081c-1.27-.039-2.54-.083-3.81-.1-.564,0-1.128,0-1.688.02a14.647,14.647,0,0,1-2.161-.02c-.229-.028-.2-.2,0-.394a1.577,1.577,0,0,1,.943-.394c.73-.051,1.463-.1,2.2-.122s1.467,0,2.208.039c.887.047,1.806-.028,2.709-.039h4.823c.931,0,1.861.02,2.784,0,.714-.02,1.42-.106,2.134-.154.154,0,.312-.032.473-.032.588-.02.808.11.891.43a1.208,1.208,0,0,1,.055.221c.02.241-.225.438-.623.489a30.639,30.639,0,0,1-3.9.185Z" transform="translate(-77.708 -63.191)" fill="#231f20"/>
      <path id="Path_223" data-name="Path 223" d="M137.578,251.809c-1.361,1.159-2.729,2.323-4.121,3.467-.509.418-1,.864-1.526,1.266-.418.315-.844.627-1.3.923-.233.15-.454.288-.741.438a1.313,1.313,0,0,1-1.183.158l-.343-.185c-.114-.071-.177-.122-.248-.17a3.58,3.58,0,0,1-.394-.3c-.26-.205-.509-.414-.753-.627-.485-.422-.958-.856-1.428-1.286l-2.307-2.055c-.481-.442-.97-.876-1.439-1.329a13.259,13.259,0,0,1-1.313-1.463c-.252-.331-.047-.446.394-.394a3.573,3.573,0,0,1,1.688.718c.994.872,2.019,1.708,2.97,2.623s1.925,1.818,2.891,2.658a4.273,4.273,0,0,0,.394.312l.17.126.067.051a.134.134,0,0,0,.138,0,.95.95,0,0,0,.209-.107,8.8,8.8,0,0,0,.745-.5c.5-.367.99-.789,1.483-1.183,1.392-1.116,2.761-2.279,4.117-3.459L137,250.393l.631-.548.394-.339a1.372,1.372,0,0,1,.489-.308.3.3,0,0,1,.2-.035,2,2,0,0,1,.2.067,1.917,1.917,0,0,1,.394.2c.3.181.426.272.615.394l1.041.726L143.028,252c1.069.737,2.157,1.4,3.23,2.11.233.158.473.3.706.465a3.639,3.639,0,0,1,.848.745.915.915,0,0,1,.138.639,1.849,1.849,0,0,1-.024.276c-.039.13-.174.166-.394.158a1.869,1.869,0,0,1-.868-.3c-1.972-1.148-3.944-2.536-5.916-3.92l-1.124-.718-.544-.394-.268-.181-.051-.035h-.02l-.122.106-1.041.9Z" transform="translate(-69.5 -94.255)" fill="#231f20"/>
      <path id="Path_224" data-name="Path 224" d="M290.652,320.787l-.024-4.5c0-.544-.047-1.088-.051-1.637v-5.77c0-.856-.039-1.716-.075-2.563-.024-.544-.063-1.089-.075-1.637a12.126,12.126,0,0,1,.083-1.645c.039-.339.256-.292.5,0a2.879,2.879,0,0,1,.576,1.428c.122,2.212.2,4.433.146,6.677-.039,1.341.067,2.733.1,4.105l.083,4.523.047,2.788c.028,1.4.043,2.82.095,4.216.039,1.085.154,2.145.217,3.222,0,.241.039.473.043.714a2.366,2.366,0,0,1-.087.958.7.7,0,0,1-.347.394,1.474,1.474,0,0,1-.217.118c-.241.071-.446-.3-.548-.927-.221-1.893-.335-3.908-.394-5.916-.032-1.506-.059-3.017-.091-4.527Z" transform="translate(-241.509 -121.232)" fill="#231f20"/>
      <path id="Path_225" data-name="Path 225" d="M315.668,375.9h-4.589c-.56,0-1.115.043-1.675.047l-5.907.028c-.882,0-1.763.051-2.618.1a21.59,21.59,0,0,1-3.35.047c-.353-.032-.313-.268-.026-.521a2.677,2.677,0,0,1,1.446-.6c.564-.059,1.133-.087,1.7-.11l1.706-.059c1.142-.032,2.283-.032,3.434,0,1.375.043,2.8-.063,4.205-.087,1.543-.024,3.086-.035,4.637-.043H321.8c1.111,0,2.2-.091,3.315-.11h.732c.917.028,1.212.134,1.367.485a1.372,1.372,0,0,1,.1.221c.062.221-.331.457-.979.473-1.931.114-3.967.142-6.048.154l-4.62.028Z" transform="translate(-245.658 -164.711)" fill="#231f20"/>
      <path id="Path_226" data-name="Path 226" d="M446.356,173.637a53.494,53.494,0,0,1-4.062-8.739c-.394-1.112-.765-2.212-1.081-3.329-1.124-3.944-1.936-7.935-3.269-11.744a36.287,36.287,0,0,0-2.1-4.906,8.581,8.581,0,0,0-.939-1.329,7.739,7.739,0,0,0-1.183-1.081,12.765,12.765,0,0,0-2.934-1.526c-.659-.26-.5-.465.158-.536a5.186,5.186,0,0,1,1.341.071,5.387,5.387,0,0,1,1.826.659,7.887,7.887,0,0,1,2.741,2.761c.177.272.319.552.473.836l.394.812c.268.54.493,1.1.737,1.648a47.4,47.4,0,0,1,2.145,6.831c.682,2.761,1.471,5.608,2.311,8.361a44.505,44.505,0,0,0,1.577,4.456c.592,1.459,1.29,2.879,2.015,4.287.919,1.716,1.889,3.415,2.97,5.036a54.094,54.094,0,0,0,5.4,7.008,33.187,33.187,0,0,0,2.406,2.366,27.132,27.132,0,0,0,2.611,2.1l.588.434c.2.134.394.26.615.394.394.248.69.465.943.659s.477.319.643.454a1.822,1.822,0,0,1,.6.71,1.973,1.973,0,0,1,.134.315c.059.292-.714.114-1.972-.5a27.84,27.84,0,0,1-5.127-3.754,47.954,47.954,0,0,1-4.448-4.732,63.288,63.288,0,0,1-5.521-8Z" transform="translate(-257.241 -30.199)" fill="#231f20"/>
      <path id="Path_227" data-name="Path 227" d="M403.564,207.618a8.632,8.632,0,0,0-2.938-2.287,14.489,14.489,0,0,0-3.735-1.144c-.974-.181-1.972-.3-3-.548a13.826,13.826,0,0,1-2.658-.883,5.971,5.971,0,0,1-2.366-1.826,3.548,3.548,0,0,1-.394-.686,2.284,2.284,0,0,1-.245-.84,1.747,1.747,0,0,1,.2-1,2.066,2.066,0,0,1,.647-.69,4.118,4.118,0,0,1,1.432-.58,10.254,10.254,0,0,1,1.392-.213,33.827,33.827,0,0,1,4.815,0c1.014.075,2.023.166,3.033.315.5.079,1.006.158,1.5.284.248.063.5.13.741.205s.481.213.73.308c.308.122.442.28.394.371s-.252.15-.536.225a6.286,6.286,0,0,1-2.7.284c-.994-.126-1.972-.225-2.985-.3s-1.972-.166-2.974-.185a15.74,15.74,0,0,0-2.859.15,3.549,3.549,0,0,0-1.112.355.651.651,0,0,0-.217.177c-.035.039-.055.118-.035.264a2.283,2.283,0,0,0,.248.615l.209.308c.079.1.177.185.264.28a4.776,4.776,0,0,0,1.4.887,16.528,16.528,0,0,0,3.5.954l2.043.371a18.623,18.623,0,0,1,2.094.513,11.571,11.571,0,0,1,3.877,2,10.29,10.29,0,0,1,1.846,1.972c.134.177.248.371.375.556.059.091.122.193.181.3l.154.292c.2.394.394.761.588,1.128a17.94,17.94,0,0,0,4.732,5.837,13.472,13.472,0,0,0,5.151,2.366c.394.106.812.15,1.223.233s.7.114.974.158a6.514,6.514,0,0,1,.663.146,2.023,2.023,0,0,1,.442.158,1.679,1.679,0,0,1,.3.233c.079.075.181.142.229.2s-.047.177-.351.312a3.652,3.652,0,0,1-1.408.2,13.066,13.066,0,0,1-5.541-1.274,15.578,15.578,0,0,1-4.709-3.549,20.542,20.542,0,0,1-2.575-3.526c-.367-.623-.7-1.27-1.017-1.881a7.592,7.592,0,0,0-1.045-1.542Z" transform="translate(-231.715 -63.009)" fill="#231f20"/>
      <path id="Path_228" data-name="Path 228" d="M469.254,269.721c-.588-.789-1.144-1.578-1.7-2.366-.205-.288-.426-.556-.623-.848-.69-1.025-1.341-2.074-2.015-3.1-.3-.457-.635-.891-.966-1.317a13.808,13.808,0,0,1-1.246-1.66c-.213-.394.856-.548,1.392.071a27.213,27.213,0,0,1,2.492,3.494c.438.741,1,1.432,1.507,2.141.556.789,1.112,1.577,1.692,2.319.359.469.718.935,1.1,1.38a22.341,22.341,0,0,0,1.806,1.972c.256.225.524.43.789.635s.56.394.832.568c.118.083.245.158.367.237.454.3.544.473.457.82-.024.075-.036.162-.063.233-.1.245-.394.284-.789.095a11.129,11.129,0,0,1-3.123-2.4c-.686-.718-1.321-1.479-1.929-2.248Z" transform="translate(-276.811 -100.661)" fill="#231f20"/>
      <path id="Path_229" data-name="Path 229" d="M33.818,232.432c.737-.832,1.5-1.652,2.272-2.457.28-.3.54-.611.832-.9a30.867,30.867,0,0,1,3.3-2.812c.521-.394,1.053-.761,1.6-1.112l.552-.323c.193-.091.394-.2.588-.272a3.2,3.2,0,0,1,.647-.181c.11-.02.225-.035.335-.047a3.469,3.469,0,0,1,.351,0c.292.028.213.331.028.639a3.376,3.376,0,0,1-.335.446,1.108,1.108,0,0,1-.205.181.982.982,0,0,1-.245.138,9.727,9.727,0,0,0-1.932,1.069c-.643.434-1.278.915-1.925,1.4a19.554,19.554,0,0,0-2.138,2.07c-.765.789-1.514,1.6-2.244,2.429-.45.509-.9,1.025-1.329,1.55-.655.789-1.321,1.6-1.921,2.429-.473.643-.852,1.333-1.29,2-.1.146-.181.3-.284.438-.394.532-.6.647-.95.54a1.431,1.431,0,0,1-.241-.075c-.241-.122-.248-.454-.035-.876a22.31,22.31,0,0,1,2.41-3.7c.678-.887,1.4-1.751,2.126-2.611Z" transform="translate(-14.225 -79.415)" fill="#231f20"/>
      <path id="Path_230" data-name="Path 230" d="M427.021,238.808v-1.53c0-.185-.039-.367-.035-.556,0-.659.055-1.321.067-1.972,0-.3,0-.592-.02-.879a3.289,3.289,0,0,1,.035-1.128c.032-.118.241-.1.454,0s.442.268.473.473c.059.367.107.737.138,1.108a6.455,6.455,0,0,1-.032,1.136,11.921,11.921,0,0,0,.059,1.4l.028,1.542v.954c0,.481,0,.966.035,1.447,0,.371.11.741.106,1.124v.256a.576.576,0,0,1-.118.343.394.394,0,0,1-.284.106,1.3,1.3,0,0,1-.174,0,.465.465,0,0,1-.394-.355,7.041,7.041,0,0,1-.343-1.932c-.024-.5-.028-1.014-.047-1.522Z" transform="translate(-255.184 -84.436)" fill="#231f20"/>
      <path id="Path_231" data-name="Path 231" d="M430.642,148.141l-.288,3.4c-.035.394-.039.828-.075,1.238-.122,1.459-.26,2.914-.371,4.374-.047.647-.075,1.3-.095,1.94a12.932,12.932,0,0,1-.17,2.469c-.047.256-.217.221-.394,0a1.972,1.972,0,0,1-.45-1.116c0-.844.024-1.692.063-2.536s.138-1.692.241-2.54c.13-1.014.134-2.074.205-3.116.079-1.144.17-2.287.264-3.431l.174-2.11c.079-1.065.181-2.134.241-3.194.047-.82.039-1.633.067-2.453a4.949,4.949,0,0,1,.02-.54c.035-.678.177-.9.454-.994a1.033,1.033,0,0,1,.181-.067c.095-.02.17.047.241.177a1.124,1.124,0,0,1,.114.564c.032,1.443-.043,2.978-.142,4.508-.083,1.14-.162,2.287-.245,3.427Z" transform="translate(-256.293 -29.611)" fill="#231f20"/>
      <path id="Path_232" data-name="Path 232" d="M428.7,239.93c.02-.347,0-.694,0-1.049,0-.13-.039-.256-.043-.394,0-.465-.028-.935-.055-1.4a5.245,5.245,0,0,0-.083-.615,2.054,2.054,0,0,1-.055-.789c0-.083.166-.091.327-.043a.56.56,0,0,1,.394.3,6.051,6.051,0,0,1,.217,1.577,7.135,7.135,0,0,0,.154.982,9.4,9.4,0,0,1,.1,1.112v.69c0,.347-.02.69,0,1.033a6.833,6.833,0,0,0,.126.789,1.318,1.318,0,0,1,.028.174c0,.217-.059.28-.351.312a1.734,1.734,0,0,1-.2,0,.438.438,0,0,1-.461-.241,3.813,3.813,0,0,1-.154-1.408c0-.351.028-.7,0-1.049Z" transform="translate(-256.081 -86.226)" fill="#231f20"/>
      <path id="Path_233" data-name="Path 233" d="M318.68,140.711V152.5l11.48,7c1.14-3.242,3.317-12.127-5.312-16.84C324.848,142.659,320.991,140.254,318.68,140.711Z" transform="translate(-189.601 -30.333)" fill="#231f20"/>
      <path id="Path_234" data-name="Path 234" d="M311.616,277.485l-8.507.043-3.1.043-10.94.024c-1.617,0-3.242.032-4.847.059-2.063.032-4.137.095-6.2.024-1.282-.043.347-.694,2.717-.737,4.208-.071,8.416-.134,12.663-.114,2.54,0,5.182-.083,7.777-.122l8.57-.122,5.273-.071c2.662-.043,5.336-.075,7.978-.146,2.055-.055,4.066-.166,6.1-.252l1.333-.059c1.672-.051,2.208,0,2.571.284a1.377,1.377,0,0,1,.237.189c.158.213-.517.394-1.739.465-3.62.237-7.45.331-11.291.394l-8.586.118Z" transform="translate(-164.703 -110.345)" fill="#231f20"/>
      <path id="Path_235" data-name="Path 235" d="M136.856,295.887l-7.316.067c-.891,0-1.783.055-2.67.055h-9.41c-1.392,0-2.792.024-4.172.055-1.775.02-3.549.059-5.332-.039-.552-.032-.477-.193,0-.363a8.223,8.223,0,0,1,2.366-.394c3.612-.138,7.229-.189,10.881-.181,2.185,0,4.456-.1,6.7-.158l7.367-.138,4.535-.091c2.287-.051,4.587-.095,6.858-.174,1.767-.067,3.494-.2,5.241-.3.394-.02.761-.051,1.152-.067a9.008,9.008,0,0,1,1.53.035,1.12,1.12,0,0,1,.686.323,1.1,1.1,0,0,1,.2.221c.122.256-.442.442-1.487.536-3.108.268-6.4.394-9.7.493l-7.383.142Z" transform="translate(-61.747 -121.115)" fill="#231f20"/>
      <path id="Path_236" data-name="Path 236" d="M234.685,193.772l.1-7.067v-2.579l.166-9.071c.024-1.341.024-2.694,0-4.027,0-1.712,0-3.435.146-5.147.039-.536.118-.465.233,0a13.177,13.177,0,0,1,.371,2.264c.1,1.751.1,3.5.095,5.253s-.028,3.51-.091,5.273c-.071,2.11-.032,4.307-.047,6.464q-.039,3.549-.075,7.122l-.02,4.354c0,2.212-.047,4.433-.035,6.629,0,1.708.071,3.38.106,5.068,0,.371,0,.734.032,1.108,0,1.388-.043,1.83-.3,2.13a1.5,1.5,0,0,1-.158.2c-.162.13-.355-.434-.394-1.451-.162-3.013-.185-6.2-.189-9.386,0-2.366.024-4.752.035-7.13Z" transform="translate(-138.698 -44.177)" fill="#231f20"/>
      <path id="Path_237" data-name="Path 237" d="M478.551,260.268a10.968,10.968,0,0,0,1.309-1.163c.146-.158.256-.347.394-.509a12.173,12.173,0,0,0,1.368-1.869,5.265,5.265,0,0,0,.394-.947c.067-.213.118-.426.185-.635a1.878,1.878,0,0,1,.26-.607c.079-.122.394-.024.647.174s.489.513.418.789a7.37,7.37,0,0,1-1.345,2.623,8.673,8.673,0,0,0-.517.73,7.333,7.333,0,0,1-.517.741,11.432,11.432,0,0,1-1.368,1.428c-.315.256-.623.521-.962.749l-.394.264-.394.237c-.256.17-.54.292-.789.45a9.831,9.831,0,0,1-1.294.635,1.579,1.579,0,0,1-.3.107c-.394.071-.54,0-.663-.3a1.3,1.3,0,0,1-.079-.205.536.536,0,0,1,.272-.6c.655-.418,1.274-.789,1.936-1.136a10.962,10.962,0,0,0,1.4-.974Z" transform="translate(-284.208 -97.42)" fill="#231f20"/>
      <path id="Path_238" data-name="Path 238" d="M484.751,266.929a3.156,3.156,0,0,1-.347-.3l-.217-.209c-.118-.13-.248-.26-.363-.394-.237-.264-.454-.532-.667-.789l-.6-.789a7.749,7.749,0,0,0-.572-.663,4.1,4.1,0,0,0-.572-.5l-.079-.047h0v-.083c.024-.071.047-.122.063-.189l.039-.17v-.134c0-.17-.067-.174.024-.106a.6.6,0,0,0,.217.087,1.971,1.971,0,0,0,.394.071h.028v.071a1.365,1.365,0,0,0,.02.154q.032.185.083.394l.028.1.028.071a.789.789,0,0,0,.059.154,3.729,3.729,0,0,0,.185.394c.394.789.974,1.558,1.463,2.366.347.607,1.487,2.3,1.42,3.155a1.672,1.672,0,0,1-.083.674,1.25,1.25,0,0,1-.394.627,1.081,1.081,0,0,1-.67.221,2.04,2.04,0,0,1-.682-.11,5.1,5.1,0,0,1-1.546-.935c-.13-.1-.26-.209-.394-.319l-.189-.166-.095-.083-.063-.059-.43-.477c-.607-.6-1.183-1.223-1.763-1.842l-.761-.82-.185-.193-.091-.091-.039-.039h0l.055-.075c.02-.024.043-.059.059-.075a.169.169,0,0,0,.047,0,.315.315,0,0,0,.083-.059.245.245,0,0,0,.079-.166v-.067c.118,1.124.032.312.059.56h0a.146.146,0,0,1-.024-.055.236.236,0,0,0-.028-.079c-.079-.122-.063-.051.035-.035a.584.584,0,0,0,.118.028h0v.047a1.069,1.069,0,0,0,.043.17,2.758,2.758,0,0,0,.193.418,8.124,8.124,0,0,0,.56.872c1.085,1.471,2.437,2.8,3.577,4.275.351.45.158.6-.446.5a4.84,4.84,0,0,1-1.116-.367,4.677,4.677,0,0,1-1.246-.907,18.7,18.7,0,0,1-1.972-2.291,10.307,10.307,0,0,1-.864-1.368,3.633,3.633,0,0,1-.351-.97,2.794,2.794,0,0,1-.039-.394.874.874,0,0,1,.028-.264c.028-.091,0-.083.024-.13a1.543,1.543,0,0,0,.055-.162,1.67,1.67,0,0,1,.162-.312,2.156,2.156,0,0,1,.26-.276,1.42,1.42,0,0,1,.276-.177,1.305,1.305,0,0,1,.264-.1l.229-.047h.118a1.135,1.135,0,0,1,.256,0,1.155,1.155,0,0,1,.481.209l.043.035h0c.11.1.146.142.2.193l.264.28.5.54.974,1.057c.323.347.651.69.986,1.021l.469.461a1.417,1.417,0,0,0,.11.146,1.183,1.183,0,0,0,.45.351.209.209,0,0,0,.146,0,.162.162,0,0,0,.083-.1.355.355,0,0,0-.02-.268c-.039-.087-.083-.174-.13-.256l-.075-.126-.107-.17-.887-1.416c-.347-.568-.7-1.132-1.021-1.767a4.56,4.56,0,0,1-.394-1.089,3.992,3.992,0,0,1-.1-.592,2.264,2.264,0,0,1,0-.371,1.258,1.258,0,0,1,.166-.556.934.934,0,0,1,.339-.343.915.915,0,0,1,.237-.1.96.96,0,0,1,.217-.032,1.183,1.183,0,0,1,.544.107,2.6,2.6,0,0,1,.576.347,6.725,6.725,0,0,1,.789.749c.241.256.473.532.678.789s.394.509.6.753a11.549,11.549,0,0,0,.789.856l.174.17a1.266,1.266,0,0,0,.107.1,1.551,1.551,0,0,0,.233.185.789.789,0,0,0,.572.166.611.611,0,0,0,.272-.146.394.394,0,0,0,.1-.28,1.853,1.853,0,0,0-.394-.856,16.66,16.66,0,0,0-1.132-1.361l-.619-.678c-.106-.118-.209-.233-.323-.375a3.986,3.986,0,0,1-.292-.434,8.626,8.626,0,0,1-.461-.864,5.815,5.815,0,0,1-.233-.576,3.6,3.6,0,0,1-.162-.611,2.106,2.106,0,0,1,0-.9,1.065,1.065,0,0,1,.536-.686,2.141,2.141,0,0,1,1.8.059,6.232,6.232,0,0,1,.844.485c.209.138.394.28.6.418.394.276.753.552,1.12.789a7.138,7.138,0,0,0,.95.54,4.022,4.022,0,0,0,1.053.323,2.734,2.734,0,0,1,.667.229c.114.047.256.075.359.126.17.087.2.292-.024.607a1.4,1.4,0,0,1-.592.454,2.232,2.232,0,0,1-1.041.2,4.181,4.181,0,0,1-1.522-.469,9.9,9.9,0,0,1-1.207-.734c-.371-.256-.714-.517-1.049-.757l-.245-.174-.122-.083-.079-.051c-.063-.039-.039,0-.055-.024h-.02a.039.039,0,0,0-.024.071h0l.039.075.122.248c.087.166.181.331.28.485l.11.166.166.189c.394.446.891.946,1.341,1.475l.339.394.166.213.083.11.047.059.071.1a5.328,5.328,0,0,1,.852,1.633,2.173,2.173,0,0,1-.051,1.463,1.936,1.936,0,0,1-.418.615,2.4,2.4,0,0,1-.627.422,2.2,2.2,0,0,1-1.455.134,3.908,3.908,0,0,1-1.534-.832Z" transform="translate(-285.375 -99.327)" fill="#231f20"/>
      <path id="Path_239" data-name="Path 239" d="M19.281,229.343a21.325,21.325,0,0,1-1.771-2.212c-.2-.276-.422-.536-.6-.824a30.73,30.73,0,0,1-1.7-3.155c-.229-.477-.477-.947-.69-1.432a8.482,8.482,0,0,1-.394-.954,2.4,2.4,0,0,1-.134-1.132c.095-.359.315-.114.556.032a1.361,1.361,0,0,1,.678.619c.225.564.532,1.136.789,1.723s.552,1.183.828,1.794a13.46,13.46,0,0,0,1.321,2.043,23.6,23.6,0,0,0,1.656,2.1,13.359,13.359,0,0,0,1.156,1.183A7.327,7.327,0,0,0,23,230.463a4.141,4.141,0,0,0,2.078.189c.45-.024.611,0,.82.229.047.047.1.091.138.134.114.134,0,.43-.418.674a3.273,3.273,0,0,1-2.09.288,5.182,5.182,0,0,1-1.972-.726,11.5,11.5,0,0,1-2.3-1.873Z" transform="translate(-5.063 -76.554)" fill="#231f20"/>
      <path id="Path_240" data-name="Path 240" d="M158.372,130.164l-18.386-.138h-6.7c-7.887-.059-15.775-.126-23.639-.146-3.5,0-7.012,0-10.482.063l-6.7.1c-2.232.02-4.464.047-6.7.024-1.392-.039-1.211-.2-.039-.442a37.467,37.467,0,0,1,5.916-.592c9.11-.174,18.208-.189,27.385-.071,5.49.071,11.2,0,16.82.039l18.536.079,11.4.043c5.754,0,11.535.028,17.246,0,4.441-.035,8.791-.138,13.18-.233l2.887-.067c1.8-.035,2.993-.039,3.829,0a6.026,6.026,0,0,1,1.712.3,5.44,5.44,0,0,1,.513.185c.177.1-.1.2-.757.308a24.887,24.887,0,0,1-3.005.252c-7.848.3-16.126.375-24.451.394l-18.559-.043Z" transform="translate(-47.939 -23.154)" fill="#231f20"/>
      <g id="Group_16" data-name="Group 16" transform="translate(40.583 213.326)" opacity="0.4">
        <path id="Path_241" data-name="Path 241" d="M164.275,394.794l-17.494.134-6.381.063-22.479.039-9.97.043-6.373.028c-2.122,0-4.247,0-6.365-.091-1.325-.047-1.144-.233-.024-.422a35.379,35.379,0,0,1,5.62-.394h26.029c5.221,0,10.648-.091,16-.146l17.617-.2,10.845-.142c5.47-.087,10.971-.166,16.4-.3,4.22-.107,8.357-.276,12.529-.442l2.761-.11c3.431-.126,4.527-.087,5.273.174a3.234,3.234,0,0,1,.493.181c.339.209-1.057.434-3.573.568-7.458.394-15.329.592-23.233.753-5.868.11-11.764.189-17.648.272Z" transform="translate(-94.283 -392.784)" fill="#231f20"/>
      </g>
      <path id="Path_242" data-name="Path 242" d="M57.787,312.2v-5.363l-.032-1.972v-6.9c0-1.017-.024-2.043-.055-3.056a25.814,25.814,0,0,1,.047-3.9c.043-.394.158-.355.331,0a6.619,6.619,0,0,1,.292.7,4.208,4.208,0,0,1,.193,1.014c.158,2.654.15,5.3.075,7.986-.047,1.6.024,3.265.035,4.9l.024,5.4v3.325c0,1.68.02,3.368.063,5.032.035,1.294.122,2.563.189,3.841l.043.84c.039,1.053-.079,1.392-.284,1.621a1.1,1.1,0,0,1-.134.154c-.075.051-.146-.032-.221-.221a3.329,3.329,0,0,1-.205-.872c-.225-2.287-.284-4.7-.339-7.122-.024-1.8-.047-3.609-.071-5.411Z" transform="translate(-31.513 -117.65)" fill="#231f20"/>
      <path id="Path_243" data-name="Path 243" d="M449.642,315.279l.11-5.08v-1.85l.17-6.535v-2.895a27.6,27.6,0,0,1,.122-3.7c.035-.394.17-.331.323,0a5.054,5.054,0,0,1,.245.67c.039.138.079.292.114.454a1.426,1.426,0,0,0,.051.245v.264c.067,1.258.051,2.516.032,3.774s-.063,2.524-.126,3.794c-.075,1.518-.035,3.1-.063,4.65l-.087,5.127c0,1.049-.035,2.1-.055,3.155-.02,1.577-.051,3.187-.043,4.768,0,1.227.067,2.429.106,3.644l.028.789c0,1-.047,1.313-.3,1.522a.883.883,0,0,1-.166.142c-.177.091-.355-.319-.394-1.049-.158-2.173-.174-4.46-.17-6.756q.03-2.556.051-5.127Z" transform="translate(-268.853 -120.207)" fill="#231f20"/>
      <path id="Path_244" data-name="Path 244" d="M184.584,91.4c-.091.631-.7,1.3-1.368.745-.544-.45.1-1.617.745-1.577A.635.635,0,0,1,184.584,91.4Z" transform="translate(-107.436)" fill="#231f20"/>
      <path id="Path_245" data-name="Path 245" d="M130.194,109.111c-.091.631-.7,1.3-1.368.745-.544-.45.1-1.617.741-1.577C130.088,108.294,130.249,108.693,130.194,109.111Z" transform="translate(-74.496 -10.726)" fill="#231f20" opacity="0.6"/>
      <path id="Path_246" data-name="Path 246" d="M393.584,424.316c-.087.635-.7,1.305-1.368.749-.544-.453.1-1.621.745-1.577a.655.655,0,0,1,.623.828Z" transform="translate(-234.012 -198.053)" fill="#231f20"/>
      <path id="Path_247" data-name="Path 247" d="M209.742,104.811c-.055.394-.442.824-.864.473-.347-.284.059-1.025.469-1.006a.394.394,0,0,1,.394.532Z" transform="translate(-123.023 -8.303)" fill="#231f20" opacity="0.4"/>
      <path id="Path_248" data-name="Path 248" d="M328.767,420.842c-.059.394-.442.828-.868.473-.347-.284.063-1.025.469-1.006a.418.418,0,0,1,.4.532Z" transform="translate(-195.105 -196.128)" fill="#231f20" opacity="0.4"/>
      <path id="Path_249" data-name="Path 249" d="M350.03,427.1c-.055.394-.442.828-.868.473-.343-.284.063-1.025.473-1.006C349.963,426.585,350.065,426.838,350.03,427.1Z" transform="translate(-207.984 -199.92)" fill="#231f20" opacity="0.7"/>
      <path id="Path_250" data-name="Path 250" d="M107.29,101.182c-.055.394-.442.828-.868.473-.343-.284.063-1.021.473-1.006a.418.418,0,0,1,.394.532Z" transform="translate(-60.974 -6.106)" fill="#231f20" opacity="0.4"/>
      <path id="Path_251" data-name="Path 251" d="M165.057,396.432q-8.6.13-17.2.181l-6.271.067q-11.042.028-22.112-.071l-9.8-.091-3.131-.032-3.131-.067c-2.09-.039-4.18-.126-6.259-.272-1.3-.087-1.112-.268,0-.422a22.748,22.748,0,0,1,2.283-.193c.943-.032,2.051-.043,3.25-.024,8.5.205,17,.264,25.583.347,5.127.043,10.471-.043,15.72-.1q8.653-.095,17.317-.233,5.324-.091,10.648-.205c5.375-.122,10.782-.256,16.118-.45,4.149-.158,8.211-.394,12.308-.619l2.694-.154c3.368-.193,4.445-.177,5.186.071a3.453,3.453,0,0,1,.489.17c.335.205-1.029.454-3.5.639-7.324.54-15.061.836-22.826,1.077-5.77.166-11.567.292-17.352.394Z" transform="translate(-54.889 -180.174)" fill="#231f20"/>
      <path id="Path_252" data-name="Path 252" d="M280.709,146.747a18.932,18.932,0,0,1,2.066-2.319c.28-.252.536-.532.832-.769a14.281,14.281,0,0,1,3.4-2.067c.548-.217,1.092-.446,1.66-.607a5.038,5.038,0,0,1,.544-.15,3.827,3.827,0,0,1,.552-.118l.568-.047h.568c.174,0,.2.193.024.394a2.142,2.142,0,0,1-.883.521,15.774,15.774,0,0,0-2.019.592c-.659.256-1.305.552-1.952.879a10.293,10.293,0,0,0-2.13,1.577,17.438,17.438,0,0,0-2.019,2.157,14.16,14.16,0,0,0-1.049,1.5,12.277,12.277,0,0,0-1.2,2.477,7.211,7.211,0,0,0-.367,2.027v.438a2.512,2.512,0,0,1-.067.576.528.528,0,0,1-.189.3,1.658,1.658,0,0,1-.126.114c-.075.047-.154.02-.245-.079a1.266,1.266,0,0,1-.248-.509,4.863,4.863,0,0,1,0-2.145,8.624,8.624,0,0,1,.663-2.039,15.451,15.451,0,0,1,1.605-2.725Z" transform="translate(-165.15 -30.343)" fill="#231f20"/>
      <g id="Group_17" data-name="Group 17" transform="translate(25.623 174.27)" opacity="0.4">
        <path id="Path_253" data-name="Path 253" d="M56.35,314.495l.051-5.186V307.42l.091-6.665V297.8a23.663,23.663,0,0,1,.087-3.774c.051-.394.166-.339.331,0a6.485,6.485,0,0,1,.288.682,4.338,4.338,0,0,1,.181.978c.122,2.563.087,5.127,0,7.714-.063,1.55,0,3.155-.02,4.732l-.035,5.221v8.073c0,1.25.095,2.477.146,3.711l.035.816c.028,1.017-.091,1.341-.3,1.578a1.684,1.684,0,0,1-.138.146c-.075.051-.146-.028-.217-.213a2.9,2.9,0,0,1-.193-.844c-.205-2.208-.237-4.539-.26-6.882v-5.229Z" transform="translate(-56.35 -293.752)" fill="#231f20"/>
      </g>
      <g id="Group_18" data-name="Group 18" transform="translate(181.194 175.21)" opacity="0.4">
        <path id="Path_254" data-name="Path 254" d="M451.08,317.072l.193-4.776.032-1.743c.075-2.047.166-4.094.213-6.14.024-.907.02-1.822,0-2.725v-1.739c0-.58.075-1.159.114-1.739.035-.363.17-.315.323,0a4.784,4.784,0,0,1,.248.631,3.788,3.788,0,0,1,.118.426l.051.233.02.245c.075,1.183.055,2.366.036,3.549s-.067,2.366-.138,3.569c-.083,1.428-.055,2.914-.1,4.374l-.166,4.819c-.039.986-.075,1.972-.114,2.962-.051,1.495-.122,3-.146,4.484-.024,1.156,0,2.287.028,3.427v.753c0,.939-.067,1.234-.323,1.432a1.507,1.507,0,0,1-.17.13c-.177.087-.347-.3-.394-.99-.122-2.047-.083-4.2-.028-6.357q.075-2.41.158-4.819Z" transform="translate(-450.826 -297.954)" fill="#231f20"/>
      </g>
      <g id="Group_19" data-name="Group 19" transform="translate(39.605 106.165)" opacity="0.4">
        <path id="Path_255" data-name="Path 255" d="M162.982,131.649l-17.79-.221-6.483-.043c-7.623-.095-15.246-.2-22.874-.245-3.38,0-6.783,0-10.135.024l-6.476.091c-2.157,0-4.314.039-6.468,0-1.345-.043-1.183-.205-.039-.446a35.759,35.759,0,0,1,5.711-.584c8.814-.158,17.617-.134,26.494.02,5.308.091,10.833.067,16.264.11l17.92.166,11.042.087c5.565.032,11.157.071,16.678.047,4.295-.024,8.507-.118,12.75-.209l2.788-.063c1.747-.032,2.9-.032,3.707,0a5.809,5.809,0,0,1,1.656.3,4.73,4.73,0,0,1,.5.185c.17.1-.1.2-.734.308a23.5,23.5,0,0,1-2.91.248c-7.588.292-15.6.351-23.635.331-5.971,0-11.965-.067-17.952-.11Z" transform="translate(-91.802 -130.117)" fill="#231f20"/>
      </g>
      <path id="Path_256" data-name="Path 256" d="M300.74,325.64l.205,18.169h3.821V325.64Z" transform="translate(-244.756 -138.747)" fill="#b1d5f8"/>
      <path id="Path_257" data-name="Path 257" d="M319.21,335.37l.209,14.225h3.818V335.37Z" transform="translate(-253.942 -144.621)" fill="#231f20"/>
      <path id="Path_258" data-name="Path 258" d="M336.54,349.37l.205,8.7h3.822v-8.7Z" transform="translate(-262.084 -154.343)" fill="#231f20" opacity="0.3"/>
      <path id="Path_259" data-name="Path 259" d="M11.474,236.8a1.873,1.873,0,0,1-.229-1.262,3.731,3.731,0,0,1,.6-1.487c.394-.619,1.029-1.333,1.491-1.972l.276-.394a.575.575,0,0,0,.067-.15.26.26,0,0,0-.039-.229c-.059-.063-.154-.039-.221-.028l-.126.032-.075.028c-.043.02-.063.024-.158.071-.3.146-.611.312-.935.477s-.651.335-1.029.489a3.944,3.944,0,0,1-.789.237,1.5,1.5,0,0,1-.789-.1,1.613,1.613,0,0,1-.8-.734,1.881,1.881,0,0,1-.174-1.041,3.549,3.549,0,0,1,.209-.887,7.449,7.449,0,0,1,.3-.7c.245-.493.513-.962.789-1.42s.544-.915.753-1.333a1.577,1.577,0,0,0,.032-1.38.493.493,0,0,0-.335-.272,1.183,1.183,0,0,0-.623.091c-.3.126-.528-.154-.394-.659a1.246,1.246,0,0,1,.73-.757,1.262,1.262,0,0,1,.394-.095,2.166,2.166,0,0,1,.229,0,1.1,1.1,0,0,1,.245.043,1.861,1.861,0,0,1,.485.193,1.621,1.621,0,0,1,.394.343,2.6,2.6,0,0,1,.584,1.522,3.234,3.234,0,0,1-.039.734,2.523,2.523,0,0,1-.079.351l-.047.174c-.024.063-.051.138-.079.193a5.416,5.416,0,0,1-.276.548l-.264.457-.5.832a11.042,11.042,0,0,0-.832,1.633c-.024.063-.047.126-.063.185s-.035.138-.039.11a.288.288,0,0,0-.035.087.225.225,0,0,0,.063.217h0a.2.2,0,0,0,.15.035.368.368,0,0,0,.087,0H10.4l.055-.024a1.115,1.115,0,0,0,.126-.055,11.793,11.793,0,0,0,1.049-.576l.56-.323.146-.083.205-.11c.134-.075.312-.158.465-.229A2.024,2.024,0,0,1,14.8,229.5a1.75,1.75,0,0,1,.659,1.767,2.978,2.978,0,0,1-.327,1.033l-.134.248-.106.17c-.02.035-.032.047-.035.059l-.028.032-.047.063a11.833,11.833,0,0,0-.789.982,1.092,1.092,0,0,0-.174.418.544.544,0,0,0,.106.426c.035.055.063.134.126.162a.209.209,0,0,0,.181,0,1.021,1.021,0,0,0,.316-.209c.3-.272.576-.6.915-.935l.126-.122c.079-.067.154-.142.252-.225a3.357,3.357,0,0,1,.734-.481,1.479,1.479,0,0,1,.789-.138,1.077,1.077,0,0,1,.69.394,2.22,2.22,0,0,1,.327.552c0,.055.055.095.055.158a1.286,1.286,0,0,1,.071.15.978.978,0,0,1,.063.319,2.232,2.232,0,0,1-.091.67c-.043.11-.075.229-.122.339l-.13.312c-.272.635-.58,1.219-.832,1.783-.055.122-.1.241-.138.351a1.388,1.388,0,0,0-.063.252H17.05a.674.674,0,0,0-.245.02.225.225,0,0,0-.106.035h0a.17.17,0,0,0,.035-.1.7.7,0,0,0,.043-.205.856.856,0,0,0,0-.1.28.28,0,0,1,0-.059h.339a.935.935,0,0,1,.592.193,2.611,2.611,0,0,1,.252.185c.114.118.1.284-.039.477a1.456,1.456,0,0,1-.316.3,1.731,1.731,0,0,1-.647.28,1.462,1.462,0,0,1-.2.028,1.77,1.77,0,0,1-.288-.024,1.061,1.061,0,0,1-.394-.185,1.025,1.025,0,0,1-.3-.394,1.006,1.006,0,0,1-.071-.209.341.341,0,0,0-.024-.154c-.024-.051,0-.1,0-.15v-.106a2.063,2.063,0,0,1,.055-.371,6.8,6.8,0,0,1,.343-1c.122-.292.248-.572.371-.844s.245-.552.327-.765c0-.043-.032-.043-.043-.039h0l-.1.1-.351.394-.856.958a10.5,10.5,0,0,1-.828.84,4.316,4.316,0,0,1-.367.3,3.608,3.608,0,0,1-.327.205,1.739,1.739,0,0,1-.954.229,1.471,1.471,0,0,1-.469-.095,1.536,1.536,0,0,1-.469-.288.339.339,0,0,1-.126-.15,2.677,2.677,0,0,1-.426-.509Z" transform="translate(-1.763 -78.814)" fill="#231f20"/>
    </g>
  </g>
</svg>
