<svg xmlns="http://www.w3.org/2000/svg" width="64" height="64" viewBox="0 0 64 64">
  <path id="archive_29dp_000000_FILL0_wght200_GRAD0_opsz24" d="M192-747.231l13.231-13.231-2.831-2.83-8.4,8.4v-18.8h-4v18.8l-8.4-8.4-2.831,2.83Zm-28-37.538v42.307a2.4,2.4,0,0,0,.692,1.77,2.4,2.4,0,0,0,1.77.692h51.076a2.4,2.4,0,0,0,1.77-.692,2.4,2.4,0,0,0,.692-1.77v-42.307ZM167.077-736a6.766,6.766,0,0,1-4.881-2.2,6.766,6.766,0,0,1-2.2-4.881v-42.977a6.417,6.417,0,0,1,.373-2.2,6.073,6.073,0,0,1,1.119-1.9l6.231-7.484A5.537,5.537,0,0,1,169.9-799.4a6.647,6.647,0,0,1,2.8-.6h38.462a6.906,6.906,0,0,1,2.834.6,5.476,5.476,0,0,1,2.212,1.766L222.508-790a5.972,5.972,0,0,1,1.119,1.938,6.753,6.753,0,0,1,.373,2.239v42.746a6.766,6.766,0,0,1-2.2,4.881,6.766,6.766,0,0,1-4.881,2.2Zm-1.554-52.769H218.4l-5.323-6.385a3.059,3.059,0,0,0-.885-.615,2.447,2.447,0,0,0-1.038-.231H172.769a2.447,2.447,0,0,0-1.038.231,3.059,3.059,0,0,0-.885.615ZM192-762.385Z" transform="translate(-160 800)"/>
</svg>
