<svg xmlns="http://www.w3.org/2000/svg" width="56" height="56" viewBox="0 0 56 56">
  <g id="Locations" transform="translate(-376 -246)">
    <rect id="Rectangle_7018" data-name="Rectangle 7018" width="56" height="56" rx="6" transform="translate(376 246)" fill="#e2edf8"/>
    <g id="noun-analytics-7427280" transform="translate(381.75 247.5)">
      <path id="Path_100547" data-name="Path 100547" d="M6.375,65.625a4.084,4.084,0,0,0,4.036,3.5H21.492v2.333H18.576a1.166,1.166,0,1,0,0,2.333H26.74a1.166,1.166,0,1,0,0-2.333H23.824V69.124h9.914a4.084,4.084,0,0,0,4.036-3.5Z" transform="translate(-0.078 -33.297)" fill="#036dd5"/>
      <path id="Path_100548" data-name="Path 100548" d="M33.66,12.5H10.333A4.087,4.087,0,0,0,6.25,16.583V30H37.742V16.583A4.087,4.087,0,0,0,33.659,12.5Zm-2.333,8.748a1.166,1.166,0,0,1-2.333,0v-.513l-4.842,4.842a1.169,1.169,0,0,1-1.651,0l-4.429-4.429L13.617,25.6a1.166,1.166,0,1,1-1.651-1.649l5.278-5.282a1.169,1.169,0,0,1,1.651,0l4.432,4.43,4.186-4.188h-.854a1.166,1.166,0,1,1,0-2.333h3.5a1.166,1.166,0,0,1,1.167,1.163v3.5Z" fill="#036dd5"/>
    </g>
  </g>
</svg>
