<svg xmlns="http://www.w3.org/2000/svg" xmlns:xlink="http://www.w3.org/1999/xlink" width="494.225" height="367.159" viewBox="0 0 494.225 367.159">
  <defs>
    <clipPath id="clip-path">
      <path id="Path_98224" data-name="Path 98224" d="M623.693,334.874l-1.174,10.618a.99.99,0,0,1-.056.4,4.682,4.682,0,0,1-4.642,3.651h-5.233a1.6,1.6,0,0,1-1.6-1.949l2.461-12.783a1.806,1.806,0,0,1,1.75-1.43h7.134a1.342,1.342,0,0,1,1.334,1.494Z" transform="translate(-610.951 -333.38)" fill="#ff725e"/>
    </clipPath>
  </defs>
  <g id="Asset" transform="translate(-635 -3278.693)">
    <rect id="Rectangle_9263" data-name="Rectangle 9263" width="0.799" height="42.558" transform="translate(831.34 3416.404)" fill="#e0e0e0"/>
    <rect id="Rectangle_9264" data-name="Rectangle 9264" width="0.799" height="42.558" transform="translate(817.807 3417.059)" fill="#e0e0e0"/>
    <rect id="Rectangle_9265" data-name="Rectangle 9265" width="0.799" height="42.558" transform="translate(804.273 3416.293)" fill="#e0e0e0"/>
    <rect id="Rectangle_9266" data-name="Rectangle 9266" width="0.799" height="42.558" transform="translate(790.74 3417.059)" fill="#e0e0e0"/>
    <path id="Path_99024" data-name="Path 99024" d="M0,0H97.067V128.025H0Z" transform="translate(790.242 3450.117)" fill="#91b3ff"/>
    <rect id="Rectangle_9268" data-name="Rectangle 9268" width="45.514" height="128.025" transform="translate(841.797 3450.117)" fill="#e0e0e0"/>
    <rect id="Rectangle_9269" data-name="Rectangle 9269" width="8.724" height="21.203" transform="translate(810.59 3467.455)" fill="#f5f5f5"/>
    <rect id="Rectangle_9270" data-name="Rectangle 9270" width="8.724" height="21.203" transform="translate(810.59 3550.438)" fill="#f5f5f5"/>
    <path id="Path_97918" data-name="Path 97918" d="M288.373,297.071c0,.24-11.544.431-25.773.431s-25.781-.192-25.781-.431,11.536-.431,25.781-.431S288.373,296.84,288.373,297.071Z" transform="translate(553.422 3199.904)" fill="#f5f5f5"/>
    <rect id="Rectangle_9271" data-name="Rectangle 9271" width="8.724" height="21.203" transform="translate(810.59 3509.262)" fill="#f5f5f5"/>
    <path id="Path_97919" data-name="Path 97919" d="M288.373,349.411c0,.232-11.544.431-25.773.431s-25.781-.2-25.781-.431,11.536-.431,25.781-.431S288.373,349.172,288.373,349.411Z" transform="translate(553.422 3189.379)" fill="#f5f5f5"/>
    <rect id="Rectangle_9272" data-name="Rectangle 9272" width="8.724" height="21.203" transform="translate(851.463 3467.455)" fill="#f5f5f5"/>
    <rect id="Rectangle_9273" data-name="Rectangle 9273" width="8.724" height="21.203" transform="translate(870.398 3467.455)" fill="#f5f5f5"/>
    <rect id="Rectangle_9274" data-name="Rectangle 9274" width="8.724" height="21.203" transform="translate(851.463 3507.688)" fill="#f5f5f5"/>
    <rect id="Rectangle_9275" data-name="Rectangle 9275" width="8.724" height="21.203" transform="translate(870.398 3507.688)" fill="#f5f5f5"/>
    <rect id="Rectangle_9276" data-name="Rectangle 9276" width="8.724" height="21.203" transform="translate(851.463 3547.922)" fill="#f5f5f5"/>
    <rect id="Rectangle_9277" data-name="Rectangle 9277" width="8.724" height="21.203" transform="translate(870.398 3547.922)" fill="#f5f5f5"/>
    <path id="Path_97920" data-name="Path 97920" d="M301.35,235.356V223.812h9.667v-6.335H324.1V211.82h22.761v22.625Z" transform="translate(540.447 3216.959)" fill="#e0e0e0"/>
    <rect id="Rectangle_9278" data-name="Rectangle 9278" width="0.799" height="42.558" transform="translate(841.367 3409.998)" fill="#e0e0e0"/>
    <rect id="Rectangle_9279" data-name="Rectangle 9279" width="0.799" height="42.558" transform="translate(851.063 3409.998)" fill="#e0e0e0"/>
    <rect id="Rectangle_9280" data-name="Rectangle 9280" width="0.799" height="42.558" transform="translate(864.15 3403.998)" fill="#e0e0e0"/>
    <rect id="Rectangle_9281" data-name="Rectangle 9281" width="0.799" height="42.558" transform="translate(886.24 3403.998)" fill="#e0e0e0"/>
    <rect id="Rectangle_9282" data-name="Rectangle 9282" width="0.799" height="42.558" transform="translate(875.191 3403.998)" fill="#e0e0e0"/>
    <rect id="Rectangle_9283" data-name="Rectangle 9283" width="50.291" height="0.799" transform="translate(791.498 3438.766)" fill="#e0e0e0"/>
    <rect id="Rectangle_9284" data-name="Rectangle 9284" width="73.052" height="0.799" transform="translate(791.602 3428.381)" fill="#e0e0e0"/>
    <path id="Path_97921" data-name="Path 97921" d="M311.851,37.948h.048a.264.264,0,0,0,.24-.264v-.216h0V29.927a4.346,4.346,0,0,0-6.743-3.619l-3.371-.719a2.4,2.4,0,1,0-2.053,3.14l3.491,4.122v4.626h0v.216a.264.264,0,0,0,.16.24.247.247,0,0,0,.1,0h.088l-1.837,28.625h1.031l.407-6.3,3.995,5.225-.839,1.071h.8l.415-.535.407.535h.8l-.8-1.063,4.058-5.233.415,6.319H313.7Zm-3.859,0,2.676,5.592h-5.856l2.756-5.632Zm.719,0h2.1l.336,5.129Zm-2.956,0h1.095l-2.325,4.738.3-4.738Zm-1.438,7.989,3.14,5.081-3.843,6.056Zm.407-.575h6.319l-3.2,5.049Zm6.623.727.735,11.185-3.827-6.255Zm-3.523,5.536,3.763,6.1H303.95Zm-4.2,7.885h8.428l-4.282,5.481Z" transform="translate(541.25 3254.736)" fill="#e0e0e0"/>
    <path id="Path_97922" data-name="Path 97922" d="M317.391,99.2H316.36v6l-4.394-4.849,4.522-4.793h.535V94.09H306.15v1.446h.727l4.378,4.793-4.714,5.049V99.171h-1.9V247.5h1.885v-1.262h9.819v1.27h1.9V99.2Zm-10.514,123.9,4.378,4.794-4.714,5.041v-9.827Zm.711,0h8.181l-4.154,4.442Zm-.559-1.446,4.578-4.9,4.434,4.9Zm-.487-.24v-9.875h.336l4.378,4.793Zm1.047-9.875h8.181l-4.154,4.442Zm-.559-1.446,4.578-4.9,4.434,4.9Zm-.5-.24v-9.875h.336l4.378,4.793Zm1.047-9.875h8.181l-4.154,4.442Zm-.559-1.446,4.578-4.9,4.434,4.9Zm-.487-.248v-9.867h.336l4.378,4.793Zm1.047-9.867h8.181l-4.154,4.45Zm-.559-1.446,4.578-4.9,4.434,4.889Zm-.487-.248v-9.867h.336l4.378,4.793Zm1.047-9.867h8.181l-4.154,4.45Zm-.559-1.446,4.578-4.9,4.434,4.889Zm-.487-.248V165.3h.336l4.378,4.793Zm1.047-9.867h8.181l-4.154,4.45Zm-.559-1.446,4.578-4.9,4.434,4.889Zm-.487-.248v-9.867h.336l4.378,4.793Zm1.047-9.867h8.181l-4.154,4.442Zm-.559-1.446,4.578-4.9,4.434,4.889Zm-.487-.248v-9.875h.336l4.378,4.833Zm1.047-9.875h8.181l-4.154,4.442Zm-.559-1.446,4.578-4.9,4.434,4.9Zm-.487-.24v-9.875h.336l4.378,4.793Zm1.047-9.875h8.181l-4.154,4.442Zm-.559-1.446,4.578-4.9,4.434,4.9Zm-.487-.24v-9.875h.336l4.378,4.793Zm1.047-9.875h8.181L311.6,123.5Zm-.559,114.172,4.578-4.9,4.434,4.889Zm4.937-5.289,4.394-4.7v9.547Zm0-11.56,4.394-4.706v9.587Zm0-11.56,4.394-4.706V209.7Zm0-11.56,4.394-4.706v9.587Zm0-11.56,4.394-4.706v9.587Zm0-11.56,4.394-4.706v9.587Zm0-11.568,4.394-4.7v9.587Zm0-11.56,4.394-4.706v9.587Zm0-11.56,4.394-4.706v9.587Zm0-11.56,4.394-4.706v9.587Zm4.25-6.287h-9.355l4.793-5.1Zm-4.25-5.473,4.394-4.706v9.587Zm-5.425,5.057V107.3h.336l4.378,4.793Zm0,117.5h.336l4.378,4.793-4.714,5.041Zm1.047,0h8.181l-4.154,4.45Zm8.788.128v9.587l-4.394-4.857Zm-4.746-123.032-3.995-4.442H315.8Zm0,128.153,4.434,4.889h-9.02ZM307.62,95.584H315.8l-4.154,4.442Zm8.628,10.314h-9.4l4.793-5.1Z" transform="translate(539.785 3240.633)" fill="#e0e0e0"/>
    <path id="Path_97923" data-name="Path 97923" d="M449.271,89.134,434.994,78.549a4,4,0,0,0-2.4-.8H245.518v1.9h.863V89.47h-.871v1.9H448.592a1.142,1.142,0,0,0,1.142-1.134v-.192a1.143,1.143,0,0,0-.463-.911ZM426.1,84.045,421.4,79.651h9.587Zm5.281-4.066v9L426.454,84.4Zm-10.114.272,4.442,4.154L421.269,88.4Zm-6.727,3.795-4.706-4.394h9.587Zm5.281-4.066v9l-4.9-4.578Zm-10.146.272,4.45,4.154L409.685,88.4Zm-6.719,3.795-4.706-4.394h9.587Zm5.273-4.066v9l-4.9-4.578Zm-10.114.272,4.45,4.154L398.125,88.4ZM391.4,84.045l-4.706-4.394h9.587Zm5.273-4.066v9l-4.9-4.578Zm-10.114.272,4.45,4.154L386.565,88.4Zm-6.727,3.795-4.7-4.394h9.587Zm5.281-4.066v9l-4.9-4.578ZM375,80.251l4.442,4.154L375,88.4Zm-6.727,3.795-4.706-4.394h9.587Zm5.281-4.066v9l-4.9-4.578Zm-10.114.272,4.442,4.154L363.436,88.4Zm-6.727,3.795L352,79.651h9.587Zm5.281-4.066v9l-4.9-4.578Zm-10.114.272,4.442,4.154L351.876,88.4Zm-6.727,3.795-4.706-4.394h9.587Zm5.281-4.066v9l-4.9-4.578Zm-10.122.272,4.45,4.154L340.316,88.4Zm-1.438,8.732-4.9-4.578,4.889-4.426Zm1.446.152,4.793-4.37,5.049,4.706h-9.834Zm11.56,0,4.793-4.37,5.073,4.706h-9.858Zm11.56,0,4.833-4.37,5.041,4.706h-9.866Zm11.568,0,4.793-4.37,5.113,4.706h-9.9Zm11.56,0,4.793-4.37L396.4,89.47h-9.826Zm11.56,0,4.793-4.37,5.041,4.706h-9.826Zm11.552,0,4.793-4.37,5.041,4.706h-9.835Zm11.56,0,4.793-4.37,5.049,4.706h-9.827Zm-82.79-9.483L333.6,84.045l-4.706-4.394h9.587Zm-90.62.6,4.45,4.154L247.835,88.4Zm.136-.6h9.587L252.7,84.045Zm74.074,4.394-4.706-4.394h9.587Zm5.273-4.066v9l-4.9-4.578Zm-10.114.272,4.45,4.154L317.2,88.4Zm-6.719,3.795-4.706-4.394h9.587Zm5.273-4.066v9l-4.9-4.578Zm-10.114.272,4.45,4.154L305.644,88.4Zm-6.727,3.795-4.7-4.394h9.547Zm5.313-4.066v9l-4.9-4.578Zm-10.114.272,4.442,4.154L294.107,88.4Zm-6.727,3.795-4.729-4.394h9.587Zm5.281-4.066v9L287.772,84.4Zm-10.114.272,4.442,4.154L282.547,88.4Zm-6.727,3.795-4.706-4.394H280.7Zm5.233-4.066v9l-4.9-4.578Zm-10.114.272,4.442,4.154L270.939,88.4Zm-6.727,3.795-4.706-4.394h9.587Zm5.281-4.066v9L264.6,84.4Zm-10.122.272,4.45,4.154L259.379,88.4Zm-1.446-.272v9L253.092,84.4Zm1.47,9.156,4.793-4.37,5.041,4.706h-9.835Zm11.56,0,4.793-4.37L280.8,89.47h-9.843Zm11.56,0,4.833-4.37,5.041,4.706h-9.874Zm11.568,0,4.793-4.37,5.041,4.706h-9.835Zm11.56,0,4.793-4.37,5.041,4.706h-9.835Zm11.56,0L322,84.764l5.041,4.706H317.2Zm11.552-8.884,4.45,4.154L328.764,88.4Zm-80.921,8.884,4.793-4.37,5.041,4.706h-9.835Zm80.929.336v-.336l4.793-4.37L338.6,89.47Zm104.049,0V79.675a4.274,4.274,0,0,1,2.221.751l12.99,9.044Z" transform="translate(551.676 3243.92)" fill="#e0e0e0"/>
    <path id="Path_97924" data-name="Path 97924" d="M297.686,77.029c.112,6.327-.1,25.429-.1,25.429h22.944l-.615-3.771a3.2,3.2,0,0,1,0-1.166L321.6,89.2l-4.114-12.783A1.965,1.965,0,0,0,315.637,75H299.659a1.965,1.965,0,0,0-1.973,2.029Z" transform="translate(541.201 3244.473)" fill="#d8e4ff"/>
    <path id="Path_97925" data-name="Path 97925" d="M310.89,77.31V91.283h10.977L323,89.773,318.743,77.31Z" transform="translate(538.529 3244.008)" fill="#f5f5f5"/>
    <path id="Path_97926" data-name="Path 97926" d="M433.217,67.35a1.788,1.788,0,0,1-.519-.12l-1.5-.415-5.776-1.6-21.2-6.056L334.289,38.988l-43.524-12.6.176-.04c-12.455,11.688-23.04,21.5-30.486,28.361-3.715,3.435-6.663,6.128-8.692,7.989-1.007.911-1.8,1.6-2.333,2.069s-.8.663-.8.663l.2-.184c.136-.12.344-.28.6-.527l2.293-2.109,8.62-8.029L290.7,26.11l.08-.08h.1l43.532,12.559L404.3,58.841l21.187,6.192,5.752,1.7,1.494.447C433.049,67.286,433.217,67.35,433.217,67.35Z" transform="translate(551.049 3254.32)" fill="#e0e0e0"/>
    <path id="Path_97927" data-name="Path 97927" d="M235.354,74.346a2.253,2.253,0,0,0-1.766.855c-1.063,1.318-2.668,3.739-2.82,3.995s-.072,8.373,0,12.407a2.253,2.253,0,0,0,2.253,2.229h20.284a2.261,2.261,0,0,0,2.253-2.261V76.591a2.261,2.261,0,0,0-2.253-2.261Z" transform="translate(554.658 3244.607)" fill="#d8e4ff"/>
    <path id="Path_97930" data-name="Path 97930" d="M142.36,109.884h.591l.232-3.6,2.333,2.988-.455.607h.463l.232-.3.232.3h.471l-.471-.607,2.253-2.98.224,3.587h.583L148,93.594h.112a.144.144,0,0,0,.088-.136v-.12h0V90.71l1.981-2.4a1.366,1.366,0,1,0-.607-2.517,1.35,1.35,0,0,0-.559.727l-1.917.423a2.485,2.485,0,0,0-3.843,2.061V93.3h0v.128a.144.144,0,0,0,.136.144h0Zm3.5-16.29,1.6,3.2h-3.331l1.518-3.2ZM143.83,96.51l.184-2.924h1.2Zm3.6-2.916.168,2.692-1.318-2.692h1.15Zm.7,10.873-2.189-3.443,1.782-2.892Zm-2.4-3.787L143.894,97.8h3.6Zm-.216.344-2.2,3.571.415-6.391Zm2.4,3.827h-4.346l2.141-3.467Zm-2.173,4.122-2.4-3.116h4.793Z" transform="translate(605.973 3242.344)" fill="#e0e0e0"/>
    <path id="Path_97931" data-name="Path 97931" d="M140.17,128.468v84.389h1.087v-.719h5.592v.719h1.079V128.468h-1.079V132l-2.684-2.892,2.485-2.748h.415v-.8h-6.184v.8h.3l2.572,2.756-2.5,2.764v-3.411Zm6.671,70.512v5.592l-2.676-2.868,2.485-2.748Zm-2.884,2.525-2.4-2.525h4.658Zm-2.517-3.347,2.517-2.788,2.6,2.788Zm2.724-3.012,2.485-2.748h.192v5.592Zm-.208-.216-2.4-2.533h4.658Zm-2.517-3.355,2.517-2.78,2.6,2.78Zm2.724-3,2.485-2.748h.192v5.592Zm-.208-.224-2.325-2.517h4.658Zm-2.517-3.315,2.517-2.788,2.6,2.788Zm2.724-3.012,2.485-2.748h.192v5.592Zm-.208-.216-2.4-2.533h4.658Zm-2.517-3.355,2.517-2.78,2.6,2.78Zm2.724-3,2.485-2.748h.192v5.592Zm-.208-.224-2.4-2.533h4.658Zm-2.517-3.355,2.517-2.78,2.6,2.788Zm2.724-3,2.485-2.748h.192v5.592Zm-.208-.216-2.4-2.533h4.658Zm-2.517-3.355,2.517-2.788,2.6,2.788Zm2.724-3,2.485-2.748h.192v5.592Zm-.208-.224-2.325-2.6h4.658Zm-2.517-3.355,2.517-2.78,2.6,2.788Zm2.724-3,2.485-2.748h.192v5.592Zm-.208-.216-2.4-2.533h4.658Zm-2.517-3.355,2.517-2.788,2.6,2.788Zm2.724-3,2.485-2.748h.192v5.592Zm-.208-.224-2.4-2.533h4.658Zm-2.517-3.355,2.517-2.78,2.6,2.788Zm2.724-3,2.485-2.748h.192v5.592Zm-.208-.216-2.4-2.533h4.658Zm-2.517,62.435,2.517-2.78,2.6,2.788Zm-.184-.24v-5.441l2.5,2.676Zm0-6.583v-5.433l2.5,2.676Zm0-6.575v-5.441l2.5,2.676Zm0-6.583v-5.433l2.5,2.676Zm0-6.583v-5.433l2.5,2.676Zm0-6.575v-5.441l2.5,2.684Zm0-6.583V159.61l2.5,2.676Zm0-6.575v-5.473l2.5,2.676Zm0-6.583v-5.433l2.5,2.676Zm0-6.575v-5.441l2.5,2.676Zm2.7-9.235,2.708,2.9h-5.329Zm-2.7,2.541v-5.433l2.5,2.676Zm2.908-2.764,2.485-2.74h.192V138.7Zm2.676,75.361-2.676-2.876,2.485-2.74h.192Zm-2.884-3.092-2.4-2.533h4.658Zm-.2.224-2.5,2.756v-5.433ZM141.632,133.1h4.658L144,135.634Zm4.969,78.245H141.48L144,208.559ZM144,128.939l-2.4-2.525h4.658Zm0,.447,2.708,2.9h-5.329Z" transform="translate(606.414 3234.305)" fill="#e0e0e0"/>
    <path id="Path_97932" data-name="Path 97932" d="M38.05,123.238v.1a.655.655,0,0,0,.655.647H154.267v-1.079h-.5v-5.592h.5V116.24H47.813a2.309,2.309,0,0,0-1.374.455l-8.125,6.024A.655.655,0,0,0,38.05,123.238Zm10.7-5.92h5.441l-2.676,2.5Zm2.541,2.724-2.788,2.6v-5.129Zm2.972,2.285-2.525-2.285,2.525-2.4Zm1.071-4.993h5.433l-2.676,2.5Zm2.541,2.708-2.788,2.6v-5.129Zm2.964,2.285-2.525-2.285,2.533-2.4Zm1.071-4.993h5.441l-2.676,2.5Zm2.541,2.708-2.788,2.6v-5.129Zm2.972,2.285-2.525-2.285,2.525-2.4Zm1.071-4.993h5.473l-2.676,2.5Zm2.541,2.708-2.788,2.6v-5.129ZM74,122.328l-2.533-2.285,2.533-2.4Zm1.063-4.993H80.5l-2.676,2.5Zm2.541,2.708-2.78,2.6v-5.129Zm2.972,2.285-2.525-2.285,2.525-2.4Zm1.071-4.993h5.433l-2.676,2.5Zm2.541,2.708-2.788,2.6v-5.129Zm2.972,2.285-2.533-2.285,2.533-2.4Zm1.063-4.993h5.441l-2.676,2.5Zm2.517,2.708-2.78,2.6v-5.129Zm2.972,2.285-2.5-2.285,2.533-2.4Zm1.071-4.993h5.441l-2.684,2.5Zm2.541,2.708-2.788,2.6v-5.129Zm2.972,2.285-2.509-2.285,2.533-2.4Zm.8-4.793,2.788,2.525-2.756,2.588Zm-.8,5.409H94.7l2.868-2.684,2.748,2.493Zm-6.583,0H88.117l2.868-2.684,2.748,2.493Zm-6.575,0H81.542l2.868-2.684,2.748,2.493Zm-6.583,0H74.959l2.868-2.684,2.748,2.493Zm-6.575,0H68.368l2.868-2.684,2.748,2.493Zm-6.583,0H61.8l2.868-2.684,2.748,2.493Zm-6.583,0H55.218l2.876-2.684,2.74,2.493Zm-6.575,0H48.643l2.868-2.684,2.748,2.493ZM101.6,117.35H106.8l-2.676,2.5-2.756-2.5Zm51.322,4.993-2.5-2.3,2.525-2.4Zm-2.748-2.493-2.716-2.517H152.9Zm-42.238-2.5h5.441l-2.668,2.485Zm2.541,2.708-2.788,2.6v-5.129Zm2.972,2.285-2.509-2.3,2.533-2.4Zm1.071-4.993h5.433l-2.676,2.5Zm2.58,2.692-2.788,2.6v-5.129Zm2.964,2.285-2.541-2.285,2.533-2.4Zm1.071-4.993h5.441l-2.676,2.5Zm2.541,2.708-2.788,2.6v-5.129Zm2.972,2.285-2.549-2.285,2.533-2.4Zm1.071-4.993h5.433l-2.676,2.5Zm2.541,2.708-2.772,2.6v-5.129Zm2.964,2.285-2.541-2.285,2.533-2.4Zm1.071-4.993h5.441l-2.66,2.5Zm2.541,2.708-2.788,2.6v-5.129Zm2.972,2.285-2.54-2.285,2.525-2.4Zm1.071-4.993h5.433l-2.676,2.5Zm2.541,2.708-2.788,2.6v-5.129Zm2.964,2.285-2.54-2.285,2.533-2.4Zm3.611-2.285-2.788,2.6v-5.129Zm-3.611,2.884h-5.592l2.876-2.684,2.74,2.493Zm-6.575,0h-5.592l2.868-2.684,2.748,2.493Zm-6.583,0h-5.592l2.876-2.684,2.74,2.493Zm-6.575,0h-5.592l2.868-2.684,2.748,2.493Zm-6.583,0h-5.592l2.868-2.684,2.748,2.493Zm-6.575,0H107.9l2.868-2.684,2.748,2.493Zm-6.583-.6-2.541-2.285,2.533-2.4Zm46.057.6h-5.592l2.868-2.684,2.748,2.493Zm-51.322,0h-.352l2.868-2.684,2.748,2.493v.192Zm-62.61,0,7.406-5.145a2.4,2.4,0,0,1,1.262-.431v5.592Z" transform="translate(626.949 3236.18)" fill="#e0e0e0"/>
    <path id="Path_97933" data-name="Path 97933" d="M150.393,115.848c-.064,3.6.056,14.468.056,14.468H137.387l.352-2.141a1.845,1.845,0,0,0,0-.663l-.959-4.738,2.341-7.286a1.119,1.119,0,0,1,1.063-.8h9.1a1.118,1.118,0,0,1,1.11,1.158Z" transform="translate(607.096 3236.49)" fill="#d8e4ff"/>
    <path id="Path_97934" data-name="Path 97934" d="M144.585,116.01v7.949h-6.247l-.647-.855,2.429-7.094Z" transform="translate(606.912 3236.227)" fill="#f5f5f5"/>
    <path id="Path_97935" data-name="Path 97935" d="M50.27,110.322a1.27,1.27,0,0,1,.28-.1l.847-.264,3.268-.991L66.7,105.417l39.769-11.552,24.766-7.134h.1l.072.072,23.9,22.441a5.682,5.682,0,0,1-.487-.367c-.3-.264-.759-.655-1.334-1.166-1.158-1.039-2.844-2.564-4.961-4.514-4.25-3.9-10.258-9.475-17.376-16.122l.184.048-24.766,7.19L66.831,105.7l-12.079,3.419-3.291.911-.855.224Z" transform="translate(624.49 3242.113)" fill="#e0e0e0"/>
    <path id="Path_97936" data-name="Path 97936" d="M185.742,114.318a1.278,1.278,0,0,1,1,.487c.607.751,1.518,2.133,1.6,2.269s0,4.793,0,7.054a1.286,1.286,0,0,1-1.278,1.27H175.516a1.286,1.286,0,0,1-1.286-1.286V115.6a1.286,1.286,0,0,1,1.286-1.286Z" transform="translate(599.564 3236.568)" fill="#d8e4ff"/>
    <path id="Path_97937" data-name="Path 97937" d="M144.37,89.8a1.718,1.718,0,1,0,.5-1.22A1.718,1.718,0,0,0,144.37,89.8Z" transform="translate(605.568 3241.844)" fill="#ebebeb"/>
    <ellipse id="Ellipse_307" data-name="Ellipse 307" cx="0.959" cy="0.959" rx="0.959" ry="0.959" transform="translate(755.275 3328.422)" fill="#ebebeb"/>
    <rect id="Rectangle_9285" data-name="Rectangle 9285" width="66.485" height="201.837" transform="translate(914.266 3376.211)" fill="#9fb4e0"/>
    <rect id="Rectangle_9286" data-name="Rectangle 9286" width="33.242" height="201.254" transform="translate(947.508 3376.211)" fill="#9fb4e0"/>
    <rect id="Rectangle_9287" data-name="Rectangle 9287" width="23.48" height="20.684" transform="translate(921.863 3355.527)" fill="#ecf2ff"/>
    <rect id="Rectangle_9288" data-name="Rectangle 9288" width="5.592" height="20.684" transform="translate(939.742 3355.527)" fill="#ebebeb"/>
    <path id="Path_97938" data-name="Path 97938" d="M610.37,145.716V144.51h73.971v1.206" transform="translate(298.359 3230.494)" fill="#e0e0e0"/>
    <rect id="Rectangle_9289" data-name="Rectangle 9289" width="5.624" height="11.864" transform="translate(927.391 3385.238)" fill="#fafafa"/>
    <path id="Path_97939" data-name="Path 97939" d="M650.542,177.944c0,.128-7.438.224-16.617.224s-16.625-.1-16.625-.224,7.446-.224,16.625-.224S650.542,177.816,650.542,177.944Z" transform="translate(296.965 3223.816)" fill="#e0e0e0"/>
    <rect id="Rectangle_9290" data-name="Rectangle 9290" width="5.624" height="11.864" transform="translate(960.92 3385.238)" fill="#e0e0e0"/>
    <path id="Path_97940" data-name="Path 97940" d="M692.522,177.944c0,.128-7.446.224-16.625.224s-16.617-.1-16.617-.224,7.438-.224,16.617-.224S692.522,177.816,692.522,177.944Z" transform="translate(288.523 3223.816)" fill="#e0e0e0"/>
    <rect id="Rectangle_9291" data-name="Rectangle 9291" width="5.624" height="11.864" transform="translate(960.92 3408.799)" fill="#e0e0e0"/>
    <path id="Path_97941" data-name="Path 97941" d="M692.522,207.434c0,.128-7.446.232-16.625.232s-16.617-.1-16.617-.232,7.438-.224,16.617-.224S692.522,207.314,692.522,207.434Z" transform="translate(288.523 3217.887)" fill="#e0e0e0"/>
    <rect id="Rectangle_9292" data-name="Rectangle 9292" width="5.624" height="11.864" transform="translate(960.92 3433.07)" fill="#e0e0e0"/>
    <path id="Path_97942" data-name="Path 97942" d="M692.522,237.814c0,.128-7.446.232-16.625.232s-16.617-.1-16.617-.232,7.438-.224,16.617-.224S692.522,237.694,692.522,237.814Z" transform="translate(288.523 3211.777)" fill="#e0e0e0"/>
    <rect id="Rectangle_9293" data-name="Rectangle 9293" width="5.624" height="11.864" transform="translate(960.92 3457.34)" fill="#e0e0e0"/>
    <path id="Path_97943" data-name="Path 97943" d="M692.522,268.194c0,.128-7.446.232-16.625.232s-16.617-.1-16.617-.232,7.438-.224,16.617-.224S692.522,268.074,692.522,268.194Z" transform="translate(288.523 3205.67)" fill="#e0e0e0"/>
    <rect id="Rectangle_9294" data-name="Rectangle 9294" width="5.624" height="11.864" transform="translate(960.92 3480.916)" fill="#e0e0e0"/>
    <path id="Path_97944" data-name="Path 97944" d="M692.522,297.7c0,.128-7.446.232-16.625.232s-16.617-.1-16.617-.232,7.438-.224,16.617-.224S692.522,297.584,692.522,297.7Z" transform="translate(288.523 3199.734)" fill="#e0e0e0"/>
    <rect id="Rectangle_9295" data-name="Rectangle 9295" width="5.624" height="11.864" transform="translate(960.92 3504.588)" fill="#e0e0e0"/>
    <rect id="Rectangle_9296" data-name="Rectangle 9296" width="5.624" height="11.864" transform="translate(960.92 3528.572)" fill="#e0e0e0"/>
    <path id="Path_97945" data-name="Path 97945" d="M692.522,327.342c0,.12-7.446.224-16.625.224s-16.617-.1-16.617-.224,7.438-.232,16.617-.232S692.522,327.214,692.522,327.342Z" transform="translate(288.523 3193.775)" fill="#e0e0e0"/>
    <rect id="Rectangle_9297" data-name="Rectangle 9297" width="5.624" height="11.864" transform="translate(927.391 3409.158)" fill="#fafafa"/>
    <path id="Path_97946" data-name="Path 97946" d="M650.542,207.884c0,.128-7.438.232-16.617.232s-16.625-.1-16.625-.232,7.446-.224,16.625-.224S650.542,207.764,650.542,207.884Z" transform="translate(296.965 3217.795)" fill="#e0e0e0"/>
    <rect id="Rectangle_9298" data-name="Rectangle 9298" width="5.624" height="11.864" transform="translate(927.391 3433.078)" fill="#fafafa"/>
    <path id="Path_97947" data-name="Path 97947" d="M650.542,237.824c0,.128-7.438.232-16.617.232s-16.625-.1-16.625-.232,7.446-.224,16.625-.224S650.542,237.7,650.542,237.824Z" transform="translate(296.965 3211.775)" fill="#e0e0e0"/>
    <rect id="Rectangle_9299" data-name="Rectangle 9299" width="5.624" height="11.864" transform="translate(927.391 3456.998)" fill="#fafafa"/>
    <path id="Path_97948" data-name="Path 97948" d="M650.542,267.764c0,.128-7.438.232-16.617.232s-16.625-.1-16.625-.232,7.446-.224,16.625-.224S650.542,267.644,650.542,267.764Z" transform="translate(296.965 3205.754)" fill="#e0e0e0"/>
    <rect id="Rectangle_9300" data-name="Rectangle 9300" width="5.624" height="11.864" transform="translate(927.391 3480.916)" fill="#fafafa"/>
    <path id="Path_97949" data-name="Path 97949" d="M650.542,297.7c0,.128-7.438.232-16.617.232s-16.625-.1-16.625-.232,7.446-.224,16.625-.224S650.542,297.584,650.542,297.7Z" transform="translate(296.965 3199.734)" fill="#e0e0e0"/>
    <rect id="Rectangle_9301" data-name="Rectangle 9301" width="5.624" height="11.864" transform="translate(927.391 3504.836)" fill="#fafafa"/>
    <path id="Path_97950" data-name="Path 97950" d="M650.542,327.652c0,.12-7.438.224-16.617.224s-16.625-.1-16.625-.224,7.446-.232,16.625-.232S650.542,327.524,650.542,327.652Z" transform="translate(296.965 3193.715)" fill="#e0e0e0"/>
    <rect id="Rectangle_9302" data-name="Rectangle 9302" width="5.624" height="11.864" transform="translate(927.391 3528.756)" fill="#fafafa"/>
    <rect id="Rectangle_9303" data-name="Rectangle 9303" width="98.177" height="186.33" transform="translate(678.35 3391.813)" fill="#91b4ff"/>
    <path id="Path_99023" data-name="Path 99023" d="M0,0H46.033V186.33H0Z" transform="translate(730.492 3391.813)" fill="#848484"/>
    <rect id="Rectangle_9305" data-name="Rectangle 9305" width="8.828" height="21.451" transform="translate(698.93 3409.342)" fill="#f5f5f5"/>
    <rect id="Rectangle_9306" data-name="Rectangle 9306" width="8.828" height="21.451" transform="translate(698.93 3493.283)" fill="#f5f5f5"/>
    <path id="Path_97951" data-name="Path 97951" d="M106.875,224.788c0,.192-11.672.336-26.076.336s-26.068-.144-26.068-.336S66.4,224.46,80.8,224.46,106.875,224.6,106.875,224.788Z" transform="translate(623.596 3214.418)" fill="#f5f5f5"/>
    <rect id="Rectangle_9307" data-name="Rectangle 9307" width="8.828" height="21.451" transform="translate(698.93 3451.637)" fill="#f5f5f5"/>
    <path id="Path_97952" data-name="Path 97952" d="M106.875,277.726c0,.184-11.672.336-26.076.336s-26.068-.152-26.068-.336S66.4,277.39,80.8,277.39,106.875,277.542,106.875,277.726Z" transform="translate(623.596 3203.773)" fill="#f5f5f5"/>
    <rect id="Rectangle_9308" data-name="Rectangle 9308" width="8.828" height="21.451" transform="translate(740.264 3409.342)" fill="#e0e0e0"/>
    <rect id="Rectangle_9309" data-name="Rectangle 9309" width="8.828" height="21.451" transform="translate(759.424 3409.342)" fill="#e0e0e0"/>
    <rect id="Rectangle_9310" data-name="Rectangle 9310" width="8.828" height="21.451" transform="translate(740.264 3450.039)" fill="#e0e0e0"/>
    <rect id="Rectangle_9311" data-name="Rectangle 9311" width="8.828" height="21.451" transform="translate(759.424 3450.039)" fill="#e0e0e0"/>
    <rect id="Rectangle_9312" data-name="Rectangle 9312" width="8.828" height="21.451" transform="translate(740.264 3490.736)" fill="#e0e0e0"/>
    <rect id="Rectangle_9313" data-name="Rectangle 9313" width="8.828" height="21.451" transform="translate(759.424 3490.736)" fill="#e0e0e0"/>
    <rect id="Rectangle_9314" data-name="Rectangle 9314" width="112.941" height="4.666" transform="translate(670.967 3387.301)" fill="#e0e0e0"/>
    <path id="Path_97953" data-name="Path 97953" d="M153.838,166.216c0,.184-21.946.336-49,.336s-49.013-.152-49.013-.336,21.938-.336,49.013-.336S153.838,166.032,153.838,166.216Z" transform="translate(623.375 3226.197)" fill="#ebebeb"/>
    <rect id="Rectangle_9315" data-name="Rectangle 9315" width="0.799" height="42.558" transform="translate(876.646 3415.734)" fill="#e0e0e0"/>
    <rect id="Rectangle_9316" data-name="Rectangle 9316" width="0.799" height="42.558" transform="translate(863.111 3416.387)" fill="#e0e0e0"/>
    <rect id="Rectangle_9317" data-name="Rectangle 9317" width="0.799" height="42.558" transform="translate(849.58 3415.613)" fill="#e0e0e0"/>
    <rect id="Rectangle_9318" data-name="Rectangle 9318" width="0.799" height="42.558" transform="translate(836.045 3416.387)" fill="#e0e0e0"/>
    <path id="Path_99025" data-name="Path 99025" d="M0,0H97.067V128.025H0Z" transform="translate(835.549 3449.447)" fill="#848484"/>
    <rect id="Rectangle_9320" data-name="Rectangle 9320" width="45.514" height="128.025" transform="translate(887.104 3449.447)" fill="#91b3ff"/>
    <rect id="Rectangle_9321" data-name="Rectangle 9321" width="8.724" height="21.203" transform="translate(855.906 3466.775)" fill="#f5f5f5"/>
    <rect id="Rectangle_9322" data-name="Rectangle 9322" width="8.724" height="21.203" transform="translate(855.906 3549.768)" fill="#f5f5f5"/>
    <path id="Path_97954" data-name="Path 97954" d="M570.323,296.231c0,.24-11.536.431-25.773.431s-25.781-.192-25.781-.431,11.544-.431,25.781-.431S570.323,295.96,570.323,296.231Z" transform="translate(316.779 3200.072)" fill="#f5f5f5"/>
    <rect id="Rectangle_9323" data-name="Rectangle 9323" width="8.724" height="21.203" transform="translate(855.906 3508.59)" fill="#f5f5f5"/>
    <path id="Path_97955" data-name="Path 97955" d="M570.323,348.561c0,.24-11.536.431-25.773.431s-25.781-.192-25.781-.431,11.544-.431,25.781-.431S570.323,348.33,570.323,348.561Z" transform="translate(316.779 3189.549)" fill="#f5f5f5"/>
    <rect id="Rectangle_9324" data-name="Rectangle 9324" width="8.724" height="21.203" transform="translate(896.768 3466.775)" fill="#f5f5f5"/>
    <rect id="Rectangle_9325" data-name="Rectangle 9325" width="8.724" height="21.203" transform="translate(915.703 3466.775)" fill="#f5f5f5"/>
    <rect id="Rectangle_9326" data-name="Rectangle 9326" width="8.724" height="21.203" transform="translate(896.768 3507.018)" fill="#f5f5f5"/>
    <rect id="Rectangle_9327" data-name="Rectangle 9327" width="8.724" height="21.203" transform="translate(915.703 3507.018)" fill="#f5f5f5"/>
    <rect id="Rectangle_9328" data-name="Rectangle 9328" width="8.724" height="21.203" transform="translate(896.768 3547.25)" fill="#f5f5f5"/>
    <rect id="Rectangle_9329" data-name="Rectangle 9329" width="8.724" height="21.203" transform="translate(915.703 3547.25)" fill="#f5f5f5"/>
    <path id="Path_97956" data-name="Path 97956" d="M583.3,234.508V222.972h9.667v-6.335h13.086V210.98h22.761v22.625Z" transform="translate(303.803 3217.129)" fill="#e0e0e0"/>
    <rect id="Rectangle_9330" data-name="Rectangle 9330" width="0.799" height="42.558" transform="translate(886.672 3409.316)" fill="#e0e0e0"/>
    <rect id="Rectangle_9331" data-name="Rectangle 9331" width="0.799" height="42.558" transform="translate(896.371 3409.316)" fill="#e0e0e0"/>
    <rect id="Rectangle_9332" data-name="Rectangle 9332" width="0.799" height="42.558" transform="translate(909.463 3403.326)" fill="#e0e0e0"/>
    <rect id="Rectangle_9333" data-name="Rectangle 9333" width="0.799" height="42.558" transform="translate(931.545 3403.326)" fill="#e0e0e0"/>
    <rect id="Rectangle_9334" data-name="Rectangle 9334" width="0.799" height="42.558" transform="translate(920.506 3403.326)" fill="#e0e0e0"/>
    <rect id="Rectangle_9335" data-name="Rectangle 9335" width="50.291" height="0.799" transform="translate(836.813 3438.096)" fill="#e0e0e0"/>
    <rect id="Rectangle_9336" data-name="Rectangle 9336" width="73.052" height="0.799" transform="translate(836.916 3427.709)" fill="#e0e0e0"/>
    <g id="freepik--Floor--inject-10" transform="translate(671.418 3577.973)">
      <path id="Path_97957" data-name="Path 97957" d="M594.664,483.216c0,.12-100.357.208-224.127.208s-224.147-.088-224.147-.208S246.728,483,370.527,483,594.664,483.1,594.664,483.216Z" transform="translate(-182.808 -415.544)" fill="#263238"/>
      <path id="Path_97958" data-name="Path 97958" d="M485.557,398.691c0,.092-102.491.171-228.89.171s-228.917-.079-228.917-.171,102.471-.171,228.917-.171S485.557,398.6,485.557,398.691Z" transform="translate(-27.75 -398.52)" fill="#263238"/>
    </g>
    <g id="freepik--Fence--inject-10" transform="translate(720.203 3538.973)">
      <rect id="Rectangle_9337" data-name="Rectangle 9337" width="1.949" height="35.879" transform="translate(5.624 3.188)" fill="#263238"/>
      <path id="Path_97959" data-name="Path 97959" d="M116.887,351.715a1.973,1.973,0,1,1-1.973-1.965,1.973,1.973,0,0,1,1.973,1.965Z" transform="translate(-108.314 -349.75)" fill="#026dd5"/>
      <rect id="Rectangle_9338" data-name="Rectangle 9338" width="1.949" height="35.879" transform="translate(44.403 3.188)" fill="#263238"/>
      <path id="Path_97960" data-name="Path 97960" d="M165.431,351.715a1.965,1.965,0,1,1-1.965-1.965,1.965,1.965,0,0,1,1.965,1.965Z" transform="translate(-118.08 -349.75)" fill="#026dd5"/>
      <rect id="Rectangle_9339" data-name="Rectangle 9339" width="50.003" height="8.948" transform="translate(0.048 6.655)" fill="#026dd5"/>
      <path id="Path_97961" data-name="Path 97961" d="M112.866,358.08l-.08.144-5.137,8.8h-.439V358.08Z" transform="translate(-107.162 -351.425)" fill="#f5f5f5"/>
      <path id="Path_97962" data-name="Path 97962" d="M127.075,358.08l-5.225,8.948H115.02l2.077-3.555,3.148-5.393Z" transform="translate(-108.733 -351.425)" fill="#f5f5f5"/>
      <path id="Path_97963" data-name="Path 97963" d="M142.893,358.08l-5.233,8.948H130.83l5.233-8.948Z" transform="translate(-111.912 -351.425)" fill="#f5f5f5"/>
      <path id="Path_97964" data-name="Path 97964" d="M158.7,358.08l-5.233,8.948H146.64l5.233-8.948Z" transform="translate(-115.091 -351.425)" fill="#f5f5f5"/>
      <path id="Path_97965" data-name="Path 97965" d="M168.324,358.08v8.948H162.46l5.225-8.948Z" transform="translate(-118.273 -351.425)" fill="#f5f5f5"/>
      <rect id="Rectangle_9340" data-name="Rectangle 9340" width="50.003" height="8.948" transform="translate(0.048 20.476)" fill="#026dd5"/>
      <path id="Path_97966" data-name="Path 97966" d="M112.866,375.38l-.08.144-5.137,8.8h-.439V375.38Z" transform="translate(-107.162 -354.904)" fill="#f5f5f5"/>
      <path id="Path_97967" data-name="Path 97967" d="M127.075,375.38l-5.225,8.948H115.02l2.077-3.555,3.148-5.393Z" transform="translate(-108.733 -354.904)" fill="#f5f5f5"/>
      <path id="Path_97968" data-name="Path 97968" d="M142.893,375.38l-5.233,8.948H130.83l5.233-8.948Z" transform="translate(-111.912 -354.904)" fill="#f5f5f5"/>
      <path id="Path_97969" data-name="Path 97969" d="M158.7,375.38l-5.233,8.948H146.64l5.233-8.948Z" transform="translate(-115.091 -354.904)" fill="#f5f5f5"/>
      <path id="Path_97970" data-name="Path 97970" d="M168.324,375.38v8.948H162.46l5.225-8.948Z" transform="translate(-118.273 -354.904)" fill="#f5f5f5"/>
      <path id="Path_97971" data-name="Path 97971" d="M157.2,367.012v-8.948l.056.048-50,.048h0l.1-.1v8.948l-.1-.1,35.6.048h.048L107.246,367h-.1v-9h.1l50,.048h.056V366.9C157.2,366.964,157.2,367.012,157.2,367.012Z" transform="translate(-107.15 -351.409)" fill="#263238"/>
      <path id="Path_97972" data-name="Path 97972" d="M157.2,384.3v-8.948l.056.048-50,.048h0l.1-.1V384.3l-.1-.1,35.6.048h.048l-35.671.048h-.1V375.25h.1l50,.048h.056v8.852C157.2,384.254,157.2,384.3,157.2,384.3Z" transform="translate(-107.15 -354.878)" fill="#263238"/>
    </g>
    <path id="Path_98204" data-name="Path 98204" d="M549.676,197.974a3.108,3.108,0,0,0-5.648,0l-4.857.4,4.913,9.643,3.076-5.664a3.092,3.092,0,0,0,2.516-4.386Z" transform="translate(288.711 3220.107)" fill="#263238"/>
    <path id="Path_98205" data-name="Path 98205" d="M514.654,179.683l3.2-1.35-7.645-1.925a3.116,3.116,0,1,0-.727,4.146l7.27,4.442Z" transform="translate(335.633 3224.369)" fill="#263238"/>
    <path id="Path_98206" data-name="Path 98206" d="M578.47,275.078v-.064l-52.5-97.843-.3-.551-8.269,3.771,39.618,104.33v.056L580.6,322.253l.471-.072.543-.08.431-.064-4.881-7.749,2.852-7.342,7.542,2.8,3.307,10.985.4-.056.5-.08.439-.064Zm3.4,15.85-9.419-2.4,5.464-10.665Zm-10.25-2.636-11.592-2.972,17.1-7.789Zm4.37-15.043-12.031-3.323,4.937-9.906Zm-12.854-3.555-10.6-2.924,15.595-7.1Zm4.282-12.431L556.325,253.4l3.955-9.443Zm-11.88-4.146-9.739-3.4,13.8-6.287Zm3.2-12.088-10.1-4.362,2.988-8.892Zm-10.873-4.7-8.644-3.731,11.672-5.345Zm2.317-11.257h-.056l-9.068-4.881,2.021-8.389Zm-8.964-16.665-7.925-5.321,1.055-7.494Zm-8.692-5.84-6.391-4.274,7.446-3.4Zm-6.751-22.953,6.727,12.543-6.918-5.832Zm-1.286,15.635L519.607,182.4l5.121,4.314Zm.28-9.587-5.5-4.626,5.7-2.6Zm.8,1.758,6.655,5.592-6.9,3.148Zm.431,11.784,6.391,4.306-1.286,9.2ZM533.18,204l7.7,5.177-9,4.1Zm9.2,7.022-2.1,8.788-7.821-4.234Zm-9.779,5.552,7.47,4.043-2.3,9.587Zm8.237,4.45,8.325,4.506-10.57,4.793ZM538.98,233.4l8.612,3.723-3.411,10.106Zm9.379,4.058,9.627,4.178-13.046,5.944Zm-2.9,13.022,9.763,3.4-4.442,10.61Zm10.562,3.675,10.561,3.683-14.964,6.823ZM551.9,267.448l10.873,3-5.552,11.129Zm11.7,3.2,11.808,3.307-17.392,7.925ZM559.4,285.975l11.848,3.044-4.458,8.7Zm12.679,3.26,9.675,2.485-14.34,6.551Zm4.546,24.127L570.3,303.3l8.948,3.307Zm2.916-7.526-9.978-3.7-.24-.383,13.933-6.343.144.479Zm.8.288,3.459-8.932,3.475,11.5Z" transform="translate(293.086 3224.037)" fill="#263238"/>
    <path id="Path_98207" data-name="Path 98207" d="M507.31,223.253V210.806c0-7.989,0-19.541-.04-33.618V177.1h.088l14.724-1.55h.056l.04.04,38.347,42.846,55.788,62.451,16.817,18.854,4.586,5.161,1.182,1.342c.272.3.4.463.4.463s-.144-.144-.415-.447l-1.206-1.326-4.618-5.129c-3.995-4.466-9.787-10.921-16.945-18.894l-55.843-62.4-38.347-42.862h.088l-14.732,1.534.088-.1c0,14.077,0,25.605-.04,33.618V222.35C507.326,222.877,507.31,223.253,507.31,223.253Z" transform="translate(295.125 3224.254)" fill="#263238"/>
    <rect id="Rectangle_9341" data-name="Rectangle 9341" width="2.349" height="5.041" rx="0.38" transform="translate(841.055 3434.371)" fill="#263238"/>
    <path id="Path_98208" data-name="Path 98208" d="M509.96,225.678h-7.717a.863.863,0,0,1-.863-.863h0a.855.855,0,0,1,.863-.855h7.717a.855.855,0,0,1,.863.831h0a.863.863,0,0,1-.863.887Z" transform="translate(336.254 3214.52)" fill="#263238"/>
    <path id="Path_98209" data-name="Path 98209" d="M507.25,243.125V242.03l-1.134.479a6.946,6.946,0,0,0,0,1.222.392.392,0,0,0,.04.192.584.584,0,0,0,.28.192,2.221,2.221,0,0,1,1.166,1.023,1.342,1.342,0,0,1-.8,1.877,1.39,1.39,0,0,1-1.734-.935c0-.184,0-.455-.264-.479-.383-.04-.543.511-.535.8a2.4,2.4,0,0,0,2.3,2.229,2.437,2.437,0,0,0,1.3-.288,2.517,2.517,0,0,0,1.214-1.718C509.455,244.443,507.13,243.268,507.25,243.125Z" transform="translate(335.674 3210.885)" fill="#263238"/>
    <path id="Path_98210" data-name="Path 98210" d="M507.173,239.16l4.937-11.88a1.6,1.6,0,0,0-1.5-2.261h-9.875a1.6,1.6,0,0,0-1.51,2.261l4.937,11.88a1.6,1.6,0,0,0,3.012,0Z" transform="translate(336.719 3214.305)" fill="#e0e0e0"/>
    <path id="Path_98211" data-name="Path 98211" d="M501.458,226.08l-1.278,1.278v.144l.415,1,2.4-2.4Z" transform="translate(336.496 3214.092)" fill="#026dd5"/>
    <path id="Path_98212" data-name="Path 98212" d="M506.457,226.08h-1.59l-3.547,3.547.463,1.118Z" transform="translate(336.266 3214.092)" fill="#026dd5"/>
    <path id="Path_98213" data-name="Path 98213" d="M510.548,233.076l1.127-2.716-6.855,6.863.463,1.118Z" transform="translate(335.563 3213.23)" fill="#026dd5"/>
    <path id="Path_98214" data-name="Path 98214" d="M509.659,237.17,506,240.837l.12.3a1,1,0,0,0,.6.567l1.814-1.814Z" transform="translate(335.326 3211.863)" fill="#026dd5"/>
    <path id="Path_98215" data-name="Path 98215" d="M509.862,226.08h-1.59l-5.792,5.792.471,1.118Z" transform="translate(336.033 3214.092)" fill="#026dd5"/>
    <path id="Path_98216" data-name="Path 98216" d="M512.344,227.025a1.016,1.016,0,0,0-.168-.471,1,1,0,0,0-.567-.383l-7.989,7.989.463,1.118Z" transform="translate(335.805 3214.074)" fill="#026dd5"/>
    <path id="Path_98217" data-name="Path 98217" d="M667.009,336.55h6.527a2.109,2.109,0,0,1,2.109,2.109v2.908H664.9v-2.908a2.109,2.109,0,0,1,2.109-2.109Z" transform="translate(263.426 3191.877)" fill="#263238"/>
    <path id="Path_98218" data-name="Path 98218" d="M640.948,337.578H639.19V327.1a4.643,4.643,0,0,1,.208-1.366l.887-2.74a.064.064,0,0,1,.12,0l1.039,1.837-.272.855a4.411,4.411,0,0,0-.224,1.4Z" transform="translate(268.596 3194.613)" fill="#263238"/>
    <path id="Path_98219" data-name="Path 98219" d="M673.148,340.772a3.859,3.859,0,0,0-2.876-2.309H626.2v-7.342a1.782,1.782,0,0,0-1.79-1.782H603.116a1.8,1.8,0,0,0-1.7,1.238l-.631,2.021h2.4a1.861,1.861,0,0,1,1.422.655,1.757,1.757,0,0,1,.376,1.494l-2.277,10.8a1.837,1.837,0,0,1-1.8,1.43h-4.53a6.878,6.878,0,0,0,.128,2.061l.248,1.079-11.664,2.3a.479.479,0,0,0-.375.367l-1.1,2.948a1.878,1.878,0,0,0-.152.423h0c-.232.975-.064,2.6.527,2.6h12.495l-.551.615-.7,2.189h79.371C674.578,354.45,674.386,343.752,673.148,340.772Zm-55-6.7-1.174,10.61a.971.971,0,0,1-.056.4,4.674,4.674,0,0,1-4.642,3.651h-5.233a1.6,1.6,0,0,1-1.6-1.957L607.9,333.99a1.8,1.8,0,0,1,1.75-1.43h7.134a1.342,1.342,0,0,1,1.334,1.494Z" transform="translate(279.826 3193.328)" fill="#026dd5"/>
    <path id="Path_98220" data-name="Path 98220" d="M642.675,375.15l-33.778.471c-.216,0-.607-.655-.607-.871v-3.771a.4.4,0,0,1,.4-.4h33.985a.4.4,0,0,1,.4.4v3.771a.408.408,0,0,1-.4.4Z" transform="translate(274.811 3185.033)" fill="#455a64"/>
    <path id="Path_98221" data-name="Path 98221" d="M623.693,334.874l-1.174,10.618a.99.99,0,0,1-.056.4,4.682,4.682,0,0,1-4.642,3.651h-5.233a1.6,1.6,0,0,1-1.6-1.949l2.461-12.783a1.806,1.806,0,0,1,1.75-1.43h7.134a1.342,1.342,0,0,1,1.334,1.494Z" transform="translate(274.275 3192.516)" fill="#ff725e"/>
    <g id="Group_39123" data-name="Group 39123" transform="translate(885.227 3525.895)" clip-path="url(#clip-path)">
      <g id="Group_39122" data-name="Group 39122" transform="translate(-10.223 29.064)" style="mix-blend-mode: screen;isolation: isolate">
        <path id="Path_98222" data-name="Path 98222" d="M677.562,370.607a1.822,1.822,0,0,0-.1-.847H598.271a1.819,1.819,0,0,0-.1.847Z" transform="translate(-598.155 -369.76)" fill="#ff725e"/>
      </g>
      <path id="Path_98223" data-name="Path 98223" d="M604.709,330.548l-4.793,14.8a7.111,7.111,0,0,0-.176,3.659l2.037,9.467h27.7V331.092a1.782,1.782,0,0,0-1.79-1.782H606.379a1.782,1.782,0,0,0-1.67,1.238Z" transform="translate(-608.664 -332.562)" fill="#ff725e"/>
    </g>
    <path id="Path_98225" data-name="Path 98225" d="M612.587,349.54a1.6,1.6,0,0,1-1.6-1.957L613.45,334.8a1.8,1.8,0,0,1,1.75-1.43h7.134a1.342,1.342,0,0,1,1.334,1.494l-1.174,10.61a.971.971,0,0,1-.056.4,4.674,4.674,0,0,1-4.642,3.651Z" transform="translate(274.275 3192.518)" fill="#455a64"/>
    <path id="Path_98226" data-name="Path 98226" d="M599.61,347.8a6.717,6.717,0,0,1,.32-1.534l4.138-12.854h2.4a1.837,1.837,0,0,1,1.422.663,1.734,1.734,0,0,1,.375,1.486l-2.285,10.809a1.822,1.822,0,0,1-1.79,1.43Z" transform="translate(276.557 3192.51)" fill="#455a64"/>
    <path id="Path_98227" data-name="Path 98227" d="M677.515,371.747H598.175c-.607,0-.607-2.2,0-2.2h79.339C678.122,369.55,678.122,371.747,677.515,371.747Z" transform="translate(276.936 3185.242)" fill="#263238"/>
    <path id="Path_98228" data-name="Path 98228" d="M630.066,341.44v1.766c0,1.166-.088,2.82-.152,4.857s-.16,4.5-.248,7.19c0,.679-.056,1.374-.08,2.085a4.793,4.793,0,0,1-.463,2.157,2.98,2.98,0,0,1-1.83,1.374,8.149,8.149,0,0,1-2.333.272l-16.042-.3-4.857-.12-1.318-.04h1.318l4.865.04,16.034.232a8.115,8.115,0,0,0,2.261-.264,2.764,2.764,0,0,0,1.694-1.254,4.657,4.657,0,0,0,.439-2.053c0-.711.056-1.406.088-2.085.112-2.708.216-5.145.3-7.19s.168-3.683.224-4.849c0-.559.056-1,.072-1.326v-.344C630.058,341.48,630.066,341.44,630.066,341.44Z" transform="translate(276.018 3190.895)" fill="#263238"/>
    <path id="Path_98229" data-name="Path 98229" d="M608.738,363.384c-.072,0-.128-2.325-.128-5.193s.056-5.2.128-5.2.12,2.325.12,5.2S608.8,363.384,608.738,363.384Z" transform="translate(274.748 3188.572)" fill="#263238"/>
    <path id="Path_98230" data-name="Path 98230" d="M612.95,329.42a4.727,4.727,0,0,1-.088.751c-.072.479-.184,1.174-.336,2.029-.3,1.71-.759,4.066-1.342,6.655s-1.166,4.913-1.6,6.591c-.232.8-.423,1.518-.567,1.981a3.893,3.893,0,0,1-.24.711,4.784,4.784,0,0,1,.152-.735c.128-.519.288-1.19.487-2,.416-1.686.975-3.995,1.55-6.607s1.071-4.929,1.414-6.631c.168-.8.3-1.5.415-2.021a4.081,4.081,0,0,1,.152-.727Z" transform="translate(274.711 3193.313)" fill="#263238"/>
    <path id="Path_98231" data-name="Path 98231" d="M624.336,358.415a1.284,1.284,0,0,0,.431-.176.8.8,0,0,0,.3-.431.918.918,0,0,0-.08-.671.8.8,0,0,0-.7-.359h-3.443a.711.711,0,0,0-.711.655.727.727,0,0,0,.471.8.8.8,0,0,0,.232.048h3.044a2.038,2.038,0,0,1,.487.048,2.039,2.039,0,0,1-.487.048c-.32,0-.8,0-1.334.04l-.975.088h-.8a.991.991,0,0,1,0-1.973h3.443a.9.9,0,0,1,.839.479.8.8,0,0,1,.112.415.977.977,0,0,1-.048.375.879.879,0,0,1-.367.471.8.8,0,0,1-.36.112C624.376,358.439,624.336,358.423,624.336,358.415Z" transform="translate(272.48 3187.859)" fill="#fff"/>
    <path id="Path_98232" data-name="Path 98232" d="M687.414,344.588c0,.064-3.2.12-7.238.12s-7.246-.056-7.246-.12,3.244-.128,7.246-.128S687.414,344.516,687.414,344.588Z" transform="translate(261.811 3190.287)" fill="#263238"/>
    <path id="Path_98233" data-name="Path 98233" d="M687.414,346.39c0,.064-3.2.12-7.238.12s-7.246-.056-7.246-.12,3.244-.12,7.246-.12S687.414,346.326,687.414,346.39Z" transform="translate(261.811 3189.922)" fill="#263238"/>
    <path id="Path_98234" data-name="Path 98234" d="M687.414,348.19c0,.072-3.2.128-7.238.128s-7.246-.056-7.246-.128,3.244-.12,7.246-.12S687.414,348.126,687.414,348.19Z" transform="translate(261.811 3189.561)" fill="#263238"/>
    <path id="Path_98235" data-name="Path 98235" d="M687.414,349.97c0,.064-3.2.12-7.238.12s-7.246-.056-7.246-.12,3.244-.12,7.246-.12S687.414,349.922,687.414,349.97Z" transform="translate(261.811 3189.203)" fill="#263238"/>
    <path id="Path_98236" data-name="Path 98236" d="M687.414,351.8c0,.072-3.2.12-7.238.12s-7.246-.048-7.246-.12,3.244-.12,7.246-.12S687.414,351.736,687.414,351.8Z" transform="translate(261.811 3188.834)" fill="#263238"/>
    <path id="Path_98237" data-name="Path 98237" d="M687.414,353.61c0,.064-3.2.12-7.238.12s-7.246-.056-7.246-.12,3.244-.12,7.246-.12S687.414,353.538,687.414,353.61Z" transform="translate(261.811 3188.471)" fill="#263238"/>
    <path id="Path_98238" data-name="Path 98238" d="M687.414,355.41c0,.072-3.2.12-7.238.12s-7.246-.048-7.246-.12,3.244-.12,7.246-.12S687.414,355.346,687.414,355.41Z" transform="translate(261.811 3188.109)" fill="#263238"/>
    <path id="Path_98239" data-name="Path 98239" d="M586.119,393.332c-4.354,0-7.989-4.194-7.989-8.54a8.261,8.261,0,0,1,8.181-7.989l70.024-3.2a9.435,9.435,0,0,1,8.788,4.9,9.34,9.34,0,0,1,.8,6.5c-1.829,8.46-8.884,8.357-11.616,8.173S586.119,393.332,586.119,393.332Z" transform="translate(280.877 3184.43)" fill="#263238"/>
    <ellipse id="Ellipse_308" data-name="Ellipse 308" cx="6.525" cy="6.525" rx="6.525" ry="6.525" transform="translate(857.705 3562.068) rotate(-21.161)" fill="#455a64"/>
    <circle id="Ellipse_309" data-name="Ellipse 309" cx="8.46" cy="8.46" r="8.46" transform="translate(924.781 3567.838) rotate(-45)" fill="#455a64"/>
    <path id="Path_98240" data-name="Path 98240" d="M658.783,375.62h-.176l-.535.056-2.061.208c-1.782.176-4.37.407-7.574.671-6.391.527-15.251,1.134-25.038,1.6s-18.662.6-25.086.639h-7.606l7.606-.072c6.391-.08,15.283-.28,25.07-.711s18.638-1.015,25.038-1.494l7.581-.6,2.061-.16h.535Z" transform="translate(278.908 3184.02)" fill="#455a64"/>
    <path id="Path_98241" data-name="Path 98241" d="M656.129,395.44c0,.064-15.227.12-34.009.12s-34.009-.056-34.009-.12,15.227-.12,34.009-.12S656.129,395.368,656.129,395.44Z" transform="translate(418.867 3180.059)" fill="#455a64"/>
    <path id="Path_98242" data-name="Path 98242" d="M602.088,362.8a14.023,14.023,0,0,1-.487-1.646c-.28-1.015-.7-2.4-1.118-3.995a33.556,33.556,0,0,1-.871-4.058,8.793,8.793,0,0,1-.072-1.254,1.543,1.543,0,0,1,.056-.463,10.772,10.772,0,0,0,.184,1.694c.184,1.039.519,2.461.943,3.995s.8,2.98,1.047,3.995c.12.519.216.935.264,1.23a1.952,1.952,0,0,1,.056.5Z" transform="translate(276.57 3188.896)" fill="#fff"/>
    <path id="Path_98243" data-name="Path 98243" d="M668.9,389.536a2.052,2.052,0,0,1-.487-.32,5.7,5.7,0,0,1-1.087-1.15,6.582,6.582,0,0,1-1.023-2.125,6.392,6.392,0,0,1-.128-2.876,6.5,6.5,0,0,1,2.94-4.21,5.6,5.6,0,0,1,1.446-.655,2.4,2.4,0,0,1,.567-.12,9.586,9.586,0,0,0-1.917.919,6.742,6.742,0,0,0-1.662,1.6,6.449,6.449,0,0,0-1.134,2.533,6.319,6.319,0,0,0,.1,2.78,6.92,6.92,0,0,0,.943,2.085,9.1,9.1,0,0,0,1.438,1.542Z" transform="translate(263.191 3183.525)" fill="#fafafa"/>
    <path id="Path_98244" data-name="Path 98244" d="M621.734,342.66a45.323,45.323,0,0,1-3.635,2.772,41.789,41.789,0,0,1-3.779,2.588,43.837,43.837,0,0,1,3.635-2.78,42.615,42.615,0,0,1,3.779-2.58Z" transform="translate(273.598 3190.65)" fill="#fff"/>
    <path id="Path_98245" data-name="Path 98245" d="M622.663,340.18a31.541,31.541,0,0,1-3.2,2.4,32.925,32.925,0,0,1-3.308,2.165,31.829,31.829,0,0,1,3.2-2.4,34.743,34.743,0,0,1,3.307-2.165Z" transform="translate(273.227 3191.148)" fill="#fff"/>
    <path id="Path_98246" data-name="Path 98246" d="M606.387,344a8.568,8.568,0,0,1-1.6,1.27,9.019,9.019,0,0,1-1.75,1.071,9.15,9.15,0,0,1,1.6-1.27,8.883,8.883,0,0,1,1.75-1.071Z" transform="translate(275.865 3190.381)" fill="#fff"/>
    <path id="Path_98247" data-name="Path 98247" d="M607.449,341.69a12.537,12.537,0,0,1-1.838,1.6,12.1,12.1,0,0,1-1.981,1.382,12.778,12.778,0,0,1,1.83-1.6,11.985,11.985,0,0,1,1.989-1.382Z" transform="translate(275.748 3190.844)" fill="#fff"/>
    <path id="Path_98248" data-name="Path 98248" d="M625.371,355.81a28.279,28.279,0,0,1-5.2,0A28.274,28.274,0,0,1,625.371,355.81Z" transform="translate(272.422 3188.029)" fill="#fff"/>
    <path id="Path_98249" data-name="Path 98249" d="M585.339,391.7a2.02,2.02,0,0,1-.575-.12,5.338,5.338,0,0,1-1.422-.7,5.881,5.881,0,0,1-1.654-1.694,5.783,5.783,0,0,1-.951-2.732,5.856,5.856,0,0,1,.551-2.844,6.111,6.111,0,0,1,1.406-1.909,5.15,5.15,0,0,1,1.31-.895,1.75,1.75,0,0,1,.551-.2,7.988,7.988,0,0,0-1.75,1.214,6.183,6.183,0,0,0-1.31,1.877,5.465,5.465,0,0,0,.376,5.369,6.1,6.1,0,0,0,1.6,1.67,7.915,7.915,0,0,0,1.869.967Z" transform="translate(280.354 3183.02)" fill="#fafafa"/>
    <path id="Path_98250" data-name="Path 98250" d="M596.085,362.16c0,.064-2.517.12-5.592.12s-5.632-.056-5.632-.12,2.525-.12,5.632-.12S596.085,362.088,596.085,362.16Z" transform="translate(279.521 3186.752)" fill="#fff"/>
    <path id="Path_98251" data-name="Path 98251" d="M531.573,186.637,527.3,177.53a5.592,5.592,0,0,0-7.47-2.724h0a5.593,5.593,0,0,0-2.724,7.478l4.242,9.108a.344.344,0,0,0,.447.168l9.587-4.466a.344.344,0,0,0,.192-.455Z" transform="translate(333.201 3224.51)" fill="#026dd5"/>
    <g id="Group_40130" data-name="Group 40130" transform="translate(577.514 -1454.728)">
      <path id="Path_99018" data-name="Path 99018" d="M270.262,320.413H168.185a26.955,26.955,0,0,1-26.925-26.925V26.925A26.955,26.955,0,0,1,168.185,0H270.262a26.955,26.955,0,0,1,26.925,26.925V293.487A26.955,26.955,0,0,1,270.262,320.413Z" transform="translate(253.312 4779.499)"/>
      <path id="Path_99019" data-name="Path 99019" d="M281.274,324.871H175.06a20.536,20.536,0,0,1-20.71-20.3V33.1a20.536,20.536,0,0,1,20.71-20.3H281.274a20.536,20.536,0,0,1,20.71,20.3V304.567A20.536,20.536,0,0,1,281.274,324.871Z" transform="translate(244.451 4770.928)" fill="#fff"/>
      <path id="Path_99020" data-name="Path 99020" d="M284.146,34.018H255.239a6.919,6.919,0,0,1,0-13.838h28.907a6.919,6.919,0,1,1,0,13.838Z" transform="translate(202.979 4769.985)"/>
      <path id="Path_99021" data-name="Path 99021" d="M244.075,279.12v19H189.194a9.5,9.5,0,1,1,0-19Z" transform="translate(235.331 4588.027)" fill="#026dd5"/>
      <path id="Path_99022" data-name="Path 99022" d="M285.488,279.12H189.194a9.5,9.5,0,1,0,0,19h96.294a9.5,9.5,0,1,0,0-19Zm0,15.831H189.194a6.33,6.33,0,1,1,0-12.659h96.294a6.33,6.33,0,1,1,0,12.659Z" transform="translate(235.331 4588.027)" fill="#d8e4ff"/>
      <g id="Group_40129" data-name="Group 40129" transform="translate(398.72 4925.939)">
        <path id="Path_98995" data-name="Path 98995" d="M266.6,120.582l-.3-.3,12.932-12.932H304.3l12.644-12.905H341.68l12.481-12.578h58.1v.421H354.336L341.855,94.868H317.12l-12.644,12.905H279.411Z" transform="translate(-266.305 -80.003)" fill="#d8e4ff"/>
        <ellipse id="Ellipse_329" data-name="Ellipse 329" cx="7.785" cy="7.785" rx="7.785" ry="7.785" transform="translate(43.274 6.944)" fill="#fff"/>
        <ellipse id="Ellipse_330" data-name="Ellipse 330" cx="2.104" cy="2.104" rx="2.104" ry="2.104" transform="translate(85.987)" fill="#cbcbcb"/>
        <ellipse id="Ellipse_331" data-name="Ellipse 331" cx="2.104" cy="2.104" rx="2.104" ry="2.104" transform="translate(143.426)" fill="#cbcbcb"/>
        <ellipse id="Ellipse_332" data-name="Ellipse 332" cx="2.104" cy="2.104" rx="2.104" ry="2.104" transform="translate(114.814)" fill="#cbcbcb"/>
        <path id="Path_98996" data-name="Path 98996" d="M594.982,306.491a8,8,0,1,1,8-8A8,8,0,0,1,594.982,306.491Zm0-15.57a7.575,7.575,0,1,0,7.575,7.575A7.575,7.575,0,0,0,594.982,290.921Z" transform="translate(-543.923 -283.766)" fill="#3f3d56"/>
        <ellipse id="Ellipse_333" data-name="Ellipse 333" cx="5.562" cy="5.562" rx="5.562" ry="5.562" transform="translate(45.496 9.166)" fill="#026dd5"/>
        <path id="Path_98997" data-name="Path 98997" d="M500.206,136.554l-1.665-2.141.968-.753.788,1.014,2.663-2.811.89.844Z" transform="translate(-449.676 -119.478)" fill="#fff"/>
        <ellipse id="Ellipse_334" data-name="Ellipse 334" cx="7.785" cy="7.785" rx="7.785" ry="7.785" transform="translate(4.978 19.778)" fill="#fff"/>
        <path id="Path_98998" data-name="Path 98998" d="M412.982,367.491a8,8,0,1,1,8-8A8,8,0,0,1,412.982,367.491Zm0-15.57a7.575,7.575,0,1,0,7.575,7.575A7.575,7.575,0,0,0,412.982,351.921Z" transform="translate(-400.217 -331.932)" fill="#3f3d56"/>
        <ellipse id="Ellipse_335" data-name="Ellipse 335" cx="5.562" cy="5.562" rx="5.562" ry="5.562" transform="translate(7.204 22.001)" fill="#026dd5"/>
        <path id="Path_98999" data-name="Path 98999" d="M318.206,197.554l-1.665-2.141.968-.753.788,1.014,2.663-2.811.89.844Z" transform="translate(-305.971 -167.643)" fill="#fff"/>
      </g>
      <g id="Group_40128" data-name="Group 40128" transform="translate(421.072 4998.308)">
        <path id="Path_99014" data-name="Path 99014" d="M269.131,208.854h-103.2V163.66h103.2Z" transform="translate(-165.934 -163.66)" fill="#fff"/>
        <path id="Path_99015" data-name="Path 99015" d="M269.131,208.854h-103.2V163.66h103.2Zm-102.2-1h101.2v-43.2h-101.2Z" transform="translate(-165.934 -163.66)" fill="#d8e4ff"/>
        <path id="Path_99016" data-name="Path 99016" d="M113.059,71.453,95.341,58.182,77.865,71.271l-.4-.534L95.341,57.348l17.633,13.208L130.5,51.38l.07-.028,17.676-7.122.249.619-17.605,7.093Z" transform="translate(-61.418 -35.068)" fill="#d8e4ff"/>
        <ellipse id="Ellipse_342" data-name="Ellipse 342" cx="2.001" cy="2.001" rx="2.001" ry="2.001" transform="translate(14.246 33.936)" fill="#026dd5"/>
        <ellipse id="Ellipse_343" data-name="Ellipse 343" cx="2.001" cy="2.001" rx="2.001" ry="2.001" transform="translate(31.921 20.929)" fill="#026dd5"/>
        <ellipse id="Ellipse_344" data-name="Ellipse 344" cx="2.001" cy="2.001" rx="2.001" ry="2.001" transform="translate(49.597 33.936)" fill="#026dd5"/>
        <ellipse id="Ellipse_345" data-name="Ellipse 345" cx="2.001" cy="2.001" rx="2.001" ry="2.001" transform="translate(67.274 14.593)" fill="#026dd5"/>
        <ellipse id="Ellipse_346" data-name="Ellipse 346" cx="2.001" cy="2.001" rx="2.001" ry="2.001" transform="translate(84.949 7.255)" fill="#026dd5"/>
      </g>
      <text id="Tracking_Process_" data-name="Tracking Process " transform="translate(412.572 4829.059)" font-size="14" font-family="GothamPro-Medium, Gotham Pro" font-weight="500"><tspan x="0" y="10">Tracking Process </tspan></text>
    </g>
  </g>
</svg>
