<svg xmlns="http://www.w3.org/2000/svg" width="37.169" height="38.544" viewBox="0 0 37.169 38.544">
  <g id="noun-document-7460416" transform="translate(-6.25 -6.25)" opacity="0.73">
    <path id="Path_1826" data-name="Path 1826" d="M26.9,44.794H6.94a.691.691,0,0,1-.69-.688V6.938a.691.691,0,0,1,.69-.688H33.095a.689.689,0,0,1,.688.688V37.911a.622.622,0,0,1-.012.126.724.724,0,0,1-.091.239.555.555,0,0,1-.1.12l-6.194,6.194a.676.676,0,0,1-.487.2ZM32.4,37.218V7.627H7.628V43.418H26.212V37.911a.689.689,0,0,1,.687-.688s3.887-.009,5.506-.005Zm-4.816,5.226,3.849-3.851c-1.258,0-2.927.005-3.849.005Zm-17.9-31.09-.487-.489a.688.688,0,0,1,.829-1.082.71.71,0,0,1,.346-.091h4.13a.681.681,0,0,1,.322.081l1.256-1.256a.688.688,0,0,1,.972.974L15.2,11.354v3.158a.689.689,0,0,1-.688.687h-4.13a.688.688,0,0,1-.688-.687Zm3.844-.286H11.353l1.093,1.091Zm-2.469,1.66v1.093h1.377a.683.683,0,0,1-.485-.2Zm1.38,1.093h1.373V12.729l-.89.89a.682.682,0,0,1-.484.2Zm5.5,6.194a.688.688,0,1,1,0-1.377H28.965a.688.688,0,0,1,0,1.377Zm0,2.753a.688.688,0,0,1,0-1.377H28.965a.688.688,0,0,1,0,1.377Zm0-8.258a.689.689,0,0,1,0-1.378H28.965a.689.689,0,0,1,0,1.378Zm0,13.764a.687.687,0,1,1,0-1.375H28.965a.687.687,0,0,1,0,1.375ZM15.2,18.639v4.13a.69.69,0,0,1-.688.688h-4.13a.689.689,0,0,1-.688-.688v-4.13a.69.69,0,0,1,.688-.69h4.13A.691.691,0,0,1,15.2,18.639Zm-1.378.688H11.068V22.08h2.753Zm4.131-7.573a.687.687,0,1,1,0-1.375H28.965a.687.687,0,0,1,0,1.375ZM15.2,26.9v4.128a.689.689,0,0,1-.688.688h-4.13a.688.688,0,0,1-.688-.688V26.9a.688.688,0,0,1,.688-.69h4.13A.69.69,0,0,1,15.2,26.9Zm-1.378.687H11.068v2.751h2.753Zm4.131,3.441a.688.688,0,1,1,0-1.377H28.965a.688.688,0,0,1,0,1.377ZM36.536,38.8V6.939a.688.688,0,0,1,.687-.688h5.506a.691.691,0,0,1,.69.688V38.8a.694.694,0,0,1-.077.317l-2.753,5.31a.688.688,0,0,1-1.222,0l-2.753-5.31a.673.673,0,0,1-.077-.317Zm5.506-25.663V7.627h-4.13v5.506Zm0,24.778v-23.4h-4.13v23.4ZM38.253,39.29c.588,1.129,1.722,3.323,1.722,3.323L41.7,39.29Z" fill="#016dd5" fill-rule="evenodd"/>
  </g>
</svg>
