<svg xmlns="http://www.w3.org/2000/svg" width="348.392" height="502" viewBox="0 0 348.392 502">
  <g id="Brand_manager_app" data-name="Brand manager app" transform="translate(0 39.787)">
    <g id="Group_38292" data-name="Group 38292" transform="translate(-1450.804 -1630.787)">
      <path id="Path_95222" data-name="Path 95222" d="M266.472,317a48,48,0,1,1,48-48,48,48,0,0,1-48,48Zm0-94a46,46,0,1,0,46,46,46,46,0,0,0-46-46Z" transform="translate(1441.528 1370)" fill="#deefff"/>
      <path id="Path_95223" data-name="Path 95223" d="M592.472,289a24,24,0,1,1,24-24A24,24,0,0,1,592.472,289Zm0-46a22,22,0,1,0,22,22,22,22,0,0,0-22-22Z" transform="translate(1150.528 1643)" fill="#deefff"/>
      <path id="Path_95224" data-name="Path 95224" d="M761.472,406a27,27,0,1,1,27-27,27,27,0,0,1-27,27Zm0-52a25,25,0,1,0,25,25,25,25,0,0,0-25-25Z" transform="translate(762.528 1687)" fill="#deefff"/>
    </g>
    <path id="Path_95188" data-name="Path 95188" d="M542.264,191.5h-2.449V124.4a38.834,38.834,0,0,0-38.834-38.834H358.828A38.834,38.834,0,0,0,319.995,124.4V492.5a38.834,38.834,0,0,0,38.834,38.834H500.981A38.834,38.834,0,0,0,539.815,492.5V239.262h2.449Z" transform="translate(-256.298 -85.571)"/>
    <path id="Path_95189" data-name="Path 95189" d="M509.327,102.066H490.772a13.778,13.778,0,0,1-12.757,18.982H396.577a13.778,13.778,0,0,1-12.757-18.982H366.49a29,29,0,0,0-29,29V498.623a29,29,0,0,0,29,29H509.327a29,29,0,0,0,29-29h0V131.066a29,29,0,0,0-29-29Z" transform="translate(-263.077 -91.963)" fill="#f4f9ff"/>
    <path id="Path_95190" data-name="Path 95190" d="M563.939,813.654H216.454c-.251,0-.454-.274-.454-.613s.2-.612.454-.612H563.939c.251,0,.454.274.454.612S564.189,813.654,563.939,813.654Z" transform="translate(-216 -367.229)" fill="#3f3d56"/>
    <path id="Path_95191" data-name="Path 95191" d="M531.177,236.824H357.916a3.212,3.212,0,0,1-3.209-3.209V190.638a3.212,3.212,0,0,1,3.208-3.209h173.26a3.212,3.212,0,0,1,3.209,3.209v42.979A3.212,3.212,0,0,1,531.177,236.824Zm-173.26-48.112a1.927,1.927,0,0,0-1.925,1.925v42.979a1.927,1.927,0,0,0,1.925,1.925h173.26a1.927,1.927,0,0,0,1.925-1.925V190.638a1.927,1.927,0,0,0-1.925-1.925Z" transform="translate(-269.749 -125.041)" fill="#3f3d56"/>
    <path id="Path_95192" data-name="Path 95192" d="M531.177,491.319H357.916a3.212,3.212,0,0,1-3.209-3.208V408.555a3.212,3.212,0,0,1,3.208-3.209h173.26a3.212,3.212,0,0,1,3.209,3.209V488.11A3.212,3.212,0,0,1,531.177,491.319ZM357.916,406.63a1.927,1.927,0,0,0-1.925,1.925V488.11a1.927,1.927,0,0,0,1.925,1.925h173.26a1.927,1.927,0,0,0,1.925-1.925V408.555a1.927,1.927,0,0,0-1.925-1.925Z" transform="translate(-269.749 -209.484)" fill="#3f3d56"/>
    <path id="Path_95193" data-name="Path 95193" d="M589.978,345.783h-77a3.212,3.212,0,0,1-3.209-3.209V299.6a3.212,3.212,0,0,1,3.209-3.209h77a3.212,3.212,0,0,1,3.209,3.209v42.978A3.212,3.212,0,0,1,589.978,345.783Zm-77-48.112a1.927,1.927,0,0,0-1.925,1.925v42.978a1.927,1.927,0,0,0,1.925,1.925h77a1.927,1.927,0,0,0,1.925-1.925V299.6a1.927,1.927,0,0,0-1.925-1.925Z" transform="translate(-329.834 -167.262)" fill="#deefff"/>
    <path id="Path_95194" data-name="Path 95194" d="M434.921,660.637h-77a3.212,3.212,0,0,1-3.208-3.209v-80.2a3.212,3.212,0,0,1,3.209-3.208h77a3.212,3.212,0,0,1,3.208,3.208v80.2a3.212,3.212,0,0,1-3.209,3.209Zm-77-85.331a1.927,1.927,0,0,0-1.925,1.925v80.2a1.927,1.927,0,0,0,1.925,1.925h77a1.927,1.927,0,0,0,1.925-1.925v-80.2a1.927,1.927,0,0,0-1.925-1.925Z" transform="translate(-269.749 -274.846)" fill="#deefff"/>
    <path id="Path_95195" data-name="Path 95195" d="M589.978,660.637h-77a3.213,3.213,0,0,1-3.209-3.209v-80.2a3.212,3.212,0,0,1,3.209-3.208h77a3.212,3.212,0,0,1,3.209,3.209v80.2a3.212,3.212,0,0,1-3.208,3.209Zm-77-85.331a1.927,1.927,0,0,0-1.925,1.925v80.2a1.927,1.927,0,0,0,1.925,1.925h77a1.927,1.927,0,0,0,1.925-1.925v-80.2a1.927,1.927,0,0,0-1.925-1.925Z" transform="translate(-329.834 -274.846)" fill="#deefff"/>
    <circle id="Ellipse_280" data-name="Ellipse 280" cx="13.07" cy="13.07" r="13.07" transform="translate(100.735 210.975)" fill="#016dd5"/>
    <path id="Path_95196" data-name="Path 95196" d="M449.707,437.133a2.178,2.178,0,1,0,0,4.357H552.4a2.178,2.178,0,1,0,0-4.357Z" transform="translate(-305.717 -221.801)" fill="#016dd5"/>
    <path id="Path_95197" data-name="Path 95197" d="M449.7,458.471a2.178,2.178,0,0,0-.009,4.357h44.2a2.178,2.178,0,0,0,0-4.357Z" transform="translate(-305.715 -230.07)" fill="#016dd5"/>
    <path id="Path_95198" data-name="Path 95198" d="M383.535,492.585c-1.657,0-3.005.977-3.005,2.178s1.348,2.178,3.005,2.178H525.218c1.657,0,3.005-.977,3.005-2.178s-1.348-2.178-3.005-2.178Z" transform="translate(-279.755 -243.289)" fill="#026dd5"/>
    <path id="Path_95199" data-name="Path 95199" d="M383.535,513.924c-1.657,0-3.005.977-3.005,2.178s1.348,2.178,3.005,2.178H525.218c1.657,0,3.005-.977,3.005-2.178s-1.348-2.178-3.005-2.178Z" transform="translate(-279.755 -251.558)" fill="#026dd5"/>
    <circle id="Ellipse_281" data-name="Ellipse 281" cx="13.07" cy="13.07" r="13.07" transform="translate(102.018 72.367)" fill="#016dd5"/>
    <path id="Path_95200" data-name="Path 95200" d="M451.8,210.834a2.178,2.178,0,0,0,0,4.357H554.494a2.178,2.178,0,0,0,.009-4.357H451.8Z" transform="translate(-306.529 -134.11)" fill="#016dd5"/>
    <path id="Path_95201" data-name="Path 95201" d="M451.8,232.172a2.178,2.178,0,0,0,0,4.357h44.188a2.178,2.178,0,0,0,.009-4.357H451.8Z" transform="translate(-306.529 -142.379)" fill="#016dd5"/>
    <path id="Path_95202" data-name="Path 95202" d="M439.856,351.47H367.619l17-29.445a3.471,3.471,0,0,1,6.013,0l7.262,12.578,12.348-21.387a4.346,4.346,0,0,1,7.528,0Zm-70.014-1.283h67.792l-20.975-36.329a3.062,3.062,0,0,0-5.3,0l-13.46,23.313-8.374-14.5a2.188,2.188,0,0,0-3.789,0Z" transform="translate(-274.752 -172.941)" fill="#deefff"/>
    <path id="Path_95203" data-name="Path 95203" d="M590.722,351.47H518.485l17-29.445a3.471,3.471,0,0,1,6.013,0l7.262,12.578,12.348-21.387a4.346,4.346,0,0,1,7.528,0Zm-70.014-1.283H588.5l-20.975-36.329a3.063,3.063,0,0,0-5.3,0l-13.46,23.313-8.374-14.5a2.187,2.187,0,0,0-3.789,0Z" transform="translate(-333.213 -172.941)" fill="#deefff"/>
    <path id="Path_95204" data-name="Path 95204" d="M434.921,345.783h-77a3.212,3.212,0,0,1-3.208-3.208V299.6a3.212,3.212,0,0,1,3.208-3.209h77a3.212,3.212,0,0,1,3.208,3.209v42.978a3.212,3.212,0,0,1-3.208,3.209Zm-77-48.112a1.927,1.927,0,0,0-1.925,1.925v42.978a1.927,1.927,0,0,0,1.925,1.925h77a1.927,1.927,0,0,0,1.925-1.925V299.6a1.927,1.927,0,0,0-1.925-1.925Z" transform="translate(-269.749 -167.262)" fill="#deefff"/>
    <path id="Path_95205" data-name="Path 95205" d="M385.357,601.024a2.178,2.178,0,0,0,0,4.357h44.188a2.178,2.178,0,0,0,0-4.357Z" transform="translate(-280.782 -285.309)" fill="#026dd5"/>
    <path id="Path_95206" data-name="Path 95206" d="M385.357,621.977a2.178,2.178,0,0,0,0,4.357h44.188a2.178,2.178,0,1,0,0-4.357Z" transform="translate(-280.782 -293.429)" fill="#026dd5"/>
    <path id="Path_95207" data-name="Path 95207" d="M414.133,671.084a13.711,13.711,0,1,1,13.711-13.711h0A13.727,13.727,0,0,1,414.133,671.084Zm0-26.139a12.428,12.428,0,1,0,12.428,12.428h0A12.442,12.442,0,0,0,414.133,644.944Z" transform="translate(-287.463 -301.831)" fill="#deefff"/>
    <path id="Path_95208" data-name="Path 95208" d="M584.6,685.677a2.178,2.178,0,1,0,0-4.357H540.414a2.178,2.178,0,1,0,0,4.357Z" transform="translate(-340.866 -316.424)" fill="#026dd5"/>
    <path id="Path_95209" data-name="Path 95209" d="M584.6,664.723a2.178,2.178,0,0,0,0-4.357H540.414a2.178,2.178,0,1,0,0,4.357Z" transform="translate(-340.866 -308.304)" fill="#026dd5"/>
    <path id="Path_95210" data-name="Path 95210" d="M569.189,601.024a13.711,13.711,0,1,1-13.711,13.711h0A13.727,13.727,0,0,1,569.189,601.024Zm0,26.139a12.428,12.428,0,1,0-12.428-12.428h0a12.442,12.442,0,0,0,12.428,12.428Z" transform="translate(-347.548 -285.309)" fill="#deefff"/>
  </g>
</svg>
