<svg xmlns="http://www.w3.org/2000/svg" width="24.124" height="38.349" viewBox="0 0 24.124 38.349">
  <g id="noun-app-7202995" transform="translate(-394.86 340.648)" opacity="0.726">
    <path id="Path_97458" data-name="Path 97458" d="M21.426,11.948a.607.607,0,1,1-1.215,0V6.892a3.524,3.524,0,0,1,1.014-2.476,3.414,3.414,0,0,1,2.441-1.033H40.881a3.424,3.424,0,0,1,2.441,1.03,3.525,3.525,0,0,1,1.014,2.479v31.33A3.532,3.532,0,0,1,43.321,40.7l-.036.035a3.423,3.423,0,0,1-2.4,1H39.674a.617.617,0,0,1,0-1.234h1.207a2.212,2.212,0,0,0,1.555-.641l.027-.029a2.286,2.286,0,0,0,.658-1.607V6.892a2.286,2.286,0,0,0-.658-1.607,2.216,2.216,0,0,0-1.582-.668H23.666a2.216,2.216,0,0,0-1.582.668,2.28,2.28,0,0,0-.658,1.607ZM38.07,7.629a.617.617,0,0,1,0-1.234h1.819a.617.617,0,0,1,0,1.234ZM34.709,21.356h3.4a1.463,1.463,0,0,1,1.044.44,1.507,1.507,0,0,1,.433,1.06v3.454a1.509,1.509,0,0,1-.433,1.06l-.044.04a1.46,1.46,0,0,1-1,.4h-3.4a1.458,1.458,0,0,1-1.041-.44,1.511,1.511,0,0,1-.437-1.06V22.857a1.5,1.5,0,0,1,.433-1.057,1.459,1.459,0,0,1,1.044-.443Zm3.4,1.234h-3.4a.267.267,0,0,0-.263.267v3.454a.269.269,0,0,0,.076.19.258.258,0,0,0,.187.077h3.4a.27.27,0,0,0,.169-.061l.016-.018a.27.27,0,0,0,.078-.188V22.857a.27.27,0,0,0-.078-.188A.259.259,0,0,0,38.109,22.59ZM26.439,21.356h3.4a1.463,1.463,0,0,1,1.044.44,1.507,1.507,0,0,1,.433,1.06v3.454a1.509,1.509,0,0,1-.433,1.06l-.044.04a1.46,1.46,0,0,1-1,.4h-3.4a1.458,1.458,0,0,1-1.041-.44,1.511,1.511,0,0,1-.437-1.06V22.857a1.5,1.5,0,0,1,.433-1.057,1.459,1.459,0,0,1,1.044-.443Zm3.4,1.234h-3.4a.267.267,0,0,0-.263.267v3.454a.269.269,0,0,0,.076.19.258.258,0,0,0,.187.077h3.4a.27.27,0,0,0,.169-.061l.016-.018a.27.27,0,0,0,.078-.188V22.857a.27.27,0,0,0-.078-.188A.259.259,0,0,0,29.84,22.59Zm4.87-9.629h3.4a1.463,1.463,0,0,1,1.044.44,1.507,1.507,0,0,1,.433,1.06v3.454a1.509,1.509,0,0,1-.433,1.06l-.044.04a1.46,1.46,0,0,1-1,.4h-3.4a1.458,1.458,0,0,1-1.041-.44,1.511,1.511,0,0,1-.437-1.06V14.462a1.5,1.5,0,0,1,.433-1.057,1.459,1.459,0,0,1,1.044-.443Zm3.4,1.234h-3.4a.267.267,0,0,0-.263.267v3.454a.269.269,0,0,0,.076.19.258.258,0,0,0,.187.077h3.4a.27.27,0,0,0,.169-.061L38.3,18.1a.27.27,0,0,0,.078-.188V14.462a.27.27,0,0,0-.078-.188A.259.259,0,0,0,38.111,14.2ZM26.44,12.962h3.4a1.463,1.463,0,0,1,1.044.44,1.507,1.507,0,0,1,.433,1.06v3.454a1.509,1.509,0,0,1-.433,1.06l-.044.04a1.46,1.46,0,0,1-1,.4h-3.4a1.458,1.458,0,0,1-1.041-.44,1.511,1.511,0,0,1-.437-1.06V14.462a1.5,1.5,0,0,1,.433-1.057,1.459,1.459,0,0,1,1.044-.443Zm3.4,1.234h-3.4a.267.267,0,0,0-.263.267v3.454a.269.269,0,0,0,.076.19.258.258,0,0,0,.187.077h3.4a.27.27,0,0,0,.169-.061l.016-.018a.27.27,0,0,0,.078-.188V14.462a.27.27,0,0,0-.078-.188A.259.259,0,0,0,29.841,14.2Zm.38,20.395h4.113a1.834,1.834,0,0,1,1.31.553,1.9,1.9,0,0,1,0,2.661,1.834,1.834,0,0,1-1.31.553H30.221a1.834,1.834,0,0,1-1.31-.553,1.9,1.9,0,0,1,0-2.661A1.834,1.834,0,0,1,30.221,34.59Zm4.113,1.234H30.221a.633.633,0,0,0-.451.191.651.651,0,0,0,0,.916.633.633,0,0,0,.451.191h4.113a.633.633,0,0,0,.451-.191.651.651,0,0,0,0-.916A.633.633,0,0,0,34.334,35.824Zm3.773,4.67a.617.617,0,0,1,0,1.234h-.065a.617.617,0,0,1,0-1.234Zm-1.637,0a.617.617,0,0,1,0,1.234h-12.8a3.416,3.416,0,0,1-2.438-1.03,3.534,3.534,0,0,1-1.017-2.479V15.208a.607.607,0,1,1,1.215,0V38.22a2.3,2.3,0,0,0,.656,1.608,2.219,2.219,0,0,0,1.583.667ZM21.432,13.611a.607.607,0,1,1-1.215,0v-.066a.607.607,0,1,1,1.215,0Z" transform="translate(374.649 -344.031)" fill="#016dd5"/>
  </g>
</svg>
