<svg xmlns="http://www.w3.org/2000/svg" width="569.229" height="820.203" viewBox="0 0 569.229 820.203">
  <g id="Brand_manager_app" data-name="Brand manager app" transform="translate(0 39.787)">
    <g id="Group_38292" data-name="Group 38292" transform="translate(75.478 -39.787)">
      <path id="Path_95222" data-name="Path 95222" d="M296.9,377.852a78.426,78.426,0,1,1,78.426-78.426A78.426,78.426,0,0,1,296.9,377.852Zm0-153.584a75.158,75.158,0,1,0,75.158,75.158A75.158,75.158,0,0,0,296.9,224.268Z" transform="translate(47.849 -221)" fill="#c1e1ff"/>
      <path id="Path_95223" data-name="Path 95223" d="M607.685,319.426A39.213,39.213,0,1,1,646.9,280.213,39.213,39.213,0,0,1,607.685,319.426Zm0-75.158a35.945,35.945,0,1,0,35.945,35.945A35.945,35.945,0,0,0,607.685,244.268Z" transform="translate(-205.753 237.724)" fill="#c1e1ff"/>
      <path id="Path_95224" data-name="Path 95224" d="M778.586,440.229A44.115,44.115,0,1,1,822.7,396.114,44.115,44.115,0,0,1,778.586,440.229Zm0-84.961a40.847,40.847,0,1,0,40.847,40.847A40.847,40.847,0,0,0,778.586,355.268Z" transform="translate(-734.472 379.974)" fill="#c1e1ff"/>
    </g>
    <path id="Path_95188" data-name="Path 95188" d="M683.154,258.648h-4V149.016a63.45,63.45,0,0,0-63.45-63.45H383.443A63.449,63.449,0,0,0,320,149.014v601.43a63.45,63.45,0,0,0,63.45,63.45H615.7a63.45,63.45,0,0,0,63.45-63.45V336.685h4Z" transform="translate(-215.922 -60.354)" fill="#403d56"/>
    <path id="Path_95189" data-name="Path 95189" d="M618.249,102.066H587.933A22.512,22.512,0,0,1,567.09,133.08H434.031a22.512,22.512,0,0,1-20.843-31.014H384.872a47.382,47.382,0,0,0-47.382,47.382V749.989a47.382,47.382,0,0,0,47.382,47.382H618.249a47.382,47.382,0,0,0,47.382-47.382h0V149.448a47.382,47.382,0,0,0-47.382-47.382Z" transform="translate(-215.909 -60.339)" fill="#f4f9ff"/>
    <path id="Path_95190" data-name="Path 95190" d="M784.487,814.43H216.742c-.41,0-.742-.448-.742-1s.327-1,.742-1H784.487c.41,0,.742.448.742,1S784.9,814.43,784.487,814.43Z" transform="translate(-216 -59.81)" fill="#3f3d56"/>
    <path id="Path_95191" data-name="Path 95191" d="M643.036,268.134H359.95a5.248,5.248,0,0,1-5.243-5.243V192.672a5.248,5.248,0,0,1,5.241-5.243H643.033a5.248,5.248,0,0,1,5.243,5.243v70.222a5.248,5.248,0,0,1-5.24,5.24ZM359.952,189.525a3.148,3.148,0,0,0-3.145,3.145v70.222a3.148,3.148,0,0,0,3.145,3.145H643.036a3.148,3.148,0,0,0,3.145-3.145V192.672a3.148,3.148,0,0,0-3.145-3.145Z" transform="translate(-215.897 -60.275)" fill="#3f3d56"/>
    <g id="Group_1030" data-name="Group 1030" transform="translate(138.811 421.877)">
      <path id="Path_95192" data-name="Path 95192" d="M643.036,545.815H359.95a5.248,5.248,0,0,1-5.243-5.241V410.589a5.248,5.248,0,0,1,5.241-5.243H643.033a5.248,5.248,0,0,1,5.243,5.243V540.572a5.248,5.248,0,0,1-5.24,5.243ZM359.95,407.444a3.148,3.148,0,0,0-3.145,3.145V540.572a3.148,3.148,0,0,0,3.145,3.145H643.034a3.148,3.148,0,0,0,3.145-3.145V410.589a3.148,3.148,0,0,0-3.145-3.145Z" transform="translate(-354.707 -405.346)" fill="#e6e6e6"/>
      <circle id="Ellipse_280" data-name="Ellipse 280" cx="21.355" cy="21.355" r="21.355" transform="translate(25.777 24.693)" fill="#016dd5"/>
      <path id="Path_95196" data-name="Path 95196" d="M451.088,437.133a3.559,3.559,0,1,0,0,7.119H618.875a3.559,3.559,0,1,0,0-7.119Z" transform="translate(-354.637 -405.322)" fill="#9acdff"/>
      <path id="Path_95197" data-name="Path 95197" d="M451.084,458.471a3.559,3.559,0,0,0-.015,7.119h72.217a3.559,3.559,0,0,0,0-7.119Z" transform="translate(-354.641 -405.306)" fill="#9acdff"/>
      <path id="Path_95198" data-name="Path 95198" d="M385.44,492.585c-2.707,0-4.91,1.6-4.91,3.559s2.2,3.559,4.91,3.559H616.932c2.707,0,4.91-1.6,4.91-3.559s-2.2-3.559-4.91-3.559Z" transform="translate(-354.688 -405.281)" fill="#9acdff"/>
      <path id="Path_95199" data-name="Path 95199" d="M385.44,513.924c-2.707,0-4.91,1.6-4.91,3.559s2.2,3.559,4.91,3.559H616.932c2.707,0,4.91-1.6,4.91-3.559s-2.2-3.559-4.91-3.559Z" transform="translate(-354.688 -405.265)" fill="#9acdff"/>
    </g>
    <circle id="Ellipse_281" data-name="Ellipse 281" cx="21.355" cy="21.355" r="21.355" transform="translate(166.684 143.458)" fill="#016dd5"/>
    <path id="Path_95200" data-name="Path 95200" d="M453.181,210.834a3.559,3.559,0,0,0,0,7.119H620.97a3.559,3.559,0,0,0,.015-7.119Z" transform="translate(-215.827 -60.257)" fill="#016dd5"/>
    <path id="Path_95201" data-name="Path 95201" d="M453.181,232.172a3.559,3.559,0,0,0,0,7.119h72.2a3.559,3.559,0,1,0,.015-7.119Z" transform="translate(-215.827 -60.242)" fill="#9acdff"/>
    <g id="Group_1029" data-name="Group 1029" transform="translate(138.82 598.577)">
      <path id="Path_95193" data-name="Path 95193" d="M640.82,377.091H515.012a5.248,5.248,0,0,1-5.243-5.243V301.634a5.248,5.248,0,0,1,5.243-5.243H640.82a5.248,5.248,0,0,1,5.243,5.243v70.22a5.248,5.248,0,0,1-5.243,5.237ZM515.012,298.482a3.149,3.149,0,0,0-3.145,3.145v70.22a3.149,3.149,0,0,0,3.145,3.145H640.82a3.148,3.148,0,0,0,3.145-3.145V301.634a3.148,3.148,0,0,0-3.145-3.145Z" transform="translate(-354.599 -296.391)" fill="#403d56"/>
      <path id="Path_95202" data-name="Path 95202" d="M485.645,377.1H367.619l27.776-48.109a5.671,5.671,0,0,1,9.824,0l11.865,20.551,20.175-34.944a7.1,7.1,0,0,1,12.3,0ZM371.251,375H482.014l-34.27-59.357a5,5,0,0,0-8.659,0l-21.992,38.091-13.682-23.691a3.575,3.575,0,0,0-6.191,0Z" transform="translate(-354.707 -296.383)" fill="#036dd5"/>
      <path id="Path_95203" data-name="Path 95203" d="M636.511,377.1H518.485l27.776-48.109a5.671,5.671,0,0,1,9.825,0l11.865,20.551,20.175-34.944a7.1,7.1,0,0,1,12.3,0ZM522.117,375H632.88l-34.27-59.357a5,5,0,0,0-8.659,0l-21.992,38.09-13.682-23.691a3.573,3.573,0,0,0-6.191,0Z" transform="translate(-354.595 -296.383)" fill="#036dd5"/>
      <path id="Path_95204" data-name="Path 95204" d="M485.763,377.091H359.954a5.248,5.248,0,0,1-5.241-5.241V301.634a5.248,5.248,0,0,1,5.241-5.243H485.763A5.248,5.248,0,0,1,491,301.634v70.22a5.248,5.248,0,0,1-5.242,5.243ZM359.954,298.482a3.149,3.149,0,0,0-3.145,3.145v70.22a3.149,3.149,0,0,0,3.145,3.145H485.763a3.149,3.149,0,0,0,3.145-3.145V301.634a3.148,3.148,0,0,0-3.145-3.145Z" transform="translate(-354.713 -296.391)" fill="#403d56"/>
    </g>
    <g id="Group_1028" data-name="Group 1028" transform="translate(138.811 244.124)">
      <path id="Path_95194" data-name="Path 95194" d="M485.763,715.541H359.954a5.248,5.248,0,0,1-5.241-5.243V579.261a5.248,5.248,0,0,1,5.243-5.241H485.764a5.248,5.248,0,0,1,5.241,5.241V710.3A5.248,5.248,0,0,1,485.763,715.541ZM359.954,576.121a3.148,3.148,0,0,0-3.145,3.145V710.3a3.148,3.148,0,0,0,3.145,3.145H485.763a3.149,3.149,0,0,0,3.145-3.145V579.266a3.148,3.148,0,0,0-3.145-3.145Z" transform="translate(-354.713 -574.02)" fill="#e6e6e6"/>
      <path id="Path_95195" data-name="Path 95195" d="M640.82,715.541H515.012a5.25,5.25,0,0,1-5.243-5.243V579.261a5.248,5.248,0,0,1,5.243-5.241H640.82a5.248,5.248,0,0,1,5.243,5.243V710.3a5.248,5.248,0,0,1-5.241,5.243ZM515.012,576.121a3.148,3.148,0,0,0-3.145,3.145V710.3a3.149,3.149,0,0,0,3.145,3.145H640.82a3.148,3.148,0,0,0,3.145-3.145V579.266a3.148,3.148,0,0,0-3.145-3.145Z" transform="translate(-354.599 -574.02)" fill="#e6e6e6"/>
      <g id="Group_1027" data-name="Group 1027" transform="translate(10.039 37.034)">
        <g id="Group_940" data-name="Group 940" transform="translate(0 0)">
          <path id="Path_1842" data-name="Path 1842" d="M8,122.076V56h2.41v64.7H124.877v2.753H9.2A1.3,1.3,0,0,1,8,122.076Z" transform="translate(-8 -56)" fill="#403d56"/>
        </g>
        <g id="Group_950" data-name="Group 950" transform="translate(69.373 38.566)">
          <rect id="Rectangle_403" data-name="Rectangle 403" width="8.214" height="26.291" transform="translate(0 0)" fill="#036dd5"/>
        </g>
        <g id="Group_951" data-name="Group 951" transform="translate(55.401 27.883)">
          <rect id="Rectangle_404" data-name="Rectangle 404" width="8.214" height="36.974" transform="translate(0 0)" fill="#9acdff"/>
        </g>
        <g id="Group_952" data-name="Group 952" transform="translate(12.877 27.883)">
          <rect id="Rectangle_405" data-name="Rectangle 405" width="8.624" height="36.974" transform="translate(0 0)" fill="#036dd5"/>
        </g>
        <g id="Group_953" data-name="Group 953" transform="translate(27.457 40.679)">
          <rect id="Rectangle_406" data-name="Rectangle 406" width="8.624" height="24.177" transform="translate(0 0)" fill="#9acdff"/>
        </g>
        <g id="Group_957" data-name="Group 957" transform="translate(83.345 9.125)">
          <rect id="Rectangle_406-2" data-name="Rectangle 406" width="8.624" height="55.732" transform="translate(0 0)" fill="#9acdff"/>
        </g>
        <g id="Group_954" data-name="Group 954" transform="translate(41.429 12.026)">
          <rect id="Rectangle_407" data-name="Rectangle 407" width="8.214" height="52.831" transform="translate(0 0)" fill="#036dd5"/>
        </g>
        <g id="Group_956" data-name="Group 956" transform="translate(97.925 27.883)">
          <rect id="Rectangle_407-2" data-name="Rectangle 407" width="8.214" height="36.974" transform="translate(0 0)" fill="#036dd5"/>
        </g>
      </g>
      <g id="noun-pie-chart-7288770" transform="translate(163.89 19.83)">
        <path id="Path_1832" data-name="Path 1832" d="M25.227,82.431c.042.063.1.084.147.147a40.566,40.566,0,0,0,20.717,17.509l-2.327,3.082a.438.438,0,0,1-.335.168H31.979a1.038,1.038,0,0,0-1.048,1.048,1.051,1.051,0,0,0,1.048,1.048H43.428a2.532,2.532,0,0,0,2.013-1.006l2.7-3.586a40.21,40.21,0,0,0,12.162,1.887c6.878,0,15.034-1.761,21.01-5.1a1.047,1.047,0,0,0-1.027-1.824c-1.4.776-4.215,1.468-5.724,2.076l-5.41-14.552A23.227,23.227,0,0,0,76.012,78.8L86.643,90.147c-.9.86-4.55,4.382-5.556,5.158a1.04,1.04,0,0,0-.189,1.468,1.023,1.023,0,0,0,.818.419,1.069,1.069,0,0,0,.65-.231c9.981-7.737,18.389-22.079,18.389-34.682A40.471,40.471,0,0,0,74.209,24.328l2.642-4.8A1.092,1.092,0,0,1,77.773,19H89.746a1.065,1.065,0,0,0,1.048-1.048,1.051,1.051,0,0,0-1.048-1.048H77.773a3.156,3.156,0,0,0-2.768,1.615l-2.81,5.1a40.34,40.34,0,0,0-24.7.273,1.033,1.033,0,0,0-.671,1.321,1.05,1.05,0,0,0,1.321.671,38.407,38.407,0,0,1,11.113-1.929V39.467A22.8,22.8,0,0,0,38.6,55.13,1.051,1.051,0,0,0,40.6,55.8,20.768,20.768,0,1,1,39.57,62.28a1.051,1.051,0,0,0-1.048-1.048,1.038,1.038,0,0,0-1.048,1.048,22.6,22.6,0,0,0,2.474,10.3l-13.4,7.884a38.4,38.4,0,0,1-1.468-33.381,1.052,1.052,0,1,0-1.929-.839A40.388,40.388,0,0,0,25.165,82.22a.615.615,0,0,0,.063.21Z" transform="translate(-0.548 -10.385)" fill="#9acdff"/>
        <path id="Path_1836" data-name="Path 1836" d="M77.409,27.794h21.6a2.09,2.09,0,0,0,2.1-2.1V14.143a2.09,2.09,0,0,0-2.1-2.1h-21.6a2.09,2.09,0,0,0-2.1,2.1V25.7A2.09,2.09,0,0,0,77.409,27.794Zm4.11-11.218H94.9a1.051,1.051,0,0,1,1.048,1.048A1.038,1.038,0,0,1,94.9,18.673H81.519a1.051,1.051,0,0,1-1.048-1.048A1.065,1.065,0,0,1,81.519,16.576Zm0,4.592H94.9a1.038,1.038,0,0,1,1.048,1.048A1.051,1.051,0,0,1,94.9,23.265H81.519a1.065,1.065,0,0,1-1.048-1.048A1.051,1.051,0,0,1,81.519,21.168Z" transform="translate(18.415 -12.047)" fill="#036dd5"/>
        <path id="Path_1837" data-name="Path 1837" d="M7.566,91.966H30.357a2.09,2.09,0,0,0,2.1-2.1V78.315a2.09,2.09,0,0,0-2.1-2.1H7.566a2.09,2.09,0,0,0-2.1,2.1V89.869A2.09,2.09,0,0,0,7.566,91.966Zm4.361-11.218H25.976A1.051,1.051,0,0,1,27.024,81.8a1.038,1.038,0,0,1-1.048,1.048H11.927A1.051,1.051,0,0,1,10.878,81.8,1.065,1.065,0,0,1,11.927,80.748Zm0,4.592H25.976a1.038,1.038,0,0,1,1.048,1.048,1.051,1.051,0,0,1-1.048,1.048H11.927a1.065,1.065,0,0,1-1.048-1.048A1.051,1.051,0,0,1,11.927,85.34Z" transform="translate(-5.469 9.898)" fill="#036dd5"/>
        <path id="Path_1838" data-name="Path 1838" d="M13.112,39.993h5.682a2.1,2.1,0,0,0,2.1-2.1V36.559a1.048,1.048,0,0,0-2.1,0V37.9H13.112V30.086h5.682v7.984c0,.582,2.1.582,2.1,0V30.086a2.1,2.1,0,0,0-2.1-2.1H13.112a2.1,2.1,0,0,0-2.1,2.1V37.9A2.1,2.1,0,0,0,13.112,39.993Z" transform="translate(-3.572 -6.595)" fill="#9acdff"/>
        <path id="Path_1839" data-name="Path 1839" d="M23.112,42.089h5.682a2.1,2.1,0,0,0,2.1-2.1V23.972a2.1,2.1,0,0,0-2.1-2.1H23.112a2.1,2.1,0,0,0-2.1,2.1v16.02A2.1,2.1,0,0,0,23.112,42.089Zm0-18.116h5.682v16.02H23.112Z" transform="translate(-0.152 -8.686)" fill="#9acdff"/>
        <path id="Path_1840" data-name="Path 1840" d="M33.12,44.9H38.8a2.1,2.1,0,0,0,2.1-2.1V15.722a2.1,2.1,0,0,0-2.1-2.1H33.12a2.1,2.1,0,0,0-2.1,2.1V40.527c0,.582,2.1.582,2.1,0V15.722H38.8V42.813H33.12V32.686a1.048,1.048,0,0,0-2.1,0V42.813a2.1,2.1,0,0,0,2.1,2.092Z" transform="translate(3.27 -11.507)" fill="#9acdff"/>
        <path id="Path_1861" data-name="Path 1861" d="M43.163,105.905H31.715a1.784,1.784,0,1,1,0-3.568H43.006l1.647-2.182A41.315,41.315,0,0,1,24.525,82.773a.992.992,0,0,1-.175-.2l-.275-.412.053-.078a41.363,41.363,0,0,1-3.849-9.4,41.212,41.212,0,0,1,1.932-27.005l0-.006a1.8,1.8,0,0,1,1.647-1.071,1.743,1.743,0,0,1,.706.148,1.791,1.791,0,0,1,.927,2.344l0,.005A37.556,37.556,0,0,0,26.575,79.17l12.146-7.147a23.334,23.334,0,0,1-2.249-10.007,1.784,1.784,0,0,1,3.568,0,19.985,19.985,0,1,0,.99-6.249l0,.011a1.771,1.771,0,0,1-2.245,1.109,1.769,1.769,0,0,1-1.14-2.253A23.527,23.527,0,0,1,58.258,38.51V24.45a37.58,37.58,0,0,0-10.141,1.862,1.727,1.727,0,0,1-.562.094,1.8,1.8,0,0,1-1.691-1.221,1.744,1.744,0,0,1,.083-1.351A1.79,1.79,0,0,1,47,22.926a41.1,41.1,0,0,1,24.577-.452L74.1,17.9a3.914,3.914,0,0,1,3.409-1.99H89.482a1.786,1.786,0,0,1,1.784,1.784,1.808,1.808,0,0,1-1.784,1.784H77.509a.358.358,0,0,0-.287.159L75,23.677a41.108,41.108,0,0,1,26.228,38.34,35.338,35.338,0,0,1-1.5,9.854,48.627,48.627,0,0,1-4.043,9.665A51.449,51.449,0,0,1,82.552,97.279a1.846,1.846,0,0,1-.641.322,1.745,1.745,0,0,1-.5.412,40.7,40.7,0,0,1-10.354,3.87A48.921,48.921,0,0,1,60.043,103.2a40.92,40.92,0,0,1-11.886-1.767l-2.4,3.177A3.255,3.255,0,0,1,43.163,105.905Zm-11.449-2.1a.3.3,0,0,0-.313.313.317.317,0,0,0,.313.313H43.163a1.8,1.8,0,0,0,1.428-.717l3.016-4,.5.157a39.472,39.472,0,0,0,11.939,1.853A45.4,45.4,0,0,0,80.117,97.04q-.034-.04-.067-.082a1.806,1.806,0,0,1-.265-.475,31.728,31.728,0,0,1-3.1,1.1c-.8.254-1.552.495-2.105.718l-.7.282L67.957,82.667l.646-.275a22.439,22.439,0,0,0,6.639-4.386l.537-.509L87.414,89.912l-.528.5-.468.448C85.247,91.985,83,94.139,81.8,95.187a1.754,1.754,0,0,1,.3.4q.037.065.068.131A50.294,50.294,0,0,0,94.393,80.829a47.153,47.153,0,0,0,3.921-9.371,33.872,33.872,0,0,0,1.44-9.442,39.417,39.417,0,0,0-7.333-22.952,39.942,39.942,0,0,0-18.73-14.309l-.8-.3,3.069-5.576A1.822,1.822,0,0,1,77.509,18H89.482a.329.329,0,0,0,.313-.313.317.317,0,0,0-.313-.313H77.509a2.41,2.41,0,0,0-2.125,1.236l-3.1,5.619-.574-.179a39.6,39.6,0,0,0-24.246.268.331.331,0,0,0-.2.164.279.279,0,0,0-.012.219.336.336,0,0,0,.3.231.256.256,0,0,0,.085-.015l.008,0a39.2,39.2,0,0,1,11.325-1.967l.756-.021V39.9l-.7.033A22.06,22.06,0,0,0,39.039,55.1a.3.3,0,0,0,.015.242.291.291,0,0,0,.174.146l.024.008a.3.3,0,0,0,.1.017.308.308,0,0,0,.286-.208,21.5,21.5,0,1,1-1.066,6.716.317.317,0,0,0-.313-.313.3.3,0,0,0-.313.313,21.869,21.869,0,0,0,2.394,9.961l.315.617L26,81.216l-.363-.671a39.136,39.136,0,0,1-1.5-34.02.321.321,0,0,0-.165-.422.28.28,0,0,0-.114-.024.335.335,0,0,0-.3.19A39.57,39.57,0,0,0,25.54,81.592l.05.088.023.091a.965.965,0,0,1,.109.135l.023.037A39.888,39.888,0,0,0,46.085,99.134l.922.346-2.934,3.885a1.179,1.179,0,0,1-.91.444ZM69.821,83.46l4.913,13.215c.458-.16.97-.323,1.5-.492A22.686,22.686,0,0,0,79.663,94.9a1.759,1.759,0,0,1,.428-.176,1.807,1.807,0,0,1,.281-.269c.835-.643,3.691-3.377,4.972-4.6L75.709,79.574A23.879,23.879,0,0,1,69.821,83.46Z" transform="translate(-0.283 -10.121)" fill="#036dd5"/>
      </g>
    </g>
  </g>
</svg>
