<svg xmlns="http://www.w3.org/2000/svg" width="190.874" height="169" viewBox="0 0 190.874 169">
  <g id="Campaign" transform="translate(-17.337 -55)">
    <g id="freepik--background-complete--inject-49" transform="translate(0 55)">
      <rect id="Rectangle_7059" data-name="Rectangle 7059" width="188.472" height="0.113" transform="translate(17.337 148.515)" fill="#ebebeb"/>
      <rect id="Rectangle_7060" data-name="Rectangle 7060" width="15.024" height="0.113" transform="translate(189.059 155.813)" fill="#ebebeb"/>
      <rect id="Rectangle_7061" data-name="Rectangle 7061" width="3.942" height="0.113" transform="translate(146.305 157.047)" fill="#ebebeb"/>
      <rect id="Rectangle_7062" data-name="Rectangle 7062" width="8.705" height="0.113" transform="translate(179.9 151.604)" fill="#ebebeb"/>
      <rect id="Rectangle_7063" data-name="Rectangle 7063" width="19.592" height="0.113" transform="translate(23.797 152.366)" fill="#ebebeb"/>
      <rect id="Rectangle_7064" data-name="Rectangle 7064" width="2.871" height="0.113" transform="translate(47.43 152.366)" fill="#ebebeb"/>
      <rect id="Rectangle_7065" data-name="Rectangle 7065" width="42.495" height="0.113" transform="translate(59.637 154.28)" fill="#ebebeb"/>
      <path id="Path_90963" data-name="Path 90963" d="M128.385,183.283H40.8a2.59,2.59,0,0,1-2.586-2.59V57.567A2.59,2.59,0,0,1,40.8,55h87.589a2.59,2.59,0,0,1,2.59,2.59v123.1a2.59,2.59,0,0,1-2.594,2.593ZM40.8,55.091a2.477,2.477,0,0,0-2.472,2.477V180.693A2.477,2.477,0,0,0,40.8,183.17h87.589a2.481,2.481,0,0,0,2.477-2.477V57.567a2.481,2.481,0,0,0-2.477-2.477Z" transform="translate(-20.877 -55)" fill="#ebebeb"/>
      <path id="Path_90964" data-name="Path 90964" d="M344.684,183.283H257.09a2.6,2.6,0,0,1-2.59-2.59V57.567A2.6,2.6,0,0,1,257.09,55h87.594a2.59,2.59,0,0,1,2.581,2.567V180.693A2.59,2.59,0,0,1,344.684,183.283ZM257.09,55.091a2.481,2.481,0,0,0-2.477,2.477V180.693a2.481,2.481,0,0,0,2.477,2.477h87.594a2.481,2.481,0,0,0,2.477-2.477V57.567a2.481,2.481,0,0,0-2.477-2.477Z" transform="translate(-139.054 -55)" fill="#ebebeb"/>
      <rect id="Rectangle_7066" data-name="Rectangle 7066" width="88.36" height="77.614" transform="translate(103.493 11.241)" fill="#e6e6e6"/>
      <rect id="Rectangle_7067" data-name="Rectangle 7067" width="89.59" height="77.614" transform="translate(104.573 11.241)" fill="#f0f0f0"/>
      <rect id="Rectangle_7068" data-name="Rectangle 7068" width="88.36" height="2.141" transform="translate(103.493 88.85)" fill="#e6e6e6"/>
      <rect id="Rectangle_7069" data-name="Rectangle 7069" width="89.59" height="2.141" transform="translate(108.41 88.85)" fill="#f0f0f0"/>
      <rect id="Rectangle_7070" data-name="Rectangle 7070" width="71.164" height="83.135" transform="translate(190.932 14.466) rotate(90)" fill="#fafafa"/>
      <path id="Path_90965" data-name="Path 90965" d="M262.17,158.049l9.168-71.159H287.21l-9.172,71.159Z" transform="translate(-143.245 -72.424)" fill="#fff"/>
      <path id="Path_90966" data-name="Path 90966" d="M304.66,158.049l9.172-71.159h6.187l-9.172,71.159Z" transform="translate(-166.461 -72.424)" fill="#fff"/>
      <rect id="Rectangle_7071" data-name="Rectangle 7071" width="71.164" height="0.408" transform="translate(190.937 14.461) rotate(90)" fill="#e6e6e6"/>
      <path id="Path_90967" data-name="Path 90967" d="M322.915,95.18h-88.36l-.295-5.53h88.36Z" transform="translate(-127.995 -73.932)" fill="#e0e0e0" opacity="0.5"/>
      <path id="Path_90968" data-name="Path 90968" d="M322.915,115.215h-88.36l-.295-5.525h88.36Z" transform="translate(-127.995 -84.882)" fill="#e0e0e0" opacity="0.5"/>
      <path id="Path_90969" data-name="Path 90969" d="M322.915,135.245h-88.36l-.295-5.525h88.36Z" transform="translate(-127.995 -95.826)" fill="#e0e0e0" opacity="0.5"/>
      <path id="Path_90970" data-name="Path 90970" d="M322.915,155.28h-88.36l-.295-5.53h88.36Z" transform="translate(-127.995 -106.77)" fill="#e0e0e0" opacity="0.5"/>
      <path id="Path_90971" data-name="Path 90971" d="M322.915,175.31h-88.36l-.295-5.53h88.36Z" transform="translate(-127.995 -117.714)" fill="#e0e0e0" opacity="0.5"/>
      <path id="Path_90972" data-name="Path 90972" d="M322.915,195.34h-88.36l-.295-5.53h88.36Z" transform="translate(-127.995 -128.658)" fill="#e0e0e0" opacity="0.5"/>
      <rect id="Rectangle_7072" data-name="Rectangle 7072" width="27.603" height="54.575" transform="translate(26.605 27.544)" fill="#e0e0e0"/>
      <rect id="Rectangle_7073" data-name="Rectangle 7073" width="28.147" height="54.575" transform="translate(27.698 27.544)" fill="#f5f5f5"/>
      <rect id="Rectangle_7074" data-name="Rectangle 7074" width="48.26" height="23.429" transform="translate(30.052 78.961) rotate(-90)" fill="#fff"/>
      <rect id="Rectangle_7075" data-name="Rectangle 7075" width="27.603" height="54.575" transform="translate(63.457 19.215)" fill="#e0e0e0"/>
      <rect id="Rectangle_7076" data-name="Rectangle 7076" width="28.147" height="54.575" transform="translate(64.55 19.215)" fill="#f5f5f5"/>
      <rect id="Rectangle_7077" data-name="Rectangle 7077" width="48.26" height="23.434" transform="translate(66.909 70.633) rotate(-90)" fill="#fff"/>
      <rect id="Rectangle_7078" data-name="Rectangle 7078" width="11.617" height="50.297" transform="translate(74.539 98.217)" fill="#e6e6e6"/>
      <path id="Path_90973" data-name="Path 90973" d="M182.283,376.231h2.2V371.11H179.97Z" transform="translate(-98.332 -227.717)" fill="#f0f0f0"/>
      <rect id="Rectangle_7079" data-name="Rectangle 7079" width="11.617" height="50.297" transform="translate(31.114 98.217)" fill="#e6e6e6"/>
      <rect id="Rectangle_7080" data-name="Rectangle 7080" width="45.353" height="47.154" transform="translate(40.803 98.217)" fill="#f0f0f0"/>
      <rect id="Rectangle_7081" data-name="Rectangle 7081" width="37.614" height="20.222" transform="translate(64.219 138.966) rotate(-90)" fill="#e6e6e6"/>
      <rect id="Rectangle_7082" data-name="Rectangle 7082" width="37.614" height="20.222" transform="translate(42.513 138.966) rotate(-90)" fill="#e6e6e6"/>
      <path id="Path_90974" data-name="Path 90974" d="M110.076,279.633h-4a7.085,7.085,0,0,1-4.6-1.633h13.191a7.085,7.085,0,0,1-4.591,1.633Z" transform="translate(-55.447 -176.843)" fill="#f0f0f0"/>
      <path id="Path_90975" data-name="Path 90975" d="M158.376,279.633h-4a7.076,7.076,0,0,1-4.6-1.633h13.191a7.085,7.085,0,0,1-4.591,1.633Z" transform="translate(-81.837 -176.843)" fill="#f0f0f0"/>
      <path id="Path_90976" data-name="Path 90976" d="M92.159,376.231H89.95V371.11h4.523Z" transform="translate(-49.147 -227.717)" fill="#f0f0f0"/>
      <path id="Path_90977" data-name="Path 90977" d="M113.42,260.94s.345,4.8,13.568,4.8,13.568-4.8,13.568-4.8Z" transform="translate(-61.971 -167.522)" fill="#e6e6e6"/>
      <rect id="Rectangle_7083" data-name="Rectangle 7083" width="99.261" height="8.31" transform="translate(202.831 114.933) rotate(180)" fill="#ebebeb"/>
      <rect id="Rectangle_7084" data-name="Rectangle 7084" width="28.174" height="8.31" transform="translate(131.749 114.933) rotate(180)" fill="#e0e0e0"/>
      <rect id="Rectangle_7085" data-name="Rectangle 7085" width="5.942" height="33.581" transform="translate(202.835 148.515) rotate(180)" fill="#ebebeb"/>
      <path id="Path_90978" data-name="Path 90978" d="M434.05,310.7l5.942-1.161V308.37H434.05Z" transform="translate(-237.157 -193.437)" fill="#e0e0e0"/>
      <rect id="Rectangle_7086" data-name="Rectangle 7086" width="5.942" height="33.581" transform="translate(109.513 148.515) rotate(180)" fill="#e0e0e0"/>
      <rect id="Rectangle_7087" data-name="Rectangle 7087" width="5.942" height="33.581" transform="translate(131.749 148.515) rotate(180)" fill="#ebebeb"/>
      <path id="Path_90979" data-name="Path 90979" d="M277.34,310.7l5.942-1.161V308.37H277.34Z" transform="translate(-151.534 -193.437)" fill="#e0e0e0"/>
      <rect id="Rectangle_7088" data-name="Rectangle 7088" width="5.942" height="33.581" transform="translate(184.232 148.515) rotate(180)" fill="#e0e0e0"/>
    </g>
    <g id="freepik--Shadow--inject-49" transform="translate(25.453 213.73)">
      <ellipse id="freepik--path--inject-49" cx="87.952" cy="5.135" rx="87.952" ry="5.135" transform="translate(0 0)" fill="#f5f5f5"/>
    </g>
    <g id="freepik--Smartphone--inject-49" transform="translate(44.749 88.717)">
      <path id="Path_90980" data-name="Path 90980" d="M159.814,129.33H105.7a6.178,6.178,0,0,0-6.224,6.655l7.757,115.4a7.258,7.258,0,0,0,7.122,6.668h54.112a6.169,6.169,0,0,0,6.219-6.668l-7.757-115.4a7.258,7.258,0,0,0-7.117-6.655Z" transform="translate(-99.091 -129.329)" fill="#407bff"/>
      <path id="Path_90981" data-name="Path 90981" d="M159.814,129.33H105.7a6.178,6.178,0,0,0-6.224,6.655l7.757,115.4a7.258,7.258,0,0,0,7.122,6.668h54.112a6.169,6.169,0,0,0,6.219-6.668l-7.757-115.4a7.258,7.258,0,0,0-7.117-6.655Z" transform="translate(-99.091 -129.329)" fill="#fff" opacity="0.3"/>
      <rect id="Rectangle_7089" data-name="Rectangle 7089" width="0.454" height="10.91" transform="translate(0 24.756) rotate(-3.841)" fill="#407bff"/>
      <rect id="Rectangle_7090" data-name="Rectangle 7090" width="0.454" height="4.89" transform="translate(1.132 41.365) rotate(-3.85)" fill="#407bff"/>
      <path id="Path_90982" data-name="Path 90982" d="M111.166,256.512a1.814,1.814,0,0,1-3.52.753,6.927,6.927,0,0,1-.408-1.91L99.481,139.932A6.5,6.5,0,0,1,99.635,138a1.814,1.814,0,0,1,3.588.295Z" transform="translate(-99.094 -133.278)" fill="#407bff"/>
      <path id="Path_90983" data-name="Path 90983" d="M175.722,258.522H125.448a5.1,5.1,0,0,1-4.94-4.636l-7.757-115.4a3.987,3.987,0,0,1,4.042-4.341h50.275a5.1,5.1,0,0,1,4.94,4.631l7.757,115.4a4,4,0,0,1-4.042,4.341Zm-58.93-123.888a3.506,3.506,0,0,0-3.556,3.824l7.757,115.378a4.6,4.6,0,0,0,4.455,4.182h50.274a3.507,3.507,0,0,0,3.556-3.824l-7.757-115.4a4.6,4.6,0,0,0-4.455-4.182Z" transform="translate(-106.345 -131.962)" fill="#fff"/>
      <g id="Group_35561" data-name="Group 35561" transform="translate(10.153 8.843)" opacity="0.5">
        <ellipse id="Ellipse_12" data-name="Ellipse 12" cx="20.204" cy="22.586" rx="20.204" ry="22.586" transform="translate(0 29.359) rotate(-46.6)" fill="#407bff"/>
        <ellipse id="Ellipse_13" data-name="Ellipse 13" cx="16.162" cy="18.068" rx="16.162" ry="18.068" transform="translate(6.06 29.532) rotate(-46.6)" fill="#fff"/>
        <ellipse id="Ellipse_14" data-name="Ellipse 14" cx="12.121" cy="13.55" rx="12.121" ry="13.55" transform="matrix(0.687, -0.726, 0.726, 0.687, 12.118, 29.714)" fill="#407bff"/>
        <ellipse id="Ellipse_15" data-name="Ellipse 15" cx="8.083" cy="9.036" rx="8.083" ry="9.036" transform="translate(18.173 29.867) rotate(-46.6)" fill="#fff"/>
        <ellipse id="Ellipse_16" data-name="Ellipse 16" cx="4.042" cy="4.518" rx="4.042" ry="4.518" transform="matrix(0.687, -0.726, 0.726, 0.687, 24.231, 30.047)" fill="#407bff"/>
      </g>
      <path id="Path_90984" data-name="Path 90984" d="M164.549,270.215h-.24a7.476,7.476,0,0,0-6.541-4.037,6.71,6.71,0,0,0-2.046.318,7.671,7.671,0,0,0-6.641-4,6.5,6.5,0,0,0-6.6,6.432,5.081,5.081,0,0,0-4.763,5.5,5.992,5.992,0,0,0,5.9,5.521h21.6a4.5,4.5,0,0,0,4.536-4.876A5.294,5.294,0,0,0,164.549,270.215Z" transform="translate(-119.985 -202.091)" fill="#fff"/>
      <path id="Path_90985" data-name="Path 90985" d="M202.009,155.92h-.186a5.825,5.825,0,0,0-5.1-3.144,5.252,5.252,0,0,0-1.6.245,5.983,5.983,0,0,0-5.176-3.112,5.071,5.071,0,0,0-5.144,4.99,3.965,3.965,0,0,0-3.715,4.291,4.672,4.672,0,0,0,4.6,4.3h16.838a3.506,3.506,0,0,0,3.543-3.8A4.132,4.132,0,0,0,202.009,155.92Z" transform="translate(-143.687 -140.574)" fill="#fff"/>
      <path id="Path_90986" data-name="Path 90986" d="M202.572,318.86h-31.1a1.615,1.615,0,0,0-1.628,1.746l1.261,18.548a1.892,1.892,0,0,0,1.864,1.746h4.173l.349,5.13,4.777-5.13h21.774a1.61,1.61,0,0,0,1.629-1.746l-1.257-18.548a1.9,1.9,0,0,0-1.842-1.746Z" transform="translate(-137.545 -232.885)" fill="#fff" opacity="0.3"/>
      <path id="Path_90987" data-name="Path 90987" d="M206.387,342.915H177.419l-.159-2.345h28.973Z" transform="translate(-141.6 -244.747)" fill="#fff"/>
      <path id="Path_90988" data-name="Path 90988" d="M197.954,353.655h-19.8l-.159-2.345h19.8Z" transform="translate(-141.999 -250.616)" fill="#fff"/>
      <path id="Path_90989" data-name="Path 90989" d="M205.661,332.175H176.689l-.159-2.345H205.5Z" transform="translate(-141.201 -238.879)" fill="#fff"/>
    </g>
    <g id="freepik--Character--inject-49" transform="translate(66.02 71.435)">
      <path id="Path_90990" data-name="Path 90990" d="M289.862,141.721l1.193.857q.621.454,1.252.857c.839.558,1.683,1.116,2.536,1.624s1.715.989,2.568,1.415a18.405,18.405,0,0,0,2.477,1.03,1.484,1.484,0,0,0-.576-.027,1.093,1.093,0,0,0-.331.1c-.132.068-.091.073-.023.032a3.522,3.522,0,0,0,.7-.644,17.714,17.714,0,0,0,1.615-2.268c.531-.835,1.039-1.719,1.524-2.626s.971-1.837,1.42-2.722l.032-.059a2.041,2.041,0,0,1,3.783,1.483,44.1,44.1,0,0,1-2.336,6.314,21.8,21.8,0,0,1-1.792,3.153,9.313,9.313,0,0,1-1.492,1.683,5.134,5.134,0,0,1-1.384.862,4.459,4.459,0,0,1-1.107.295A4.033,4.033,0,0,1,298.56,153a22.594,22.594,0,0,1-3.547-1.139,32.365,32.365,0,0,1-3.148-1.483q-1.511-.8-2.944-1.692c-.476-.3-.948-.6-1.415-.907s-.907-.621-1.42-.993a3.175,3.175,0,0,1,3.715-5.1Z" transform="translate(-221.775 -116.876)" fill="#407bff"/>
      <path id="Path_90991" data-name="Path 90991" d="M289.862,141.721l1.193.857q.621.454,1.252.857c.839.558,1.683,1.116,2.536,1.624s1.715.989,2.568,1.415a18.405,18.405,0,0,0,2.477,1.03,1.484,1.484,0,0,0-.576-.027,1.093,1.093,0,0,0-.331.1c-.132.068-.091.073-.023.032a3.522,3.522,0,0,0,.7-.644,17.714,17.714,0,0,0,1.615-2.268c.531-.835,1.039-1.719,1.524-2.626s.971-1.837,1.42-2.722l.032-.059a2.041,2.041,0,0,1,3.783,1.483,44.1,44.1,0,0,1-2.336,6.314,21.8,21.8,0,0,1-1.792,3.153,9.313,9.313,0,0,1-1.492,1.683,5.134,5.134,0,0,1-1.384.862,4.459,4.459,0,0,1-1.107.295A4.033,4.033,0,0,1,298.56,153a22.594,22.594,0,0,1-3.547-1.139,32.365,32.365,0,0,1-3.148-1.483q-1.511-.8-2.944-1.692c-.476-.3-.948-.6-1.415-.907s-.907-.621-1.42-.993a3.175,3.175,0,0,1,3.715-5.1Z" transform="translate(-221.775 -116.876)" opacity="0.2"/>
      <path id="Path_90992" data-name="Path 90992" d="M329.607,136.388l1.229-2.078,2.359,2.545a3.134,3.134,0,0,1-1.715,1.61,1.17,1.17,0,0,1-1.03-.136l-.454-.29a1.229,1.229,0,0,1-.39-1.651Z" transform="translate(-246.02 -114.768)" fill="#ffb573"/>
      <path id="Path_90993" data-name="Path 90993" d="M335.863,131.358l.522.322a1.234,1.234,0,0,1,.168,1.973l-1.674,1.488L332.52,132.6l2.055-1.243a1.229,1.229,0,0,1,1.288,0Z" transform="translate(-247.703 -113.054)" fill="#e4897b"/>
      <path id="Path_90994" data-name="Path 90994" d="M232.02,398.1l3.593.1,1.352-8.319-3.588-.1Z" transform="translate(-192.792 -254.352)" fill="#e4897b"/>
      <path id="Path_90995" data-name="Path 90995" d="M235.277,405.5l-4.015-.5a.259.259,0,0,0-.295.213l-.594,3.148a.635.635,0,0,0,.544.712c1.4.154,2.078.154,3.842.377,1.084.141,3.91.821,5.412.635s1.275-1.66.621-1.715a6.8,6.8,0,0,1-4.931-2.567,1.021,1.021,0,0,0-.584-.3Z" transform="translate(-191.889 -262.664)" fill="#263238"/>
      <path id="Path_90996" data-name="Path 90996" d="M234.159,389.79l3.593.1-.7,4.287-3.593-.1Z" transform="translate(-193.579 -254.358)" opacity="0.2"/>
      <path id="Path_90997" data-name="Path 90997" d="M252.517,208.788s-3.134,29.753-5.221,39.859c-2.268,11.068-9.6,43.448-9.6,43.448l-6.573-.485s3.6-33.5,6.55-44.337c0-11.259,2.722-42.812,2.722-42.812Z" transform="translate(-192.3 -153.097)" fill="#7d8487"/>
      <path id="Path_90998" data-name="Path 90998" d="M250.539,232.5c-.059-2.327-1.32-3.076-2.563-3.048-.454,5.6-.939,12.461-1.306,18.653a29.04,29.04,0,0,0,3.869-15.605Z" transform="translate(-200.796 -166.75)" opacity="0.3"/>
      <path id="Path_90999" data-name="Path 90999" d="M230.379,394.014l7.04.522.807-2.654-8.106-.082Z" transform="translate(-191.754 -255.456)" fill="#fff"/>
      <path id="Path_91000" data-name="Path 91000" d="M151.71,340.771l2.264,2.8,6.773-4.885-2.268-2.794Z" transform="translate(-148.912 -224.908)" fill="#e4897b"/>
      <path id="Path_91001" data-name="Path 91001" d="M151.093,348.442l-2.014-3.507a.259.259,0,0,0-.345-.109l-2.871,1.424a.635.635,0,0,0-.24.862c.721,1.211,1.13,1.751,2.014,3.293.544.948,1.978,3.674,2.722,4.99s2.028.531,1.814-.091a15.158,15.158,0,0,1-.98-6.206,1.016,1.016,0,0,0-.1-.658Z" transform="translate(-145.542 -229.775)" fill="#263238"/>
      <path id="Path_91002" data-name="Path 91002" d="M162.423,335.89l2.268,2.8L161.2,341.2l-2.268-2.794Z" transform="translate(-152.857 -224.908)" opacity="0.2"/>
      <path id="Path_91003" data-name="Path 91003" d="M206.393,203.328s-8.841,25.3-12.86,34.811c-4.4,10.411-30.683,28.9-30.683,28.9l-4.151-5.121s17.864-17.9,24.5-26.4c3.674-11.563,11.517-36.371,11.517-36.371Z" transform="translate(-152.731 -150.196)" fill="#7d8487"/>
      <path id="Path_91004" data-name="Path 91004" d="M158.33,335.142l4.486,5.534,2.191-1.266-5.253-5.861Z" transform="translate(-152.529 -223.629)" fill="#fff"/>
      <path id="Path_91005" data-name="Path 91005" d="M256.267,170.189,238.05,163.28c.454-1.665,2.835-6.555,4.953-13.364a91.92,91.92,0,0,0,3.484-15.423h0a1.13,1.13,0,0,1,1.32-.975c.34.059.744.136,1.188.222,1.148.231,2.581.558,3.946.975a71.514,71.514,0,0,1,7.712,2.749,23.493,23.493,0,0,1,2.454,1.284,6.717,6.717,0,0,1,1.3.966,1.361,1.361,0,0,1,.5.934C264.913,143.253,262.3,153.342,256.267,170.189Z" transform="translate(-196.087 -114.326)" fill="#253238"/>
      <path id="Path_91006" data-name="Path 91006" d="M277.863,128.424c-2.05-1.334-1.951-2.858-1.257-4.328a10.318,10.318,0,0,1,.585-1.057l-1.973-3.334-1.452-2.445c-.318,2.685-1.288,7.439-3.556,8.492a9.98,9.98,0,0,0,5.049,3.72C278.606,130.515,277.863,128.424,277.863,128.424Z" transform="translate(-213.658 -105.452)" fill="#e4897b"/>
      <path id="Path_91007" data-name="Path 91007" d="M278.29,143.033l-.032-.853-2.268.445Z" transform="translate(-216.816 -119.068)" fill="#e0e0e0"/>
      <path id="Path_91008" data-name="Path 91008" d="M281.06,143.224l.422-.694,1.465,1.783Z" transform="translate(-219.586 -119.259)" fill="#e0e0e0"/>
      <path id="Path_91009" data-name="Path 91009" d="M268.967,134.823a21.42,21.42,0,0,0,4.582,3.221,6.031,6.031,0,0,0-2.1,3.243c-.735-.513-3.674-5.348-4.083-6.677Z" transform="translate(-212.107 -114.932)" fill="#fff"/>
      <path id="Path_91010" data-name="Path 91010" d="M283.867,140.73a3.629,3.629,0,0,1-1.887.817,8.449,8.449,0,0,1,.907,3.629,8.085,8.085,0,0,0,2.368-3.361Z" transform="translate(-220.089 -118.276)" fill="#fff"/>
      <path id="Path_91011" data-name="Path 91011" d="M277.847,140.59s1.982.953,3.733,2.032a3.888,3.888,0,0,1,1.706,4.35c-2.164,7.648-5.085,15.074-6.3,19.206-1.284,4.4-3.071,9.93-3.071,9.93l-3.089.73S278.573,147.222,277.847,140.59Z" transform="translate(-213.997 -118.199)" opacity="0.3"/>
      <path id="Path_91012" data-name="Path 91012" d="M252.328,133.769s-2.663-.349-4.99-.454a3.552,3.552,0,0,0-3.6,2.672c-1.179,4.663-2.05,13.581-3.243,17.052C239.01,157.376,237,165.831,237,165.831l10.551,6.1S258.211,139.181,252.328,133.769Z" transform="translate(-195.513 -114.223)" opacity="0.3"/>
      <path id="Path_91013" data-name="Path 91013" d="M250.033,133.769s-2.663-.349-4.99-.454a3.552,3.552,0,0,0-3.6,2.672c-1.179,4.663-2.785,13.373-3.983,16.847-1.492,4.337-4.659,11.708-4.659,11.708l13.309,6.242S255.916,139.181,250.033,133.769Z" transform="translate(-193.218 -114.223)" fill="#407bff"/>
      <path id="Path_91014" data-name="Path 91014" d="M250.033,133.769s-2.663-.349-4.99-.454a3.552,3.552,0,0,0-3.6,2.672c-1.179,4.663-2.785,13.373-3.983,16.847-1.492,4.337-4.659,11.708-4.659,11.708l13.309,6.242S255.916,139.181,250.033,133.769Z" transform="translate(-193.218 -114.223)" opacity="0.2"/>
      <path id="Path_91015" data-name="Path 91015" d="M278.9,140.59s1.982.953,3.733,2.032a3.887,3.887,0,0,1,1.706,4.35c-2.164,7.648-3.874,15.663-4.736,19.882-.907,4.491-1.855,8.578-1.855,8.578l-4.99.676S279.628,147.222,278.9,140.59Z" transform="translate(-215.052 -118.199)" fill="#407bff"/>
      <path id="Path_91016" data-name="Path 91016" d="M278.9,140.59s1.982.953,3.733,2.032a3.887,3.887,0,0,1,1.706,4.35c-2.164,7.648-3.874,15.663-4.736,19.882-.907,4.491-1.855,8.578-1.855,8.578l-4.99.676S279.628,147.222,278.9,140.59Z" transform="translate(-215.052 -118.199)" opacity="0.2"/>
      <path id="Path_91017" data-name="Path 91017" d="M282.766,125.984a10.317,10.317,0,0,0-.585,1.071,3.8,3.8,0,0,1-1.733-3.32,5.1,5.1,0,0,1,.345-1.084Z" transform="translate(-219.233 -108.397)" opacity="0.2"/>
      <path id="Path_91018" data-name="Path 91018" d="M291.762,99.68c2.413.313,3.3,3.57,1.964,5.72A9.556,9.556,0,0,1,291.762,99.68Z" transform="translate(-225.431 -95.847)" fill="#263238"/>
      <path id="Path_91019" data-name="Path 91019" d="M275.036,105.855c.816,3.488,1.111,5.566,3.2,7.131a4.654,4.654,0,0,0,7.48-3.466c.227-3.262-1.143-8.419-4.84-9.354a4.709,4.709,0,0,0-5.843,5.688Z" transform="translate(-216.216 -96.016)" fill="#e4897b"/>
      <path id="Path_91020" data-name="Path 91020" d="M271.386,104.176c2.1.059,1.774-3.42.857-4.736,2.912.454,7.739-2.118,8.224-4.813.7-3.906-5.253-3.906-7.181-2.663.83.059,1.252.762,1.052,1.125,0,0-2.876-.871-4.736.141.812.3,1.674,1.47-1.415,1.842-2.939.354-2.05,3.311-.567,3.257-.789,1.211-1.737,3.965.041,5.135s2.994,2.694,2.608,3.32C270.892,106.762,272.212,106.013,271.386,104.176Z" transform="translate(-211.491 -91.23)" fill="#263238"/>
      <path id="Path_91021" data-name="Path 91021" d="M267.478,106.28A2.552,2.552,0,0,0,265.21,109a10.886,10.886,0,0,1,2.268-2.722Z" transform="translate(-210.926 -99.453)" fill="#263238"/>
      <path id="Path_91022" data-name="Path 91022" d="M273.147,117.474a3.175,3.175,0,0,0,1.724,1.551c.984.358,1.5-.513,1.247-1.483-.231-.88-1.021-2.118-2.019-2.055a1.289,1.289,0,0,0-.952,1.987Z" transform="translate(-215.167 -104.482)" fill="#e4897b"/>
      <path id="Path_91023" data-name="Path 91023" d="M287.385,112.825c.045.286.24.494.426.454s.3-.277.254-.562-.24-.5-.431-.454S287.336,112.539,287.385,112.825Z" transform="translate(-223.036 -102.718)" fill="#263238"/>
      <path id="Path_91024" data-name="Path 91024" d="M294.555,111.861c.045.286.236.494.426.454s.3-.277.254-.567-.24-.494-.431-.454S294.505,111.57,294.555,111.861Z" transform="translate(-226.954 -102.19)" fill="#263238"/>
      <path id="Path_91025" data-name="Path 91025" d="M292.34,113.17a10.983,10.983,0,0,0,1.787,2.268,1.678,1.678,0,0,1-1.329.454Z" transform="translate(-225.75 -103.218)" fill="#de5753"/>
      <path id="Path_91026" data-name="Path 91026" d="M288.836,120.138a2.477,2.477,0,0,1-1.814-.721.085.085,0,0,1,.122-.118,2.368,2.368,0,0,0,2.01.64.086.086,0,1,1,.023.168A2.182,2.182,0,0,1,288.836,120.138Z" transform="translate(-222.831 -106.553)" fill="#263238"/>
      <path id="Path_91027" data-name="Path 91027" d="M287.859,121.112a2.477,2.477,0,0,1-.989-1.692.086.086,0,0,1,.077-.091.082.082,0,0,1,.091.077,2.418,2.418,0,0,0,1.188,1.746.082.082,0,0,1,.032.113.086.086,0,0,1-.118.032,3.358,3.358,0,0,1-.281-.185Z" transform="translate(-222.761 -106.583)" fill="#263238"/>
      <path id="Path_91028" data-name="Path 91028" d="M284.579,110.128a.154.154,0,0,1-.154-.231,1.651,1.651,0,0,1,1.261-.907.17.17,0,1,1,.023.34,1.315,1.315,0,0,0-.984.7.159.159,0,0,1-.146.1Z" transform="translate(-221.414 -100.933)" fill="#263238"/>
      <path id="Path_91029" data-name="Path 91029" d="M295.575,108.418a.163.163,0,0,1-.141-.073,1.424,1.424,0,0,0-1.089-.635.172.172,0,0,1,0-.34h0a1.751,1.751,0,0,1,1.361.78.168.168,0,0,1-.041.236.15.15,0,0,1-.091.032Z" transform="translate(-226.767 -100.049)" fill="#263238"/>
      <path id="Path_91030" data-name="Path 91030" d="M242.207,139.836c-.907.739-1.864,1.56-2.776,2.363s-1.842,1.628-2.722,2.472a53.116,53.116,0,0,0-4.908,5.2l-.517.671-.063.086a.5.5,0,0,0,.036-.064.983.983,0,0,0,.068-.159.843.843,0,0,0,.054-.286c0-.154-.027-.154,0-.082a1.474,1.474,0,0,0,.118.4,6.532,6.532,0,0,0,.68,1.216,15.971,15.971,0,0,0,1.007,1.325,33.248,33.248,0,0,0,2.4,2.631c.857.857,1.765,1.724,2.631,2.518l.059.05A2.037,2.037,0,0,1,235.8,161.4a40.876,40.876,0,0,1-6.351-4.967c-.494-.494-.98-1.012-1.456-1.583a12.824,12.824,0,0,1-1.361-1.991,7.5,7.5,0,0,1-.576-1.361,5.085,5.085,0,0,1-.209-1.964,4.491,4.491,0,0,1,.281-1.211,4.593,4.593,0,0,1,.277-.585l.163-.268.073-.109.59-.875a49.352,49.352,0,0,1,5.23-6.165c.907-.944,1.86-1.864,2.826-2.753s1.923-1.746,2.989-2.617a3.175,3.175,0,0,1,3.96,4.876Z" transform="translate(-189.407 -114.873)" fill="#407bff"/>
      <path id="Path_91031" data-name="Path 91031" d="M242.207,139.836c-.907.739-1.864,1.56-2.776,2.363s-1.842,1.628-2.722,2.472a53.116,53.116,0,0,0-4.908,5.2l-.517.671-.063.086a.5.5,0,0,0,.036-.064.983.983,0,0,0,.068-.159.843.843,0,0,0,.054-.286c0-.154-.027-.154,0-.082a1.474,1.474,0,0,0,.118.4,6.532,6.532,0,0,0,.68,1.216,15.971,15.971,0,0,0,1.007,1.325,33.248,33.248,0,0,0,2.4,2.631c.857.857,1.765,1.724,2.631,2.518l.059.05A2.037,2.037,0,0,1,235.8,161.4a40.876,40.876,0,0,1-6.351-4.967c-.494-.494-.98-1.012-1.456-1.583a12.824,12.824,0,0,1-1.361-1.991,7.5,7.5,0,0,1-.576-1.361,5.085,5.085,0,0,1-.209-1.964,4.491,4.491,0,0,1,.281-1.211,4.593,4.593,0,0,1,.277-.585l.163-.268.073-.109.59-.875a49.352,49.352,0,0,1,5.23-6.165c.907-.944,1.86-1.864,2.826-2.753s1.923-1.746,2.989-2.617a3.175,3.175,0,0,1,3.96,4.876Z" transform="translate(-189.407 -114.873)" opacity="0.2"/>
      <path id="Path_91032" data-name="Path 91032" d="M251.493,188.054l3.085,1.887-3.942,2.245s-2.622-1.96-1.5-3.225l1.316-.907a.957.957,0,0,1,1.041,0Z" transform="translate(-201.991 -144.048)" fill="#e4897b"/>
      <path id="Path_91033" data-name="Path 91033" d="M256.89,195.853l-1.7,1a1.021,1.021,0,0,1-1.415-.381l-1-1.814,3.942-2.245.635,2.268a1.034,1.034,0,0,1-.462,1.172Z" transform="translate(-204.135 -146.513)" fill="#e4897b"/>
    </g>
    <g id="freepik--Megaphone--inject-49" transform="translate(139.763 64.432)">
      <path id="Path_91034" data-name="Path 91034" d="M326.82,128.391l4.18-.821c-1.148,2.023.54,3.96,2.055,5.176.721.581.213,1.619-.907,1.814l-2.722.535C326.139,135.758,326.82,128.391,326.82,128.391Z" transform="translate(-318.3 -104.083)" fill="#407bff"/>
      <path id="Path_91035" data-name="Path 91035" d="M314.967,114.123l9.58-1.855a5.77,5.77,0,0,0,4.536-6.759h0a5.779,5.779,0,0,0-6.759-4.536l-9.576,1.878a5.784,5.784,0,0,0-4.536,6.763h0A5.775,5.775,0,0,0,314.967,114.123Z" transform="translate(-308.108 -89.493)" fill="#407bff"/>
      <path id="Path_91036" data-name="Path 91036" d="M314.967,114.123l9.58-1.855a5.77,5.77,0,0,0,4.536-6.759h0a5.779,5.779,0,0,0-6.759-4.536l-9.576,1.878a5.784,5.784,0,0,0-4.536,6.763h0A5.775,5.775,0,0,0,314.967,114.123Z" transform="translate(-308.108 -89.493)" fill="#fff" opacity="0.3"/>
      <path id="Path_91037" data-name="Path 91037" d="M356.33,104.415,340,104.2c-1.415.277-4.99-18.049-3.593-18.326L351.44,79.52Z" transform="translate(-323.396 -77.829)" fill="#407bff"/>
      <path id="Path_91038" data-name="Path 91038" d="M370.685,92.208c1.361,6.877,3.026,12.338,3.747,12.2s.213-5.834-1.139-12.7-3.026-12.338-3.747-12.2S369.338,85.327,370.685,92.208Z" transform="translate(-341.498 -77.82)" fill="#407bff"/>
      <path id="Path_91039" data-name="Path 91039" d="M370.685,92.208c1.361,6.877,3.026,12.338,3.747,12.2s.213-5.834-1.139-12.7-3.026-12.338-3.747-12.2S369.338,85.327,370.685,92.208Z" transform="translate(-341.498 -77.82)" opacity="0.3"/>
      <path id="Path_91040" data-name="Path 91040" d="M378.959,102.952c-.331-1.683-4.083-2.368-4.876-2.209s-1.179,1.647-.853,3.33,1.247,2.917,2.046,2.763S379.277,104.631,378.959,102.952Z" transform="translate(-343.626 -89.413)" fill="#407bff"/>
      <rect id="Rectangle_7091" data-name="Rectangle 7091" width="21.524" height="0.485" transform="matrix(0.987, -0.16, 0.16, 0.987, 39.345, 12.61)" fill="#407bff"/>
      <rect id="Rectangle_7092" data-name="Rectangle 7092" width="11.449" height="0.485" transform="translate(37.342 7.428) rotate(-40.45)" fill="#407bff"/>
      <rect id="Rectangle_7093" data-name="Rectangle 7093" width="0.485" height="3.389" transform="translate(50.207 23.429) rotate(-70.56)" fill="#407bff"/>
      <rect id="Rectangle_7094" data-name="Rectangle 7094" width="0.485" height="8.528" transform="translate(38.637 19.488) rotate(-71.456)" fill="#407bff"/>
    </g>
  </g>
</svg>
