<svg xmlns="http://www.w3.org/2000/svg" width="56" height="56" viewBox="0 0 56 56">
  <g id="Campaign" transform="translate(-376 -246)">
    <rect id="Rectangle_7018" data-name="Rectangle 7018" width="56" height="56" rx="6" transform="translate(376 246)" fill="#e2edf8"/>
    <g id="Campaign-2" data-name="Campaign" transform="translate(384 254)">
      <path id="Path_84725" data-name="Path 84725" d="M32.663,5H8.233A3.233,3.233,0,0,0,5,8.233v14.46l2.156-2.156,6.564-6.556a3.233,3.233,0,0,1,4.573,0l5.6,5.6a1.1,1.1,0,0,0,1.523,0l8.32-8.328L35.9,9.1V8.233A3.233,3.233,0,0,0,32.663,5Zm-8,8.371a1.8,1.8,0,1,1,1.8-1.8A1.8,1.8,0,0,1,24.662,13.371Z" fill="#006dd5"/>
      <path id="Path_84726" data-name="Path 84726" d="M27.338,33.823a3.233,3.233,0,0,1-4.573,0l-5.6-5.6a1.078,1.078,0,0,0-1.523,0L5.61,38.246a3.233,3.233,0,0,0,3.014,2.062h7.408v6.158H11.893a1.078,1.078,0,0,0,0,2.156H29.784a1.078,1.078,0,1,0,0-2.156H25.646V40.308h7.408a3.233,3.233,0,0,0,3.233-3.233V24.86l-2.156,2.156Z" transform="translate(-0.391 -12.725)" fill="#006dd5"/>
    </g>
  </g>
</svg>
