<svg xmlns="http://www.w3.org/2000/svg" width="233.46" height="161.651" viewBox="0 0 233.46 161.651">
  <g id="Group_10" data-name="Group 10" transform="translate(-14.511)">
    <path id="Path_43" data-name="Path 43" d="M242.811,104.071c3.64,10.577.619,21.077-6.119,25.941-6.893,5.018-18.046,4.478-27.031-3.32-12.934-11.195-16.342-32.04-2.013-40.687C221.2,77.9,237.7,89.171,242.811,104.071Z" fill="#b1d5f8"/>
    <path id="Path_44" data-name="Path 44" d="M219.188,78.98c0-.154-.387-.309-1.317-.618a20.236,20.236,0,0,0-4.027-.54,21.557,21.557,0,0,0-6.506.926,20.048,20.048,0,0,0-7.513,4.555,19.347,19.347,0,0,0-5.422,9.342A27.607,27.607,0,0,0,194.249,105a39.885,39.885,0,0,0,4.956,12.661,38.22,38.22,0,0,0,9.914,11.04l.62.464.7.386c.465.308.852.54,1.317.849.929.463,1.781,1,2.788,1.39a30.961,30.961,0,0,0,5.886,1.93,24.015,24.015,0,0,0,14.948-1.39,19.046,19.046,0,0,0,5.964-4.092,21.183,21.183,0,0,0,4.028-5.559,23.786,23.786,0,0,0,2.091-6.1,23.091,23.091,0,0,0,.464-6.022,25.946,25.946,0,0,0-.774-5.558,29.808,29.808,0,0,0-1.627-4.864,36.784,36.784,0,0,0-4.414-7.412,33.555,33.555,0,0,0-4.415-4.709c-2.633-2.316-4.415-3.243-4.492-3.088-.155.232,1.316,1.39,3.64,3.937a42.845,42.845,0,0,1,3.873,4.864,33.525,33.525,0,0,1,3.795,7.257,26.17,26.17,0,0,1,1.394,4.555,26.962,26.962,0,0,1,.619,5.1,21.646,21.646,0,0,1-.542,5.4,20.581,20.581,0,0,1-1.936,5.4,17.867,17.867,0,0,1-8.752,8.261,21.761,21.761,0,0,1-13.167,1.081,23.332,23.332,0,0,1-5.266-1.7c-.852-.308-1.627-.849-2.479-1.235l-1.162-.772-.619-.386-.542-.386a35.687,35.687,0,0,1-9.217-10.114,37.956,37.956,0,0,1-4.8-11.735,26.021,26.021,0,0,1-.078-11.194,19.117,19.117,0,0,1,1.782-4.709c.387-.695.852-1.39,1.239-2.007a10.545,10.545,0,0,1,1.472-1.7,20.361,20.361,0,0,1,6.583-4.478A19.02,19.02,0,0,1,214,79.057a22.017,22.017,0,0,1,3.95,0C218.646,79.134,219.188,79.134,219.188,78.98Z" fill="#231b1b"/>
    <path id="Path_45" data-name="Path 45" d="M220.582,96.042c-.929.386.31,4.246,1.859,9.265.077.231.155.463.232.772.078.231.155.463.233.772,1.626,4.941,2.633,8.8,3.64,8.646.929-.154.774-4.323-.775-9.5-.077-.231-.155-.54-.232-.772s-.155-.54-.232-.772C223.525,99.285,221.434,95.656,220.582,96.042Z" fill="#fff"/>
    <path id="Path_46" data-name="Path 46" d="M233.981,105.152c-.155-1-4.492-.772-9.991-.077-.31.077-.542.077-.852.154-.31,0-.542.077-.852.077-5.577.85-9.759,1.853-9.6,2.857.155.926,4.492.772,9.991.077.31-.077.542-.077.852-.154.31,0,.542-.078.852-.078C229.876,107.159,234.059,106.078,233.981,105.152Z" fill="#fff"/>
    <path id="Path_47" data-name="Path 47" d="M95.111,37.753h12.005L111.685,48.1H99.448Z" fill="#b1d5f8"/>
    <path id="Path_48" data-name="Path 48" d="M105.412,58.6h11.695l4.415,9.8H109.671Z" fill="#b1d5f8"/>
    <path id="Path_83" data-name="Path 83" d="M105.412,58.6h11.695l4.415,9.8H109.671Z" transform="translate(9.971 20.326)" fill="#b1d5f8"/>
    <path id="Path_49" data-name="Path 49" d="M92.012,35.823c-.31.154-.077,1.467.62,3.706.387,1.081.852,2.471,1.394,4.015.31.772.62,1.544.929,2.393.387.926.542,1.39,1.394,3.474,2.091,0,4.337.077,6.661.077,2.091,0,4.259,0,6.5.077h4.493l-1.7-3.783c-.852-1.93-1.7-3.783-2.556-5.636-.93-2.007-1.782-3.937-2.633-5.713-.852,0-1.627,0-2.479.077a8.93,8.93,0,0,0-1.472.077c-1.006,0-1.936.077-2.788.077-1.7.077-3.253.154-4.492.309-2.478.232-3.873.463-3.873.849,0,.309,1.394.618,3.95.849,1.239.077,2.788.232,4.493.309.852,0,1.781.077,2.788.077a9.4,9.4,0,0,1,1.472.077h.7v.077l.154.309a8.509,8.509,0,0,0,.543,1.235c.387.849.7,1.7,1.084,2.548.7,1.7,1.472,3.474,2.246,5.25-2.246,0-4.337.077-6.428.077-1.007,0-2.014,0-3.021.077H98.054a17.358,17.358,0,0,1-.852-1.853c-.387-.849-.774-1.621-1.084-2.316-.7-1.467-1.317-2.7-1.859-3.783C93.019,36.826,92.322,35.746,92.012,35.823Z" fill="#231b1b"/>
    <path id="Path_50" data-name="Path 50" d="M101.849,56.127c-.31.154-.078,1.467.619,3.706.388,1.081.852,2.47,1.395,4.015.309.772.619,1.544.929,2.393.387.926.542,1.39,1.394,3.474,2.091,0,4.337.077,6.661.077,2.091,0,4.26,0,6.506.077h4.492l-1.7-3.783c-.852-1.93-1.7-3.783-2.556-5.636-.929-2.007-1.781-3.937-2.633-5.713-.852,0-1.627,0-2.479.077a8.918,8.918,0,0,0-1.471.077c-1.007,0-1.936.077-2.788.077-1.7.077-3.253.154-4.493.309-2.478.154-3.872.463-3.872.849,0,.309,1.394.618,3.95.849,1.239.077,2.788.232,4.492.309.852,0,1.781.077,2.788.077a9.409,9.409,0,0,1,1.472.077h.7v.077l.155.309a8.612,8.612,0,0,0,.542,1.235c.387.849.7,1.7,1.084,2.548.7,1.7,1.472,3.474,2.246,5.25-2.246,0-4.337.077-6.428.077-1.007,0-2.014,0-3.021.077H107.89a17.545,17.545,0,0,1-.852-1.853c-.387-.849-.774-1.621-1.084-2.316-.7-1.467-1.317-2.7-1.859-3.783C102.933,57.131,102.159,55.973,101.849,56.127Z" fill="#231b1b"/>
    <path id="Path_84" data-name="Path 84" d="M101.849,56.127c-.31.154-.078,1.467.619,3.706.388,1.081.852,2.47,1.395,4.015.309.772.619,1.544.929,2.393.387.926.542,1.39,1.394,3.474,2.091,0,4.337.077,6.661.077,2.091,0,4.26,0,6.506.077h4.492l-1.7-3.783c-.852-1.93-1.7-3.783-2.556-5.636-.929-2.007-1.781-3.937-2.633-5.713-.852,0-1.627,0-2.479.077a8.918,8.918,0,0,0-1.471.077c-1.007,0-1.936.077-2.788.077-1.7.077-3.253.154-4.493.309-2.478.154-3.872.463-3.872.849,0,.309,1.394.618,3.95.849,1.239.077,2.788.232,4.492.309.852,0,1.781.077,2.788.077a9.409,9.409,0,0,1,1.472.077h.7v.077l.155.309a8.612,8.612,0,0,0,.542,1.235c.387.849.7,1.7,1.084,2.548.7,1.7,1.472,3.474,2.246,5.25-2.246,0-4.337.077-6.428.077-1.007,0-2.014,0-3.021.077H107.89a17.545,17.545,0,0,1-.852-1.853c-.387-.849-.774-1.621-1.084-2.316-.7-1.467-1.317-2.7-1.859-3.783C102.933,57.131,102.159,55.973,101.849,56.127Z" transform="translate(9.971 20.326)" fill="#231b1b"/>
    <path id="Path_51" data-name="Path 51" d="M132.287,37.521c0-1-3.485-1.39-8.132-1.467h-1.394c-4.57.077-8.133.463-8.133,1.467,0,.926,3.486,1.39,8.133,1.467h1.394C128.724,38.911,132.287,38.448,132.287,37.521Z" fill="#231b1b"/>
    <path id="Path_52" data-name="Path 52" d="M173.956,39.915c0-.232-.7-.54-1.936-.849a37.225,37.225,0,0,0-5.654-.695,107.05,107.05,0,0,0-18.976,1.39c-.774.077-1.471.232-2.246.309-.7.077-1.471.232-2.246.309-7.358,1.158-13.864,2.007-18.588,2.316-2.324.154-4.183.309-5.5.386s-2.014.309-2.092.54c0,.232.7.463,2.014.695a31.663,31.663,0,0,0,5.654.54,117.56,117.56,0,0,0,18.976-1.544c.774-.077,1.471-.232,2.246-.309.7-.077,1.472-.232,2.246-.309,7.358-1.158,13.864-1.93,18.588-2.162,2.324-.077,4.26-.232,5.5-.232S173.956,40.146,173.956,39.915Z" fill="#231b1b"/>
    <path id="Path_53" data-name="Path 53" d="M132.752,55.587c-.232-1-2.478-.772-5.344-.541a.58.58,0,0,0-.387.077h-.388c-2.788.309-5.034.541-5.111,1.544-.078.926,2.246,1.621,5.344,1.467a1332.668,1332.668,0,0,1,.929-.154C130.893,57.594,133.062,56.436,132.752,55.587Z" fill="#231b1b"/>
    <path id="Path_82" data-name="Path 82" d="M132.752,55.587c-.232-1-2.478-.772-5.344-.541a.58.58,0,0,0-.387.077h-.388c-2.788.309-5.034.541-5.111,1.544-.078.926,2.246,1.621,5.344,1.467a1332.668,1332.668,0,0,1,.929-.154C130.893,57.594,133.062,56.436,132.752,55.587Z" transform="translate(9.971 20.326)" fill="#231b1b"/>
    <path id="Path_54" data-name="Path 54" d="M181.546,58.366c.078-.463-2.633-1.467-7.357-1.93a58.962,58.962,0,0,0-8.365-.077c-3.176.232-6.661.618-10.224,1.235-.7.154-1.471.232-2.168.386s-1.4.232-2.169.386c-3.563.695-6.971,1.39-9.991,2.007s-5.732,1.081-7.978,1.467c-4.492.695-7.28,1-7.28,1.544,0,.463,2.865.849,7.512.618,2.324-.154,5.112-.463,8.21-.926s6.506-1.081,10.069-1.776c.7-.154,1.394-.232,2.169-.386.7-.154,1.394-.232,2.168-.386,3.563-.618,6.894-1.158,9.992-1.467a80.563,80.563,0,0,1,8.055-.463C178.6,58.521,181.392,58.83,181.546,58.366Z" fill="#231b1b"/>
    <path id="Path_81" data-name="Path 81" d="M181.546,58.366c.078-.463-2.633-1.467-7.357-1.93a58.962,58.962,0,0,0-8.365-.077c-3.176.232-6.661.618-10.224,1.235-.7.154-1.471.232-2.168.386s-1.4.232-2.169.386c-3.563.695-6.971,1.39-9.991,2.007s-5.732,1.081-7.978,1.467c-4.492.695-7.28,1-7.28,1.544,0,.463,2.865.849,7.512.618,2.324-.154,5.112-.463,8.21-.926s6.506-1.081,10.069-1.776c.7-.154,1.394-.232,2.169-.386.7-.154,1.394-.232,2.168-.386,3.563-.618,6.894-1.158,9.992-1.467a80.563,80.563,0,0,1,8.055-.463C178.6,58.521,181.392,58.83,181.546,58.366Z" transform="translate(9.971 20.326)" fill="#231b1b"/>
    <path id="Path_55" data-name="Path 55" d="M148.785,138.5c.077-.463-2.789-1.081-6.506-.54-.155,0-.388.077-.543.077s-.387.077-.542.077c-3.717.772-6.118,2.394-5.886,2.78.232.463,2.711-.695,6.2-1.313.155,0,.31-.077.542-.077.155,0,.31-.077.542-.077C146,138.813,148.785,138.967,148.785,138.5Z" fill="#393637"/>
    <path id="Path_56" data-name="Path 56" d="M106.264,12.275c.077-.54-1.549-1.081-4.26-1.776a93.965,93.965,0,0,0-11-2.316c-.465-.077-.929-.077-1.317-.154-.465,0-.93-.077-1.394-.077a29.149,29.149,0,0,0-6.428.232A24.956,24.956,0,0,0,76.832,9.5c-2.788,1.158-4.028,2.471-3.8,2.857s1.781-.232,4.415-.772a33.1,33.1,0,0,1,4.647-.695,37.906,37.906,0,0,1,5.886.077c.465,0,.852.077,1.239.077.387.077.852.077,1.239.154,4.26.463,8.132,1.235,10.921,1.467C104.482,12.816,106.186,12.661,106.264,12.275Z" fill="#393637"/>
    <path id="Path_57" data-name="Path 57" d="M158.931,12.816c-.078-1-8.21-.695-18.744-.386a9.909,9.909,0,0,0-1.549.077h-1.549c-10.533.309-18.666.386-18.666,1.467,0,.926,8.133,1.7,18.744,1.544a9.909,9.909,0,0,0,1.549-.077,9.909,9.909,0,0,0,1.549-.077C150.876,14.9,159.008,13.665,158.931,12.816Z" fill="#393637"/>
    <path id="Path_58" data-name="Path 58" d="M180.7,6.871c-.388-.926-3.331-.077-7.048.849-.155.077-.388.077-.543.154s-.387.077-.542.154c-3.795.926-6.738,1.544-6.661,2.548.078.926,3.253,1.235,7.358.309.233-.077.388-.077.62-.154s.387-.077.62-.154C178.371,9.5,181.082,7.643,180.7,6.871Z" fill="#393637"/>
    <path id="Path_59" data-name="Path 59" d="M203.465,72.726c.93-.386-3.64-11.812-8.6-27.022-.232-.772-.542-1.544-.774-2.239-.233-.772-.465-1.544-.7-2.239-4.957-15.209-8.055-27.1-9.062-26.867-.852.154,1.317,12.43,6.2,27.793.232.772.465,1.544.775,2.316.232.772.464,1.544.774,2.316C197.269,61.918,202.691,73.112,203.465,72.726Z" fill="#393637"/>
    <path id="Path_60" data-name="Path 60" d="M218.026,138.736c0-.232-2.943-.077-8.132.232-5.267.231-12.857.386-22.384.463-4.724,0-9.991.077-15.645.077-2.788,0-5.731.077-8.752.077s-6.119.077-9.372.155a73.259,73.259,0,0,0-9.913,1.081,40.745,40.745,0,0,0-5.112,1.235c-.852.231-1.7.54-2.556.849l-1.239.54c-.233.078-.388.155-.62.232l-.542.232h-.078l-.309-.386c-.543-.618-1.162-1.313-1.7-2.008-1.162-1.389-2.324-2.7-3.408-4.091-2.246-2.78-4.415-5.791-6.506-8.8q-2.556-3.7-4.88-7.411c-.774-1.236-1.549-2.471-2.323-3.783-.775-1.236-1.549-2.548-2.246-3.861A392.344,392.344,0,0,1,93.949,76.2C88.837,64.543,84.81,53.966,81.557,45.087,78.3,36.132,75.9,28.952,74.2,23.933c-1.7-4.941-2.633-7.72-2.866-7.643s.31,2.857,1.7,7.952c1.317,5.1,3.485,12.43,6.506,21.463S86.513,65.392,91.47,77.2a376.816,376.816,0,0,0,18.279,37.753c.774,1.313,1.471,2.625,2.246,3.938s1.549,2.547,2.324,3.86c1.549,2.547,3.253,5.018,4.956,7.566,2.169,3.088,4.338,6.1,6.661,8.955,1.162,1.467,2.324,2.78,3.486,4.169.619.695,1.161,1.313,1.781,2.008l1.394,1.621.232.232c.078.077.155.231.233.154l.619-.309,1.162-.54.62-.309c.155-.077.387-.154.542-.232l1.162-.463c.774-.309,1.549-.54,2.323-.772a48.505,48.505,0,0,1,4.8-1.158,67.775,67.775,0,0,1,9.6-1.081c3.176-.154,6.274-.231,9.217-.309,3.021-.077,5.964-.154,8.752-.231,5.654-.155,10.843-.309,15.645-.386,9.527-.232,17.2-.695,22.461-1.313C215.238,139.585,218.1,138.968,218.026,138.736Z" fill="#393637"/>
    <path id="Path_61" data-name="Path 61" d="M102.623,19.224c0,.232.543.386,1.472.463a12.087,12.087,0,0,0,3.95-.54,8.7,8.7,0,0,0,2.633-1.39,6.621,6.621,0,0,0,2.092-3.011,10.324,10.324,0,0,0-1.007-7.8,6.238,6.238,0,0,0-.93-1.39,16.274,16.274,0,0,0-1.084-1.312A12.017,12.017,0,0,0,102.778.772a17.818,17.818,0,0,0-5.964.463,19.435,19.435,0,0,0-3.64,1.235c-.774.386-1.239.695-1.162.926s.542.309,1.472.232c.852,0,2.169-.232,3.718-.309a19.624,19.624,0,0,1,5.189.077,8.686,8.686,0,0,1,2.711.926,10.9,10.9,0,0,1,2.478,1.853,11.559,11.559,0,0,1,.852,1c.233.386.465.695.7,1.081a7.993,7.993,0,0,1,1.007,5.636,5.028,5.028,0,0,1-2.866,3.243c-1.316.618-2.478,1-3.33,1.312S102.623,18.992,102.623,19.224Z" fill="#393637"/>
    <path id="Path_62" data-name="Path 62" d="M156.762,17.062c0,.232.387.541,1.239.541a4.115,4.115,0,0,0,3.1-1.853,1.239,1.239,0,0,0,.31-.54c.078-.154.155-.386.232-.54a5.8,5.8,0,0,0,.388-1.235,8.629,8.629,0,0,0,.155-2.857,11.109,11.109,0,0,0-2.556-5.79,11.893,11.893,0,0,0-.93-1c-.309-.309-.7-.618-1.007-.926A7.244,7.244,0,0,0,156.3,1.93c-.464-.232-.929-.463-1.471-.695a14.267,14.267,0,0,0-2.789-.849A20.522,20.522,0,0,0,147.39,0c-2.633.154-4.182.618-4.182,1.081s1.627.695,4.027,1.081a23.665,23.665,0,0,1,4.183.849c.774.232,1.549.54,2.323.849a8.419,8.419,0,0,1,1.162.618c.31.232.7.463,1.007.695.232.232.542.463.775.695s.464.54.7.772a9.931,9.931,0,0,1,2.168,4.323,5.915,5.915,0,0,1,.078,2.007c-.078.309-.078.618-.155.849a3.313,3.313,0,0,1-.078.386c-.077.154-.077.232-.155.309a3.7,3.7,0,0,1-1.626,1.776C157.149,16.676,156.762,16.83,156.762,17.062Z" fill="#393637"/>
    <path id="Path_63" data-name="Path 63" d="M72.495,20.459,70.016,35.823S96.04,138.659,132.752,151.552c36.4-10.191,59.25-5.79,66.686-4.478,7.513,1.39,10.921,2.007,10.921,2.007s15.1-8.26,7.667-10.345c-7.435-2.007-78.148,4.324-78.148,4.324l-6.506,2.547-5.035-5.79S82.176,66.7,72.495,20.459Z" fill="#221f20" fill-rule="evenodd"/>
    <path id="Path_64" data-name="Path 64" d="M213.147,154.949c.077-.463-3.64-1.544-9.914-2.934-3.1-.695-6.816-1.621-11.153-2.393a98.4,98.4,0,0,0-14.251-1.313c-1.007,0-2.014-.077-3.1,0h-3.1a127.382,127.382,0,0,0-25.4,3.552,52.869,52.869,0,0,0-7.281,2.239c-1.7.617-2.556,1.08-2.478,1.312s1.084.154,2.788-.077c1.781-.309,4.26-.772,7.435-1.313a169.232,169.232,0,0,1,25.1-2.7c1.006,0,2.013,0,3.02-.077h3.021a107.463,107.463,0,0,1,13.864,1.081c4.182.54,7.9,1.312,11.153,1.776C209.119,155.026,213.069,155.412,213.147,154.949Z" fill="#393637"/>
    <path id="Path_65" data-name="Path 65" d="M132.6,155.412c.078-.309-1.471-.927-4.027-2.548a50.267,50.267,0,0,1-9.837-8.106,102.455,102.455,0,0,1-11.772-15.209,210.007,210.007,0,0,1-11.7-21.077c-.775-1.544-1.472-3.088-2.246-4.632-.7-1.545-1.472-3.089-2.169-4.71C83.8,83.3,78.613,68.789,74.973,58.444c-3.64-10.423-5.654-16.753-6.2-16.6-.465.154.929,6.717,4.1,17.294a360.12,360.12,0,0,0,15.181,41.227c.7,1.622,1.472,3.166,2.169,4.787.7,1.544,1.472,3.165,2.246,4.709A186.92,186.92,0,0,0,104.56,131.17a92.281,92.281,0,0,0,12.547,15.286,41.474,41.474,0,0,0,10.766,7.721C130.816,155.335,132.52,155.644,132.6,155.412Z" fill="#393637"/>
    <path id="Path_66" data-name="Path 66" d="M211.443,161.048c.077-.463-3.64-1.544-9.914-2.934-3.1-.695-6.816-1.7-11.153-2.393a98.538,98.538,0,0,0-14.251-1.313c-1.007,0-2.014-.077-3.1,0h-3.1a127.381,127.381,0,0,0-25.4,3.552,52.868,52.868,0,0,0-7.281,2.239c-1.7.617-2.556,1.081-2.478,1.312s1.084.155,2.788-.077c1.781-.309,4.26-.772,7.435-1.313a169.383,169.383,0,0,1,25.1-2.7c1.007,0,2.013,0,3.02-.077h3.021a107.463,107.463,0,0,1,13.864,1.081c4.182.54,7.9,1.312,11.153,1.776C207.493,161.2,211.365,161.511,211.443,161.048Z" fill="#393637"/>
    <path id="Path_67" data-name="Path 67" d="M130.893,161.511c.078-.309-1.471-.926-4.027-2.547a50.309,50.309,0,0,1-9.837-8.107,102.4,102.4,0,0,1-11.772-15.209,209.764,209.764,0,0,1-11.7-21.077c-.774-1.544-1.472-3.088-2.246-4.632-.7-1.544-1.472-3.088-2.169-4.71C82.1,89.4,76.91,74.888,73.269,64.543c-3.64-10.423-5.654-16.753-6.2-16.6-.465.154.929,6.717,4.105,17.294a360.178,360.178,0,0,0,15.18,41.227c.7,1.621,1.472,3.165,2.169,4.786.7,1.544,1.472,3.166,2.246,4.71a186.891,186.891,0,0,0,12.083,21.308A92.291,92.291,0,0,0,115.4,152.556a41.442,41.442,0,0,0,10.766,7.72C129.189,161.434,130.893,161.743,130.893,161.511Z" fill="#393637"/>
    <path id="Path_74" data-name="Path 74" d="M63.123,138.968l-.929-1.236a15.64,15.64,0,0,0-1.007-1.389l-.232-.232c-.077-.077-.155-.154-.155-.232a1.68,1.68,0,0,0-.387-.617,1.3,1.3,0,0,1-.155-.386V134.8a.247.247,0,0,1,.232-.232l.077.077c.155.077.232.232.387.309a1.363,1.363,0,0,0,.387.309,4.2,4.2,0,0,1,.542.7l.465.694c.232.309.387.541.62.85l.62,1c.077.078.077.232-.155.618C63.278,138.968,63.2,138.968,63.123,138.968Z" fill="#221f1f"/>
    <path id="Path_75" data-name="Path 75" d="M60.49,138.89c-.077,0-1.472-1.544-1.7-1.7l-.232-.155-.155-.154c-.077-.154-.232-.309-.31-.463-.077-.077-.077-.386-.077-.386s-.077.077,0-.077.155-.232.232-.232c.077-.077.077,0,.077,0l.232.232.232.231.852.927.542.54c.155.232.387.463.542.7.077.077.077.154-.077.54Z" fill="#221f1f"/>
    <path id="Path_76" data-name="Path 76" d="M31.523,137.192a11.4,11.4,0,0,1-1.239-1.313l-1.394-1.389a1.657,1.657,0,0,0-.387-.232l-.232-.232a5.066,5.066,0,0,0-.542-.617c-.077-.077-.077-.386-.155-.463,0-.155.077-.309.232-.309h.078l.465.309.465.386,1.394,1.389c.232.309.465.463.774.849a9.449,9.449,0,0,1,.774,1.081c.077.078.155.232,0,.618A.285.285,0,0,1,31.523,137.192Z" fill="#221f1f"/>
    <path id="Path_77" data-name="Path 77" d="M29.9,137.964l-1.394-1.7a11.677,11.677,0,0,0-1.781-1.621.769.769,0,0,1-.387-.309l-.31-.231a4.714,4.714,0,0,0-.774-.541c-.155-.077-.232-.309-.387-.386v-.154a.167.167,0,0,1,.155-.155h.077a2.358,2.358,0,0,1,.62.309c.232.155.387.232.62.386a11.634,11.634,0,0,1,1.781,1.622,6.687,6.687,0,0,1,.929,1.08c.31.464.7.85,1.007,1.39a1.1,1.1,0,0,1,.155.463A.4.4,0,0,1,29.9,137.964Z" fill="#221f1f"/>
    <path id="Path_78" data-name="Path 78" d="M48.767,73.723c.06-.729-9.73-1.57-22.444-1.85H22.5C9.73,71.76,0,72.377,0,73.106c0,.673,9.789.673,22.444.9h1.91c.657,0,1.254,0,1.91.056C38.978,74.171,48.708,74.4,48.767,73.723Z" transform="translate(14.511 0.877)" fill="#1b1b1b"/>
    <path id="Path_80" data-name="Path 80" d="M40.756,73.512c.05-.646-8.131-1.392-18.757-1.641H18.807C8.131,71.771,0,72.318,0,72.965c0,.6,8.181.6,18.757.8h1.6c.549,0,1.048,0,1.6.05C32.575,73.909,40.706,74.108,40.756,73.512Z" transform="translate(47.384 47.834)" fill="#1b1b1b"/>
    <path id="Path_79" data-name="Path 79" d="M247.38,67.554c.155-1-6.738-2.625-16.032-3.165-.465,0-.93-.077-1.394-.077a8.438,8.438,0,0,1-1.394-.077c-9.217-.309-16.265.695-16.188,1.7.078.927,7.048.849,16.11,1.313a7.11,7.11,0,0,1,1.317.077c.465,0,.929.077,1.316.077C240.255,67.708,247.225,68.48,247.38,67.554Z" fill="#1b1b1b"/>
  </g>
</svg>
