<svg xmlns="http://www.w3.org/2000/svg" width="35" height="35" viewBox="0 0 35 35">
  <g id="Group_9" data-name="Group 9" transform="translate(-87 -29)">
    <g id="Reports" transform="translate(-289 -217)">
      <rect id="Rectangle_7018" data-name="Rectangle 7018" width="35" height="35" rx="6" transform="translate(376 246)" fill="#e2edf8"/>
    </g>
    <g id="Group_8" data-name="Group 8" transform="translate(92.23 34.065)">
      <g id="Group_8-2" data-name="Group 8" transform="translate(2 3)">
        <path id="Path_42" data-name="Path 42" d="M20.486,3H4.054A2.082,2.082,0,0,0,2,5.1V19.773a2.082,2.082,0,0,0,2.054,2.1H20.486a2.082,2.082,0,0,0,2.054-2.1V5.1A2.082,2.082,0,0,0,20.486,3ZM10.216,18.677H5.081v-2.1h5.135Zm0-5.193H5.081v-2.1h5.135Zm0-5.193H5.081v-2.1h5.135Zm4.95,7.29L12.27,12.6l1.448-1.478,1.448,1.489L18.422,9.29l1.458,1.489Z" transform="translate(-2 -3)" fill="#006dd5" fill-rule="evenodd"/>
      </g>
    </g>
  </g>
</svg>
