<svg xmlns="http://www.w3.org/2000/svg" width="114.971" height="99.332" viewBox="0 0 114.971 99.332">
  <g id="Customer-Support" transform="translate(31.313 -72.424)">
    <g id="Group_528" data-name="Group 528" transform="translate(-29.313 72.424)">
      <path id="Path_1259" data-name="Path 1259" d="M63.255,116.862c3.589.212-3.235-7.47-1.37-8.438.921-.5,1.44-1.039,1.488-1.653A1.392,1.392,0,0,0,63,105.733a1.965,1.965,0,0,0,.992-1.582,2.232,2.232,0,0,0-.851-1.559,2.27,2.27,0,0,0,1.181-1.393,1.482,1.482,0,0,0-.519-1.488c-.755-.684-3.353-.732-5.265-.661,1.511-.684,3.519-1.748,3.872-2.81a1.073,1.073,0,0,0-.118-.9c-1.062-1.559-9.516-.118-12.443.425.448-.779,1.11-2.172.779-3.211a1.608,1.608,0,0,0-1.015-1.015,56.3,56.3,0,0,0,.661-5.619.654.654,0,0,0,.212-.024c3.329,3.353,8.689,7.957,13.1,7.957a5,5,0,0,0,1.039-.094c5.454-1.015,14.309-15.182,18.086-21.227.732-1.181,1.275-2.054,1.582-2.479A19.894,19.894,0,0,0,89.769,67.7a24.947,24.947,0,0,0,4.439-4.484l.047-.024a1.632,1.632,0,0,0,.472-2.078A1.453,1.453,0,0,0,94,60.59a1.439,1.439,0,0,0-.851-2.456h-.165a1.354,1.354,0,0,0,.094-.33,1.49,1.49,0,0,0-.26-1.135,1.685,1.685,0,0,0-.8-.543c1.44-1.135,3.967-3.353,4.014-4.817a1.142,1.142,0,0,0-.425-.921c-1.606-1.3-6.611,2.9-8.76,4.84a3.1,3.1,0,0,0-.873-2.762.881.881,0,0,0-.873-.236c-2.2.425-6.777,7.719-7.579,9.516L63.086,76.173,60.3,73.67c.59-1.346.826-2.526.236-2.951-.425-.4-6.966-6.423-10.557-8.547A22.673,22.673,0,0,0,45.3,59.928v.024a.087.087,0,0,0-.071-.024c-.212-.047-.543-.142-.968-.26-.519-.142-1.2-.354-2.054-.568-.024,0-.024-.024-.047-.024l-.779-.189c-.142-.047-.307-.071-.448-.118l-.26-.071h0c-.047,0-.094-.024-.142-.024-.024,0-.024-.024-.047-.024-.212-.047-.684-.142-1.181-.26a3.14,3.14,0,0,1-1.7-1.062,9.067,9.067,0,0,0,2.1.284,4.406,4.406,0,0,0,3.66-1.606,6.361,6.361,0,0,0,1.181-4.038,16.489,16.489,0,0,0,2.384.189,6.435,6.435,0,0,0,3.235-.684h0A2.638,2.638,0,0,0,51.7,49.207c.024-2.243-3.187-4.722-4.7-5.761a4,4,0,0,0,.284-1.511,4.119,4.119,0,0,0-2.243-3.66v-.212c.8-4.086,1.3-8.24-.212-11a11.454,11.454,0,0,0-4.982-4.6c-6.021-5.478-17.638-1.346-21.983,2.786-2.975,2.81-3.707,6.871-3.9,8.973a2.374,2.374,0,0,0-2.007.26,3.4,3.4,0,0,0-1.488,3.849,3.72,3.72,0,0,0,2.29,2.361c-1.3,5.525-2.692,13.766-1.086,15.253,1.157,1.086,3.613,1.532,6,1.532a16.853,16.853,0,0,0,3.187-.284,2.952,2.952,0,0,1-1.015.284c-5.383.378-10.413,1.3-12.774,4.132h0c-.779.8-3.424,3.943-3.967,10.059a135.189,135.189,0,0,0-.448,13.978.805.805,0,0,0,.519.637,4.824,4.824,0,0,0,1.37.33l.921,16.623a8.614,8.614,0,0,0,1.24,4.8l-2.148,8.837h0c-.165,0,0-.165,0,0s.448,0,.614,0l32.82.724S63.449,119,63.255,116.862ZM94.21,61.39c.236.33,0,.992-.354,1.275l-2.574,1.913a.813.813,0,0,1-.968-1.3l2.81-2.078a.681.681,0,0,1,.568-.118.615.615,0,0,1,.519.309ZM93.03,58.627a.789.789,0,0,1,.59.354.935.935,0,0,1-.212,1.275l-3.353,2.479a1.046,1.046,0,0,1-.684.189.789.789,0,0,1-.59-.354.933.933,0,0,1-.165-.661.946.946,0,0,1,.378-.614l3.329-2.479a1.111,1.111,0,0,1,.707-.186Zm-.708-1.7a.918.918,0,0,1,.165.708,1.03,1.03,0,0,1-.4.637l-3.471,2.574a.917.917,0,0,1-.732.189.866.866,0,0,1-.614-.354.961.961,0,0,1,.236-1.346l3.471-2.574a.97.97,0,0,1,.614-.212h.118a1.284,1.284,0,0,1,.614.381ZM62.854,76.711a.32.32,0,0,0,.4,0L77.918,62.048a.326.326,0,0,0,.071-.094c.9-2.031,5.36-8.878,7.178-9.232a.33.33,0,0,1,.354.094,2.735,2.735,0,0,1,.425,3.164V56c0,.024-.024.024-.024.047S85.568,58.224,84.317,59a.289.289,0,0,0-.094.378,4.844,4.844,0,0,1,.472,2.574A2.654,2.654,0,0,1,83.514,63.8a.3.3,0,0,0-.118.4.271.271,0,0,0,.26.142.335.335,0,0,0,.142-.047,3.292,3.292,0,0,0,1.488-2.267,5.055,5.055,0,0,0-.425-2.692,5.656,5.656,0,0,0,1.653-3.093c3.494-3.282,7.719-6.3,8.736-5.5a.563.563,0,0,1,.212.472c-.024,1.322-3.093,3.9-4.484,4.935a1.76,1.76,0,0,0-.284.165l-3.471,2.574a1.553,1.553,0,0,0-.354,2.149,1.419,1.419,0,0,0,1.015.59c.071,0,.142.024.212.024h.094a.556.556,0,0,0-.047.189,1.434,1.434,0,0,0,.26,1.11,1.472,1.472,0,0,0,.992.568c.071,0,.142.024.189.024h.024a1.321,1.321,0,0,0,.236,1.2,1.408,1.408,0,0,0,1.135.568,1.135,1.135,0,0,0,.755-.26l.5-.378a16.281,16.281,0,0,1-2.668,2.456c-3.778,2.1-5.383,2.29-5.407,2.29a.284.284,0,0,0-.212.118c-.284.4-.873,1.322-1.677,2.621-3.731,6-12.491,20-17.685,20.967-4.2.779-9.893-3.991-13.459-7.532a8.009,8.009,0,0,0,1.795-1.44,35.8,35.8,0,0,0,4.01-4.862,38.846,38.846,0,0,0,3.353-5.6,1.287,1.287,0,0,1-.118.519ZM51.025,49.091a2.1,2.1,0,0,1-1.249,1.771h0c-1.228.732-3.305.708-5.36.4a8.189,8.189,0,0,0-.8-3.046,2.838,2.838,0,0,1-.236-1.3c.142-.33.284-.684.4-1.039a4.136,4.136,0,0,0,2.876-2C48.12,44.888,51.048,47.178,51.025,49.091Zm-6.186-8.406c.047-.614.094-1.228.094-1.842a3.594,3.594,0,0,1,1.677,3,3.549,3.549,0,0,1-2.644,3.424,22.205,22.205,0,0,0,.873-4.58ZM31.217,30.32l6.257,1.135a3.457,3.457,0,0,0,2.149-.047,2.27,2.27,0,0,0,1.135-2.031,5.7,5.7,0,0,0-.691-2.53.285.285,0,0,1,.519-.236,6.693,6.693,0,0,1,.732,2.786,2.843,2.843,0,0,1-1.464,2.55,4.143,4.143,0,0,1-2.5.071L31.1,30.883a12.146,12.146,0,0,0-4.014-.284,3.806,3.806,0,0,0-3,2.125.3.3,0,0,1-.26.189.213.213,0,0,1-.118-.024.252.252,0,0,1-.165-.212c.024-.071.024-.142.047-.212a4.456,4.456,0,0,1,3.424-2.408,11.306,11.306,0,0,1,4.2.262Zm-13.864.944A10.983,10.983,0,0,1,25.9,23.4a.288.288,0,0,1,.094.568A10.4,10.4,0,0,0,17.92,31.4a.262.262,0,0,1-.284.212h-.071A.334.334,0,0,1,17.354,31.263Zm7.768,9.209a3.537,3.537,0,1,1-1.036-2.506,3.542,3.542,0,0,1,1.036,2.506ZM10.933,38.088a2.855,2.855,0,0,1,1.228-3.211A1.9,1.9,0,0,1,13.2,34.57a1.41,1.41,0,0,1,.991.377,17.137,17.137,0,0,0,4.2,2.928,4.093,4.093,0,0,0-.944,2.621,3.8,3.8,0,0,0,.142,1.039c-.307-.094-.637-.165-.944-.26-2.477-.661-5.287-1.393-5.712-3.19ZM19.48,55.3a3.465,3.465,0,0,1-2.29.9,2.854,2.854,0,0,1-.9-.142,2.39,2.39,0,0,1-1.535-2.834.284.284,0,1,1,.543.165,1.829,1.829,0,0,0,1.181,2.125,2.721,2.721,0,0,0,2.621-.637,5.352,5.352,0,0,0,1.464-2.526,9.615,9.615,0,0,0-.094-5.6.284.284,0,1,1,.543-.165,10.142,10.142,0,0,1,.094,5.926A5.585,5.585,0,0,1,19.479,55.3Zm2.832,1.513a2.327,2.327,0,0,0,.614-1.015,3.865,3.865,0,0,0,.236-.9.3.3,0,0,1,.024-.142,13.58,13.58,0,0,0,.142-2.054,24.689,24.689,0,0,0-.9-7.2c-.094-.33-.165-.661-.26-.968a4.115,4.115,0,0,0,1.464-7.65c.8-3.778,2.762-4.439,3.14-4.534.992.378,9.539,3.589,15.111.568a4.919,4.919,0,0,0,1.582-1.3,24.648,24.648,0,0,1,.826,8.973c-.4,4.37-1.842,7.863-3.92,9.8-.425-.118-.779-.212-1.11-.307a1.646,1.646,0,0,0,.118-.59,1.506,1.506,0,0,0-1.511-1.511,1.522,1.522,0,0,0-1.511,1.509A1.506,1.506,0,0,0,37.873,51a1.585,1.585,0,0,0,1.062-.425c.26.071.568.165.921.26a5.642,5.642,0,0,1-1.866.968,11.238,11.238,0,0,1-9.374-1.275.292.292,0,1,0-.307.5,14.342,14.342,0,0,0,1.913.944,12.84,12.84,0,0,0,6.493,4.982,3.653,3.653,0,0,0,2.432,1.866c.284.071.568.118.779.165v.024c.047,0,.071.024.118.024A7.82,7.82,0,0,1,33.056,64.7c-5.313.189-11.1-3.353-12.845-6.682a3.481,3.481,0,0,0,2.1-1.2ZM3.469,85.786c-.165-.071-.189-.142-.189-.142,0-.071-.142-6.966.448-13.884.591-6.827,3.968-9.872,3.992-9.895s.047-.071.071-.094c1.606-1.7,4.392-2.644,7.579-3.164,4.84,8.689,15.206,12.3,15.3,12.349.024,0,.071.024.094.024a.256.256,0,0,0,.26-.189l2.1-5.335,5.667,3.731a.341.341,0,0,0,.165.047.328.328,0,0,0,.236-.118,17.187,17.187,0,0,0,3.117-9.469c.684.189,1.275.354,1.724.472.425.118,1.228.425,1.464.5h.022A22.842,22.842,0,0,1,49.629,62.6c3.589,2.125,10.413,8.429,10.483,8.5l.024.024c.236.165.212.968-.59,2.692a37.5,37.5,0,0,1-3.14,5.195,37.8,37.8,0,0,1-3.943,4.767,5.3,5.3,0,0,1-2.149,1.532,130.708,130.708,0,0,0,.094-14.616.3.3,0,0,0-.59.024c.448,10.483-.142,16.812-.779,20.636a1.943,1.943,0,0,0-1.181.236c-1.677.921-2.715,4.156-2.951,5.006L21.837,98.226,21.011,84.7a3.514,3.514,0,0,0,.732-.378c.378-.26.543-.519.519-.826-.024-.071-1.228-7.981-2.22-12.514a.278.278,0,0,0-.33-.236.271.271,0,0,0-.212.354c.968,4.51,2.2,12.4,2.2,12.467,0,.024-.047.142-.284.284-2.429,1.629-15.7,3.07-17.942,1.937Zm43.824,22.381L16.22,112.276a9.373,9.373,0,0,1-7.367-2.5,8.386,8.386,0,0,1-2.762-6.493v-.024L5.17,86.728c.519.047,1.086.047,1.724.047A52.838,52.838,0,0,0,20.47,84.933l.8,13.621a.292.292,0,0,0,.094.189.33.33,0,0,0,.212.071l23.564-1.677a.276.276,0,0,0,.26-.212c0-.047,1.062-3.92,2.739-4.84a1.305,1.305,0,0,1,1.062-.118,1.179,1.179,0,0,1,.851.732c.33.992-.661,2.715-1.062,3.282a.284.284,0,0,0,0,.33.308.308,0,0,0,.307.118c4.463-.873,11.783-1.889,12.514-.8a.406.406,0,0,1,.047.4c-.33,1.015-3.235,2.408-5.124,3.116a.255.255,0,0,0-.165.33.306.306,0,0,0,.307.236c2.786-.212,5.9-.189,6.564.4a.881.881,0,0,1,.33.921,1.774,1.774,0,0,1-1.249,1.157l-5.383.472a.284.284,0,0,0-.26.307.3.3,0,0,0,.284.26h.024l5.289-.472c.236.165.921.708.921,1.322,0,.425-.33.851-.944,1.249l-5.383.33a.262.262,0,0,0-.26.307.284.284,0,0,0,.284.26h.024l5.335-.33a1.041,1.041,0,0,1,.354.755c-.024.4-.448.8-1.181,1.181-2.338,1.228-14.144.307-14.262.284C47.341,108.167,47.317,108.167,47.294,108.167Z" transform="translate(16.946 -19.822)" fill="#262626"/>
      <path id="Path_1261" data-name="Path 1261" d="M15.9,28.46c-.071-.708-.568-1.228-1.086-1.157a1.149,1.149,0,0,0-.851,1.37c.071.708.568,1.228,1.086,1.157a1.177,1.177,0,0,0,.851-1.37Z" transform="translate(34.452 -9.652)" fill="#262626"/>
      <path id="Path_1262" data-name="Path 1262" d="M18.089,26.982a1.149,1.149,0,0,0-.851,1.37c.071.708.568,1.228,1.086,1.157a1.149,1.149,0,0,0,.851-1.37C19.1,27.454,18.608,26.934,18.089,26.982Z" transform="translate(38.902 -10.086)" fill="#262626"/>
      <path id="Path_1263" data-name="Path 1263" d="M13.6,28.323a.288.288,0,0,0,.212-.094,2.78,2.78,0,0,1,3.211-.9.275.275,0,0,0,.378-.118.309.309,0,0,0-.118-.4,3.393,3.393,0,0,0-3.9.992.271.271,0,0,0,0,.4.25.25,0,0,0,.212.119Z" transform="translate(33.517 -10.648)" fill="#262626"/>
      <path id="Path_1264" data-name="Path 1264" d="M16.894,28.084a.288.288,0,0,0,.212-.094,2.78,2.78,0,0,1,3.211-.9.275.275,0,0,0,.378-.118.309.309,0,0,0-.118-.4,3.393,3.393,0,0,0-3.9.992.271.271,0,0,0,0,.4.25.25,0,0,0,.212.118Z" transform="translate(37.996 -10.976)" fill="#262626"/>
      <path id="Path_1265" data-name="Path 1265" d="M15.842,34.127h.047a4.5,4.5,0,0,0,1.3-.307,1.676,1.676,0,0,0,.944-1.11,2.3,2.3,0,0,0-.142-1.086L16.81,27.776a.284.284,0,1,0-.543.165l1.181,3.848a1.9,1.9,0,0,1,.118.8,1.054,1.054,0,0,1-.612.709,3.468,3.468,0,0,1-1.11.26.312.312,0,0,0-.26.33C15.559,34.033,15.7,34.127,15.842,34.127Z" transform="translate(36.615 -9.274)" fill="#262626"/>
      <path id="Path_1266" data-name="Path 1266" d="M18.319,31.781a3.576,3.576,0,0,1-3.305-.59.286.286,0,0,0-.354.448,4.228,4.228,0,0,0,2.6.9,3.766,3.766,0,0,0,1.249-.212.309.309,0,0,0,.189-.378A.349.349,0,0,0,18.319,31.781Z" transform="translate(35.225 -4.426)" fill="#262626"/>
      <circle id="Ellipse_1" data-name="Ellipse 1" cx="2.078" cy="2.078" r="2.078" transform="translate(36.425 18.572)" fill="#262626"/>
      <line id="Line_112" data-name="Line 112" x2="110" transform="translate(0 97.332)" fill="none" stroke="#262626" stroke-linecap="round" stroke-width="4"/>
    </g>
  </g>
</svg>
