<svg xmlns="http://www.w3.org/2000/svg" width="50" height="50" viewBox="0 0 50 50">
  <g id="Group_61" data-name="Group 61" transform="translate(-0.071)">
    <g id="Group_63" data-name="Group 63">
      <g id="Reports">
        <rect id="Rectangle_7018" data-name="Rectangle 7018" width="50" height="50" rx="6" transform="translate(0.071)" fill="#e2edf8"/>
      </g>
      <g id="noun-date-7244409" transform="translate(205.525 -23.962)">
        <path id="Path_100634" data-name="Path 100634" d="M30.926,19.058a1.316,1.316,0,0,0-1.315-1.317H5.861a1.316,1.316,0,0,0-1.315,1.317V29.215a2.7,2.7,0,0,0,2.695,2.7l20.985.018a2.7,2.7,0,0,0,2.7-2.7Zm-5.074-8.826V8.452a1.519,1.519,0,0,0-3.039,0v1.78H12.661V8.452a1.519,1.519,0,0,0-3.039,0v1.78H7.19a2.642,2.642,0,0,0-2.643,2.643v2.232a1.314,1.314,0,0,0,1.315,1.315H29.611a1.314,1.314,0,0,0,1.315-1.315V12.876a2.642,2.642,0,0,0-2.643-2.643H25.851Z" transform="translate(-198 29.029)" fill="#006dd5" fill-rule="evenodd"/>
      </g>
    </g>
  </g>
</svg>
