<svg xmlns="http://www.w3.org/2000/svg" xmlns:xlink="http://www.w3.org/1999/xlink" width="62" height="58" viewBox="0 0 62 58">
  <defs>
    <clipPath id="clip-path">
      <rect id="Rectangle_9816" data-name="Rectangle 9816" width="62" height="58" rx="3" transform="translate(315 720)" fill="#fff"/>
    </clipPath>
  </defs>
  <g id="Group_40206" data-name="Group 40206" transform="translate(-315 -720)">
    <g id="Mask_Group_62" data-name="Mask Group 62" clip-path="url(#clip-path)">
      <g id="noun-doc-5435876" transform="translate(316.118 719.784)">
        <path id="Path_2087" data-name="Path 2087" d="M35.36,33.776H15.5a1.038,1.038,0,0,1,0-2.076H35.36a1.038,1.038,0,1,1,0,2.076Z" transform="translate(-0.482 -2.606)" fill="#a3a3a3"/>
        <path id="Path_2088" data-name="Path 2088" d="M46.947,41.346h-12a1.038,1.038,0,1,1,0-2.076h12a1.038,1.038,0,1,1,0,2.076Z" transform="translate(-2.239 -3.319)" fill="#a3a3a3"/>
        <path id="Path_2089" data-name="Path 2089" d="M29.288,41.346H15.538a1.038,1.038,0,1,1,0-2.076h13.75a1.038,1.038,0,1,1,0,2.076Z" transform="translate(-0.486 -3.319)" fill="#a3a3a3"/>
        <path id="Path_2090" data-name="Path 2090" d="M47.821,48.946H43.948a1.038,1.038,0,1,1,0-2.076h3.873a1.038,1.038,0,1,1,0,2.076Z" transform="translate(-3.114 -4.034)" fill="#a3a3a3"/>
        <path id="Path_2091" data-name="Path 2091" d="M36.24,48.946h-20.7a1.038,1.038,0,0,1,0-2.076h20.7a1.038,1.038,0,0,1,0,2.076Z" transform="translate(-0.486 -4.034)" fill="#a3a3a3"/>
        <path id="Path_2092" data-name="Path 2092" d="M19.762,12.159V7.41L12.91,14.262h4.37A2.453,2.453,0,0,0,19.762,12.159Z" transform="translate(-0.331 -0.331)" fill="none"/>
        <path id="Path_2093" data-name="Path 2093" d="M11.5,51.89A2.713,2.713,0,0,0,14.218,54.6H45.931a2.713,2.713,0,0,0,2.718-2.708V23H11.5Z" transform="translate(-0.194 -1.68)" fill="none"/>
        <path id="Path_2094" data-name="Path 2094" d="M36.239,15.191a1.553,1.553,0,0,0,1.219-.533,1.932,1.932,0,0,0,.451-1.336,1.932,1.932,0,0,0-.451-1.336,1.733,1.733,0,0,0-2.438,0,1.914,1.914,0,0,0-.46,1.345,1.914,1.914,0,0,0,.46,1.327,1.562,1.562,0,0,0,1.219.533Z" transform="translate(-2.354 -0.727)" fill="#a3a3a3"/>
        <path id="Path_2095" data-name="Path 2095" d="M30.127,13.37a1.688,1.688,0,0,0-1.806-1.851H27.59V15.2h.731a1.62,1.62,0,0,0,1.806-1.833Z" transform="translate(-1.701 -0.73)" fill="#a3a3a3"/>
        <path id="Path_2096" data-name="Path 2096" d="M45.731,4H20L9.5,14.5v35.7a4.529,4.529,0,0,0,4.529,4.529h31.7a4.529,4.529,0,0,0,4.529-4.529V8.529A4.529,4.529,0,0,0,45.731,4Zm-7.59,6.984a2.844,2.844,0,0,1,1.141-1.15,3.206,3.206,0,0,1,1.649-.4,3.143,3.143,0,0,1,1.938.6,2.844,2.844,0,0,1,1.078,1.63h-1.7a1.458,1.458,0,0,0-.534-.607,1.558,1.558,0,0,0-.8-.208,1.513,1.513,0,0,0-1.159.5,1.966,1.966,0,0,0-.444,1.331,1.938,1.938,0,0,0,.444,1.286,1.612,1.612,0,0,0,1.956.29,1.35,1.35,0,0,0,.534-.607h1.7a2.844,2.844,0,0,1-1.078,1.63,3.2,3.2,0,0,1-1.938.589,3.3,3.3,0,0,1-1.649-.408,2.962,2.962,0,0,1-1.141-1.15,3.592,3.592,0,0,1,0-3.324Zm-7.083,0a3.17,3.17,0,0,1,1.187-1.159,3.37,3.37,0,0,1,1.639-.389,3.406,3.406,0,0,1,1.649.417,3.143,3.143,0,0,1,1.178,1.159,3.36,3.36,0,0,1,.417,1.639,3.288,3.288,0,0,1-.435,1.685,3.016,3.016,0,0,1-1.178,1.159,3.433,3.433,0,0,1-3.279,0,3.043,3.043,0,0,1-1.187-1.159,3.406,3.406,0,0,1,0-3.36ZM24.291,9.5h2.382a3.723,3.723,0,0,1,1.757.4A2.908,2.908,0,0,1,29.6,11.02a3.306,3.306,0,0,1,.408,1.658,3.306,3.306,0,0,1-.408,1.658,2.844,2.844,0,0,1-1.168,1.123,3.623,3.623,0,0,1-1.757.4H24.291ZM19.464,7.089v4.764a2.461,2.461,0,0,1-2.491,2.11H12.589ZM48.448,50.195a2.717,2.717,0,0,1-2.717,2.717h-31.7a2.717,2.717,0,0,1-2.717-2.717V21.21H48.448Z" transform="translate(0 0)" fill="#a3a3a3"/>
      </g>
    </g>
  </g>
</svg>
