<svg xmlns="http://www.w3.org/2000/svg" width="495.079" height="334.007" viewBox="0 0 495.079 334.007">
  <g id="DOOH" transform="translate(-1490.35 -1804.496)">
    <g id="Group_38276" data-name="Group 38276" transform="translate(21552.084 9509.729)">
      <g id="Group_38242" data-name="Group 38242" transform="translate(-21536.223 -9318.842)">
        <path id="Path_94792" data-name="Path 94792" d="M73.518,224.058v14.862c0,1.389,2.443,2.517,5.408,2.517H92.613a2.8,2.8,0,0,0,2.8-2.8V234.91a6.125,6.125,0,0,1,.858-3.123h0a6.088,6.088,0,0,0,.858-3.133v-3.6a2.8,2.8,0,0,0-2.8-2.8H83.29v-9.379c0-2.182-.615-5.119-3.217-5.119h0s-.727,9.547-5.594,13.426a3.617,3.617,0,0,0-.96,2.872Z" transform="translate(1406.74 1527.667)" fill="#ebebeb"/>
        <rect id="Rectangle_8822" data-name="Rectangle 8822" width="4.615" height="15.626" transform="translate(1474.488 1751.538)" fill="#ebebeb"/>
        <circle id="Ellipse_247" data-name="Ellipse 247" cx="9.454" cy="9.454" r="9.454" transform="translate(1773.111 1645.381)" fill="#e0e0e0"/>
        <path id="Path_94793" data-name="Path 94793" d="M163.79,152.586l7.459-20.6a21.9,21.9,0,0,1,12.6,11.841Z" transform="translate(1400.633 1532.793)" fill="#f5f5f5"/>
        <path id="Path_94794" data-name="Path 94794" d="M162.133,152.488l6.387,20.969a21.921,21.921,0,1,1,1.007-41.6Z" transform="translate(1408.289 1520.434)" fill="#e0e0e0"/>
        <path id="Path_94795" data-name="Path 94795" d="M163.79,153.452l20.139-8.662A21.938,21.938,0,0,1,170.261,174.4Z" transform="translate(1400.633 1531.927)" fill="#ebebeb"/>
        <path id="Path_94796" data-name="Path 94796" d="M428.427,178.514a14.648,14.648,0,0,0-2.107-5.091l1.818-2.2-3.9-3.9-2.2,1.818a14.917,14.917,0,0,0-5.091-2.116l-.261-2.8h-5.51l-.27,2.8a15,15,0,0,0-5.091,2.116l-2.2-1.818-3.841,3.9,1.818,2.2a14.666,14.666,0,0,0-2.116,5.091l-2.8.261v5.51l2.8.27a14.693,14.693,0,0,0,2.116,5.081l-1.818,2.2,3.888,3.9,2.2-1.865a14.815,14.815,0,0,0,5.091,2.116l.27,2.8h5.51l.261-2.8a14.74,14.74,0,0,0,5.091-2.116l2.2,1.865,3.9-3.9-1.818-2.2a14.675,14.675,0,0,0,2.107-5.081l2.8-.27v-5.51Zm-7.039,3.021a7.459,7.459,0,1,1-7.459-7.459,7.459,7.459,0,0,1,7.459,7.459Z" transform="translate(1384.879 1530.612)" fill="#f0f0f0"/>
        <path id="Path_94797" data-name="Path 94797" d="M200.556,342.747a14.637,14.637,0,0,0-2.116-5.091l1.865-2.2-3.9-3.9-2.2,1.865a14.816,14.816,0,0,0-5.091-2.116l-.27-2.8h-5.5l-.27,2.8a14.816,14.816,0,0,0-5.091,2.116l-2.2-1.865-3.935,3.935,1.865,2.2a14.638,14.638,0,0,0-2.116,5.091l-2.8.27v5.492l2.8.261a14.637,14.637,0,0,0,2.116,5.091l-1.865,2.2,3.9,3.9,2.2-1.865a14.638,14.638,0,0,0,5.091,2.116l.27,2.844h5.5l.27-2.844a14.638,14.638,0,0,0,5.081-2.1l2.2,1.865,3.9-3.9-1.865-2.2a14.637,14.637,0,0,0,2.116-5.091l2.8-.261v-5.51Zm-7.039,3a7.459,7.459,0,1,1-7.459-7.459A7.459,7.459,0,0,1,193.517,345.749Z" transform="translate(1400.293 1519.499)" fill="#f0f0f0"/>
        <path id="Path_94798" data-name="Path 94798" d="M369.677,374.054a27.884,27.884,0,1,1,0-55.769l.224,0a27.884,27.884,0,1,1,.056,55.769Zm1.212-2.182,1.156-.28c3.981-.932,7.552-4.373,10.06-9.613l.494-1.044-1.128-.261a50.558,50.558,0,0,0-9.65-1.193h-.932Zm-3.151-12.391a50.553,50.553,0,0,0-9.613,1.193l-1.137.261.5,1.044c2.5,5.24,6.079,8.662,10.06,9.613l1.147.28V359.444Zm16.6,2.8a27.967,27.967,0,0,1-2.573,4.531l1.24,1.333a25.939,25.939,0,0,0,5.016-3.935l.932-.932-1.2-.569c-.7-.326-1.454-.634-2.256-.932l-.8-.289Zm-30.227-.438c-.792.289-1.548.6-2.247.932l-1.2.559.932.932a25.935,25.935,0,0,0,5.016,3.935l1.249-1.333a27.293,27.293,0,0,1-2.583-4.531l-.354-.774Zm-9.892-13.556a25.518,25.518,0,0,0,4.568,12.624l.476.671.727-.382a24.969,24.969,0,0,1,3.282-1.426l.848-.308-.28-.858a40.762,40.762,0,0,1-1.865-10.48l-.047-.932h-7.85Zm43.392-.112a40.369,40.369,0,0,1-1.865,10.48l-.27.858.848.308a26.112,26.112,0,0,1,3.282,1.427l.718.373.475-.662a25.49,25.49,0,0,0,4.6-12.671l.084-1.007h-7.8Zm-33.378.084a37.9,37.9,0,0,0,1.743,9.8l.261.83.839-.205a53.526,53.526,0,0,1,10.75-1.4h.932V347.267H354.209Zm16.661,9h.932a53.442,53.442,0,0,1,10.75,1.4l.839.205.27-.83a38.706,38.706,0,0,0,1.734-9.808l.047-.979H370.889Zm18.722-26.106a26.888,26.888,0,0,1-3.282,1.427l-.848.308.27.858a40.305,40.305,0,0,1,1.865,10.48v.886h7.85l-.084-1.007a25.78,25.78,0,0,0-4.587-12.661l-.466-.671Zm-7.067,2.555a52.791,52.791,0,0,1-10.722,1.361h-.932v9.995h14.545l-.047-.932a38.441,38.441,0,0,0-1.734-9.808l-.27-.82Zm-26.6.625a37.9,37.9,0,0,0-1.734,9.8l-.056.932H368.7v-9.967h-.932a53.449,53.449,0,0,1-10.75-1.389l-.839-.205Zm-7.16-2.89A25.678,25.678,0,0,0,344.2,344.1l-.084,1.007h7.841l.047-.886a40.7,40.7,0,0,1,1.865-10.48l.28-.858-.848-.308a26.266,26.266,0,0,1-3.282-1.427l-.727-.382Zm22.106,1.5h.932a52.1,52.1,0,0,0,9.613-1.193l1.128-.261-.494-1.054c-2.508-5.24-6.079-8.652-10.06-9.613l-1.156-.27Zm-3.338-12.121c-3.981.932-7.561,4.373-10.06,9.613l-.5,1.054,1.137.261a51.907,51.907,0,0,0,9.613,1.193h.932V320.481Zm-10.918,3.347a25.454,25.454,0,0,0-5.072,3.99l-.932.932,1.193.559c.709.326,1.473.643,2.266.932l.811.289.354-.774a27.234,27.234,0,0,1,2.583-4.615Zm25.08,1.333a27.97,27.97,0,0,1,2.62,4.587l.364.783.8-.289a23.914,23.914,0,0,0,2.266-.932l1.193-.559-.932-.932a25.512,25.512,0,0,0-5.081-3.99Z" transform="translate(1437.592 1529.724)" fill="#ebebeb"/>
        <path id="Path_94799" data-name="Path 94799" d="M293.24,138.893a16.521,16.521,0,0,1,0-33.033h.13a16.521,16.521,0,0,1,0,33.033H293.2Zm.718-1.3.681-.159c2.359-.569,4.475-2.592,5.958-5.7l.3-.625-.671-.149a30.021,30.021,0,0,0-5.7-.709h-.569Zm-1.865-7.338a29.916,29.916,0,0,0-5.687.709l-.681.149.3.625c1.492,3.1,3.608,5.128,5.967,5.7l.681.159v-7.366Zm9.846,1.688a17.356,17.356,0,0,1-1.529,2.685l.737.793a15.637,15.637,0,0,0,2.965-2.331l.559-.559-.709-.336c-.42-.2-.867-.373-1.343-.541l-.475-.177Zm-17.929-.3a13.663,13.663,0,0,0-1.333.55l-.709.336.55.559a15.95,15.95,0,0,0,2.974,2.322l.737-.783a17.351,17.351,0,0,1-1.529-2.685l-.205-.466Zm-5.865-8.028a15.245,15.245,0,0,0,2.723,7.505l.28.392.429-.224a16.515,16.515,0,0,1,1.949-.848l.5-.177-.168-.5a24.455,24.455,0,0,1-1.082-6.209v-.531h-4.662Zm25.714-.065a24.056,24.056,0,0,1-1.091,6.209l-.159.5.5.186a15.113,15.113,0,0,1,1.949.839l.42.224.28-.392a15.067,15.067,0,0,0,2.722-7.505l.056-.6h-4.662Zm-19.775,0a22.881,22.881,0,0,0,1.026,5.809l.159.494.494-.121a32.167,32.167,0,0,1,6.368-.83h.541v-5.92h-8.615Zm9.883,5.342h.531a32.167,32.167,0,0,1,6.377.83l.494.121.158-.494a22.879,22.879,0,0,0,1.026-5.809v-.578h-8.615Zm11.086-15.449a15.108,15.108,0,0,1-1.949.848l-.5.186.159.5a24.056,24.056,0,0,1,1.091,6.209v.531h4.662l-.047-.6a15.29,15.29,0,0,0-2.713-7.459l-.28-.4Zm-4.186,1.52a30.862,30.862,0,0,1-6.377.82h-.531v5.92h8.615v-.587a23.027,23.027,0,0,0-1.026-5.809l-.159-.485Zm-15.766.364a23.028,23.028,0,0,0-1.026,5.809v.587h8.615v-5.92h-.541a31.5,31.5,0,0,1-6.368-.82l-.494-.121Zm-4.242-1.706a15.291,15.291,0,0,0-2.713,7.459l-.047.6h4.662v-.531a24.456,24.456,0,0,1,1.082-6.21l.168-.5-.5-.186a15.112,15.112,0,0,1-1.949-.848l-.429-.224Zm13.1.932h.569a30.769,30.769,0,0,0,5.7-.709l.671-.149-.3-.625c-1.482-3.1-3.6-5.128-5.958-5.7l-.681-.168Zm-1.977-7.2c-2.359.569-4.475,2.592-5.967,5.7l-.3.625.681.149a30.693,30.693,0,0,0,5.687.709h.578v-7.366Zm-6.471,1.977a15.327,15.327,0,0,0-3.012,2.368l-.55.559.709.326c.42.2.876.382,1.343.55l.485.177.205-.466a16.9,16.9,0,0,1,1.557-2.713Zm14.862.793a17.414,17.414,0,0,1,1.557,2.722l.205.457.475-.168a13.861,13.861,0,0,0,1.343-.55l.709-.326-.55-.559a14.918,14.918,0,0,0-3-2.368Z" transform="translate(1355.967 1537.823)" fill="#ebebeb"/>
        <g id="Group_38240" data-name="Group 38240" transform="translate(-51.11 -77.335)">
          <path id="Path_94800" data-name="Path 94800" d="M227.981,106.112a4.154,4.154,0,0,0-3.427,1.814l-9.124-4.742a4.154,4.154,0,0,0,.277-1.461,4.064,4.064,0,0,0-.277-1.461l9.124-4.749a4.154,4.154,0,1,0-.692-2.326,4.063,4.063,0,0,0,.277,1.461L214.994,99.4a4.154,4.154,0,1,0,0,4.652l9.124,4.742a4.154,4.154,0,1,0,3.863-2.679Z" transform="translate(1556.747 1601.88)" fill="#ebebeb"/>
          <circle id="Ellipse_248" data-name="Ellipse 248" cx="4.461" cy="4.461" r="4.461" transform="translate(1543.903 1699.163)" fill="#e0e0e0"/>
          <path id="Path_94802" data-name="Path 94802" d="M103.106,160.375a13.157,13.157,0,0,0-1.918-4.59l1.649-1.995-3.516-3.516-1.995,1.7a13.156,13.156,0,0,0-4.59-1.918l-.243-2.557H87.52l-.243,2.557a13.323,13.323,0,0,0-4.6,1.918l-1.982-1.649-3.516,3.516,1.649,1.969a13.157,13.157,0,0,0-1.918,4.59l-2.557.243v4.974l2.557.243a13.22,13.22,0,0,0,1.918,4.6l-1.649,1.969,3.516,3.516,1.982-1.637a13.553,13.553,0,0,0,4.6,1.905l.243,2.557h4.974l.243-2.557a13.386,13.386,0,0,0,4.59-1.905l1.995,1.637,3.516-3.516-1.649-1.982a13.221,13.221,0,0,0,1.918-4.6l2.557-.243v-4.974Zm-6.393,2.736a2.793,2.793,0,1,1,.026,0Z" transform="translate(1455.863 1591.696)" fill="#f0f0f0"/>
        </g>
      </g>
      <g id="undraw_undraw_undraw_undraw_undraw_undraw_undraw_undraw_undraw_undraw_undraw_selectoption_y9cm_mx7w_-2-_vjsk_js62_gghb_35qw_um1m_-1-_cqnl_5lof_-1-_4dfu_-1-_et2a" transform="translate(-20049.686 -7658.94)">
        <path id="Path_94777" data-name="Path 94777" d="M306.331,378.66a12.835,12.835,0,0,1-25.326,0H248.6v70.224h90.136V378.66h-32.4Z" transform="translate(-107.368 -163.539)" fill="#dfdfdf"/>
        <rect id="Rectangle_8816" data-name="Rectangle 8816" width="8.908" height="1.574" transform="translate(142.8 285.083)" fill="#bcb9cb"/>
        <rect id="Rectangle_8817" data-name="Rectangle 8817" width="8.908" height="1.574" transform="translate(221.671 285.345)" fill="#bcb9cb"/>
        <rect id="Rectangle_8818" data-name="Rectangle 8818" width="90.136" height="2.443" transform="translate(141.493 279.777)" fill="#2f2e41"/>
        <path id="Path_94778" data-name="Path 94778" d="M367.573,216.956H5.028A5.033,5.033,0,0,1,0,211.928V5.028A5.033,5.033,0,0,1,5.028,0H367.573A5.033,5.033,0,0,1,372.6,5.028V211.934a5.033,5.033,0,0,1-5.028,5.028h0Z" fill="#2f2e41"/>
        <rect id="Rectangle_8819" data-name="Rectangle 8819" width="354.779" height="200.185" transform="translate(9.169 8.908)" fill="#ecf2ff"/>
        <circle id="Ellipse_243" data-name="Ellipse 243" cx="9.601" cy="9.601" r="9.601" transform="translate(155.781 51.573)" fill="#ebebeb"/>
        <path id="Path_94782" data-name="Path 94782" d="M149,505.137c0,.284.529.517,1.2.517H620.99c.661,0,1.2-.227,1.2-.517s-.529-.517-1.2-.517H150.2C149.542,504.62,149,504.847,149,505.137Z" transform="translate(-145.488 -217.94)" fill="#2f2e43"/>
      </g>
      <g id="Group_37417" data-name="Group 37417" transform="translate(-19761.334 -7573.733)">
        <path id="Path_92773" data-name="Path 92773" d="M1140.82,891.008h-2.008V889h-.8v2.008H1136v.8h2.008v2.008h.8v-2.008h2.008Z" transform="translate(-1129 -872)"/>
      </g>
      <g id="Group_37418" data-name="Group 37418" transform="translate(-20025.391 -7489.887)">
        <path id="Path_92774" data-name="Path 92774" d="M471.812,788.009V786h-.8v2.008H469v.8h2.008v2.008h.8v-2.008h2.008v-.8Z" transform="translate(-469 -786)"/>
      </g>
      <g id="Group_37419" data-name="Group 37419" transform="translate(-20005.299 -7640.403)">
        <path id="Path_92775" data-name="Path 92775" d="M349.82,177.008h-2.008V175h-.8v2.008H345v.8h2.008v2.008h.8v-2.008h2.008Z" transform="translate(-345 -175)"/>
      </g>
      <g id="Group_37420" data-name="Group 37420" transform="translate(-20012.736 -7479.443)">
        <path id="Path_92776" data-name="Path 92776" d="M534.812,843.623a2.812,2.812,0,1,1,2.812-2.812A2.82,2.82,0,0,1,534.812,843.623Zm0-4.82a2.008,2.008,0,1,0,2.008,2.008A2.014,2.014,0,0,0,534.812,838.8Z" transform="translate(-532 -838)"/>
      </g>
      <g id="Group_37421" data-name="Group 37421" transform="translate(-19779.209 -7638.596)">
        <path id="Path_92777" data-name="Path 92777" d="M1007.82,103.008h-2.008V101h-.8v2.008H1003v.8h2.008v2.008h.8v-2.008h2.008Z" transform="translate(-1003 -101)"/>
      </g>
      <g id="Group_37422" data-name="Group 37422" transform="translate(-19762.139 -7643.215)">
        <path id="Path_92778" data-name="Path 92778" d="M1090.812,83.623a2.812,2.812,0,1,1,2.812-2.812A2.82,2.82,0,0,1,1090.812,83.623Zm0-4.82a2.008,2.008,0,1,0,2.008,2.008A2.014,2.014,0,0,0,1090.812,78.8Z" transform="translate(-1088 -78)"/>
      </g>
      <g id="Group_37423" data-name="Group 37423" transform="translate(-19701.586 -7621.284)">
        <path id="Path_92779" data-name="Path 92779" d="M1389.5,194.932a4.258,4.258,0,0,1,4.4-4.3,3.9,3.9,0,0,0,4.037-3.434l.8.08a4.746,4.746,0,0,1-4.82,4.157,3.447,3.447,0,0,0-3.615,3.495Z" transform="translate(-1389.5 -187.2)"/>
      </g>
      <g id="Group_37424" data-name="Group 37424" transform="translate(-20036.93 -7617.87)">
        <path id="Path_92780" data-name="Path 92780" d="M196.738,294.932h-.8a3.431,3.431,0,0,0-3.615-3.494,4.726,4.726,0,0,1-4.82-4.157l.8-.08a3.917,3.917,0,0,0,4.037,3.434A4.267,4.267,0,0,1,196.738,294.932Z" transform="translate(-187.5 -287.2)"/>
      </g>
      <g id="Group_37426" data-name="Group 37426" transform="translate(-20011.33 -7627.478)">
        <path id="Path_92783" data-name="Path 92783" d="M599.7,223.1v46.457H728.268V250.637s-9.34-12.239-25.534,3.289c-3.55,3.391-12.1,12.749-19.8,4.105-4.943-5.533-9.858-21.112-14.528-25.5-3.3-3.085-11.715-5-16.958,3.9-2.376,4.054-6.2,14.636-7.7,17.058-1.857,2.983-10.568,8.21-14.747-.408-3.031-6.272-6.39-20.959-12.535-24.86S599.7,223.1,599.7,223.1Z" transform="translate(-599.7 -223.1)" fill="#b1d8fe"/>
      </g>
      <g id="Group_37427" data-name="Group 37427" transform="translate(-20015.262 -7631.787)">
        <path id="Path_92784" data-name="Path 92784" d="M721.943,260.075H584.8V205H721.943Zm-136.051-1.02H720.851V206.02H585.892Z" transform="translate(-584.8 -205)"/>
      </g>
      <g id="Group_37428" data-name="Group 37428" transform="translate(-20011.273 -7620.122)">
        <path id="Path_92785" data-name="Path 92785" d="M707.432,286.638c-8,0-13.135-11.7-16.33-19-.546-1.249-1.01-2.32-1.42-3.162-4.205-8.695-5.653-10.582-9.176-11.856a10.814,10.814,0,0,0-8.138.051,13.039,13.039,0,0,0-6.773,6.859c-.737,1.861-1.393,3.57-1.966,5.074-3.059,7.93-4.451,11.55-7.81,15.018-2.594,2.677-5.626,3.952-8.739,3.672a11.271,11.271,0,0,1-7.974-4.59,39.03,39.03,0,0,1-3-5.839,52.233,52.233,0,0,0-9.066-14.661c-7.4-8.491-27.2-4.105-27.39-4.08l-.246-.994c.847-.178,20.673-4.564,28.51,4.411a53.837,53.837,0,0,1,9.23,14.916,35.877,35.877,0,0,0,2.922,5.686,10.233,10.233,0,0,0,7.155,4.105c2.813.229,5.434-.892,7.837-3.366,3.222-3.315,4.588-6.884,7.592-14.687.573-1.5,1.229-3.213,1.966-5.1a14.327,14.327,0,0,1,7.346-7.445,11.9,11.9,0,0,1,8.984-.051c4.014,1.479,5.68,3.978,9.749,12.392.437.892.9,1.963,1.447,3.213,3.441,7.828,9.176,20.908,17.887,17.9,3.878-1.326,4.806-4.182,6.69-14.814a8.545,8.545,0,0,1,3.6-5.966c1.966-1.224,4.615-1.5,7.837-.816l-.246.994c-2.922-.637-5.271-.408-6.991.663a7.639,7.639,0,0,0-3.141,5.3c-1.994,11.091-2.977,14.075-7.4,15.6A8.28,8.28,0,0,1,707.432,286.638Z" transform="translate(-599.4 -250.75)"/>
      </g>
      <g id="Group_37429" data-name="Group 37429" transform="translate(-19830.629 -7625.895)">
        <path id="Path_92786" data-name="Path 92786" d="M951.724,518.157,927,520.986l6.859-24.685A24.65,24.65,0,0,1,951.724,518.157Z" transform="translate(-927 -496.3)" fill="#b1d8fe"/>
      </g>
      <g id="Group_37430" data-name="Group 37430" transform="translate(-19855.82 -7627.561)">
        <path id="Path_92787" data-name="Path 92787" d="M887.383,542.766a25.392,25.392,0,1,1,25.305-27.321c.039.62.077,1.279.077,1.938A25.42,25.42,0,0,1,887.383,542.766Zm0-49.216a23.833,23.833,0,1,0,23.833,23.833c0-.62-.039-1.24-.077-1.821A23.9,23.9,0,0,0,893.816,494.4,25.723,25.723,0,0,0,887.383,493.55Z" transform="translate(-862 -492)"/>
      </g>
      <g id="Group_37431" data-name="Group 37431" transform="translate(-19775.215 -7618.57)">
        <path id="Path_92788" data-name="Path 92788" d="M1094.724,529.732,1070,532.561l18.524-17.361A24.391,24.391,0,0,1,1094.724,529.732Z" transform="translate(-1070 -515.2)" fill="#b1d8fe"/>
      </g>
      <g id="Group_37432" data-name="Group 37432" transform="translate(-19800.404 -7627.561)">
        <path id="Path_92789" data-name="Path 92789" d="M1030.383,542.766a25.383,25.383,0,1,1,24.375-32.475,23.192,23.192,0,0,1,.93,5.154c.039.62.078,1.279.078,1.938a25.342,25.342,0,0,1-25.383,25.383Zm0-49.216a23.828,23.828,0,1,0,23.833,23.833c0-.62-.039-1.24-.078-1.821a22.266,22.266,0,0,0-.892-4.844,23.813,23.813,0,0,0-16.431-16.276A24.087,24.087,0,0,0,1030.383,493.55Z" transform="translate(-1005 -492)"/>
      </g>
      <g id="Group_37442" data-name="Group 37442" transform="translate(-20015.262 -7550.547)">
        <g id="Group_37434" data-name="Group 37434" transform="translate(5.054 7.122)">
          <g id="Group_37433" data-name="Group 37433">
            <path id="Path_92790" data-name="Path 92790" d="M506.45,541.4l-1.05-.788,16.278-21.036L535.2,537.364l24.22-24.876L577.8,531.522,595.682,511.7l.984.853L577.8,533.426l-18.378-19.034L535.067,539.4l-13.39-17.656Z" transform="translate(-505.4 -511.7)"/>
          </g>
        </g>
        <g id="Group_37435" data-name="Group 37435" transform="translate(92.584 6.188)">
          <ellipse id="Ellipse_103" data-name="Ellipse 103" cx="2.321" cy="1.857" rx="2.321" ry="1.857" transform="translate(0 0)" fill="#b1d8fe"/>
        </g>
        <g id="Group_37436" data-name="Group 37436" transform="translate(75.317 24.778)">
          <circle id="Ellipse_104" data-name="Ellipse 104" cx="2.297" cy="2.297" r="2.297" fill="#b1d8fe"/>
        </g>
        <g id="Group_37437" data-name="Group 37437" transform="translate(57.307 6.189)">
          <ellipse id="Ellipse_105" data-name="Ellipse 105" cx="2.321" cy="2.785" rx="2.321" ry="2.785" transform="translate(0 0)" fill="#b1d8fe"/>
        </g>
        <g id="Group_37438" data-name="Group 37438" transform="translate(33.17 30.325)">
          <ellipse id="Ellipse_106" data-name="Ellipse 106" cx="1.857" cy="3.249" rx="1.857" ry="3.249" transform="translate(0 0)" fill="#b1d8fe"/>
        </g>
        <g id="Group_37439" data-name="Group 37439" transform="translate(18.87 13.948)">
          <circle id="Ellipse_107" data-name="Ellipse 107" cx="2.297" cy="2.297" r="2.297" fill="#b1d8fe"/>
        </g>
        <g id="Group_37440" data-name="Group 37440" transform="translate(4.391 33.11)">
          <ellipse id="Ellipse_108" data-name="Ellipse 108" cx="1.857" cy="2.785" rx="1.857" ry="2.785" transform="translate(0 0)" fill="#b1d8fe"/>
        </g>
        <g id="Group_37441" data-name="Group 37441">
          <path id="Path_92791" data-name="Path 92791" d="M590.751,532.663H490V490H590.751Zm-99.438-1.313h98.126V491.313H491.313Z" transform="translate(-490 -490)"/>
        </g>
      </g>
      <g id="Group_37443" data-name="Group 37443" transform="translate(-19775.215 -7609.037)">
        <path id="Path_92792" data-name="Path 92792" d="M1094.8,546.659a24.585,24.585,0,0,1-3.991,13.447L1070,547.628l23.833-7.828a23.7,23.7,0,0,1,.891,5C1094.763,545.419,1094.8,546.039,1094.8,546.659Z" transform="translate(-1070 -539.8)"/>
      </g>
      <g id="Card" transform="translate(-19890.461 -7543.3)">
        <g id="Group_37444" data-name="Group 37444">
          <path id="Path_92793" data-name="Path 92793" d="M726,740.479v33.549a6.285,6.285,0,0,0,6.279,6.279h98.584a6.285,6.285,0,0,0,6.279-6.279V740.479a6.285,6.285,0,0,0-6.279-6.279H732.279A6.305,6.305,0,0,0,726,740.479Z" transform="translate(-725.385 -733.585)" fill="#ecf2ff"/>
          <path id="Path_92794" data-name="Path 92794" d="M829.448,779.538H730.894A6.9,6.9,0,0,1,724,772.643V739.094a6.9,6.9,0,0,1,6.894-6.894h98.584a6.9,6.9,0,0,1,6.894,6.894v33.549A6.929,6.929,0,0,1,829.448,779.538Zm-98.553-46.076a5.668,5.668,0,0,0-5.663,5.663v33.549a5.668,5.668,0,0,0,5.663,5.663h98.584a5.668,5.668,0,0,0,5.663-5.663V739.125a5.668,5.668,0,0,0-5.663-5.663Z" transform="translate(-724 -732.2)"/>
        </g>
        <g id="Group_37445" data-name="Group 37445" transform="translate(12.896 13.419)">
          <circle id="Ellipse_109" data-name="Ellipse 109" cx="11.019" cy="11.019" r="11.019" fill="#b1d8fe"/>
        </g>
        <g id="Group_37446" data-name="Group 37446" transform="translate(41.582 17.021)">
          <rect id="Rectangle_8415" data-name="Rectangle 8415" width="35.857" height="5.632"/>
        </g>
        <g id="Group_37447" data-name="Group 37447" transform="translate(41.582 25.731)">
          <rect id="Rectangle_8416" data-name="Rectangle 8416" width="59.895" height="5.632" fill="#b1d8fe"/>
        </g>
      </g>
      <g id="Group_37454" data-name="Group 37454" transform="translate(-19960.775 -7488.353)">
        <rect id="Rectangle_8417" data-name="Rectangle 8417" width="12.211" height="0.803" transform="translate(0 11.44) rotate(-69.543)"/>
      </g>
      <g id="Group_37468" data-name="Group 37468" transform="translate(-19809.277 -7484.199)">
        <rect id="Rectangle_8421" data-name="Rectangle 8421" width="0.803" height="9.339" transform="matrix(0.754, -0.657, 0.657, 0.754, 0, 0.528)"/>
      </g>
      <g id="Group_37469" data-name="Group 37469" transform="translate(-19878.121 -7462.551)">
        <rect id="Rectangle_8422" data-name="Rectangle 8422" width="0.803" height="10.383" transform="matrix(0.751, -0.66, 0.66, 0.751, 0, 0.53)"/>
      </g>
    </g>
    <g id="Group_38291" data-name="Group 38291" transform="translate(21841.449 9261.572)">
      <path id="Path_95187" data-name="Path 95187" d="M501.214,317.487h-4.851v-115.9a2.425,2.425,0,0,1,4.851,0v115.9Z" transform="translate(-20512.105 -7440.557)" fill="#6b84a6"/>
      <path id="Path_91304" data-name="Path 91304" d="M499.211,202.078h-2.193v142.9h2.193Z" transform="translate(-20513.857 -7468.047)" fill="#5b718e"/>
      <path id="Path_91305" data-name="Path 91305" d="M502.369,246.989l-6.006,16.969V201.583h6.006Z" transform="translate(-20513.014 -7468.165)" fill="#5b718e"/>
      <path id="Path_91306" data-name="Path 91306" d="M647.455,204.042H502.62v131.3H647.455Z" transform="translate(-20512.521 -7467.579)" fill="#c9d6e3" opacity="0.84"/>
      <path id="Path_91307" data-name="Path 91307" d="M624.071,301.128H514.481a2.733,2.733,0,0,1-2.733-2.731V231.967a2.733,2.733,0,0,1,2.733-2.731h109.59a2.733,2.733,0,0,1,2.734,2.731V298.4A2.731,2.731,0,0,1,624.071,301.128Z" transform="translate(-20510.348 -7461.578)" fill="#026dd5"/>
      <path id="Path_91308" data-name="Path 91308" d="M587.531,251.359H541.162a5.3,5.3,0,1,1,0-10.6h46.369a5.3,5.3,0,1,1,0,10.6Z" transform="translate(-20504.605 -7458.833)" fill="#fff"/>
      <path id="Path_91309" data-name="Path 91309" d="M608.513,260.583h-81.24a1.431,1.431,0,1,1,0-2.861h81.24a1.431,1.431,0,1,1,0,2.861Z" transform="translate(-20506.992 -7454.793)" fill="#fff"/>
      <path id="Path_91310" data-name="Path 91310" d="M608.513,267.185h-81.24a1.431,1.431,0,1,1,0-2.861h81.24a1.431,1.431,0,1,1,0,2.861Z" transform="translate(-20506.992 -7453.22)" fill="#fff"/>
      <path id="Path_91311" data-name="Path 91311" d="M598.489,273.785H534.061a1.431,1.431,0,1,1,0-2.861h64.428a1.431,1.431,0,1,1,0,2.861Z" transform="translate(-20505.375 -7451.648)" fill="#fff"/>
      <path id="Path_91312" data-name="Path 91312" d="M647.455,213.343s-15.837,17.475-20.878,33.056H502.62V204.042H647.626Z" transform="translate(-20512.521 -7467.579)" fill="#b8c9da" opacity="0.84"/>
      <path id="Path_91316" data-name="Path 91316" d="M661.306,204.471c-.281.032-.561.064-.836.1-18.818,2.6-30.37,26.167-30.37,26.167H479.626c0-24.968,22.307-31.926,22.307-31.926s.925-.014,2.635-.025c20.268-.212,150.838-1.511,154.826.025C663.724,200.479,661.306,204.471,661.306,204.471Z" transform="translate(-20518 -7469)" fill="#f2f3f4" opacity="0.69"/>
      <path id="Path_91317" data-name="Path 91317" d="M660.47,204.437c-18.818,2.6-30.37,26.167-30.37,26.167H479.626c0-24.968,22.307-31.926,22.307-31.926s.925-.014,2.635-.026c-4.618,2.455-8.747,4.222-12.554,8.092-5.786,5.879-10.067,13.754-10.067,21.952H627.721c.332,0,2.226-3.837,2.449-4.183a62.663,62.663,0,0,1,7.17-9.241A40.522,40.522,0,0,1,648.7,206.6C650.717,205.611,658.875,201.579,660.47,204.437Z" transform="translate(-20518 -7468.863)" fill="#c9d6e3" opacity="0.84"/>
      <path id="Path_91319" data-name="Path 91319" d="M648.746,201.269s-17.7,7.316-23.425,21.14H484.506c4.029-8.532,9.633-16.4,22.644-21.14Z" transform="translate(-20516.836 -7468.24)" fill="#fff" opacity="0.5"/>
      <path id="Path_91321" data-name="Path 91321" d="M529.082,297.371h-10.54V322.28h10.54Z" transform="translate(-20508.73 -7445.349)" fill="#7a97bf"/>
      <path id="Path_91322" data-name="Path 91322" d="M609.376,297.371H598.23V322.28h11.146Z" transform="translate(-20489.75 -7445.349)" fill="#7a97bf"/>
      <path id="Path_91323" data-name="Path 91323" d="M521.25,297.371h-7.32V322.28h7.32Z" transform="translate(-20509.83 -7445.349)" fill="#6680a0"/>
      <path id="Path_91324" data-name="Path 91324" d="M601.429,297.371h-7.32V322.28h7.32Z" transform="translate(-20490.73 -7445.349)" fill="#6680a0"/>
      <path id="Path_91325" data-name="Path 91325" d="M627.243,294.984H509.818v6.17H627.243Z" transform="translate(-20510.807 -7445.917)" fill="#6b84a6"/>
      <path id="Path_91326" data-name="Path 91326" d="M528.772,299.967v6.327l-8.931,6.851V299.967Z" transform="translate(-20508.42 -7444.73)" fill="#728db3"/>
      <path id="Path_91327" data-name="Path 91327" d="M608.95,299.967v6.327l-8.931,6.851V299.967Z" transform="translate(-20489.324 -7444.73)" fill="#728db3"/>
    </g>
  </g>
</svg>
