<svg xmlns="http://www.w3.org/2000/svg" width="64" height="64" viewBox="0 0 64 64">
  <path id="download_32dp_000000_FILL0_wght200_GRAD0_opsz40" d="M232-711.408l-15.936-15.936,2.773-2.73,11.23,11.17V-760h3.867v41.1l11.23-11.17,2.773,2.73ZM206.681-696a6.453,6.453,0,0,1-4.745-1.936A6.452,6.452,0,0,1,200-702.681v-11.891h3.869v11.891a2.688,2.688,0,0,0,.879,1.934,2.688,2.688,0,0,0,1.934.879h50.638a2.688,2.688,0,0,0,1.934-.879,2.688,2.688,0,0,0,.879-1.934v-11.891H264v11.891a6.452,6.452,0,0,1-1.936,4.745A6.453,6.453,0,0,1,257.319-696Z" transform="translate(-200 760)"/>
</svg>
