<svg xmlns="http://www.w3.org/2000/svg" width="32.337" height="38.348" viewBox="0 0 32.337 38.348">
  <g id="noun-excel-6511372" transform="translate(-10.5 -3.158)" opacity="0.728">
    <path id="Path_97459" data-name="Path 97459" d="M41.4,5.344H30.557V4.591a1.433,1.433,0,0,0-1.831-1.376L11.535,8.185A1.439,1.439,0,0,0,10.5,9.561V35.1a1.439,1.439,0,0,0,1.035,1.376l17.192,4.97a1.442,1.442,0,0,0,.4.057,1.435,1.435,0,0,0,1.429-1.434v-.753H41.4a1.434,1.434,0,0,0,1.433-1.433V6.777A1.434,1.434,0,0,0,41.4,5.344ZM29.329,40.072a.2.2,0,0,1-.262.2L11.876,35.3a.206.206,0,0,1-.148-.2V9.561a.206.206,0,0,1,.148-.2l17.192-4.97a.2.2,0,0,1,.262.2V40.072Zm12.28-2.186a.207.207,0,0,1-.2.2H30.557V35.226h7.163a.614.614,0,1,0,0-1.228H30.557V30.314h7.163a.614.614,0,1,0,0-1.228H30.557V25.4h7.163a.614.614,0,1,0,0-1.228H30.557V20.49h7.163a.614.614,0,1,0,0-1.228H30.557V15.578h7.163a.614.614,0,1,0,0-1.228H30.557V10.666h7.163a.614.614,0,1,0,0-1.228H30.557V6.572H41.4a.207.207,0,0,1,.2.2ZM23.653,24.575a.614.614,0,1,1-.866.87l-2.228-2.217L18.474,25.6a.614.614,0,1,1-.923-.81l2.135-2.432L17.4,20.089a.614.614,0,0,1,.866-.87L20.5,21.436l2.085-2.374a.614.614,0,1,1,.923.81L21.371,22.3l2.282,2.272Z" transform="translate(0 0)" fill="#016dd5"/>
  </g>
</svg>
