<svg xmlns="http://www.w3.org/2000/svg" width="466.096" height="302.017" viewBox="0 0 466.096 302.017">
  <g id="Excel_report" data-name="Excel report" transform="translate(-636.904 -2491)">
    <g id="Group_38832" data-name="Group 38832" transform="translate(-653 900)">
      <path id="Path_95222" data-name="Path 95222" d="M266.472,317a48,48,0,1,1,48-48,48,48,0,0,1-48,48Zm0-94a46,46,0,1,0,46,46,46,46,0,0,0-46-46Z" transform="translate(1441.528 1370)" fill="#deefff"/>
      <path id="Path_95223" data-name="Path 95223" d="M592.472,289a24,24,0,1,1,24-24A24,24,0,0,1,592.472,289Zm0-46a22,22,0,1,0,22,22,22,22,0,0,0-22-22Z" transform="translate(853.528 1593)" fill="#deefff"/>
      <path id="Path_95224" data-name="Path 95224" d="M761.472,406a27,27,0,1,1,27-27,27,27,0,0,1-27,27Zm0-52a25,25,0,1,0,25,25,25,25,0,0,0-25-25Z" transform="translate(591.528 1308)" fill="#deefff"/>
    </g>
    <g id="undraw_spreadsheet_re_cn18" transform="translate(477.893 2525.869)">
      <path id="Path_95264" data-name="Path 95264" d="M804.569,424.271H442.97a4.894,4.894,0,0,1-4.889-4.889V195.42H809.457V419.382a4.894,4.894,0,0,1-4.889,4.889Z" transform="translate(-217.154 -186.008)" fill="#e6e6e6"/>
      <path id="Path_95265" data-name="Path 95265" d="M798.893,419.864H458.5a4.947,4.947,0,0,1-4.942-4.942V230.481a4.947,4.947,0,0,1,4.942-4.942H798.893a4.947,4.947,0,0,1,4.942,4.942V414.922a4.947,4.947,0,0,1-4.942,4.942Z" transform="translate(-222.082 -195.597)" fill="#fff"/>
      <path id="Path_95266" data-name="Path 95266" d="M809.225,197.94H437.849V186.5a4.894,4.894,0,0,1,4.889-4.889h361.6a4.894,4.894,0,0,1,4.889,4.889Z" transform="translate(-217.08 -181.612)" fill="#016dd5"/>
      <circle id="Ellipse_291" data-name="Ellipse 291" cx="2.92" cy="2.92" r="2.92" transform="translate(229.843 5.422)" fill="#fff"/>
      <circle id="Ellipse_292" data-name="Ellipse 292" cx="2.92" cy="2.92" r="2.92" transform="translate(240.925 5.422)" fill="#fff"/>
      <circle id="Ellipse_293" data-name="Ellipse 293" cx="2.92" cy="2.92" r="2.92" transform="translate(252.008 5.422)" fill="#fff"/>
      <rect id="Rectangle_8867" data-name="Rectangle 8867" width="35.083" height="15.529" transform="translate(266.461 63.016)" fill="#e6e6e6"/>
      <rect id="Rectangle_8868" data-name="Rectangle 8868" width="35.083" height="15.529" transform="translate(336.627 95.223)" fill="#e6e6e6"/>
      <rect id="Rectangle_8869" data-name="Rectangle 8869" width="35.083" height="15.529" transform="translate(266.461 143.534)" fill="#016dd5"/>
      <rect id="Rectangle_8870" data-name="Rectangle 8870" width="35.083" height="15.529" transform="translate(336.627 175.741)" fill="#016dd5"/>
      <rect id="Rectangle_8871" data-name="Rectangle 8871" width="35.083" height="15.529" transform="translate(511.467 191.845)" fill="#016dd5"/>
      <rect id="Rectangle_8872" data-name="Rectangle 8872" width="35.083" height="15.529" transform="translate(476.384 127.43)" fill="#e6e6e6"/>
      <rect id="Rectangle_8873" data-name="Rectangle 8873" width="70.166" height="15.529" transform="translate(371.71 127.43)" fill="#016dd5"/>
      <rect id="Rectangle_8874" data-name="Rectangle 8874" width="70.166" height="15.529" transform="translate(371.71 46.337)" fill="#016dd5"/>
      <path id="Path_95267" data-name="Path 95267" d="M453.414,225.122V420.092h350.83V225.122Zm349.679,16.152H769.276v-15h33.818ZM594.436,354.335v-15h68.785v15Zm68.785,1.15v15H594.436v-15Zm0-64.606v15H594.436v-15Zm-68.785-1.15v-15h68.785v15Zm0,32.3v-15h68.785v15Zm68.785,1.15v15H594.436v-15Zm-69.936-17.3H559.468v-15h33.818Zm0,1.15v15H559.468v-15Zm0,16.152v15H559.468v-15Zm0,16.152v15H559.468v-15Zm71.086,0h33.818v15H664.372Zm0-1.15v-15h33.818v15Zm0-16.152v-15h33.818v15Zm0-16.152v-15h33.818v15Zm0-16.151v-15h33.818v15Zm0-16.152v-15h33.818v15Zm-1.15,0H594.436v-15h68.785Zm-69.936,0H559.468v-15h33.818Zm0,1.15v15H559.468v-15Zm-34.968,15H524.5v-15h33.818Zm0,1.15v15H524.5v-15Zm0,16.151v15H524.5v-15Zm0,16.152v15H524.5v-15Zm0,16.152v15H524.5v-15Zm0,16.151v15H524.5v-15Zm1.15,0h33.818v15H559.468Zm33.818,16.152v15H559.468v-15Zm1.15,0h68.785v15H594.436Zm69.936,0h33.818v15H664.372Zm0-1.15v-15h33.818v15Zm34.968-15h33.818v15H699.339Zm0-1.15v-15h33.818v15Zm0-16.151v-15h33.818v15Zm0-16.152v-15h33.818v15Zm0-16.152v-15h33.818v15Zm0-16.151v-15h33.818v15Zm0-16.152v-15h33.818v15Zm0-16.152v-15h33.818v15Zm-1.15,0H664.372v-15h33.817Zm-34.968,0H594.436v-15h68.785Zm-69.936,0H559.468v-15h33.818Zm-34.968,0H524.5v-15h33.818Zm0,1.15v15H524.5v-15Zm-34.968,15H489.532v-15H523.35Zm0,1.15v15H489.532v-15Zm0,16.152v15H489.532v-15Zm0,16.151v15H489.532v-15Zm0,16.152v15H489.532v-15Zm0,16.152v15H489.532v-15Zm0,16.151v15H489.532v-15Zm0,16.152v15H489.532v-15Zm1.15,0h33.818v15H524.5Zm33.818,16.151v15H524.5v-15Zm1.15,0h33.818v15H559.468Zm34.968,0h68.785v15H594.436Zm69.936,0h33.818v15H664.372Zm34.968,0h33.818v15H699.339Zm0-1.15v-15h33.818v15Zm34.968-15h33.818v15H734.308Zm0-1.15v-15h33.818v15Zm0-16.152v-15h33.818v15Zm0-16.151v-15h33.818v15Zm0-16.152v-15h33.818v15Zm0-16.152v-15h33.818v15Zm0-16.151v-15h33.818v15Zm0-16.152v-15h33.818v15Zm0-16.152v-15h33.818v15Zm0-16.151v-15h33.818v15Zm-1.15,0H699.339v-15h33.818Zm-34.968,0H664.372v-15h33.817Zm-34.968,0H594.436v-15h68.785Zm-69.936,0H559.468v-15h33.818Zm-34.968,0H524.5v-15h33.818Zm-34.968,0H489.532v-15H523.35Zm0,1.15v15H489.532v-15Zm-34.968,15H454.564v-15h33.818Zm0,1.15v15H454.564v-15Zm0,16.152v15H454.564v-15Zm0,16.152v15H454.564v-15Zm0,16.151v15H454.564v-15Zm0,16.152v15H454.564v-15Zm0,16.152v15H454.564v-15Zm0,16.151v15H454.564v-15Zm0,16.152v15H454.564v-15Zm0,16.151v15H454.564v-15Zm1.15,0H523.35v15H489.532ZM523.35,403.94v15H489.532v-15Zm1.15,0h33.818v15H524.5Zm34.968,0h33.818v15H559.468Zm34.968,0h68.785v15H594.436Zm69.936,0h33.817v15H664.372Zm34.968,0h33.818v15H699.34Zm34.968,0h33.818v15H734.308Zm0-1.15v-15h33.818v15Zm34.968-15h33.818v15H769.276Zm0-1.15v-15h33.818v15Zm0-16.151v-15h33.818v15Zm0-16.152v-15h33.818v15Zm0-16.151v-15h33.818v15Zm0-16.152v-15h33.818v15Zm0-16.152v-15h33.818v15Zm0-16.151v-15h33.818v15Zm0-16.152v-15h33.818v15Zm0-16.152v-15h33.818v15ZM488.382,226.273v15H454.564v-15ZM454.564,403.94h33.818v15H454.564Zm314.712,15v-15h33.818v15Z" transform="translate(-222.036 -195.464)" fill="#deefff"/>
    </g>
    <g id="Group_38293" data-name="Group 38293" transform="translate(13446.84 -6626)">
      <path id="Path_141" data-name="Path 141" d="M358.859,378.009H280.6a.911.911,0,0,1-.91-.91v-72.68a.911.911,0,0,1,.91-.91h78.263a.911.911,0,0,1,.91.91V377.1a.911.911,0,0,1-.91.91Z" transform="translate(-13089.622 9041.008)" fill="#fff"/>
      <path id="Path_141-2" data-name="Path 141" d="M358.859,378.009H280.6a.911.911,0,0,1-.91-.91v-72.68a.911.911,0,0,1,.91-.91h78.263a.911.911,0,0,1,.91.91V377.1a.911.911,0,0,1-.91.91ZM280.6,303.872a.547.547,0,0,0-.545.545V377.1a.547.547,0,0,0,.545.545h78.263a.546.546,0,0,0,.545-.545v-72.68a.547.547,0,0,0-.545-.545Z" transform="translate(-13089.622 9041.008)" fill="#e6e6e6"/>
      <path id="Path_154" data-name="Path 154" d="M393.569,367.226H344.446a.911.911,0,0,1-.91-.91V344.758a.911.911,0,0,1,.91-.91h49.123a.911.911,0,0,1,.91.91v21.558a.911.911,0,0,1-.91.91Z" transform="translate(-13138.901 9009.873)" fill="#016dd5"/>
      <path id="Path_142" data-name="Path 142" d="M378.819,384.246a.618.618,0,0,0,0,1.235h33.887a.618.618,0,0,0,0-1.235Z" transform="translate(-13165.657 8978.694)" fill="#fff"/>
      <path id="Path_143" data-name="Path 143" d="M378.819,400.485a.618.618,0,0,0,0,1.235h17.3a.618.618,0,0,0,0-1.235Z" transform="translate(-13165.657 8966.16)" fill="#fff"/>
      <path id="Path_142-2" data-name="Path 142" d="M313.849,481.116a.618.618,0,1,0,0,1.235h63.538a.618.618,0,1,0,0-1.235Z" transform="translate(-13115.513 8903.929)" fill="#e6e6e6"/>
      <path id="Path_143-2" data-name="Path 143" d="M313.849,497.356a.618.618,0,1,0,0,1.235H360.8a.618.618,0,0,0,0-1.235Z" transform="translate(-13115.513 8891.395)" fill="#e6e6e6"/>
      <path id="Path_142-3" data-name="Path 142" d="M313.849,513.228a.618.618,0,1,0,0,1.235h63.538a.618.618,0,0,0,0-1.235Z" transform="translate(-13115.513 8879.145)" fill="#e6e6e6"/>
      <path id="Path_143-3" data-name="Path 143" d="M313.849,529.467a.618.618,0,0,0,0,1.235H360.8a.618.618,0,0,0,0-1.235Z" transform="translate(-13115.513 8866.61)" fill="#e6e6e6"/>
      <path id="Path_154-2" data-name="Path 154" d="M526.6,576.407h-18.62a.911.911,0,0,1-.91-.91v-2.983a.911.911,0,0,1,.91-.91H526.6a.911.911,0,0,1,.91.91V575.5A.911.911,0,0,1,526.6,576.407Z" transform="translate(-13265.121 8834.089)" fill="#016dd5"/>
    </g>
    <path id="Path_95287" data-name="Path 95287" d="M70.2,194.46l-5.246-2.485a38.527,38.527,0,0,1,5,11.424,38.5,38.5,0,0,1,7.072-10.27l-5.544,1.426c3.416-16.744,16.267-28.765,30.982-28.765v-1.275C87.086,164.516,73.684,177.04,70.2,194.46Z" transform="translate(589.204 2506.043)" fill="#3f3d56"/>
  </g>
</svg>
