<svg xmlns="http://www.w3.org/2000/svg" width="34.133" height="37.868" viewBox="0 0 34.133 37.868">
  <g id="noun-location-138333" transform="translate(240.6 -357.5)" opacity="0.73">
    <path id="Path_1875" data-name="Path 1875" d="M-214.74,393.051l-1.466-10.117.9-1.135,1.7,10.259,5.2,1.418-3.782-12.292-2.364-.331.9-1.182,2.458.567,4.728,15.128Zm1.607-16.641-10.4,14.183-10.4-14.183h.047a12.085,12.085,0,0,1-1.938-6.619A12.267,12.267,0,0,1-223.534,357.5a12.267,12.267,0,0,1,12.292,12.292,12.085,12.085,0,0,1-1.938,6.619Zm.473-6.429a10.977,10.977,0,0,0-10.873-11.062,10.977,10.977,0,0,0-10.873,11.062,11.1,11.1,0,0,0,1.7,5.957h-.047l9.219,12.764,9.219-12.764h-.047A11.1,11.1,0,0,0-212.66,369.981Zm-10.873,4.538a4.741,4.741,0,0,1-4.728-4.728,4.741,4.741,0,0,1,4.728-4.728,4.741,4.741,0,0,1,4.728,4.728A4.741,4.741,0,0,1-223.534,374.519Zm0-8.037a3.289,3.289,0,0,0-3.309,3.309,3.289,3.289,0,0,0,3.309,3.309,3.289,3.289,0,0,0,3.309-3.309A3.289,3.289,0,0,0-223.534,366.482Zm-9.833,13.143.851,1.135-2.364.378-3.782,12.292,5.2-1.418,1.324-10.732,1.229,1.607L-232.374,393l-8.226,2.269,4.728-15.128Zm4.3,5.626-1.087,6.76,6.619,1.891,6.619-1.891-1.087-6.76.993-1.324,1.324,9.171-7.848,2.175-7.848-2.175,1.324-9.219Z" fill="#016dd5" fill-rule="evenodd"/>
  </g>
</svg>
