<svg xmlns="http://www.w3.org/2000/svg" xmlns:xlink="http://www.w3.org/1999/xlink" width="739.124" height="775.49" viewBox="0 0 739.124 775.49">
  <defs>
    <filter id="Path_1876" x="522.68" y="605.819" width="81.409" height="126.564" filterUnits="userSpaceOnUse">
      <feOffset dy="3" input="SourceAlpha"/>
      <feGaussianBlur stdDeviation="4" result="blur"/>
      <feFlood flood-opacity="0.161"/>
      <feComposite operator="in" in2="blur"/>
      <feComposite in="SourceGraphic"/>
    </filter>
    <filter id="Path_1877" x="569.902" y="605.201" width="70.563" height="130.652" filterUnits="userSpaceOnUse">
      <feOffset dy="3" input="SourceAlpha"/>
      <feGaussianBlur stdDeviation="4" result="blur-2"/>
      <feFlood flood-opacity="0.161"/>
      <feComposite operator="in" in2="blur-2"/>
      <feComposite in="SourceGraphic"/>
    </filter>
    <filter id="Path_1878" x="621.332" y="612.544" width="70.362" height="123.512" filterUnits="userSpaceOnUse">
      <feOffset dy="3" input="SourceAlpha"/>
      <feGaussianBlur stdDeviation="4" result="blur-3"/>
      <feFlood flood-opacity="0.161"/>
      <feComposite operator="in" in2="blur-3"/>
      <feComposite in="SourceGraphic"/>
    </filter>
    <filter id="Path_1879" x="663.479" y="616.823" width="75.645" height="115.557" filterUnits="userSpaceOnUse">
      <feOffset dy="3" input="SourceAlpha"/>
      <feGaussianBlur stdDeviation="4" result="blur-4"/>
      <feFlood flood-opacity="0.161"/>
      <feComposite operator="in" in2="blur-4"/>
      <feComposite in="SourceGraphic"/>
    </filter>
    <filter id="Path_1880" x="609.696" y="496.638" width="126.39" height="161.364" filterUnits="userSpaceOnUse">
      <feOffset dy="3" input="SourceAlpha"/>
      <feGaussianBlur stdDeviation="4" result="blur-5"/>
      <feFlood flood-opacity="0.161"/>
      <feComposite operator="in" in2="blur-5"/>
      <feComposite in="SourceGraphic"/>
    </filter>
  </defs>
  <g id="Group_1084" data-name="Group 1084" transform="translate(-1183.5 -70.387)">
    <g id="Group_1014" data-name="Group 1014" transform="translate(-94 -1036.598)">
      <g id="Group_1002" data-name="Group 1002" transform="translate(15 1016.77)">
        <g id="Group_961" data-name="Group 961" transform="translate(1233.5 126)">
          <g id="Group_958" data-name="Group 958">
            <path id="Line_142" data-name="Line 142" d="M729,3.5H0v-7H729Z" transform="translate(29 736.204)" fill="#403d56"/>
            <g id="Group_955" data-name="Group 955" transform="translate(50.73)">
              <g id="Group_38292" data-name="Group 38292" transform="translate(0 0)">
                <path id="Path_95222" data-name="Path 95222" d="M324.217,432.491A105.745,105.745,0,1,1,429.963,326.745,105.745,105.745,0,0,1,324.217,432.491Zm0-207.085A101.339,101.339,0,1,0,425.557,326.745,101.339,101.339,0,0,0,324.217,225.406Z" transform="translate(279.846 -256.785)" fill="#c1e1ff"/>
                <path id="Path_95223" data-name="Path 95223" d="M611.033,326.123a42.561,42.561,0,1,1,42.561-42.561A42.561,42.561,0,0,1,611.033,326.123Zm0-81.576a39.015,39.015,0,1,0,39.015,39.015A39.015,39.015,0,0,0,611.033,244.547Z" transform="translate(-17.786 171.154)" fill="#a7d1f8"/>
                <path id="Path_95224" data-name="Path 95224" d="M781.784,446.624A47.312,47.312,0,1,1,829.1,399.312,47.312,47.312,0,0,1,781.784,446.624Zm0-91.119a43.807,43.807,0,1,0,43.807,43.807A43.807,43.807,0,0,0,781.784,355.5Z" transform="translate(-739.136 231.418)" fill="#c1e1ff"/>
              </g>
              <rect id="Rectangle_408" data-name="Rectangle 408" width="572.989" height="660.042" transform="translate(54.82 64)" fill="#f4f9ff"/>
              <g id="noun-report-149914" transform="translate(45.82 55.404)">
                <g id="Group_946" data-name="Group 946" transform="translate(0 0)">
                  <g id="Group_945" data-name="Group 945">
                    <path id="Path_1843" data-name="Path 1843" d="M587.242,0H7.633A7.688,7.688,0,0,0,0,7.736V673.064A7.688,7.688,0,0,0,7.633,680.8H587.242a7.688,7.688,0,0,0,7.633-7.736V7.736A7.688,7.688,0,0,0,587.242,0Zm-7.633,665.328H15.266V313.159H579.609Zm0-359.9H15.266V15.473H579.609Z" fill="#403d56"/>
                  </g>
                </g>
              </g>
            </g>
          </g>
          <rect id="Rectangle_409" data-name="Rectangle 409" width="568" height="52" transform="translate(109.551 69)" fill="#036dd5"/>
        </g>
      </g>
      <g id="Group_1003" data-name="Group 1003" transform="translate(1369.366 1218.308)">
        <g id="Group_940" data-name="Group 940" transform="translate(42.438 110.174)">
          <path id="Path_1842" data-name="Path 1842" d="M8,164.77V56h3.967V162.5H200.394v4.532H9.983A2.14,2.14,0,0,1,8,164.77Z" transform="translate(-8 -56)" fill="#403d56"/>
        </g>
        <g id="Group_950" data-name="Group 950" transform="translate(156.634 173.658)">
          <rect id="Rectangle_403" data-name="Rectangle 403" width="13.521" height="43.278" transform="translate(0 0)" fill="#036dd5"/>
        </g>
        <g id="Group_951" data-name="Group 951" transform="translate(133.634 156.073)">
          <rect id="Rectangle_404" data-name="Rectangle 404" width="13.521" height="60.864" transform="translate(0 0)" fill="#9acdff"/>
        </g>
        <g id="Group_952" data-name="Group 952" transform="translate(63.635 156.073)">
          <rect id="Rectangle_405" data-name="Rectangle 405" width="14.197" height="60.864" transform="translate(0 0)" fill="#036dd5"/>
        </g>
        <g id="Group_953" data-name="Group 953" transform="translate(87.634 177.138)">
          <rect id="Rectangle_406" data-name="Rectangle 406" width="14.197" height="39.799" transform="translate(0 0)" fill="#9acdff"/>
        </g>
        <g id="Group_957" data-name="Group 957" transform="translate(179.634 125.195)">
          <rect id="Rectangle_406-2" data-name="Rectangle 406" width="14.197" height="91.742" transform="translate(0 0)" fill="#9acdff"/>
        </g>
        <g id="Group_954" data-name="Group 954" transform="translate(110.634 129.97)">
          <rect id="Rectangle_407" data-name="Rectangle 407" width="13.521" height="86.966" transform="translate(0 0)" fill="#036dd5"/>
        </g>
        <g id="Group_956" data-name="Group 956" transform="translate(203.634 156.073)">
          <rect id="Rectangle_407-2" data-name="Rectangle 407" width="13.521" height="60.864" transform="translate(0 0)" fill="#036dd5"/>
        </g>
      </g>
      <g id="noun-pie-chart-7288770" transform="translate(1697.51 1314.777)">
        <path id="Path_1832" data-name="Path 1832" d="M27.154,105.963c.057.085.142.114.2.2a55.135,55.135,0,0,0,28.157,23.8l-3.163,4.189a.6.6,0,0,1-.456.228H36.331a1.411,1.411,0,0,0-1.425,1.425,1.429,1.429,0,0,0,1.425,1.425h15.56a3.442,3.442,0,0,0,2.736-1.368l3.676-4.873a54.65,54.65,0,0,0,16.529,2.565c9.347,0,20.433-2.394,28.555-6.925a1.423,1.423,0,0,0-1.4-2.479c-1.909,1.054-5.728,2-7.78,2.821l-7.353-19.778a31.569,31.569,0,0,0,9.319-6.156l14.449,15.418c-1.225,1.168-6.184,5.956-7.552,7.011a1.414,1.414,0,0,0-.256,2,1.391,1.391,0,0,0,1.111.57,1.453,1.453,0,0,0,.883-.313C118.378,115.2,129.806,95.7,129.806,78.576A55.006,55.006,0,0,0,93.727,26.994l3.591-6.526a1.485,1.485,0,0,1,1.254-.712h16.273a1.448,1.448,0,0,0,1.425-1.425,1.429,1.429,0,0,0-1.425-1.425H98.572A4.289,4.289,0,0,0,94.81,19.1l-3.819,6.925a54.828,54.828,0,0,0-33.571.37,1.4,1.4,0,0,0-.912,1.8,1.427,1.427,0,0,0,1.8.912,52.2,52.2,0,0,1,15.1-2.622V47.569A30.982,30.982,0,0,0,45.336,68.858a1.429,1.429,0,0,0,2.707.912,28.226,28.226,0,1,1-1.4,8.806,1.429,1.429,0,0,0-1.425-1.425A1.411,1.411,0,0,0,43.8,78.575a30.723,30.723,0,0,0,3.363,13.993L28.951,103.284a52.191,52.191,0,0,1-1.995-45.369,1.429,1.429,0,1,0-2.622-1.14,54.893,54.893,0,0,0,2.736,48.9.836.836,0,0,0,.086.285Z" transform="translate(6.388 -8.043)" fill="#9acdff"/>
        <path id="Path_1836" data-name="Path 1836" d="M78.162,33.449h29.354a2.84,2.84,0,0,0,2.85-2.85V14.9a2.84,2.84,0,0,0-2.85-2.85H78.162a2.84,2.84,0,0,0-2.85,2.85V30.6A2.84,2.84,0,0,0,78.162,33.449ZM83.748,18.2H101.93a1.429,1.429,0,0,1,1.425,1.425,1.411,1.411,0,0,1-1.425,1.425H83.748a1.429,1.429,0,0,1-1.425-1.425A1.448,1.448,0,0,1,83.748,18.2Zm0,6.241H101.93a1.411,1.411,0,0,1,1.425,1.425,1.429,1.429,0,0,1-1.425,1.425H83.748a1.448,1.448,0,0,1-1.425-1.425A1.429,1.429,0,0,1,83.748,24.443Z" transform="translate(52.075 -12.047)" fill="#036dd5"/>
        <path id="Path_1837" data-name="Path 1837" d="M8.319,97.621H39.3a2.84,2.84,0,0,0,2.85-2.85v-15.7a2.84,2.84,0,0,0-2.85-2.85H8.319a2.84,2.84,0,0,0-2.85,2.85v15.7A2.84,2.84,0,0,0,8.319,97.621Zm5.928-15.247H33.341A1.429,1.429,0,0,1,34.766,83.8a1.411,1.411,0,0,1-1.425,1.425H14.246A1.429,1.429,0,0,1,12.821,83.8,1.448,1.448,0,0,1,14.246,82.374Zm0,6.241H33.341a1.411,1.411,0,0,1,1.425,1.425,1.429,1.429,0,0,1-1.425,1.425H14.246a1.448,1.448,0,0,1-1.425-1.425A1.429,1.429,0,0,1,14.246,88.615Z" transform="translate(-5.469 40.825)" fill="#036dd5"/>
        <path id="Path_1838" data-name="Path 1838" d="M13.865,44.3h7.723a2.849,2.849,0,0,0,2.85-2.85V39.637a1.425,1.425,0,0,0-2.85,0v1.817H13.865V30.839h7.723V41.689c0,.791,2.85.791,2.85,0V30.839a2.849,2.849,0,0,0-2.85-2.85H13.865a2.849,2.849,0,0,0-2.85,2.85V41.454A2.849,2.849,0,0,0,13.865,44.3Z" transform="translate(-0.899 1.088)" fill="#9acdff"/>
        <path id="Path_1839" data-name="Path 1839" d="M23.865,49.348h7.723a2.858,2.858,0,0,0,2.85-2.85V24.725a2.858,2.858,0,0,0-2.85-2.85H23.865a2.858,2.858,0,0,0-2.85,2.85V46.5A2.858,2.858,0,0,0,23.865,49.348Zm0-24.623h7.723V46.5H23.865Z" transform="translate(7.34 -3.949)" fill="#9acdff"/>
        <path id="Path_1840" data-name="Path 1840" d="M33.873,56.138H41.6a2.849,2.849,0,0,0,2.85-2.85V16.475a2.849,2.849,0,0,0-2.85-2.85H33.873a2.849,2.849,0,0,0-2.85,2.85V50.188c0,.791,2.85.791,2.85,0V16.475H41.6V53.3H33.873V39.531a1.425,1.425,0,0,0-2.85,0V53.3a2.848,2.848,0,0,0,2.85,2.843Z" transform="translate(15.586 -10.746)" fill="#9acdff"/>
        <path id="Path_1861" data-name="Path 1861" d="M51.892,138.226H36.331a2.425,2.425,0,1,1,0-4.85H51.677l2.239-2.965A56.153,56.153,0,0,1,26.56,106.787a1.348,1.348,0,0,1-.238-.269l-.373-.56.072-.106a56.217,56.217,0,0,1-5.231-12.77,56.013,56.013,0,0,1,2.625-36.7l0-.008a2.444,2.444,0,0,1,2.239-1.455,2.369,2.369,0,0,1,.96.2A2.434,2.434,0,0,1,27.877,58.3l0,.007a51.044,51.044,0,0,0,1.473,43.58l16.508-9.714a31.714,31.714,0,0,1-3.056-13.6,2.425,2.425,0,0,1,4.85,0,27.163,27.163,0,1,0,1.345-8.493l0,.014A2.406,2.406,0,0,1,45.937,71.6a2.4,2.4,0,0,1-1.55-3.062,31.976,31.976,0,0,1,28.02-21.913V27.519A51.077,51.077,0,0,0,58.625,30.05a2.348,2.348,0,0,1-.764.128,2.445,2.445,0,0,1-2.3-1.66,2.37,2.37,0,0,1,.113-1.836A2.433,2.433,0,0,1,57.1,25.447a55.854,55.854,0,0,1,33.4-.615l3.432-6.223a5.32,5.32,0,0,1,4.633-2.7h16.273a2.428,2.428,0,0,1,2.425,2.425,2.457,2.457,0,0,1-2.425,2.425H98.572a.486.486,0,0,0-.389.216l-3.024,5.5a55.871,55.871,0,0,1,35.647,52.109,48.029,48.029,0,0,1-2.038,13.392,66.089,66.089,0,0,1-5.494,13.135,69.926,69.926,0,0,1-17.848,21.4,2.509,2.509,0,0,1-.871.438,2.372,2.372,0,0,1-.683.56A55.311,55.311,0,0,1,89.8,132.76a66.49,66.49,0,0,1-14.966,1.79,55.615,55.615,0,0,1-16.154-2.4l-3.258,4.318A4.425,4.425,0,0,1,51.892,138.226Zm-15.56-2.85a.411.411,0,0,0-.425.425.431.431,0,0,0,.425.425h15.56a2.439,2.439,0,0,0,1.941-.974l4.1-5.434.674.214a53.648,53.648,0,0,0,16.227,2.518c9.461,0,19.815-2.43,27.283-6.373q-.047-.054-.091-.111a2.455,2.455,0,0,1-.36-.646,43.124,43.124,0,0,1-4.219,1.5c-1.085.346-2.11.673-2.862.976l-.953.384-8.043-21.636.878-.374a30.5,30.5,0,0,0,9.023-5.962l.73-.691,15.814,16.875-.718.684-.636.609c-1.592,1.525-4.647,4.452-6.283,5.877a2.384,2.384,0,0,1,.4.537q.05.088.093.178a68.357,68.357,0,0,0,16.625-20.231,64.089,64.089,0,0,0,5.329-12.736,46.036,46.036,0,0,0,1.958-12.832,53.572,53.572,0,0,0-9.967-31.2A54.286,54.286,0,0,0,93.383,27.933l-1.092-.4,4.171-7.578a2.476,2.476,0,0,1,2.111-1.2h16.273a.448.448,0,0,0,.425-.425.431.431,0,0,0-.425-.425H98.572a3.275,3.275,0,0,0-2.888,1.68l-4.212,7.637-.78-.244a53.828,53.828,0,0,0-32.953.364.45.45,0,0,0-.269.223.379.379,0,0,0-.017.3.457.457,0,0,0,.408.314.347.347,0,0,0,.115-.02l.011,0A53.28,53.28,0,0,1,73.38,25.482l1.028-.028v23.07l-.953.044a29.982,29.982,0,0,0-27.168,20.6.413.413,0,0,0,.02.329.4.4,0,0,0,.236.2l.033.011a.4.4,0,0,0,.132.023.419.419,0,0,0,.389-.283,29.226,29.226,0,1,1-1.448,9.127.431.431,0,0,0-.425-.425.411.411,0,0,0-.425.425,29.723,29.723,0,0,0,3.254,13.538l.428.839L28.564,104.671l-.493-.912a53.191,53.191,0,0,1-2.035-46.237.436.436,0,0,0-.224-.573.381.381,0,0,0-.154-.032.455.455,0,0,0-.407.258,53.781,53.781,0,0,0,2.688,48.007l.068.119.031.124a1.311,1.311,0,0,1,.148.183l.031.05a54.213,54.213,0,0,0,27.645,23.365l1.253.471-3.987,5.28a1.6,1.6,0,0,1-1.237.6Zm51.792-27.656L94.8,125.682c.623-.217,1.318-.438,2.039-.668a30.832,30.832,0,0,0,4.661-1.739,2.391,2.391,0,0,1,.582-.239,2.456,2.456,0,0,1,.381-.366c1.134-.875,5.016-4.59,6.757-6.258L96.126,102.44A32.455,32.455,0,0,1,88.123,107.721Z" transform="translate(6.388 -8.043)" fill="#036dd5"/>
      </g>
      <path id="Path_1860" data-name="Path 1860" d="M587.242,0H7.633A7.688,7.688,0,0,0,0,7.736V673.064A7.688,7.688,0,0,0,7.633,680.8H587.242a7.688,7.688,0,0,0,7.633-7.736V7.736A7.688,7.688,0,0,0,587.242,0Zm-7.633,665.328H15.266V313.159H579.609Zm0-359.9H15.266V15.473H579.609Z" transform="translate(1345.051 1198.173)" fill="#403d56"/>
      <path id="Rectangle_417" data-name="Rectangle 417" d="M4,4V184H238V4H4M0,0H242V188H0Z" transform="translate(1387 1290)" fill="#e6e6e6"/>
      <path id="Rectangle_417-2" data-name="Rectangle 417" d="M4,4V184H238V4H4M0,0H242V188H0Z" transform="translate(1656 1290)" fill="#e6e6e6"/>
      <path id="Rectangle_417-3" data-name="Rectangle 417" d="M4,4.393V136.17H506V4.393H4M0,0H510V140.563H0Z" transform="translate(1387 1532)" fill="#e6e6e6"/>
      <path id="Rectangle_417-4" data-name="Rectangle 417" d="M4,4.393V136.17H506V4.393H4M0,0H510V140.563H0Z" transform="translate(1387 1694)" fill="#e6e6e6"/>
      <g id="Group_1004" data-name="Group 1004" transform="translate(1413.626 1547.157)">
        <g id="Group_914" data-name="Group 914" transform="translate(0.135 0)">
          <path id="Path_1828" data-name="Path 1828" d="M95.589,96.64V20H8V96.64H95.589ZM92.852,77.809,77,63.606a3.618,3.618,0,0,0-4.9-.192L49.484,84.227,57.89,71.65,39.647,51.836a3.617,3.617,0,0,0-5.4.082L10.737,79.079V22.737H92.852Z" transform="translate(-8 -20)" fill="#e6e6e6"/>
        </g>
        <g id="Group_915" data-name="Group 915" transform="translate(0 83.978)">
          <rect id="Rectangle_375" data-name="Rectangle 375" width="66.324" height="6.218" transform="translate(0 0)" fill="#036dd5"/>
        </g>
        <g id="Group_916" data-name="Group 916" transform="translate(0.135 107.813)">
          <rect id="Rectangle_376" data-name="Rectangle 376" width="87.589" height="2.737" fill="#403d56"/>
        </g>
        <g id="Group_917" data-name="Group 917" transform="translate(0.135 97.45)">
          <rect id="Rectangle_377" data-name="Rectangle 377" width="87.589" height="2.737" fill="#403d56"/>
        </g>
        <g id="Group_918" data-name="Group 918" transform="translate(54.878 10.949)">
          <ellipse id="Ellipse_11" data-name="Ellipse 11" cx="9.044" cy="9.044" rx="9.044" ry="9.044" fill="#9acdff"/>
        </g>
      </g>
      <g id="Group_1005" data-name="Group 1005" transform="translate(1536.627 1547.157)">
        <g id="Group_914-2" data-name="Group 914" transform="translate(0.135 0)">
          <path id="Path_1828-2" data-name="Path 1828" d="M95.589,96.64V20H8V96.64H95.589ZM92.852,77.809,77,63.606a3.618,3.618,0,0,0-4.9-.192L49.484,84.227,57.89,71.65,39.647,51.836a3.617,3.617,0,0,0-5.4.082L10.737,79.079V22.737H92.852Z" transform="translate(-8 -20)" fill="#e6e6e6"/>
        </g>
        <g id="Group_915-2" data-name="Group 915" transform="translate(0 83.978)">
          <rect id="Rectangle_375-2" data-name="Rectangle 375" width="66.324" height="6.218" transform="translate(0 0)" fill="#036dd5"/>
        </g>
        <g id="Group_916-2" data-name="Group 916" transform="translate(0.135 107.813)">
          <rect id="Rectangle_376-2" data-name="Rectangle 376" width="87.589" height="2.737" fill="#403d56"/>
        </g>
        <g id="Group_917-2" data-name="Group 917" transform="translate(0.135 97.45)">
          <rect id="Rectangle_377-2" data-name="Rectangle 377" width="87.589" height="2.737" fill="#403d56"/>
        </g>
        <g id="Group_918-2" data-name="Group 918" transform="translate(54.878 10.949)">
          <ellipse id="Ellipse_11-2" data-name="Ellipse 11" cx="9.044" cy="9.044" rx="9.044" ry="9.044" fill="#9acdff"/>
        </g>
      </g>
      <g id="Group_1006" data-name="Group 1006" transform="translate(1660.626 1547.157)">
        <g id="Group_914-3" data-name="Group 914" transform="translate(0.135 0)">
          <path id="Path_1828-3" data-name="Path 1828" d="M95.589,96.64V20H8V96.64H95.589ZM92.852,77.809,77,63.606a3.618,3.618,0,0,0-4.9-.192L49.484,84.227,57.89,71.65,39.647,51.836a3.617,3.617,0,0,0-5.4.082L10.737,79.079V22.737H92.852Z" transform="translate(-8 -20)" fill="#e6e6e6"/>
        </g>
        <g id="Group_915-3" data-name="Group 915" transform="translate(0 83.978)">
          <rect id="Rectangle_375-3" data-name="Rectangle 375" width="66.324" height="6.218" transform="translate(0 0)" fill="#036dd5"/>
        </g>
        <g id="Group_916-3" data-name="Group 916" transform="translate(0.135 107.813)">
          <rect id="Rectangle_376-3" data-name="Rectangle 376" width="87.589" height="2.737" fill="#403d56"/>
        </g>
        <g id="Group_917-3" data-name="Group 917" transform="translate(0.135 97.45)">
          <rect id="Rectangle_377-3" data-name="Rectangle 377" width="87.589" height="2.737" fill="#403d56"/>
        </g>
        <g id="Group_918-3" data-name="Group 918" transform="translate(54.878 10.949)">
          <ellipse id="Ellipse_11-3" data-name="Ellipse 11" cx="9.044" cy="9.044" rx="9.044" ry="9.044" fill="#9acdff"/>
        </g>
      </g>
      <g id="Group_1013" data-name="Group 1013" transform="translate(1783.626 1547.006)">
        <g id="Group_914-4" data-name="Group 914" transform="translate(0.135 0)">
          <path id="Path_1828-4" data-name="Path 1828" d="M95.589,96.64V20H8V96.64H95.589ZM92.852,77.809,77,63.606a3.618,3.618,0,0,0-4.9-.192L49.484,84.227,57.89,71.65,39.647,51.836a3.617,3.617,0,0,0-5.4.082L10.737,79.079V22.737H92.852Z" transform="translate(-8 -20)" fill="#e6e6e6"/>
        </g>
        <g id="Group_915-4" data-name="Group 915" transform="translate(0 83.978)">
          <rect id="Rectangle_375-4" data-name="Rectangle 375" width="66.324" height="6.218" transform="translate(0 0)" fill="#036dd5"/>
        </g>
        <g id="Group_916-4" data-name="Group 916" transform="translate(0.135 107.813)">
          <rect id="Rectangle_376-4" data-name="Rectangle 376" width="87.589" height="2.737" fill="#403d56"/>
        </g>
        <g id="Group_917-4" data-name="Group 917" transform="translate(0.135 97.45)">
          <rect id="Rectangle_377-4" data-name="Rectangle 377" width="87.589" height="2.737" fill="#403d56"/>
        </g>
        <g id="Group_918-4" data-name="Group 918" transform="translate(54.878 10.949)">
          <ellipse id="Ellipse_11-4" data-name="Ellipse 11" cx="9.044" cy="9.044" rx="9.044" ry="9.044" fill="#9acdff"/>
        </g>
      </g>
      <g id="Group_1010" data-name="Group 1010" transform="translate(33)">
        <g id="Group_1009" data-name="Group 1009" transform="translate(1402.403 1709.157)">
          <g id="Group_915-5" data-name="Group 915" transform="translate(0 83.978)">
            <rect id="Rectangle_375-5" data-name="Rectangle 375" width="66.324" height="6.218" transform="translate(0 0)" fill="#9acdff"/>
          </g>
          <g id="Group_916-5" data-name="Group 916" transform="translate(0.135 107.813)">
            <rect id="Rectangle_376-5" data-name="Rectangle 376" width="115.462" height="2.737" fill="#403d56"/>
          </g>
          <g id="Group_917-5" data-name="Group 917" transform="translate(0.135 97.45)">
            <rect id="Rectangle_377-5" data-name="Rectangle 377" width="115.462" height="2.737" fill="#403d56"/>
          </g>
        </g>
        <path id="Rectangle_417-5" data-name="Rectangle 417" d="M3,3V74H113V3H3M0,0H116V77H0Z" transform="translate(1402 1711)" fill="#e6e6e6"/>
        <path id="Polygon_1" data-name="Polygon 1" d="M13,0,26,25H0Z" transform="translate(1473 1737) rotate(90)" fill="#403d56"/>
      </g>
      <g id="Group_1011" data-name="Group 1011" transform="translate(184)">
        <g id="Group_1009-2" data-name="Group 1009" transform="translate(1402.403 1709.157)">
          <g id="Group_915-6" data-name="Group 915" transform="translate(0 83.978)">
            <rect id="Rectangle_375-6" data-name="Rectangle 375" width="66.324" height="6.218" transform="translate(0 0)" fill="#9acdff"/>
          </g>
          <g id="Group_916-6" data-name="Group 916" transform="translate(0.135 107.813)">
            <rect id="Rectangle_376-6" data-name="Rectangle 376" width="115.462" height="2.737" fill="#403d56"/>
          </g>
          <g id="Group_917-6" data-name="Group 917" transform="translate(0.135 97.45)">
            <rect id="Rectangle_377-6" data-name="Rectangle 377" width="115.462" height="2.737" fill="#403d56"/>
          </g>
        </g>
        <path id="Rectangle_417-6" data-name="Rectangle 417" d="M3,3V74H113V3H3M0,0H116V77H0Z" transform="translate(1402 1711)" fill="#e6e6e6"/>
        <path id="Polygon_1-2" data-name="Polygon 1" d="M13,0,26,25H0Z" transform="translate(1473 1737) rotate(90)" fill="#403d56"/>
      </g>
    </g>
    <g id="noun-maps-1605392" transform="translate(1673.745 572.166)">
      <g id="Group_1083" data-name="Group 1083" transform="translate(2.522 6.37)">
        <g transform="matrix(1, 0, 0, 1, -492.77, -508.15)" filter="url(#Path_1876)">
          <path id="Path_1876-2" data-name="Path 1876" d="M30.3,54.455a3.466,3.466,0,0,0-1.776,1.973L2.676,135.161A3.42,3.42,0,0,0,6.82,139.5l33.348-10.458L54.178,43.8Z" transform="translate(534.69 575.19)" fill="#9acdff" stroke="#f4f9ff" stroke-width="5"/>
        </g>
        <g transform="matrix(1, 0, 0, 1, -492.77, -508.15)" filter="url(#Path_1877)">
          <path id="Path_1877-2" data-name="Path 1877" d="M26.6,130.022l41.241,12.826V55.237L41,43.2Z" transform="translate(558.12 574.61)" fill="#9acdff" stroke="#f4f9ff" stroke-width="5"/>
        </g>
        <g transform="matrix(1, 0, 0, 1, -492.77, -508.15)" filter="url(#Path_1878)">
          <path id="Path_1878-2" data-name="Path 1878" d="M78.349,68.6,64.142,46.7,52.5,52.028v87.612l41.043-12.826L84.861,73.931A15.6,15.6,0,0,1,78.349,68.6Z" transform="translate(583.33 578.02)" fill="#9acdff" stroke="#f4f9ff" stroke-width="5"/>
        </g>
        <g transform="matrix(1, 0, 0, 1, -492.77, -508.15)" filter="url(#Path_1879)">
          <path id="Path_1879-2" data-name="Path 1879" d="M120.174,130.2,94.324,51.663a2.966,2.966,0,0,0-1.776-1.973L90.97,48.9,79.525,66.462A12.757,12.757,0,0,1,74,71.2l8.682,52.883,33.348,10.458A3.42,3.42,0,0,0,120.174,130.2Z" transform="translate(604.26 580.16)" fill="#9acdff" stroke="#f4f9ff" stroke-width="5"/>
        </g>
        <g transform="matrix(1, 0, 0, 1, -492.77, -508.15)" filter="url(#Path_1880)">
          <path id="Path_1880-2" data-name="Path 1880" d="M149.968,53.689A48.694,48.694,0,0,0,52.6,55a46.858,46.858,0,0,0,6.561,24.145l36.48,56.426a6.867,6.867,0,0,0,11.548,0l36.48-56.426A48.914,48.914,0,0,0,149.968,53.689ZM101.415,78.622A23.883,23.883,0,1,1,125.3,54.739,23.97,23.97,0,0,1,101.415,78.622Z" transform="translate(571.6 501.78)" fill="#036dd5" stroke="#f4f9ff" stroke-width="5"/>
        </g>
      </g>
    </g>
  </g>
</svg>
