<svg xmlns="http://www.w3.org/2000/svg" width="134.998" height="40" viewBox="0 0 134.998 40">
  <g id="Google_Play_Store_badge_EN" transform="translate(-0.003 -0.001)">
    <path id="path11" d="M130,40H5a5.015,5.015,0,0,1-5-5V5A5.015,5.015,0,0,1,5,0H130a5.015,5.015,0,0,1,5,5V35a5.015,5.015,0,0,1-5,5" fill="#100f0d"/>
    <path id="path13" d="M130,0H5A5.015,5.015,0,0,0,0,5V35a5.015,5.015,0,0,0,5,5H130a5.015,5.015,0,0,0,5-5V5a5.015,5.015,0,0,0-5-5Zm0,.8A4.2,4.2,0,0,1,134.2,5V35a4.2,4.2,0,0,1-4.2,4.2H5A4.2,4.2,0,0,1,.8,35V5A4.2,4.2,0,0,1,5,.8H130" fill="#a2a2a1"/>
    <path id="path35" d="M120.617,35.683h1.866v-12.5h-1.866Zm16.807-8-2.139,5.42h-.064L133,27.685h-2.01l3.33,7.575-1.9,4.214h1.946L139.5,27.685Zm-10.583,6.578c-.61,0-1.463-.306-1.463-1.062,0-.965,1.062-1.335,1.978-1.335a3.322,3.322,0,0,1,1.705.418,2.262,2.262,0,0,1-2.22,1.978Zm.226-6.852a3.5,3.5,0,0,0-3.329,1.914l1.656.691A1.768,1.768,0,0,1,127.1,29.1a1.8,1.8,0,0,1,1.962,1.608v.128a4.13,4.13,0,0,0-1.946-.482c-1.786,0-3.6.981-3.6,2.814a2.888,2.888,0,0,0,3.1,2.75A2.63,2.63,0,0,0,129,34.7h.065v.966h1.8V30.869c0-2.22-1.658-3.458-3.8-3.458Zm-11.532,1.8h-2.654V24.921h2.654a2.143,2.143,0,1,1,0,4.285Zm-.048-6.025h-4.471v12.5h1.865V30.947h2.606a3.888,3.888,0,1,0,0-7.765ZM91.107,34.265a2.587,2.587,0,0,1,0-5.155A2.4,2.4,0,0,1,93.378,31.7,2.377,2.377,0,0,1,91.107,34.265Zm2.143-5.88h-.065a2.947,2.947,0,0,0-2.239-.95,4.257,4.257,0,0,0,0,8.506,2.9,2.9,0,0,0,2.239-.966h.065v.612c0,1.628-.87,2.5-2.272,2.5a2.354,2.354,0,0,1-2.143-1.514l-1.627.677a4.053,4.053,0,0,0,3.77,2.513c2.191,0,4.044-1.289,4.044-4.431V27.692H93.249Zm3.062,7.3h1.868V23.18H96.311Zm4.623-4.124a2.333,2.333,0,0,1,2.223-2.481,1.649,1.649,0,0,1,1.579.9Zm5.8-1.418a3.953,3.953,0,0,0-3.641-2.706,4.042,4.042,0,0,0-4.012,4.253A4.162,4.162,0,0,0,103.3,35.94a4.232,4.232,0,0,0,3.545-1.885l-1.45-.967a2.429,2.429,0,0,1-2.095,1.176,2.162,2.162,0,0,1-2.061-1.289l5.686-2.352Zm-45.308-1.4v1.8h4.317a3.765,3.765,0,0,1-.983,2.272,4.421,4.421,0,0,1-3.335,1.321,4.8,4.8,0,0,1,0-9.6,4.6,4.6,0,0,1,3.254,1.289l1.273-1.273a6.3,6.3,0,0,0-4.527-1.82,6.606,6.606,0,1,0,0,13.211,6.039,6.039,0,0,0,4.607-1.853A5.962,5.962,0,0,0,67.6,29.866a5.888,5.888,0,0,0-.1-1.127Zm11.079,5.526a2.584,2.584,0,1,1,2.4-2.578A2.461,2.461,0,0,1,72.505,34.265Zm0-6.831a4.253,4.253,0,1,0,4.269,4.253,4.192,4.192,0,0,0-4.269-4.253Zm9.313,6.831a2.584,2.584,0,1,1,2.4-2.578A2.461,2.461,0,0,1,81.818,34.265Zm0-6.831a4.253,4.253,0,1,0,4.27,4.253,4.192,4.192,0,0,0-4.27-4.253" transform="translate(-13.679 -5.682)" fill="#fff"/>
    <path id="path37" d="M24.074,25.9,13.428,37.2l0,.007a2.878,2.878,0,0,0,4.236,1.734l.034-.02L29.684,32,24.074,25.9" transform="translate(-3.356 -6.474)" fill="#eb3131"/>
    <path id="path39" d="M38.312,22.332l-.01-.007-5.174-3L27.3,24.513l5.849,5.848L38.3,27.391a2.877,2.877,0,0,0,.017-5.059" transform="translate(-6.824 -4.831)" fill="#f6b60b"/>
    <path id="path41" d="M13.393,12.37a2.818,2.818,0,0,0-.1.74V33.078a2.78,2.78,0,0,0,.1.739L24.407,22.806,13.394,12.37" transform="translate(-3.323 -3.092)" fill="#5778c5"/>
    <path id="path43" d="M24.152,22.382l5.511-5.509-11.97-6.94a2.881,2.881,0,0,0-4.265,1.723.009.009,0,0,0,0,0L24.152,22.382" transform="translate(-3.356 -2.38)" fill="#3bad49"/>
    <path id="path33" d="M61.179,12.064H58.261v.722h2.186a2.01,2.01,0,0,1-.689,1.388,2.242,2.242,0,0,1-1.5.5A2.269,2.269,0,0,1,56.6,14a2.386,2.386,0,0,1-.672-1.723A2.386,2.386,0,0,1,56.6,10.55a2.268,2.268,0,0,1,1.664-.68,2.383,2.383,0,0,1,.95.184,1.836,1.836,0,0,1,.714.53l.555-.555a2.5,2.5,0,0,0-.966-.664,3.3,3.3,0,0,0-1.253-.236,3.1,3.1,0,0,0-3.127,3.144,3.1,3.1,0,0,0,3.127,3.144,2.886,2.886,0,0,0,2.211-.891,2.726,2.726,0,0,0,.748-2.009,2.965,2.965,0,0,0-.042-.453Zm1.13-2.8v6.019h3.514v-.739H63.082V12.634h2.472v-.722H63.082V10h2.741V9.264ZM70.75,10V9.264H66.614V10H68.3v5.278h.773V10Zm3.744-.741h-.773v6.019h.773ZM79.6,10V9.264H75.464V10h1.681v5.278h.773V10Zm7.8.042a3.114,3.114,0,0,0-4.4-.009,3.035,3.035,0,0,0-.891,2.236A3.035,3.035,0,0,0,83,14.509a3.125,3.125,0,0,0,4.4,0,3.035,3.035,0,0,0,.891-2.236A3.026,3.026,0,0,0,87.4,10.047Zm-3.85.5A2.216,2.216,0,0,1,85.2,9.87a2.186,2.186,0,0,1,1.639.68,2.34,2.34,0,0,1,.664,1.723A2.338,2.338,0,0,1,86.842,14a2.187,2.187,0,0,1-1.639.681A2.217,2.217,0,0,1,83.554,14a2.384,2.384,0,0,1-.655-1.723A2.386,2.386,0,0,1,83.554,10.55Zm6.578.984L90.1,10.373h.033l3.059,4.909H94V9.264h-.773v3.522l.033,1.161h-.033L90.3,9.264h-.942v6.019h.773Z" transform="translate(-13.782 -2.282)" fill="#fff" stroke="#fff" stroke-width="0.267"/>
  </g>
</svg>
