<svg xmlns="http://www.w3.org/2000/svg" xmlns:xlink="http://www.w3.org/1999/xlink" width="62" height="58" viewBox="0 0 62 58">
  <defs>
    <clipPath id="clip-path">
      <rect id="Rectangle_9816" data-name="Rectangle 9816" width="62" height="58" rx="3" transform="translate(315 720)" fill="#fff"/>
    </clipPath>
  </defs>
  <g id="Group_40208" data-name="Group 40208" transform="translate(-315 -720)">
    <g id="Mask_Group_62" data-name="Mask Group 62" clip-path="url(#clip-path)">
      <g id="noun-jpg-5435880" transform="translate(325.618 723.64)">
        <path id="Path_2097" data-name="Path 2097" d="M46.2,47.642,35.577,36.587a1.033,1.033,0,0,0-.743-.317.906.906,0,0,0-.752.308l-6.758,6.881L23.7,39.728a1.087,1.087,0,0,0-1.495,0l-7.736,7.9a1.05,1.05,0,0,0-.208,1.132,1.033,1.033,0,0,0,.96.643H45.451A1.041,1.041,0,0,0,46.2,47.6Zm-23.281-5.7,4.466,4.527.8.815H17.64Zm8.153,5.378-2.319-2.372,6.1-6.148L43,47.325Z" transform="translate(-9.943 -7.039)" fill="#a3a3a3"/>
        <path id="Path_2098" data-name="Path 2098" d="M24.23,36.941a3.441,3.441,0,1,1,3.432-3.432A3.441,3.441,0,0,1,24.23,36.941Zm0-4.79a1.358,1.358,0,1,0,1.349,1.358,1.358,1.358,0,0,0-1.349-1.358Z" transform="translate(-10.562 -6.456)" fill="#a3a3a3"/>
        <path id="Path_2099" data-name="Path 2099" d="M11.5,51.973a2.717,2.717,0,0,0,2.717,2.716h31.7a2.717,2.717,0,0,0,2.717-2.716V23H11.5Z" transform="translate(-9.689 -5.78)" fill="none"/>
        <path id="Path_2100" data-name="Path 2100" d="M19.782,12.172V7.41L12.91,14.282h4.382A2.46,2.46,0,0,0,19.782,12.172Z" transform="translate(-9.823 -4.323)" fill="none"/>
        <path id="Path_2101" data-name="Path 2101" d="M36.383,12.855a.77.77,0,0,0,.217-.589.788.788,0,0,0-.217-.589.905.905,0,0,0-.661-.208H34.88v1.566h.842a.905.905,0,0,0,.661-.181Z" transform="translate(-11.891 -4.706)" fill="#a3a3a3"/>
        <path id="Path_2102" data-name="Path 2102" d="M45.731,4H20L9.5,14.5V50.191a4.529,4.529,0,0,0,4.529,4.529h31.7a4.529,4.529,0,0,0,4.529-4.529V8.529A4.529,4.529,0,0,0,45.731,4Zm-8.994,6.983a2.926,2.926,0,0,1,1.15-1.15,3.623,3.623,0,0,1,3.623.136A2.627,2.627,0,0,1,42.561,11.5H40.813a1.159,1.159,0,0,0-.5-.48,1.712,1.712,0,0,0-1.956.326,1.811,1.811,0,0,0-.453,1.313,1.911,1.911,0,0,0,.471,1.377,1.739,1.739,0,0,0,1.313.489,1.531,1.531,0,0,0,.96-.29,1.676,1.676,0,0,0,.58-.833H39.264V12.26h3.369V13.7a2.934,2.934,0,0,1-.589,1.078A2.98,2.98,0,0,1,41,15.584a3.216,3.216,0,0,1-1.431.308,3.433,3.433,0,0,1-1.685-.408,3.052,3.052,0,0,1-1.15-1.15,3.378,3.378,0,0,1-.408-1.676,3.4,3.4,0,0,1,.408-1.676Zm-5.8-1.494h2.509a2.908,2.908,0,0,1,1.286.263,1.911,1.911,0,0,1,.788.725,2.21,2.21,0,0,1,0,2.074,1.911,1.911,0,0,1-.779.734,2.717,2.717,0,0,1-1.3.281h-.951v2.282H30.94Zm-4.022,4.23a.951.951,0,0,0,.163.607.562.562,0,0,0,.471.2.534.534,0,0,0,.435-.181.788.788,0,0,0,.154-.525V9.489H29.69v4.329a2.038,2.038,0,0,1-.571,1.549,2.1,2.1,0,0,1-1.522.543,2.246,2.246,0,0,1-1.612-.571,2.1,2.1,0,0,1-.634-1.621Zm-7.455-6.63v4.764a2.461,2.461,0,0,1-2.491,2.11H12.589Zm28.985,43.1a2.717,2.717,0,0,1-2.717,2.717h-31.7a2.717,2.717,0,0,1-2.717-2.717V21.209H48.448Z" transform="translate(-9.5 -4)" fill="#a3a3a3"/>
      </g>
    </g>
  </g>
</svg>
