<svg xmlns="http://www.w3.org/2000/svg" width="190.921" height="185.506" viewBox="0 0 190.921 185.506">
  <g id="Group_1" data-name="Group 1" transform="translate(-189.02 -115.514)">
    <path id="Path_3" data-name="Path 3" d="M232.381,301.02V177.914h-40.9V301.02ZM211.939,161.077a22.782,22.782,0,1,0-.274,0Z" transform="translate(0 0)" fill="#989898" fill-rule="evenodd"/>
    <path id="Path_4" data-name="Path 4" d="M195.23,247.38h40.908V178.636a27.485,27.485,0,0,1,1.352-9.99,22.359,22.359,0,0,1,20.979-14.965c14.834,0,20.734,11.285,20.734,27.843V247.38h40.925V176.793c0-37.827-20.2-55.411-47.115-55.411a40.771,40.771,0,0,0-37.148,20.734h.274V124.274H195.23c.571,11.542,0,123.106,0,123.106Z" transform="translate(59.813 53.64)" fill="#989898" fill-rule="evenodd"/>
  </g>
</svg>
