<svg xmlns="http://www.w3.org/2000/svg" width="200.007" height="163.391" viewBox="0 0 200.007 163.391">
  <g id="Group_13" data-name="Group 13" transform="translate(0 -20.93)">
    <path id="Path_136" data-name="Path 136" d="M109.343,63.453c3.458-2.978,15.011-6.739,19.8-6.818A19.344,19.344,0,0,1,149.19,76.07c0,19.512-20.591,38.712-25.857,57.518l-3.143,1.176" transform="translate(-20.69 -11.256)" fill="#1b1b1b"/>
    <path id="Path_137" data-name="Path 137" d="M118.043,135.55C110.734,116.038,98,101.54,98,81.323a20.677,20.677,0,0,1,20.042-20.531,19.343,19.343,0,0,1,20.041,19.434C138.084,99.738,123.387,116.821,118.043,135.55Z" transform="translate(-18.544 -12.043)" fill="#fff"/>
    <path id="Path_138" data-name="Path 138" d="M117.894,135.386c.078,0,.314-.47.628-1.489a14.7,14.7,0,0,1,.707-1.88c.315-.705.629-1.567,1.022-2.508,1.571-3.84,4.086-9.168,7.544-15.83,1.651-3.291,3.537-6.974,5.345-11.049A77.524,77.524,0,0,0,137.7,89.151a16,16,0,0,0,.393-1.881c.079-.627.157-1.254.236-1.959a14.852,14.852,0,0,0,.235-1.959c0-.627.079-1.332.079-1.959a20.132,20.132,0,0,0-1.179-8.228,19.531,19.531,0,0,0-4.637-7.288,19.984,19.984,0,0,0-7.545-4.78,20.739,20.739,0,0,0-7.152-1.175,22.738,22.738,0,0,0-7.152,1.411A21.344,21.344,0,0,0,98.717,73.4a21.075,21.075,0,0,0-1.493,8.15c.079,1.332.079,2.664.236,3.918s.236,2.586.472,3.84a61.617,61.617,0,0,0,4.087,13.635c1.729,4.075,3.537,7.758,5.265,11.128,3.458,6.582,6.209,11.911,7.938,15.672.471.941.786,1.724,1.179,2.508.315.705.55,1.332.786,1.8a10.354,10.354,0,0,0,.708,1.332c.078,0-.079-.549-.472-1.567a14.658,14.658,0,0,0-.707-1.881c-.315-.705-.629-1.567-1.022-2.508-1.571-3.84-4.244-9.246-7.544-15.908-1.651-3.37-3.459-6.974-5.109-11.049a61.985,61.985,0,0,1-3.851-13.4c-.236-1.175-.314-2.429-.472-3.683-.079-1.254-.079-2.508-.157-3.84a21.033,21.033,0,0,1,1.414-7.6,20.159,20.159,0,0,1,11.475-11.206,19.33,19.33,0,0,1,6.6-1.254,19.029,19.029,0,0,1,13.675,5.485,19.4,19.4,0,0,1,4.323,6.739,18.453,18.453,0,0,1,1.1,7.68c0,.627-.079,1.254-.079,1.959a15.359,15.359,0,0,1-.236,1.881l-.236,1.881a12.135,12.135,0,0,1-.393,1.8,71.546,71.546,0,0,1-4.322,13.321c-1.729,4.075-3.537,7.68-5.187,11.049a166.537,166.537,0,0,0-7.152,16.065l-.864,2.586c-.236.784-.393,1.411-.551,1.959C117.972,134.837,117.894,135.386,117.894,135.386Z" transform="translate(-18.395 -11.878)" fill="#1b1b1b"/>
    <path id="Path_139" data-name="Path 139" d="M114.341,79.875a10.454,10.454,0,0,0-2.672,6.818,8.67,8.67,0,0,0,9.038,8.7,9.335,9.335,0,0,0,9.039-9.247c0-4.937-4.009-9.56-9.039-9.4a7.214,7.214,0,0,0-3.379.862" transform="translate(-21.13 -15.061)" fill="#fff"/>
    <path id="Path_140" data-name="Path 140" d="M117.1,77.6c.079.157.708-.157,1.887-.313a8.017,8.017,0,0,1,4.794.705,8.82,8.82,0,0,1,4.558,5.485,7.969,7.969,0,0,1,.236,4.31,8.516,8.516,0,0,1-2.122,4.075,10.821,10.821,0,0,1-1.415,1.254,12.154,12.154,0,0,1-1.729.94,8.323,8.323,0,0,1-4.558.47,8.769,8.769,0,0,1-3.851-1.8,8.077,8.077,0,0,1-2.279-3.135,8.411,8.411,0,0,1-.628-3.291,10.007,10.007,0,0,1,1.257-4.78c.551-1.019.944-1.567.865-1.724-.079-.078-.629.313-1.415,1.332a10.07,10.07,0,0,0-1.808,5.094,9.674,9.674,0,0,0,.551,3.84,9.254,9.254,0,0,0,6.995,5.877,10.032,10.032,0,0,0,5.423-.548,6.971,6.971,0,0,0,1.965-1.1,15.7,15.7,0,0,0,1.729-1.489,10.194,10.194,0,0,0,2.436-4.858,9.456,9.456,0,0,0-.393-4.937,9.748,9.748,0,0,0-5.423-6.034,7.809,7.809,0,0,0-5.423-.313C117.648,77.053,117.1,77.445,117.1,77.6Z" transform="translate(-20.978 -14.982)" fill="#1b1b1b"/>
    <path id="Path_141" data-name="Path 141" d="M124.114,95.41a8.238,8.238,0,1,0-10.86-4.839A8.384,8.384,0,0,0,124.114,95.41Z" transform="translate(-21.34 -15.566)" fill="#b1d5f8"/>
    <path id="Path_142" data-name="Path 142" d="M125.293,85.026c-.864-.549-2.2.94-3.773,2.9l-.236.313-.236.313c-1.493,1.959-2.672,3.526-1.965,4.31.628.705,2.515-.313,4.322-2.429l.236-.313.236-.392C125.45,87.534,126.078,85.418,125.293,85.026Z" transform="translate(-22.493 -16.608)" fill="#1b1b1b"/>
    <path id="Path_143" data-name="Path 143" d="M125.634,92.063c.629-.784-.628-2.351-2.593-4-.079-.078-.236-.157-.315-.235a1.086,1.086,0,0,0-.315-.235c-2.043-1.567-3.851-2.429-4.48-1.646-.629.705.628,2.351,2.594,4,.079.078.235.157.314.235a1.086,1.086,0,0,0,.315.235C123.2,91.906,125.084,92.768,125.634,92.063Z" transform="translate(-22.284 -16.749)" fill="#1b1b1b"/>
    <path id="Path_144" data-name="Path 144" d="M213.529,117.319a.9.9,0,0,0,.786.079,2.534,2.534,0,0,1,1.1-.079.813.813,0,0,1,.628.47v.392a5.841,5.841,0,0,1-.314.862c-.079.156-.157.235-.236.392s-.157.235-.236.392l-.079.157-.079.078-.079-.078c-.079-.157-.236-.235-.314-.392-.157-.235-.315-.392-.393-.548a1.5,1.5,0,0,1-.315-.94c-.236-.314-.315-.627-.471-.784s-.472-.156-.865.157a2.141,2.141,0,0,0-.628,1.959,3.2,3.2,0,0,0,.392,1.411,2.343,2.343,0,0,1,.315.627l.079.156.157.235a2.08,2.08,0,0,0,.393.47,2.362,2.362,0,0,0,2.2.862,2.674,2.674,0,0,0,1.179-.548c.157-.157.393-.314.55-.47l.236-.235.157-.156a4.387,4.387,0,0,0,.472-.628c.157-.235.235-.47.392-.705a5.6,5.6,0,0,0,.551-1.959,3.666,3.666,0,0,0-.551-2.194,3.021,3.021,0,0,0-3.3-1.176,2.69,2.69,0,0,0-1.572,1.254C213.293,116.849,213.293,117.162,213.529,117.319Z" transform="translate(-54.668 -33.89)" fill="#1b1b1b"/>
    <path id="Path_145" data-name="Path 145" d="M40.529,63.319a.9.9,0,0,0,.786.078,2.53,2.53,0,0,1,1.1-.078.815.815,0,0,1,.629.47v.392a5.933,5.933,0,0,1-.314.862c-.079.157-.157.235-.236.392s-.157.235-.236.392l-.079.157-.079.078-.079-.078c-.079-.157-.236-.235-.314-.392-.157-.235-.314-.392-.393-.548A1.5,1.5,0,0,1,41,64.1c-.236-.313-.236-.627-.472-.784-.157-.157-.472-.157-.864.157a2.14,2.14,0,0,0-.629,1.959,3.186,3.186,0,0,0,.393,1.411,2.341,2.341,0,0,1,.314.627l.079.157.157.235a2.078,2.078,0,0,0,.393.47,2.364,2.364,0,0,0,2.2.862,2.676,2.676,0,0,0,1.179-.549c.157-.157.393-.313.55-.47l.236-.235.157-.157a4.356,4.356,0,0,0,.472-.627c.157-.235.236-.47.393-.705a5.608,5.608,0,0,0,.55-1.959,3.669,3.669,0,0,0-.55-2.194,3.02,3.02,0,0,0-3.3-1.175,2.689,2.689,0,0,0-1.572,1.254C40.293,62.849,40.372,63.162,40.529,63.319Z" transform="translate(-7.379 -12.084)" fill="#b1d5f8"/>
    <path id="Path_146" data-name="Path 146" d="M195.645,87.6a.9.9,0,0,0,.786.078,2.528,2.528,0,0,1,1.1-.078.815.815,0,0,1,.628.47v.392a5.939,5.939,0,0,1-.315.862c-.079.157-.156.235-.235.392s-.157.235-.236.392l-.079.157-.079.078-.079-.078c-.079-.157-.236-.235-.315-.392-.157-.235-.314-.392-.392-.549a1.5,1.5,0,0,1-.315-.94c-.236-.313-.236-.627-.472-.784-.157-.157-.471-.157-.864.157a2.142,2.142,0,0,0-.629,1.959,3.184,3.184,0,0,0,.393,1.411,2.344,2.344,0,0,1,.315.627l.079.157.157.235a2.075,2.075,0,0,0,.392.47,2.365,2.365,0,0,0,2.2.862,2.679,2.679,0,0,0,1.179-.548c.156-.157.392-.313.55-.47l.236-.235.157-.157a4.285,4.285,0,0,0,.471-.627c.157-.235.236-.47.393-.705a5.605,5.605,0,0,0,.551-1.959,3.667,3.667,0,0,0-.551-2.194,3.02,3.02,0,0,0-3.3-1.175,2.69,2.69,0,0,0-1.572,1.254C195.409,87.134,195.488,87.448,195.645,87.6Z" transform="translate(-39.259 -52.576)" fill="#a8a8a8"/>
    <path id="Path_147" data-name="Path 147" d="M235.37,65.571c-.708-.705-2.279.235-4.008,1.881l-.236.235-.236.235c-1.571,1.724-2.593,3.213-1.886,4,.629.627,2.279-.235,4.009-1.881l.236-.235.235-.235C235.134,67.843,236.077,66.2,235.37,65.571Z" transform="translate(-43.288 -12.904)" fill="#b1d5f8"/>
    <path id="Path_148" data-name="Path 148" d="M121.175,114.97c-.943-.392-1.493-.156-1.886.47v.078a.077.077,0,0,1-.079.079c-.236.627,0,1.253.943,1.646a1.414,1.414,0,0,0,1.887-.47v-.079a.077.077,0,0,1,.078-.079A1.369,1.369,0,0,0,121.175,114.97Z" transform="translate(-22.541 -22.259)" fill="#a8a8a8"/>
    <path id="Path_149" data-name="Path 149" d="M58.8,105.505c-.707.705-.707,1.332-.314,1.8l.079.078.079.079c.472.392,1.1.392,1.808-.314.629-.627.707-1.332.314-1.8l-.079-.078-.079-.079C60.138,104.8,59.509,104.8,58.8,105.505Z" transform="translate(-11.017 -20.396)" fill="#a8a8a8"/>
    <path id="Path_151" data-name="Path 151" d="M136.082,28.033c-.707-.705-1.651-.392-2.436.313-.079,0-.079.078-.079.157-.079,0-.079.078-.157.078-.707.784-1.022,1.724-.314,2.429.628.627,1.571.392,2.436-.313a.274.274,0,0,0,.078-.157c.079,0,.079-.078.157-.078C136.475,29.6,136.789,28.659,136.082,28.033Z" transform="translate(-25.109 -5.77)" fill="#a8a8a8"/>
    <path id="Path_152" data-name="Path 152" d="M251.809,110.854a1.558,1.558,0,0,0-2.279.157l-.079.078-.079.079a1.547,1.547,0,0,0-.156,2.273,1.628,1.628,0,0,0,2.279-.156l.079-.079.079-.079C252.281,112.344,252.438,111.482,251.809,110.854Z" transform="translate(-52.202 -8.807)" fill="#a8a8a8"/>
    <path id="Path_153" data-name="Path 153" d="M175.252,27.423c-.707-.705-1.1-.94-1.258-.94-.079.157.157.47.943,1.254a3.314,3.314,0,0,0,1.258.94C176.2,28.52,175.959,28.128,175.252,27.423Z" transform="translate(-32.92 -5.552)" fill="#a8a8a8"/>
    <path id="Path_155" data-name="Path 155" d="M86.845,132.358c0-.157-1.336.078-3.773.548-1.258.235-2.751.549-4.558.941-1.729.392-3.772.784-6.052,1.253-2.515-.783-5.266-1.645-8.409-2.586-3.3-1.018-6.995-2.116-10.924-3.291-6.6,6.5-14.383,14.262-23.185,22.882C20.906,161.038,10.846,170.99,0,181.8c9.038,4.7,18.469,9.56,28.294,14.653,14.3-3.134,29.472-6.425,45.27-9.874,2.672,1.567,5.5,3.213,8.331,4.859,4.794,2.742,9.431,5.485,14.147,8.149l6.445,3.762,9.588-3.84c8.409-3.37,16.583-6.661,24.6-9.8q22.516,7.994,42.833,15.2c-4.322-24.763-8.095-46.862-11.317-65.355-9.9-2.978-18.706-5.564-26.329-7.837-5.265,1.254-9.981,2.351-14.068,3.292-1.965.47-3.851.941-5.5,1.332s-3.066.783-4.4,1.1c-1.179-.392-2.279-.705-3.222-.941a24.331,24.331,0,0,1-2.436-.705,7.627,7.627,0,0,0-2.043-.392,6.733,6.733,0,0,0,1.886.862q.944.353,2.358.941c.943.392,2.122.784,3.379,1.253,2.751-.548,6.209-1.253,10.3-2.037,3.93-.784,8.567-1.8,13.675-2.822,7.074,2.194,15.169,4.78,24.364,7.68,2.751,16.848,6.052,36.909,9.746,59.4-12.417-4.467-25.622-9.168-39.375-14.105-8.331,3.292-16.9,6.739-25.7,10.187l-8.173,3.291-5.187-2.977c-4.716-2.743-9.352-5.407-14.147-8.229-3.144-1.8-6.287-3.683-9.353-5.407-15.8,3.527-31.044,6.9-45.348,10.031C20.2,189.171,12.1,185.017,4.4,181.1c9.824-9.952,18.941-19.121,27.036-27.427,8.331-8.542,15.8-16.065,22.085-22.49,7.466,2.038,13.754,3.761,18.784,5.172,2.358-.627,4.48-1.176,6.287-1.646,1.729-.47,3.3-.862,4.48-1.253A22.369,22.369,0,0,0,86.845,132.358Z" transform="translate(0 -24.993)" fill="#1b1b1b"/>
    <path id="Path_156" data-name="Path 156" d="M35.176,196.5c.865.627,9.981-11.049,21.456-26.409.55-.783,1.179-1.567,1.729-2.273.55-.783,1.1-1.489,1.729-2.272,11.4-15.516,19.884-27.584,19.02-28.211-.786-.548-9.981,11.049-21.456,26.409-.55.783-1.179,1.567-1.729,2.272-.55.784-1.1,1.489-1.729,2.273C42.8,183.806,34.39,195.952,35.176,196.5Z" transform="translate(-6.646 -26.524)" fill="#1b1b1b"/>
    <path id="Path_157" data-name="Path 157" d="M90.988,187.411c.943.392,4.873-8.619,9.51-20.453.236-.627.472-1.176.707-1.8.236-.548.472-1.175.708-1.8,4.558-11.911,7.7-21.158,6.68-21.471-.864-.314-4.873,8.62-9.51,20.453-.236.627-.471,1.176-.707,1.8-.236.548-.472,1.176-.708,1.8C93.188,177.851,90.123,187.1,90.988,187.411Z" transform="translate(-17.189 -27.386)" fill="#1b1b1b"/>
    <path id="Path_158" data-name="Path 158" d="M126.461,203.852c1.022.235,4.48-12.459,8.488-28.994.236-.863.393-1.646.628-2.508.236-.784.393-1.646.629-2.508,3.93-16.613,6.6-29.465,5.58-29.7-.943-.235-4.48,12.46-8.488,28.994-.235.862-.392,1.646-.628,2.508-.236.783-.393,1.646-.629,2.508C128.191,190.687,125.6,203.618,126.461,203.852Z" transform="translate(-23.897 -27.058)" fill="#1b1b1b"/>
    <path id="Path_159" data-name="Path 159" d="M16.241,200.643l-3.3,3.761a7.574,7.574,0,0,0,5.423,12.538l155.379,5.407c7.388.235,10.767-9.168,4.873-13.557l1.179,7.132-41.1-14.654-34.031,13.556L75.894,198.135l-45.27,9.952Z" transform="translate(-2.095 -38.032)" fill="#1b1b1b"/>
    <path id="Path_160" data-name="Path 160" d="M6.884,191.491c-.629-.783-1.257-.862-1.65-.548l-.079.078-.079.079c-.393.392-.393,1.019.314,1.724.629.705,1.257.784,1.65.549l.079-.079.079-.078C7.512,192.823,7.512,192.2,6.884,191.491Z" transform="translate(-0.911 -36.639)" fill="#1b1b1b"/>
    <path id="Path_161" data-name="Path 161" d="M14.647,185.982c-.472-.941-1.415-.862-2.358-.313l-.157.078-.157.079c-.865.627-1.336,1.411-.786,2.194a1.707,1.707,0,0,0,2.358.314l.157-.079.157-.079C14.647,187.628,15.119,186.844,14.647,185.982Z" transform="translate(-2.073 -35.596)" fill="#1b1b1b"/>
    <path id="Path_162" data-name="Path 162" d="M23.528,181.984c-.314-.94-1.258-1.018-2.279-.7l-.157.078-.157.079c-.943.47-1.572,1.176-1.1,2.115a1.713,1.713,0,0,0,2.279.705l.157-.078.157-.079A1.771,1.771,0,0,0,23.528,181.984Z" transform="translate(-3.723 -34.811)" fill="#1b1b1b"/>
    <path id="Path_163" data-name="Path 163" d="M32.913,179.046c-.236-1.019-1.1-1.176-2.2-.94l-.157.079H30.4c-1.022.313-1.65.94-1.336,1.959a1.72,1.72,0,0,0,2.2.94l.157-.079h.157C32.52,180.691,33.148,179.987,32.913,179.046Z" transform="translate(-5.484 -34.224)" fill="#1b1b1b"/>
    <path id="Path_164" data-name="Path 164" d="M42.5,177.077c-.157-1.019-1.022-1.254-2.043-1.176h-.314c-1.022.235-1.729.784-1.572,1.8.157.941,1.022,1.253,2.043,1.176h.314C41.955,178.645,42.662,178.018,42.5,177.077Z" transform="translate(-7.295 -33.822)" fill="#1b1b1b"/>
    <path id="Path_165" data-name="Path 165" d="M52.3,175.884c-.079-1.018-.943-1.332-1.965-1.332h-.314c-1.022.156-1.808.627-1.65,1.646.079.94.943,1.332,1.965,1.332h.314C51.588,177.373,52.374,176.825,52.3,175.884Z" transform="translate(-9.148 -33.57)" fill="#1b1b1b"/>
    <path id="Path_166" data-name="Path 166" d="M62.072,175.461c0-1.018-.786-1.41-1.886-1.489h-.314c-1.022.079-1.808.548-1.808,1.567.079.941.864,1.411,1.886,1.489h.314C61.286,176.871,62.072,176.4,62.072,175.461Z" transform="translate(-10.987 -33.46)" fill="#1b1b1b"/>
    <path id="Path_167" data-name="Path 167" d="M71.881,175.732c.079-1.018-.707-1.489-1.729-1.567h-.314c-1.022,0-1.886.392-1.886,1.411,0,.94.707,1.489,1.729,1.567h.314C71.017,177.064,71.8,176.673,71.881,175.732Z" transform="translate(-12.858 -33.496)" fill="#1b1b1b"/>
    <path id="Path_168" data-name="Path 168" d="M81.67,176.756c.157-1.018-.55-1.567-1.572-1.724h-.314c-1.022-.079-1.886.235-2.043,1.254-.079.94.629,1.489,1.651,1.724h.314C80.648,178.01,81.513,177.7,81.67,176.756Z" transform="translate(-14.709 -33.658)" fill="#1b1b1b"/>
    <path id="Path_169" data-name="Path 169" d="M91.262,178.568c.157-1.018-.472-1.567-1.493-1.8h-.314c-1.022-.156-1.886.156-2.122,1.1-.157.941.472,1.567,1.493,1.8h.314C90.241,179.822,91.105,179.509,91.262,178.568Z" transform="translate(-16.52 -33.981)" fill="#1b1b1b"/>
    <path id="Path_170" data-name="Path 170" d="M100.957,179.946c.079-1.019-.708-1.489-1.651-1.724h-.314c-1.022-.079-1.808.313-1.965,1.332-.157.941.629,1.489,1.651,1.724h.314C100.092,181.279,100.879,180.887,100.957,179.946Z" transform="translate(-18.355 -34.262)" fill="#1b1b1b"/>
    <path id="Path_171" data-name="Path 171" d="M110.734,179.5c-.236-1.018-1.1-1.176-2.043-1.176h-.315c-.943.157-1.651.628-1.651,1.646.079.941.865,1.411,2.044,1.332h.314C110.262,181.064,110.969,180.358,110.734,179.5Z" transform="translate(-20.194 -34.283)" fill="#1b1b1b"/>
    <path id="Path_172" data-name="Path 172" d="M119.642,175.475a1.7,1.7,0,0,0-2.279-.314l-.157.079-.157.079c-.786.548-1.336,1.176-.864,2.115.393.862,1.336.94,2.358.47l.157-.078.157-.079C119.8,177.2,120.193,176.259,119.642,175.475Z" transform="translate(-21.951 -33.63)" fill="#1b1b1b"/>
    <path id="Path_173" data-name="Path 173" d="M125.989,168.053a1.807,1.807,0,0,0-2.122.863l-.079.156-.079.079a1.685,1.685,0,0,0,.236,2.272c.707.628,1.65.235,2.358-.7l.079-.157.079-.156C127.011,169.385,126.854,168.367,125.989,168.053Z" transform="translate(-23.347 -32.321)" fill="#1b1b1b"/>
    <path id="Path_174" data-name="Path 174" d="M125.952,158.644a1.821,1.821,0,0,0-.628,1.019,2.227,2.227,0,0,0,0,1.018v.157a1.764,1.764,0,0,0,1.65,1.489c.944,0,1.493-.862,1.258-2.194v-.079l-.078-.156a2.63,2.63,0,0,0-1.022-1.332A.953.953,0,0,0,125.952,158.644Z" transform="translate(-23.702 -30.513)" fill="#1b1b1b"/>
    <path id="Path_175" data-name="Path 175" d="M117.929,159.571a1.728,1.728,0,0,0,2.122-.313l.079-.079.079-.079a3.472,3.472,0,0,0,.628-.862,1.51,1.51,0,0,0,0-1.176,1.093,1.093,0,0,0-.943-.783,2.105,2.105,0,0,0-1.651.549l-.156.156-.157.156C117.143,158,117.143,159.18,117.929,159.571Z" transform="translate(-22.203 -30.109)" fill="#1b1b1b"/>
    <path id="Path_176" data-name="Path 176" d="M119.3,168.437c.708-.705.472-1.489.079-2.273l-.079-.078-.079-.079a1.852,1.852,0,0,0-2.043-.941,1.2,1.2,0,0,0-.864.862,2.359,2.359,0,0,0,.315,1.567l.079.157.078.156C117.652,168.828,118.673,169.063,119.3,168.437Z" transform="translate(-22.004 -31.764)" fill="#1b1b1b"/>
    <path id="Path_177" data-name="Path 177" d="M127.455,173.674c.393-.94-.157-1.646-1.022-2.116l-.157-.078-.157-.079a1.6,1.6,0,0,0-2.279.549c-.472.783,0,1.645.943,2.194.079,0,.079.079.157.079l.157.078C126.2,174.615,127.141,174.536,127.455,173.674Z" transform="translate(-23.398 -32.927)" fill="#1b1b1b"/>
    <path id="Path_178" data-name="Path 178" d="M137,175.558c-.079-1.018-.864-1.332-1.729-1.489h-.315c-.943,0-1.729.235-1.965,1.253-.157.941.55,1.567,1.729,1.724h.315C136.212,177.046,137.076,176.5,137,175.558Z" transform="translate(-25.16 -33.478)" fill="#1b1b1b"/>
    <path id="Path_179" data-name="Path 179" d="M145.806,171.638c-.708-.783-1.572-.47-2.28,0l-.078.079-.079.078c-.629.628-1.1,1.254-.629,2.195a1.387,1.387,0,0,0,1.022.705,2.387,2.387,0,0,0,1.493-.47l.157-.079.157-.079C146.2,173.2,146.434,172.264,145.806,171.638Z" transform="translate(-26.973 -32.928)" fill="#1b1b1b"/>
    <path id="Path_180" data-name="Path 180" d="M153.8,166.287c-.157-1.019-1.179-1.253-2.358-.862l-.157.078-.157.079a2.458,2.458,0,0,0-1.1,1.1,1.241,1.241,0,0,0,.157,1.254,1.608,1.608,0,0,0,1.022.627,3.084,3.084,0,0,0,1.179-.156l.079-.079.157-.079C153.332,167.776,153.961,167.228,153.8,166.287Z" transform="translate(-28.369 -31.809)" fill="#1b1b1b"/>
    <path id="Path_181" data-name="Path 181" d="M163.419,167.448c.392-.941-.236-1.646-1.258-2.038l-.157-.079-.157-.078c-1.1-.235-2.043,0-2.2,1.018-.157.941.471,1.489,1.336,1.881h.157l.157.078A1.653,1.653,0,0,0,163.419,167.448Z" transform="translate(-30.203 -31.795)" fill="#1b1b1b"/>
    <path id="Path_182" data-name="Path 182" d="M172,172.164c.551-.862.079-1.645-.707-2.273l-.157-.078-.157-.079c-.943-.47-1.887-.548-2.358.314a1.6,1.6,0,0,0,.786,2.194l.157.079.157.078A1.548,1.548,0,0,0,172,172.164Z" transform="translate(-31.868 -32.593)" fill="#1b1b1b"/>
    <path id="Path_183" data-name="Path 183" d="M180.657,176.605c.315-1.019-.236-1.567-1.1-2.037l-.157-.079-.157-.079c-.943-.313-1.807-.313-2.279.549s.079,1.646,1.022,2.194l.157.079.157.078C179.4,177.7,180.342,177.545,180.657,176.605Z" transform="translate(-33.452 -33.507)" fill="#1b1b1b"/>
    <path id="Path_184" data-name="Path 184" d="M190.239,176.761a1.888,1.888,0,0,0-2.044-.862h-.314c-.865.235-1.572.627-1.572,1.646,0,.94.864,1.489,2.122,1.332h.315a2.114,2.114,0,0,0,1.336-.862A1.228,1.228,0,0,0,190.239,176.761Z" transform="translate(-35.253 -33.82)" fill="#1b1b1b"/>
    <path id="Path_185" data-name="Path 185" d="M195.517,168.844c-1.022-.157-1.571.469-1.886,1.332v.156l-.079.156a1.64,1.64,0,0,0,.707,2.116c.786.47,1.729-.157,2.123-1.254l.078-.156.079-.156C196.774,169.941,196.382,169,195.517,168.844Z" transform="translate(-36.602 -32.485)" fill="#1b1b1b"/>
    <path id="Path_186" data-name="Path 186" d="M196.587,159.087c-1.022-.079-1.493.705-1.651,1.724v.314c0,1.018.315,1.88,1.336,1.959.943.079,1.493-.705,1.651-1.724v-.314C198,160.027,197.53,159.165,196.587,159.087Z" transform="translate(-36.885 -30.642)" fill="#1b1b1b"/>
    <path id="Path_187" data-name="Path 187" d="M198.553,149.579c-.864-.47-1.729.156-2.122,1.253l-.079.157-.079.156c-.236,1.1,0,2.037,1.022,2.194a1.711,1.711,0,0,0,1.887-1.332v-.156l.079-.157A1.641,1.641,0,0,0,198.553,149.579Z" transform="translate(-37.122 -28.814)" fill="#1b1b1b"/>
    <path id="Path_188" data-name="Path 188" d="M204.325,145.165c-.156-1.018-.707-1.332-1.335-1.253h-.157c-.629.234-.865.862-.393,1.8.472.862.943,1.1,1.336,1.1h.157C204.168,146.653,204.4,146.105,204.325,145.165Z" transform="translate(-38.258 -27.77)" fill="#1b1b1b"/>
  </g>
</svg>
