<svg xmlns="http://www.w3.org/2000/svg" width="56" height="56" viewBox="0 0 56 56">
  <g id="Locations" transform="translate(-376 -246)">
    <rect id="Rectangle_7018" data-name="Rectangle 7018" width="56" height="56" rx="6" transform="translate(376 246)" fill="#e2edf8"/>
    <path id="Path_84727" data-name="Path 84727" d="M4.374,7.819l8.2-3.643V31.669l-6.5,2.887a2.1,2.1,0,0,1-2.95-1.921V9.74A2.108,2.108,0,0,1,4.374,7.819Zm10.3,23.787,8.4,3.349V7.5l-8.4-3.349ZM33.662,4.712a2.106,2.106,0,0,0-1.995-.157l-6.5,2.887V34.934l8.2-3.643a2.108,2.108,0,0,0,1.249-1.921V6.475a2.1,2.1,0,0,0-.955-1.764Z" transform="translate(384.876 254.845)" fill="#006dd5"/>
  </g>
</svg>
