<svg xmlns="http://www.w3.org/2000/svg" width="896.31" height="680.845" viewBox="0 0 896.31 680.845">
  <g id="Group_1143" data-name="Group 1143" transform="translate(-1504.103 -2513.486)">
    <g id="Group_1113" data-name="Group 1113" transform="translate(256 1465.852)">
      <g id="Group_1080" data-name="Group 1080" transform="translate(1278.103 1047.634)">
        <g id="Group_38832" data-name="Group 38832" transform="translate(0 0)">
          <path id="Path_95222" data-name="Path 95222" d="M313.558,411.173a95.086,95.086,0,1,1,95.086-95.086A95.086,95.086,0,0,1,313.558,411.173Zm0-186.211a91.124,91.124,0,1,0,91.125,91.124A91.124,91.124,0,0,0,313.558,224.962Z" transform="translate(-248.472 269.672)" fill="#c1e1ff"/>
          <path id="Path_95223" data-name="Path 95223" d="M631.428,366.913a62.956,62.956,0,1,1,62.956-62.956A62.956,62.956,0,0,1,631.428,366.913Zm0-120.666a57.71,57.71,0,1,0,57.71,57.71A57.71,57.71,0,0,0,631.428,246.246Z" transform="translate(171.925 -241)" fill="#c1e1ff"/>
          <path id="Path_95224" data-name="Path 95224" d="M762.572,408.2a28.1,28.1,0,1,1,28.1-28.1A28.1,28.1,0,0,1,762.572,408.2Zm0-54.118A26.018,26.018,0,1,0,788.59,380.1,26.018,26.018,0,0,0,762.572,354.081Z" transform="translate(-700.485 -324.143)" fill="#c1e1ff"/>
        </g>
        <g id="Group_1079" data-name="Group 1079" transform="translate(51.921 43.501)">
          <path id="Path_95239" data-name="Path 95239" d="M567.481,629.144l-11.763-4.38-8.072-52.141H440.185l-8.744,51.93-10.523,4.652a2.137,2.137,0,0,0-1.313,2.483,2.456,2.456,0,0,0,2.43,1.7H566.51a2.443,2.443,0,0,0,2.446-1.773,2.166,2.166,0,0,0-1.477-2.473Z" transform="translate(-105.158 -33.304)" fill="#e6e6e6"/>
          <path id="Path_95240" data-name="Path 95240" d="M1020.521,630.026H272.263a14.806,14.806,0,0,1-14.791-14.787V510H1035.3V615.241a14.806,14.806,0,0,1-14.791,14.786Z" transform="translate(-257.347 -78.613)" fill="#ccc"/>
          <g id="Group_1077" data-name="Group 1077">
            <g id="Group_1078" data-name="Group 1078">
              <g id="Group_931" data-name="Group 931" transform="translate(0 0)">
                <rect id="Rectangle_372" data-name="Rectangle 372" width="777.834" height="433.313" rx="23" transform="translate(0.186 43.276)" fill="#fff"/>
                <g id="Group_894" data-name="Group 894" transform="translate(0 0)">
                  <g id="Group_893" data-name="Group 893">
                    <path id="Rectangle_366" data-name="Rectangle 366" d="M0,0H15.1V439.395H0Z" transform="translate(137.954 39.65)" fill="#e6e6e6"/>
                    <g id="Group_892" data-name="Group 892">
                      <path id="Rectangle_365" data-name="Rectangle 365" d="M18.881,17.775V474.6H759.016V17.775H18.881M18.881,0H759.016C769.444,0,777.9,7.958,777.9,17.775l.207,474.6c0,4.359-.192-.352,0,0H18.881c-10.428,0,13.051-.15-19,0L0,17.775C0,7.958,8.453,0,18.881,0Z" transform="translate(0.123)" fill="#403d56"/>
                    </g>
                    <rect id="Rectangle_367" data-name="Rectangle 367" width="90.236" height="10.828" rx="4" transform="translate(32.671 68.542)" fill="#e6e6e6"/>
                    <rect id="Rectangle_368" data-name="Rectangle 368" width="90.236" height="12.633" rx="4" transform="translate(32.671 90.199)" fill="#e6e6e6"/>
                    <rect id="Rectangle_369" data-name="Rectangle 369" width="90.236" height="12.633" rx="4" transform="translate(32.671 113.66)" fill="#e6e6e6"/>
                    <rect id="Rectangle_370" data-name="Rectangle 370" width="90.236" height="12.633" rx="4" transform="translate(32.671 137.12)" fill="#e6e6e6"/>
                    <rect id="Rectangle_371" data-name="Rectangle 371" width="90.236" height="10.828" rx="4" transform="translate(32.671 443.862)" fill="#e6e6e6"/>
                  </g>
                </g>
              </g>
            </g>
          </g>
        </g>
        <path id="Path_1874" data-name="Path 1874" d="M0,0H740.34V36.524H0Z" transform="translate(70.897 61.366)" fill="#036dd5"/>
        <g id="Group_1081" data-name="Group 1081" transform="translate(87.786 72.065)">
          <ellipse id="Ellipse_8" data-name="Ellipse 8" cx="5.906" cy="6.563" rx="5.906" ry="6.563" transform="translate(0 0)" fill="#fff"/>
          <ellipse id="Ellipse_9" data-name="Ellipse 9" cx="6.563" cy="6.563" rx="6.563" ry="6.563" transform="translate(19.688 0)" fill="#fff"/>
          <ellipse id="Ellipse_10" data-name="Ellipse 10" cx="6.563" cy="6.563" rx="6.563" ry="6.563" transform="translate(40.689 0)" fill="#fff"/>
        </g>
      </g>
    </g>
    <g id="Group_1115" data-name="Group 1115" transform="translate(-533.118 1342)">
      <path id="Rectangle_417" data-name="Rectangle 417" d="M4.419,6V376.95H558.991V6H4.419M0,0H563.41V382.946H0Z" transform="translate(2294.192 1289.414)" fill="#e6e6e6"/>
      <g id="Group_1019" data-name="Group 1019" transform="translate(2310.374 1488.487)">
        <g id="Group_1016" data-name="Group 1016" transform="translate(42.888 0.355)">
          <rect id="Rectangle_375" data-name="Rectangle 375" width="53.043" height="4.973" transform="translate(0 0)" fill="#036dd5"/>
        </g>
        <g id="Group_1017" data-name="Group 1017" transform="translate(42.996 18.92)">
          <rect id="Rectangle_376" data-name="Rectangle 376" width="351.168" height="2.189" fill="#bcbcbc"/>
        </g>
        <g id="Group_1018" data-name="Group 1018" transform="translate(42.996 10.848)">
          <rect id="Rectangle_377" data-name="Rectangle 377" width="351.168" height="2.189" fill="#bcbcbc"/>
        </g>
        <rect id="Rectangle_417-2" data-name="Rectangle 417" width="34.39" height="28.791" rx="2" transform="translate(0)" fill="#e6e6e6"/>
      </g>
      <g id="Group_1144" data-name="Group 1144" transform="translate(2310.374 1304.486)">
        <g id="Group_1016-2" data-name="Group 1016" transform="translate(42.888 0.355)">
          <rect id="Rectangle_375-2" data-name="Rectangle 375" width="53.043" height="4.973" transform="translate(0 0)" fill="#036dd5"/>
        </g>
        <g id="Group_1017-2" data-name="Group 1017" transform="translate(42.996 18.92)">
          <rect id="Rectangle_376-2" data-name="Rectangle 376" width="351.168" height="2.189" fill="#bcbcbc"/>
        </g>
        <g id="Group_1018-2" data-name="Group 1018" transform="translate(42.996 10.848)">
          <rect id="Rectangle_377-2" data-name="Rectangle 377" width="351.168" height="2.189" fill="#bcbcbc"/>
        </g>
        <rect id="Rectangle_417-3" data-name="Rectangle 417" width="34.39" height="28.791" rx="2" transform="translate(0 0)" fill="#e6e6e6"/>
      </g>
      <g id="Group_1020" data-name="Group 1020" transform="translate(2310.374 1534.486)">
        <g id="Group_1016-3" data-name="Group 1016" transform="translate(42.888 0.355)">
          <rect id="Rectangle_375-3" data-name="Rectangle 375" width="53.043" height="4.973" transform="translate(0 0)" fill="#9acdff"/>
        </g>
        <g id="Group_1017-3" data-name="Group 1017" transform="translate(42.996 18.92)">
          <rect id="Rectangle_376-3" data-name="Rectangle 376" width="351.168" height="2.189" fill="#bcbcbc"/>
        </g>
        <g id="Group_1018-3" data-name="Group 1018" transform="translate(42.996 10.848)">
          <rect id="Rectangle_377-3" data-name="Rectangle 377" width="351.168" height="2.189" fill="#bcbcbc"/>
        </g>
        <rect id="Rectangle_417-4" data-name="Rectangle 417" width="34.39" height="28.791" rx="2" transform="translate(0 0)" fill="#e6e6e6"/>
      </g>
      <g id="Group_1145" data-name="Group 1145" transform="translate(2310.374 1350.486)">
        <g id="Group_1016-4" data-name="Group 1016" transform="translate(42.888 0.355)">
          <rect id="Rectangle_375-4" data-name="Rectangle 375" width="53.043" height="4.973" transform="translate(0 0)" fill="#9acdff"/>
        </g>
        <g id="Group_1017-4" data-name="Group 1017" transform="translate(42.996 18.92)">
          <rect id="Rectangle_376-4" data-name="Rectangle 376" width="351.168" height="2.189" fill="#bcbcbc"/>
        </g>
        <g id="Group_1018-4" data-name="Group 1018" transform="translate(42.996 10.848)">
          <rect id="Rectangle_377-4" data-name="Rectangle 377" width="351.168" height="2.189" fill="#bcbcbc"/>
        </g>
        <rect id="Rectangle_417-5" data-name="Rectangle 417" width="34.39" height="28.791" rx="2" transform="translate(0 0)" fill="#e6e6e6"/>
      </g>
      <g id="Group_1021" data-name="Group 1021" transform="translate(2310.374 1579.486)">
        <g id="Group_1016-5" data-name="Group 1016" transform="translate(42.888 0.355)">
          <rect id="Rectangle_375-5" data-name="Rectangle 375" width="53.043" height="4.973" transform="translate(0 0)" fill="#036dd5"/>
        </g>
        <g id="Group_1017-5" data-name="Group 1017" transform="translate(42.996 18.92)">
          <rect id="Rectangle_376-5" data-name="Rectangle 376" width="351.168" height="2.189" fill="#bcbcbc"/>
        </g>
        <g id="Group_1018-5" data-name="Group 1018" transform="translate(42.996 10.848)">
          <rect id="Rectangle_377-5" data-name="Rectangle 377" width="351.168" height="2.189" fill="#bcbcbc"/>
        </g>
        <rect id="Rectangle_417-6" data-name="Rectangle 417" width="34.39" height="28.791" rx="2" transform="translate(0 0)" fill="#e6e6e6"/>
      </g>
      <g id="Group_1146" data-name="Group 1146" transform="translate(2310.374 1396.486)">
        <g id="Group_1016-6" data-name="Group 1016" transform="translate(42.888 0.355)">
          <rect id="Rectangle_375-6" data-name="Rectangle 375" width="53.043" height="4.973" transform="translate(0 0)" fill="#036dd5"/>
        </g>
        <g id="Group_1017-6" data-name="Group 1017" transform="translate(42.996 18.92)">
          <rect id="Rectangle_376-6" data-name="Rectangle 376" width="351.168" height="2.189" fill="#bcbcbc"/>
        </g>
        <g id="Group_1018-6" data-name="Group 1018" transform="translate(42.996 10.848)">
          <rect id="Rectangle_377-6" data-name="Rectangle 377" width="351.168" height="2.189" fill="#bcbcbc"/>
        </g>
        <rect id="Rectangle_417-7" data-name="Rectangle 417" width="34.39" height="28.791" rx="2" transform="translate(0 0)" fill="#e6e6e6"/>
      </g>
      <g id="Group_1022" data-name="Group 1022" transform="translate(2310.374 1627.486)">
        <g id="Group_1016-7" data-name="Group 1016" transform="translate(42.888 0.354)">
          <rect id="Rectangle_375-7" data-name="Rectangle 375" width="53.043" height="4.973" transform="translate(0 0)" fill="#9acdff"/>
        </g>
        <g id="Group_1017-7" data-name="Group 1017" transform="translate(42.996 18.92)">
          <rect id="Rectangle_376-7" data-name="Rectangle 376" width="351.168" height="2.189" fill="#bcbcbc"/>
        </g>
        <g id="Group_1018-7" data-name="Group 1018" transform="translate(42.996 10.848)">
          <rect id="Rectangle_377-7" data-name="Rectangle 377" width="351.168" height="2.189" fill="#bcbcbc"/>
        </g>
        <rect id="Rectangle_417-8" data-name="Rectangle 417" width="34.39" height="28.791" rx="2" transform="translate(0 0)" fill="#e6e6e6"/>
      </g>
      <g id="Group_1147" data-name="Group 1147" transform="translate(2310.374 1442.486)">
        <g id="Group_1016-8" data-name="Group 1016" transform="translate(42.888 0.354)">
          <rect id="Rectangle_375-8" data-name="Rectangle 375" width="53.043" height="4.973" transform="translate(0 0)" fill="#9acdff"/>
        </g>
        <g id="Group_1017-8" data-name="Group 1017" transform="translate(42.996 18.92)">
          <rect id="Rectangle_376-8" data-name="Rectangle 376" width="351.168" height="2.189" fill="#bcbcbc"/>
        </g>
        <g id="Group_1018-8" data-name="Group 1018" transform="translate(42.996 10.848)">
          <rect id="Rectangle_377-8" data-name="Rectangle 377" width="351.168" height="2.189" fill="#bcbcbc"/>
        </g>
        <rect id="Rectangle_417-9" data-name="Rectangle 417" width="34.39" height="28.791" rx="2" transform="translate(0 0)" fill="#e6e6e6"/>
      </g>
    </g>
    <line id="Line_142" data-name="Line 142" x2="559" transform="translate(1765.473 2683.986)" fill="none" stroke="#e6e6e6" stroke-width="1"/>
    <line id="Line_143" data-name="Line 143" x2="559" transform="translate(1765.473 2729.986)" fill="none" stroke="#e6e6e6" stroke-width="1"/>
    <line id="Line_144" data-name="Line 144" x2="559" transform="translate(1765.473 2775.986)" fill="none" stroke="#e6e6e6" stroke-width="1"/>
    <line id="Line_145" data-name="Line 145" x2="559" transform="translate(1765.473 2821.986)" fill="none" stroke="#e6e6e6" stroke-width="1"/>
    <line id="Line_146" data-name="Line 146" x2="559" transform="translate(1765.473 2867.986)" fill="none" stroke="#e6e6e6" stroke-width="1"/>
    <line id="Line_147" data-name="Line 147" x2="559" transform="translate(1765.473 2913.986)" fill="none" stroke="#e6e6e6" stroke-width="1"/>
    <line id="Line_148" data-name="Line 148" x2="559" transform="translate(1765.473 2959.986)" fill="none" stroke="#e6e6e6" stroke-width="1"/>
    <rect id="Rectangle_452" data-name="Rectangle 452" width="58" height="8" transform="translate(2261.973 2636.486)" fill="#9acdff"/>
    <rect id="Rectangle_460" data-name="Rectangle 460" width="23.362" height="5.5" transform="translate(2296.61 2677.486)" fill="#403d56"/>
    <rect id="Rectangle_453" data-name="Rectangle 453" width="58" height="8" transform="translate(2261.973 2684.486)" fill="#9acdff"/>
    <rect id="Rectangle_461" data-name="Rectangle 461" width="23.362" height="5.5" transform="translate(2296.61 2725.486)" fill="#403d56"/>
    <rect id="Rectangle_454" data-name="Rectangle 454" width="58" height="8" transform="translate(2261.973 2730.486)" fill="#9acdff"/>
    <rect id="Rectangle_462" data-name="Rectangle 462" width="23.362" height="5.5" transform="translate(2296.61 2771.486)" fill="#403d56"/>
    <rect id="Rectangle_455" data-name="Rectangle 455" width="58" height="8" transform="translate(2261.973 2776.486)" fill="#9acdff"/>
    <rect id="Rectangle_463" data-name="Rectangle 463" width="23.362" height="5.5" transform="translate(2296.61 2817.486)" fill="#403d56"/>
    <rect id="Rectangle_456" data-name="Rectangle 456" width="58" height="8" transform="translate(2261.973 2822.486)" fill="#9acdff"/>
    <rect id="Rectangle_464" data-name="Rectangle 464" width="23.362" height="5.5" transform="translate(2296.61 2863.486)" fill="#403d56"/>
    <rect id="Rectangle_457" data-name="Rectangle 457" width="58" height="8" transform="translate(2261.973 2868.486)" fill="#9acdff"/>
    <rect id="Rectangle_465" data-name="Rectangle 465" width="23.362" height="5.5" transform="translate(2296.61 2909.486)" fill="#403d56"/>
    <rect id="Rectangle_458" data-name="Rectangle 458" width="58" height="8" transform="translate(2261.973 2914.486)" fill="#9acdff"/>
    <rect id="Rectangle_466" data-name="Rectangle 466" width="23.362" height="5.5" transform="translate(2296.61 2955.486)" fill="#403d56"/>
    <rect id="Rectangle_459" data-name="Rectangle 459" width="58" height="8" transform="translate(2261.973 2960.486)" fill="#9acdff"/>
    <rect id="Rectangle_467" data-name="Rectangle 467" width="23.362" height="5.5" transform="translate(2296.61 3001.486)" fill="#403d56"/>
  </g>
</svg>
