<svg xmlns="http://www.w3.org/2000/svg" width="39.04" height="39.04" viewBox="0 0 39.04 39.04">
  <g id="noun-easy-setup-6244190" transform="translate(-2.484 -2.483)" opacity="0.73">
    <path id="Path_2063" data-name="Path 2063" d="M18.166,2.734a.4.4,0,0,0-.395.395V6.9a15.693,15.693,0,0,0-3.452,1.429L11.656,5.66a.4.4,0,0,0-.558,0l-5.43,5.425a.4.4,0,0,0,0,.558l2.663,2.665A15.691,15.691,0,0,0,6.9,17.771H3.128a.4.4,0,0,0-.395.395v7.676a.4.4,0,0,0,.395.395H6.9a15.694,15.694,0,0,0,1.429,3.452L5.66,32.351a.4.4,0,0,0,0,.558l5.425,5.43a.4.4,0,0,0,.558,0l2.665-2.663a15.691,15.691,0,0,0,3.462,1.435v3.768a.4.4,0,0,0,.395.395h7.676a.4.4,0,0,0,.395-.395V37.111a15.693,15.693,0,0,0,3.452-1.429l2.664,2.665a.4.4,0,0,0,.558,0l5.43-5.425a.4.4,0,0,0,0-.558L35.676,29.7a15.691,15.691,0,0,0,1.435-3.462h3.768a.4.4,0,0,0,.395-.395V18.166a.4.4,0,0,0-.395-.395H37.111a15.692,15.692,0,0,0-1.429-3.452l2.665-2.664a.4.4,0,0,0,0-.558l-5.425-5.43a.4.4,0,0,0-.558,0L29.7,8.331A15.691,15.691,0,0,0,26.236,6.9V3.128a.4.4,0,0,0-.395-.395Zm.395.789h6.886V7.179q0,.016,0,.032h0q0,.016,0,.032h0q0,.016.007.032l0,.01.007.022q.005.015.012.03h0q.007.015.015.029h0l.017.028a.4.4,0,0,0,.041.052l.024.023,0,0,.021.018h0a.4.4,0,0,0,.056.035l.016.008.014.007.032.012.022.006A14.915,14.915,0,0,1,29.576,9.15l.029.015.03.013h0l.031.011L29.7,9.2l.032.005.034,0a.4.4,0,0,0,.13-.019l.031-.012a.392.392,0,0,0,.136-.093l2.579-2.577,4.867,4.872-2.578,2.576-.008.008h0l-.022.024-.02.026h0l-.019.027s0,0,0,0l-.015.029q-.007.015-.013.031t-.011.031s0,0,0,0-.006.021-.008.032,0,.022-.005.033a.4.4,0,0,0,0,.1q0,.016.006.032t.008.032h0a.394.394,0,0,0,.036.081,14.913,14.913,0,0,1,1.583,3.824q0,.016.01.032t.012.031a.389.389,0,0,0,.123.154l.027.019a.4.4,0,0,0,.059.031l.031.012h0l.032.008.032.006a.394.394,0,0,0,.056,0h3.657v6.886H36.828a.4.4,0,0,0-.142.027l-.018.007h0l-.015.007a.386.386,0,0,0-.095.066l-.023.024,0,0-.018.021s0,0,0,0a.4.4,0,0,0-.035.056l-.008.016-.007.014h0q-.006.015-.012.031l-.006.022a14.915,14.915,0,0,1-1.589,3.834.4.4,0,0,0-.029.059h0q-.006.015-.011.031t-.008.032q0,.016-.005.032s0,0,0,0a.4.4,0,0,0,0,.066h0q0,.016,0,.032h0q0,.016.006.032s0,0,0,0a.4.4,0,0,0,.02.062h0q.006.015.014.029l.016.029.018.027.022.026.015.016.008.008L37.5,32.643,32.63,37.51l-2.576-2.578-.008-.008h0l-.024-.022h0L30,34.881h0a.4.4,0,0,0-.056-.034h0a.394.394,0,0,0-.061-.024h0l-.032-.008h0l-.032-.005a.4.4,0,0,0-.066,0l-.033,0-.032.006a.4.4,0,0,0-.093.034l-.02.011a14.913,14.913,0,0,1-3.824,1.583l-.032.01a.4.4,0,0,0-.06.027l-.029.017a.4.4,0,0,0-.052.042l-.023.024a.4.4,0,0,0-.039.052h0a.387.387,0,0,0-.059.187q0,.011,0,.022s0,.007,0,.011v3.646H18.56V36.829q0-.017,0-.034t0-.032h0q0-.016-.007-.032h0q0-.016-.01-.031h0q-.005-.015-.012-.03h0l-.007-.015-.008-.015-.017-.028a.4.4,0,0,0-.041-.052h0l-.023-.022h0l-.025-.021h0a.4.4,0,0,0-.056-.035h0l-.029-.014h0l-.031-.012-.022-.006a14.913,14.913,0,0,1-3.834-1.589.418.418,0,0,0-.156-.052h0a.4.4,0,0,0-.254.058l-.027.019-.026.022-.016.015-.008.008L11.364,37.5,6.5,32.63l2.578-2.576.008-.008s0,0,0,0l.022-.024L9.126,30l.019-.027h0l.015-.029h0a.394.394,0,0,0,.024-.061h0q0-.016.008-.032h0q0-.016.005-.032t0-.033a.4.4,0,0,0-.019-.13s0,0,0,0-.007-.021-.012-.031-.009-.02-.014-.03l-.011-.02a14.914,14.914,0,0,1-1.583-3.824q0-.016-.01-.032a.4.4,0,0,0-.027-.061l-.017-.028s0,0,0,0a.4.4,0,0,0-.091-.1l-.027-.019h0l-.029-.016-.03-.014L7.3,25.465h0a.4.4,0,0,0-.13-.018H3.523V18.56H7.179a.4.4,0,0,0,.142-.027l.019-.007h0l.015-.007a.386.386,0,0,0,.095-.066h0l.022-.023h0l.021-.025s0,0,0,0l.018-.027.017-.029q.008-.014.014-.029h0l0-.008q.007-.018.012-.036l0-.008A14.915,14.915,0,0,1,9.15,14.43l.015-.029q.007-.015.013-.03s0,0,0,0a.4.4,0,0,0,.024-.1s0,0,0,0,0-.022,0-.032h0q0-.016,0-.032h0q0-.016,0-.032h0q0-.016-.006-.032h0q0-.016-.008-.032t-.012-.032-.014-.029h0a.4.4,0,0,0-.035-.056h0L9.1,13.967l-.015-.016-.008-.008L6.5,11.364,11.377,6.5l2.576,2.578.008.008h0l.024.022.026.02.028.019h0l.029.015.031.013.031.011h0l.032.008a.4.4,0,0,0,.066.008h.033l.032,0a.4.4,0,0,0,.1-.026l.03-.014.02-.011a14.913,14.913,0,0,1,3.824-1.583l.032-.01a.4.4,0,0,0,.141-.086l.023-.024a.4.4,0,0,0,.04-.053l.016-.029q.008-.015.014-.03t.012-.031s0,0,0,0,.006-.021.008-.032A.394.394,0,0,0,18.56,7.2q0-.017,0-.033ZM22,12.2A9.8,9.8,0,1,0,31.8,22,9.806,9.806,0,0,0,22,12.2Zm0,.789A9.01,9.01,0,1,1,12.993,22,9,9,0,0,1,22,12.993Zm5.475,4.532a.4.4,0,0,0-.291.116l-7.6,7.6-2.753-3a.395.395,0,0,0-.582.534l3.032,3.307a.395.395,0,0,0,.571.012L27.746,18.2a.395.395,0,0,0-.268-.674Zm6.705,5.083a.4.4,0,0,0-.395.395A10.779,10.779,0,0,1,23,33.788a.395.395,0,0,0,0,.789A11.58,11.58,0,0,0,34.578,23,.4.4,0,0,0,34.183,22.609Z" transform="translate(0)" fill="#006dd5" stroke="#006dd5" stroke-width="0.5"/>
  </g>
</svg>
