<svg xmlns="http://www.w3.org/2000/svg" width="180.787" height="164" viewBox="0 0 180.787 164">
  <g id="_03" data-name="03" transform="translate(-11.523 -10.506)">
    <path id="Path_1773" data-name="Path 1773" d="M175.341,194.418c.167-.151-.834-.7-2.67-1.606a91.4,91.4,0,0,0-8.426-3.563c-3.672-1.405-8.177-3.061-13.434-4.616-5.173-1.656-11.18-3.262-17.6-4.717-1.335-.3-2.586-.6-3.838-.853-1.335-.251-2.586-.552-3.922-.8-6.591-1.305-12.849-2.309-18.605-3.061-2.837-.4-5.59-.653-8.177-.954-2.586-.251-4.922-.452-7.092-.6-4.339-.3-7.843-.452-10.262-.452s-3.755.05-3.755.2,1.252.351,3.671.6,5.84.6,10.1,1c2.086.251,4.422.5,6.925.8,2.5.351,5.174.653,8.01,1.1q8.51,1.2,18.273,3.161c1.335.251,2.586.5,3.838.8s2.5.552,3.838.853c6.341,1.455,12.264,2.961,17.437,4.516,5.256,1.505,9.763,3.011,13.517,4.266,3.755,1.3,6.758,2.358,8.844,3.061A11.853,11.853,0,0,0,175.341,194.418Z" transform="translate(-7.284 -19.931)" fill="#1b1b1b"/>
    <path id="Path_1774" data-name="Path 1774" d="M13.2,17.86a1.108,1.108,0,0,0,.918.083,5.681,5.681,0,0,1,1.252-.167,1.055,1.055,0,0,1,.834.583,1.314,1.314,0,0,1,0,.583,7,7,0,0,1-.334,1,1.823,1.823,0,0,1-.25.417,1.461,1.461,0,0,1-.334.417l-.25.25-.083.083h-.083l-.25-.167c-.167-.167-.25-.333-.334-.417a4.627,4.627,0,0,0-.5-.667,2.016,2.016,0,0,1-.334-1.083c0-.417,0-.75-.25-.917-.167-.167-.5-.083-.918.25a2.694,2.694,0,0,0-.751,2.25,5.053,5.053,0,0,0,.417,1.5,2.5,2.5,0,0,1,.334.667c.083.083.167.25.25.333a2.214,2.214,0,0,0,.417.5,2.839,2.839,0,0,0,2.5,1.083,2.892,2.892,0,0,0,1.335-.667l.584-.583.334-.417c.167-.167.334-.5.5-.667a3.376,3.376,0,0,0,.417-.75,6.422,6.422,0,0,0,.584-2.167,3.564,3.564,0,0,0-.667-2.417,3.184,3.184,0,0,0-3.671-1.25,2.859,2.859,0,0,0-1.752,1.417A.841.841,0,0,0,13.2,17.86Z" transform="translate(0 -2.52)" fill="#1b1b1b"/>
    <path id="Path_1775" data-name="Path 1775" d="M155.184,118.458a1.1,1.1,0,0,0,.917.084,5.667,5.667,0,0,1,1.252-.166,1.056,1.056,0,0,1,.835.583,1.313,1.313,0,0,1,0,.584,7.1,7.1,0,0,1-.334,1,1.812,1.812,0,0,1-.251.416,1.446,1.446,0,0,1-.334.417l-.25.25-.084.083h-.084l-.166-.25c-.167-.166-.251-.333-.334-.416a4.6,4.6,0,0,0-.5-.666,2.02,2.02,0,0,1-.334-1.084c-.084-.334-.084-.666-.334-.834-.167-.166-.5-.083-.918.25a2.694,2.694,0,0,0-.751,2.25,5.07,5.07,0,0,0,.417,1.5,2.49,2.49,0,0,1,.334.667c.084.083.167.25.251.333a2.181,2.181,0,0,0,.416.5,2.839,2.839,0,0,0,2.5,1.084,2.9,2.9,0,0,0,1.335-.666l.585-.584.334-.416c.166-.167.334-.5.5-.667a3.365,3.365,0,0,0,.416-.75,6.406,6.406,0,0,0,.585-2.166,3.564,3.564,0,0,0-.667-2.416,3.183,3.183,0,0,0-3.672-1.25,2.856,2.856,0,0,0-1.752,1.416A.839.839,0,0,0,155.184,118.458Z" transform="translate(-15.661 -13.617)" fill="#a8a8a8"/>
    <path id="Path_1776" data-name="Path 1776" d="M194.946,82.865a1.109,1.109,0,0,0,.918.083,5.674,5.674,0,0,1,1.251-.167,1.055,1.055,0,0,1,.835.583,1.311,1.311,0,0,1,0,.583,6.967,6.967,0,0,1-.334,1,1.854,1.854,0,0,1-.25.417,1.475,1.475,0,0,1-.334.417l-.251.25-.084.083h-.083l-.167-.25c-.166-.167-.25-.333-.334-.417a4.627,4.627,0,0,0-.5-.667,2.018,2.018,0,0,1-.334-1.083c-.084-.417-.084-.75-.334-.833-.166-.167-.5-.083-.917.25a2.693,2.693,0,0,0-.751,2.25,5.041,5.041,0,0,0,.416,1.5,2.492,2.492,0,0,1,.335.667c.083.083.166.25.25.333a2.207,2.207,0,0,0,.417.5,2.838,2.838,0,0,0,2.5,1.083,2.892,2.892,0,0,0,1.335-.667l.584-.583.334-.417c.167-.167.334-.5.5-.667a3.405,3.405,0,0,0,.417-.75,6.429,6.429,0,0,0,.584-2.167,3.562,3.562,0,0,0-.667-2.417,3.184,3.184,0,0,0-3.671-1.25,2.861,2.861,0,0,0-1.753,1.417A.843.843,0,0,0,194.946,82.865Z" transform="translate(-8.659 -9.691)" fill="#1b1b1b"/>
    <path id="Path_1777" data-name="Path 1777" d="M108.6,119.4a1.4,1.4,0,0,0-2,.584,22.963,22.963,0,0,0-.167.166,1.336,1.336,0,0,0,.918,1.834,1.446,1.446,0,0,0,2-.584v-.084a.081.081,0,0,1,.084-.083A1.313,1.313,0,0,0,108.6,119.4Z" transform="translate(-10.457 -13.978)" fill="#a8a8a8"/>
    <path id="Path_1778" data-name="Path 1778" d="M43.537,92.376a1.394,1.394,0,0,0-.25,2l.083.083.083.083a1.4,1.4,0,0,0,2-.25,1.464,1.464,0,0,0,.25-2l-.083-.083-.083-.083C44.956,91.626,44.288,91.626,43.537,92.376Z" transform="translate(-3.469 -10.951)" fill="#a8a8a8"/>
    <path id="Path_1779" data-name="Path 1779" d="M64.475,2.529c-.5,0-.918.5-1.085,1.167a6.691,6.691,0,0,0,.334,2.75l.083.333.167.333a5.913,5.913,0,0,0,1.669,2.167c.584.417,1.168.5,1.585.083.751-.667.25-2-.334-3.583l-.083-.25-.083-.25C66.061,3.779,65.477,2.529,64.475,2.529Z" transform="translate(-0.754 11.305)" fill="#a8a8a8"/>
    <path id="Path_1780" data-name="Path 1780" d="M110.933,8.285c-.751-.75-1.752-.417-2.67.417l-.166.167-.167.167c-.834.917-1.168,1.917-.417,2.667.668.667,1.753.417,2.67-.417l.167-.167.166-.167C111.35,10.035,111.6,9.035,110.933,8.285Z" transform="translate(-10.542 8.553)" fill="#a8a8a8"/>
    <path id="Path_1781" data-name="Path 1781" d="M173.793,20.2c-.751-.75-1.168-1-1.335-1-.084.167.166.5,1,1.333.667.667,1.168,1,1.335.917A6.655,6.655,0,0,0,173.793,20.2Z" transform="translate(-17.75 -2.946)" fill="#a8a8a8"/>
    <path id="Path_1782" data-name="Path 1782" d="M116.745,195.921c.5,1,2.754.333,5.59-.667.167-.083.25-.083.417-.166s.25-.084.417-.166c2.754-1.084,4.923-2,4.672-3.084-.25-1-2.753-.917-5.756.084-.167.083-.334.083-.417.166-.167.084-.334.084-.417.166C118.163,193.421,116.244,195,116.745,195.921Z" transform="translate(-11.598 -21.91)" fill="#1b1b1b"/>
    <path id="Path_1783" data-name="Path 1783" d="M114.4,195.091c.417,1,2.67.5,5.507-.5.166-.084.25-.084.417-.167s.25-.083.417-.166c2.753-1.084,4.755-2.25,4.422-3.25-.334-.916-2.67-.75-5.59.25-.167.084-.251.084-.417.166s-.251.084-.417.167C115.9,192.757,113.987,194.174,114.4,195.091Z" transform="translate(-11.342 -21.83)" fill="#1b1b1b"/>
    <path id="Path_1784" data-name="Path 1784" d="M112.059,194.609c.5,1,2.754.334,5.59-.666.167-.084.25-.084.417-.166s.25-.084.417-.167c2.754-1.083,4.923-2,4.673-3.083-.251-1-2.754-.917-5.757.083-.167.084-.334.084-.417.167-.167.083-.334.083-.417.166C113.561,192.109,111.642,193.776,112.059,194.609Z" transform="translate(-11.083 -21.765)" fill="#1b1b1b"/>
    <path id="Path_1785" data-name="Path 1785" d="M109.716,193.779c.417,1,2.67.5,5.507-.5.166-.084.25-.084.417-.166s.25-.084.417-.167c2.753-1.083,4.755-2.25,4.422-3.25-.334-.916-2.67-.75-5.59.25-.167.084-.251.084-.417.167s-.251.083-.417.166C111.218,191.445,109.383,192.863,109.716,193.779Z" transform="translate(-10.827 -21.685)" fill="#1b1b1b"/>
    <path id="Path_1786" data-name="Path 1786" d="M130.447,106.024s3.755.333,3.755,6.167c0,5.916,2.586,50.418.25,57.085a35.778,35.778,0,0,0-2.086,12.168c4.923-.5,5.507-1.417,5.507-1.417l.084-76.335Z" transform="translate(-13.118 -12.265)" fill="#d3d3d3"/>
    <path id="Path_1787" data-name="Path 1787" d="M126.883,106.524l.918,73.169a2.427,2.427,0,0,0,3.17,2.333l4.088-1.083a3.478,3.478,0,0,0,2.587-3.334V103.69" transform="translate(-12.724 -12.265)" fill="#fff"/>
    <path id="Path_1788" data-name="Path 1788" d="M137.452,103.69c-.585,0-.918,8-1.168,21.334-.251,13.25-.417,31.751-.417,52.668a1.637,1.637,0,0,1-.751,1.416c-.084.084-.25.166-.334.25a.292.292,0,0,0-.167.084h-.084l-.166.083-1.5.417-1.5.416-.751.166-.167.084h-.25a.908.908,0,0,1-.835-.584c-.166-10.25-.334-19.917-.5-28.667-.166-8.917-.334-16.834-.584-23.418-.417-13.25-.918-21.25-1.418-21.25s-.751,8.084-.918,21.334c-.084,6.667-.084,14.584,0,23.5,0,4.416.084,9.167.084,14,0,2.417,0,4.917.084,7.5v7.417a2.449,2.449,0,0,0,.166.75,4.136,4.136,0,0,0,4.005,2.75,1.832,1.832,0,0,0,.667-.084l.334-.084.167-.083.751-.167,1.5-.416,1.5-.416.166-.084.251-.084a1.192,1.192,0,0,1,.5-.166,6.248,6.248,0,0,0,1-.584,5.216,5.216,0,0,0,2-4c0-20.917-.166-39.417-.417-52.668C138.369,111.69,137.952,103.69,137.452,103.69Z" transform="translate(-12.613 -12.265)" fill="#1b1b1b"/>
    <path id="Path_1789" data-name="Path 1789" d="M127.83,184.054l-6.675-2.417a3.3,3.3,0,0,1-2.42-3.166l-.667-69.419,7.843-2.084Z" transform="translate(-11.752 -12.627)" fill="#1b1b1b"/>
    <path id="Path_1790" data-name="Path 1790" d="M58.8,92.618v-23c0-12.084,5.34-23.334,14.184-25.751,13.183-3.583,28.618,12,28.618,37.251" transform="translate(-5.215 -5.61)" fill="#b1d5f8"/>
    <path id="Path_1791" data-name="Path 1791" d="M101.53,104.421c.584,0,.917-6.584,1.168-17.417,0-2.75.166-5.667.084-9a54,54,0,0,0-1.335-10.5,45.884,45.884,0,0,0-4.088-11.084,32.309,32.309,0,0,0-8.177-10.084,20.9,20.9,0,0,0-4.672-2.917,19,19,0,0,0-5.34-1.667,16.1,16.1,0,0,0-6.925.417,15.231,15.231,0,0,0-5.924,3.25A23.763,23.763,0,0,0,59.646,55.5,38.1,38.1,0,0,0,57.476,65.92c0,.417-.083.833-.083,1.25v3.583c0,1.5.083,2.917.083,4.25.25,10.834.667,17.417,1.168,17.417S59.562,85.837,59.812,75c.083-2.667,0-5.75.334-8.834A33.967,33.967,0,0,1,62.4,56.586a21.441,21.441,0,0,1,6.007-8.75,13.242,13.242,0,0,1,4.756-2.583,13.918,13.918,0,0,1,5.59-.333,17.1,17.1,0,0,1,4.422,1.417,20.091,20.091,0,0,1,4,2.5A29.683,29.683,0,0,1,94.6,57.919,46.407,46.407,0,0,1,98.61,68.253a54.043,54.043,0,0,1,1.5,9.917c.166,3.083.166,6.167.25,8.834C100.612,97.837,101.029,104.421,101.53,104.421Z" transform="translate(-5.06 -5.412)" fill="#1b1b1b"/>
    <path id="Path_1792" data-name="Path 1792" d="M58.8,98.693c-.334,1.083,8.177,3.917,19.357,7.083.584.167,1.085.334,1.669.5s1.085.334,1.669.5c11.18,3.084,19.941,5.084,20.191,4,.25-1-8.177-3.833-19.357-7.083-.584-.167-1.085-.334-1.669-.5s-1.085-.334-1.669-.5C67.809,99.609,59.049,97.693,58.8,98.693Z" transform="translate(-5.214 -11.684)" fill="#1b1b1b"/>
    <path id="Path_1793" data-name="Path 1793" d="M107,102.294c.166.5,7.342-1,19.274-3.917,5.924-1.5,13.1-3.25,21.025-5.333,8.344-2.167,17.605-4.584,27.45-7.167V69.959c0-3.417,0-6.75-.083-10.084a61.224,61.224,0,0,0-1-9.75,45.754,45.754,0,0,0-6.675-16.5,27.931,27.931,0,0,0-11.347-9.834,17.162,17.162,0,0,0-6.091-1.5,14.909,14.909,0,0,0-5.256.667c-5.34,1.667-8.344,2.75-8.176,3.083.084.333,3.17-.25,8.677-1.5a14.034,14.034,0,0,1,4.672-.25,15.483,15.483,0,0,1,5.34,1.583,26.142,26.142,0,0,1,10.013,9.25,44.066,44.066,0,0,1,6.007,15.584,56.033,56.033,0,0,1,.917,9.25V83.376c-8.927,2.417-17.354,4.75-24.947,6.833-7.926,2.167-15.018,4.167-20.942,5.917C113.927,99.544,106.834,101.876,107,102.294Z" transform="translate(-10.531 -3.285)" fill="#1b1b1b"/>
    <path id="Path_1794" data-name="Path 1794" d="M59.174,97.276c.25,1.083,8.928-.833,20.024-3.75a12.206,12.206,0,0,1,1.669-.417,12.212,12.212,0,0,1,1.669-.417c11.1-3.083,19.44-5.833,19.19-6.834s-8.928.833-20.025,3.75a12.2,12.2,0,0,1-1.669.417,12.221,12.221,0,0,1-1.669.417C67.267,93.526,58.924,96.359,59.174,97.276Z" transform="translate(-5.255 -10.268)" fill="#1b1b1b"/>
    <path id="Path_1795" data-name="Path 1795" d="M123.123,29.283c-.25-1.083-9.929,1.083-22.444,4.333-.667.167-1.251.333-1.835.5s-1.251.333-1.835.5c-12.432,3.417-21.86,6.417-21.61,7.5.25,1,9.929-1.083,22.444-4.333.667-.167,1.252-.333,1.835-.5s1.252-.333,1.835-.5C113.944,33.367,123.373,30.283,123.123,29.283Z" transform="translate(-7.045 -4.027)" fill="#1b1b1b"/>
    <path id="Path_1796" data-name="Path 1796" d="M104.594,113.009c0-.25-.585-.5-1.5-.334a8.577,8.577,0,0,0-3.671,1.416,17.925,17.925,0,0,0-4.339,3.834,45.189,45.189,0,0,0-4.088,5.666c-.25.417-.5.834-.751,1.334a9.894,9.894,0,0,0-.667,1.334,53.324,53.324,0,0,0-3.921,11.75c-.584,3-.668,4.916-.083,5.084.5.166,1.335-1.584,2.336-4.417a102.8,102.8,0,0,1,4.506-10.917c.25-.417.417-.834.667-1.25s.417-.75.667-1.167a50.888,50.888,0,0,1,3.588-5.416,22.068,22.068,0,0,1,3.421-3.75C102.925,114.009,104.678,113.509,104.594,113.009Z" transform="translate(-8.124 -13.25)" fill="#1b1b1b"/>
    <path id="Path_1797" data-name="Path 1797" d="M55.923,98.678c0-.25-.584-.5-1.5-.333a8.575,8.575,0,0,0-3.671,1.417,17.926,17.926,0,0,0-4.339,3.833,45.178,45.178,0,0,0-4.088,5.666c-.25.417-.5.834-.751,1.334a9.893,9.893,0,0,0-.668,1.334,53.329,53.329,0,0,0-3.921,11.75c-.584,3-.667,4.916-.083,5.084.5.166,1.335-1.584,2.336-4.417a102.74,102.74,0,0,1,4.506-10.917c.25-.417.417-.834.667-1.25s.417-.834.668-1.167a50.889,50.889,0,0,1,3.588-5.416,22.06,22.06,0,0,1,3.421-3.75C54.254,99.678,56.006,99.178,55.923,98.678Z" transform="translate(-2.755 -11.67)" fill="#1b1b1b"/>
    <path id="Path_1798" data-name="Path 1798" d="M79.844,146.232c.334-1.083-8.177-4-19.274-7.25-.584-.166-1.085-.333-1.669-.5s-1.085-.333-1.669-.5c-11.18-3.166-19.858-5.25-20.191-4.166-.25.916,8.177,3.916,19.274,7.25.584.166,1.085.334,1.669.5s1.085.334,1.669.5C70.833,145.232,79.594,147.149,79.844,146.232Z" transform="translate(-2.814 -15.556)" fill="#1b1b1b"/>
    <path id="Path_1799" data-name="Path 1799" d="M16.534,25.2c-.25-.083-.834,1.583-1.335,4.583a42.472,42.472,0,0,0-.667,5.667,28,28,0,0,0,.584,7.667,17.33,17.33,0,0,0,4.672,8.5A17.66,17.66,0,0,0,30.05,56.2a19.372,19.372,0,0,0,6.174-.5,13.849,13.849,0,0,0,5.84-3.167,11.4,11.4,0,0,0,3.5-6.25,12.067,12.067,0,0,0-.918-7.25,11.157,11.157,0,0,0-3.921-4.667A7.677,7.677,0,0,0,37.643,33.2a5.985,5.985,0,0,0-3.421.583,10.362,10.362,0,0,0-5.006,5.5A14.228,14.228,0,0,0,28.3,46.2a11.382,11.382,0,0,0,.751,3.333,15.548,15.548,0,0,0,1.335,2.917,23.81,23.81,0,0,0,3.671,4.833A56.419,56.419,0,0,0,42.4,64.2a87.86,87.86,0,0,0,7.843,4.833A66.585,66.585,0,0,0,62.423,74.2c3,.917,4.672,1.167,4.756.917s-1.5-.917-4.255-2.167a111,111,0,0,1-11.514-5.917c-2.336-1.417-4.839-3.083-7.426-5a52.292,52.292,0,0,1-7.759-6.75,27.554,27.554,0,0,1-3.171-4.334,12.093,12.093,0,0,1-1.585-5.083,11.542,11.542,0,0,1,.751-5.333,7.514,7.514,0,0,1,3.5-3.833,3.982,3.982,0,0,1,1.669-.333,5.051,5.051,0,0,1,1.752.667A8.107,8.107,0,0,1,41.9,40.28a9.066,9.066,0,0,1,.667,5.333,7.847,7.847,0,0,1-2.5,4.5,11.742,11.742,0,0,1-4.589,2.5,13.532,13.532,0,0,1-5.173.5A15.642,15.642,0,0,1,21.54,49.53a14.367,14.367,0,0,1-4.255-7.084,28.345,28.345,0,0,1-1-7.084c-.083-2.167.083-4,.083-5.5C16.7,26.863,16.784,25.2,16.534,25.2Z" transform="translate(-0.328 -3.607)" fill="#1b1b1b"/>
    <path id="Path_1800" data-name="Path 1800" d="M139.628,176.1c-1.085,0-1.5,2-1.585,4.5v.834c.084,2.583.5,4.5,1.585,4.5,1,0,1.5-2,1.585-4.5V180.6C141.13,178.1,140.629,176.1,139.628,176.1Z" transform="translate(-13.955 -20.252)" fill="#1b1b1b"/>
    <path id="Path_1801" data-name="Path 1801" d="M164.745,83.548c-.334-1.083-2.42-.917-5.006-.25-.166,0-.25.083-.417.083s-.25.083-.417.083c-2.586.75-4.422,1.75-4.172,2.833.251,1,2.42.917,5.006.25.167,0,.25-.083.417-.083s.25-.083.417-.083C163.159,85.548,164.995,84.465,164.745,83.548Z" transform="translate(-15.794 -9.957)" fill="#1b1b1b"/>
    <path id="Path_1802" data-name="Path 1802" d="M166,87.438c-.25-1.083-1.335-1.25-2.753-1.083-.084,0-.167,0-.167.083h-.167c-1.335.333-2.335,1-2.085,2.083.167,1,1.335,1.25,2.754,1.083.084,0,.166,0,.166-.083h.167C165.248,89.1,166.166,88.438,166,87.438Z" transform="translate(-16.464 -10.347)" fill="#1b1b1b"/>
    <path id="Path_1803" data-name="Path 1803" d="M135.855,61.9c-.416.333-.667.75-1,1a3.614,3.614,0,0,1-.584.333c-.084,0-.167.083-.251,0a.308.308,0,0,1-.083.25.082.082,0,0,1-.084.083h.084c.166-.083.416-.167.334-.167V62.98a1.2,1.2,0,0,1,.166-.583,1.722,1.722,0,0,0,.334-.5,3.629,3.629,0,0,0,.5-.583.594.594,0,0,0-.25-.75,1.914,1.914,0,0,0-1.585-.25,3.431,3.431,0,0,0-1.919,1.417,2.583,2.583,0,0,0-.417,1.417,3.183,3.183,0,0,0,.334,1.833,4.573,4.573,0,0,0,.585.75,1.964,1.964,0,0,0,.751.5,3.008,3.008,0,0,0,3.254-.583,3.4,3.4,0,0,0,1.085-2.083,2.031,2.031,0,0,0-.5-1.417Q136.231,61.647,135.855,61.9Z" transform="translate(-13.186 -7.473)" fill="#1b1b1b"/>
    <path id="Path_1804" data-name="Path 1804" d="M136.649,61.086c-.5.25-.417,1.083-.918,1.833A4.418,4.418,0,0,1,134.646,64a1.2,1.2,0,0,1-1.251.167c-.084,0-.084,0-.084-.083L133.228,64a1.076,1.076,0,0,1-.166-.667,2.95,2.95,0,0,1,.166-.833,3.3,3.3,0,0,1,.835-1.25,4.963,4.963,0,0,1,.917-.667c.251-.167.585-.25.668-.5a.715.715,0,0,0-.417-.833,2.6,2.6,0,0,0-2.169-.167,4.285,4.285,0,0,0-2.5,2.083,4.7,4.7,0,0,0-.584,1.917,4.1,4.1,0,0,0,.417,2.333,2.6,2.6,0,0,0,.751.917,3.7,3.7,0,0,0,.917.667,4.261,4.261,0,0,0,4.339-.75,4.542,4.542,0,0,0,1.5-2.833,2.627,2.627,0,0,0-.5-2C137.15,61,136.816,60.92,136.649,61.086Z" transform="translate(-13.062 -7.329)" fill="#1b1b1b"/>
    <path id="Path_1805" data-name="Path 1805" d="M132.7,51.24a6.589,6.589,0,0,0-.334,2.25,26.716,26.716,0,0,0-.084,2.75,13.482,13.482,0,0,1-.084,1.75,3.379,3.379,0,0,0,.084,1.333c0,.083.084.167.167.25s.166.167.25.167a1.633,1.633,0,0,0,.585-.083c.5-.25,1.085-.5,1.585-.75.251-.083.417-.25.668-.333a2.086,2.086,0,0,0,.584-.333.754.754,0,0,0,.25-.583c0-2,.084-4.25.084-6.75,0-2.417,0-5,.084-7.667v-29.5c0-.167-.084-.333-.084-.5-.084-.083-.084-.167-.25-.333-.167-.083-.25-.167-.334-.167h-.5c-.917.25-1.752.5-2.67.75a1.838,1.838,0,0,0-.417.25c-.084.083-.166.25-.25.333a1.054,1.054,0,0,0-.084.5v5.417c0,2.583,0,5.167.084,7.5.084,4.75.084,9,.166,12.5.084,7,.251,11.25.5,11.25s.417-4.167.585-11.25c.083-3.5.083-7.75.166-12.5,0-2.417,0-4.917.084-7.5V14.905c.5-.083.918-.25,1.418-.333V25.239c.084,6.5.084,12.584.084,18.084,0,2.75.084,5.333.084,7.667s.084,4.5.084,6.417a.18.18,0,0,1-.167.167c-.25.083-.417.25-.667.333s-.417.25-.667.333l-.251.083-.084.083-.166.083c-.084.083-.167-.083-.084-.083V57.99a12.265,12.265,0,0,0-.084-1.75c-.084-1.083-.084-2-.084-2.75A5.288,5.288,0,0,0,132.7,51.24Z" transform="translate(-13.283 -2.233)" fill="#1b1b1b"/>
    <path id="Path_1806" data-name="Path 1806" d="M136.73,21.687l9.011-7.167-9.011-1.5Z" transform="translate(-13.811 -2.264)" fill="#1b1b1b"/>
    <path id="Path_1807" data-name="Path 1807" d="M54.171,130.3c.667-.834-.834-2.584-3.5-3.667-.167-.083-.25-.083-.417-.166s-.25-.084-.417-.166c-2.67-.834-4.923-.584-5.006.5-.083,1,1.752,1.666,4,2.5l.334.083.334.167C51.835,130.379,53.587,131.047,54.171,130.3Z" transform="translate(-3.673 -14.704)" fill="#1b1b1b"/>
    <path id="Path_1808" data-name="Path 1808" d="M93.16,135.609c1,.417,2.587-2.584,4.589-6.25a2.1,2.1,0,0,1,.334-.584,4.789,4.789,0,0,1,.334-.583c1-1.917,1.836-3.5,2.5-4.584.584-1.084,1.085-1.834.751-2.334-.251-.416-1.252-.166-2.5.75a15.027,15.027,0,0,0-3.5,4.584A848.224,848.224,0,0,1,95,127.775C92.826,131.859,92.159,135.276,93.16,135.609Z" transform="translate(-8.955 -14.183)" fill="#1b1b1b"/>
  </g>
</svg>
