<svg xmlns="http://www.w3.org/2000/svg" xmlns:xlink="http://www.w3.org/1999/xlink" width="378.426" height="300.844" viewBox="0 0 378.426 300.844">
  <defs>
    <linearGradient id="linear-gradient" x1="-0.413" y1="0.861" x2="1.412" y2="0.248" gradientUnits="objectBoundingBox">
      <stop offset="0.098"/>
      <stop offset="1" stop-color="#fff"/>
    </linearGradient>
  </defs>
  <g id="OOH" transform="translate(20246.504 7427.073)">
    <path id="Path_91186" data-name="Path 91186" d="M348.28,314.741V284.658l15.673-21.414H377.2V231.058h19.152V204.175l15.329-16.267v43.149h4.673V194.425h15.891V173.115H462.65v31.061h10.742V166.826l26.009-27.6v64.946h8.743V168.924l23.042,24.45v17.657h15.626v14.635h7.242V187.909H569.2v63.415h10.866v18.847h11.193l11.025,11.7v32.873Z" transform="translate(-20550.996 -7440.971)" fill="#e5f1ff"/>
    <path id="Path_91209" data-name="Path 91209" d="M504.507,188.756H278.062v.774H504.507Z" transform="translate(-20517.574 -7459.488)" fill="#b7b7b7"/>
    <path id="Path_91210" data-name="Path 91210" d="M288.766,183.687h-.774v5.784h.774Z" transform="translate(-20516.932 -7459.816)" fill="#b7b7b7"/>
    <path id="Path_91211" data-name="Path 91211" d="M307.747,183.687h-.774v5.784h.774Z" transform="translate(-20515.701 -7459.816)" fill="#b7b7b7"/>
    <path id="Path_91212" data-name="Path 91212" d="M326.728,183.687h-.774v5.784h.774Z" transform="translate(-20514.473 -7459.816)" fill="#b7b7b7"/>
    <path id="Path_91213" data-name="Path 91213" d="M345.709,183.687h-.773v5.784h.773Z" transform="translate(-20513.242 -7459.816)" fill="#b7b7b7"/>
    <path id="Path_91214" data-name="Path 91214" d="M364.69,183.687h-.773v5.784h.773Z" transform="translate(-20512.014 -7459.816)" fill="#b7b7b7"/>
    <path id="Path_91215" data-name="Path 91215" d="M404.636,183.687h-.773v5.784h.773Z" transform="translate(-20509.426 -7459.816)" fill="#b7b7b7"/>
    <path id="Path_91216" data-name="Path 91216" d="M423.617,183.687h-.773v5.784h.773Z" transform="translate(-20508.195 -7459.816)" fill="#b7b7b7"/>
    <path id="Path_91217" data-name="Path 91217" d="M442.6,183.687h-.774v5.784h.774Z" transform="translate(-20506.965 -7459.816)" fill="#b7b7b7"/>
    <path id="Path_91218" data-name="Path 91218" d="M461.58,183.687h-.774v5.784h.774Z" transform="translate(-20505.736 -7459.816)" fill="#b7b7b7"/>
    <path id="Path_91219" data-name="Path 91219" d="M480.559,183.687h-.773v5.784h.773Z" transform="translate(-20504.506 -7459.816)" fill="#b7b7b7"/>
    <path id="Path_91220" data-name="Path 91220" d="M504.507,41.927H278.062V42.7H504.507Z" transform="translate(-20517.574 -7469)" fill="#b7b7b7"/>
    <path id="Path_91221" data-name="Path 91221" d="M288.766,42.29h-.774v5.784h.774Z" transform="translate(-20516.932 -7468.977)" fill="#b7b7b7"/>
    <path id="Path_91222" data-name="Path 91222" d="M307.747,42.29h-.774v5.784h.774Z" transform="translate(-20515.701 -7468.977)" fill="#b7b7b7"/>
    <path id="Path_91223" data-name="Path 91223" d="M326.728,42.29h-.774v5.784h.774Z" transform="translate(-20514.473 -7468.977)" fill="#b7b7b7"/>
    <path id="Path_91224" data-name="Path 91224" d="M345.709,42.29h-.773v5.784h.773Z" transform="translate(-20513.242 -7468.977)" fill="#b7b7b7"/>
    <path id="Path_91225" data-name="Path 91225" d="M364.69,42.29h-.773v5.784h.773Z" transform="translate(-20512.014 -7468.977)" fill="#b7b7b7"/>
    <path id="Path_91226" data-name="Path 91226" d="M404.636,42.29h-.773v5.784h.773Z" transform="translate(-20509.426 -7468.977)" fill="#b7b7b7"/>
    <path id="Path_91227" data-name="Path 91227" d="M423.617,42.29h-.773v5.784h.773Z" transform="translate(-20508.195 -7468.977)" fill="#b7b7b7"/>
    <path id="Path_91228" data-name="Path 91228" d="M442.6,42.29h-.774v5.784h.774Z" transform="translate(-20506.965 -7468.977)" fill="#b7b7b7"/>
    <path id="Path_91229" data-name="Path 91229" d="M461.58,42.29h-.774v5.784h.774Z" transform="translate(-20505.736 -7468.977)" fill="#b7b7b7"/>
    <path id="Path_91230" data-name="Path 91230" d="M480.559,42.29h-.773v5.784h.773Z" transform="translate(-20504.506 -7468.977)" fill="#b7b7b7"/>
    <path id="Path_91231" data-name="Path 91231" d="M392.126,170.667h-21.7V332.236h21.7Z" transform="translate(-20511.592 -7460.66)" fill="#a0a0a0"/>
    <path id="Path_91232" data-name="Path 91232" d="M395.71,170.667h-21.7V332.236h21.7Z" transform="translate(-20511.359 -7460.66)" fill="#b7b7b7"/>
    <path id="Path_91233" data-name="Path 91233" d="M395.74,184.956h-21.7v4.433h21.7Z" transform="translate(-20511.357 -7459.734)" fill="#a0a0a0"/>
    <path id="Path_91234" data-name="Path 91234" d="M413.426,317.9H338.007v4.8h75.419Z" transform="translate(-20502.221 -7451.122)" fill="#a0a0a0"/>
    <path id="Path_91235" data-name="Path 91235" d="M428.038,317.9H352.62v4.8h75.418Z" transform="translate(-20512.744 -7451.122)" fill="#b7b7b7"/>
    <path id="Path_91236" data-name="Path 91236" d="M500.914,193.913H276.739a5.24,5.24,0,0,1-5.242-5.24V51.931a5.24,5.24,0,0,1,5.242-5.239H500.914a5.24,5.24,0,0,1,5.242,5.239V188.673A5.241,5.241,0,0,1,500.914,193.913Z" transform="translate(-20518 -7468.691)" fill="#a0a0a0"/>
    <path id="Path_91237" data-name="Path 91237" d="M504.024,193.913H279.849a5.24,5.24,0,0,1-5.242-5.24V51.931a5.24,5.24,0,0,1,5.242-5.239H504.024a5.24,5.24,0,0,1,5.242,5.239V188.673A5.241,5.241,0,0,1,504.024,193.913Z" transform="translate(-20517.799 -7468.691)" fill="silver"/>
    <path id="Path_91238" data-name="Path 91238" d="M500.18,190.756H283.466a5.4,5.4,0,0,1-5.4-5.4V53.991a5.4,5.4,0,0,1,5.4-5.4H500.18a5.4,5.4,0,0,1,5.4,5.4V185.354A5.4,5.4,0,0,1,500.18,190.756Z" transform="translate(-20517.574 -7468.568)" fill="#026dd5"/>
    <path id="Path_91239" data-name="Path 91239" d="M314.864,42.87,290.17,46.881v2.08l24.694-4.009Z" transform="translate(-20516.791 -7468.939)" fill="silver"/>
    <path id="Path_91240" data-name="Path 91240" d="M370.121,42.87l-24.694,4.011v2.08l24.694-4.009Z" transform="translate(-20513.211 -7468.939)" fill="silver"/>
    <path id="Path_91241" data-name="Path 91241" d="M425.379,42.87l-24.694,4.011v2.08l24.694-4.009Z" transform="translate(-20509.631 -7468.939)" fill="silver"/>
    <path id="Path_91242" data-name="Path 91242" d="M480.636,42.87l-24.694,4.011v2.08l24.694-4.009Z" transform="translate(-20506.051 -7468.939)" fill="silver"/>
    <path id="Path_91243" data-name="Path 91243" d="M317.955,42.87H309.3v5.167h8.657Z" transform="translate(-20515.551 -7468.939)" fill="#9d9d9d"/>
    <path id="Path_91244" data-name="Path 91244" d="M373.212,42.87h-8.657v5.167h8.657Z" transform="translate(-20511.971 -7468.939)" fill="#9d9d9d"/>
    <path id="Path_91245" data-name="Path 91245" d="M428.47,42.87h-8.657v5.167h8.657Z" transform="translate(-20508.393 -7468.939)" fill="#9d9d9d"/>
    <path id="Path_91246" data-name="Path 91246" d="M483.727,42.87H475.07v5.167h8.657Z" transform="translate(-20504.813 -7468.939)" fill="#9d9d9d"/>
    <path id="Path_91303" data-name="Path 91303" d="M501.528,325.153h-5.165V201.74a2.583,2.583,0,0,1,5.165,0V325.153Z" transform="translate(-20503.432 -7458.814)" fill="#6b84a6"/>
    <g id="Group_37245" data-name="Group 37245" transform="translate(-20214.273 -7420.902)" opacity="0.646">
      <path id="Path_91247" data-name="Path 91247" d="M326.46,121.222H301.766l8.02-73.5h8.655Z" transform="translate(-301.766 -47.722)" fill="url(#linear-gradient)"/>
      <path id="Path_91248" data-name="Path 91248" d="M381.717,121.222H357.023l8.02-73.5H373.7Z" transform="translate(-298.186 -47.722)" fill="url(#linear-gradient)"/>
      <path id="Path_91249" data-name="Path 91249" d="M436.975,121.222H412.281l8.02-73.5h8.655Z" transform="translate(-294.607 -47.722)" fill="url(#linear-gradient)"/>
      <path id="Path_91250" data-name="Path 91250" d="M492.232,121.222H467.538l8.02-73.5h8.655Z" transform="translate(-291.027 -47.722)" fill="url(#linear-gradient)"/>
    </g>
    <path id="Path_91251" data-name="Path 91251" d="M435.684,96.047H343.99a10.483,10.483,0,1,1,0-20.965h91.694a10.483,10.483,0,1,1,0,20.965Z" transform="translate(-20513.982 -7466.852)" fill="#fff"/>
    <path id="Path_91252" data-name="Path 91252" d="M473.95,119.75H313.3a2.83,2.83,0,1,1,0-5.659H473.95a2.83,2.83,0,1,1,0,5.659Z" transform="translate(-20515.475 -7464.325)" fill="#fff"/>
    <path id="Path_91253" data-name="Path 91253" d="M473.95,134.929H313.3a2.829,2.829,0,1,1,0-5.658H473.95a2.829,2.829,0,1,1,0,5.658Z" transform="translate(-20515.475 -7463.342)" fill="#fff"/>
    <path id="Path_91254" data-name="Path 91254" d="M456.318,150.11H328.912a2.83,2.83,0,1,1,0-5.659H456.318a2.83,2.83,0,1,1,0,5.659Z" transform="translate(-20514.463 -7462.358)" fill="#fff"/>
    <path id="Path_91313" data-name="Path 91313" d="M506.945,214.613h-8.156v5.267h8.156Z" transform="translate(-20503.275 -7457.813)" fill="#6b84a6"/>
    <path id="Path_91314" data-name="Path 91314" d="M506.945,298.944h-8.156v5.266h8.156Z" transform="translate(-20503.275 -7452.35)" fill="#6b84a6"/>
    <path id="Path_91315" data-name="Path 91315" d="M630.882,202.272H498.977a1.23,1.23,0,1,1,0-2.46H630.882a1.23,1.23,0,1,1,0,2.46Z" transform="translate(-20503.344 -7458.772)" fill="#6b84a6"/>
    <path id="Path_91318" data-name="Path 91318" d="M635.311,203.576s2.077-3.434-1.644-4.865-135.411,0-135.411,0a30.112,30.112,0,0,0-10.131,6.167h140.13A35.984,35.984,0,0,1,635.311,203.576Z" transform="translate(-20503.967 -7458.884)" fill="#c9d6e3" opacity="0.5"/>
    <path id="Path_91320" data-name="Path 91320" d="M618.011,294.984H517.031v5.306h100.98Z" transform="translate(-20502.094 -7452.606)" fill="#7a97bf"/>
    <g id="Group_38290" data-name="Group 38290" transform="translate(-20024.891 -7260.808)">
      <path id="Path_91304" data-name="Path 91304" d="M498.9,202.078h-1.886V324.964H498.9Z" transform="translate(-478.5 -197.817)" fill="#5b718e"/>
      <path id="Path_91305" data-name="Path 91305" d="M501.528,240.63l-5.165,14.593V201.583h5.165Z" transform="translate(-478.543 -197.849)" fill="#5b718e"/>
      <path id="Path_91306" data-name="Path 91306" d="M627.171,204.042H502.62V316.955H627.171Z" transform="translate(-478.137 -197.69)" fill="#c9d6e3" opacity="0.84"/>
      <path id="Path_91307" data-name="Path 91307" d="M608.34,291.059H514.1a2.35,2.35,0,0,1-2.35-2.349V231.585a2.35,2.35,0,0,1,2.35-2.349H608.34a2.35,2.35,0,0,1,2.351,2.349v57.126A2.348,2.348,0,0,1,608.34,291.059Z" transform="translate(-477.546 -196.058)" fill="#026dd5"/>
      <path id="Path_91308" data-name="Path 91308" d="M580.294,249.875H540.419a4.558,4.558,0,1,1,0-9.116h39.875a4.558,4.558,0,1,1,0,9.116Z" transform="translate(-475.984 -195.311)" fill="#fff"/>
      <path id="Path_91309" data-name="Path 91309" d="M596.934,260.183H527.072a1.23,1.23,0,1,1,0-2.461h69.863a1.23,1.23,0,1,1,0,2.461Z" transform="translate(-476.633 -194.212)" fill="#fff"/>
      <path id="Path_91310" data-name="Path 91310" d="M596.934,266.785H527.072a1.23,1.23,0,1,1,0-2.461h69.863a1.23,1.23,0,1,1,0,2.461Z" transform="translate(-476.633 -193.784)" fill="#fff"/>
      <path id="Path_91311" data-name="Path 91311" d="M589.266,273.385h-55.4a1.23,1.23,0,1,1,0-2.461h55.4a1.23,1.23,0,1,1,0,2.461Z" transform="translate(-476.193 -193.357)" fill="#fff"/>
      <path id="Path_91312" data-name="Path 91312" d="M627.171,212.041s-13.619,15.027-17.954,28.427H502.62V204.042h124.7Z" transform="translate(-478.137 -197.69)" fill="#b8c9da" opacity="0.84"/>
      <path id="Path_91316" data-name="Path 91316" d="M635.862,203.576c-.242.028-.482.055-.719.088-16.183,2.232-26.117,22.5-26.117,22.5h-129.4c0-21.471,19.183-27.454,19.183-27.454s.8-.012,2.266-.021c17.429-.182,129.713-1.3,133.143.021C637.941,200.143,635.862,203.576,635.862,203.576Z" transform="translate(-479.627 -198.076)" fill="#f2f3f4" opacity="0.69"/>
      <path id="Path_91317" data-name="Path 91317" d="M635.143,203.627c-16.183,2.232-26.117,22.5-26.117,22.5h-129.4c0-21.471,19.183-27.454,19.183-27.454s.8-.012,2.266-.022c-3.972,2.111-7.522,3.631-10.8,6.958-4.976,5.056-8.657,11.828-8.657,18.878H606.98c.285,0,1.915-3.3,2.106-3.6a53.884,53.884,0,0,1,6.166-7.946,34.847,34.847,0,0,1,9.771-7.461C626.756,204.636,633.771,201.169,635.143,203.627Z" transform="translate(-479.627 -198.039)" fill="#c9d6e3" opacity="0.84"/>
      <path id="Path_91319" data-name="Path 91319" d="M625.744,201.269s-15.221,6.292-20.145,18.179H484.506c3.465-7.337,8.284-14.1,19.473-18.179Z" transform="translate(-479.311 -197.869)" fill="#fff" opacity="0.5"/>
      <path id="Path_91321" data-name="Path 91321" d="M527.605,297.371h-9.063v21.42h9.063Z" transform="translate(-477.106 -191.644)" fill="#7a97bf"/>
      <path id="Path_91322" data-name="Path 91322" d="M607.815,297.371H598.23v21.42h9.585Z" transform="translate(-471.944 -191.644)" fill="#7a97bf"/>
      <path id="Path_91323" data-name="Path 91323" d="M520.225,297.371H513.93v21.42h6.295Z" transform="translate(-477.405 -191.644)" fill="#6680a0"/>
      <path id="Path_91324" data-name="Path 91324" d="M600.4,297.371h-6.295v21.42H600.4Z" transform="translate(-472.211 -191.644)" fill="#6680a0"/>
      <path id="Path_91325" data-name="Path 91325" d="M610.8,294.984H509.818v5.306H610.8Z" transform="translate(-477.671 -191.798)" fill="#6b84a6"/>
      <path id="Path_91326" data-name="Path 91326" d="M527.521,299.967v5.441l-7.68,5.891V299.967Z" transform="translate(-477.022 -191.475)" fill="#728db3"/>
      <path id="Path_91327" data-name="Path 91327" d="M607.7,299.967v5.441l-7.68,5.891V299.967Z" transform="translate(-471.828 -191.475)" fill="#728db3"/>
    </g>
    <path id="Path_91378" data-name="Path 91378" d="M477.461,292.966a1.469,1.469,0,0,0,1.289-.131c.146-.1.312-.25.48-.187-.075.062,0,.2.1.211a.371.371,0,0,0,.262-.105,1.584,1.584,0,0,0,.377-.377.65.65,0,0,0,.1-.51.756.756,0,0,1-.054-.223.552.552,0,0,1,.033-.143,1.276,1.276,0,0,0-.111-.768.857.857,0,0,0-.215-.368c-.092-.082-.219-.07-.3-.141a12.759,12.759,0,0,0,1.069-.932c.227-.227.631-.52.55-.869-.105.122-.2.265-.272.349a7.692,7.692,0,0,1-.812.8c-.1.08-.8.714-.885.662a1,1,0,0,0,.276.076.744.744,0,0,1,.377.2.178.178,0,0,1,.051.125.146.146,0,0,1-.112.114.427.427,0,0,1-.168,0,.608.608,0,0,1,.447.275.4.4,0,0,1,.07.268.247.247,0,0,1-.166.209.413.413,0,0,1-.162,0l-.166-.02c.292.032.372.281.323.531a.672.672,0,0,1-.166.326c-.018.02-.274.215-.283.182a1.044,1.044,0,0,0-.205-.363.981.981,0,0,1-.7.57.691.691,0,0,1-.756-.417C477.637,292.534,477.548,292.751,477.461,292.966Z" transform="translate(-20504.656 -7453.031)" fill="#d29d8d"/>
  </g>
</svg>
