<svg xmlns="http://www.w3.org/2000/svg" width="38.567" height="38.567" viewBox="0 0 38.567 38.567">
  <g id="Group_41119" data-name="Group 41119" transform="translate(-421 -529)">
    <rect id="Rectangle_7018" data-name="Rectangle 7018" width="38.567" height="38.567" rx="6" transform="translate(421 529)" fill="#e2edf8"/>
    <g id="noun-password-4745408" transform="translate(427.887 535.887)">
      <ellipse id="Ellipse_728" data-name="Ellipse 728" cx="1.722" cy="1.377" rx="1.722" ry="1.377" transform="translate(15.514 6.561)" fill="#016dd5"/>
      <path id="Path_100637" data-name="Path 100637" d="M18,23.9a1.572,1.572,0,1,0,3.144,0V21.931a.786.786,0,0,1,.786-.786H23.9A1.572,1.572,0,1,0,23.9,18H21.931A3.931,3.931,0,0,0,18,21.931Z" transform="translate(-18 -18)" fill="#016dd5"/>
      <path id="Path_100638" data-name="Path 100638" d="M70.468,66.538V64.572a1.572,1.572,0,0,0-3.144,0v1.965a.786.786,0,0,1-.786.786H64.572a1.572,1.572,0,0,0,0,3.144h1.965A3.931,3.931,0,0,0,70.468,66.538Z" transform="translate(-45.312 -45.312)" fill="#016dd5"/>
      <path id="Path_100639" data-name="Path 100639" d="M35.722,18a8.879,8.879,0,0,0-.943.051,8.647,8.647,0,0,0-7.645,9.591L20.92,33.856A3.144,3.144,0,0,0,20,36.081v3.144a3.144,3.144,0,0,0,3.144,3.144h3.144a3.144,3.144,0,0,0,3.066-2.437,3.144,3.144,0,0,0,2.358-2.358,3.145,3.145,0,0,0,1.517-.841l1.5-1.494a8.556,8.556,0,0,0,.994.055,8.647,8.647,0,1,0,0-17.295Zm5.471,9.253a5.5,5.5,0,0,1-5.471,4.9H31.4a.393.393,0,0,0-.393.393v1.965H29.04a.393.393,0,0,0-.393.393v1.965H26.682a.393.393,0,0,0-.393.393v1.965H23.144V36.081l7.075-7.075V27.04h0a5.451,5.451,0,0,1,.067-1.356,5.53,5.53,0,0,1,4.831-4.508,5.712,5.712,0,0,1,.605-.031,5.5,5.5,0,0,1,5.471,6.108Z" transform="translate(-19.214 -18)" fill="#016dd5"/>
    </g>
  </g>
</svg>
