<svg xmlns="http://www.w3.org/2000/svg" width="222.584" height="198.808" viewBox="0 0 222.584 198.808">
  <path id="Path_35" data-name="Path 35" d="M222.458,177.619c-.507-4.842-2.479-9.182-4.882-13.345Q174.39,89.466,131.156,14.695a44.369,44.369,0,0,0-6.774-8.9c-6.757-6.831-15.643-7.621-23.242-2.408C96.92,6.285,93.978,10.3,91.455,14.664Q48.277,89.471,5.138,164.3A44.472,44.472,0,0,0,.856,174.39c-2.871,10.271,1.6,19.043,11.7,22.386a43.5,43.5,0,0,0,13.2,1.927c28.451.163,56.9.084,85.352.084,28.6,0,57.2.044,85.8-.057a49.73,49.73,0,0,0,11.339-1.283c9.888-2.382,15.242-10.033,14.21-19.828M100.713,55.591c5.037-4.371,10.937-4.948,16.935-2.659,5.9,2.249,9.566,6.955,9.914,13.173.287,5.125-.631,10.355-1.354,15.489-2.108,14.977-4.388,29.932-6.607,44.892-.1.653-.229,1.3-.384,2.165H103.667c-.335-3-.551-5.994-1.023-8.944q-3.672-23.055-7.48-46.092c-1.16-6.986,0-13.218,5.548-18.025M111.284,171.9a16.566,16.566,0,1,1,16.75-16.4,16.789,16.789,0,0,1-16.75,16.4" transform="translate(0 0.001)" fill="#ed001a"/>
</svg>
