<svg xmlns="http://www.w3.org/2000/svg" width="127.592" height="143.44" viewBox="0 0 127.592 143.44">
  <g id="illustration" transform="translate(0 -0.001)">
    <path id="Path_84838" data-name="Path 84838" d="M120.554,30.734A70.476,70.476,0,0,0,94.857,6C83.975.061,67.142-.868,54.809.637c-6.187.755-14.463,2.413-20.085,5.115A53.792,53.792,0,0,0,18.958,17.56C9.8,27.311,2.414,39.258.7,52.543-.914,65.072.085,78.391,5.53,89.867a49.692,49.692,0,0,0,9.617,13.718c.671-1.056,1.753-2.514,2.748-2.328l-2.544-10.5a9.766,9.766,0,0,1,7.191-11.79L35.7,75.776h0c1.37-1.832,2.781-3.6,3.578-4.724a63.715,63.715,0,0,1,5.806-6.928c1.658-1.744,3.466-3.4,5.109-5.15.786-.84,1.014-.951,1.076-2.2.051-1.029.094-2.033.147-3.052.092-1.779.245-3.5.328-5.236.114-.006.225-.015.338-.021l-.056-.764a65.079,65.079,0,0,0-1.141-9.447C50.672,36.807,50.3,34.3,49.966,32a9.7,9.7,0,0,1-4.411-5.341c-.847-.045-1.628-.094-2.06-.139-2.354-.246-4.541-2.225-3.049-4.814.657-1.141,2.255-1.75,3.927-2.065a17.144,17.144,0,0,1,1.154-6.706,4.05,4.05,0,0,1,2.649-2.3c.381-.216.528-.249.717-.722.107-.268.185-.546.3-.811,1.154-2.573,4-3.886,6.7-3.983a14.6,14.6,0,0,1,4.667.718c1.715.515,3.486,1.437,5.3.878.83-.256,1.335.666,1.032,1.343a7.755,7.755,0,0,1-1.813,2.5c2.876.967,6.2,2.239,7.5,2.861a51.63,51.63,0,0,1,8.08,4.755A48.158,48.158,0,0,1,72.9,21.916c-1.863.627-3.77,1.613-5.612,2.037.386,3.862,3.171,17.951,3.657,20.83l.055.373a1.562,1.562,0,0,1,.417.256c.8.65,1.349,3.4,1.641,4.384.525,1.773.719,3.623,1.087,5.35,2.9.493,6.707,2.786,9.043,4.447,1.026.73,2.793,2.266,4.324,3.63l13.837-3.353a9.765,9.765,0,0,1,11.79,7.191l1.59,6.563a16.254,16.254,0,0,1,7.619,5.391,19.51,19.51,0,0,1,2.155,4.331,39.174,39.174,0,0,0,2.833-12.536c.775-13.148.106-29-6.785-40.075" fill="#f4f6f9"/>
    <path id="Path_84841" data-name="Path 84841" d="M409.382,366.31c-.118-.439-.22-.818-.267-1.047a4.561,4.561,0,0,0-1.761-3.163c-1.255-.789-2.783-.413-4.716.063-.394.1-.808.2-1.243.3-2.767.621-5.618,1.357-8.474,2.186l-.181.052c-2.476.718-3.262,1.074-3.312,3.77-.135,7.363,1.1,11.426,3.66,12.077a2.55,2.55,0,0,0,.626.069,14.96,14.96,0,0,0,4.007-.946c.445-.146.83-.272,1.085-.338h0c2.906-.759,6.345-1.832,9.628-2.877,3.38-1.076,1.8-6.974.949-10.143" transform="translate(-300.41 -278.984)" fill="#ffe945"/>
    <path id="Path_84859" data-name="Path 84859" d="M198.372,116.589a8.907,8.907,0,0,0,4.537,5.549,1.217,1.217,0,0,0,.124.045c-.415-2.832-.792-5.417-.792-5.417s-2.133-.082-3.869-.177" transform="translate(-153.031 -89.941)" fill="#333"/>
    <path id="Path_84860" data-name="Path 84860" d="M215.63,23.989c-1.813.56-3.584-.363-5.3-.878a14.6,14.6,0,0,0-4.667-.718c-2.7.1-5.543,1.409-6.7,3.982-.119.265-.2.543-.3.811-.189.474-.336.506-.717.723a4.048,4.048,0,0,0-2.649,2.3,17.138,17.138,0,0,0-1.154,6.706,18.234,18.234,0,0,1,2.242-.266,14,14,0,0,0,2.528,4.849c.506.634,1.578.094,1.561-.647-.063-2.744,1.577-5.123,1.844-7.82a7.423,7.423,0,0,0-.048-1.912c.153,0,.288,0,.337-.007.434-.022.868-.037,1.3-.055.866-.035,1.733-.067,2.6-.137a18.112,18.112,0,0,0,4.508-.836,9.3,9.3,0,0,0,5.649-4.748c.3-.677-.2-1.6-1.032-1.343" transform="translate(-149.77 -17.27)" fill="#333"/>
    <g id="Group_37074" data-name="Group 37074">
      <path id="Path_84839" data-name="Path 84839" d="M206.44,452.374l2.026,8.36a9.765,9.765,0,0,1-7.191,11.79l-78.81,19.1a9.766,9.766,0,0,1-11.79-7.191l-1.146-4.731" transform="translate(-84.494 -348.977)" fill="none" stroke="#333" stroke-linecap="round" stroke-linejoin="round" stroke-width="1"/>
      <path id="Path_84840" data-name="Path 84840" d="M71,311.6l-4.776-19.71a9.765,9.765,0,0,1,7.191-11.79l78.81-19.1a9.765,9.765,0,0,1,11.79,7.191l3.926,16.2" transform="translate(-50.875 -201.131)" fill="none" stroke="#333" stroke-linecap="round" stroke-linejoin="round" stroke-width="1"/>
      <path id="Path_84842" data-name="Path 84842" d="M397.172,377.1l3.527,3.256-7.885,2.442" transform="translate(-303.031 -290.91)" fill="none" stroke="#333" stroke-linecap="round" stroke-linejoin="round" stroke-width="1"/>
      <path id="Path_84843" data-name="Path 84843" d="M395.478,399.383c5.917-1.78,11.655-3.745,17.553-5.061" transform="translate(-305.086 -304.193)" fill="none" stroke="#333" stroke-linecap="round" stroke-linejoin="round" stroke-width="1"/>
      <path id="Path_84844" data-name="Path 84844" d="M425.436,406.5c-.075,2.323-1.58,5.168-1.514,6.956" transform="translate(-327.025 -313.59)" fill="none" stroke="#333" stroke-linecap="round" stroke-linejoin="round" stroke-width="1"/>
      <line id="Line_340" data-name="Line 340" x1="1.538" y2="7.164" transform="translate(101.172 91.58)" fill="none" stroke="#333" stroke-linecap="round" stroke-linejoin="round" stroke-width="1"/>
      <path id="Path_84845" data-name="Path 84845" d="M433.555,372.621a19.716,19.716,0,0,1,1.917,3.246c2.172-.642,4.629-.755,6.845-1.442" transform="translate(-334.459 -287.453)" fill="none" stroke="#333" stroke-linecap="round" stroke-linejoin="round" stroke-width="1"/>
      <path id="Path_84846" data-name="Path 84846" d="M143.294,388.544c-2.748-6.315,6.578-12.258,11.236-7.245,4.348,4.679,2.327,11.667-4.259,11.984C147.054,393.438,144.625,392.134,143.294,388.544Z" transform="translate(-110.158 -292.701)" fill="none" stroke="#333" stroke-linecap="round" stroke-linejoin="round" stroke-width="1"/>
      <path id="Path_84847" data-name="Path 84847" d="M189.755,379.008c0-3.062.988-5.079,4.7-6.308,2.722-.9,5.634-.7,7.06,2.138a6.7,6.7,0,0,1-7.694,9.479A5.624,5.624,0,0,1,189.755,379.008Z" transform="translate(-146.383 -287.146)" fill="none" stroke="#333" stroke-linecap="round" stroke-linejoin="round" stroke-width="1"/>
      <path id="Path_84848" data-name="Path 84848" d="M192.042,486.075s8.243-2.816,13.032-4.121c5.525-1.505,11.694-3.718,17.2-5.256" transform="translate(-148.148 -367.742)" fill="none" stroke="#333" stroke-linecap="round" stroke-linejoin="round" stroke-width="1"/>
      <path id="Path_84849" data-name="Path 84849" d="M192.042,519.226c8.294-3.225,15.805-4.695,24.287-7.268" transform="translate(-148.148 -394.941)" fill="none" stroke="#333" stroke-linecap="round" stroke-linejoin="round" stroke-width="1"/>
      <path id="Path_84850" data-name="Path 84850" d="M206.393,537.288c5.783-1.861,26.8-7.924,26.8-7.924" transform="translate(-159.219 -408.369)" fill="none" stroke="#333" stroke-linecap="round" stroke-linejoin="round" stroke-width="1"/>
      <path id="Path_84851" data-name="Path 84851" d="M156.207,227.963c1.37-1.832,2.781-3.6,3.578-4.724a63.713,63.713,0,0,1,5.806-6.928c1.658-1.744,3.466-3.4,5.11-5.15.786-.839,1.014-.951,1.076-2.2.051-1.029.094-2.033.147-3.052.092-1.779.245-3.5.328-5.236,1.776-.087,3.431-.261,5.189-.48,3.983-.5,8.44-.786,12.166-2.327,1.086-.449,1.52-.917,2.317-.267s1.349,3.4,1.641,4.384c.525,1.774.718,3.623,1.087,5.349,2.9.494,6.706,2.786,9.043,4.447,1.027.73,2.793,2.266,4.324,3.63" transform="translate(-120.504 -152.188)" fill="none" stroke="#333" stroke-linecap="round" stroke-linejoin="round" stroke-width="1"/>
      <path id="Path_84852" data-name="Path 84852" d="M72.139,468.364c1.153-.391,6.687-6.088,8.087-5,1.818,1.416-3,6.136-3.439,7.054-.529,1.1-.656,1.749.533,2.442a16.984,16.984,0,0,0,3.687,1.334c1.315.357,6.856,1.146,6.987,2.777.221,2.743-7.294,2.08-8.8,1.981a20.364,20.364,0,0,1,5.28.636c1.545.422,4.275.95,4.8,2.639.995,3.185-6.718,1.051-8.246.066,1.91.474,8.879,1.781,9.234,4.36.275,1.993-3.422.8-4.548.52-1.648-.41-4.116-.641-5.609-1.523,1.242.331,5.708,1.552,5.416,3.332-.434,2.236-7.32-.477-10.148-2.229a13.625,13.625,0,0,1-5.942-8.86c-.594-2.87-1.275-5.286-.652-8.2.312-1.461,1.919-4.255,3.508-4.6" transform="translate(-52.871 -357.35)" fill="none" stroke="#333" stroke-linecap="round" stroke-linejoin="round" stroke-width="1"/>
      <path id="Path_84853" data-name="Path 84853" d="M230.967,227.329c1.734.348,4.715,1.757,6.609.744,2.092-1.118,2.332-6.568,2.719-8.656.768,1.923,2.639,6.955,4.917,7.621,2.573.753,3.487-1.556,5.716-2.148" transform="translate(-178.176 -169.268)" fill="none" stroke="#333" stroke-linecap="round" stroke-linejoin="round" stroke-width="1"/>
      <path id="Path_84854" data-name="Path 84854" d="M494.192,348.221c-1.143,1.3-6.191.442-5.844,2.031.282,1.55,2.624,2.228,3.951,3.114,1.464.977,2.263,1.346,1.358,3.008-1.057,1.942-3.688,4.033-4.952,5.866-.81,1.175-1.541,3.868.913,3.047,2.163-.723,4.211-3.119,5.578-4.738-1.335,1.639-3.118,2.969-4.346,4.662-.727,1-3.212,3.124-2.046,4.4,1.809,1.318,5.551-3.69,7.092-5.145-2.014,1.288-6.2,6.158-5.11,6.977,1.67.9,4.81-2.84,5.713-4.044-1.365,1.481-3.147,4.826-2.522,5.244,3.308,1.986,6.943-10.332,7.26-12.085.849-4.691-1.942-14.694-8.88-16.523" transform="translate(-376.412 -265.396)" fill="none" stroke="#333" stroke-linecap="round" stroke-linejoin="round" stroke-width="1"/>
      <path id="Path_84855" data-name="Path 84855" d="M60.507,464.519c-4.215-4.754-6.2-12.5-2.628-18.438.483-.8,1.935-3.373,3.236-3.129" transform="translate(-43.219 -341.695)" fill="none" stroke="#333" stroke-linecap="round" stroke-linejoin="round" stroke-width="1"/>
      <path id="Path_84856" data-name="Path 84856" d="M511.616,337.434c.874-1.128.759-3.646.388-4.827a20.354,20.354,0,0,0-2.418-5.1,16.255,16.255,0,0,0-7.619-5.391" transform="translate(-387.234 -248.488)" fill="none" stroke="#333" stroke-linecap="round" stroke-linejoin="round" stroke-width="1"/>
      <path id="Path_84857" data-name="Path 84857" d="M186.895,78.365a65.118,65.118,0,0,0-1.141-9.447c-.473-3.17-1.678-11.428-1.678-11.428s-4.418-.17-5.714-.3c-2.355-.246-4.541-2.225-3.049-4.814,1.2-2.087,5.558-2.4,7.749-2.37-.6-3.827.563-7.835,4.435-9.462,2.5-1.051,5.337-.844,8-.553,1.968.215,9.766,3.068,11.949,4.106a51.608,51.608,0,0,1,8.08,4.754,48.158,48.158,0,0,1-7.762,3.734c-1.863.628-3.77,1.613-5.612,2.037.386,3.862,3.171,17.951,3.657,20.83" transform="translate(-134.865 -30.664)" fill="none" stroke="#333" stroke-linecap="round" stroke-linejoin="round" stroke-width="1"/>
      <path id="Path_84858" data-name="Path 84858" d="M240.22,113.364a4.235,4.235,0,0,0,4.267,4.571" transform="translate(-185.295 -87.453)" fill="none" stroke="#333" stroke-linecap="round" stroke-linejoin="round" stroke-width="1"/>
      <line id="Line_341" data-name="Line 341" x1="0.457" y1="1.981" transform="translate(58.887 18.902)" fill="none" stroke="#333" stroke-linecap="round" stroke-linejoin="round" stroke-width="1"/>
      <line id="Line_342" data-name="Line 342" x1="0.457" y1="1.981" transform="translate(63.762 16.92)" fill="none" stroke="#333" stroke-linecap="round" stroke-linejoin="round" stroke-width="1"/>
      <path id="Path_84861" data-name="Path 84861" d="M276.632,249.031a17.522,17.522,0,0,0,.535,2.9c.191,1.171.357,2.348.533,3.531.273,1.838,1,5.258,1,5.258" transform="translate(-213.402 -192.111)" fill="none" stroke="#333" stroke-linecap="round" stroke-linejoin="round" stroke-width="1"/>
      <path id="Path_84862" data-name="Path 84862" d="M291.634,283.44a.386.386,0,0,0,.3-.076" transform="translate(-224.977 -218.598)" fill="none" stroke="#333" stroke-linecap="round" stroke-linejoin="round" stroke-width="1"/>
      <path id="Path_84863" data-name="Path 84863" d="M194.041,100.555A4.984,4.984,0,0,0,192,100.2" transform="translate(-148.117 -77.291)" fill="none" stroke="#333" stroke-linecap="round" stroke-linejoin="round" stroke-width="1"/>
    </g>
  </g>
</svg>
