<svg xmlns="http://www.w3.org/2000/svg" xmlns:xlink="http://www.w3.org/1999/xlink" width="62" height="58" viewBox="0 0 62 58">
  <defs>
    <clipPath id="clip-path">
      <rect id="Rectangle_9816" data-name="Rectangle 9816" width="62" height="58" rx="3" transform="translate(315 720)" fill="#fff"/>
    </clipPath>
  </defs>
  <g id="Group_40205" data-name="Group 40205" transform="translate(-315 -720)">
    <g id="Mask_Group_62" data-name="Mask Group 62" clip-path="url(#clip-path)">
      <g id="noun-pdf-5435920" transform="translate(325.612 723.784)">
        <path id="Path_2083" data-name="Path 2083" d="M22.512,50.851a2.717,2.717,0,0,1-2.056-.906,3,3,0,0,1,.362-4.039c.842-.906,3.215-1.884,5.95-2.717q.906-2.337,1.911-5.742a18.3,18.3,0,0,1-1.268-5.96c-.127-2.445,1.177-3.84,2.527-3.958,1.069-.091,2.328.67,2.563,2.545h0a6.34,6.34,0,0,1-.245,2.563l-.344,1.186c-.335,1.177-.67,2.355-1.014,3.505a15.4,15.4,0,0,0,2.808,4.212,25.657,25.657,0,0,1,3.831-.444c2.636,0,3.623,1.2,4.021,1.9a2.627,2.627,0,0,1-.118,2.717A2.817,2.817,0,0,1,38.787,46.9a11.484,11.484,0,0,1-5.742-3.116c-1.513.308-3.152.706-4.692,1.141-.969,2.4-1.929,4.157-2.871,4.818a5.2,5.2,0,0,1-2.971,1.1Zm3.242-5.126a10.316,10.316,0,0,0-3.415,1.639c-.453.489-.516,1.014-.317,1.25s1.005.308,2.255-.571A6.34,6.34,0,0,0,25.754,45.725Zm9.963-2.4A7.535,7.535,0,0,0,39,44.819a.752.752,0,0,0,.734-.263.543.543,0,0,0,0-.571c-.1-.19-.543-.788-2.192-.8a14.611,14.611,0,0,0-1.82.163Zm-5.688-3.17c-.272.824-.534,1.621-.8,2.382.716-.19,1.431-.362,2.137-.516a17.21,17.21,0,0,1-1.331-1.866ZM30.11,29.64h0c-.208,0-.679.562-.625,1.811a17.552,17.552,0,0,0,.281,2.373c.045-.172.1-.335.145-.507l.344-1.2a4.338,4.338,0,0,0,.181-1.721h0c-.072-.58-.272-.761-.317-.761Z" transform="translate(-10.475 -6.218)" fill="#a3a3a3"/>
        <path id="Path_2084" data-name="Path 2084" d="M30.933,12.855a.77.77,0,0,0,.217-.589.788.788,0,0,0-.217-.589.906.906,0,0,0-.661-.208H29.43v1.567h.842a.906.906,0,0,0,.661-.181Z" transform="translate(-11.379 -4.704)" fill="#a3a3a3"/>
        <path id="Path_2085" data-name="Path 2085" d="M38.26,13.376A1.694,1.694,0,0,0,36.4,11.519H35.67v3.7H36.4a1.674,1.674,0,0,0,1.857-1.839Z" transform="translate(-11.968 -4.708)" fill="#a3a3a3"/>
        <path id="Path_2086" data-name="Path 2086" d="M45.728,4H20L9.5,14.5V50.191a4.529,4.529,0,0,0,4.529,4.529h31.7a4.529,4.529,0,0,0,4.529-4.529V8.529A4.529,4.529,0,0,0,45.728,4Zm-7.49,5.489h4.139v1.241h-2.59v1.34h1.938v1.2H39.787v2.572H38.238Zm-6.584,0h2.382a3.75,3.75,0,0,1,1.757.4,2.88,2.88,0,0,1,1.159,1.123,3.215,3.215,0,0,1,.417,1.657,3.215,3.215,0,0,1-.417,1.657,2.717,2.717,0,0,1-1.168,1.123,3.623,3.623,0,0,1-1.748.4H31.69ZM26,9.489h2.509a2.907,2.907,0,0,1,1.286.263,1.911,1.911,0,0,1,.788.725,2.21,2.21,0,0,1,0,2.074,1.911,1.911,0,0,1-.779.734,2.717,2.717,0,0,1-1.3.281h-.951v2.282H26Zm-6.539-2.4v4.764a2.461,2.461,0,0,1-2.491,2.11H12.588Zm28.982,43.1a2.717,2.717,0,0,1-2.717,2.717h-31.7a2.717,2.717,0,0,1-2.717-2.717V21.208H48.445Z" transform="translate(-9.5 -4)" fill="#a3a3a3"/>
      </g>
    </g>
  </g>
</svg>
