<svg xmlns="http://www.w3.org/2000/svg" width="41.14" height="6.095" viewBox="0 0 41.14 6.095">
  <g id="Rating" transform="translate(-1133.445 -3544)">
    <g id="noun-ratings-5016018" transform="translate(1130 3523.045)">
      <g id="Group_35471" data-name="Group 35471">
        <path id="Path_90502" data-name="Path 90502" d="M4.66,26.95a.506.506,0,0,0,.53.04l1.43-.75,1.43.75a.465.465,0,0,0,.23.06.445.445,0,0,0,.29-.1.511.511,0,0,0,.2-.49L8.5,24.87l1.16-1.13a.487.487,0,0,0,.13-.51.514.514,0,0,0-.4-.34l-1.6-.23-.71-1.45a.525.525,0,0,0-.9,0l-.71,1.45-1.6.23a.5.5,0,0,0-.4.34.487.487,0,0,0,.13.51l1.16,1.13-.27,1.59A.441.441,0,0,0,4.66,26.95Zm1.2-3.34a.529.529,0,0,0,.38-.27l.38-.78.38.78a.473.473,0,0,0,.38.27l.86.12-.62.6a.479.479,0,0,0-.14.44l.15.85-.77-.4a.471.471,0,0,0-.46,0l-.77.4.15-.85a.506.506,0,0,0-.14-.44L5,23.73Z" fill="#ffa534"/>
        <path id="Path_90503" data-name="Path 90503" d="M18.48,23.23a.514.514,0,0,0-.4-.34l-1.6-.23-.72-1.45a.525.525,0,0,0-.9,0l-.71,1.45-1.6.23a.5.5,0,0,0-.4.34.487.487,0,0,0,.13.51l1.16,1.13-.27,1.59a.492.492,0,0,0,.2.49.506.506,0,0,0,.53.04l1.43-.75,1.43.75a.465.465,0,0,0,.23.06.445.445,0,0,0,.29-.1.511.511,0,0,0,.2-.49l-.27-1.59,1.16-1.13A.546.546,0,0,0,18.48,23.23Zm-2.17,1.11a.479.479,0,0,0-.14.44l.15.85-.77-.4a.471.471,0,0,0-.46,0l-.77.4.15-.85a.506.506,0,0,0-.14-.44l-.62-.6.86-.12a.529.529,0,0,0,.38-.27l.38-.78.38.78a.473.473,0,0,0,.38.27l.86.12Z" fill="#ffa534"/>
        <path id="Path_90504" data-name="Path 90504" d="M27.17,23.23a.514.514,0,0,0-.4-.34l-1.6-.23-.72-1.45a.525.525,0,0,0-.9,0l-.71,1.45-1.6.23a.5.5,0,0,0-.4.34.487.487,0,0,0,.13.51l1.16,1.13-.27,1.59a.492.492,0,0,0,.2.49.506.506,0,0,0,.53.04L24,26.24l1.43.75a.465.465,0,0,0,.23.06.445.445,0,0,0,.29-.1.511.511,0,0,0,.2-.49l-.27-1.59,1.16-1.13A.507.507,0,0,0,27.17,23.23ZM25,24.34a.479.479,0,0,0-.14.44l.14.85-.77-.4a.471.471,0,0,0-.46,0l-.77.4.15-.85a.506.506,0,0,0-.14-.44l-.62-.6.86-.12a.529.529,0,0,0,.38-.27l.37-.79.38.78a.473.473,0,0,0,.38.27l.86.12Z" fill="#ffa534"/>
        <path id="Path_90505" data-name="Path 90505" d="M35.45,22.89l-1.6-.23-.72-1.45a.525.525,0,0,0-.9,0l-.71,1.45-1.6.23a.5.5,0,0,0-.4.34.487.487,0,0,0,.13.51l1.16,1.13-.27,1.59a.492.492,0,0,0,.2.49.508.508,0,0,0,.53.04l1.43-.75,1.43.75a.465.465,0,0,0,.23.06.445.445,0,0,0,.29-.1.511.511,0,0,0,.2-.49l-.27-1.59,1.16-1.13a.487.487,0,0,0,.13-.51A.543.543,0,0,0,35.45,22.89Zm-1.76,1.45a.479.479,0,0,0-.14.44l.15.85-.77-.4a.471.471,0,0,0-.46,0l-.77.4.15-.85a.506.506,0,0,0-.14-.44l-.62-.6.86-.12a.529.529,0,0,0,.38-.27l.38-.78.38.78a.473.473,0,0,0,.38.27l.86.12Z" fill="#ffa534"/>
        <path id="Path_90506" data-name="Path 90506" d="M44.14,22.89l-1.6-.23-.72-1.45a.525.525,0,0,0-.9,0l-.71,1.45-1.6.23a.5.5,0,0,0-.4.34.487.487,0,0,0,.13.51l1.16,1.13-.27,1.59a.492.492,0,0,0,.2.49.506.506,0,0,0,.53.04l1.43-.75,1.43.75a.465.465,0,0,0,.23.06.445.445,0,0,0,.29-.1.511.511,0,0,0,.2-.49l-.27-1.59,1.16-1.13a.487.487,0,0,0,.13-.51A.543.543,0,0,0,44.14,22.89Zm-1.76,1.45a.479.479,0,0,0-.14.44l.15.85-.77-.4a.471.471,0,0,0-.46,0l-.77.4.15-.85a.506.506,0,0,0-.14-.44l-.62-.6.86-.12a.529.529,0,0,0,.38-.27l.38-.78.38.78a.473.473,0,0,0,.38.27l.84.11Z" fill="#c1bfbc"/>
      </g>
    </g>
    <path id="Path_90507" data-name="Path 90507" d="M-16782.141-16901.207l1.8-1.285,1.7,1.285-.664,1.994-2.189.109Z" transform="translate(17917 20448)" fill="#ffa534"/>
    <path id="Path_90508" data-name="Path 90508" d="M-16782.395-16901.207l1.691-1.27,2.064,1.27-.664,1.994-2.539.064Z" transform="translate(17926 20448)" fill="#ffa534"/>
    <path id="Path_90509" data-name="Path 90509" d="M-16782.141-16901.207l1.8-1.285,1.7,1.285-.664,1.994-2.189.109Z" transform="translate(17934.406 20448)" fill="#ffa534"/>
    <path id="Path_90510" data-name="Path 90510" d="M-16781.779-16901.207l1.771-1.334,1.662,1.334-.676,1.994h-2.178Z" transform="translate(17942.813 20448)" fill="#ffa534"/>
    <path id="Path_90511" data-name="Path 90511" d="M-16782.141-16901.207l1.8-1.285,1.7,1.285-.7,2.1h-2.158Z" transform="translate(17951.813 20447.846)" fill="#c1bfbc"/>
  </g>
</svg>
