<svg xmlns="http://www.w3.org/2000/svg" width="50" height="50" viewBox="0 0 50 50">
  <g id="Group_64" data-name="Group 64" transform="translate(-132 -69)">
    <g id="Group_62" data-name="Group 62" transform="translate(131.929 69)">
      <g id="Reports" transform="translate(0 0)">
        <rect id="Rectangle_7018" data-name="Rectangle 7018" width="50" height="50" rx="6" transform="translate(0.071)" fill="#e2edf8"/>
      </g>
    </g>
    <g id="noun-rating-7391066" transform="translate(141 75.457)">
      <path id="Path_100635" data-name="Path 100635" d="M7.169,4.547h17.5a6.181,6.181,0,0,1,6.169,6.169V21.341a6.185,6.185,0,0,1-5.393,6.113v4.068a.7.7,0,0,1-1.174.514L18.3,27.507H7.169A6.181,6.181,0,0,1,1,21.339V10.712A6.182,6.182,0,0,1,7.169,4.543Zm10.1,6.816,1.009,1.762a.16.16,0,0,0,.042.051.153.153,0,0,0,.063.026l1.987.415a1.549,1.549,0,0,1,.836,2.566l-1.364,1.505a.152.152,0,0,0-.036.058.179.179,0,0,0,0,.069l.219,2.02a1.549,1.549,0,0,1-2.182,1.584l-1.852-.832a.159.159,0,0,0-.136,0L14,21.418a1.536,1.536,0,0,1-1.549-.158,1.555,1.555,0,0,1-.512-.626,1.539,1.539,0,0,1-.12-.8l.219-2.02a.141.141,0,0,0,0-.069.15.15,0,0,0-.036-.06l-1.364-1.505a1.537,1.537,0,0,1-.372-.715,1.555,1.555,0,0,1,1.208-1.849l1.987-.415a.179.179,0,0,0,.06-.029.146.146,0,0,0,.042-.051l1.009-1.762a1.559,1.559,0,0,1,2.131-.576,1.536,1.536,0,0,1,.569.576Zm-.2,2.456-1.009-1.762A.156.156,0,0,0,16,12a.172.172,0,0,0-.082-.018.158.158,0,0,0-.082.018.164.164,0,0,0-.056.061l-1.009,1.762a1.52,1.52,0,0,1-1.033.749l-1.987.415a.191.191,0,0,0-.077.033.163.163,0,0,0-.042.072.179.179,0,0,0-.007.084.159.159,0,0,0,.04.072l1.364,1.508a1.542,1.542,0,0,1,.331.561,1.559,1.559,0,0,1,.064.648l-.219,2.02a.164.164,0,0,0,.011.089.156.156,0,0,0,.054.061.153.153,0,0,0,.077.033.151.151,0,0,0,.084-.018l1.852-.832a1.542,1.542,0,0,1,.637-.14,1.565,1.565,0,0,1,.637.14l1.852.832a.14.14,0,0,0,.161-.015.142.142,0,0,0,.064-.147l-.219-2.02a1.514,1.514,0,0,1,.4-1.21l1.364-1.505a.165.165,0,0,0,.04-.072.163.163,0,0,0-.007-.084.167.167,0,0,0-.044-.072.156.156,0,0,0-.075-.033L18.1,14.574a1.55,1.55,0,0,1-.6-.26,1.566,1.566,0,0,1-.435-.489Z" transform="translate(0)" fill="#006dd5" fill-rule="evenodd"/>
    </g>
  </g>
</svg>
