<svg id="Real_time_audit_activity" data-name="Real time audit activity" xmlns="http://www.w3.org/2000/svg" width="388.66" height="310.913" viewBox="0 0 388.66 310.913">
  <path id="Path_95222" data-name="Path 95222" d="M255.051,294.16a36.58,36.58,0,1,1,36.58-36.58A36.58,36.58,0,0,1,255.051,294.16Zm0-71.635a35.056,35.056,0,1,0,35.056,35.056A35.056,35.056,0,0,0,255.051,222.524Z" transform="translate(-218.472 -221)" fill="#deefff"/>
  <path id="Path_95223" data-name="Path 95223" d="M586.761,277.58a18.29,18.29,0,1,1,18.29-18.29A18.29,18.29,0,0,1,586.761,277.58Zm0-35.056a16.766,16.766,0,1,0,16.766,16.766A16.766,16.766,0,0,0,586.761,242.524Z" transform="translate(-301.744 -225.758)" fill="#deefff"/>
  <path id="Path_95224" data-name="Path 95224" d="M755.048,393.152a20.576,20.576,0,1,1,20.576-20.576A20.576,20.576,0,0,1,755.048,393.152Zm0-39.628A19.052,19.052,0,1,0,774.1,372.576,19.052,19.052,0,0,0,755.048,353.524Z" transform="translate(-386.964 -105.087)" fill="#deefff"/>
  <path id="Path_95239" data-name="Path 95239" d="M511.173,612.216l-7.286-3.068-5-36.525h-66.56L426.911,609l-6.518,3.259a1.548,1.548,0,0,0,.692,2.932h89.487a1.548,1.548,0,0,0,.6-2.974Z" transform="translate(-266.309 -304.659)" fill="#e6e6e6"/>
  <path id="Path_95240" data-name="Path 95240" d="M590.9,562.583H263.935a6.478,6.478,0,0,1-6.463-6.478V510H597.358v46.106a6.478,6.478,0,0,1-6.463,6.478Z" transform="translate(-227.751 -289.759)" fill="#ccc"/>
  <path id="Path_95241" data-name="Path 95241" d="M597.607,474.566H257.08V277.289a7.818,7.818,0,0,1,7.809-7.809H589.8a7.818,7.818,0,0,1,7.809,7.809Z" transform="translate(-227.657 -232.535)" fill="#3f3d56"/>
  <path id="Path_95242" data-name="Path 95242" d="M581.739,464.718H281.888a6.026,6.026,0,0,1-6.02-6.02V294.289a6.027,6.027,0,0,1,6.02-6.02H581.739a6.027,6.027,0,0,1,6.02,6.02V458.7a6.027,6.027,0,0,1-6.02,6.02Z" transform="translate(-232.127 -237.005)" fill="#fff"/>
  <path id="Path_95243" data-name="Path 95243" d="M582.642,628.5H292.291a.762.762,0,1,1,0-1.524H582.642a.762.762,0,1,1,0,1.524Z" transform="translate(-235.853 -317.591)" fill="#ccc"/>
  <path id="Path_95244" data-name="Path 95244" d="M564.005,456.086H320.494a.762.762,0,0,1-.762-.762V338.609a.762.762,0,0,1,1.524,0V454.562H564.005a.762.762,0,1,1,0,1.524Z" transform="translate(-242.564 -248.8)" fill="#3f3d56"/>
  <path id="Path_95245" data-name="Path 95245" d="M381.382,471.056H359.234a2.265,2.265,0,0,1-2.262-2.262V438.262A2.265,2.265,0,0,1,359.234,436h22.148a2.265,2.265,0,0,1,2.262,2.262v30.532A2.265,2.265,0,0,1,381.382,471.056Z" transform="translate(-251.424 -272.153)" fill="#016dd5"/>
  <path id="Path_95246" data-name="Path 95246" d="M434.382,462.015H412.234a2.265,2.265,0,0,1-2.262-2.262V400.262A2.265,2.265,0,0,1,412.234,398h22.148a2.265,2.265,0,0,1,2.262,2.262v59.491a2.265,2.265,0,0,1-2.262,2.262Z" transform="translate(-264.033 -263.112)" fill="#016dd5"/>
  <path id="Path_95247" data-name="Path 95247" d="M487.382,471.056H465.234a2.265,2.265,0,0,1-2.262-2.262V438.262A2.265,2.265,0,0,1,465.234,436h22.148a2.265,2.265,0,0,1,2.262,2.262v30.532A2.265,2.265,0,0,1,487.382,471.056Z" transform="translate(-276.643 -272.153)" fill="#016dd5"/>
  <path id="Path_95248" data-name="Path 95248" d="M540.382,458.446H518.234a2.215,2.215,0,0,1-2.262-2.16V385.159a2.215,2.215,0,0,1,2.262-2.16h22.148a2.215,2.215,0,0,1,2.262,2.159v71.127A2.215,2.215,0,0,1,540.382,458.446Z" transform="translate(-289.253 -259.543)" fill="#016dd5"/>
  <path id="Path_95249" data-name="Path 95249" d="M593.382,452.022H571.234a2.265,2.265,0,0,1-2.262-2.262v-91.5A2.265,2.265,0,0,1,571.234,356h22.148a2.265,2.265,0,0,1,2.262,2.262v91.5a2.265,2.265,0,0,1-2.262,2.262Z" transform="translate(-301.863 -253.119)" fill="#016dd5"/>
  <circle id="Ellipse_284" data-name="Ellipse 284" cx="4.5" cy="4.5" r="4.5" transform="translate(114.978 145.979)" fill="#3f3d56"/>
  <ellipse id="Ellipse_285" data-name="Ellipse 285" cx="5" cy="4.5" rx="5" ry="4.5" transform="translate(154.978 115.979)" fill="#3f3d56"/>
  <circle id="Ellipse_286" data-name="Ellipse 286" cx="4.5" cy="4.5" r="4.5" transform="translate(194.978 145.979)" fill="#3f3d56"/>
  <ellipse id="Ellipse_287" data-name="Ellipse 287" cx="5" cy="4.5" rx="5" ry="4.5" transform="translate(234.978 100.979)" fill="#3f3d56"/>
  <circle id="Ellipse_288" data-name="Ellipse 288" cx="4.5" cy="4.5" r="4.5" transform="translate(275.978 84.979)" fill="#3f3d56"/>
  <path id="Path_95250" data-name="Path 95250" d="M236.734,178.923,196.247,148.6l-39.933,29.91-.914-1.219,40.847-30.6,40.294,30.181,40.04-43.818.161-.066,40.39-16.273.57,1.414L277.474,134.34Z" transform="translate(-36.973 -27.77)" fill="#3f3d56"/>
</svg>
