<svg xmlns="http://www.w3.org/2000/svg" width="53.896" height="38.349" viewBox="0 0 53.896 38.349">
  <g id="noun-real-time-monitoring-7063144" transform="translate(-4.282 -18.196)" opacity="0.728">
    <path id="Path_95103" data-name="Path 95103" d="M15,36.221l4.623-5.03a2.862,2.862,0,0,1,.313-3.6,2.7,2.7,0,0,1,3.887,0,2.834,2.834,0,0,1,.806,1.988,2.89,2.89,0,0,1-.136.876l3.652,2.16c.032-.038.067-.073.1-.111a2.7,2.7,0,0,1,3.306-.455l4.734-5.447a2.858,2.858,0,0,1,.267-3.66,2.7,2.7,0,0,1,3.887,0,2.854,2.854,0,0,1,0,3.975,2.7,2.7,0,0,1-3.306.455L32.4,32.823a2.858,2.858,0,0,1-.267,3.66,2.7,2.7,0,0,1-3.887,0,2.834,2.834,0,0,1-.806-1.988,2.917,2.917,0,0,1,.136-.878l-3.652-2.16c-.032.038-.067.073-.1.111a2.7,2.7,0,0,1-3.373.414l-4.623,5.03a2.862,2.862,0,0,1-.313,3.6,2.7,2.7,0,0,1-3.887,0,2.854,2.854,0,0,1,0-3.975A2.7,2.7,0,0,1,15,36.221Zm9.065,11.836a.579.579,0,0,1,0-1.159h3.944a.579.579,0,0,1,0,1.159ZM13.121,56.545H39.068a.579.579,0,0,0,0-1.159H33.218L30.98,50.7h4.179a.579.579,0,0,0,0-1.159H28.451l-19.857,0a3.129,3.129,0,0,1-2.245-.956,3.279,3.279,0,0,1-.935-2.3v-.874H34.1a.579.579,0,0,0,0-1.159H5.415V22.607a3.274,3.274,0,0,1,.935-2.3,3.135,3.135,0,0,1,2.245-.956H43.53a3.129,3.129,0,0,1,2.245.956,3.279,3.279,0,0,1,.935,2.3v8.758a.567.567,0,1,0,1.133,0l0-8.758a4.456,4.456,0,0,0-1.266-3.116,4.255,4.255,0,0,0-3.046-1.3H8.594a4.26,4.26,0,0,0-3.046,1.3,4.452,4.452,0,0,0-1.266,3.116V46.289A4.456,4.456,0,0,0,5.548,49.4a4.255,4.255,0,0,0,3.046,1.3H21.06l-2.238,4.686h-5.7a.579.579,0,0,0,0,1.159Zm18.834-1.159H20.081L22.319,50.7h7.4ZM46.707,40.043a.567.567,0,1,1,1.133,0v3.2a1.648,1.648,0,0,1,.608.4,1.7,1.7,0,0,1,.387.622h1.407a.579.579,0,0,1,0,1.159H48.835a1.7,1.7,0,0,1-.387.622,1.636,1.636,0,0,1-2.349,0,1.728,1.728,0,0,1,0-2.4,1.649,1.649,0,0,1,.608-.4Zm6.332-.285-.8.817a.558.558,0,0,1-.8,0,.589.589,0,0,1,0-.82l.8-.817a7.5,7.5,0,0,0-4.4-1.863v1.156a.567.567,0,1,1-1.133,0V37.076a7.482,7.482,0,0,0-4.4,1.863c1.02,1.043.219,1.863,0,1.637l-.8-.817a7.85,7.85,0,0,0-1.821,4.5h1.131a.579.579,0,0,1,0,1.159H39.692a7.834,7.834,0,0,0,1.821,4.5l.8-.817a.558.558,0,0,1,.8,0,.589.589,0,0,1,0,.82l-.8.817a7.488,7.488,0,0,0,4.4,1.863l0-1.154a.567.567,0,1,1,1.133,0v1.156a7.482,7.482,0,0,0,4.4-1.863l-.8-.817a.589.589,0,0,1,0-.82.558.558,0,0,1,.8,0l.8.817a7.85,7.85,0,0,0,1.821-4.5H53.727a.579.579,0,0,1,0-1.159h1.131a7.832,7.832,0,0,0-1.819-4.5Zm-5.392,4.7a.549.549,0,0,1,0,.763.52.52,0,0,1-.746,0,.549.549,0,0,1,0-.763.523.523,0,0,1,.373-.158A.514.514,0,0,1,47.647,44.454ZM47.8,44.836Zm-.527-11.153a10.754,10.754,0,0,0-7.711,3.266,11.336,11.336,0,0,0,0,15.774,10.735,10.735,0,0,0,15.422,0,11.336,11.336,0,0,0,0-15.774A10.75,10.75,0,0,0,47.274,33.683Zm6.91,4.086a9.619,9.619,0,0,0-13.82,0,10.158,10.158,0,0,0,0,14.135,9.619,9.619,0,0,0,13.82,0,10.158,10.158,0,0,0,0-14.135ZM47.274,35.9a8.616,8.616,0,0,0-6.18,2.619,9.082,9.082,0,0,0,0,12.641,8.6,8.6,0,0,0,12.359,0,9.082,9.082,0,0,0,0-12.641A8.616,8.616,0,0,0,47.274,35.9ZM39.639,23.773a1.592,1.592,0,0,0-2.284,0,1.681,1.681,0,0,0,0,2.336,1.592,1.592,0,0,0,2.284,0,1.681,1.681,0,0,0,0-2.336Zm-8.308,9.559a1.592,1.592,0,0,0-2.284,0,1.681,1.681,0,0,0,0,2.336,1.592,1.592,0,0,0,2.284,0,1.681,1.681,0,0,0,0-2.336Zm-8.31-4.915a1.592,1.592,0,0,0-2.284,0,1.681,1.681,0,0,0,0,2.336,1.592,1.592,0,0,0,2.284,0,1.681,1.681,0,0,0,0-2.336Zm-8.308,9.036a1.592,1.592,0,0,0-2.284,0,1.681,1.681,0,0,0,0,2.336,1.592,1.592,0,0,0,2.284,0,1.681,1.681,0,0,0,0-2.336Z" transform="translate(0)" fill="#016dd5" fill-rule="evenodd"/>
  </g>
</svg>
