<svg xmlns="http://www.w3.org/2000/svg" width="30.793" height="38.344" viewBox="0 0 30.793 38.344">
  <g id="Group_878" data-name="Group 878" transform="translate(-60.969 -141)" opacity="0.73">
    <g id="noun-document-7434272" transform="translate(60.969 141)">
      <path id="Path_1809" data-name="Path 1809" d="M40.132,6.8H38.591V5.259a2.633,2.633,0,0,0-2.629-2.629l-17.581,0a.582.582,0,0,0-.272.068l-.03.017a.613.613,0,0,0-.133.1l-5.8,5.793a.532.532,0,0,0-.093.128.143.143,0,0,0-.017.035.649.649,0,0,0-.055.149v.008a.573.573,0,0,0-.013.115V34.173A2.633,2.633,0,0,0,14.6,36.8H16.14v1.542a2.633,2.633,0,0,0,2.629,2.629H40.132a2.633,2.633,0,0,0,2.629-2.629V9.43A2.633,2.633,0,0,0,40.132,6.8ZM17.764,4.743V7.036a1.388,1.388,0,0,1-1.388,1.388H14.083ZM13.2,34.178V9.666h3.165A2.633,2.633,0,0,0,19,7.036V3.871H35.956a1.388,1.388,0,0,1,1.388,1.388V34.172a1.408,1.408,0,0,1-1.388,1.388l-21.363,0a1.382,1.382,0,0,1-1.39-1.384ZM41.522,38.35a1.392,1.392,0,0,1-1.388,1.393H18.764a1.409,1.409,0,0,1-1.388-1.393V36.808H35.958a2.633,2.633,0,0,0,2.629-2.629l0-26.136h1.542A1.388,1.388,0,0,1,41.515,9.43l0,28.919Z" transform="translate(-11.969 -2.629)" fill="#016dd5"/>
      <path id="Path_1810" data-name="Path 1810" d="M40.618,18.194h8.94a.618.618,0,1,0,0-1.236h-8.94a.618.618,0,1,0,0,1.236Z" transform="translate(-28.653 -11.158)" fill="#016dd5"/>
      <path id="Path_1811" data-name="Path 1811" d="M25.165,27.268H40.358a.618.618,0,0,0,0-1.236H25.165a.618.618,0,1,0,0,1.236Z" transform="translate(-19.455 -16.559)" fill="#016dd5"/>
      <path id="Path_1812" data-name="Path 1812" d="M25.165,36.33H40.358a.618.618,0,0,0,0-1.236H25.165a.618.618,0,1,0,0,1.236Z" transform="translate(-19.455 -21.953)" fill="#016dd5"/>
      <path id="Path_1813" data-name="Path 1813" d="M25.165,45.393H40.358a.618.618,0,0,0,0-1.236H25.165a.618.618,0,1,0,0,1.236Z" transform="translate(-19.455 -27.347)" fill="#016dd5"/>
      <path id="Path_1814" data-name="Path 1814" d="M25.165,54.467H40.358a.618.618,0,0,0,0-1.236H25.165a.618.618,0,0,0,0,1.236Z" transform="translate(-19.455 -32.748)" fill="#016dd5"/>
      <path id="Path_1815" data-name="Path 1815" d="M25.165,63.561H40.358a.618.618,0,0,0,0-1.236l-15.193,0a.617.617,0,1,0,0,1.235Z" transform="translate(-19.455 -38.161)" fill="#016dd5"/>
      <path id="Path_1816" data-name="Path 1816" d="M25.165,72.623H34.1a.618.618,0,0,0,0-1.236l-8.94,0a.617.617,0,1,0,0,1.235Z" transform="translate(-19.455 -43.555)" fill="#016dd5"/>
    </g>
  </g>
</svg>
