<svg xmlns="http://www.w3.org/2000/svg" width="186.856" height="190.499" viewBox="0 0 186.856 190.499">
  <g id="Register" transform="translate(-39.461 -67.731)">
    <g id="Background_Complete" transform="translate(39.461 67.731)">
      <g id="Group_35507" data-name="Group 35507">
        <rect id="Rectangle_6930" data-name="Rectangle 6930" width="177.613" height="0.127" transform="translate(0 166.01)" fill="#ebebeb"/>
        <rect id="Rectangle_6931" data-name="Rectangle 6931" width="11.766" height="0.127" transform="translate(148.051 174.171)" fill="#ebebeb"/>
        <rect id="Rectangle_6932" data-name="Rectangle 6932" width="3.088" height="0.127" transform="translate(114.57 175.547)" fill="#ebebeb"/>
        <rect id="Rectangle_6933" data-name="Rectangle 6933" width="6.817" height="0.127" transform="translate(140.878 169.463)" fill="#ebebeb"/>
        <rect id="Rectangle_6934" data-name="Rectangle 6934" width="15.343" height="0.127" transform="translate(18.635 170.315)" fill="#ebebeb"/>
        <rect id="Rectangle_6935" data-name="Rectangle 6935" width="2.25" height="0.127" transform="translate(37.141 170.315)" fill="#ebebeb"/>
        <rect id="Rectangle_6936" data-name="Rectangle 6936" width="33.276" height="0.127" transform="translate(46.702 172.456)" fill="#ebebeb"/>
        <path id="Path_90627" data-name="Path 90627" d="M108.828,198.352H40.235c-1.118,0-2.028-1.3-2.028-2.894V57.846c0-1.6.91-2.894,2.028-2.894h68.594c1.118,0,2.027,1.3,2.027,2.894V195.458C110.856,197.053,109.946,198.352,108.828,198.352ZM40.235,55.079c-1.069,0-1.939,1.241-1.939,2.767V195.458c0,1.526.87,2.767,1.939,2.767h68.594c1.069,0,1.938-1.241,1.938-2.767V57.846c0-1.526-.87-2.767-1.938-2.767H40.235Z" transform="translate(-24.635 -54.952)" fill="#ebebeb"/>
        <path id="Path_90628" data-name="Path 90628" d="M325.126,198.352H256.532c-1.118,0-2.027-1.3-2.027-2.894V57.846c0-1.6.91-2.894,2.027-2.894h68.593c1.118,0,2.028,1.3,2.028,2.894V195.458C327.154,197.053,326.244,198.352,325.126,198.352ZM256.532,55.079c-1.069,0-1.938,1.241-1.938,2.767V195.458c0,1.526.87,2.767,1.938,2.767h68.593c1.069,0,1.939-1.241,1.939-2.767V57.846c0-1.526-.87-2.767-1.939-2.767H256.532Z" transform="translate(-164.098 -54.952)" fill="#ebebeb"/>
      </g>
    </g>
    <g id="Shadow_1_" transform="translate(45.976 245.368)">
      <ellipse id="_x3C_Path_x3E__359_" cx="90.17" cy="6.431" rx="90.17" ry="6.431" fill="#f5f5f5"/>
    </g>
    <g id="Interface" transform="translate(51.282 102.185)">
      <g id="Group_35532" data-name="Group 35532">
        <path id="Path_90636" data-name="Path 90636" d="M241.5,280.793H139.874a4.155,4.155,0,0,1-4.155-4.155V156.979a4.155,4.155,0,0,1,4.155-4.155H241.5a4.155,4.155,0,0,1,4.155,4.155V276.637A4.155,4.155,0,0,1,241.5,280.793Z" transform="translate(-135.719 -152.824)" fill="#407bff"/>
        <path id="Path_90637" data-name="Path 90637" d="M241.5,280.793H139.874a4.155,4.155,0,0,1-4.155-4.155V156.979a4.155,4.155,0,0,1,4.155-4.155H241.5a4.155,4.155,0,0,1,4.155,4.155V276.637A4.155,4.155,0,0,1,241.5,280.793Z" transform="translate(-135.719 -152.824)" fill="#fff" opacity="0.6"/>
        <g id="Group_35522" data-name="Group 35522" transform="translate(17.811 58.686)">
          <rect id="Rectangle_6995" data-name="Rectangle 6995" width="74.313" height="12.725" fill="#fff"/>
          <g id="Group_35521" data-name="Group 35521" transform="translate(4.066 4.068)" opacity="0.4">
            <path id="Path_90638" data-name="Path 90638" d="M176.815,267.008v.333h-2.579v-3.646h2.5v.333h-2.115v1.3h1.886v.328h-1.886v1.355Z" transform="translate(-174.236 -263.476)" fill="#263238"/>
            <path id="Path_90639" data-name="Path 90639" d="M179.694,267.346h1.365v.323h-1.365Z" transform="translate(-176.594 -265.054)" fill="#263238"/>
            <path id="Path_90640" data-name="Path 90640" d="M188.076,266.427v1.589h-.37v-1.552c0-.578-.292-.875-.787-.875a.881.881,0,0,0-.917.989v1.438h-.37v-1.552c0-.578-.292-.875-.792-.875a.883.883,0,0,0-.917.989v1.438h-.37v-2.74h.354v.5a1.108,1.108,0,0,1,1.005-.521.984.984,0,0,1,.974.578,1.2,1.2,0,0,1,1.084-.578A1.034,1.034,0,0,1,188.076,266.427Z" transform="translate(-178.262 -264.15)" fill="#263238"/>
            <path id="Path_90641" data-name="Path 90641" d="M195.178,266.318v1.7h-.354v-.427a1.029,1.029,0,0,1-.943.453c-.62,0-1-.323-1-.8,0-.422.271-.776,1.058-.776h.87V266.3c0-.469-.266-.724-.776-.724a1.4,1.4,0,0,0-.912.323l-.166-.276a1.741,1.741,0,0,1,1.114-.369A.972.972,0,0,1,195.178,266.318Zm-.37.875v-.448h-.859c-.532,0-.7.208-.7.49,0,.318.255.516.693.516A.876.876,0,0,0,194.809,267.193Z" transform="translate(-182.291 -264.151)" fill="#263238"/>
            <path id="Path_90642" data-name="Path 90642" d="M198.55,263.571a.267.267,0,0,1,.271-.26.263.263,0,0,1,.271.255.266.266,0,0,1-.271.271A.269.269,0,0,1,198.55,263.571Zm.083.864H199v2.74h-.37Z" transform="translate(-184.74 -263.31)" fill="#263238"/>
            <path id="Path_90643" data-name="Path 90643" d="M201.163,263.31h.37v3.865h-.37Z" transform="translate(-185.869 -263.31)" fill="#263238"/>
          </g>
        </g>
        <g id="Group_35524" data-name="Group 35524" transform="translate(17.811 76.068)">
          <rect id="Rectangle_6996" data-name="Rectangle 6996" width="74.313" height="12.725" fill="#fff"/>
          <g id="Group_35523" data-name="Group 35523" transform="translate(4.067 4.088)" opacity="0.4">
            <path id="Path_90644" data-name="Path 90644" d="M177.092,295.582c0,.776-.562,1.245-1.49,1.245h-.979v1.151h-.386v-3.646H175.6C176.529,294.333,177.092,294.8,177.092,295.582Zm-.386,0c0-.583-.385-.916-1.114-.916h-.969v1.823h.969C176.321,296.489,176.706,296.155,176.706,295.582Z" transform="translate(-174.237 -294.113)" fill="#263238"/>
            <path id="Path_90645" data-name="Path 90645" d="M182.44,296.955v1.7h-.354v-.427a1.029,1.029,0,0,1-.943.453c-.62,0-1-.323-1-.8,0-.421.271-.776,1.058-.776h.87v-.167c0-.469-.266-.724-.776-.724a1.4,1.4,0,0,0-.912.323l-.166-.275a1.738,1.738,0,0,1,1.114-.37A.973.973,0,0,1,182.44,296.955Zm-.37.875v-.448h-.859c-.532,0-.7.208-.7.489,0,.318.255.516.693.516A.877.877,0,0,0,182.071,297.83Z" transform="translate(-176.788 -294.788)" fill="#263238"/>
            <path id="Path_90646" data-name="Path 90646" d="M185.289,298.34l.166-.292a1.654,1.654,0,0,0,.974.307c.521,0,.734-.178.734-.448,0-.713-1.776-.151-1.776-1.234,0-.448.386-.782,1.084-.782a1.859,1.859,0,0,1,.969.255l-.161.3a1.406,1.406,0,0,0-.807-.234c-.5,0-.713.193-.713.453,0,.739,1.776.182,1.776,1.234,0,.474-.416.782-1.13.782A1.832,1.832,0,0,1,185.289,298.34Z" transform="translate(-179.012 -294.787)" fill="#263238"/>
            <path id="Path_90647" data-name="Path 90647" d="M189.773,298.34l.167-.292a1.654,1.654,0,0,0,.974.307c.521,0,.735-.178.735-.448,0-.713-1.776-.151-1.776-1.234,0-.448.386-.782,1.084-.782a1.857,1.857,0,0,1,.969.255l-.161.3a1.406,1.406,0,0,0-.807-.234c-.5,0-.713.193-.713.453,0,.739,1.776.182,1.776,1.234,0,.474-.416.782-1.13.782A1.833,1.833,0,0,1,189.773,298.34Z" transform="translate(-180.949 -294.787)" fill="#263238"/>
            <path id="Path_90648" data-name="Path 90648" d="M198.5,295.929l-1.037,2.739h-.349l-.865-2.245-.864,2.245h-.349L194,295.929h.354l.859,2.328.88-2.328h.318l.875,2.328.87-2.328Z" transform="translate(-182.775 -294.803)" fill="#263238"/>
            <path id="Path_90649" data-name="Path 90649" d="M202.273,297.282a1.394,1.394,0,1,1,1.4,1.4A1.347,1.347,0,0,1,202.273,297.282Zm2.412,0a1.019,1.019,0,1,0-1.016,1.068A1,1,0,0,0,204.685,297.282Z" transform="translate(-186.349 -294.787)" fill="#263238"/>
            <path id="Path_90650" data-name="Path 90650" d="M209.89,295.892v.36c-.031,0-.062-.005-.089-.005a.886.886,0,0,0-.922,1.01v1.4h-.37v-2.739h.354v.536A1.032,1.032,0,0,1,209.89,295.892Z" transform="translate(-189.044 -294.787)" fill="#263238"/>
            <path id="Path_90651" data-name="Path 90651" d="M214.358,293.947v3.865H214v-.542a1.186,1.186,0,0,1-1.057.568,1.394,1.394,0,0,1,0-2.786,1.2,1.2,0,0,1,1.042.542v-1.646h.37Zm-.364,2.5a1.02,1.02,0,1,0-1.016,1.068A1,1,0,0,0,213.994,296.442Z" transform="translate(-190.371 -293.947)" fill="#263238"/>
          </g>
        </g>
        <rect id="Rectangle_6997" data-name="Rectangle 6997" width="74.313" height="12.725" transform="translate(17.811 101.771)" opacity="0.2"/>
        <g id="Group_35525" data-name="Group 35525" transform="translate(34.169 94.056)" opacity="0.5">
          <path id="Path_90652" data-name="Path 90652" d="M197.592,320.493h-1.213l-.261.582h-.24l1-2.178h.227l1,2.178h-.243Zm-.083-.187-.523-1.17-.523,1.17Z" transform="translate(-195.878 -318.626)"/>
          <path id="Path_90653" data-name="Path 90653" d="M200.34,318.667h.221v2.308h-.221Z" transform="translate(-197.806 -318.527)"/>
          <path id="Path_90654" data-name="Path 90654" d="M202.639,319.828v.215c-.019,0-.037,0-.053,0a.53.53,0,0,0-.551.6v.834h-.221V319.84h.211v.32A.618.618,0,0,1,202.639,319.828Z" transform="translate(-198.442 -319.028)"/>
          <path id="Path_90655" data-name="Path 90655" d="M205.241,320.727h-1.369a.606.606,0,0,0,.644.57.645.645,0,0,0,.5-.215l.124.143a.865.865,0,0,1-1.49-.566.789.789,0,0,1,.8-.831.78.78,0,0,1,.793.831C205.244,320.677,205.241,320.7,205.241,320.727Zm-1.369-.165h1.16a.581.581,0,0,0-1.16,0Z" transform="translate(-199.236 -319.028)"/>
          <path id="Path_90656" data-name="Path 90656" d="M208.3,320.462v1.014h-.211v-.255a.615.615,0,0,1-.563.271c-.37,0-.6-.193-.6-.476,0-.252.162-.463.632-.463h.52v-.1c0-.28-.158-.433-.463-.433a.832.832,0,0,0-.545.193l-.1-.165a1.04,1.04,0,0,1,.666-.221A.581.581,0,0,1,208.3,320.462Zm-.221.523v-.268h-.513c-.317,0-.42.125-.42.293,0,.19.153.308.414.308A.524.524,0,0,0,208.08,320.986Z" transform="translate(-200.652 -319.028)"/>
          <path id="Path_90657" data-name="Path 90657" d="M211.783,318.667v2.308h-.211v-.323a.709.709,0,0,1-.632.339.833.833,0,0,1,0-1.665.716.716,0,0,1,.622.323v-.983Zm-.218,1.49a.609.609,0,1,0-.607.638A.6.6,0,0,0,211.565,320.157Z" transform="translate(-202.033 -318.527)"/>
          <path id="Path_90658" data-name="Path 90658" d="M215.214,319.85l-.818,1.833c-.137.32-.311.423-.545.423a.558.558,0,0,1-.4-.149l.1-.165a.407.407,0,0,0,.3.124c.146,0,.246-.068.339-.274l.072-.158-.732-1.634h.23l.616,1.391.616-1.391h.218Z" transform="translate(-203.471 -319.038)"/>
          <path id="Path_90659" data-name="Path 90659" d="M219.67,320.462v1.014h-.212v-.255a.614.614,0,0,1-.563.271c-.37,0-.6-.193-.6-.476,0-.252.162-.463.632-.463h.52v-.1c0-.28-.159-.433-.464-.433a.829.829,0,0,0-.544.193l-.1-.165a1.04,1.04,0,0,1,.666-.221A.581.581,0,0,1,219.67,320.462Zm-.221.523v-.268h-.513c-.317,0-.42.125-.42.293,0,.19.153.308.414.308A.524.524,0,0,0,219.449,320.986Z" transform="translate(-205.563 -319.028)"/>
          <path id="Path_90660" data-name="Path 90660" d="M225.91,320.527v.949h-.221v-.928c0-.345-.174-.523-.47-.523a.526.526,0,0,0-.548.591v.859h-.221v-.928c0-.345-.174-.523-.473-.523a.528.528,0,0,0-.548.591v.859h-.221v-1.637h.211v.3a.662.662,0,0,1,.6-.311.587.587,0,0,1,.582.345.712.712,0,0,1,.647-.345A.619.619,0,0,1,225.91,320.527Z" transform="translate(-207.685 -319.028)"/>
          <path id="Path_90661" data-name="Path 90661" d="M230.336,320.727h-1.369a.606.606,0,0,0,.644.57.645.645,0,0,0,.5-.215l.124.143a.865.865,0,0,1-1.49-.566.789.789,0,0,1,.8-.831.78.78,0,0,1,.793.831C230.339,320.677,230.336,320.7,230.336,320.727Zm-1.369-.165h1.16a.581.581,0,0,0-1.16,0Z" transform="translate(-210.078 -319.028)"/>
          <path id="Path_90662" data-name="Path 90662" d="M235.048,320.527v.949h-.221v-.928c0-.345-.174-.523-.47-.523a.526.526,0,0,0-.548.591v.859h-.221v-.928c0-.345-.174-.523-.473-.523a.528.528,0,0,0-.548.591v.859h-.221v-1.637h.211v.3a.662.662,0,0,1,.6-.311.587.587,0,0,1,.582.345.712.712,0,0,1,.647-.345A.619.619,0,0,1,235.048,320.527Z" transform="translate(-211.633 -319.028)"/>
          <path id="Path_90663" data-name="Path 90663" d="M239.822,320.157a.794.794,0,0,1-.815.834.708.708,0,0,1-.632-.339v.323h-.211v-2.308h.221v.983a.715.715,0,0,1,.622-.323A.792.792,0,0,1,239.822,320.157Zm-.221,0a.611.611,0,1,0-.61.638A.6.6,0,0,0,239.6,320.157Z" transform="translate(-214.146 -318.527)"/>
          <path id="Path_90664" data-name="Path 90664" d="M243.18,320.727h-1.369a.606.606,0,0,0,.644.57.645.645,0,0,0,.5-.215l.124.143a.865.865,0,0,1-1.49-.566.789.789,0,0,1,.8-.831.78.78,0,0,1,.793.831C243.183,320.677,243.18,320.7,243.18,320.727Zm-1.369-.165h1.16a.581.581,0,0,0-1.16,0Z" transform="translate(-215.626 -319.028)"/>
          <path id="Path_90665" data-name="Path 90665" d="M246.015,319.828v.215c-.019,0-.037,0-.053,0a.53.53,0,0,0-.551.6v.834h-.221V319.84h.212v.32A.617.617,0,0,1,246.015,319.828Z" transform="translate(-217.182 -319.028)"/>
          <path id="Path_90666" data-name="Path 90666" d="M248.2,319.44c0-.224-.183-.38-.5-.38a.723.723,0,0,0-.594.252l-.165-.125a.952.952,0,0,1,.775-.323c.436,0,.716.208.716.541,0,.532-.569.557-.569,1h-.231C247.636,319.894,248.2,319.847,248.2,319.44Zm-.616,1.474a.163.163,0,0,1,.327,0,.163.163,0,0,1-.327,0Z" transform="translate(-217.94 -318.612)"/>
          <path id="Path_90667" data-name="Path 90667" d="M251.872,318.9h.5v1.768h1.092v.411h-1.6Z" transform="translate(-220.068 -318.626)"/>
          <path id="Path_90668" data-name="Path 90668" d="M254.882,320.6a.921.921,0,1,1,.921.862A.862.862,0,0,1,254.882,320.6Zm1.347,0a.429.429,0,1,0-.426.464A.422.422,0,0,0,256.229,320.6Z" transform="translate(-221.369 -318.99)"/>
          <path id="Path_90669" data-name="Path 90669" d="M260.324,319.765v1.394a.819.819,0,0,1-.94.909,1.38,1.38,0,0,1-.821-.23l.193-.348a1,1,0,0,0,.591.19c.342,0,.492-.156.492-.458v-.072a.689.689,0,0,1-.529.208.81.81,0,1,1,0-1.618.673.673,0,0,1,.554.24v-.215Zm-.479.784a.441.441,0,1,0-.438.411A.407.407,0,0,0,259.845,320.549Z" transform="translate(-222.92 -318.99)"/>
          <path id="Path_90670" data-name="Path 90670" d="M263.976,318.691a.277.277,0,0,1,.3-.271.272.272,0,0,1,.3.262.3.3,0,0,1-.6.009Zm.059.5h.485v1.674h-.485Z" transform="translate(-225.298 -318.42)"/>
          <path id="Path_90671" data-name="Path 90671" d="M267.442,320.481v.959h-.485v-.884c0-.271-.124-.395-.339-.395-.233,0-.4.143-.4.451v.828h-.485v-1.674h.464v.2a.733.733,0,0,1,.554-.221A.656.656,0,0,1,267.442,320.481Z" transform="translate(-226.056 -318.991)"/>
        </g>
        <rect id="Rectangle_6998" data-name="Rectangle 6998" width="74.313" height="12.725" transform="translate(17.811 100.992)" fill="#407bff"/>
        <g id="Group_35526" data-name="Group 35526" transform="translate(42.46 104.62)">
          <path id="Path_90672" data-name="Path 90672" d="M213.387,342l-.939-1.338c-.087.006-.181.012-.274.012H211.1V342h-.623v-4.356h1.7c1.133,0,1.817.573,1.817,1.518a1.375,1.375,0,0,1-.958,1.376L214.065,342Zm-.019-2.838c0-.622-.417-.977-1.213-.977H211.1v1.96h1.058C212.951,340.146,213.368,339.785,213.368,339.163Z" transform="translate(-210.475 -337.29)" fill="#fff"/>
          <path id="Path_90673" data-name="Path 90673" d="M221.028,341.331h-2.676a1.117,1.117,0,0,0,1.2.964,1.233,1.233,0,0,0,.952-.4l.33.386a1.8,1.8,0,0,1-3.074-1.151,1.615,1.615,0,0,1,1.656-1.68,1.59,1.59,0,0,1,1.63,1.7C221.04,341.2,221.034,341.275,221.028,341.331Zm-2.676-.429h2.116a1.065,1.065,0,0,0-2.116,0Z" transform="translate(-213.62 -338.071)" fill="#fff"/>
          <path id="Path_90674" data-name="Path 90674" d="M227.925,339.483v2.85a1.5,1.5,0,0,1-1.711,1.693,2.438,2.438,0,0,1-1.574-.492l.286-.461a2.013,2.013,0,0,0,1.269.429c.778,0,1.133-.361,1.133-1.108v-.261a1.508,1.508,0,0,1-1.189.51,1.6,1.6,0,1,1,0-3.192,1.5,1.5,0,0,1,1.219.541v-.51h.566Zm-.586,1.562a1.137,1.137,0,1,0-1.133,1.077A1.053,1.053,0,0,0,227.339,341.045Z" transform="translate(-216.519 -338.071)" fill="#fff"/>
          <path id="Path_90675" data-name="Path 90675" d="M232.379,337.412a.393.393,0,0,1,.4-.392.389.389,0,1,1-.4.392Zm.106,1.021h.6v3.3h-.6Z" transform="translate(-219.938 -337.02)" fill="#fff"/>
          <path id="Path_90676" data-name="Path 90676" d="M234.891,342.433l.249-.473a2.117,2.117,0,0,0,1.158.342c.554,0,.784-.168.784-.448,0-.741-2.085-.1-2.085-1.412,0-.591.529-.989,1.375-.989a2.4,2.4,0,0,1,1.2.3l-.255.473a1.721,1.721,0,0,0-.952-.261c-.523,0-.778.193-.778.454,0,.778,2.091.143,2.091,1.425,0,.6-.548.977-1.425.977A2.387,2.387,0,0,1,234.891,342.433Z" transform="translate(-221.023 -338.071)" fill="#fff"/>
          <path id="Path_90677" data-name="Path 90677" d="M242.611,342.063a1.127,1.127,0,0,1-.722.23.941.941,0,0,1-1.045-1.033V339.45h-.56v-.491h.56v-.722h.6v.722h.946v.491h-.946v1.786a.486.486,0,0,0,.516.554.755.755,0,0,0,.467-.156Z" transform="translate(-223.353 -337.546)" fill="#fff"/>
          <path id="Path_90678" data-name="Path 90678" d="M248.2,341.331h-2.676a1.117,1.117,0,0,0,1.2.964,1.233,1.233,0,0,0,.952-.4l.33.386a1.8,1.8,0,0,1-3.074-1.151,1.615,1.615,0,0,1,1.656-1.68,1.59,1.59,0,0,1,1.63,1.7C248.207,341.2,248.2,341.275,248.2,341.331Zm-2.676-.429h2.116a1.065,1.065,0,0,0-2.116,0Z" transform="translate(-225.357 -338.071)" fill="#fff"/>
          <path id="Path_90679" data-name="Path 90679" d="M253.941,339.452v.579a1.039,1.039,0,0,0-.137-.006.984.984,0,0,0-1.039,1.114v1.643h-.6v-3.3h.573v.554A1.259,1.259,0,0,1,253.941,339.452Z" transform="translate(-228.487 -338.071)" fill="#fff"/>
        </g>
        <g id="Group_35527" data-name="Group 35527" transform="translate(41.959 9.465)" opacity="0.6">
          <path id="Path_90680" data-name="Path 90680" d="M209.593,174.354l.252-.532a2.454,2.454,0,0,0,1.574.552c.824,0,1.179-.32,1.179-.736,0-1.165-2.888-.429-2.888-2.2,0-.736.572-1.362,1.826-1.362a2.806,2.806,0,0,1,1.533.423l-.225.545a2.461,2.461,0,0,0-1.308-.389c-.811,0-1.158.341-1.158.756,0,1.165,2.888.436,2.888,2.187,0,.729-.586,1.356-1.846,1.356A2.834,2.834,0,0,1,209.593,174.354Z" transform="translate(-209.593 -169.743)" fill="#263238"/>
          <path id="Path_90681" data-name="Path 90681" d="M217.441,169.918a.43.43,0,0,1,.442-.429.426.426,0,1,1-.442.429Zm.116,1.117h.654v3.611h-.654Z" transform="translate(-212.983 -169.489)" fill="#263238"/>
          <path id="Path_90682" data-name="Path 90682" d="M224.192,172.185v3.12a1.641,1.641,0,0,1-1.873,1.853,2.673,2.673,0,0,1-1.724-.538l.314-.5a2.2,2.2,0,0,0,1.39.47c.851,0,1.24-.395,1.24-1.213v-.286a1.651,1.651,0,0,1-1.3.559,1.749,1.749,0,1,1,0-3.495,1.649,1.649,0,0,1,1.335.592v-.558Zm-.64,1.71a1.245,1.245,0,1,0-1.24,1.179A1.153,1.153,0,0,0,223.552,173.9Z" transform="translate(-214.264 -170.639)" fill="#263238"/>
          <path id="Path_90683" data-name="Path 90683" d="M232.7,173.718V175.8h-.654v-2c0-.709-.354-1.056-.974-1.056a1.072,1.072,0,0,0-1.145,1.2v1.86h-.654v-3.611h.627v.545a1.549,1.549,0,0,1,1.3-.579A1.4,1.4,0,0,1,232.7,173.718Z" transform="translate(-218.095 -170.639)" fill="#263238"/>
          <path id="Path_90684" data-name="Path 90684" d="M244.011,172.211v3.611h-.62v-.545a1.468,1.468,0,0,1-1.226.586,1.419,1.419,0,0,1-1.553-1.574V172.21h.654v2c0,.709.354,1.063.974,1.063a1.063,1.063,0,0,0,1.117-1.2V172.21h.654Z" transform="translate(-222.994 -170.665)" fill="#263238"/>
          <path id="Path_90685" data-name="Path 90685" d="M252.537,173.991a1.754,1.754,0,0,1-1.826,1.846,1.544,1.544,0,0,1-1.26-.586v1.866H248.8v-4.932h.627v.572a1.537,1.537,0,0,1,1.288-.606A1.752,1.752,0,0,1,252.537,173.991Zm-.661,0a1.217,1.217,0,1,0-1.219,1.274A1.193,1.193,0,0,0,251.875,173.991Z" transform="translate(-226.53 -170.639)" fill="#263238"/>
        </g>
        <g id="Group_35529" data-name="Group 35529" transform="translate(17.811 41.304)">
          <rect id="Rectangle_6999" data-name="Rectangle 6999" width="74.313" height="12.725" fill="#fff"/>
          <g id="Group_35528" data-name="Group 35528" transform="translate(4.067 4.288)" opacity="0.4">
            <path id="Path_90686" data-name="Path 90686" d="M174.237,233.093h.386v3.312h2.042v.333h-2.427v-3.646Z" transform="translate(-174.237 -233.093)" fill="#263238"/>
            <path id="Path_90687" data-name="Path 90687" d="M181.412,235.715v1.7h-.354v-.427a1.029,1.029,0,0,1-.943.453c-.62,0-1-.323-1-.8,0-.421.271-.776,1.058-.776h.87V235.7c0-.469-.266-.724-.776-.724a1.4,1.4,0,0,0-.912.323l-.167-.276a1.738,1.738,0,0,1,1.114-.37A.972.972,0,0,1,181.412,235.715Zm-.37.875v-.448h-.859c-.532,0-.7.208-.7.49,0,.318.255.515.693.515A.877.877,0,0,0,181.043,236.59Z" transform="translate(-176.344 -233.767)" fill="#263238"/>
            <path id="Path_90688" data-name="Path 90688" d="M184.261,237.1l.167-.292a1.654,1.654,0,0,0,.974.307c.521,0,.735-.177.735-.448,0-.713-1.776-.151-1.776-1.234,0-.448.386-.782,1.084-.782a1.861,1.861,0,0,1,.968.255l-.161.3a1.4,1.4,0,0,0-.807-.235c-.5,0-.713.193-.713.453,0,.739,1.776.182,1.776,1.235,0,.474-.416.781-1.13.781A1.829,1.829,0,0,1,184.261,237.1Z" transform="translate(-178.568 -233.766)" fill="#263238"/>
            <path id="Path_90689" data-name="Path 90689" d="M190.534,236.806a.882.882,0,0,1-.578.193.726.726,0,0,1-.8-.8v-1.656h-.49v-.312h.49v-.6h.37v.6h.833v.312h-.833v1.636a.439.439,0,0,0,.474.5.611.611,0,0,0,.406-.14Z" transform="translate(-180.47 -233.327)" fill="#263238"/>
            <path id="Path_90690" data-name="Path 90690" d="M198.726,233.093v3.646h-.318l-2.344-2.959v2.959h-.386v-3.646H196l2.349,2.959v-2.959Z" transform="translate(-183.5 -233.093)" fill="#263238"/>
            <path id="Path_90691" data-name="Path 90691" d="M204.891,235.715v1.7h-.354v-.427a1.029,1.029,0,0,1-.943.453c-.62,0-1-.323-1-.8,0-.421.271-.776,1.058-.776h.87V235.7c0-.469-.266-.724-.776-.724a1.4,1.4,0,0,0-.912.323l-.166-.276a1.737,1.737,0,0,1,1.114-.37A.972.972,0,0,1,204.891,235.715Zm-.37.875v-.448h-.859c-.532,0-.7.208-.7.49,0,.318.255.515.693.515A.877.877,0,0,0,204.521,236.59Z" transform="translate(-186.488 -233.767)" fill="#263238"/>
            <path id="Path_90692" data-name="Path 90692" d="M212.929,235.824v1.589h-.37v-1.552c0-.579-.292-.875-.787-.875a.881.881,0,0,0-.917.989v1.438h-.37v-1.552c0-.579-.292-.875-.792-.875a.883.883,0,0,0-.917.989v1.438h-.37v-2.739h.354v.5a1.109,1.109,0,0,1,1.005-.521.984.984,0,0,1,.974.579,1.194,1.194,0,0,1,1.084-.579A1.034,1.034,0,0,1,212.929,235.824Z" transform="translate(-188.999 -233.767)" fill="#263238"/>
            <path id="Path_90693" data-name="Path 90693" d="M220.333,236.157h-2.292a1.015,1.015,0,0,0,1.078.954,1.08,1.08,0,0,0,.839-.36l.208.24a1.448,1.448,0,0,1-2.495-.948,1.319,1.319,0,0,1,1.339-1.391,1.306,1.306,0,0,1,1.328,1.391C220.339,236.074,220.333,236.116,220.333,236.157Zm-2.292-.277h1.943a.974.974,0,0,0-1.943,0Z" transform="translate(-193.002 -233.767)" fill="#263238"/>
          </g>
        </g>
        <g id="Group_35531" data-name="Group 35531" transform="translate(17.811 23.922)">
          <rect id="Rectangle_7000" data-name="Rectangle 7000" width="74.313" height="12.725" fill="#fff"/>
          <g id="Group_35530" data-name="Group 35530" transform="translate(4.066 4.069)" opacity="0.4">
            <path id="Path_90694" data-name="Path 90694" d="M174.622,202.823v1.432h1.886v.333h-1.886v1.547h-.386V202.49h2.5v.333h-2.115Z" transform="translate(-174.236 -202.271)" fill="#263238"/>
            <path id="Path_90695" data-name="Path 90695" d="M179.667,202.365a.267.267,0,0,1,.271-.26.263.263,0,0,1,.271.256.266.266,0,0,1-.271.271A.269.269,0,0,1,179.667,202.365Zm.083.864h.37v2.74h-.37Z" transform="translate(-176.582 -202.105)" fill="#263238"/>
            <path id="Path_90696" data-name="Path 90696" d="M183.66,204.048v.36c-.031,0-.062-.005-.089-.005a.886.886,0,0,0-.922,1.01v1.4h-.37v-2.74h.354v.537A1.033,1.033,0,0,1,183.66,204.048Z" transform="translate(-177.711 -202.944)" fill="#263238"/>
            <path id="Path_90697" data-name="Path 90697" d="M185.251,206.5l.166-.292a1.654,1.654,0,0,0,.974.307c.521,0,.734-.177.734-.448,0-.713-1.776-.151-1.776-1.234,0-.448.386-.782,1.084-.782a1.858,1.858,0,0,1,.969.255l-.161.3a1.406,1.406,0,0,0-.807-.235c-.5,0-.713.193-.713.453,0,.74,1.776.182,1.776,1.234,0,.474-.416.782-1.13.782A1.828,1.828,0,0,1,185.251,206.5Z" transform="translate(-178.995 -202.944)" fill="#263238"/>
            <path id="Path_90698" data-name="Path 90698" d="M191.524,206.2a.882.882,0,0,1-.578.193.726.726,0,0,1-.8-.8v-1.656h-.49v-.312h.49v-.6h.37v.6h.833v.312h-.833v1.635a.439.439,0,0,0,.474.5.614.614,0,0,0,.406-.14Z" transform="translate(-180.897 -202.505)" fill="#263238"/>
            <path id="Path_90699" data-name="Path 90699" d="M199.716,202.489v3.646H199.4l-2.344-2.959v2.959h-.386v-3.646h.318l2.349,2.959v-2.959Z" transform="translate(-183.927 -202.271)" fill="#263238"/>
            <path id="Path_90700" data-name="Path 90700" d="M205.881,205.111v1.7h-.354v-.427a1.029,1.029,0,0,1-.943.453c-.62,0-1-.323-1-.8,0-.422.271-.776,1.058-.776h.87V205.1c0-.469-.266-.724-.776-.724a1.394,1.394,0,0,0-.912.323l-.166-.276a1.738,1.738,0,0,1,1.114-.37A.973.973,0,0,1,205.881,205.111Zm-.37.875v-.448h-.859c-.532,0-.7.208-.7.49,0,.318.255.516.693.516A.876.876,0,0,0,205.511,205.986Z" transform="translate(-186.915 -202.945)" fill="#263238"/>
            <path id="Path_90701" data-name="Path 90701" d="M213.919,205.22v1.589h-.37v-1.552c0-.578-.292-.875-.787-.875a.881.881,0,0,0-.917.989v1.438h-.37v-1.552c0-.578-.292-.875-.792-.875a.883.883,0,0,0-.917.989v1.438h-.37v-2.74h.354v.5a1.107,1.107,0,0,1,1.005-.521.984.984,0,0,1,.974.578,1.194,1.194,0,0,1,1.084-.578A1.034,1.034,0,0,1,213.919,205.22Z" transform="translate(-189.427 -202.944)" fill="#263238"/>
            <path id="Path_90702" data-name="Path 90702" d="M221.324,205.554h-2.292a1.014,1.014,0,0,0,1.078.953,1.081,1.081,0,0,0,.839-.36l.208.24a1.448,1.448,0,0,1-2.495-.948A1.319,1.319,0,0,1,220,204.048a1.306,1.306,0,0,1,1.328,1.391C221.329,205.47,221.324,205.512,221.324,205.554Zm-2.292-.277h1.943a.973.973,0,0,0-1.943,0Z" transform="translate(-193.429 -202.944)" fill="#263238"/>
          </g>
        </g>
      </g>
    </g>
    <g id="Speech_bubble" transform="translate(179.264 71.788)">
      <g id="Group_35547" data-name="Group 35547">
        <g id="Group_35543" data-name="Group 35543">
          <path id="Path_90728" data-name="Path 90728" d="M382.388,99.306H366.071a5.024,5.024,0,0,0-5.024,5.024v14.2a5.025,5.025,0,0,0,5.024,5.024h4.764l-1.152,4.484,4.531-4.484h8.174a5.024,5.024,0,0,0,5.024-5.024v-14.2A5.024,5.024,0,0,0,382.388,99.306Z" transform="translate(-361.047 -99.306)" fill="#407bff"/>
          <path id="Path_90729" data-name="Path 90729" d="M382.388,99.306H366.071a5.024,5.024,0,0,0-5.024,5.024v14.2a5.025,5.025,0,0,0,5.024,5.024h4.764l-1.152,4.484,4.531-4.484h8.174a5.024,5.024,0,0,0,5.024-5.024v-14.2A5.024,5.024,0,0,0,382.388,99.306Z" transform="translate(-361.047 -99.306)" fill="#fff" opacity="0.7"/>
        </g>
        <g id="Group_35546" data-name="Group 35546" transform="translate(1.728 0.612)">
          <g id="Group_35544" data-name="Group 35544" transform="translate(0 0)">
            <circle id="Ellipse_11" data-name="Ellipse 11" cx="8.098" cy="8.098" r="8.098" transform="translate(0 11.453) rotate(-45)" fill="#407bff"/>
          </g>
          <g id="Group_35545" data-name="Group 35545" transform="translate(6.683 7.834)">
            <path id="Path_90730" data-name="Path 90730" d="M379.777,121.411a.744.744,0,0,1-.567-.262l-3.177-3.744a.744.744,0,0,1,1.135-.963l2.61,3.075,4.31-5.078a.744.744,0,0,1,1.135.963l-4.877,5.747A.746.746,0,0,1,379.777,121.411Z" transform="translate(-375.856 -114.176)" fill="#fff"/>
          </g>
        </g>
      </g>
    </g>
    <g id="Character" transform="translate(139.777 99.238)">
      <g id="Group_35558" data-name="Group 35558" transform="translate(0 0)">
        <g id="Group_35548" data-name="Group 35548" transform="translate(30.981 29.825)">
          <path id="Path_90731" data-name="Path 90731" d="M373.092,230.482s-9.891-1.245-24.872,2.862c0,0-2.412-26.774-2.124-30.451s23.13-2.6,23.13-2.6.59,10.716,2.059,17.181S373.845,229.239,373.092,230.482Z" transform="translate(-346.071 -200.145)" fill="#407bff"/>
          <path id="Path_90732" data-name="Path 90732" d="M373.092,230.482s-9.891-1.245-24.872,2.862c0,0-2.412-26.774-2.124-30.451s23.13-2.6,23.13-2.6.59,10.716,2.059,17.181S373.845,229.239,373.092,230.482Z" transform="translate(-346.071 -200.145)" opacity="0.2"/>
        </g>
        <path id="Path_90733" data-name="Path 90733" d="M337.128,402.294l4.033,1.142.96-6.276.517-3.357-4.033-1.142-.687,4.5Z" transform="translate(-311.226 -253.491)" fill="#e4897b"/>
        <path id="Path_90734" data-name="Path 90734" d="M377.948,402.788l4.158.551.04-6.015.028-3.737-4.163-.545-.028,4.283Z" transform="translate(-328.861 -253.655)" fill="#e4897b"/>
        <path id="Path_90735" data-name="Path 90735" d="M378.036,393.041l-.028,4.283h4.163l.028-3.737Z" transform="translate(-328.887 -253.655)" opacity="0.2"/>
        <path id="Path_90736" data-name="Path 90736" d="M338.518,397.159h4.2l.517-3.357-4.033-1.142Z" transform="translate(-311.827 -253.491)" opacity="0.2"/>
        <g id="Group_35549" data-name="Group 35549" transform="translate(0 33.563)">
          <path id="Path_90737" data-name="Path 90737" d="M302.563,207.91l-4-1.183.731,4.572s3.635.84,3.989-1.051Z" transform="translate(-294.564 -206.727)" fill="#e4897b"/>
          <path id="Path_90738" data-name="Path 90738" d="M291.525,207.789l1.963,3.717,2.764-.208-.731-4.571Z" transform="translate(-291.525 -206.727)" fill="#e4897b"/>
        </g>
        <path id="Path_90739" data-name="Path 90739" d="M309.885,209.748l-6.574-1.472-.6,3.193,5.969,1.456Z" transform="translate(-296.358 -173.833)" fill="#e4897b"/>
        <path id="Path_90740" data-name="Path 90740" d="M331.507,200.359s-.142.17-.386.46c-.829.971-2.857,3.317-4.936,5.339-1.7,1.647-3.431,3.084-4.555,3.374-3.22.829-14.927-2.618-14.927-2.618l1.21-4.748s10.905,1.448,11.752,1.448c.642,0,7.276-9.61,8.883-10.4Z" transform="translate(-298.082 -167.326)" fill="#407bff"/>
        <path id="Path_90741" data-name="Path 90741" d="M345.939,203.96c-.829.971-2.857,3.317-4.936,5.339a16.676,16.676,0,0,1,3.249-8.315,3,3,0,0,1,.511-.5Z" transform="translate(-312.9 -170.467)" opacity="0.2"/>
        <g id="Group_35550" data-name="Group 35550" transform="translate(16.491 146.906)">
          <path id="Path_90742" data-name="Path 90742" d="M330.02,408.419l4.58-.123a.37.37,0,0,1,.367.275l.962,3.688a.6.6,0,0,1-.576.759c-1.653.016-4.043-.015-6.12.04-2.428.065-3.971-.054-6.819.023-1.721.047-2.262-1.673-1.547-1.849,3.255-.8,5.383-.644,8.155-2.461A1.928,1.928,0,0,1,330.02,408.419Z" transform="translate(-320.56 -407.151)" fill="#263238"/>
          <path id="Path_90743" data-name="Path 90743" d="M334.579,408.9l-.013,0c-.67.152-1.866.349-2.341-.044a.557.557,0,0,1-.2-.476.313.313,0,0,1,.154-.267c.5-.3,2.216.51,2.409.6a.1.1,0,0,1,.056.1A.1.1,0,0,1,334.579,408.9Zm-2.265-.63a.246.246,0,0,0-.036.016.116.116,0,0,0-.059.107.364.364,0,0,0,.131.315,2.7,2.7,0,0,0,1.878.064A4.155,4.155,0,0,0,332.315,408.272Z" transform="translate(-325.511 -407.046)" fill="#407bff"/>
          <path id="Path_90744" data-name="Path 90744" d="M335.334,408.136a.1.1,0,0,1-.073,0c-.514-.212-1.549-1.088-1.49-1.562.014-.111.088-.25.36-.286a.735.735,0,0,1,.557.155,2.839,2.839,0,0,1,.709,1.59.1.1,0,0,1-.038.091A.124.124,0,0,1,335.334,408.136Zm-1.277-1.63c-.081.031-.087.076-.089.093-.036.285.671.975,1.2,1.271a2.338,2.338,0,0,0-.6-1.272.532.532,0,0,0-.41-.115A.46.46,0,0,0,334.057,406.506Z" transform="translate(-326.266 -406.28)" fill="#407bff"/>
        </g>
        <g id="Group_35551" data-name="Group 35551" transform="translate(39.793 146.906)">
          <path id="Path_90745" data-name="Path 90745" d="M371.046,408.419l4.58-.123a.37.37,0,0,1,.367.275l.962,3.688a.6.6,0,0,1-.577.759c-1.653.016-4.043-.015-6.12.04-2.428.065-3.971-.054-6.819.023-1.722.047-2.262-1.673-1.547-1.849,3.255-.8,5.383-.644,8.155-2.461A1.927,1.927,0,0,1,371.046,408.419Z" transform="translate(-361.586 -407.151)" fill="#263238"/>
          <path id="Path_90746" data-name="Path 90746" d="M375.605,408.9l-.013,0c-.671.152-1.866.349-2.341-.044a.557.557,0,0,1-.2-.476.313.313,0,0,1,.155-.267c.5-.3,2.216.51,2.409.6a.1.1,0,0,1,.056.1A.1.1,0,0,1,375.605,408.9Zm-2.265-.63a.244.244,0,0,0-.036.016.115.115,0,0,0-.059.107.364.364,0,0,0,.131.315,2.705,2.705,0,0,0,1.878.064A4.159,4.159,0,0,0,373.341,408.272Z" transform="translate(-366.537 -407.046)" fill="#407bff"/>
          <path id="Path_90747" data-name="Path 90747" d="M376.36,408.136a.1.1,0,0,1-.073,0c-.514-.212-1.549-1.088-1.49-1.562.014-.111.088-.25.36-.286a.734.734,0,0,1,.557.155,2.839,2.839,0,0,1,.709,1.59.1.1,0,0,1-.038.091A.121.121,0,0,1,376.36,408.136Zm-1.277-1.63c-.081.031-.087.076-.089.093-.036.285.671.975,1.2,1.271a2.338,2.338,0,0,0-.6-1.272.531.531,0,0,0-.409-.115A.452.452,0,0,0,375.083,406.506Z" transform="translate(-367.292 -406.28)" fill="#407bff"/>
        </g>
        <path id="Path_90748" data-name="Path 90748" d="M369.228,249.257c2.2,9.551-1.577,84.666-1.577,84.666h-7.305l-3.123-62.6-11.5,62.6-7.807-.569c5.1-48.493,9.616-77.444,9.616-77.444l-.011-3.658Z" transform="translate(-311.564 -191.538)" fill="#263238"/>
        <path id="Path_90749" data-name="Path 90749" d="M337.908,333.357l7.81.568,9.054-49.278,2.448-13.319,3.124,62.6h7.3s3.783-75.116,1.579-84.663l-21.714,2.993.011,3.658S343.014,284.862,337.908,333.357Z" transform="translate(-311.563 -191.54)" fill="#fff" opacity="0.4"/>
        <g id="Group_35552" data-name="Group 35552" transform="translate(30.465 22.267)">
          <path id="Path_90750" data-name="Path 90750" d="M368.426,186.925a91.534,91.534,0,0,0,.348,13.689c.3,3.178.726,6.184,1.175,8.9,1.05,6.356,2.243,11.12,2.413,12.782-3.182.44-15.174,2.1-21.713,2.995-7.918-22.139-4.936-35.025-4.936-35.025a42.6,42.6,0,0,1,4.98-1.7c.357-.1.723-.189,1.1-.275a80.958,80.958,0,0,1,9.231-1.274c.587-.052,1.184-.09,1.767-.117C365.752,186.757,368.426,186.925,368.426,186.925Z" transform="translate(-345.162 -186.839)" fill="#263238"/>
        </g>
        <g id="Group_35553" data-name="Group 35553" transform="translate(37.735 12.39)">
          <path id="Path_90751" data-name="Path 90751" d="M362.334,169.45c.159,3.041.482,8.742,3.008,10.188a6.664,6.664,0,0,1-4.976,3.3,2.086,2.086,0,0,1-2.4-2.308c1.489-1.113,1.131-2.992,0-5.111Z" transform="translate(-357.962 -169.45)" fill="#e4897b"/>
          <path id="Path_90752" data-name="Path 90752" d="M360.555,173.809l-2.588,3.59a9.622,9.622,0,0,1,.682,1.534c1.2-.478,2.561-2.247,2.367-3.573A4.486,4.486,0,0,0,360.555,173.809Z" transform="translate(-357.964 -171.333)" opacity="0.2"/>
        </g>
        <g id="Group_35554" data-name="Group 35554" transform="translate(29.57)">
          <path id="Path_90753" data-name="Path 90753" d="M346,158.114c-.5,1.576-.224,4.815,1.978,3.762S346.853,155.4,346,158.114Z" transform="translate(-344.538 -151.838)" fill="#263238"/>
          <path id="Path_90754" data-name="Path 90754" d="M357.5,158.379c.242,4.051.591,6.413-1.2,8.705-2.687,3.449-7.891,2.162-9.343-1.747-1.307-3.519-1.483-9.553,2.271-11.6A5.6,5.6,0,0,1,357.5,158.379Z" transform="translate(-344.678 -149.973)" fill="#e4897b"/>
          <path id="Path_90755" data-name="Path 90755" d="M361.158,155.1v-4.526s4.818-.358,4.6,2.108c2.668,1.323,1.407,5.475-2.177,7.51-1.964-1.572-1.74-5.358-1.74-5.358C361.633,154.928,361.4,155.016,361.158,155.1Z" transform="translate(-351.178 -148.897)" fill="#263238"/>
          <path id="Path_90756" data-name="Path 90756" d="M366.737,166.341a3.809,3.809,0,0,1-1.621,2.447c-1.127.742-2.114-.17-2.154-1.451-.036-1.153.507-2.928,1.808-3.156A1.751,1.751,0,0,1,366.737,166.341Z" transform="translate(-351.957 -154.772)" fill="#e4897b"/>
          <path id="Path_90757" data-name="Path 90757" d="M355.029,165.2c.04.328-.1.613-.316.637s-.421-.222-.461-.55.1-.613.316-.637S354.99,164.872,355.029,165.2Z" transform="translate(-348.191 -154.985)" fill="#263238"/>
          <path id="Path_90758" data-name="Path 90758" d="M348.492,165.93c.04.328-.1.613-.316.637s-.421-.222-.461-.55.1-.613.316-.637S348.452,165.6,348.492,165.93Z" transform="translate(-345.367 -155.301)" fill="#263238"/>
          <path id="Path_90759" data-name="Path 90759" d="M350.239,166.4a11.379,11.379,0,0,1-1.267,2.881,1.958,1.958,0,0,0,1.593.089Z" transform="translate(-345.913 -155.744)" fill="#de5753"/>
          <path id="Path_90760" data-name="Path 90760" d="M354.74,172.413a3.189,3.189,0,0,1-.424.076.1.1,0,0,1-.108-.085.1.1,0,0,1,.085-.107,2.59,2.59,0,0,0,2-1.252.1.1,0,0,1,.174.087A2.69,2.69,0,0,1,354.74,172.413Z" transform="translate(-348.175 -157.726)" fill="#263238"/>
          <path id="Path_90761" data-name="Path 90761" d="M356.066,162.561a.2.2,0,0,1-.189-.055,1.566,1.566,0,0,0-1.314-.5.2.2,0,0,1-.228-.155.192.192,0,0,1,.154-.225,1.947,1.947,0,0,1,1.668.619.192.192,0,0,1-.091.321Z" transform="translate(-348.229 -153.671)" fill="#263238"/>
          <path id="Path_90762" data-name="Path 90762" d="M345.814,163.283a.2.2,0,0,1-.232-.252,1.912,1.912,0,0,1,1.254-1.238.2.2,0,0,1,.236.143.192.192,0,0,1-.14.233,1.491,1.491,0,0,0-.983.991A.191.191,0,0,1,345.814,163.283Z" transform="translate(-344.444 -153.749)" fill="#263238"/>
          <path id="Path_90763" data-name="Path 90763" d="M355.706,155.52a11.16,11.16,0,0,1-4.137-2.683s-2.578.674-3.106,1.723a1.282,1.282,0,0,1-.224-1.723s-1.929.407-2.312,1.723a1.612,1.612,0,0,1-.905-1.723,2.173,2.173,0,0,0-1.131,1.723s-2.133-4.438,4.9-5.711a5.221,5.221,0,0,0-1.648-.281s4.909-1.981,8.8-.166S359.133,153.7,355.706,155.52Z" transform="translate(-343.587 -147.636)" fill="#263238"/>
        </g>
        <g id="Group_35555" data-name="Group 35555" transform="translate(46.408 20.306)">
          <path id="Path_90764" data-name="Path 90764" d="M387.743,225.885l-6.81.909s-2.812-19.647-4.05-25.991V187.251l3.561-.937,2.743.937a66.409,66.409,0,0,1,1.744,8.293c.335,2.124.636,4.4.9,6.7.369,3.135.676,6.327.937,9.315.409,4.822.682,9.093.829,11.695C387.7,224.908,387.743,225.885,387.743,225.885Z" transform="translate(-374.809 -184.651)" fill="#407bff"/>
          <path id="Path_90765" data-name="Path 90765" d="M375.306,199.537s.566-9.558,3.562-14.489c0,0-.075-1.411-.674-1.636s-2.888,1.123-2.888,1.123-1.427-.974-1.741-.524S372.493,187.5,375.306,199.537Z" transform="translate(-373.232 -183.386)" fill="#407bff"/>
          <path id="Path_90766" data-name="Path 90766" d="M375.306,199.537s.566-9.558,3.562-14.489c0,0-.075-1.411-.674-1.636s-2.888,1.123-2.888,1.123-1.427-.974-1.741-.524S372.493,187.5,375.306,199.537Z" transform="translate(-373.232 -183.386)" fill="#fff" opacity="0.7"/>
        </g>
        <g id="Group_35556" data-name="Group 35556" transform="translate(30.269 22.905)">
          <path id="Path_90767" data-name="Path 90767" d="M347.533,230.052l.778.562s-1.125-6.335-.67-22.352c.023-.772.051-1.517.08-2.227.579-13.552,2.681-16.017,2.817-16.165l-1.965.67-3.561,1.227C343.96,203.332,347.533,230.052,347.533,230.052Z" transform="translate(-344.817 -188.787)" fill="#407bff"/>
          <path id="Path_90768" data-name="Path 90768" d="M349.007,202.88s-1.967-9.289-1.382-12.491,2.682-1.78,2.682-1.78,1.927-1.555,2.5.159C352.806,188.768,350.161,190.631,349.007,202.88Z" transform="translate(-345.983 -187.963)" fill="#407bff"/>
          <path id="Path_90769" data-name="Path 90769" d="M349.007,202.88s-1.967-9.289-1.382-12.491,2.682-1.78,2.682-1.78,1.927-1.555,2.5.159C352.806,188.768,350.161,190.631,349.007,202.88Z" transform="translate(-345.983 -187.963)" fill="#fff" opacity="0.7"/>
        </g>
        <path id="Path_90770" data-name="Path 90770" d="M390.137,209.261c-2.908-1.63-3.294-5.884-3.294-5.884.176-.068,1.255-.437,2.391-.812C389.569,204.688,389.87,206.96,390.137,209.261Z" transform="translate(-332.704 -171.366)" opacity="0.2"/>
        <path id="Path_90771" data-name="Path 90771" d="M367.345,296.069l2.448-13.319-.471-7.049S365.964,287.924,367.345,296.069Z" transform="translate(-324.137 -202.962)" opacity="0.2"/>
        <path id="Path_90772" data-name="Path 90772" d="M392.893,242.449c-1.829-.125-3.414-.244-3.414-.244l-.346-7.435a2.64,2.64,0,0,1,1.914-.352,20.908,20.908,0,0,0,1.017-3.663C392.473,235.576,392.745,239.847,392.893,242.449Z" transform="translate(-333.693 -183.544)" opacity="0.2"/>
        <g id="Group_35557" data-name="Group 35557" transform="translate(52.993 22.834)">
          <path id="Path_90773" data-name="Path 90773" d="M394.143,230.741l-3.561,5.718,2.817,1.619,3.346-5.153Z" transform="translate(-387.312 -206.373)" fill="#e4897b"/>
          <path id="Path_90774" data-name="Path 90774" d="M386.477,187.838c2.4.264,12.584,14.246,13.034,18.461s-5.984,11.491-5.984,11.491l-4.3-2.529s4.366-6.708,4.59-8.5-7.978-9.13-7.978-9.13a16.6,16.6,0,0,1-1.009-5.259A5.644,5.644,0,0,1,386.477,187.838Z" transform="translate(-384.825 -187.838)" fill="#407bff"/>
          <path id="Path_90775" data-name="Path 90775" d="M388.134,237.826s3.666.787,5.139,3.089c0,0-1.53,4.8-2.625,5.322a12.784,12.784,0,0,1-3.815.523S386.659,241.421,388.134,237.826Z" transform="translate(-385.69 -209.434)" fill="#407bff"/>
        </g>
      </g>
    </g>
  </g>
</svg>
