<svg xmlns="http://www.w3.org/2000/svg" width="974.84" height="680.845" viewBox="0 0 974.84 680.845">
  <g id="Group_1116" data-name="Group 1116" transform="translate(-1504.103 -2513.486)">
    <g id="Group_1113" data-name="Group 1113" transform="translate(256 1465.852)">
      <g id="Group_1080" data-name="Group 1080" transform="translate(1278.103 1047.634)">
        <g id="Group_38832" data-name="Group 38832" transform="translate(0 0)">
          <path id="Path_95222" data-name="Path 95222" d="M313.558,411.173a95.086,95.086,0,1,1,95.086-95.086A95.086,95.086,0,0,1,313.558,411.173Zm0-186.211a91.124,91.124,0,1,0,91.125,91.124A91.124,91.124,0,0,0,313.558,224.962Z" transform="translate(-248.472 269.672)" fill="#c1e1ff"/>
          <path id="Path_95223" data-name="Path 95223" d="M631.428,366.913a62.956,62.956,0,1,1,62.956-62.956A62.956,62.956,0,0,1,631.428,366.913Zm0-120.666a57.71,57.71,0,1,0,57.71,57.71A57.71,57.71,0,0,0,631.428,246.246Z" transform="translate(171.925 -241)" fill="#c1e1ff"/>
          <path id="Path_95224" data-name="Path 95224" d="M762.572,408.2a28.1,28.1,0,1,1,28.1-28.1A28.1,28.1,0,0,1,762.572,408.2Zm0-54.118A26.018,26.018,0,1,0,788.59,380.1,26.018,26.018,0,0,0,762.572,354.081Z" transform="translate(-700.485 -324.143)" fill="#c1e1ff"/>
        </g>
        <g id="Group_1079" data-name="Group 1079" transform="translate(51.921 43.501)">
          <path id="Path_95239" data-name="Path 95239" d="M567.481,629.144l-11.763-4.38-8.072-52.141H440.185l-8.744,51.93-10.523,4.652a2.137,2.137,0,0,0-1.313,2.483,2.456,2.456,0,0,0,2.43,1.7H566.51a2.443,2.443,0,0,0,2.446-1.773,2.166,2.166,0,0,0-1.477-2.473Z" transform="translate(-105.158 -33.304)" fill="#e6e6e6"/>
          <path id="Path_95240" data-name="Path 95240" d="M1020.521,630.026H272.263a14.806,14.806,0,0,1-14.791-14.787V510H1035.3V615.241a14.806,14.806,0,0,1-14.791,14.786Z" transform="translate(-257.347 -78.613)" fill="#ccc"/>
          <g id="Group_1077" data-name="Group 1077">
            <g id="Group_1078" data-name="Group 1078">
              <g id="Group_931" data-name="Group 931" transform="translate(0 0)">
                <rect id="Rectangle_372" data-name="Rectangle 372" width="777.834" height="433.313" rx="23" transform="translate(0.186 43.276)" fill="#fff"/>
                <g id="Group_894" data-name="Group 894" transform="translate(0 0)">
                  <g id="Group_893" data-name="Group 893">
                    <path id="Rectangle_366" data-name="Rectangle 366" d="M0,0H15.1V439.395H0Z" transform="translate(137.954 39.65)" fill="#e6e6e6"/>
                    <g id="Group_892" data-name="Group 892">
                      <path id="Rectangle_365" data-name="Rectangle 365" d="M18.881,17.775V474.6H759.016V17.775H18.881M18.881,0H759.016C769.444,0,777.9,7.958,777.9,17.775l.207,474.6c0,4.359-.192-.352,0,0H18.881c-10.428,0,13.051-.15-19,0L0,17.775C0,7.958,8.453,0,18.881,0Z" transform="translate(0.123)" fill="#403d56"/>
                    </g>
                    <rect id="Rectangle_367" data-name="Rectangle 367" width="90.236" height="10.828" rx="4" transform="translate(32.671 68.542)" fill="#e6e6e6"/>
                    <rect id="Rectangle_368" data-name="Rectangle 368" width="90.236" height="12.633" rx="4" transform="translate(32.671 90.199)" fill="#e6e6e6"/>
                    <rect id="Rectangle_369" data-name="Rectangle 369" width="90.236" height="12.633" rx="4" transform="translate(32.671 113.66)" fill="#e6e6e6"/>
                    <rect id="Rectangle_370" data-name="Rectangle 370" width="90.236" height="12.633" rx="4" transform="translate(32.671 137.12)" fill="#e6e6e6"/>
                    <rect id="Rectangle_371" data-name="Rectangle 371" width="90.236" height="10.828" rx="4" transform="translate(32.671 443.862)" fill="#e6e6e6"/>
                  </g>
                </g>
              </g>
            </g>
          </g>
        </g>
        <path id="Path_1874" data-name="Path 1874" d="M0,0H740.34V36.524H0Z" transform="translate(70.897 61.366)" fill="#036dd5"/>
        <g id="Group_1081" data-name="Group 1081" transform="translate(87.786 72.065)">
          <ellipse id="Ellipse_8" data-name="Ellipse 8" cx="5.906" cy="6.563" rx="5.906" ry="6.563" transform="translate(0 0)" fill="#fff"/>
          <ellipse id="Ellipse_9" data-name="Ellipse 9" cx="6.563" cy="6.563" rx="6.563" ry="6.563" transform="translate(19.688 0)" fill="#fff"/>
          <ellipse id="Ellipse_10" data-name="Ellipse 10" cx="6.563" cy="6.563" rx="6.563" ry="6.563" transform="translate(40.689 0)" fill="#fff"/>
        </g>
      </g>
    </g>
    <g id="Group_1115" data-name="Group 1115" transform="translate(-533.118 1342)">
      <path id="Rectangle_417" data-name="Rectangle 417" d="M4.276,3.474V179.8h250.16V3.474H4.276M0,0H258.713V183.275H0Z" transform="translate(2294.214 1290)" fill="#e6e6e6"/>
      <path id="Rectangle_417-2" data-name="Rectangle 417" d="M4.662,3.473V180.6H277.414V3.473H4.662M0,0H282.076V184.074H0Z" transform="translate(2575.897 1290)" fill="#e6e6e6"/>
      <g id="noun-pie-chart-7288770" transform="translate(2631.902 1305.103)">
        <path id="Path_1832" data-name="Path 1832" d="M27.873,114.737c.063.094.157.125.219.219A60.567,60.567,0,0,0,59.023,141.1l-3.475,4.6a.654.654,0,0,1-.5.25H37.954a1.55,1.55,0,0,0-1.565,1.565,1.57,1.57,0,0,0,1.565,1.565H55.047a3.781,3.781,0,0,0,3.005-1.5l4.038-5.353a60.034,60.034,0,0,0,18.157,2.817c10.268,0,22.446-2.63,31.368-7.607a1.563,1.563,0,0,0-1.534-2.724c-2.1,1.158-6.292,2.192-8.546,3.1l-8.077-21.727A34.678,34.678,0,0,0,103.7,109.32l15.872,16.936c-1.346,1.284-6.793,6.543-8.3,7.7a1.553,1.553,0,0,0-.282,2.192,1.528,1.528,0,0,0,1.221.626,1.6,1.6,0,0,0,.97-.344c14.9-11.552,27.455-32.965,27.455-51.78A60.424,60.424,0,0,0,101,27.988l3.945-7.169a1.631,1.631,0,0,1,1.377-.783H124.2a1.591,1.591,0,0,0,1.565-1.565,1.57,1.57,0,0,0-1.565-1.565H106.326a4.712,4.712,0,0,0-4.132,2.411L98,26.924a60.229,60.229,0,0,0-36.878.407,1.543,1.543,0,0,0-1,1.972,1.568,1.568,0,0,0,1.972,1,57.343,57.343,0,0,1,16.592-2.88V50.59A34.034,34.034,0,0,0,47.846,73.976a1.569,1.569,0,0,0,2.974,1,31.006,31.006,0,1,1-1.533,9.673,1.57,1.57,0,0,0-1.565-1.565,1.55,1.55,0,0,0-1.565,1.565,33.75,33.75,0,0,0,3.694,15.371l-20,11.771a57.332,57.332,0,0,1-2.192-49.839,1.57,1.57,0,1,0-2.88-1.252,60.3,60.3,0,0,0,3.005,53.72.919.919,0,0,0,.094.313Z" transform="translate(8.974 -7.17)" fill="#403d56"/>
        <path id="Path_1836" data-name="Path 1836" d="M78.443,35.557h32.246a3.12,3.12,0,0,0,3.131-3.131V15.177a3.12,3.12,0,0,0-3.131-3.131H78.443a3.12,3.12,0,0,0-3.131,3.131v17.25A3.12,3.12,0,0,0,78.443,35.557Zm6.136-16.749h19.973a1.57,1.57,0,0,1,1.565,1.565,1.55,1.55,0,0,1-1.565,1.565H84.579a1.57,1.57,0,0,1-1.565-1.565A1.591,1.591,0,0,1,84.579,18.809Zm0,6.856h19.973a1.55,1.55,0,0,1,1.565,1.565,1.57,1.57,0,0,1-1.565,1.565H84.579a1.591,1.591,0,0,1-1.565-1.565A1.57,1.57,0,0,1,84.579,25.665Z" transform="translate(64.625 -12.047)" fill="#036dd5"/>
        <path id="Path_1837" data-name="Path 1837" d="M8.6,99.729H42.628A3.12,3.12,0,0,0,45.759,96.6V79.349a3.12,3.12,0,0,0-3.131-3.131H8.6a3.12,3.12,0,0,0-3.131,3.131V96.6A3.12,3.12,0,0,0,8.6,99.729Zm6.512-16.749H36.086a1.57,1.57,0,0,1,1.565,1.565,1.55,1.55,0,0,1-1.565,1.565H15.111a1.57,1.57,0,0,1-1.565-1.565A1.591,1.591,0,0,1,15.111,82.981Zm0,6.856H36.086A1.55,1.55,0,0,1,37.652,91.4a1.57,1.57,0,0,1-1.565,1.565H15.111A1.591,1.591,0,0,1,13.546,91.4,1.57,1.57,0,0,1,15.111,89.837Z" transform="translate(-5.469 52.355)" fill="#036dd5"/>
        <path id="Path_1838" data-name="Path 1838" d="M14.146,45.911H22.63a3.13,3.13,0,0,0,3.131-3.131v-2a1.565,1.565,0,1,0-3.131,0v2H14.146V31.119H22.63v11.92c0,.869,3.131.869,3.131,0V31.119a3.13,3.13,0,0,0-3.131-3.131H14.146a3.13,3.13,0,0,0-3.131,3.131V42.781A3.13,3.13,0,0,0,14.146,45.911Z" transform="translate(0.098 3.952)" fill="#9acdff"/>
        <path id="Path_1839" data-name="Path 1839" d="M24.146,52.055H32.63a3.14,3.14,0,0,0,3.131-3.131V25.006a3.14,3.14,0,0,0-3.131-3.131H24.146a3.14,3.14,0,0,0-3.131,3.131V48.924A3.14,3.14,0,0,0,24.146,52.055Zm0-27.048H32.63V48.925H24.146Z" transform="translate(10.134 -2.183)" fill="#9acdff"/>
        <path id="Path_1840" data-name="Path 1840" d="M34.154,60.326h8.484A3.13,3.13,0,0,0,45.769,57.2V16.756a3.13,3.13,0,0,0-3.131-3.131H34.154a3.13,3.13,0,0,0-3.131,3.131V53.79c0,.869,3.131.869,3.131,0V16.756h8.484V57.2H34.154V42.083a1.565,1.565,0,1,0-3.131,0V57.2a3.128,3.128,0,0,0,3.131,3.123Z" transform="translate(20.177 -10.463)" fill="#9acdff"/>
      </g>
      <path id="Rectangle_417-3" data-name="Rectangle 417" d="M4.419,2.848v176.2H558.991V2.848H4.419M0,0H563.41V181.893H0Z" transform="translate(2294.192 1490.466)" fill="#e6e6e6"/>
      <g id="Group_1019" data-name="Group 1019" transform="translate(2310.374 1506.53)">
        <g id="Group_1016" data-name="Group 1016" transform="translate(42.888 0.355)">
          <rect id="Rectangle_375" data-name="Rectangle 375" width="53.043" height="4.973" transform="translate(0 0)" fill="#036dd5"/>
        </g>
        <g id="Group_1017" data-name="Group 1017" transform="translate(42.996 18.92)">
          <rect id="Rectangle_376" data-name="Rectangle 376" width="488.052" height="2.189" fill="#bcbcbc"/>
        </g>
        <g id="Group_1018" data-name="Group 1018" transform="translate(42.996 10.848)">
          <rect id="Rectangle_377" data-name="Rectangle 377" width="488.052" height="2.189" fill="#bcbcbc"/>
        </g>
        <rect id="Rectangle_417-4" data-name="Rectangle 417" width="34.39" height="28.791" rx="2" fill="#e6e6e6"/>
      </g>
      <g id="Group_1020" data-name="Group 1020" transform="translate(2310.374 1547.318)">
        <g id="Group_1016-2" data-name="Group 1016" transform="translate(42.888 0.355)">
          <rect id="Rectangle_375-2" data-name="Rectangle 375" width="53.043" height="4.973" transform="translate(0 0)" fill="#9acdff"/>
        </g>
        <g id="Group_1017-2" data-name="Group 1017" transform="translate(42.996 18.92)">
          <rect id="Rectangle_376-2" data-name="Rectangle 376" width="488.052" height="2.189" fill="#bcbcbc"/>
        </g>
        <g id="Group_1018-2" data-name="Group 1018" transform="translate(42.996 10.848)">
          <rect id="Rectangle_377-2" data-name="Rectangle 377" width="488.052" height="2.189" fill="#bcbcbc"/>
        </g>
        <rect id="Rectangle_417-5" data-name="Rectangle 417" width="34.39" height="28.791" rx="2" fill="#e6e6e6"/>
      </g>
      <g id="Group_1021" data-name="Group 1021" transform="translate(2310.374 1588.105)">
        <g id="Group_1016-3" data-name="Group 1016" transform="translate(42.888 0.355)">
          <rect id="Rectangle_375-3" data-name="Rectangle 375" width="53.043" height="4.973" transform="translate(0 0)" fill="#036dd5"/>
        </g>
        <g id="Group_1017-3" data-name="Group 1017" transform="translate(42.996 18.92)">
          <rect id="Rectangle_376-3" data-name="Rectangle 376" width="488.052" height="2.189" fill="#bcbcbc"/>
        </g>
        <g id="Group_1018-3" data-name="Group 1018" transform="translate(42.996 10.848)">
          <rect id="Rectangle_377-3" data-name="Rectangle 377" width="488.052" height="2.189" fill="#bcbcbc"/>
        </g>
        <rect id="Rectangle_417-6" data-name="Rectangle 417" width="34.39" height="28.791" rx="2" fill="#e6e6e6"/>
      </g>
      <g id="Group_1022" data-name="Group 1022" transform="translate(2310.374 1628.893)">
        <g id="Group_1016-4" data-name="Group 1016" transform="translate(42.888 0.355)">
          <rect id="Rectangle_375-4" data-name="Rectangle 375" width="53.043" height="4.973" transform="translate(0 0)" fill="#9acdff"/>
        </g>
        <g id="Group_1017-4" data-name="Group 1017" transform="translate(42.996 18.92)">
          <rect id="Rectangle_376-4" data-name="Rectangle 376" width="488.052" height="2.189" fill="#bcbcbc"/>
        </g>
        <g id="Group_1018-4" data-name="Group 1018" transform="translate(42.996 10.848)">
          <rect id="Rectangle_377-4" data-name="Rectangle 377" width="488.052" height="2.189" fill="#bcbcbc"/>
        </g>
        <rect id="Rectangle_417-7" data-name="Rectangle 417" width="34.39" height="28.791" rx="2" fill="#e6e6e6"/>
      </g>
      <g id="Group_1025" data-name="Group 1025" transform="translate(2311.374 1305.104)">
        <path id="Path_95198" data-name="Path 95198" d="M385.1,492.585c-2.522,0-4.573,1.056-4.573,2.354s2.051,2.353,4.573,2.353H600.718c2.522,0,4.573-1.056,4.573-2.353s-2.051-2.354-4.573-2.354Z" transform="translate(-380.53 -445.462)" fill="#e6e6e6"/>
        <path id="Path_95198-2" data-name="Path 95198" d="M385.1,492.585c-2.522,0-4.573,1.056-4.573,2.354s2.051,2.353,4.573,2.353H600.718c2.522,0,4.573-1.056,4.573-2.353s-2.051-2.354-4.573-2.354Z" transform="translate(-380.53 -405.537)" fill="#e6e6e6"/>
        <path id="Path_95198-3" data-name="Path 95198" d="M385.1,492.585c-2.522,0-4.573,1.056-4.573,2.354s2.051,2.353,4.573,2.353H600.718c2.522,0,4.573-1.056,4.573-2.353s-2.051-2.354-4.573-2.354Z" transform="translate(-380.53 -363.602)" fill="#e6e6e6"/>
        <path id="Path_95199" data-name="Path 95199" d="M385.1,513.924c-2.522,0-4.573,1.056-4.573,2.353s2.051,2.353,4.573,2.353H600.718c2.522,0,4.573-1.056,4.573-2.353s-2.051-2.353-4.573-2.353Z" transform="translate(-380.53 -447.282)" fill="#e6e6e6"/>
        <path id="Path_95199-2" data-name="Path 95199" d="M385.1,513.924c-2.522,0-4.573,1.056-4.573,2.353s2.051,2.353,4.573,2.353H600.718c2.522,0,4.573-1.056,4.573-2.353s-2.051-2.353-4.573-2.353Z" transform="translate(-380.53 -406.471)" fill="#e6e6e6"/>
        <path id="Path_95199-3" data-name="Path 95199" d="M385.1,513.924c-2.522,0-4.573,1.056-4.573,2.353s2.051,2.353,4.573,2.353H600.718c2.522,0,4.573-1.056,4.573-2.353s-2.051-2.353-4.573-2.353Z" transform="translate(-380.53 -366.547)" fill="#e6e6e6"/>
        <rect id="Rectangle_418" data-name="Rectangle 418" width="224.762" height="28.791" rx="2" transform="translate(0 0)" fill="#9acdff"/>
      </g>
    </g>
    <path id="Path_95287" data-name="Path 95287" d="M64.166,59.555,74.6,54.612a76.622,76.622,0,0,0-9.944,22.72A76.571,76.571,0,0,0,50.591,56.908l11.026,2.836C54.823,26.443,29.265,2.536,0,2.536V0C30.584,0,57.237,24.91,64.166,59.555Z" transform="translate(2338.783 2712.418) rotate(-2)" fill="#3f3d56"/>
    <g id="Group_1114" data-name="Group 1114" transform="translate(-575.205 289.057)">
      <g id="Group_1112" data-name="Group 1112" transform="translate(2859.146 2514.173)">
        <g id="Group_1092" data-name="Group 1092" transform="translate(0 0)">
          <g id="Group_1026" data-name="Group 1026">
            <g id="Group_1015" data-name="Group 1015">
              <g id="Group_1002" data-name="Group 1002" transform="translate(2.95 2.818)">
                <g id="Group_961" data-name="Group 961" transform="translate(0 0)">
                  <g id="Group_958" data-name="Group 958">
                    <g id="Group_955" data-name="Group 955">
                      <rect id="Rectangle_408" data-name="Rectangle 408" width="187.828" height="216.364" fill="#f4f9ff"/>
                    </g>
                  </g>
                  <rect id="Rectangle_409" data-name="Rectangle 409" width="186.192" height="17.046" transform="translate(1.311 1.639)" fill="#036dd5"/>
                </g>
              </g>
              <path id="Path_1860" data-name="Path 1860" d="M192.5,0H2.5A2.52,2.52,0,0,0,0,2.536v218.1a2.52,2.52,0,0,0,2.5,2.536h190a2.52,2.52,0,0,0,2.5-2.536V2.536A2.52,2.52,0,0,0,192.5,0ZM190,218.1H5V111.177H190Zm0-109.455H5V5.072H190Z" transform="translate(0)" fill="#403d56"/>
            </g>
            <g id="Group_1085" data-name="Group 1085" transform="translate(13.751 30.101)">
              <path id="Rectangle_417-8" data-name="Rectangle 417" d="M1.311,1.311V67.855H78.017V1.311H1.311M0,0H79.328V69.166H0Z" fill="#e6e6e6"/>
              <path id="Rectangle_417-9" data-name="Rectangle 417" d="M1.311,1.311V68.183H78.017V1.311H1.311M0,0H79.328V69.494H0Z" transform="translate(88.179)" fill="#e6e6e6"/>
              <g id="noun-pie-chart-7288770-2" data-name="noun-pie-chart-7288770" transform="translate(94.998 5.958)">
                <path id="Path_1832-2" data-name="Path 1832" d="M22.836,53.24c.023.035.058.047.081.081A22.494,22.494,0,0,0,34.4,63.03l-1.291,1.709a.243.243,0,0,1-.186.093H26.58a.576.576,0,0,0-.581.581.583.583,0,0,0,.581.581h6.348a1.4,1.4,0,0,0,1.116-.558l1.5-1.988a22.3,22.3,0,0,0,6.744,1.046,25.379,25.379,0,0,0,11.65-2.825.58.58,0,0,0-.57-1.012c-.779.43-2.337.814-3.174,1.151l-3-8.069A12.879,12.879,0,0,0,51,51.228l5.895,6.29c-.5.477-2.523,2.43-3.081,2.86a.577.577,0,0,0-.1.814.568.568,0,0,0,.453.233.593.593,0,0,0,.36-.128c5.534-4.29,10.2-12.243,10.2-19.231A22.441,22.441,0,0,0,50,21.022l1.465-2.663a.606.606,0,0,1,.512-.291h6.639a.591.591,0,0,0,.581-.581.583.583,0,0,0-.581-.581H51.973a1.75,1.75,0,0,0-1.535.9L48.88,20.626a22.369,22.369,0,0,0-13.7.151.573.573,0,0,0-.372.732.582.582,0,0,0,.733.372,21.3,21.3,0,0,1,6.162-1.07v8.6A12.64,12.64,0,0,0,30.254,38.1a.583.583,0,0,0,1.1.372,11.516,11.516,0,1,1-.569,3.593.583.583,0,0,0-.581-.581.576.576,0,0,0-.581.581A12.535,12.535,0,0,0,31,47.775l-7.43,4.372a21.293,21.293,0,0,1-.814-18.51.583.583,0,0,0-1.07-.465A22.4,22.4,0,0,0,22.8,53.123a.341.341,0,0,0,.035.116Z" transform="translate(-9.151 -13.29)" fill="#403d56"/>
                <path id="Path_1836-2" data-name="Path 1836" d="M76.475,20.778H88.451a1.159,1.159,0,0,0,1.163-1.163V13.209a1.159,1.159,0,0,0-1.163-1.163H76.475a1.159,1.159,0,0,0-1.163,1.163v6.406A1.159,1.159,0,0,0,76.475,20.778Zm2.279-6.22h7.418a.583.583,0,0,1,.581.581.576.576,0,0,1-.581.581H78.754a.583.583,0,0,1-.581-.581A.591.591,0,0,1,78.754,14.558Zm0,2.546h7.418a.576.576,0,0,1,.581.581.583.583,0,0,1-.581.581H78.754a.591.591,0,0,1-.581-.581A.583.583,0,0,1,78.754,17.1Z" transform="translate(-23.34 -12.047)" fill="#036dd5"/>
                <path id="Path_1837-2" data-name="Path 1837" d="M6.631,84.95H19.27a1.159,1.159,0,0,0,1.163-1.163V77.381a1.159,1.159,0,0,0-1.163-1.163H6.631a1.159,1.159,0,0,0-1.163,1.163v6.406A1.159,1.159,0,0,0,6.631,84.95ZM9.05,78.73h7.79a.583.583,0,0,1,.581.581.576.576,0,0,1-.581.581H9.05a.583.583,0,0,1-.581-.581A.591.591,0,0,1,9.05,78.73Zm0,2.546h7.79a.576.576,0,0,1,.581.581.583.583,0,0,1-.581.581H9.05a.591.591,0,0,1-.581-.581A.583.583,0,0,1,9.05,81.276Z" transform="translate(-5.469 -28.467)" fill="#036dd5"/>
                <path id="Path_1838-2" data-name="Path 1838" d="M12.178,34.645h3.151a1.162,1.162,0,0,0,1.163-1.163v-.741a.581.581,0,1,0-1.163,0v.741H12.178V29.151h3.151v4.427c0,.323,1.163.323,1.163,0V29.151a1.162,1.162,0,0,0-1.163-1.163H12.178a1.162,1.162,0,0,0-1.163,1.163v4.331A1.162,1.162,0,0,0,12.178,34.645Z" transform="translate(-6.888 -16.126)" fill="#9acdff"/>
                <path id="Path_1839-2" data-name="Path 1839" d="M22.178,33.084h3.151a1.166,1.166,0,0,0,1.163-1.163V23.038a1.166,1.166,0,0,0-1.163-1.163H22.178a1.166,1.166,0,0,0-1.163,1.163v8.883A1.166,1.166,0,0,0,22.178,33.084Zm0-10.046h3.151v8.883H22.178Z" transform="translate(-9.447 -14.561)" fill="#9acdff"/>
                <path id="Path_1840-2" data-name="Path 1840" d="M32.186,30.97h3.151A1.162,1.162,0,0,0,36.5,29.807V14.788a1.162,1.162,0,0,0-1.163-1.163H32.186a1.162,1.162,0,0,0-1.163,1.163V28.542c0,.323,1.163.323,1.163,0V14.788h3.151V29.81H32.186V24.194a.581.581,0,0,0-1.163,0V29.81a1.162,1.162,0,0,0,1.163,1.16Z" transform="translate(-12.008 -12.45)" fill="#9acdff"/>
              </g>
              <path id="Rectangle_417-10" data-name="Rectangle 417" d="M1.313,1.44V90.529H166.051V1.44H1.313M0,0H167.364V91.969H0Z" transform="translate(0.401 89.134)" fill="#e6e6e6"/>
              <g id="Group_1019-2" data-name="Group 1019" transform="translate(7.033 95.719)">
                <g id="Group_1016-5" data-name="Group 1016" transform="translate(17.579 0.145)">
                  <rect id="Rectangle_375-5" data-name="Rectangle 375" width="21.741" height="2.038" transform="translate(0 0)" fill="#036dd5"/>
                </g>
                <g id="Group_1017-5" data-name="Group 1017" transform="translate(17.623 7.755)">
                  <rect id="Rectangle_376-5" data-name="Rectangle 376" width="136.476" height="0.897" fill="#bcbcbc"/>
                </g>
                <g id="Group_1018-5" data-name="Group 1018" transform="translate(17.623 4.446)">
                  <rect id="Rectangle_377-5" data-name="Rectangle 377" width="136.476" height="0.897" fill="#bcbcbc"/>
                </g>
                <rect id="Rectangle_417-11" data-name="Rectangle 417" width="14.096" height="11.801" rx="2" transform="translate(0)" fill="#e6e6e6"/>
              </g>
              <g id="Group_1020-2" data-name="Group 1020" transform="translate(7.033 112.437)">
                <g id="Group_1016-6" data-name="Group 1016" transform="translate(17.579 0.145)">
                  <rect id="Rectangle_375-6" data-name="Rectangle 375" width="21.741" height="2.038" transform="translate(0 0)" fill="#9acdff"/>
                </g>
                <g id="Group_1017-6" data-name="Group 1017" transform="translate(17.623 7.755)">
                  <rect id="Rectangle_376-6" data-name="Rectangle 376" width="136.476" height="0.897" fill="#bcbcbc"/>
                </g>
                <g id="Group_1018-6" data-name="Group 1018" transform="translate(17.623 4.446)">
                  <rect id="Rectangle_377-6" data-name="Rectangle 377" width="136.476" height="0.897" fill="#bcbcbc"/>
                </g>
                <rect id="Rectangle_417-12" data-name="Rectangle 417" width="14.096" height="11.801" rx="2" transform="translate(0)" fill="#e6e6e6"/>
              </g>
              <g id="Group_1021-2" data-name="Group 1021" transform="translate(7.033 129.154)">
                <g id="Group_1016-7" data-name="Group 1016" transform="translate(17.579 0.145)">
                  <rect id="Rectangle_375-7" data-name="Rectangle 375" width="21.741" height="2.038" transform="translate(0 0)" fill="#036dd5"/>
                </g>
                <g id="Group_1017-7" data-name="Group 1017" transform="translate(17.623 7.755)">
                  <rect id="Rectangle_376-7" data-name="Rectangle 376" width="136.476" height="0.897" fill="#bcbcbc"/>
                </g>
                <g id="Group_1018-7" data-name="Group 1018" transform="translate(17.623 4.446)">
                  <rect id="Rectangle_377-7" data-name="Rectangle 377" width="136.476" height="0.897" fill="#bcbcbc"/>
                </g>
                <rect id="Rectangle_417-13" data-name="Rectangle 417" width="14.096" height="11.801" rx="2" transform="translate(0)" fill="#e6e6e6"/>
              </g>
              <g id="Group_1022-2" data-name="Group 1022" transform="translate(7.033 145.872)">
                <g id="Group_1016-8" data-name="Group 1016" transform="translate(17.579 0.145)">
                  <rect id="Rectangle_375-8" data-name="Rectangle 375" width="21.741" height="2.038" transform="translate(0 0)" fill="#9acdff"/>
                </g>
                <g id="Group_1017-8" data-name="Group 1017" transform="translate(17.623 7.755)">
                  <rect id="Rectangle_376-8" data-name="Rectangle 376" width="136.476" height="0.897" fill="#bcbcbc"/>
                </g>
                <g id="Group_1018-8" data-name="Group 1018" transform="translate(17.623 4.446)">
                  <rect id="Rectangle_377-8" data-name="Rectangle 377" width="136.476" height="0.897" fill="#bcbcbc"/>
                </g>
                <rect id="Rectangle_417-14" data-name="Rectangle 417" width="14.096" height="11.801" rx="2" transform="translate(0)" fill="#e6e6e6"/>
              </g>
              <g id="Group_1023" data-name="Group 1023" transform="translate(7.033 162.59)">
                <g id="Group_1016-9" data-name="Group 1016" transform="translate(17.579 0.145)">
                  <rect id="Rectangle_375-9" data-name="Rectangle 375" width="21.741" height="2.038" transform="translate(0 0)" fill="#036dd5"/>
                </g>
                <g id="Group_1017-9" data-name="Group 1017" transform="translate(17.623 7.755)">
                  <rect id="Rectangle_376-9" data-name="Rectangle 376" width="136.476" height="0.897" fill="#bcbcbc"/>
                </g>
                <g id="Group_1018-9" data-name="Group 1018" transform="translate(17.623 4.446)">
                  <rect id="Rectangle_377-9" data-name="Rectangle 377" width="136.476" height="0.897" fill="#bcbcbc"/>
                </g>
                <rect id="Rectangle_417-15" data-name="Rectangle 417" width="14.096" height="11.801" rx="2" transform="translate(0)" fill="#e6e6e6"/>
              </g>
              <g id="Group_1025-2" data-name="Group 1025" transform="translate(7.033 6.191)">
                <path id="Path_95198-4" data-name="Path 95198" d="M381.861,492.585c-.734,0-1.331.433-1.331.965s.6.965,1.331.965h62.751c.734,0,1.331-.433,1.331-.965s-.6-.965-1.331-.965Z" transform="translate(-380.53 -475.174)" fill="#e6e6e6"/>
                <path id="Path_95198-5" data-name="Path 95198" d="M381.861,492.585c-.734,0-1.331.433-1.331.965s.6.965,1.331.965h62.751c.734,0,1.331-.433,1.331-.965s-.6-.965-1.331-.965Z" transform="translate(-380.53 -460.422)" fill="#e6e6e6"/>
                <path id="Path_95198-6" data-name="Path 95198" d="M381.861,492.585c-.734,0-1.331.433-1.331.965s.6.965,1.331.965h62.751c.734,0,1.331-.433,1.331-.965s-.6-.965-1.331-.965Z" transform="translate(-380.53 -445.671)" fill="#e6e6e6"/>
                <path id="Path_95199-4" data-name="Path 95199" d="M381.861,513.924c-.734,0-1.331.433-1.331.965s.6.965,1.331.965h62.751c.734,0,1.331-.433,1.331-.965s-.6-.965-1.331-.965Z" transform="translate(-380.53 -489.301)" fill="#e6e6e6"/>
                <path id="Path_95199-5" data-name="Path 95199" d="M381.861,513.924c-.734,0-1.331.433-1.331.965s.6.965,1.331.965h62.751c.734,0,1.331-.433,1.331-.965s-.6-.965-1.331-.965Z" transform="translate(-380.53 -474.222)" fill="#e6e6e6"/>
                <path id="Path_95199-6" data-name="Path 95199" d="M381.861,513.924c-.734,0-1.331.433-1.331.965s.6.965,1.331.965h62.751c.734,0,1.331-.433,1.331-.965s-.6-.965-1.331-.965Z" transform="translate(-380.53 -459.471)" fill="#e6e6e6"/>
                <rect id="Rectangle_418-2" data-name="Rectangle 418" width="65.413" height="11.801" rx="2" fill="#9acdff"/>
              </g>
            </g>
          </g>
        </g>
      </g>
    </g>
  </g>
</svg>
