<svg xmlns="http://www.w3.org/2000/svg" width="178.375" height="157.931" viewBox="0 0 178.375 157.931">
  <g id="Reports" transform="translate(-16.197 -55)">
    <g id="freepik--background-complete--inject-128" transform="translate(0 55)">
      <rect id="Rectangle_7032" data-name="Rectangle 7032" width="178.375" height="0.106" transform="translate(16.197 138.787)" fill="#ebebeb"/>
      <rect id="Rectangle_7033" data-name="Rectangle 7033" width="14.04" height="0.106" transform="translate(22.238 142.822)" fill="#ebebeb"/>
      <rect id="Rectangle_7034" data-name="Rectangle 7034" width="23.493" height="0.106" transform="translate(72.547 141.674)" fill="#ebebeb"/>
      <rect id="Rectangle_7035" data-name="Rectangle 7035" width="8.135" height="0.106" transform="translate(38.575 145.34)" fill="#ebebeb"/>
      <rect id="Rectangle_7036" data-name="Rectangle 7036" width="18.309" height="0.106" transform="translate(163.399 142.772)" fill="#ebebeb"/>
      <rect id="Rectangle_7037" data-name="Rectangle 7037" width="2.683" height="0.106" transform="translate(185.484 142.772)" fill="#ebebeb"/>
      <rect id="Rectangle_7038" data-name="Rectangle 7038" width="19.856" height="0.106" transform="translate(117.511 144.259)" fill="#ebebeb"/>
      <path id="Path_90867" data-name="Path 90867" d="M122.478,174.881H40.626a2.42,2.42,0,0,1-2.416-2.421V57.4A2.421,2.421,0,0,1,40.626,55h81.852a2.42,2.42,0,0,1,2.422,2.42V172.46a2.42,2.42,0,0,1-2.422,2.421ZM40.626,55.085a2.315,2.315,0,0,0-2.31,2.315V172.46a2.315,2.315,0,0,0,2.31,2.315h81.852a2.319,2.319,0,0,0,2.315-2.315V57.4a2.319,2.319,0,0,0-2.315-2.315Z" transform="translate(-22.013 -55)" fill="#ebebeb"/>
      <path id="Path_90868" data-name="Path 90868" d="M338.777,174.881H256.92a2.425,2.425,0,0,1-2.421-2.421V57.4A2.425,2.425,0,0,1,256.92,55h81.856a2.42,2.42,0,0,1,2.412,2.4V172.46a2.421,2.421,0,0,1-2.411,2.421ZM256.92,55.085a2.319,2.319,0,0,0-2.315,2.315V172.46a2.319,2.319,0,0,0,2.315,2.315h81.856a2.319,2.319,0,0,0,2.315-2.315V57.4a2.319,2.319,0,0,0-2.315-2.315Z" transform="translate(-146.616 -55)" fill="#ebebeb"/>
      <rect id="Rectangle_7039" data-name="Rectangle 7039" width="81.839" height="58.749" transform="translate(44.417 8.22)" fill="#fafafa"/>
      <path id="Path_90869" data-name="Path 90869" d="M237.335,133.143,216.521,74.39H200.9l20.814,58.753Z" transform="translate(-115.737 -66.17)" fill="#fff"/>
      <path id="Path_90870" data-name="Path 90870" d="M151.731,133.143,130.917,74.39h-5.7l20.814,58.753Z" transform="translate(-72.138 -66.17)" fill="#fff"/>
      <path id="Path_90871" data-name="Path 90871" d="M95.085,69.63h89.643a.36.36,0,0,1,.36.365h0a.36.36,0,0,1-.36.36H95.085a.365.365,0,0,1-.365-.36h0a.365.365,0,0,1,.365-.365Z" transform="translate(-54.568 -63.428)" fill="#e0e0e0"/>
      <rect id="Rectangle_7040" data-name="Rectangle 7040" width="0.971" height="59.003" transform="translate(84.853 8.097)" fill="#f0f0f0"/>
      <rect id="Rectangle_7041" data-name="Rectangle 7041" width="0.483" height="59.003" transform="translate(84.366 8.097)" fill="#e0e0e0"/>
      <rect id="Rectangle_7042" data-name="Rectangle 7042" width="0.971" height="82.971" transform="translate(43.853 38.079) rotate(-90)" fill="#f0f0f0"/>
      <path id="Path_90872" data-name="Path 90872" d="M103.45,131.923h0V73h82.967v58.923h0v.971H103.45Zm82,0V74H104.42v57.927Z" transform="translate(-59.597 -65.37)" fill="#f0f0f0"/>
      <rect id="Rectangle_7043" data-name="Rectangle 7043" width="0.483" height="59.881" transform="translate(43.366 7.656)" fill="#e0e0e0"/>
      <path id="Path_90873" data-name="Path 90873" d="M108.026,67.53v68.995H90.51L93.723,67.53Z" transform="translate(-52.142 -62.218)" fill="#ebebeb" opacity="0.5"/>
      <path id="Path_90874" data-name="Path 90874" d="M269.65,67.53v68.995h17.516L283.953,67.53Z" transform="translate(-155.344 -62.218)" fill="#ebebeb" opacity="0.5"/>
      <rect id="Rectangle_7044" data-name="Rectangle 7044" width="6.681" height="54.188" transform="translate(26.248 82.573)" fill="#f0f0f0"/>
      <rect id="Rectangle_7045" data-name="Rectangle 7045" width="73.603" height="2.026" transform="translate(27.533 136.761)" fill="#f0f0f0"/>
      <rect id="Rectangle_7046" data-name="Rectangle 7046" width="69.487" height="54.188" transform="translate(102.42 136.761) rotate(180)" fill="#f5f5f5"/>
      <rect id="Rectangle_7047" data-name="Rectangle 7047" width="6.829" height="1.768" transform="translate(25.409 80.805)" fill="#f0f0f0"/>
      <rect id="Rectangle_7048" data-name="Rectangle 7048" width="71.021" height="1.768" transform="translate(103.255 82.573) rotate(180)" fill="#fafafa"/>
      <path id="Path_90875" data-name="Path 90875" d="M148.034,285.327H83.35V258.54h64.684Zm-64.234-.45h63.785V258.989H83.8Z" transform="translate(-48.017 -172.258)" fill="#e0e0e0"/>
      <path id="Path_90876" data-name="Path 90876" d="M148.034,345.35H83.35v-17.3h64.684ZM83.8,344.9h63.785V328.5H83.8Z" transform="translate(-48.017 -212.302)" fill="#e0e0e0"/>
      <rect id="Rectangle_7049" data-name="Rectangle 7049" width="47.253" height="1.437" rx="0.719" transform="translate(44.048 86.507)" fill="#e0e0e0"/>
      <rect id="Rectangle_7050" data-name="Rectangle 7050" width="47.253" height="1.437" rx="0.719" transform="translate(44.048 115.972)" fill="#e0e0e0"/>
      <rect id="Rectangle_7051" data-name="Rectangle 7051" width="38.864" height="118.575" transform="translate(186.324 136.184) rotate(180)" fill="#f0f0f0"/>
      <rect id="Rectangle_7052" data-name="Rectangle 7052" width="1.234" height="118.575" transform="translate(146.226 17.613)" fill="#e0e0e0"/>
      <rect id="Rectangle_7053" data-name="Rectangle 7053" width="26.253" height="109.529" transform="translate(180.02 131.661) rotate(180)" fill="#fafafa"/>
    </g>
    <g id="freepik--Shadow--inject-128" transform="translate(23.785 203.333)">
      <ellipse id="freepik--path--inject-128" cx="82.191" cy="4.799" rx="82.191" ry="4.799" transform="translate(0 0)" fill="#f5f5f5"/>
    </g>
    <g id="freepik--Character--inject-128" transform="translate(25.37 72.97)">
      <path id="Path_90877" data-name="Path 90877" d="M140.6,394.919l3.319-1.259-2.035-8.02-3.319,1.26Z" transform="translate(-105.193 -263.45)" fill="#e4897b"/>
      <path id="Path_90878" data-name="Path 90878" d="M84.53,396.514h3.548l.534-8.224H85.06Z" transform="translate(-74.067 -264.977)" fill="#e4897b"/>
      <path id="Path_90879" data-name="Path 90879" d="M86.716,406.72H82.388a.292.292,0,0,0-.292.242l-.543,3.154a.555.555,0,0,0,.551.632c1.39-.025,2.4-.106,4.159-.106,1.077,0,4.337.114,5.829.114s1.611-1.475.992-1.611a14.8,14.8,0,0,1-5.782-2.209A.907.907,0,0,0,86.716,406.72Z" transform="translate(-72.349 -275.594)" fill="#263238"/>
      <path id="Path_90880" data-name="Path 90880" d="M145.59,402.414l-3.624,1.373a.314.314,0,0,0-.2.335l.466,3.2a.513.513,0,0,0,.7.424c1.3-.517,2.4-1.174,4.057-1.768a27.442,27.442,0,0,0,5.418-2.437c1.229-.78.712-2.264.131-2.031-2.637,1.06-3.285,1.407-6.053.873A1.64,1.64,0,0,0,145.59,402.414Z" transform="translate(-107.039 -272.576)" fill="#263238"/>
      <path id="Path_90881" data-name="Path 90881" d="M122.294,152.49c1.115,1.975,2.293,4.01,3.48,5.977s2.4,3.934,3.7,5.765c.309.462.657.907.971,1.335a1.072,1.072,0,0,0,.276.322,1.047,1.047,0,0,0,.644.1,4.555,4.555,0,0,0,1.183-.284,14.319,14.319,0,0,0,2.738-1.433c.458-.3.924-.61,1.378-.941s.911-.687,1.327-1l1.988,1.772a18.762,18.762,0,0,1-1.166,1.513,18.327,18.327,0,0,1-1.272,1.4,16.534,16.534,0,0,1-1.454,1.3,12.114,12.114,0,0,1-1.7,1.162,8.44,8.44,0,0,1-2.153.877,5.727,5.727,0,0,1-2.861,0,5.388,5.388,0,0,1-2.615-1.649c-.424-.492-.848-.954-1.229-1.441a65.976,65.976,0,0,1-4.277-5.956c-1.314-2.043-2.543-4.091-3.671-6.27Z" transform="translate(-93.107 -129.134)" fill="#e4897b"/>
      <path id="Path_90882" data-name="Path 90882" d="M113.714,149.1c-.954,3.256,5.782,12.132,5.782,12.132l6.782-4.37a43.264,43.264,0,0,0-4.71-7.986C118.8,145.335,114.766,145.526,113.714,149.1Z" transform="translate(-90.827 -125.578)" fill="#407bff"/>
      <path id="Path_90883" data-name="Path 90883" d="M113.714,149.1c-.954,3.256,5.782,12.132,5.782,12.132l6.782-4.37a43.264,43.264,0,0,0-4.71-7.986C118.8,145.335,114.766,145.526,113.714,149.1Z" transform="translate(-90.827 -125.578)" opacity="0.2"/>
      <path id="Path_90884" data-name="Path 90884" d="M119.952,161.8c1.4.6,3.455,3.964,4.527,6.46l-2.887,1.852a54.518,54.518,0,0,1-4.332-6.782C118.171,162.316,119.214,161.485,119.952,161.8Z" transform="translate(-92.923 -134.458)" opacity="0.2"/>
      <path id="Path_90885" data-name="Path 90885" d="M164.73,173.569l1.246-3.489,3.531,1.7s-.733,3.107-3.319,3.1Z" transform="translate(-120.27 -139.267)" fill="#e4897b"/>
      <path id="Path_90886" data-name="Path 90886" d="M170.811,164.67l1.5,1.649L171.2,168.65l-3.531-1.687Z" transform="translate(-121.964 -136.15)" fill="#e4897b"/>
      <path id="Path_90887" data-name="Path 90887" d="M141.879,385.65l1.047,4.133-3.319,1.259-1.047-4.133Z" transform="translate(-105.193 -263.456)" opacity="0.2"/>
      <path id="Path_90888" data-name="Path 90888" d="M85.406,388.3h3.552l-.276,4.235H85.13Z" transform="translate(-74.413 -264.982)" opacity="0.2"/>
      <path id="Path_90889" data-name="Path 90889" d="M76.52,146.934c3.815,13.484,3.2,27.791,3.434,30.7l18.974-.712c3.226-20.1-2.543-31.289-2.543-31.289s-1.217-.233-2.874-.4c-.517-.055-1.077-.1-1.662-.131-.322-.021-.649-.03-.979-.038a70.05,70.05,0,0,0-8.054.6c-.5.064-1.017.136-1.518.22s-.911.161-1.34.246C78,146.514,76.52,146.934,76.52,146.934Z" transform="translate(-69.453 -124.853)" fill="#407bff"/>
      <path id="Path_90890" data-name="Path 90890" d="M76.52,146.934c3.815,13.484,3.2,27.791,3.434,30.7l18.974-.712c3.226-20.1-2.543-31.289-2.543-31.289s-1.217-.233-2.874-.4c-.517-.055-1.077-.1-1.662-.131-.322-.021-.649-.03-.979-.038a70.05,70.05,0,0,0-8.054.6c-.5.064-1.017.136-1.518.22s-.911.161-1.34.246C78,146.514,76.52,146.934,76.52,146.934Z" transform="translate(-69.453 -124.853)" opacity="0.2"/>
      <path id="Path_90891" data-name="Path 90891" d="M83.1,163.13c.339,1.3-.051,7.257-1.412,8.724-.187-1.908-.424-3.9-.763-5.935Z" transform="translate(-71.987 -135.263)" opacity="0.2"/>
      <path id="Path_90892" data-name="Path 90892" d="M91.453,125c.7,2.543,1.56,7.257-.123,9.118a9.028,9.028,0,0,0,6.554,2.654c3.082-.123,2.391-2.2,1.5-3.251-2.942-.475-3.027-2.62-2.671-4.663Z" transform="translate(-77.985 -113.297)" fill="#e4897b"/>
      <path id="Path_90893" data-name="Path 90893" d="M104.964,151.7l.56.377-2.043.6.526-.95Z" transform="translate(-84.984 -128.679)" fill="#407bff"/>
      <path id="Path_90894" data-name="Path 90894" d="M108.512,151.23l-.212.577,2.052.6-.14-1.1Z" transform="translate(-87.761 -128.408)" fill="#407bff"/>
      <path id="Path_90895" data-name="Path 90895" d="M88.194,145.34l.805-.4a.784.784,0,0,1,.814.068,16.163,16.163,0,0,0,6.248,2.751c-1.619.771-1.221,2.849-1.221,2.849s-5.15-1.7-6.782-4.773a.365.365,0,0,1,.136-.492Z" transform="translate(-76.073 -124.735)" fill="#fff"/>
      <path id="Path_90896" data-name="Path 90896" d="M110.343,144.505l-1.183-.178a.157.157,0,0,0-.153.246c.424.589,1.1,1.882-.208,2.679a4.481,4.481,0,0,1,2.12,2.666s2.12-2.276-.348-5.282A.394.394,0,0,0,110.343,144.505Z" transform="translate(-88.049 -124.43)" fill="#fff"/>
      <path id="Path_90897" data-name="Path 90897" d="M96.612,128.66l3.107,2.264a8.142,8.142,0,0,0-.14,1.45,3.57,3.57,0,0,1-2.925-2.323,3.938,3.938,0,0,1-.042-1.39Z" transform="translate(-81.003 -115.405)" opacity="0.2"/>
      <path id="Path_90898" data-name="Path 90898" d="M108.734,108.181a3.463,3.463,0,0,1-2.09,2.543l-.954-5.345C107.831,103.866,108.933,106.451,108.734,108.181Z" transform="translate(-86.257 -101.73)" fill="#263238"/>
      <path id="Path_90899" data-name="Path 90899" d="M88.976,108.352c.619,3.468.8,5.532,2.772,7.122a4.681,4.681,0,0,0,7.524-3.29c.39-3.226-.687-8.355-4.265-9.351a4.807,4.807,0,0,0-6.032,5.519Z" transform="translate(-76.58 -100.422)" fill="#e4897b"/>
      <path id="Path_90900" data-name="Path 90900" d="M86.209,107.662c1.607.848,2.31-1.064,2.327-1.844a4.35,4.35,0,0,0-1.157-3.1c3.1,0,9.241-.153,7.69-3.107s-4.663-2.62-6.982-1c-1.234.848-5.227.11-4.239,2.412C81.767,102.135,83.573,106.259,86.209,107.662Z" transform="translate(-73.152 -97.392)" fill="#263238"/>
      <path id="Path_90901" data-name="Path 90901" d="M83.8,104.811a2.543,2.543,0,0,1-1.53-.521,1.454,1.454,0,0,0,1.357,1.123Z" transform="translate(-72.765 -101.366)" fill="#263238"/>
      <path id="Path_90902" data-name="Path 90902" d="M85.749,119.786a3.391,3.391,0,0,0,1.937,1.7c1.119.36,1.373-.666,1.1-1.742-.246-.975-.772-2.293-1.912-2.187a1.482,1.482,0,0,0-1.125,2.229Z" transform="translate(-74.663 -109.003)" fill="#e4897b"/>
      <path id="Path_90903" data-name="Path 90903" d="M116.587,257.748c-1.441-10.738-4.133-37.528-4.133-37.528L100,220.691s5.884,26.77,8.012,37.626,8.054,37.054,8.054,37.054l5.621-2.12S118.092,268.914,116.587,257.748Z" transform="translate(-82.979 -168.153)" fill="#7d8487"/>
      <path id="Path_90904" data-name="Path 90904" d="M107.227,238.35a6.6,6.6,0,0,0-2.777,1.42c1.178,5.413,2.717,12.539,4.04,18.817C109.372,253.149,109.4,242.886,107.227,238.35Z" transform="translate(-85.543 -178.597)" opacity="0.2"/>
      <path id="Path_90905" data-name="Path 90905" d="M95.3,220.82s-2.649,29.063-3.862,39.389c-1.327,11.314-2.967,35.023-2.967,35.023H81.945s-.267-20.971.577-32.043c.962-12.611.53-41.912.53-41.912Z" transform="translate(-72.555 -168.498)" fill="#7d8487"/>
      <path id="Path_90906" data-name="Path 90906" d="M88.777,393.377H81.121l-.161-2.289,8.546-.148Z" transform="translate(-72.01 -266.503)" fill="#7d8487"/>
      <path id="Path_90907" data-name="Path 90907" d="M142.676,388.657l-6.7,2.539-.818-2.166,7.444-2.95Z" transform="translate(-103.235 -263.703)" fill="#7d8487"/>
      <path id="Path_90908" data-name="Path 90908" d="M101.852,116.249c.03.288.208.5.394.479s.309-.271.276-.555-.208-.5-.394-.475S101.818,115.948,101.852,116.249Z" transform="translate(-84.043 -107.937)" fill="#263238"/>
      <path id="Path_90909" data-name="Path 90909" d="M109.432,115.333c.034.284.212.5.394.475s.314-.267.28-.551-.212-.5-.4-.479S109.4,115.049,109.432,115.333Z" transform="translate(-88.41 -107.407)" fill="#263238"/>
      <path id="Path_90910" data-name="Path 90910" d="M107.07,116.7a10.229,10.229,0,0,0,1.636,2.276,1.636,1.636,0,0,1-1.327.424Z" transform="translate(-87.052 -108.515)" fill="#de5753"/>
      <path id="Path_90911" data-name="Path 90911" d="M102.814,123.95a2.361,2.361,0,0,1-1.717-.746.085.085,0,1,1,.131-.106,2.272,2.272,0,0,0,1.937.67.081.081,0,0,1,.093.072.085.085,0,0,1-.072.093A2.26,2.26,0,0,1,102.814,123.95Z" transform="translate(-83.598 -112.179)" fill="#263238"/>
      <path id="Path_90912" data-name="Path 90912" d="M99.012,113.316a.148.148,0,0,1-.085,0,.165.165,0,0,1-.059-.229,1.67,1.67,0,0,1,1.272-.848.17.17,0,0,1,.178.161.165.165,0,0,1-.161.174h0a1.348,1.348,0,0,0-1.009.682A.153.153,0,0,1,99.012,113.316Z" transform="translate(-82.313 -105.946)" fill="#263238"/>
      <path id="Path_90913" data-name="Path 90913" d="M110.59,111.664a.174.174,0,0,1-.14-.081,1.323,1.323,0,0,0-1.03-.644.17.17,0,0,1,0-.339,1.7,1.7,0,0,1,1.31.8.165.165,0,0,1-.051.229.161.161,0,0,1-.089.03Z" transform="translate(-88.308 -105.001)" fill="#263238"/>
      <path id="Path_90914" data-name="Path 90914" d="M95.217,406.957a4.318,4.318,0,0,1-.937-.127.085.085,0,0,1-.064-.068.076.076,0,0,1,.034-.085c.123-.081,1.234-.784,1.636-.585a.288.288,0,0,1,.157.237.479.479,0,0,1-.153.445,1.026,1.026,0,0,1-.674.182Zm-.7-.246a1.772,1.772,0,0,0,1.272-.064.339.339,0,0,0,.1-.3.093.093,0,0,0-.059-.1c-.219-.1-.859.214-1.308.469Z" transform="translate(-79.646 -275.212)" fill="#407bff"/>
      <path id="Path_90915" data-name="Path 90915" d="M94.3,405.713a.1.1,0,0,1-.047,0,.093.093,0,0,1-.042-.076c0-.042.038-1.068.424-1.4a.424.424,0,0,1,.352-.11h0a.293.293,0,0,1,.28.22c.093.394-.577,1.174-.937,1.373a.055.055,0,0,1-.03-.007Zm.644-1.437a.284.284,0,0,0-.187.072,1.924,1.924,0,0,0-.365,1.115c.352-.28.772-.848.716-1.1,0-.021,0-.068-.127-.085Z" transform="translate(-79.644 -274.096)" fill="#407bff"/>
      <path id="Path_90916" data-name="Path 90916" d="M151.877,402.582a.081.081,0,0,1-.076-.047.085.085,0,0,1,0-.093c.123-.136,1.2-1.318,1.7-1.246a.263.263,0,0,1,.212.157h0a.466.466,0,0,1,0,.424c-.242.458-1.242.691-1.819.784Zm1.564-1.221c-.284,0-.9.555-1.335,1.009.78-.157,1.314-.4,1.45-.657a.314.314,0,0,0,0-.288.1.1,0,0,0-.081-.064Z" transform="translate(-112.813 -272.41)" fill="#407bff"/>
      <path id="Path_90917" data-name="Path 90917" d="M151.74,401.952h-.025a.085.085,0,0,1-.059-.059,2.509,2.509,0,0,1,.03-1.475.615.615,0,0,1,.386-.3h0c.225-.064.326.025.377.106.2.352-.318,1.373-.653,1.7A.068.068,0,0,1,151.74,401.952Zm.462-1.7h-.089a.424.424,0,0,0-.28.22,1.959,1.959,0,0,0-.051,1.191c.314-.424.64-1.17.517-1.382-.017.008-.038-.025-.11-.021ZM152.092,400.184Z" transform="translate(-112.676 -271.78)" fill="#407bff"/>
      <path id="Path_90918" data-name="Path 90918" d="M70.815,157.984c-1.064,2.192-2.149,4.455-3.2,6.685-.521,1.123-1.047,2.242-1.539,3.366l-.738,1.7L65,170.57l-.085.212-.064.157c-.042.1-.072.2-.11.3a5.172,5.172,0,0,0-.136,2.582,8.9,8.9,0,0,0,1.115,2.819,17.688,17.688,0,0,0,2.018,2.73c.386.424.793.873,1.217,1.272.212.2.424.424.649.606s.449.424.636.572l-1.424,2.268a17.017,17.017,0,0,1-1.776-1.043c-.564-.369-1.115-.759-1.649-1.183a18.229,18.229,0,0,1-2.967-2.967,12.434,12.434,0,0,1-2.141-3.968,9.555,9.555,0,0,1-.208-4.909c.055-.2.1-.424.161-.6l.165-.526.3-.937c.212-.615.424-1.234.644-1.84.445-1.217.911-2.421,1.416-3.607.971-2.365,2.06-4.654,3.273-6.973Z" transform="translate(-59.848 -130.885)" fill="#e4897b"/>
      <path id="Path_90919" data-name="Path 90919" d="M67.792,149.057c-3.239,1.013-6.422,12-6.422,12l7.473,3.281s2.425-5.307,3.815-9.466C74.2,150.337,71.713,147.828,67.792,149.057Z" transform="translate(-60.725 -126.977)" fill="#407bff"/>
      <path id="Path_90920" data-name="Path 90920" d="M67.792,149.057c-3.239,1.013-6.422,12-6.422,12l7.473,3.281s2.425-5.307,3.815-9.466C74.2,150.337,71.713,147.828,67.792,149.057Z" transform="translate(-60.725 -126.977)" opacity="0.2"/>
      <path id="Path_90921" data-name="Path 90921" d="M79.883,215.92l3.1,1.84-3.014,3s-2.615-2.014-1.836-3.59Z" transform="translate(-70.298 -165.675)" fill="#e4897b"/>
      <path id="Path_90922" data-name="Path 90922" d="M87.747,223.2l-3.111,2.179-1.975-2.115,3.014-3Z" transform="translate(-72.99 -168.176)" fill="#e4897b"/>
    </g>
    <g id="freepik--Screen--inject-128" transform="translate(68.651 93.151)">
      <rect id="Rectangle_7054" data-name="Rectangle 7054" width="2.047" height="0.424" transform="translate(121.265 31.309) rotate(-85.86)" fill="#407bff"/>
      <rect id="Rectangle_7055" data-name="Rectangle 7055" width="5.939" height="0.424" transform="translate(121.542 27.458) rotate(-85.86)" fill="#407bff"/>
      <path id="Path_90923" data-name="Path 90923" d="M273.909,233.172H170.082a5.316,5.316,0,0,1-5.358-5.769l5.511-76.642A6.316,6.316,0,0,1,176.4,145H280.229a5.312,5.312,0,0,1,5.358,5.765l-5.511,76.642a6.316,6.316,0,0,1-6.167,5.765Z" transform="translate(-163.537 -144.999)" fill="#407bff"/>
      <path id="Path_90924" data-name="Path 90924" d="M311.382,359.645h-33.7L271.67,318h33.7Z" transform="translate(-225.159 -244.664)" fill="#407bff"/>
      <path id="Path_90925" data-name="Path 90925" d="M302.191,410.38H265.735l-.725,2.484h36.46Z" transform="translate(-221.322 -297.883)" fill="#407bff"/>
      <path id="Path_90926" data-name="Path 90926" d="M307.151,338.047,274.3,336.253,271.67,318h32.59Z" transform="translate(-225.159 -244.664)" fill="#263238"/>
      <path id="Path_90927" data-name="Path 90927" d="M271.152,233.172H167.321a5.312,5.312,0,0,1-5.35-5.786l5.511-76.642A6.316,6.316,0,0,1,173.641,145H277.473a5.312,5.312,0,0,1,5.354,5.765l-5.511,76.642a6.312,6.312,0,0,1-6.164,5.765Z" transform="translate(-161.95 -144.999)" fill="#263238"/>
      <rect id="Rectangle_7056" data-name="Rectangle 7056" width="44.078" height="0.407" transform="translate(117.457 50.45) rotate(-85.9)" fill="#fff"/>
      <rect id="Rectangle_7057" data-name="Rectangle 7057" width="15.265" height="0.407" transform="translate(116.107 69.503) rotate(-85.9)" fill="#fff"/>
      <path id="Path_90928" data-name="Path 90928" d="M273.106,233.641H169.936a4.137,4.137,0,0,1-4.167-4.493l5.473-76.329a4.917,4.917,0,0,1,4.811-4.489H279.24a4.137,4.137,0,0,1,4.167,4.489l-5.473,76.337A4.917,4.917,0,0,1,273.106,233.641Z" transform="translate(-164.141 -146.918)" fill="#fff"/>
      <path id="Path_90929" data-name="Path 90929" d="M273.106,233.641H169.936a4.137,4.137,0,0,1-4.167-4.493l5.473-76.329a4.917,4.917,0,0,1,4.811-4.489H279.24a4.137,4.137,0,0,1,4.167,4.489l-5.473,76.337A4.917,4.917,0,0,1,273.106,233.641Z" transform="translate(-164.141 -146.918)" fill="#407bff" opacity="0.2"/>
      <path id="Path_90930" data-name="Path 90930" d="M202.568,234.884H178.473a2,2,0,0,1-2.014-2.17l5.316-74.184a2.374,2.374,0,0,1,2.327-2.17h24.1a1.992,1.992,0,0,1,2.014,2.17L204.9,232.714a2.378,2.378,0,0,1-2.332,2.17Z" transform="translate(-170.304 -151.544)" fill="#fff" opacity="0.5"/>
      <path id="Path_90931" data-name="Path 90931" d="M216.437,173.09H203.965a1.8,1.8,0,0,1-1.814-1.954l.136-1.912a2.141,2.141,0,0,1,2.094-1.954h12.476a1.8,1.8,0,0,1,1.814,1.954l-.14,1.912a2.12,2.12,0,0,1-2.094,1.954Z" transform="translate(-185.106 -157.829)" fill="#407bff" opacity="0.4"/>
      <path id="Path_90932" data-name="Path 90932" d="M186.96,216.681H167.923a3.137,3.137,0,0,1-3.167-3.391l1.369-19.059a3.735,3.735,0,0,1,3.654-3.391h19.042a3.137,3.137,0,0,1,3.162,3.391l-1.365,19.042a3.73,3.73,0,0,1-3.658,3.408Z" transform="translate(-163.56 -171.407)" fill="#407bff"/>
      <path id="Path_90933" data-name="Path 90933" d="M221.424,215a1.424,1.424,0,0,0-1.39,1.3l-.2,2.764a1.2,1.2,0,0,0,1.208,1.3h1.933a.348.348,0,0,0,.343-.322l.339-4.718a.3.3,0,0,0-.3-.322Z" transform="translate(-195.294 -185.326)" fill="#fff"/>
      <path id="Path_90934" data-name="Path 90934" d="M189.32,200.813H177.34a.479.479,0,0,1-.483-.521h0a.568.568,0,0,1,.56-.521h12a.479.479,0,0,1,.483.521h0A.572.572,0,0,1,189.32,200.813Z" transform="translate(-170.537 -176.552)" fill="#fff"/>
      <path id="Path_90935" data-name="Path 90935" d="M188.846,207.068h-12a.479.479,0,0,1-.483-.521h0a.568.568,0,0,1,.56-.517h12.005a.475.475,0,0,1,.483.517h0a.568.568,0,0,1-.56.521Z" transform="translate(-170.249 -180.158)" fill="#fff"/>
      <path id="Path_90936" data-name="Path 90936" d="M184.246,213.323h-7.855a.483.483,0,0,1-.483-.521h0a.568.568,0,0,1,.56-.521h7.855a.479.479,0,0,1,.483.521h0a.572.572,0,0,1-.56.521Z" transform="translate(-169.99 -183.759)" fill="#fff"/>
      <path id="Path_90937" data-name="Path 90937" d="M187.768,230.2h-11.59a2.052,2.052,0,0,1-2.069-2.23l.424-6.1a2.433,2.433,0,0,1,2.387-2.226h11.611a2.052,2.052,0,0,1,2.069,2.226l-.424,6.1a2.442,2.442,0,0,1-2.408,2.23Z" transform="translate(-168.95 -187.999)" fill="#fff" opacity="0.5"/>
      <path id="Path_90938" data-name="Path 90938" d="M211.051,265.993H196.6a.89.89,0,0,1-.9-.967h0a1.06,1.06,0,0,1,1.039-.966h14.447a.89.89,0,0,1,.894.966h0a1.056,1.056,0,0,1-1.034.967Z" transform="translate(-181.394 -213.589)" fill="#407bff" opacity="0.4"/>
      <path id="Path_90939" data-name="Path 90939" d="M211.342,274.943h-9.148a.89.89,0,0,1-.9-.967h0a1.055,1.055,0,0,1,1.034-.966H211.5a.886.886,0,0,1,.894.966h0a1.056,1.056,0,0,1-1.051.967Z" transform="translate(-184.615 -218.745)" fill="#fff" opacity="0.8"/>
      <path id="Path_90940" data-name="Path 90940" d="M209.281,290.683H194.835a.894.894,0,0,1-.9-.966h0a1.06,1.06,0,0,1,1.039-.967h14.447a.89.89,0,0,1,.894.967h0a1.056,1.056,0,0,1-1.034.966Z" transform="translate(-180.375 -227.813)" fill="#407bff" opacity="0.4"/>
      <path id="Path_90941" data-name="Path 90941" d="M209.589,299.629h-9.165a.886.886,0,0,1-.9-.962h0a1.056,1.056,0,0,1,1.047-.967h9.156a.89.89,0,0,1,.9.967h0a1.056,1.056,0,0,1-1.038.962Z" transform="translate(-183.595 -232.969)" fill="#fff" opacity="0.8"/>
      <path id="Path_90942" data-name="Path 90942" d="M207.511,315.373H193.065a.894.894,0,0,1-.9-.966h0a1.055,1.055,0,0,1,1.039-.967h14.447a.886.886,0,0,1,.894.967h0a1.056,1.056,0,0,1-1.034.966Z" transform="translate(-179.355 -242.037)" fill="#407bff" opacity="0.4"/>
      <path id="Path_90943" data-name="Path 90943" d="M207.819,324.313h-9.165a.89.89,0,0,1-.9-.967h0a1.06,1.06,0,0,1,1.034-.966h9.169a.894.894,0,0,1,.9.966h0A1.056,1.056,0,0,1,207.819,324.313Z" transform="translate(-182.575 -247.187)" fill="#fff" opacity="0.8"/>
      <path id="Path_90944" data-name="Path 90944" d="M323.3,283.04a1.057,1.057,0,0,1,1.984.551l-1.39,19.4a1.857,1.857,0,0,1-1.7,1.81H252.333a1.565,1.565,0,0,1-1.42-1.81l.848-11.526a2.5,2.5,0,0,1,3.145-2.217,13.431,13.431,0,0,0,10.449-1.051c6.706-3.328,12.319-10.475,20.03-10.475.3,0,.589,0,.873.025,11.471.691,14.964,14.943,23.849,14.943a11.719,11.719,0,0,0,7.113-2.751A29.232,29.232,0,0,0,323.3,283.04Z" transform="translate(-213.197 -221.459)" fill="#407bff" opacity="0.5"/>
      <path id="Path_90945" data-name="Path 90945" d="M324.748,283.4l-.848,11.958a1.857,1.857,0,0,1-1.7,1.81H252.333a1.565,1.565,0,0,1-1.42-1.81l1.7-23.764a1.741,1.741,0,0,1,3.111-1c2.23,3.391,5.659,7.8,9.606,9.966a9.813,9.813,0,0,0,4.718,1.335c5.646,0,10.449-6.693,16.185-11.785,3.514-3.12,7.38-5.638,12.005-5.638,9.652,0,11.077,15.685,18.957,17.829a8.439,8.439,0,0,0,5.379-.479,1.564,1.564,0,0,1,2.179,1.573Z" transform="translate(-213.197 -213.831)" fill="#407bff" opacity="0.5"/>
      <g id="Group_35560" data-name="Group 35560" transform="translate(38.144 63.747)" opacity="0.8">
        <path id="Path_90946" data-name="Path 90946" d="M425.727,297.789a.157.157,0,0,1-.1-.042.109.109,0,0,1-.03-.047.13.13,0,0,1,0-.055.14.14,0,0,1,.042-.1.144.144,0,0,1,.2,0,.132.132,0,0,1,.042.1.253.253,0,0,1,0,.055.186.186,0,0,1-.034.047.148.148,0,0,1-.12.042Z" transform="translate(-351.977 -296.602)" fill="#fff"/>
        <path id="Path_90947" data-name="Path 90947" d="M259.659,306.5a.144.144,0,0,1-.144-.144h0a.144.144,0,0,1,.144-.14h0a.144.144,0,0,1,.144.144h0a.148.148,0,0,1-.144.148h0Zm-1.454-.081h0a.14.14,0,0,1-.131-.157h0a.144.144,0,0,1,.161-.127h0a.144.144,0,0,1,.127.157h0a.148.148,0,0,1-.144.131h0Zm2.743-.127a.144.144,0,0,1,.127-.161h0a.144.144,0,0,1,.161.127h0a.144.144,0,0,1-.127.161h0a.144.144,0,0,1-.161-.127Zm-4.175-.093a.153.153,0,0,1-.114-.174h0a.153.153,0,0,1,.174-.114h0a.153.153,0,0,1,.114.174h0a.148.148,0,0,1-.144.114Zm5.591-.144a.144.144,0,0,1,.106-.178h0a.148.148,0,0,1,.174.106h0a.148.148,0,0,1-.106.178H262.5a.14.14,0,0,1-.148-.106Zm46.363.059a.144.144,0,0,1-.144-.144h0a.144.144,0,0,1,.144-.144h0a.144.144,0,0,1,.144.144h0a.144.144,0,0,1-.145.143Zm1.293-.2a.14.14,0,0,1,.127-.157h0a.14.14,0,0,1,.161.127h0a.148.148,0,0,1-.131.161h0a.148.148,0,0,1-.158-.135Zm-2.743.114a.14.14,0,0,1-.123-.161h0a.144.144,0,0,1,.161-.127h0a.148.148,0,0,1,.127.161h0a.148.148,0,0,1-.144.131h0Zm-51.912-.174a.144.144,0,0,1-.1-.178h0a.153.153,0,0,1,.182-.1h0a.148.148,0,0,1,.1.182h0a.14.14,0,0,1-.14.1h-.038Zm56.079-.14a.14.14,0,0,1,.114-.17h0a.144.144,0,0,1,.169.114h0a.144.144,0,0,1-.114.17h-.025a.148.148,0,0,1-.145-.117Zm-5.591.051a.136.136,0,0,1-.106-.174h0a.144.144,0,0,1,.174-.106h0a.144.144,0,0,1,.106.174h0a.144.144,0,0,1-.14.11h-.034Zm-42.115-.119a.14.14,0,0,1,.085-.186h0a.144.144,0,0,1,.186.081h0a.144.144,0,0,1-.085.187h0a.114.114,0,0,1-.051,0h0a.149.149,0,0,1-.136-.085Zm49.109-.25a.144.144,0,0,1,.1-.182h0a.144.144,0,0,1,.178.1h0a.144.144,0,0,1-.1.178h-.038a.144.144,0,0,1-.14-.1Zm-8.385-.051h0a.144.144,0,0,1-.089-.182h0a.148.148,0,0,1,.187-.089h0a.148.148,0,0,1,.089.186h0a.148.148,0,0,1-.14.093h0a.085.085,0,0,1-.048-.011Zm-39.423-.271a.144.144,0,0,1,.064-.2h0a.148.148,0,0,1,.2.068h0a.14.14,0,0,1-.064.191h0a.123.123,0,0,1-.068,0h0a.144.144,0,0,1-.11-.064Zm49.173-.1a.14.14,0,0,1,.085-.182h0a.148.148,0,0,1,.182.089h0a.148.148,0,0,1-.089.186h-.047a.144.144,0,0,1-.119-.093Zm-11.1-.178h0a.144.144,0,0,1-.072-.191h0a.148.148,0,0,1,.191-.072h0a.144.144,0,0,1,.072.2h0a.148.148,0,0,1-.131.085h0a.1.1,0,0,1-.047-.017Zm12.446-.331a.14.14,0,0,1,.081-.187h0a.136.136,0,0,1,.186.076h0a.144.144,0,0,1-.076.191h0a.128.128,0,0,1-.055,0h0a.148.148,0,0,1-.123-.081ZM266.3,304.38a.148.148,0,0,1,.047-.2h0a.144.144,0,0,1,.2.047h0a.144.144,0,0,1-.047.2h0a.127.127,0,0,1-.076.025h0a.152.152,0,0,1-.11-.068Zm35.519-.233h0a.148.148,0,0,1-.059-.2h0a.148.148,0,0,1,.2-.055h0a.144.144,0,0,1,.055.2h0a.148.148,0,0,1-.127.076h0a.2.2,0,0,1-.055-.017Zm15.057-.263a.144.144,0,0,1,.068-.191h0a.148.148,0,0,1,.2.068h0a.144.144,0,0,1-.072.191H317a.144.144,0,0,1-.114-.068Zm-49.381-.3a.148.148,0,0,1,.034-.2h0a.148.148,0,0,1,.2.03h0a.148.148,0,0,1-.034.2h0a.157.157,0,0,1-.085.03h0a.149.149,0,0,1-.106-.059Zm33.065-.161h0a.14.14,0,0,1-.047-.2h0a.136.136,0,0,1,.2-.051h0a.144.144,0,0,1,.051.2h0a.148.148,0,0,1-.123.072h0a.155.155,0,0,1-.055-.025Zm17.6-.182a.144.144,0,0,1,.059-.2h0a.148.148,0,0,1,.2.059h0a.148.148,0,0,1-.059.2h0a.2.2,0,0,1-.068,0h0a.144.144,0,0,1-.106-.064Zm-49.516-.526a.144.144,0,0,1,.021-.2h0a.148.148,0,0,1,.2.021h0a.153.153,0,0,1,0,.208h0a.153.153,0,0,1-.093.03h0a.127.127,0,0,1-.11-.055Zm30.7-.064h0a.144.144,0,0,1-.042-.2h0a.148.148,0,0,1,.2-.042h0a.148.148,0,0,1,.042.2h0a.144.144,0,0,1-.123.068h0a.174.174,0,0,1-.059-.025Zm20.076-.106a.144.144,0,0,1,.051-.2h0a.148.148,0,0,1,.2.051h0a.148.148,0,0,1-.051.2h0a.173.173,0,0,1-.076.021h0a.144.144,0,0,1-.1-.072Zm-21.276-.7a.148.148,0,0,1-.038-.2h0a.153.153,0,0,1,.2-.038h0a.153.153,0,0,1,.038.2h0a.148.148,0,0,1-.123.064h0a.148.148,0,0,1-.059-.025Zm22.505-.051a.153.153,0,0,1,.047-.2h0a.144.144,0,0,1,.2.047h0a.144.144,0,0,1-.047.2h0a.119.119,0,0,1-.076.025h0a.152.152,0,0,1-.1-.068Zm-50.869,0a.148.148,0,0,1,0-.2h0a.153.153,0,0,1,.208,0h0a.144.144,0,0,1,0,.2h0a.127.127,0,0,1-.093.034h0a.148.148,0,0,1-.114-.025Zm52.1-.8a.148.148,0,0,1,.034-.2h0a.144.144,0,0,1,.2.038h0a.144.144,0,0,1-.038.2h0a.148.148,0,0,1-.081.025h0a.144.144,0,0,1-.119-.051Zm-24.9.034a.14.14,0,0,1-.038-.2h0a.144.144,0,0,1,.2-.042h0a.144.144,0,0,1,.038.2h0a.136.136,0,0,1-.119.064h0a.148.148,0,0,1-.081-.017Zm-26.087-.161a.14.14,0,0,1,0-.2h0a.148.148,0,0,1,.2,0h0a.144.144,0,0,1,0,.2h0a.136.136,0,0,1-.093.034h0a.136.136,0,0,1-.11-.025Zm24.892-.636a.14.14,0,0,1-.042-.2h0a.14.14,0,0,1,.2-.042h0a.144.144,0,0,1,.042.2h0a.136.136,0,0,1-.119.064h0a.136.136,0,0,1-.081-.013Zm27.278-.068a.14.14,0,0,1,.03-.2h0a.148.148,0,0,1,.2.03h0a.148.148,0,0,1-.034.2h0a.153.153,0,0,1-.085.025h0a.131.131,0,0,1-.114-.051ZM272,299.947a.144.144,0,0,1,0-.2h0a.148.148,0,0,1,.2.021h0a.144.144,0,0,1-.021.2h0a.127.127,0,0,1-.093.034h0a.14.14,0,0,1-.089-.047Zm22.586-.492a.144.144,0,0,1-.047-.2h0a.144.144,0,0,1,.2-.047h0a.144.144,0,0,1,.047.2h0a.148.148,0,0,1-.123.072h0a.127.127,0,0,1-.076-.025Zm29.639-.153a.144.144,0,0,1,.025-.2h0a.144.144,0,0,1,.2.025h0a.153.153,0,0,1-.025.2h0a.131.131,0,0,1-.085.03h0a.144.144,0,0,1-.127-.047Zm-51.089-.246a.148.148,0,0,1,.03-.2h0a.148.148,0,0,1,.2.03h0a.148.148,0,0,1-.03.2h0a.157.157,0,0,1-.085.03h0a.148.148,0,0,1-.127-.051Zm20.216-.335a.144.144,0,0,1-.051-.2h0a.14.14,0,0,1,.2-.051h0a.14.14,0,0,1,.055.2h0a.148.148,0,0,1-.127.076h0a.174.174,0,0,1-.081-.013Zm32-.318a.144.144,0,0,1,.021-.2h0a.144.144,0,0,1,.2.021h0a.148.148,0,0,1,0,.2h0a.169.169,0,0,1-.093.034h0a.144.144,0,0,1-.14-.047Zm-51.043-.187a.144.144,0,0,1,.038-.2h0a.148.148,0,0,1,.2.042h0a.144.144,0,0,1-.042.2h0a.139.139,0,0,1-.081.025h0a.148.148,0,0,1-.127-.055Zm17.8-.178a.144.144,0,0,1-.059-.2h0a.144.144,0,0,1,.2-.064h0a.157.157,0,0,1,.064.2h0a.157.157,0,0,1-.131.076h0a.136.136,0,0,1-.093-.009Zm34.336-.564a.144.144,0,0,1,0-.2h0a.148.148,0,0,1,.2,0h0a.148.148,0,0,1,0,.2h0a.131.131,0,0,1-.093.038h0a.144.144,0,0,1-.114-.03Zm-50.937-.017a.144.144,0,0,1,.055-.2h0a.144.144,0,0,1,.2.055h0a.144.144,0,0,1-.055.2h0a.16.16,0,0,1-.072,0h0a.144.144,0,0,1-.135-.051Zm15.282-.025h0a.144.144,0,0,1-.072-.191h0a.144.144,0,0,1,.191-.072h0a.14.14,0,0,1,.072.191h0a.144.144,0,0,1-.131.085h0a.15.15,0,0,1-.055-.013Zm-1.318-.521a.14.14,0,0,1-.085-.187h0a.148.148,0,0,1,.187-.085h0a.148.148,0,0,1,.085.187h0a.14.14,0,0,1-.136.093h0a.106.106,0,0,1-.063,0Zm-12.692-.119a.148.148,0,0,1,.072-.191h0a.144.144,0,0,1,.2.072h0a.144.144,0,0,1-.076.191h0a.136.136,0,0,1-.059,0h0a.144.144,0,0,1-.148-.064Zm11.331-.343a.148.148,0,0,1-.1-.182h0a.148.148,0,0,1,.182-.1h0a.148.148,0,0,1,.1.182h0a.148.148,0,0,1-.14.1H288.1Zm-10-.2a.144.144,0,0,1,.093-.182h0a.144.144,0,0,1,.182.093h0a.144.144,0,0,1-.093.182h-.047a.144.144,0,0,1-.131-.093Zm8.618-.153a.144.144,0,0,1-.11-.17h0a.14.14,0,0,1,.174-.11h0a.14.14,0,0,1,.11.17h0a.144.144,0,0,1-.144.114h-.03Zm-7.24-.242a.144.144,0,0,1,.114-.174h0a.144.144,0,0,1,.17.11h0a.144.144,0,0,1-.11.174h-.03a.148.148,0,0,1-.14-.11Zm5.837,0h0a.148.148,0,0,1-.123-.165h0a.14.14,0,0,1,.161-.123h0a.148.148,0,0,1,.123.165h0a.148.148,0,0,1-.144.123h-.021Zm-4.421-.242a.144.144,0,0,1,.127-.157h0a.14.14,0,0,1,.161.127h0a.148.148,0,0,1-.131.161h0a.148.148,0,0,1-.153-.136Zm3,.093h0a.14.14,0,0,1-.136-.153h0a.144.144,0,0,1,.153-.136h0a.148.148,0,0,1,.136.157h0a.144.144,0,0,1-.144.136h0Zm-1.568-.187a.14.14,0,0,1,.144-.144h0a.144.144,0,0,1,.144.144h0a.144.144,0,0,1-.144.144h0a.144.144,0,0,1-.14-.148Z" transform="translate(-253.848 -295.38)" fill="#fff"/>
        <path id="Path_90948" data-name="Path 90948" d="M252.067,318.62a.132.132,0,0,1-.055,0,.118.118,0,0,1-.047-.034.089.089,0,0,1-.03-.047.119.119,0,0,1,0-.055.157.157,0,0,1,.042-.1.11.11,0,0,1,.047-.03.127.127,0,0,1,.11,0,.089.089,0,0,1,.047.03.14.14,0,0,1,.042.1.115.115,0,0,1,0,.055.1.1,0,0,1-.034.047.108.108,0,0,1-.123.034Z" transform="translate(-251.932 -308.607)" fill="#fff"/>
      </g>
      <path id="Path_90949" data-name="Path 90949" d="M281.668,209.639h0l-.988-1.068a9.7,9.7,0,0,1-6.6,2.654,8.3,8.3,0,0,1-8.275-6.715l-1.484.39h0l-1.357.356a10.92,10.92,0,0,0,2.709,5.354c4.3,4.638,11.929,4.638,16.9,0Z" transform="translate(-220.147 -179.283)" fill="#fff"/>
      <path id="Path_90950" data-name="Path 90950" d="M307.853,179.05l-1.3,1.208h0l-.894.848a8.436,8.436,0,0,1,2.2,6.4,9.75,9.75,0,0,1-3.111,6.4l.776.848h0l1.119,1.2a12.883,12.883,0,0,0,4.1-8.457,11.157,11.157,0,0,0-2.89-8.452Z" transform="translate(-244.216 -164.616)" fill="#263238"/>
      <path id="Path_90951" data-name="Path 90951" d="M283.534,174.327c-4.3-4.633-11.929-4.633-16.893,0a12.637,12.637,0,0,0-3.908,11.539l1.7-.424h0l1.162-.3a8.923,8.923,0,0,1-.136-2.344,9.89,9.89,0,0,1,9.707-9.059,8.389,8.389,0,0,1,6.214,2.654l1.145-1.072h0Z" transform="translate(-219.897 -159.893)" fill="#407bff"/>
      <path id="Path_90952" data-name="Path 90952" d="M335.436,190.778h0l1.14-1.068a8.427,8.427,0,0,1-2.192-6.4,9.932,9.932,0,0,1,7.342-8.754l-.288-1.458h0l-.259-1.331a13.1,13.1,0,0,0-5.579,3.1c-4.968,4.633-5.511,12.259-1.212,16.9Z" transform="translate(-259.62 -160.422)" fill="#fff"/>
      <path id="Path_90953" data-name="Path 90953" d="M355.227,216.11,354.1,214.9h0l-.772-.848a9.7,9.7,0,0,1-6.6,2.658,8.4,8.4,0,0,1-6.219-2.654l-.894.848h0l-1.293,1.208a11.123,11.123,0,0,0,8.2,3.5,12.84,12.84,0,0,0,8.7-3.5Z" transform="translate(-263.561 -184.779)" fill="#263238"/>
      <path id="Path_90954" data-name="Path 90954" d="M364.456,191.163c4.964-4.638,5.511-12.264,1.212-16.9a11.39,11.39,0,0,0-11.318-3.1l.322,1.649h0l.225,1.14a9.325,9.325,0,0,1,2.365-.305,8.321,8.321,0,0,1,8.41,9.067,9.75,9.75,0,0,1-3.111,6.4l.992,1.072h0Z" transform="translate(-272.79 -159.831)" fill="#407bff"/>
      <path id="Path_90955" data-name="Path 90955" d="M412.861,172.8a.848.848,0,0,1,.848.907l-.526,7.312a1.064,1.064,0,0,1-1.03.962h-7.317a.848.848,0,0,1-.848-.911l.521-7.312a1.06,1.06,0,0,1,1.03-.958h7.312m0-.377h-7.3a1.437,1.437,0,0,0-1.4,1.31l-.521,7.312a1.208,1.208,0,0,0,1.212,1.31h7.312a1.433,1.433,0,0,0,1.4-1.31l.526-7.312a1.208,1.208,0,0,0-1.217-1.31Z" transform="translate(-301.174 -160.796)" fill="#407bff" opacity="0.3"/>
      <path id="Path_90956" data-name="Path 90956" d="M410.731,202.487a.848.848,0,0,1,.848.907l-.521,7.312a1.068,1.068,0,0,1-1.03.962h-7.317a.848.848,0,0,1-.848-.911l.526-7.312a1.06,1.06,0,0,1,1.03-.958h7.308m0-.377h-7.3a1.433,1.433,0,0,0-1.4,1.31l-.526,7.312a1.208,1.208,0,0,0,1.217,1.31h7.312a1.437,1.437,0,0,0,1.4-1.31l.521-7.312a1.208,1.208,0,0,0-1.217-1.31Z" transform="translate(-299.947 -177.9)" fill="#407bff" opacity="0.3"/>
      <path id="Path_90957" data-name="Path 90957" d="M396.3,297.923a.7.7,0,0,1,.526.22.708.708,0,0,1,.182.543.9.9,0,0,1-.873.818.691.691,0,0,1-.708-.763.89.89,0,0,1,.873-.818m0-.373a1.272,1.272,0,0,0-1.246,1.161,1.068,1.068,0,0,0,1.081,1.166,1.272,1.272,0,0,0,1.246-1.166,1.068,1.068,0,0,0-1.081-1.161Z" transform="translate(-296.237 -232.883)" fill="#407bff"/>
      <path id="Path_90958" data-name="Path 90958" d="M398.007,297.036l-.187-.013.03-.373.182.013Z" transform="translate(-297.833 -232.364)" fill="#407bff"/>
      <path id="Path_90959" data-name="Path 90959" d="M398.2,273.029h-.187l.055-.763h.187Zm.11-1.535h-.187l.055-.763h.187Zm.11-1.53h-.187l.055-.767h.187Zm.11-1.53h-.187l.055-.767h.186Zm.11-1.53h-.187l.055-.767h.187Zm.11-1.53h-.187l.055-.767h.186Zm.11-1.535h-.187l.055-.763h.186Zm.11-1.53h-.187l.055-.767h.187Zm.11-1.53h-.187l.055-.767h.186Zm.106-1.53H399l.055-.767h.187Zm.11-1.53h-.187l.055-.767h.187Z" transform="translate(-297.943 -209.493)" fill="#407bff"/>
      <rect id="Rectangle_7058" data-name="Rectangle 7058" width="0.373" height="0.187" transform="translate(101.271 46.678) rotate(-85.927)" fill="#407bff"/>
      <path id="Path_90960" data-name="Path 90960" d="M326.746,244.6H259.625a1.314,1.314,0,0,1-.979-.424,1.331,1.331,0,0,1-.352-1.013l.335-4.621a1.526,1.526,0,0,1,1.5-1.4h67.134a1.323,1.323,0,0,1,1.327,1.429l-.331,4.621a1.53,1.53,0,0,1-1.513,1.408Zm-66.617-7.05a1.119,1.119,0,0,0-1.1,1.026L258.7,243.2a.933.933,0,0,0,.242.708.92.92,0,0,0,.682.288h67.121a1.115,1.115,0,0,0,1.1-1.026l.335-4.621a.924.924,0,0,0-.916-1Z" transform="translate(-217.451 -198.081)" fill="#407bff"/>
      <path id="Path_90961" data-name="Path 90961" d="M329.11,242.469H265.482a.581.581,0,0,1-.585-.632h0a.691.691,0,0,1,.674-.627H329.2a.577.577,0,0,1,.581.627h0a.687.687,0,0,1-.674.632Z" transform="translate(-221.256 -200.426)" fill="#fff" fill-rule="evenodd" opacity="0.8"/>
      <path id="Path_90962" data-name="Path 90962" d="M318.255,248.718H265.038a.577.577,0,0,1-.581-.627h0a.687.687,0,0,1,.674-.632h53.213a.581.581,0,0,1,.6.653h0A.691.691,0,0,1,318.255,248.718Z" transform="translate(-221.002 -204.025)" fill="#fff" fill-rule="evenodd" opacity="0.8"/>
    </g>
  </g>
</svg>
