<svg xmlns="http://www.w3.org/2000/svg" xmlns:xlink="http://www.w3.org/1999/xlink" width="203.842" height="439.931" viewBox="0 0 203.842 439.931">
  <defs>
    <linearGradient id="linear-gradient" y1="0.5" x2="1" y2="0.5" gradientUnits="objectBoundingBox">
      <stop offset="0" stop-color="#cacaca"/>
      <stop offset="0.04" stop-color="#d9d9d9"/>
      <stop offset="0.097" stop-color="#e7e7e7"/>
      <stop offset="0.169" stop-color="#efefef"/>
      <stop offset="0.297" stop-color="#f1f1f1"/>
      <stop offset="0.318" stop-color="#ededed"/>
      <stop offset="0.337" stop-color="#e2e2e2"/>
      <stop offset="0.355" stop-color="#cfcfcf"/>
      <stop offset="0.373" stop-color="#b5b5b5"/>
      <stop offset="0.376" stop-color="#b0b0b0"/>
      <stop offset="0.396" stop-color="#c1c1c1"/>
      <stop offset="0.43" stop-color="#d8d8d8"/>
      <stop offset="0.469" stop-color="#e9e9e9"/>
      <stop offset="0.517" stop-color="#f6f6f6"/>
      <stop offset="0.581" stop-color="#fdfdfd"/>
      <stop offset="0.735" stop-color="#fff"/>
      <stop offset="0.775" stop-color="#f8f8f8"/>
      <stop offset="0.9" stop-color="#e9e9e9"/>
      <stop offset="1" stop-color="#e4e4e4"/>
    </linearGradient>
    <linearGradient id="linear-gradient-2" y1="0.5" x2="1" y2="0.5" gradientUnits="objectBoundingBox">
      <stop offset="0" stop-color="#2d2d2c"/>
      <stop offset="0.188" stop-color="#393938"/>
      <stop offset="0.513" stop-color="#494948"/>
      <stop offset="0.768" stop-color="#4e4e4e"/>
      <stop offset="0.817" stop-color="#4a4a4a"/>
      <stop offset="0.862" stop-color="#3f3f3f"/>
      <stop offset="0.906" stop-color="#2c2c2c"/>
      <stop offset="0.949" stop-color="#121212"/>
      <stop offset="0.973"/>
    </linearGradient>
    <linearGradient id="linear-gradient-3" y1="0.5" x2="1" y2="0.5" gradientUnits="objectBoundingBox">
      <stop offset="0" stop-color="#e4e4e4"/>
      <stop offset="0.048" stop-color="#dedede"/>
      <stop offset="0.11" stop-color="#cecece"/>
      <stop offset="0.18" stop-color="#b3b3b3"/>
      <stop offset="0.186" stop-color="#b0b0b0"/>
      <stop offset="0.333" stop-color="#b2b2b2"/>
      <stop offset="0.391" stop-color="#b9b9b9"/>
      <stop offset="0.434" stop-color="#c5c5c5"/>
      <stop offset="0.468" stop-color="#d6d6d6"/>
      <stop offset="0.498" stop-color="#ededed"/>
      <stop offset="0.503" stop-color="#f1f1f1"/>
      <stop offset="0.651" stop-color="#f1f1f1"/>
      <stop offset="0.802" stop-color="#efefef"/>
      <stop offset="0.886" stop-color="#e7e7e7"/>
      <stop offset="0.953" stop-color="#d9d9d9"/>
      <stop offset="1" stop-color="#cacaca"/>
    </linearGradient>
    <linearGradient id="linear-gradient-5" x1="0.82" y1="-0.011" x2="-0.408" y2="0.936" gradientUnits="objectBoundingBox">
      <stop offset="0" stop-color="#cacaca"/>
      <stop offset="0.03" stop-color="#d6d6d6"/>
      <stop offset="0.088" stop-color="#e5e5e5"/>
      <stop offset="0.154" stop-color="#eee"/>
      <stop offset="0.249" stop-color="#f1f1f1"/>
      <stop offset="0.254" stop-color="#e3e3e3"/>
      <stop offset="0.264" stop-color="#ccc"/>
      <stop offset="0.275" stop-color="#bcbcbc"/>
      <stop offset="0.288" stop-color="#b3b3b3"/>
      <stop offset="0.305" stop-color="#b0b0b0"/>
      <stop offset="0.512" stop-color="#d7d7d7"/>
      <stop offset="0.746" stop-color="#fff"/>
      <stop offset="0.785" stop-color="#f8f8f8"/>
      <stop offset="0.904" stop-color="#e9e9e9"/>
      <stop offset="1" stop-color="#e4e4e4"/>
    </linearGradient>
    <linearGradient id="linear-gradient-6" y1="0.5" x2="1" y2="0.5" gradientUnits="objectBoundingBox">
      <stop offset="0" stop-color="#467bce"/>
      <stop offset="1" stop-color="#3157b3"/>
    </linearGradient>
    <linearGradient id="linear-gradient-7" x1="1" y1="0.5" x2="0" y2="0.5" gradientUnits="objectBoundingBox">
      <stop offset="0" stop-color="#fff"/>
      <stop offset="0" stop-color="#fefdfa"/>
      <stop offset="0" stop-color="#faeedb"/>
      <stop offset="0" stop-color="#f7e1bf"/>
      <stop offset="0" stop-color="#f4d7a9"/>
      <stop offset="0" stop-color="#f2cf98"/>
      <stop offset="0" stop-color="#f0c98d"/>
      <stop offset="0" stop-color="#efc686"/>
      <stop offset="0" stop-color="#efc584"/>
      <stop offset="0.004" stop-color="#caa770"/>
      <stop offset="0.008" stop-color="#a08458"/>
      <stop offset="0.014" stop-color="#7a6443"/>
      <stop offset="0.019" stop-color="#594931"/>
      <stop offset="0.026" stop-color="#3d3222"/>
      <stop offset="0.033" stop-color="#262015"/>
      <stop offset="0.041" stop-color="#15110c"/>
      <stop offset="0.051" stop-color="#090705"/>
      <stop offset="0.065" stop-color="#020201"/>
      <stop offset="0.1"/>
      <stop offset="0.226"/>
      <stop offset="0.989"/>
    </linearGradient>
    <radialGradient id="radial-gradient" cx="0.5" cy="0.5" r="0.667" gradientUnits="objectBoundingBox">
      <stop offset="0" stop-color="#caffff"/>
      <stop offset="0.326" stop-color="#caffff"/>
      <stop offset="0.444" stop-color="#c6fbfb"/>
      <stop offset="0.569" stop-color="#b9eff1"/>
      <stop offset="0.698" stop-color="#a3dcdf"/>
      <stop offset="0.83" stop-color="#86c0c5"/>
      <stop offset="0.962" stop-color="#5f9da5"/>
      <stop offset="1" stop-color="#53929b"/>
    </radialGradient>
    <linearGradient id="linear-gradient-8" x1="0.316" y1="0.28" x2="0.687" y2="0.724" gradientUnits="objectBoundingBox">
      <stop offset="0.043" stop-color="#caffff"/>
      <stop offset="0.294" stop-color="#9ad3d6"/>
      <stop offset="0.586" stop-color="#67a4ac"/>
      <stop offset="0.73" stop-color="#53929b"/>
    </linearGradient>
    <linearGradient id="linear-gradient-9" x1="0.256" y1="0.231" x2="0.744" y2="0.769" gradientUnits="objectBoundingBox">
      <stop offset="0" stop-color="#fff"/>
      <stop offset="1" stop-color="#fff"/>
    </linearGradient>
    <linearGradient id="linear-gradient-10" x1="0.237" y1="0.467" x2="0.576" y2="1.011" gradientUnits="objectBoundingBox">
      <stop offset="0" stop-color="#4e4e4e"/>
      <stop offset="0.714" stop-color="#4e4e4e"/>
      <stop offset="0.76" stop-color="#4b4b4b"/>
      <stop offset="0.791" stop-color="#424242"/>
      <stop offset="0.817" stop-color="#333"/>
      <stop offset="0.841" stop-color="#1e1e1e"/>
      <stop offset="0.863" stop-color="#030303"/>
      <stop offset="0.865"/>
      <stop offset="0.907" stop-color="#0a0a0a"/>
      <stop offset="0.979" stop-color="#242423"/>
      <stop offset="1" stop-color="#2d2d2c"/>
    </linearGradient>
    <radialGradient id="radial-gradient-2" cx="0.5" cy="0.5" r="0.723" xlink:href="#radial-gradient"/>
    <linearGradient id="linear-gradient-11" x1="-0.075" y1="-0.48" x2="0.293" y2="-0.006" xlink:href="#linear-gradient-8"/>
  </defs>
  <g id="Retail" transform="translate(20842.5 -6750.597)">
    <g id="_12605262_Self_order_kiosk___digital_kiosk_18" data-name="12605262_Self_order_kiosk___digital_kiosk_18" transform="translate(-20842.5 6750.597)">
      <g id="Group_38817" data-name="Group 38817" transform="translate(0 0)">
        <g id="Group_38814" data-name="Group 38814" transform="translate(8.464 361.434)">
          <path id="Path_96784" data-name="Path 96784" d="M1946.986,4093.3v4.988a2.18,2.18,0,0,0,1.232,1.911l48.518,25.283a6.269,6.269,0,0,0,5.653-.01l85.226-43.671a2.236,2.236,0,0,0,1.277-1.966V4075.2l-85.928,44.968a6.775,6.775,0,0,1-6.078-.016Z" transform="translate(-1946.986 -4047.648)" fill="url(#linear-gradient)"/>
          <path id="Path_96785" data-name="Path 96785" d="M2003,3890.938l84.852-42.948a1.741,1.741,0,0,0,.011-3.186l-50.877-26.124a2.288,2.288,0,0,0-2.053-.006l-86.9,43.984a1.741,1.741,0,0,0-.011,3.186l48.836,25.076A6.85,6.85,0,0,0,2003,3890.938Z" transform="translate(-1946.985 -3818.435)" fill="url(#linear-gradient-2)"/>
        </g>
        <path id="Path_96786" data-name="Path 96786" d="M2282.524,3728.6h0a3.2,3.2,0,0,1-3.362-2.99v-60.628a3.2,3.2,0,0,1,3.362-2.99h0a3.2,3.2,0,0,1,3.361,2.99v60.628A3.2,3.2,0,0,1,2282.524,3728.6Z" transform="translate(-2230.621 -3317.346)" fill="url(#linear-gradient-3)"/>
        <path id="Path_96787" data-name="Path 96787" d="M2576.688,3561.062h0a3.2,3.2,0,0,1-3.362-2.99v-60.628a3.2,3.2,0,0,1,3.362-2.99h0a3.2,3.2,0,0,1,3.362,2.99v60.628A3.2,3.2,0,0,1,2576.688,3561.062Z" transform="translate(-2489.294 -3167.783)" fill="url(#linear-gradient-3)"/>
        <path id="Path_96788" data-name="Path 96788" d="M2008.533,455.953l-11.641-5.654a2.606,2.606,0,0,0-2.391-.015l-116.421,59.035a2.2,2.2,0,0,0-1.25,1.942V817.814a2.064,2.064,0,0,0,1.137,1.784l12.639,6.528L1889.078,517.4a2.2,2.2,0,0,1,1.269-1.941Z" transform="translate(-1876.83 -450)" fill="url(#linear-gradient-5)"/>
        <path id="Path_96789" data-name="Path 96789" d="M2076.717,826,1991.9,870.459c-1.69.867-3.8-.217-3.8-1.952V561.853a2.221,2.221,0,0,1,1.267-1.952l115.906-59.389c1.689-.867,3.8.216,3.8,1.949l.106,306.6a2.221,2.221,0,0,1-1.267,1.954Z" transform="translate(-1974.677 -494.82)" fill="#2e2e2e"/>
        <path id="Path_96790" data-name="Path 96790" d="M2089.7,786.931l98.356-50.176.1,174.29L2089.983,960.9Z" transform="translate(-2064.019 -705.986)" fill="url(#linear-gradient-6)"/>
        <path id="Path_96791" data-name="Path 96791" d="M2089.7,786.931l98.356-50.176.1,174.29L2089.983,960.9Z" transform="translate(-2064.019 -705.986)" fill="url(#linear-gradient-7)"/>
        <path id="Path_96792" data-name="Path 96792" d="M2089.7,786.931l98.356-50.176.1,174.29L2089.983,960.9Z" transform="translate(-2064.019 -705.986)" fill="#407bfd"/>
        <path id="Path_96793" data-name="Path 96793" d="M2058.206,904.06l-48.238,25.688-24.134,12.824-12.084,6.385a3.55,3.55,0,0,1-4.091-.606,2.7,2.7,0,0,1-.793-1.839l-.011-1.573-.031-6.25-.25-50-.088-50c-.043-33.334-.158-66.668-.054-100l.232-100v-.48l.463-.234,50.3-25.463,50.428-25.271L2020.02,613.41,1970.055,639.4l.464-.714.232,100c.1,33.334-.01,66.668-.054,100l-.088,50-.25,50-.031,6.25,0,1.552a1.484,1.484,0,0,0,.427,1.021,1.988,1.988,0,0,0,2.292.361l12.147-6.288,24.33-12.522Z" transform="translate(-1957.343 -572.508)" fill="#fff"/>
        <g id="Group_38816" data-name="Group 38816" transform="translate(60.51 38.488)">
          <g id="Group_38815" data-name="Group 38815">
            <path id="Path_96794" data-name="Path 96794" d="M2378.364,833.676l25.56-13.139v-1.594l-25.56,12.971Z" transform="translate(-2378.364 -817.843)"/>
            <path id="Path_96795" data-name="Path 96795" d="M2378.364,822.9l25.56-13.139v-1.071l-25.56,12.971Z" transform="translate(-2378.364 -808.693)" fill="url(#radial-gradient)"/>
            <path id="Path_96796" data-name="Path 96796" d="M2378.364,846.936l25.56-13.139v.277l-25.56,13.182Z" transform="translate(-2378.364 -831.103)" fill="#c4c4c4"/>
          </g>
          <path id="Path_96797" data-name="Path 96797" d="M2378.364,846.936l25.56-13.139v18.552l-25.56,12.989Z" transform="translate(-2378.364 -831.103)" opacity="0.38" fill="url(#linear-gradient-8)"/>
        </g>
      </g>
      <g id="Group_38818" data-name="Group 38818" transform="translate(64.725 229.143)">
        <path id="Path_96798" data-name="Path 96798" d="M2413.3,2610.671v-13.223l23.125-11.92v13.258Z" transform="translate(-2413.301 -2585.528)"/>
        <path id="Path_96799" data-name="Path 96799" d="M2508.974,2585.528l-8.042,4.145-5.129,15.882,13.172-6.769Z" transform="translate(-2485.848 -2585.528)" opacity="0.82" fill="url(#linear-gradient-9)"/>
      </g>
      <path id="Path_96800" data-name="Path 96800" d="M2402.493,2860.128V2891l17.286-13.276,2.453-18.568Z" transform="translate(-2339.072 -2600.65)"/>
      <path id="Path_96801" data-name="Path 96801" d="M2432.243,2726.5l-29.75,15.208,17.286,17.593-17.286,13.276,33.062-16.77,10.835-10.687a1.289,1.289,0,0,0,.05-1.668Z" transform="translate(-2339.072 -2482.233)" fill="url(#linear-gradient-10)"/>
      <g id="Group_38828" data-name="Group 38828" transform="translate(69.898 248.586)">
        <path id="Path_96802" data-name="Path 96802" d="M2477.039,2766.735c4.318,4.613,7.4,8.272,11.365,12.919-3.429,1.879-15.6,8.885-19.362,10.969-4.367-4.711-8.092-8.552-12.864-13.229C2460.154,2775.293,2473.425,2768.627,2477.039,2766.735Z" transform="translate(-2456.178 -2766.735)" fill="#d9d9d9"/>
        <path id="Path_96803" data-name="Path 96803" d="M2626.723,2767.864c4.1,4.4,6.977,7.844,10.756,12.276l.913-.5c-3.734-4.552-10.858-12.342-11.385-12.9l-.029.015Q2626.851,2767.307,2626.723,2767.864Z" transform="translate(-2606.147 -2766.735)" opacity="0.43"/>
        <path id="Path_96804" data-name="Path 96804" d="M2456.917,2778.244c3.615-1.946,16.541-8.494,19.839-10.254l.256-1.113c-3.6,1.887-16.866,8.548-20.832,10.644Q2456.55,2777.882,2456.917,2778.244Z" transform="translate(-2456.18 -2766.861)" opacity="0.56"/>
        <g id="Group_38827" data-name="Group 38827" transform="translate(6.818 4.05)">
          <path id="Path_96805" data-name="Path 96805" d="M2588.966,2880.606c-.085.371-.25,1.019-.336,1.39-1.987,1.1-10.252,5.876-12.361,7.051l.629-1.656C2579.077,2886.2,2586.908,2881.725,2588.966,2880.606Z" transform="translate(-2568.598 -2872.437)" fill="#bababa"/>
          <path id="Path_96806" data-name="Path 96806" d="M2520.348,2868.181c-2.36-.387-4.843-.928-7.268-1.3l-.394,1.865,7.671,8.049.629-1.657C2520.788,2872.769,2520.583,2870.547,2520.348,2868.181Z" transform="translate(-2512.687 -2860.188)" fill="#a2a2a2"/>
          <path id="Path_96807" data-name="Path 96807" d="M2523.857,2819.429c-2.539-2.75-5.226-5.511-7.907-8.257l12.606-6.7q3.782,4.081,7.369,8.169C2533.866,2813.763,2526.036,2818.235,2523.857,2819.429Z" transform="translate(-2515.556 -2804.475)" fill="#f8f8f8"/>
          <g id="Group_38819" data-name="Group 38819" transform="translate(9.003 2.04)">
            <path id="Path_96808" data-name="Path 96808" d="M2587.3,2823.58l.174-.09q3.784,4.138,7.371,8.283l-.168.09Q2591.091,2827.718,2587.3,2823.58Z" transform="translate(-2587.304 -2823.49)" fill="#fff"/>
          </g>
          <g id="Group_38820" data-name="Group 38820" transform="translate(2.842 2.608)">
            <path id="Path_96809" data-name="Path 96809" d="M2536.328,2835.574c-.03-.044-.059-.089-.089-.133,2.231-1.2,10.427-5.538,12.531-6.663l.107.119C2546.765,2830.026,2538.566,2834.368,2536.328,2835.574Z" transform="translate(-2536.238 -2828.778)" fill="#a2a2a2"/>
          </g>
          <g id="Group_38821" data-name="Group 38821" transform="translate(2.917 2.726)">
            <path id="Path_96810" data-name="Path 96810" d="M2536.976,2836.685l-.115-.119c2.231-1.2,10.46-5.556,12.562-6.681.035.04.071.079.107.118C2547.429,2831.127,2539.2,2835.484,2536.976,2836.685Z" transform="translate(-2536.862 -2829.885)" fill="#fff"/>
          </g>
          <g id="Group_38822" data-name="Group 38822" transform="translate(5.588 5.505)">
            <path id="Path_96811" data-name="Path 96811" d="M2559.113,2862.629l-.113-.118c2.2-1.2,10.323-5.608,12.4-6.733l.1.117C2569.429,2857.019,2561.314,2861.429,2559.113,2862.629Z" transform="translate(-2559 -2855.778)" fill="#fff"/>
          </g>
          <g id="Group_38823" data-name="Group 38823" transform="translate(9.152 1.974)">
            <path id="Path_96812" data-name="Path 96812" d="M2588.546,2822.963l.174-.091q3.782,4.138,7.366,8.283l-.168.09Q2592.33,2827.1,2588.546,2822.963Z" transform="translate(-2588.546 -2822.872)" fill="#a2a2a2"/>
          </g>
          <g id="Group_38824" data-name="Group 38824" transform="translate(4.577 4.442)">
            <path id="Path_96813" data-name="Path 96813" d="M2550.625,2845.964l.178-.094q3.936,4.115,7.667,8.238l-.172.094Q2554.564,2850.079,2550.625,2845.964Z" transform="translate(-2550.625 -2845.87)" fill="#fff"/>
          </g>
          <g id="Group_38825" data-name="Group 38825" transform="translate(4.731 4.372)">
            <path id="Path_96814" data-name="Path 96814" d="M2551.9,2845.317l.178-.094q3.934,4.115,7.661,8.237l-.172.094Q2555.832,2849.431,2551.9,2845.317Z" transform="translate(-2551.896 -2845.222)" fill="#a2a2a2"/>
          </g>
          <g id="Group_38826" data-name="Group 38826" transform="translate(5.543 5.406)">
            <path id="Path_96815" data-name="Path 96815" d="M2558.693,2861.676c-.021-.048-.042-.1-.063-.145,2.234-1.208,10.26-5.546,12.368-6.677l.105.118C2568.981,2856.111,2560.942,2860.459,2558.693,2861.676Z" transform="translate(-2558.629 -2854.853)" fill="#a2a2a2"/>
          </g>
        </g>
      </g>
      <g id="Group_38831" data-name="Group 38831" transform="translate(64.385 284.224)">
        <g id="Group_38829" data-name="Group 38829" transform="translate(0.083)">
          <path id="Path_96816" data-name="Path 96816" d="M2411.382,3111.607c8.174-3.542,24.843-12.342,24.843-12.342.294-.136.3-.512,0-.373,0,0-16.66,8.8-24.829,12.345-.283.124-.3.494-.014.37Z" transform="translate(-2411.176 -3098.861)" fill="url(#radial-gradient-2)"/>
        </g>
        <g id="Group_38830" data-name="Group 38830" transform="translate(0 0.314)">
          <path id="Path_96817" data-name="Path 96817" d="M2410.747,3115.422c8.19-3.538,16.489-8.444,24.892-12.334.394-.184.4-1.463,0-1.278-8.386,3.894-16.668,8.8-24.841,12.343-.376.163-.431,1.43-.051,1.269Z" transform="translate(-2410.487 -3101.792)"/>
        </g>
        <path id="Path_96818" data-name="Path 96818" d="M2412.592,3126.254c8.232-3.575,16.574-8.4,25.022-12.328l-.138,16.017-24.891,11.344Z" transform="translate(-2412.332 -3112.309)" opacity="0.29" fill="url(#linear-gradient-11)"/>
      </g>
      <path id="Path_96819" data-name="Path 96819" d="M2410.8,2877.747c2.813,2.765,5.589,5.559,8.358,8.358l4.16,4.194,2.075,2.1,1.029,1.057.514.528c.269.272.075.6-.082.788l-.007.009-.011.009c-4.735,3.552-9.44,7.134-14.22,10.64,4.643-3.648,9.359-7.219,14.047-10.82l-.018.017c.132-.154.223-.392.085-.482l-.52-.524-1.04-1.049-2.062-2.11-4.115-4.229C2416.245,2883.418,2413.5,2880.6,2410.8,2877.747Z" transform="translate(-2346.377 -2617.249)" fill="#666"/>
    </g>
    <path id="Path_96820" data-name="Path 96820" d="M63.714,26.507,51.349,32.859a2.226,2.226,0,0,0-1.229,1.913V46.315a1.025,1.025,0,0,0,1.613.82L64.1,40.783a2.226,2.226,0,0,0,1.229-1.913V27.327A1.025,1.025,0,0,0,63.714,26.507Z" transform="translate(-20852.111 6808.595)" fill="#ecf2ff"/>
    <path id="Path_96829" data-name="Path 96829" d="M63.714,26.507,51.349,32.859a2.226,2.226,0,0,0-1.229,1.913V46.315a1.025,1.025,0,0,0,1.613.82L64.1,40.783a2.226,2.226,0,0,0,1.229-1.913V27.327A1.025,1.025,0,0,0,63.714,26.507Z" transform="translate(-20852.111 6866.959)" fill="#ecf2ff"/>
    <path id="Path_96821" data-name="Path 96821" d="M67.244,24.477,54.879,30.829a2.226,2.226,0,0,0-1.229,1.913V44.285a1.025,1.025,0,0,0,1.613.82l12.365-6.352a2.226,2.226,0,0,0,1.229-1.913V25.3A1.025,1.025,0,0,0,67.244,24.477Z" transform="translate(-20828.529 6796.76)" fill="#ecf2ff"/>
    <path id="Path_96830" data-name="Path 96830" d="M67.244,24.477,54.879,30.829a2.226,2.226,0,0,0-1.229,1.913V44.285a1.025,1.025,0,0,0,1.613.82l12.365-6.352a2.226,2.226,0,0,0,1.229-1.913V25.3A1.025,1.025,0,0,0,67.244,24.477Z" transform="translate(-20828.529 6855.124)" fill="#ecf2ff"/>
    <path id="Path_96822" data-name="Path 96822" d="M70.764,22.437,58.4,28.789A2.226,2.226,0,0,0,57.17,30.7V42.245a1.025,1.025,0,0,0,1.613.82l12.365-6.352A2.226,2.226,0,0,0,72.377,34.8V23.257A1.025,1.025,0,0,0,70.764,22.437Z" transform="translate(-20805.016 6784.866)" fill="#ecf2ff"/>
    <path id="Path_96831" data-name="Path 96831" d="M70.764,22.437,58.4,28.789A2.226,2.226,0,0,0,57.17,30.7V42.245a1.025,1.025,0,0,0,1.613.82l12.365-6.352A2.226,2.226,0,0,0,72.377,34.8V23.257A1.025,1.025,0,0,0,70.764,22.437Z" transform="translate(-20805.016 6843.229)" fill="#ecf2ff"/>
    <path id="Path_96823" data-name="Path 96823" d="M63.714,30.787,51.349,37.139a2.226,2.226,0,0,0-1.229,1.913V50.6a1.025,1.025,0,0,0,1.613.82L64.1,45.063a2.226,2.226,0,0,0,1.229-1.912V31.607A1.025,1.025,0,0,0,63.714,30.787Z" transform="translate(-20852.111 6833.549)" fill="#ecf2ff"/>
    <path id="Path_96832" data-name="Path 96832" d="M63.714,30.787,51.349,37.139a2.226,2.226,0,0,0-1.229,1.913V50.6a1.025,1.025,0,0,0,1.613.82L64.1,45.063a2.226,2.226,0,0,0,1.229-1.912V31.607A1.025,1.025,0,0,0,63.714,30.787Z" transform="translate(-20852.111 6891.914)" fill="#ecf2ff"/>
    <path id="Path_96824" data-name="Path 96824" d="M67.234,28.747,54.869,35.1a2.226,2.226,0,0,0-1.229,1.913V48.555a1.025,1.025,0,0,0,1.613.82l12.365-6.352a2.226,2.226,0,0,0,1.229-1.913V29.567A1.025,1.025,0,0,0,67.234,28.747Z" transform="translate(-20828.598 6821.656)" fill="#ecf2ff"/>
    <path id="Path_96833" data-name="Path 96833" d="M67.234,28.747,54.869,35.1a2.226,2.226,0,0,0-1.229,1.913V48.555a1.025,1.025,0,0,0,1.613.82l12.365-6.352a2.226,2.226,0,0,0,1.229-1.913V29.567A1.025,1.025,0,0,0,67.234,28.747Z" transform="translate(-20828.598 6880.02)" fill="#ecf2ff"/>
    <path id="Path_96825" data-name="Path 96825" d="M70.764,26.717,58.4,33.069a2.226,2.226,0,0,0-1.229,1.913V46.525a1.025,1.025,0,0,0,1.613.82l12.365-6.352a2.226,2.226,0,0,0,1.229-1.912V27.537A1.025,1.025,0,0,0,70.764,26.717Z" transform="translate(-20805.016 6809.82)" fill="#ecf2ff"/>
    <path id="Path_96834" data-name="Path 96834" d="M70.764,26.717,58.4,33.069a2.226,2.226,0,0,0-1.229,1.913V46.525a1.025,1.025,0,0,0,1.613.82l12.365-6.352a2.226,2.226,0,0,0,1.229-1.912V27.537A1.025,1.025,0,0,0,70.764,26.717Z" transform="translate(-20805.016 6868.184)" fill="#ecf2ff"/>
    <path id="Path_96826" data-name="Path 96826" d="M63.714,35.067,51.349,41.419a2.226,2.226,0,0,0-1.229,1.912V54.875a1.025,1.025,0,0,0,1.613.82L64.1,49.343a2.226,2.226,0,0,0,1.229-1.912V35.887A1.025,1.025,0,0,0,63.714,35.067Z" transform="translate(-20852.111 6858.504)" fill="#ecf2ff"/>
    <path id="Path_96835" data-name="Path 96835" d="M63.714,35.067,51.349,41.419a2.226,2.226,0,0,0-1.229,1.912V54.875a1.025,1.025,0,0,0,1.613.82L64.1,49.343a2.226,2.226,0,0,0,1.229-1.912V35.887A1.025,1.025,0,0,0,63.714,35.067Z" transform="translate(-20852.111 6916.868)" fill="#ecf2ff"/>
    <path id="Path_96827" data-name="Path 96827" d="M67.234,33.027,54.869,39.379a2.226,2.226,0,0,0-1.229,1.912V52.835a1.025,1.025,0,0,0,1.613.82L67.618,47.3a2.226,2.226,0,0,0,1.229-1.912V33.847A1.025,1.025,0,0,0,67.234,33.027Z" transform="translate(-20828.598 6846.609)" fill="#ecf2ff"/>
    <path id="Path_96836" data-name="Path 96836" d="M67.234,33.027,54.869,39.379a2.226,2.226,0,0,0-1.229,1.912V52.835a1.025,1.025,0,0,0,1.613.82L67.618,47.3a2.226,2.226,0,0,0,1.229-1.912V33.847A1.025,1.025,0,0,0,67.234,33.027Z" transform="translate(-20828.598 6904.973)" fill="#ecf2ff"/>
    <path id="Path_96828" data-name="Path 96828" d="M70.764,31,58.4,37.35a2.226,2.226,0,0,0-1.229,1.912V50.805a1.025,1.025,0,0,0,1.613.82l12.365-6.352a2.226,2.226,0,0,0,1.229-1.913V31.817A1.025,1.025,0,0,0,70.764,31Z" transform="translate(-20805.016 6834.774)" fill="#cad7e0"/>
    <path id="Path_96837" data-name="Path 96837" d="M70.764,31,58.4,37.35a2.226,2.226,0,0,0-1.229,1.912V50.805a1.025,1.025,0,0,0,1.613.82l12.365-6.352a2.226,2.226,0,0,0,1.229-1.913V31.817A1.025,1.025,0,0,0,70.764,31Z" transform="translate(-20805.016 6893.138)" fill="#cad7e0"/>
    <g id="freepik--character-2--inject-20" transform="translate(-20767.102 6873.881)">
      <g id="freepik--group--inject-20" transform="translate(0 0)">
        <path id="Path_94654" data-name="Path 94654" d="M373.985,412.347h-9.038l-.367-18.617h9.038Z" transform="translate(-298.227 -124.905)" fill="#e4897b"/>
        <path id="Path_94655" data-name="Path 94655" d="M369.54,409.46h9.873a.755.755,0,0,1,.758.551l1.58,7.15a1.108,1.108,0,0,1-.29,1,1.427,1.427,0,0,1-1.05.432c-3.565-.056-8.7-.247-13.185-.247-5.221,0-9.759.259-15.89.259-3.717,0-4.652-3.373-3.084-3.643,7.1-1.372,12.894-1.518,19.088-4.868a4.606,4.606,0,0,1,2.2-.63Z" transform="translate(-302.732 -122.951)" fill="#263238"/>
        <path id="Path_94656" data-name="Path 94656" d="M379.3,423.649H363.309c-1.707-18.336-7.269-79.473-7.585-100.384-.215-16.751,1.163-50.591,2-69.186h31.223c-1.669,18.494-4.627,52.457-5.676,71.075C382.157,345.65,379.958,405.527,379.3,423.649Z" transform="translate(-300.572 -142.255)" fill="#407bff"/>
        <path id="Path_94657" data-name="Path 94657" d="M355.755,323.266c.278,20.911,5.827,82.07,7.585,100.384h16c.48-13.671,1.858-51.131,3.009-77.483.367-8.578.708-15.975,1-21.012.632-11.242,1.959-27.971,3.261-43.576.872-10.321,1.732-20.135,2.4-27.5H357.752C356.918,272.63,355.54,306.515,355.755,323.266Z" transform="translate(-300.564 -142.255)" fill="#fff" opacity="0.7" style="mix-blend-mode: normal;isolation: isolate"/>
        <path id="Path_94658" data-name="Path 94658" d="M359.9,402.39c-.076,0,.708,5.621.708,5.621h18.62l.645-5.048Z" transform="translate(-299.464 -123.829)" fill="#407bff"/>
        <path id="Path_94659" data-name="Path 94659" d="M378.11,343.2c.367-8.578.708-15.976,1-21.012.632-11.242,1.605-23.688,2.907-39.292-3.527-.877-9.291-3.148-10.416-4.89l4.1,4.879C375.013,294.862,375.8,322.867,378.11,343.2Z" transform="translate(-296.373 -139.282)" opacity="0.1"/>
        <path id="Path_94660" data-name="Path 94660" d="M400.32,412.347h-9.038l-1.3-18.617h9.038Z" transform="translate(-291.519 -124.905)" fill="#e4897b"/>
        <path id="Path_94661" data-name="Path 94661" d="M406.124,423.654H390.133c-.923-6.419-2.528-18.078-4.374-31.479-3.363-24.733-7.294-55.358-8.141-68.95-.518-8.466-.86-21.3-1.075-34.334-.215-12.749-.3-25.666-.354-34.852h29.074c.48,23.024.126,52.446,0,71.063C405.113,345.655,405.884,405.532,406.124,423.654Z" transform="translate(-295.161 -142.26)" fill="#407bff"/>
        <path id="Path_94662" data-name="Path 94662" d="M406.124,423.654H390.133c-.923-6.419-2.528-18.078-4.374-31.479-3.363-24.733-7.294-55.358-8.141-68.95-.518-8.466-.86-21.3-1.075-34.334-.215-12.749-.3-25.666-.354-34.852h29.074c.48,23.024.126,52.446,0,71.063C405.113,345.655,405.884,405.532,406.124,423.654Z" transform="translate(-295.161 -142.26)" fill="#fff" opacity="0.7" style="mix-blend-mode: normal;isolation: isolate"/>
        <path id="Path_94663" data-name="Path 94663" d="M385.391,402.39c-.063,0,.986,5.621.986,5.621H405.01l.392-5.048Z" transform="translate(-292.732 -123.829)" fill="#407bff"/>
        <path id="Path_94664" data-name="Path 94664" d="M359.9,402.39c-.076,0,.708,5.621.708,5.621h18.62l.645-5.048Z" transform="translate(-299.464 -123.829)" fill="#fff" opacity="0.6" style="mix-blend-mode: normal;isolation: isolate"/>
        <path id="Path_94665" data-name="Path 94665" d="M385.391,402.39c-.063,0,.986,5.621.986,5.621H405.01l.392-5.048Z" transform="translate(-292.732 -123.829)" fill="#fff" opacity="0.6" style="mix-blend-mode: normal;isolation: isolate"/>
        <path id="Path_94666" data-name="Path 94666" d="M395.533,409.46h9.873a.769.769,0,0,1,.771.551l1.934,7.15a1.028,1.028,0,0,1-.224,1,1.332,1.332,0,0,1-1.04.428c-3.565-.056-8.71-.247-13.185-.247-5.233,0-9.746.259-15.89.259-3.7,0-4.8-3.373-3.261-3.643,7.041-1.372,12.818-1.518,18.86-4.868a4.355,4.355,0,0,1,2.162-.63Z" transform="translate(-295.783 -122.95)" fill="#263238"/>
        <path id="Path_94667" data-name="Path 94667" d="M325,210.029l-9.848-6.183,7.37-6.745s7.585,3.463,6.839,9.668Z" transform="translate(-311.282 -149.335)" fill="#e4897b"/>
        <path id="Path_94668" data-name="Path 94668" d="M312.09,197.472l6.839-3.822,4.4,3.935-7.37,6.689Z" transform="translate(-312.09 -149.763)" fill="#e4897b"/>
        <path id="Path_94669" data-name="Path 94669" d="M372.024,194.41c-9.354,2.451-13.905,17.055-21.654,30.849L327.92,205.428l-7.13,5.621s20.554,29.028,30.263,29.039c12.1,0,24.675-29.927,24.675-29.927Z" transform="translate(-309.792 -149.669)" fill="#263238"/>
        <path id="Path_94670" data-name="Path 94670" d="M375.726,210.182s-2,4.733-5.158,10.444c-3.059,5.531-7.231,11.984-11.744,15.886-2.528,2.192-5.17,3.586-7.787,3.586-9.7,0-30.237-29.039-30.237-29.039l7.117-5.621,22.451,19.832c7.7-13.794,12.3-28.4,21.654-30.849Z" transform="translate(-309.79 -149.668)" fill="#fff" opacity="0.1"/>
        <path id="Path_94671" data-name="Path 94671" d="M362.624,218.864c-3.059,5.531-7.231,11.984-11.744,15.886.493-13.232,7.787-26.15,7.787-26.15A26.623,26.623,0,0,1,362.624,218.864Z" transform="translate(-301.845 -147.906)" opacity="0.2"/>
        <path id="Path_94672" data-name="Path 94672" d="M415.851,196.824c-7.964,39.348-5.056,64.858-5.056,64.858s-37.683.764-52.9,0c-8.116-47.735,5.056-67.095,5.056-67.095a109.814,109.814,0,0,1,12.034-1.473c.847,0,1.719-.09,2.6-.124a211.908,211.908,0,0,1,21.49,1.124c1.353.124,2.731.292,4.058.461C409.872,195.43,415.851,196.824,415.851,196.824Z" transform="translate(-300.691 -149.845)" fill="#263238"/>
        <path id="Path_94673" data-name="Path 94673" d="M415.86,196.812c-.986,4.89-1.808,9.567-2.528,13.986-1.062,6.993-1.782,13.4-2.25,19.112-.139,1.731-.265,3.373-.367,5-.379,5.88-.48,10.883-.468,14.941a107.136,107.136,0,0,0,.518,11.816s-37.683.776-52.9,0c-8.128-47.724,5.056-67.084,5.056-67.084a108.3,108.3,0,0,1,12.034-1.462c.847-.067,1.719-.1,2.6-.135a212.323,212.323,0,0,1,21.49,1.124c1.34.124,2.705.292,4.045.461C409.881,195.43,415.86,196.812,415.86,196.812Z" transform="translate(-300.7 -149.845)" fill="#fff" opacity="0.1"/>
        <path id="Path_94674" data-name="Path 94674" d="M392.233,195.859c-3.236,3.013-8.343,5.531-16.509,5.261-6.257-.214-7.13-3.721-6.03-5.621,3.792-.7,5.524-2.17,6.042-4.036s-.2-4.407-1.264-6.745l10.555-7.87,1.795-1.338c0,.45-.076.922-.1,1.428a42.335,42.335,0,0,0,0,5.509C387.051,187.562,388.429,193.206,392.233,195.859Z" transform="translate(-296.983 -152.017)" fill="#e4897b"/>
        <path id="Path_94675" data-name="Path 94675" d="M385.627,182.244c-1.972,3.575-5.423,7.87-10.973,9.061.582-1.99-.2-4.407-1.264-6.745l10.555-7.87a10.7,10.7,0,0,1,1.694.09A42.326,42.326,0,0,0,385.627,182.244Z" transform="translate(-295.9 -151.87)" opacity="0.2"/>
        <path id="Path_94676" data-name="Path 94676" d="M381.57,199.412c-1.909.967-3.792,1.934-5.739,2.923a334.3,334.3,0,0,0-.1,38.494c-.961,1.439-1.909,2.878-2.844,4.34-1.264-1.585-2.427-3.17-3.615-4.778a337.274,337.274,0,0,1,4.437-38.146c-.658-1.124-1.264-2.248-1.947-3.373l5.7-1.833C378.814,197.827,380.192,198.625,381.57,199.412Z" transform="translate(-296.988 -149.342)" fill="#fff"/>
        <path id="Path_94677" data-name="Path 94677" d="M374.964,227.19c14.057.483,25.535,2.091,31.6,2.012-.379,5.869-.48,12.367-.468,16.4-26.546-4.632-34.889-11.242-34.889-11.242Z" transform="translate(-296.476 -145.596)" opacity="0.2"/>
        <path id="Path_94678" data-name="Path 94678" d="M402.239,208.954c-1.062,6.993-1.782,13.4-2.25,19.112-5.056-9.174-1.264-20.236-1.264-20.236Z" transform="translate(-289.57 -148.001)" opacity="0.2"/>
        <path id="Path_94679" data-name="Path 94679" d="M364.079,162.814c-1.555,3.159-1.745,9.916,3.653,8.241S366.759,157.406,364.079,162.814Z" transform="translate(-298.611 -153.767)" fill="#263238"/>
        <path id="Path_94680" data-name="Path 94680" d="M390.048,170.234c-.468,8.443-.253,13.4-4.993,17.741-7.13,6.532-18.962,2.7-21.3-5.722-2.149-7.577-1.024-20.1,8.229-23.485a14.491,14.491,0,0,1,12.594,1.3,11.241,11.241,0,0,1,5.47,10.171Z" transform="translate(-298.691 -154.206)" fill="#e4897b"/>
        <path id="Path_94681" data-name="Path 94681" d="M373.38,171.138c0,.686-.392,1.237-.9,1.237s-.923-.551-.923-1.237.392-1.248.9-1.248S373.38,170.441,373.38,171.138Z" transform="translate(-296.384 -152.715)" fill="#263238"/>
        <path id="Path_94682" data-name="Path 94682" d="M366.453,171.137c0,.686-.4,1.248-.91,1.248s-.923-.551-.923-1.237.392-1.248.9-1.248S366.44,170.462,366.453,171.137Z" transform="translate(-298.216 -152.714)" fill="#263238"/>
        <path id="Path_94683" data-name="Path 94683" d="M369.039,171.31a23.389,23.389,0,0,1-3.679,5.677,5.044,5.044,0,0,0,3.679.54Z" transform="translate(-298.021 -152.539)" fill="#de5753"/>
        <path id="Path_94684" data-name="Path 94684" d="M375.893,169.015a.5.5,0,0,1-.43-.157,3.825,3.825,0,0,0-2.92-1.338.455.455,0,0,1-.493-.371.376.376,0,0,1,.106-.3.476.476,0,0,1,.311-.142,4.8,4.8,0,0,1,3.716,1.664.36.36,0,0,1,.069.4A.439.439,0,0,1,375.893,169.015Z" transform="translate(-296.255 -153.11)" fill="#263238"/>
        <path id="Path_94685" data-name="Path 94685" d="M363.157,168.948a.509.509,0,0,1-.253,0,.386.386,0,0,1-.215-.54,4.439,4.439,0,0,1,3.236-2.248.46.46,0,0,1,.506.348.414.414,0,0,1-.379.461,3.407,3.407,0,0,0-2.528,1.821A.451.451,0,0,1,363.157,168.948Z" transform="translate(-298.738 -153.179)" fill="#263238"/>
        <path id="Path_94686" data-name="Path 94686" d="M375.325,163.873s2.617-1.653,3.792.135,1.125,6.577,1.125,6.577l.518-.854s3.362,10.658,8.255,7.982,12.072-13.491.657-19.022c0,0-1.264-2.574-8.76-3.845s-16.661,2.878-18.216,7.308.619,6.9.619,6.9a6.177,6.177,0,0,1,1.454-2.631,2.888,2.888,0,0,0,1.883,2.046,4.409,4.409,0,0,1,.607-2.62,5.44,5.44,0,0,0,1.264,2.136c.544-4.564,4.033-5.5,5.145-5.464A1.8,1.8,0,0,1,375.325,163.873Z" transform="translate(-298.872 -154.613)" fill="#263238"/>
        <path id="Path_94687" data-name="Path 94687" d="M389.222,175.633a8.166,8.166,0,0,1-4.386,4.7c-2.819,1.282-4.879-.832-4.652-3.5.215-2.395,1.921-5.947,5.056-6.116a4.291,4.291,0,0,1,3.467,1.51A3.311,3.311,0,0,1,389.222,175.633Z" transform="translate(-294.111 -152.612)" fill="#e4897b"/>
        <path id="Path_94688" data-name="Path 94688" d="M368.51,179.749a22.708,22.708,0,0,1,2.25,2.417l.556-.247c2.528-1.124,3.261-2.383,3.337-3.451a3.058,3.058,0,0,0-.354-1.5,2.9,2.9,0,0,0-.518-.742,13.267,13.267,0,0,1-4.424,3.125C368.851,179.614,368.51,179.749,368.51,179.749Z" transform="translate(-297.189 -151.928)" fill="#263238"/>
        <path id="Path_94689" data-name="Path 94689" d="M369.18,179.345l.683.7c2.376-1.068,3.881-2.1,4.26-3.08a2.9,2.9,0,0,0-.518-.742,13.267,13.267,0,0,1-4.424,3.125Z" transform="translate(-297.012 -151.929)" fill="#fff"/>
        <path id="Path_94690" data-name="Path 94690" d="M370.73,181.671c2.528-1.124,3.261-2.383,3.337-3.451a8.863,8.863,0,0,0-2.528,1.754,2.855,2.855,0,0,0-.809,1.7Z" transform="translate(-296.603 -151.68)" fill="#a24e3f"/>
        <path id="Path_94691" data-name="Path 94691" d="M391.04,190.55s-2.971,3.373-13.64,6.577a10.131,10.131,0,0,1-3.122-6.138l-5.651,2.248s-1.719,4.6.847,7.87l7.863-3.125,6.03,4.564s9.822-5.554,11.592-8.308Z" transform="translate(-297.307 -150.148)" fill="#263238"/>
        <path id="Path_94692" data-name="Path 94692" d="M379.668,247.954H352.73a1.991,1.991,0,0,1-2.035-1.675L346.9,214.485a1.415,1.415,0,0,1,.437-1.181,1.812,1.812,0,0,1,1.282-.494h26.926a2.006,2.006,0,0,1,2.048,1.675l3.792,31.794a1.4,1.4,0,0,1-.432,1.185A1.8,1.8,0,0,1,379.668,247.954Z" transform="translate(-302.898 -147.383)" fill="#263238"/>
        <path id="Path_94693" data-name="Path 94693" d="M379.668,247.954H352.73a1.991,1.991,0,0,1-2.035-1.675L346.9,214.485a1.415,1.415,0,0,1,.437-1.181,1.812,1.812,0,0,1,1.282-.494h26.926a2.006,2.006,0,0,1,2.048,1.675l3.792,31.794a1.4,1.4,0,0,1-.432,1.185A1.8,1.8,0,0,1,379.668,247.954Z" transform="translate(-302.898 -147.383)" fill="#fff" opacity="0.6"/>
        <path id="Path_94694" data-name="Path 94694" d="M378.543,247.954H352.73a1.991,1.991,0,0,1-2.035-1.675L346.9,214.485a1.415,1.415,0,0,1,.437-1.181,1.812,1.812,0,0,1,1.282-.494h25.838a2.018,2.018,0,0,1,2.048,1.675l3.792,31.794a1.405,1.405,0,0,1-.444,1.2A1.806,1.806,0,0,1,378.543,247.954Z" transform="translate(-302.898 -147.383)" fill="#fff" opacity="0.2"/>
        <path id="Path_94695" data-name="Path 94695" d="M360.071,226.13a2.794,2.794,0,0,0-2,.761,2.178,2.178,0,0,0-.672,1.836,3.109,3.109,0,0,0,3.16,2.6,2.793,2.793,0,0,0,2-.761,2.178,2.178,0,0,0,.672-1.836,3.11,3.11,0,0,1-3.16-2.6Z" transform="translate(-300.127 -145.728)" fill="#263238"/>
        <path id="Path_94696" data-name="Path 94696" d="M367.619,215.328H353.385a1.9,1.9,0,0,1-1.669-.956l-.847-1.563h18.772l-.544,1.563A1.5,1.5,0,0,1,367.619,215.328Z" transform="translate(-301.848 -147.383)" opacity="0.3"/>
        <path id="Path_94697" data-name="Path 94697" d="M368.2,225.731l-6.219-.461.265,7.364,5.233,2.44,12.009-.978.973-4.958C376.479,223.988,368.2,225.731,368.2,225.731Z" transform="translate(-298.914 -145.835)" fill="#e4897b"/>
        <path id="Path_94698" data-name="Path 94698" d="M404.277,198.732c-6.321,7.128.619,21.079,3.944,36.189l-31.388-3.575L375,239.677s36.191,11.895,43.89,6.644c9.607-6.543,3.375-30.355-1.593-42.08a15.774,15.774,0,0,0-6.7-7.87A8.428,8.428,0,0,0,404.277,198.732Z" transform="translate(-295.475 -149.426)" fill="#263238"/>
        <path id="Path_94699" data-name="Path 94699" d="M404.277,198.732c-6.321,7.128.619,21.079,3.944,36.189l-31.388-3.575L375,239.677s36.191,11.895,43.89,6.644c9.607-6.543,3.375-30.355-1.593-42.08a15.774,15.774,0,0,0-6.7-7.87A8.428,8.428,0,0,0,404.277,198.732Z" transform="translate(-295.475 -149.426)" fill="#fff" opacity="0.1"/>
        <path id="Path_94700" data-name="Path 94700" d="M383.82,255.358q9.9-.124,19.783-.528c0,1,.114,2.012.164,3.013q-9.974.427-19.948.517Z" transform="translate(-293.146 -142.162)" fill="#263238"/>
        <path id="Path_94701" data-name="Path 94701" d="M364.585,258.113q-3.792-.124-7.585-.27l.152-3.013c2.528.112,4.981.191,7.484.27Z" transform="translate(-300.229 -142.162)" fill="#263238"/>
        <path id="Path_94702" data-name="Path 94702" d="M363.9,255.1q11.782.337,23.563.236v3.024q-11.782.1-23.563-.225Z" transform="translate(-298.407 -142.129)" fill="#263238"/>
        <path id="Path_94703" data-name="Path 94703" d="M369.233,258.643l5.941.1a.327.327,0,0,0,.231-.071.257.257,0,0,0,.1-.2v-3.092a.312.312,0,0,0-.316-.281l-5.941-.1a.326.326,0,0,0-.223.075.256.256,0,0,0-.093.195v3.1A.288.288,0,0,0,369.233,258.643Z" transform="translate(-297.078 -142.141)" fill="#fff"/>
      </g>
    </g>
  </g>
</svg>
