<svg id="Group_35051" data-name="Group 35051" xmlns="http://www.w3.org/2000/svg" xmlns:xlink="http://www.w3.org/1999/xlink" width="353.275" height="90.533" viewBox="0 0 353.275 90.533">
  <defs>
    <clipPath id="clip-path">
      <rect id="Rectangle_6802" data-name="Rectangle 6802" width="353.275" height="90.533" fill="none"/>
    </clipPath>
  </defs>
  <g id="Group_35050" data-name="Group 35050" clip-path="url(#clip-path)">
    <path id="Path_23" data-name="Path 23" d="M172.857,75.065c2.121,0,3.608-1.1,3.608-3.045,0-1.739-1.125-2.455-3.117-2.974-1.7-.436-2.118-.647-2.118-1.292,0-.5.433-.883,1.262-.883a4.6,4.6,0,0,1,2.554.968l1.125-1.627a5.682,5.682,0,0,0-3.649-1.251,3.073,3.073,0,0,0-3.437,2.963c0,1.981,1.278,2.527,3.256,3.031,1.646.42,1.978.7,1.978,1.248,0,.6-.532.955-1.418.955a4.51,4.51,0,0,1-2.933-1.193l-1.278,1.528a6.261,6.261,0,0,0,4.167,1.572m-11.248.027a4.966,4.966,0,0,0,4.027-1.671l-1.372-1.473a3.533,3.533,0,0,1-2.582,1.152,3.1,3.1,0,0,1,0-6.175,3.4,3.4,0,0,1,2.527,1.1l1.292-1.487a5.125,5.125,0,1,0-3.887,8.562m-11.229-.167h2.148V65.1h-2.162Zm-8.911,0h2.162V67.093h2.993V65.1h-8.151v1.992h2.99Zm-11.577,0h2.162V71.01l3.778-5.909h-2.469l-2.387,3.945L128.636,65.1h-2.521l3.778,5.95Zm-11.632,0h7.053V72.966h-4.9V65.1h-2.162Zm-10.06-4.115,1.306-3.185,1.3,3.185Zm-3.874,4.115h2.195l.9-2.195h4.154l.9,2.195h2.258l-4.211-9.9h-1.992Zm-12.249,0h2.134V68.678l4.757,6.247h1.838V65.1H98.678v6.035l-4.6-6.035H92.08Zm-10.06-4.115,1.306-3.185,1.3,3.185Zm-3.876,4.115h2.195l.9-2.195h4.154l.9,2.195h2.261l-4.211-9.9H82.349ZM63.96,72.98V67.052h1.671a2.963,2.963,0,0,1,0,5.923ZM61.8,74.931h3.841a4.922,4.922,0,1,0,0-9.824H61.8Zm-13.092,0h2.132V68.678l4.76,6.247h1.841V65.1H55.3v6.035L50.7,65.1H48.7Zm-9.136-1.824a2.988,2.988,0,0,1-2.977-3.089,2.946,2.946,0,0,1,2.946-3.089,2.985,2.985,0,0,1,2.977,3.089,2.946,2.946,0,0,1-2.946,3.089m-.03,1.992a5.078,5.078,0,1,0-3.679-1.44,5.084,5.084,0,0,0,3.679,1.44m-13.218-.167h2.162V71.01L32.26,65.1H29.793l-2.387,3.945L25.064,65.1H22.537l3.775,5.95Zm-14.175,0h7.47V73.01H14.285V70.947H18.93v-1.92H14.285V67.032H19.55v-1.92H12.142ZM2.107,73.03V70.868H4.6c1.1,0,1.6.409,1.6,1.067,0,.757-.576,1.1-1.528,1.1Zm0-3.959v-2.08H4.241c.911,0,1.418.368,1.418,1.012,0,.757-.6,1.067-1.556,1.067ZM0,74.925H4.664c2.217,0,3.676-.9,3.676-2.7A2.414,2.414,0,0,0,6.5,69.787a2.42,2.42,0,0,0,.634-3.816,3.566,3.566,0,0,0-2.571-.87H0Z" transform="translate(0 15.44)" fill="#016dd5"/>
    <path id="Path_24" data-name="Path 24" d="M84.53,15.764V0h11.1V15.764h11.4v9.7h-11.4V66.174H84.53ZM11.114,21.731a20.027,20.027,0,0,1,15.434-6.793q1,0,2.008.093V26.644a15.97,15.97,0,0,0-4.387-.582,12.4,12.4,0,0,0-9.421,3.684,14.362,14.362,0,0,0-3.638,10.2V66.182H0V15.764H11.114ZM67.9,36.391a13.547,13.547,0,0,0-5.284-9.053,15.177,15.177,0,0,0-18.079.31A12.1,12.1,0,0,0,40.032,36.4ZM40.035,44.956a14.063,14.063,0,0,0,18.076,12.06,14.414,14.414,0,0,0,7.105-4.694H78.335a29.176,29.176,0,0,1-11.8,11.8,27.16,27.16,0,0,1-12.483,2.875A25.239,25.239,0,0,1,27.928,40.8,25.239,25.239,0,0,1,54.045,14.658,25.27,25.27,0,0,1,80.239,40.8v4.151ZM141.042,21.731a20.924,20.924,0,0,1,30.422-.466,25.835,25.835,0,0,1,6.823,18.9v26H167.173v-26a14.515,14.515,0,0,0-3.638-10.425,13.9,13.9,0,0,0-18.855,0,14.367,14.367,0,0,0-3.638,10.2V66.177H129.928V15.764h11.114Zm-28.125-5.967h11.116v50.41H112.916ZM353.223,44.169,353.275.8a.8.8,0,0,0-.8-.8h-9.6a.8.8,0,0,0-.8.8c0,.582.016,9.509.03,18.241a27.179,27.179,0,1,0,0,43.744c-.014,1.372-.033,2.779-.033,3.388a.8.8,0,0,0,.8.8h9.6a.8.8,0,0,0,.8-.8Zm-27.253-19.2a15.95,15.95,0,1,1-15.95,15.95,15.95,15.95,0,0,1,15.95-15.95" fill="#016dd5" fill-rule="evenodd"/>
    <path id="Path_25" data-name="Path 25" d="M207.888,24.99c7.682-7.314,13.484-13.9,25.555-13.9a27.18,27.18,0,0,1,27.182,27.193V63.522a.8.8,0,0,1-.8.8h-9.6a.8.8,0,0,1-.8-.8c0-.6.019-1.962.033-3.292a27.182,27.182,0,0,1-41.56-12.7l9.6-9.152A15.95,15.95,0,1,0,233.44,22.313c-7.21,0-11.136,4.115-15.791,8.559-4.732,4.664-9.522,9.218-14.373,13.747-3.292,3.081-2.562,2.291-2.549,6.9l.027,12.005a.8.8,0,0,1-.8.8h-9.6a.8.8,0,0,1-.8-.8c0-.606.016-2.025.033-3.385a27.176,27.176,0,1,1,8.354-33.678l-8.886,8.463a15.95,15.95,0,1,0-15.6,19.292,11.972,11.972,0,0,0,6.247-2.195,75.445,75.445,0,0,0,11.223-10.178c6.669-6.532,13.958-14.019,16.962-16.858" transform="translate(34.934 2.644)" fill="#3a05a2" fill-rule="evenodd"/>
  </g>
</svg>
