<svg xmlns="http://www.w3.org/2000/svg" width="162.695" height="44.035" viewBox="0 0 162.695 44.035">
  <g id="Logo-08" transform="translate(-210.1 -155.5)">
    <path id="Path_82835" data-name="Path 82835" d="M390.4,191.694V183h6.156v8.694h6.291v5.373h-6.291v22.49H390.4V191.694Z" transform="translate(-131.621 -20.075)" fill="#fff" fill-rule="evenodd"/>
    <path id="Path_82836" data-name="Path 82836" d="M216.256,217.353a11.028,11.028,0,0,1,8.532-3.753c3.4,0,.729,0,1.107.054v6.426a8.809,8.809,0,0,0-2.43-.324,6.873,6.873,0,0,0-5.211,2.025,7.87,7.87,0,0,0-2,5.643v14.5H210.1V214.059h6.156v3.294Z" transform="translate(0 -42.414)" fill="#fff" fill-rule="evenodd"/>
    <path id="Path_82837" data-name="Path 82837" d="M282.623,228.185a7.706,7.706,0,0,0,1.917,4.374,7.9,7.9,0,0,0,8.073,2.322,7.963,7.963,0,0,0,3.915-2.592h7.263a16.125,16.125,0,0,1-6.534,6.534,15.056,15.056,0,0,1-6.912,1.593,14.685,14.685,0,1,1,14.471-14.471v2.295H282.6Zm15.389-4.725a7.545,7.545,0,0,0-2.916-5.022,8.08,8.08,0,0,0-5.049-1.566,8.174,8.174,0,0,0-4.941,1.728,6.7,6.7,0,0,0-2.484,4.833h15.416Z" transform="translate(-48.035 -40.881)" fill="#fff" fill-rule="evenodd"/>
    <rect id="Rectangle_5523" data-name="Rectangle 5523" width="6.156" height="27.863" transform="translate(273.196 171.618)" fill="#fff"/>
    <path id="Path_82838" data-name="Path 82838" d="M473.9,191.694V183h6.129v8.694h6.318v5.373h-6.318v22.49H473.9V191.694Z" transform="translate(-192.577 -20.075)" fill="#fff" fill-rule="evenodd"/>
    <path id="Path_82839" data-name="Path 82839" d="M533.356,217.353a11.028,11.028,0,0,1,8.532-3.753c3.4,0,.729,0,1.107.054v6.426a8.808,8.808,0,0,0-2.43-.324,6.873,6.873,0,0,0-5.211,2.025,7.87,7.87,0,0,0-2,5.643v14.5H527.2V214.059h6.156Z" transform="translate(-231.487 -42.414)" fill="#fff" fill-rule="evenodd"/>
    <path id="Path_82840" data-name="Path 82840" d="M599.275,227.61a8.464,8.464,0,0,0,8.316,6.885,8.842,8.842,0,0,0,8.478-8.478,8.458,8.458,0,0,0-8.478-8.478,8.66,8.66,0,0,0-8.316,10.044m-2.295-11.529a14.117,14.117,0,0,1,10.61-4.455,14.415,14.415,0,0,1,14.417,14.417v14.417h-5.94v-2.754a14.506,14.506,0,0,1-19.142-21.653Z" transform="translate(-279.478 -40.954)" fill="#fff" fill-rule="evenodd"/>
    <path id="Path_82841" data-name="Path 82841" d="M797.9,217.981l.513.162a1.252,1.252,0,0,1-.4.621,1.1,1.1,0,0,1-.648.216,1.273,1.273,0,0,1-.864-.351,1.423,1.423,0,0,1-.351-.972,1.265,1.265,0,0,1,.162-.729,1.089,1.089,0,0,1,.432-.486,1.254,1.254,0,0,1,.621-.162,1.133,1.133,0,0,1,.648.189,1.442,1.442,0,0,1,.4.594l-.513.135a.617.617,0,0,0-.216-.324.471.471,0,0,0-.324-.108.577.577,0,0,0-.459.216,1.117,1.117,0,0,0-.189.675.961.961,0,0,0,.189.675.564.564,0,0,0,.432.216.466.466,0,0,0,.351-.135.742.742,0,0,0,.243-.4m-.621-2.322a1.97,1.97,0,0,0-.945.243,1.917,1.917,0,0,0-1,1.674,2.075,2.075,0,0,0,.243.972,1.757,1.757,0,0,0,.7.7,2,2,0,0,0,.972.243,2.074,2.074,0,0,0,.972-.243,1.756,1.756,0,0,0,.7-.7,2,2,0,0,0,.243-.972,1.826,1.826,0,0,0-.27-.972,1.667,1.667,0,0,0-.729-.7,1.97,1.97,0,0,0-.945-.243Zm0-.486a2.386,2.386,0,0,1,1.188.324,2.352,2.352,0,0,1,.891.891,2.408,2.408,0,0,1,.324,1.215,2.311,2.311,0,0,1-.324,1.188,2.353,2.353,0,0,1-.891.891,2.34,2.34,0,0,1-2.376,0,2.353,2.353,0,0,1-.891-.891,2.385,2.385,0,0,1-.324-1.188,2.562,2.562,0,0,1,.324-1.215,2.353,2.353,0,0,1,.891-.891A2.385,2.385,0,0,1,797.3,215.2Z" transform="translate(-426.911 -43.582)" fill="#fff"/>
    <path id="Path_82842" data-name="Path 82842" d="M708,155.5h5.886v26.135l9.423-10.125H731l-12.042,12.932,12.177,15.038h-7.317L713.886,187.2v12.284H708Z" transform="translate(-363.473)" fill="#fff"/>
  </g>
</svg>
