<svg xmlns="http://www.w3.org/2000/svg" width="64" height="64" viewBox="0 0 64 64">
  <path id="ios_share_27dp_000000_FILL0_wght200_GRAD0_opsz24" d="M207.385-766.31a7.175,7.175,0,0,1-5.271-2.1,7.089,7.089,0,0,1-2.114-5.24V-794.3a7.089,7.089,0,0,1,2.114-5.24,7.176,7.176,0,0,1,5.271-2.1h9.67v4.544h-9.67a2.7,2.7,0,0,0-1.935.874,2.666,2.666,0,0,0-.879,1.923v20.653a2.666,2.666,0,0,0,.879,1.923,2.7,2.7,0,0,0,1.935.874h49.23a2.7,2.7,0,0,0,1.935-.874,2.666,2.666,0,0,0,.879-1.923V-794.3a2.666,2.666,0,0,0-.879-1.923,2.7,2.7,0,0,0-1.935-.874h-9.67v-4.544h9.67a7.176,7.176,0,0,1,5.271,2.1A7.089,7.089,0,0,1,264-794.3v20.653a7.089,7.089,0,0,1-2.114,5.24,7.175,7.175,0,0,1-5.271,2.1Zm22.329-20.579v-34.69l-9.6,9.543-3.235-3.242L232-830.31l15.121,15.031-3.235,3.242-9.6-9.543v34.69Z" transform="translate(-200 830.31)"/>
</svg>
