<svg xmlns="http://www.w3.org/2000/svg" width="2560" height="662" viewBox="0 0 2560 662">
  <g id="BG" transform="translate(0 -5557.999)">
    <rect id="Rectangle_6299" data-name="Rectangle 6299" width="2560" height="661.96" transform="translate(0 5558)" fill="#f4f9ff"/>
    <path id="Path_90498" data-name="Path 90498" d="M127.52,143.875c2.79,0,3.133.867,5.524,0s9.441-4.875,11.83-5.426,3.926.182.4,1.87-10.587,5.333-9.325,5.06a96.154,96.154,0,0,0,9.9-3.645c5.059-2.052,4.606-1.14,5.913-3.327s1.991-3.329,1.991-3.329,8.023,7.067,8.768,7.34,1.029-.047,1.418-.911,1.256-2.1,2.392-1.688.171,2.094.854,2.326,1.819-.047,3.917-.637c2.116-.6,1.035-1.912,1.035-1.912s-.227-.05,2.217-.232,10.13,2.233,12.4,3.008,9.163,1.414,11.1,1.96c1.92.548,2.664-.953,5.344.274s4.67,2.868,2.673,3.737-7,1.5-4.434,2.049a45.34,45.34,0,0,0,10.13,1.143c3.7-.095,10.351-1.277,12.4-1.277s3.3,1.093,5.243,3.872c1.926,2.781,3.463,3.877,4.2,4.1s-.735-1.322-.337-2.689-.4-4.059-.854-4.967,0-1.367-.91-2.689-2.389-1.1.337-2.233,4.618-2.823,7.922-2.463,4.2,3.967,7.053,4.235c2.836.277,3.362,1.235,8.244,1.554,4.9.319,2.851.047,8.314.366s3.47-.506,4.606-2.916,2.392-2.873,3.7-2.784,5.916.637,5.916,1.143-1.935,3.1-.974,4.372,4.906,3.374,4.906,3.374-.854-2.918-.854-3.237-.288-2.594.282-3.008,3.81.229,5.861-3.19-1.369-3.237-1.369-3.237-1.246.05-.628-1.364,4.269-2.281,4.269-2.281.23.637-.227-.5-2.845-.909-5.405-1.046-4.318-.456-4.78-2.326a46.609,46.609,0,0,1-.619-8.476c0-2.689,2.5-1.733,2.946-3.237.462-1.5-.11-8.837-.729-10.343s.9-4.744,1.252-6.88c.331-2.147,2.9-1.188,2.9-1.188-.462-.73.729-2.784,4.153-3.645,3.408-.867,9.9.042,9.9.042s-.579.047-2.171,1.825-.554,4.925-2.961,7.156c-2.382,2.233-8.477,1.5-8.477,1.5s1.886,3.69,1.081,4.875a13.08,13.08,0,0,0-1.3,3.6s5.344,1.277,5.635,4.193,2.955,3.419,3.589,6.105c.619,2.692-2.624,4.925-1.945,5.336s.91.59,2.851.682,4.554.411,4.554.411a2.493,2.493,0,0,0-.126,2.823c.971,1.459.236,2.368.346,3.919s1.2,2.871,1.654,2.6,2.554-4.238,3.016-6.013.79-2.737,1.7-2.737,3.987,2.418,4.324,3.284c.355.864.573,2.052-1.127,4.42-1.715,2.37-1.543,3.461-.064,4.375s1.547.637,4.217,1.733,2.156,1,3.81.59-.689-4.009-.518-4.1,3.932-.456,3.078-2.278-1.706-2.734.049-3.645c1.77-.914,3.023-1.641,3.023-1.641a16.725,16.725,0,0,1-2.217-4.285c-1.253-3.055,1.075-2.231,5.981-1.915,4.881.321,5.114,1.78,7.732,2.916s.965,1.551,1.81,3.377c.864,1.82-2.156,2.094-2.156,2.094s-1.991.319-1.534,1.733a23.634,23.634,0,0,0,2.8,5.286c1.418,2.189-.407,3.693-2.624,5.465a11.794,11.794,0,0,1-7.451,2.328c-2.624.042-3.754.956-3.926.316s-1.433-1.227-2.845-.956c-1.427.271-4.67,1.367-3.525,1.73,1.127.366,4.153.277,2.9,2.284s-2.343,2-4.842,1.775-4.835-.229-6.434-.321c-1.58-.09-9.447-.5-9.447-.5a57.8,57.8,0,0,0,9.518,3.917,23.746,23.746,0,0,0,8.645.456s-1.709,2.737-3.764,5.655-3.978,1.641-5.681,1.82-2.732,1.367-5.913,1.733c-3.2.363-9.852-.774-8.823-.366s1.479,1.14,3.3,1.367a8.505,8.505,0,0,1,4.551,1.644c1.592,1.138-1.032,1.414-3.133,1.728s-2.673.643-3.644,1.778-4.554,5.56-5.69,6.93a13.7,13.7,0,0,0-2.609,6.334c-.462,2.689-3.133,5.924-1.935,6.608s5.681.774,7.564,1.775,3.987,5.926,5.405,7.794c1.433,1.87,2.563,3.284,4.153,1.825s4.725-1.1,7.687-.182a46.288,46.288,0,0,1,10.868,6.105c1.88,1.593,5.172,1.322,8.872,1.778s4.113,1.654,4.113,1.654,3.855.169,2.266,1.583-2.055.042-.466,2.415a9.36,9.36,0,0,1,1.09,7.156c-.462,1.594,5.093.788,7.435,1.973,2.327,1.185,2.462,6,3.66,5.407s3.182-1.641,3.418-2.916a21.767,21.767,0,0,0-.291-5.149c-.236-2.189-.854-6.2-2.1-7.791s2.248-2.236,1.675-2.921c-.557-.682-.432-2.049,1.96-2.6s2.56-.045,3.862-.911c1.317-.869,1.543-4.92,1.764-6.379a13.668,13.668,0,0,0-.965-5.787,35.858,35.858,0,0,0-3.745-5.792c-.861-.819-1.935-1.048.4-3.6s.955-2,.619-2.781a40.1,40.1,0,0,1-1.3-4.42c-.469-1.733.955-3.648.11-6.11-.864-2.457-1.764-1.912-1.592-2.457s5.573-.411,9.555-.047,5.577-.364,6.713-.364,3.2.956,5.408,2.189,3.072.911,4.208,2.415,1.764,2.323,4.1,2.234a14.285,14.285,0,0,1,4.842.866s-1.654.816-1.363,3.511-.352,4.643-.291,5.739.692,1.138,1.764,1.275,3.99,2.37,6.991,3.282c3.023.914,3.816.637,4.786-1.459s1.2-1.912,2.389-2.047,1.592.224,2.1-.232c.527-.453-.91-1.367-.573-2.823s2-3.374,3.362-4.47,2.337,1.1,3.534,3.1,5.344,8.518,6.544,10.659,2.732,2.281,1.3,4.288c-1.418,2-2.1,2.871.126,3.782,2.211.911,4.208,2.507,4.042,4.011s-.634,1.549.11,1.957,3.408-.819,5.353-.087c1.926.727,4.263,1.412,5.635,2.6,1.354,1.185,1.243,1.594-.692,2.186a37.083,37.083,0,0,0-4.832,1.686c-.974.5-2.5,1.459-2.453,2.233.061.772-.4,2.049,1.142,1.048a22,22,0,0,1,5.861-2.46c1.819-.456.447-.047,2.1-.229s3.243.682,5.525,1.23,1.654,1.778,1.081,2.918-1.081,2.231-.171,3.508-.4,2.415-2.392,3.964-3.47,1.778-6.713,2.144-4.78,2.049-7.053,3.872-3.418,1.367-6.716,1.507-1.991-1.417-3.01-1.1-2.334,1.277-4.444,1.462-9.23.271-11.955.953-1.874,2.278-2.554,3.6-1.773.774-3.816,1.367-4.5,3.192-6.881,6.745A23.732,23.732,0,0,1,375.047,261a17.881,17.881,0,0,0,5.681-3.648c1.654-1.728,8.544-5.831,10.651-7.106s6.651-3.145,7.732-2.874,3.761,2.054,3.761,2.963-.8,1.641-2.725,3.192-4.5,0-4.333.635a4.721,4.721,0,0,0,3.016,2.418c1.482.319,1.412,1.867,1.412,2.642s-.848,1.778,2.56,4.24a11.555,11.555,0,0,0,8.323,2.5c2.5-.134,1.182.727,2.217.64,1.02-.092,1.252-1.778,1.589-3.145a5.357,5.357,0,0,1,1.819-3.237c.916-.59,1.6-1.686,1.889.411.273,2.1-1.035,4.965-2.343,5.607s-1.029,1.457-1.029,2.094-1.479.682-5.007,2.37-4.661,2.094-5.289,1.867-1.935.271-3.635,1.6c-1.715,1.32-3.525,3.1-4.771,3.053-1.262-.045-2.343-.5-.637-2s2.281-3.6,3.981-4.333a7.922,7.922,0,0,1,3.926-.635c1.418,0,.738-.73,1.88-1.459s-.861-.506-2.79-.774-.453-1.733-.453-1.733l-2,.914a27.354,27.354,0,0,1-3.816,1.459c-.79.09-.619.545-.845.817a13.587,13.587,0,0,1-3.072.456s-1.482,2.6-3.705,2.963-.668.227-2.272.819-1.3-.68-1.648-.319a10.345,10.345,0,0,1-2.382,1.825c-1.77,1.14-2.805,1.5-4.042,5.652-1.262,4.146.22,5.647.175,6.29-.064.635-2.226-.413-2.845.09-.643.5-2.061,2.049-3.935,2.5s-5.57,1.277-6.434,2.052-.906,1.87-1.308,3.464a32.224,32.224,0,0,1-2.615,5.333A2.348,2.348,0,0,0,360.7,298c-1.534-1.093-1.3-2.1-1.3-2.1a5.859,5.859,0,0,0,.227,3.055c.573,1.549,1.7,3.1,1.191,4.783s-1.482,3.782-2.673,4.375.282-1.138.282-2.5-.79-1.459-1.308-2.141-.518-2.415.4-4.741-.854-.909-1.883.64-1.755,4.417-.172,6.287c1.6,1.867-1.017,1.686.064,4.375s-1.3,4.011-.864,4.422c.456.411,1.709-.182,2.281,1.14s-1.13.727-1.7,1.1-.291.864.046,1.593,1.035.271.744.5a6.022,6.022,0,0,1-2.563,1.549c-1.473.413-1.589-.226-2.5.687s-1.589,1.73-2.563,2.779-1.645.685-2.67,1.412-1.427,1.322-2.689,2.236c-1.237.906-4.088,2.32-5.616,4.1-1.543,1.778-1.145,2.233-1.88,5.107s1.88,7.88,3.525,12.624,2.333,3.416,2.107,4.92a7.691,7.691,0,0,1-2.168,4.377c-1.185,1.046-1.868-.729-3.519-1.78s-.346-1.775-1.935-3.964a6.953,6.953,0,0,1-1.654-4.556,17.841,17.841,0,0,0-1.3-5.607c-.864-1.733-2.68-3.919-5.414-3.053s-2.036.458-3.519.09c-1.5-.363-5.408-1.728-7.4-.819s-8.3-.274-9.622,0c-1.308.274-2.281.366-2.281,1.14s-.554.909,1.773,1.457,1.991,1.14,1.831,2.007c-.181.864-1.886-.456-2.805-.774s-1.755.637-3.344.637-1.88-1.322-3.307-1.5a13.879,13.879,0,0,1-3.363-.456,13.726,13.726,0,0,0-4.771-1.138c-1.589.09-7.742,3.6-10.648,5.465-2.891,1.87-5.126,3.693-5.791,5.2-.689,1.5-.753,1.641,1.589,3.874,2.327,2.234,1.256,1.873.793,3.145s-1.825,2.823-3.464,6.108c-1.663,3.279-.689,4.875,1.3,8.02a29.687,29.687,0,0,0,5.35,6.745c1.592,1.319,2.729,2.734,4.091,3.234a5.638,5.638,0,0,1,2.288,1.23c.619.548.447.774,2.618.274,2.153-.5,3.745-1.233,5.28-1.233s2.961.047,3.816.735.971.274.971-.095a8.39,8.39,0,0,1,.909-2.094c.221-.366,2.272-2.873,2.609-4.24s.346-4.1,2.343-4.285,6.253-1.046,10.124-.819,2.162,1.87,1.145,3.6-1.433,1.917-1.433,3.24.462,1.32-.784,2.1-.462-.458-.974.316a7.757,7.757,0,0,1-2.1,1.688c.217-.182.784,1.319.784,2.052s-.165,1.093-.165,2.871-4.042,3.6-4.042,3.6a8.928,8.928,0,0,0,3.641.732,19.078,19.078,0,0,1,7.053.911c2.281.909,6.605-.73,9.8.637s2.052,2.186,2.272,3.466a34.486,34.486,0,0,1,.352,6.65c-.245,1-1.724,3.827-2.517,5.834s2.272,3.463,5.126,5.1a25.9,25.9,0,0,0,6.832,2.737c1.467.361,4.2-1.917,9.215-1.643a7.771,7.771,0,0,1,6.707,3.922,17.336,17.336,0,0,1,2.854-5.381c2.278-3.1,2.383-4.009,5.454-5.012s4.1-1.185,9.11-2.552,4.091-.363,6.71-.182a83.749,83.749,0,0,1,14.684,2.189c6.024,1.549,15.247,2,18.772,3.279s5.126,4.833,8.768,7.746,8.189,5.56,10.124,6.93,12.749,2.644,15.14,3.464,5.7,4.19,5.916,6.2,2.615,3.005,5.907,4.193c3.307,1.183,4.333,2.55,6.5,6.2s1.482,4.646,4.434,5.56c2.971.914,23.455,5.652,28.569,7.383s11.606,6.382,13.315,6.93,4.786-.458,6.143.179-.8,4.1.916,6.566,1.819,2.644.8,4.462-5.123,6.2-6.716,8.389-5.013,3.553-6.942,4.467-3.644,0-1.935,1.823.11,3.371-1.372,5.012.126,1.459-.337,6.745,0,11.03-.689,13.306-4.655-2.007-9.215,2.916c-4.545,4.925-5.8,8.66-8.526,9.208s-9.1,3.282-11.266,5.015a11.975,11.975,0,0,0-4,4.92c-1.363,2.55-2.719,7.749-4.2,10.938s-3.871,5.012-9.34,9.3-7.849,8.66-11.383,12.034c-3.519,3.371-2.609,2.639-3.353,3.276-1.883,1.628-9.646-2.623-7.641-.271,1.479,1.73-.833,0,.413,1.638s2.162,2.281-.564,5.2-5.883,2.339-8.048,2.8-5.384-1.917-5.61-.73-1.473,4.132-3.188,4.859c-1.7.73-6.253,1.825-6.143,2.281,2.156,8.636,6.575,9.537,1.9,9.142-12.828-1.08-3.675-3.7-12.6,12.366-1.366,2.463-2.719,1.185-2.5,4.1s0,5.107,1.828,6.93.564,1.73-2.508,4.19-3.307,2.1-6.143,5.837-5.573,3.553-4.554,6.382,1.246,7.016,2.961,11.207,5.237,3.464,10.807,6.379,6.259,1.37,8.994,2.1-1.942.917-6.832,1.638-8.078,1.549-11.5.919-11.487-4.654-14.222-6.384-7.16-4.828-8.768-7.836c-1.589-3.01-2.725-6.016-4.771-10.119s-.579-6.653.343-15.674,1.592-16.045,3.072-20.876,6.036-26.341,7.273-31.9c1.262-5.56,7.068-28.164,7.515-31.719a73.1,73.1,0,0,1,1.709-9.843c.916-3.556.343-10.757.343-11.12s-.343-.637-1.6-4.009c-1.24-3.371-3.292-4.741-6.128-6.2s-5.815-3.279-8.088-4.649a33.392,33.392,0,0,1-7.288-5.739c-2.278-2.462-4.44-7.475-5.57-9.574a125.178,125.178,0,0,0-9.215-14.125c-3.871-4.923-4.107-5.012-6.033-10.211s1.7-5.283,2.389-8.2,2.955-5.834,5.463-9.935,5.806-5.286,7.732-8.931.462-3.645-.227-7.2.227-3.008-1.035-4.923c-1.243-1.912-1.92-4.28-3.056-4.92s-2.842-1.1-3.877-.092c-1.02,1-2.836,3.919-3.981,4.1-1.127.179-1.589-.917-2.272-1.554s-3.981-.635-4.67-1.275-2.383-.73-3.519-1.183a54.115,54.115,0,0,1-6.841-3.374,7.411,7.411,0,0,1-2.836-5.47c0-2.368-2.383-3.282-7.732-6.561s-7.631-3.737-14.12-5.1-9.1-5.286-11.27-6.382-1.935-2.281-6.713-1.823-10.58-1.823-14.231-3.095c-3.629-1.28-10.124-2.189-12.859-3.74-2.719-1.551-7.506-2.1-9.551-5.834s-1.715-2.278-.916-5.56-4.664-6.016-7.962-9.113-5.806-3.556-7.515-7.385-4.2-3.645-7.506-6.379-3.424-6.2-4.78-9.3S203.6,331,203.6,331s2.383,5.2,3.415,7.293a74.349,74.349,0,0,0,6.143,10.843c2.729,3.737,5.117,4.649,7.625,8.386s.116,6.016-.808,4.559c-.906-1.459-4.551-2.1-4.551-3.827s-.894-2.829-1.7-4.193-4.318-2.921-7.742-5.289c-3.408-2.37-5.791-3.466-3.644-3.466,2.162,0,5.243,1.733,4.676.64s-4.44-4.467-6.269-6.837c-1.81-2.368-2.389-5.012-4.214-9.021s-8.526-7.841-11.833-8.112c-3.292-.277-4.208-1.643-5.344-4.557s-1.363-6.016-2.845-8.3-7.852-9.932-7.959-12.848c-.126-2.918-1.945-11.4.337-16.135s1.7-15.31,1.363-17.407-4.443-6.105-4.443-7.659,2.4-.635,4.223-.182c1.81.458,5.681,1.825,5.681,1.825s-2.952-4.741-4.771-6.382c-1.834-1.638-7.178-3.737-9.567-4.193s-5.463-1.183-6.716-2.916-2.609-4.011-3.525-5.47-4.79-3.187-5.69-4.738-.683-4.559-1.926-6.108a4.7,4.7,0,0,0-5.133-1.823c-2.055.637-2.729-.911-4.318-3.192s-5.126-3.371-6.152-3.64-4.545-4.285-4.771-5.289-5.815-6.292-7.625-7.385c-1.834-1.093-19.464-6.013-19.908-6.013-.462,0-5.589.637-6.952.274s-6.033-3.83-8.415-4.559c-2.4-.73-4.113.819-5.243,3.1s-6.716,6.2-9.787,7.93-5.577,1.915-5.35,1a14.907,14.907,0,0,1,1.142-4.557c1.02-2.189,1.592-2.829,4.771-4.193,3.2-1.367,3.075-1.459,1.828-1.367s-2.171-.182.343-1.459,3.519-1.459,3.408-2.552-5.46,1.459-8.884,3.83a28.628,28.628,0,0,0-8.415,8.2c-2.961,4.193.343,2.642-2.156,5.381s-11.04,8.291-13.539,10.388c-2.517,2.1-12.859,6.745-17.082,7.841s-5.916,1.549-7.962,3.005-7.169,1.912-5.469.911c1.715-1,4.9-3.282,7.068-4.375a99.391,99.391,0,0,1,9.662-3.645,31.761,31.761,0,0,0,8.884-5.378,48.149,48.149,0,0,0,5.58-7.109c1.592-2.189,1.929-3.19-1.363-2.278a16.165,16.165,0,0,1-8.425,0c-1.715-.548-6.158,1.73-7.748.73s.126-3.1-.91-4.1c-1.02-1-4.554-.363-6.826-.73s-5.46-1.915-5.46-4.646-2.272-5.107-1.026-7.2,3.078-2.647,5.117-3.83a33.156,33.156,0,0,1,8.878-2.734,6.949,6.949,0,0,0,3.761-1.912c1.017-.914-2.392-4.2-2.392-4.2s.573-.363,1.929-1.093c1.372-.73.352-2.278-2.046-2s-7.506,2.37-10.7,3.1-7.506.277-7.4-.911.8-1.912-.346-2.823c-1.127-.914-2.043-1.917-.91-2.37s8.2-3.827,8.2-3.827a10.561,10.561,0,0,0,5.234,2.639c2.735.274,8.535-4.1,8.535-4.1-3.644-1.912-2.839-2.463-2.839-2.463s-5.923-.09-7.285-.822a5.006,5.006,0,0,1-2.162-3.461c-.337-1.277-6.146-2.281-4.554-4.377S12.869,156,14.8,153.9s3.638-6.016,9.224-8.2c5.57-2.189,12.286-4.19,15.247-6.016s4.327-.087,5.463.182,8.195-.269,10.914-.269c2.735,0,3.2,2.636,4.107,3.274s24.924,1.28,24.924,1.28,20.365.274,24.462,1.277,11.49,3.645,11.49,3.645c4.5-.5,4.1-5.2,6.887-5.2M401.165,38.145a14.338,14.338,0,0,1-10.234,9.3c-8.2,2-23.225,7.657-23.908,8.02s.91,4.372,2.955,6.382,3.981,3.369,5.8,5.376,5.016,1.823,7.515,3.922,4.327,1.364,11.159,1.459,5.007.545,12.629.909,15.594.911,18.212,2.916,6.37,9.848,8.761,14.586,6.6,12.577,6.6,13.306-2.615,6.471-2.615,7.383,1.357,2.46,2.615,3.735.567,2.281.331,3.466c-.22,1.185,1.372,4.193,1.608,4.557s3.626-2.916,5.8-3.463,7.515,3.282,7.515,5.923c0,5.995,1.9,3.953-9.441,11.03-1.507.932-2.964,8.11-1.828,11.573s3.865,7.567,6.027,12.49,8.532,11.847,10.586,15.039,2.624,7.567,7.169,8.568,8.887,2.37,12.176,3.008,5.463,1.551,7.053-1.093,4.78-12.671,7.4-19.962c2.609-7.29-.227-9.479,5.917-11.12s15.93-4.92,18.546-5.923,2.165-8.2,7.971-10.575,6.6-2.183,12.286-3.735a83.449,83.449,0,0,0,19.345-8.112c5.7-3.469,7.288-1.641,9.34-4.833s-2.052-7.838-2.5-12.579c-.462-4.736,1.819-5.012,2.946-9.295,1.145-4.283,1.715-7.111,6.143-10.024,4.443-2.918,6.826-4.557,6.033-7.293s-3.072-6.837-3.072-9.843.808-1.277-1.017-5.468-1.819-4.741-.12-8.663,6.263-2.916,5.926-4.649c-.355-1.733-7.288-4.372-7.4-9.205s1.256-6.29,2.383-7.472c1.145-1.188,12.749-9.116,13.548-9.845s-.227-2.737,5.46-5.1,7.625-3.919,9.787-4.646,5.58-.64-1.026-2.281-8.078-2.37-12.4-1.915-5.806,2.555-13.554,3.192a77.613,77.613,0,0,0-16.494,3.735s2.615-2,.337-3.919,5.923-8.2,7.294-8.934c1.347-.727-10.7-3.279-16.972-4.28-6.253-1-18.539-4.193-25.592-3.74-7.068.456-17.413.366-20.947,1.37s-3.072,4.92-7.05,5.1-11.38-2-17.076-1.28-14.794,4.106-15.82,4.288,3.534,2.552,6.489,3.1,6.823,5.834,6.823,5.834-7.959-2.278-16.038-4.193-17.538,0-20.836.822-7.625,2.368-14.222,2.644-14.105,4.917-17.866,7.106-15.474,8.02-18.438,9.39-1.816,2,1.366,2.734,6.605,1.185,6.605,1.185M232.509,113.491c.9,3.342.9,8.144-1.222,6.076s-3.871-6.258-7.279-4.557-7.123,1.217-6.529.853c.612-.369-.07-2.186-1.816-2.737s-2.805.3-4.624,1.217-7.585,2.123-5.234.545,1.589-2.428.75-4.254-6.823,1.277-10.02,3.224c-3.182,1.944-5.071,4.92-6.973,6.924s-.527,3.284,2.358,4.011,7.515,1.217,3.635,2.431c-3.862,1.217-6.832,2.062-4.851,3.1s5.384,1.217,8.792.851c3.424-.363,6.308-1.151,11.769.121a39.3,39.3,0,0,0,8.712,1.217,19.011,19.011,0,0,1-5.681,1.641c-3.641.548-10.326,0-13.735.548s-8.8,1.333-7.435,2.428,2.428,2.794,7.138,4.069,5.54.066,8.345.672,1.283,3.34,2.046,3.766,6.073-.363,11.377-1.214,3.344-1.58,7.515-2.494,4.324-3.643,6.753-4.251.683,1.4,3.565,2,1.3.793,4.407,1.217,2.5,1.459,5.531,1.275,6.605-1.941,6.143-2.249a2.08,2.08,0,0,1-.6-2.307c.306-1.217-3.041.242-4.247.848s-1.136-1.638,1.442-2.734,4.857,0,6.37,0,.156-3.766-2.578-4.375-3.947-2.068-8.045-4.009-1.975-2.795-3.182-5.344-3.794-10.09-6.073-11.431-4.71-.969-6.973-2.3a11.5,11.5,0,0,0,.453,5.223m-62.974-5.165c.986,2.434,1.136.914-.833,3.587s-.836,3.643-2.2,5.65-5.007,4.68-3.871,6.016,4.78,2.128,6.3,3.163,3.035,3.155,5.76,2.368a32.732,32.732,0,0,0,5.54-2.189c1.9-.848,3.494-1.823,3.408-3.951-.061-2.125-.147-3.155.628-2.976.744.182,1.957,1.154,2.569-.242a12.613,12.613,0,0,1,2.961-4.317c1.277-1.09,5-2.186,6.74-3.461,1.755-1.275,4.716-2.673,5.546-3.766s-1.519-1.946-2.961-2.431-3.1-2.428-6.44-2.428-5.163,2.186-5.016,1.212-2.272-1.456-3.635-1.883-2.655-1.093-6.982-.666a55.636,55.636,0,0,0-9.567,1.517c-2.955.727,1.075,2.368,2.055,4.8m98.776,29.109c-.447.545-2.422,1.093-3.629,2.31s2.569.545,3.776.909c1.222.366,2.131,1.4,3.121,1.7s6.3.485,8.5-.429,2.419-1.212,2.193-1.638a32.582,32.582,0,0,0-7.732-5.531c-3.2-1.459-3.268-1.517-3.95-1.154s-1.816,3.282-2.278,3.83M253.97,109c-2.061.885-3.549,1.946-.07,3.466s4.624,2.794,6.982,4.069,3.338,4.923,8.274,3.284c4.921-1.641,6.9-3.587,7.592-5.289.668-1.7-.689-2.065-1.9-3.645s-1.522-2.249-4.021-2.007c-2.514.242-3.347.242-3.347.242a13.887,13.887,0,0,1,4.4-2.976c2.735-1.156.456-1.946,1.739-3.037s-3.258-1.641-5.224-1.217-2.055-.124-5.322-.24-8.406,2.428-8.186,3.337,2.655.55,4.927,1.644,2.961.972.683,4.072-3.479-.73-4.241-1.222-.156-1.393-2.288-.482m-14.558-5.586c-3.408.271-4.56,2.307-3.258,2.61,1.283.3,2.122-.3,4.159,1.58,2.055,1.883,3.88,2.916,4.71-.182s-.377-4.438-5.61-4.009m-54.779-23.52c-3.8,2.613-4.554,4.68-7.506,6.321s-2.281,3.039-1.292,3.948,3.947-.061,5.3-.669c1.372-.608,2.5-2.123,3.344-1.212s4.318-3.1,5.69-4.438,3.488-2.734,3.88-2.671c.374.058-1.3,1.58-.7,2.855s3.338,1.335,5.766-.851.227-4.193,2.131-5.895c1.889-1.7,3.479-1.459-.227-2.981s-6.082.184-6.841.977c-.744.788-2.116-.49-9.551,4.614m23.13,4.135c-2.147.084-3.1.363-6.667,1.7s-5.087,4.8-5.916,6.682.377,1.883,3.644,2.979,7.812-.3,8.869-2.918,2.367.608,1.758,1.944,2.272.121,3.641-.485,5.454-.851,5.76-.851-3.338,2.37-6.912,3.4a57.109,57.109,0,0,1-7.435,1.7c-.98.121.916,1.4,5.087,2.128s6.682-2.189,12.678-4.135,5.687-2.31,7.662-1.823,4.091-.848,6.52-1.338,3.415.306,4.48-2.794,2.955-6.074-.453-6.258c-3.424-.182-3.644-.182-4.107,3.161-.447,3.34-.759,1.275-.759,1.275s-2.272-2.916-3.644-4.435c-1.354-1.52-2.349-3.888-3.862-5.165s-2.2.545-4.554,2.795-.453,3.1,1.9,4.072,4.021,3.463,2.894,4.132c-1.145.666-2.438-.118-6.756.3-4.333.424-4.177-1.151-5.39-1.641s2.043-1.514-2.588-3.158-4.309-1.338-5.846-1.275m-14.026,3.161c.478-.706-5.766,3.158-6.716,4.4s.949,1.032,2.854.972c1.889-.061,2.272-3.039,3.862-5.376m11.989-8.054c-1.559.6-1.559,1.064.98,1.3,2.554.245,4.036-.727,3.494-1.638-.524-.911-3.228-.15-4.474.335m12.938-11.541c-1.669.237-6.605,1.728-6.872,2.457a5.075,5.075,0,0,0,.8,3.553c.759,1.248,1.026,1.43,5.273.458s7.169-2.858,5.757-3.192a34.326,34.326,0,0,0-3.519-1.032c-1.253-.15,1.1-.727,3.9-1.488s3.761-2.068-5.344-.756M204.284,69.5c-1.2.471-1.629.485.87,1.306s5.2.759,4.851.092c-.328-.674-2.349-2.739-5.72-1.4m9.787-5.987a6.479,6.479,0,0,0-3.454,2.858c-.527.577,2.695-.427,4.177-.73s1.816.453,3.258-.64,4.293.032,6.872-.456,2.992-1.944,2.422-3.216-6.48-.126-13.275,2.183m25.718,5.5c-.7.29-.456,1.246.156,2.37s.759.848,2.046,1.277a10.131,10.131,0,0,1,2.876,1.575c.312.277.493.366,1.035-.727s-.276-.909-1.709-2.368-2.578-2.887-4.4-2.128m8.761,9.54a4.994,4.994,0,0,0-3.794.822c-.72.3.386,1,.87,2.3s.086,1.736,2.961,1.917,3.754-.274,3.99-1.854-2.2-2.763-4.027-3.19m11.2,2.855c-1.785-1.122-2.655-2.033-4.483-1.4-1.81.637-.3,1.428-.3,1.854s2.2-.061,2.242.972.714,1.457-1.945,1.58-3.375.029-4.4.7c-1.011.669,1.984-.092,2.894.943s2.459,1.154,5.007.819,5.993-.819,5.993-.819a18.492,18.492,0,0,0-2.624,2.581c-.753,1.061-1.06,2.581.273,3.34s1.482-.788,5.166-.851c3.666-.058,4.771-1.7,4.771-1.7a2.751,2.751,0,0,1-.723-2.278,5.4,5.4,0,0,0-.037-1.946,14.737,14.737,0,0,1,1.816,1.277s-.257-.943-.79-2.644-.11-1.823-.689-4.132-.447-2.795-3.222-2.737-4.661.885-6.942.885-3.268.363-1.589,1.093,1.9,1.609,2.686,2.431.652,2.795.689,2.7-3.791-2.676-3.791-2.676M245.9,90.071a.427.427,0,0,0-.119.042,2.789,2.789,0,0,0-1.635,2.355c-.074.79,1.528.332,4.067-.424s1.292-2.976-2.312-1.973m35.808-4.132a18.658,18.658,0,0,0-5.016,3.492c-1.207,1.185-.147,1.338,3.01,2.7s6.52,1.638,7.993.213-.683-8.9-5.987-6.408m14.638-10.606c-4.036.345-2.79.867-7.454-.456a50.768,50.768,0,0,0-12.112-1.459c-1.608,0-.854.64.8,2.966,1.635,2.32,2.1,3.142,5.506,2.413,3.427-.73,6.207-1.227,8.706,1.87s3.816,4.056,1.764,5.191-1.081,2.963.126,5.336c1.182,2.368,3.917,2.276,7.732,2.276s27.935-.313,31.7-.909,7.108-3.329,9.1-4.557,3.072-3.145.346-4.559a23.514,23.514,0,0,0-9.677-2.734c-3.087,0-5.7,1.367-10.36,1.775s-3.641,2.328-7.849,2.418-2.165,1.686-7.353-.137c-5.169-1.823-8.979-4.1-6.532-4.42s4.434-.593,3.072-1.593-3.764-3.74-7.515-3.421M248.1,58.381c2.5.727,3.133,1.275.337,1.912s-4.952,2.323-2.162,2,5.178.229,8.758.732,3.3.182,4.891,1.915,3.307,1.73,5.751,1.23,2.781-.64,1.207-2.147c-1.608-1.5-3.252-4.28-5.414-5.376s-3.981-2.642-6.143-2.46-2.673.224-4.554-1.96-3.353-1.14-6.1-.548c-2.716.593-3.6,2.273-4.661,3.008-2.162,1.507,5.586.956,8.088,1.688m32.776-22.332c-2.961,3.19-5.353,5.879-2,6.2s4.836-.229,5.062.685-.57,1.549-5.57,1.549-3.473.956-.683,3.782,3.072,1.87,7.334,1.775,5.7-1.412,9.224-.632,4.606,1.549,1.427,2.368c-3.2.819-10.712,2.368-9,3.737s7.007,4.649,9.4,4.967,2.891-1.37,8.072-.869,3.932.959,4.5-.271,3.418-4.375,3.981-5.515,2-1.867,4.842-2.415,3.754-1.32,1.081-2.144-5.7-1.185-5.405-1.82,1.935-2.507.793-3.463-2.955-.914-4.444-1.412c-1.473-.506-3.12-2.829-5-3.83s-3.525-1.1-5.806-2.6-5.916-5.17-10.467-4.965c-3.072.137-4.382,1.683-7.334,4.875m-5.815,26.662c-1.136.5-3.981.59-1.865,2.094,2.1,1.5,1.528,1.551,4.2.682s6.541-3.005,6.893-3.643c.331-.64-2.686-1.87-4.731-2.415s-3.463-1.962-7.735-2.966c-6.2-1.454,4.382,5.742,3.237,6.247M414.281,15.3c-4.7-1.093-21.54-3.89-27.01-2.8s-5.157-2.428-12.739-1.575-19.268.361-22.906.848,1.81,1.823,3.794,2.918c1.966,1.093-9.411-1.217-18.062.851s-14.268,3.158-5.007,6.2,10.467,3.885,10.467,3.885-11.839-1.82-16.837-3.524c-5.016-1.7-2.272-1.578-11.692.73-9.4,2.307-18.509,3.524-18.052,5.955s7.585,5.713,12.3,6.561,14.418-1.214,15.177-1.457-3.81,3.282-3.81,3.282,4.86-.853,10.32-2.07,9.717-2.55,14.88-4.13a49.469,49.469,0,0,0,6.063-2.065s-8.948,5.958-15.168,8.02a77.585,77.585,0,0,1-18.062,3.527c-3.791.121-3.188,2.186.609,3.888s6.679,5.347,8.645,6.561a4.953,4.953,0,0,1,2.278,3.161,11.89,11.89,0,0,0-12.442,0c-6.526,4.009-5.616,6.079-3.941,6.563s7.429.969,8.495,2.673,8.642-1.578,8.642-1.578-3.785,4.13-7.435,4.13c-3.629,0-3.479-2.673-8.792-2.189s-5.016,1.583-2.735,3.161,4.107,2.068.15,3.648-5.76,2.065-5.91,4.009,5.148,1.944,8.495,1.944c3.329,0,6.52-.242,12.6-.363,6.057-.121,5.3-1.825,7.579-1.825s4.56.611,3.641,2.555.9.73,7.586-1.335,3.638-5.231,3.2-6.321c-.462-1.1-2.891-1.459-4.4-2.065s4.554-5.958,3.629-7.778c-.9-1.825,7.445-.366,11.23-4.617s2.428-7.417-.3-8.144,5.016-.242,7.435-1.462,7.742-2.671,9.867-4.981,2.876-3.161-2.272-2.673c-5.163.49,7.42-1.946,13.493-5.349s13.061-7.412,14.574-8.383,2.891-.49-4.254-.121c-7.123.363-15.633-.485-10.914-.972,4.7-.487,18.656-1.944,22.3-4.254a46.748,46.748,0,0,1,5.3-3.039M329.319,99.64c-7.595-.611-18.659-2.189-20.946,3.4a156.854,156.854,0,0,0-6.073,20.3c-.3,2.31,9.107,5.713,15.633,5.952s17.152.608,15.03-.727-.315-2.065,5.766-1.82c6.057.242,6.667-1.1,6.667-2.189s1.066,1.333,5.313,3.279,7.9,7.414,11.692,10.575,12.286,7.412,10.617,9.843,1.816,10.938-11.236,12.885-13.8.606-13.652,3.158.753,3.648,5.917,3.648,12.3-3.648,14.715-.972,5.77,3.643,7.9,4.251c2.113.611-2.588,1.7-3.794,2.065s2.578.73,10.014,3.769,16.377,3.4,11.974,1.217c-4.388-2.191-6.51-6.2-8.495-7.535-1.966-1.335-.147-.248,3.347.485s6.676,3.158,8.195,4.254c1.5,1.1,2.272-.363,3.332-4.62s-.456-4.251-6.379-7.654c-5.907-3.4-7.735-6.076-8.345-8.507s3.047-2.916,4.569-4.62,5.757,3.039,8.642,5.834,5.3,7.657,7.585,4.133,4.394-11.423,4.394-13.248-2.272.121-11.98-4.009-14.715-5.71-15.633-5.71,2.588-1.583,6.841-3.406c4.232-1.823,6.057-1.578-3.047-8.992s-11.683-8.992-17.6-9.482-7.585-5.834-11.839-7.654-14.105,2.189-17,2.795c-2.876.608-1.975,1.58-5.619-2.916-3.629-4.5-6.511-7.778-6.511-7.778m6.823,0c-3.767.385,2.272,6.319,7.123,6.564,4.866.24,8.957-1.825,10.023-2.07s-11.23-5.1-17.146-4.493m-17.027,60.278a27.73,27.73,0,0,0-2.4,7.475,12.07,12.07,0,0,1-1.246,4.375c-.57,1.549,1.819-.274,3.411,2s.9,2.916,3.751.271a9.827,9.827,0,0,1,10.014-2.46c3.99,1.093,7.062,1.551,5.7-.543s-3.188-1.917-5.923-4.741-4.771-3.556-8.189-4.651-3.761-4.557-5.117-1.73M347.74,372.865c-1.167-2.107-2.937-5.521-10.311-6.7-7.389-1.18-9.879,1.18-12.6,1.97-2.735.79,2.539,1.18,6.048,0s6.189-.255,6.667.287-1.182.874-1.776.3-.714,1.414,3.252,2.647,4.927,1.82,5.325,3.284.371,2.244,1.271,3.466,1.246,1.736-.416,2.27c-1.684.54-1.081.466.141,1.117a18.019,18.019,0,0,0,7.172,1.991c3.47.253,4.615.811,2.2-1.923s-6.606-8.044-6.976-8.707m11.024,13.351c1.929,1.694,1.366,3.535,1.231,4.509s-2.208.219-6.018-.648-3.228-.443.086,1.1,5.454,1.164,5.3,3.211,3.041.187,4.453-1,1.308-.134,7.193.629,7.1,1.678,6.158-.545,2.695-2.039-2.533-4.159-18.053-5.025-15.875-3.095M342,387.478c-2.208-2.1-4.982-2.413-5-.619-.031,1.8.75,1.691,2.79,2.178,2.061.49,3.635-.216,2.208-1.559m42.753,9.147c-2.413-.711-2.909.848-1.3,2.144s4.058.848,6.48.753-.98-1.654-5.178-2.9M357.064,142.281c-3.188,1.156-5.062,1.957-2.278,5.1s4.44,5.1,5.515,2.823c1.09-2.278,2.171-9.89-3.237-7.928m-25.543,33.739c-4.811.666-6.388.79-5.626,3.1s2.052,1.939,5.31.543,5.549-4.372.315-3.645m10,3.524c-.821.213-1.057,1.825,0,3.279s3.111-.485,4.021-2.247-.98-1.823-4.021-1.032m-52.5-112.172c-4.545.129-11.377,1.52-7.585,1.58s6.9.73,13.055.424,6.746-.666,6.9-3.221-4.012.972-12.366,1.217M260.576,45.925c-4.639,1.238-3.485,2.065,1.975,4.13s5.61,1.093,5.016-2.8c-.613-3.89-4.257-2.065-6.991-1.333M584.888,147.636c-5.745,1.378-7.68.553-8.767,3.061s-3.338,1.162-4.639,1.472-3.136,7.306-4.042,6.266a18.446,18.446,0,0,1-2.579-4.011c-1.317-2.4.447-1.981-2.085-4.512s-7.53-2.249-7.873-1.212,3.445,1.91,2.153,3.084-4.388,2.61-5.561,3.461,2.254.477,4.4.042,3.626,1.388,4.5,2.681-.989,2.552-1.92,3.182,3.127.474,4.75.732,2.474,1.435,1.363,3.013,4.817.227,8.118.063c3.268-.166,4.137,1.933,9.1.6s7.319-1.246,11.848-4.125,4.168-2.207,7.169-4.064,2.278-2.428,2.413-4.485c.116-2.054,1.981.579,1.268-2.528-.689-3.113-4.4-2.265-6.988-2.507s-2.493-1.986-3.791-2.536-3.02.924-8.847,2.326M969,415.362a8.521,8.521,0,0,0-.612,3.221c0,1.641-.221,3.4-.07,5.044s.257,2.795,1.323,3.161a4.026,4.026,0,0,0,3.528.032c1.755-.7,3.384-1.944,2.514-3.83a51.432,51.432,0,0,0-3.463-5.866c-.94-1.393-2.759-3.158-3.219-1.762m-1.4-2.255c.2.7.453.55.83,1.032s.8.063.276-.574-.472-.716-.472-.716-.674-.2-.674.379m163.86,96.878c-.015.071-.117.113-.181.169-3.117,2.713-5.953,1.954-11.306,3.382-5.454,1.459-14.911,6.2-15.584,8.3s0,2.37-.683,2.1a7.881,7.881,0,0,1-1.834-1.551,8.8,8.8,0,0,0-1.127,4.83c.337,2.281,1.589,3.645,1.479,6.564s-1.369,4.649-1.252,6.656,3.972,5.829,5.007,8.2c1.02,2.368,1.709,1.731,2.272,6.016s3.191,6.65.563,8.929c-2.609,2.278-4.551,1.825-1.354,4.193,3.182,2.37,5.8,3.922,10.914,2.37s3.761-2.916,7.741-3.645,4.787-1.459,8.195-1.643,5.806.092,7.068-2c1.24-2.1.331-2.007,3.739-3.464,3.424-1.459,3.072-1.825,5.353-2.189s3.751,1,6.823-1.093.8-2.278,7.625-2.278c6.841,0,9.692.822,12.176,1.549,2.514.729,6.606,2.642,7.631,4.011s2.392,3.008,2.839,3.008,1.032.09,2.624-1.275a67.773,67.773,0,0,1,6.143-4.1s-.227,2.913-1.256,4.009a4.619,4.619,0,0,0-1.026,3.192c0,.543,2.618-1.736,2.971-1.825.337-.092.68,4.009,1.02,4.375s1.369.182,2.389,1.367,2.4,2.1,3.418,4.377,5.35,4.554,8.084,4.92a26.363,26.363,0,0,0,7.163-.095c2.052-.271,2.162-2.368,4.324-1.546s-.11,2.552,5.007,2.186,6.489-1.823,8.541-3.008c2.036-1.183,2.272,1.641,4.891-1.459s3.072-2.368,3.525-6.105.337-4.467,2.839-8.02,3.087-1.825,4.793-7.019,3.865-10.119,3.644-14.4.1-1.462-1.035-6.292-.337-4.283-3.978-6.287-4.554-1.459-5.463-4.285.227-3.645-1.479-3.645-3.2.637-4.217-1.277-.9-2.644-2.836-4.467-3.754-1.457-7.288-2.823-1.709-1.73-1.709-4.1.2-4.888-2.615-5.984-1.136.609-1.136-3.282,0-3.342-2.272-4.009-3.041-.608-4.483-2.979a79.153,79.153,0,0,1-4.012-7.836c-.689-1.583-1.519.179-2.437,1.333a11.121,11.121,0,0,0-2.2,6.079c0,2.368,1.216,3.706,1.216,6.864s-2.569,6.321-4.177,8.146c-1.589,1.82-2.875.182-4.247-.308s-1.66-2.247-4.545-3.461-8.195-2.31-10.623-4.19-.762-1.949,0-3.893a9.9,9.9,0,0,1,3.641-4.8c1.819-1.275,1.286-1.762-.986-2.855s-5.46-1.154-9.331-1.154-6.143-.242-5.926,1.641c.245,1.883,2.5,2.61-.75,2.065s-6.073-.79-7.515.545-1.749,2.131-2.579,4.986.227,3.037-1.136,3.037-6.746-2.249-8.571-2.916-2.8-.608-4.931,1.093-9.487,7.232-12.222,8.568-2.579,1.033-5.353,8.51M1030.19,427.952c-1.617-.184-2.508-.551-.533,1.638a27.237,27.237,0,0,0,4.4,4.132c1.886,1.517,2.575-1.093,4.018,1.82s.91,2.982,2.352,4.072,2.655,1.4,3.032,2.492a7.337,7.337,0,0,0,2.5,4.014c1.678,1.214,1.678,1.033,2.658,3.4s2.505,4.072,3.267,6.076,5.083,3.89,7.279,6.321,5.922,5.955,6.535,4.981c.594-.972,2.183,0,3.329-.361s1.522-1.762,2.281-5.168-.692-4.981-1.749-5.773-3.032-.969-3.565-1.7-1.442-3.216-2.735-4.009-1.6.061-1.6-1.886,1.519-1.76-.368-2.855a9.382,9.382,0,0,1-2.744-2.428c-.6-.548-4.695-1.4-5.766-2.373-1.05-.972-5.534-2.731-7.656-4.559s-4.483-3.276-5.163-4.615-2.805-2.431-9.778-3.219m44.153,39.194c-1.819,0-2.735-.914-3.941.969s-1.066,1.883.83,1.883,1.519.853,1.442,1.1-.919-.184,2.961,1.154c3.862,1.338,6.6.79,7.662.3s1.443,1.217,6.755,1.944,8.109-.424,11.527.305,2.578-.366.15-1.944-2.2-.73-4.633-2.247c-2.413-1.522-5.837-1.583-7.426-1.825s1.363,1.456-3.488.911c-4.866-.548-3.118.363-5.616-1.032s-2.508-1.641-4.186-1.883c-1.66-.242-2.036.366-2.036.366m38.543,6.682c-1.372.363-4.177,1.035-2.882,1.52s.288.787,4.324.485c4.012-.3,7.515-.73,8.032-1.459.533-.727-.683-.242-2.352-.669s-1.519.3-3.791.55a5.546,5.546,0,0,1-3.332-.427m14.105-.242c-2.689.282-2.352.788-.227,1.335a12.644,12.644,0,0,0,5.7.427,29.255,29.255,0,0,1,4.78-1.156c2.952-.424,3.941-.363,6.284-.606l2.358-.242s-.227-.427-1.819-.366-2.719.121-4.324.121-4.318,1.217-5.463,1.156-3.329-.669-3.868-.366-.527-.608-3.417-.3m15.186,2.976a.311.311,0,0,0-.1.058c-1.88,1.106-1.957,1.414-1.795,2.289a1.459,1.459,0,0,1-.2,1.277,8.79,8.79,0,0,0,4.86-1.938c2.116-1.825,2.193-1.8,4.358-2.46a16.816,16.816,0,0,0,4.615-2.689,15.85,15.85,0,0,1-3.589.182,7.448,7.448,0,0,0-4.333,1.277c-.588.432.594.545-3.816,2m-15.86.956c-1.984-1.214-3.9-1.046-4.046-.3s-1.715.706,1.084,1.6,5.43,2.052,5.224.84-1.418-1.62-2.263-2.141m-18.132-50.662c-1.145,1.4,1.057,1.032-.612,2.247s-2.952.669-4.621,2.492a23.441,23.441,0,0,1-5.237,3.769c-1.057.669-4.48,1.457-6,3.224a1.638,1.638,0,0,0,.539,2.731s-.925.363-3.347-.427-2.575-1.762-2.575-1.762a3.129,3.129,0,0,0-2.729,2.189c-.986,2.247-1.528,2.489.211,3.827,1.758,1.338-1.2,1.4-.83,2.31.386.911.392,2.615,1.442,2.8s1.292-.853,2.594.545c1.277,1.4.217,5.344,1.886,5.531s2.885-.429,4.327.121,2.5,1.03,4.4.485a7.428,7.428,0,0,1,4.927.487,18.332,18.332,0,0,0,6.3,1.4c1.745-.118,2.036.245,2.349-1.883.3-2.125.08-4.132,2.2-5.771s2.2-1.644,2.352-3.163.147-3.1,1.442-4.678c1.277-1.58,2.043.911,2.726-.3s1.372-1.212.98-1.825c-.377-.606-2.352-.606-3.1-1.762s.233-1.762-.692-4.13c-.906-2.37-1.424-1.459-.147-2.794,1.292-1.338,2.352-1.58,2.5-2.615.165-1.032.683-1.093,2.288-2.065s-.251-.514-1.77-1.488-4.358-4.617-6.128-4.585c-.949.013-4.554,3.706-5.681,5.1m224.17,129c-.729-.461-1.347-.119.322,1.583s1.81,1.212,2.875,1.272,1.984,3.4,2.578,4.256a15.637,15.637,0,0,0,1.739,1.883s.628,3.643.086,5.286-1.675,2.37-2.046,3.888,1.74,1.1,3.111,1.583,1.136.482.6,1.823-2.122,1.939-2.122,2.186,3.111,1.762,4.7.124,4.1-4.072,4.786-5.834-1.222-.977.98-2.249,1.9-.672,3.041-2.247,2.343-3.224,1.057-4.072-2.725,1.03-3.877,1.4a4.545,4.545,0,0,1-3.635-.245c-1.593-.666-1.9-.666-2.5-1.883a6.71,6.71,0,0,0-1.369-1.883s-.462,2.065-1.592,1.4-.839-1.4-1.669-2.552a26.083,26.083,0,0,1-1.372-2.368c-.515-.853-.071-2.494-2.717-2.739s-2.291-.182-2.98-.606m.462,22.058a26.936,26.936,0,0,0-4.011,3.83,16.282,16.282,0,0,0-2.814,4.312c-.594,1.217-2.8,2.676-6.44,4.317s-5.013,2.31-6.219,3.83-5.549,6.255-6.067,6.8c-.539.545,2.04,1.1,4.7,1.1s6.826,2.065,9.1-.061,4.554-7.172,6-8.995,2.805-2.492,5.078-4.254,6.073-5.044,6.073-6.318a10.473,10.473,0,0,0-.989-3.345,2.933,2.933,0,0,1-2.811,1.217c-1.969-.182-1.593-2.431-1.593-2.431M1314.93,601.26c-2.664-1.217-3.182,1.046-3.614,3.363s1.151.348,3.464-.7c2.328-1.043,1.167-2.2.15-2.668m-90.214-15.932c-3.007-.856-2.508,1.583-2.052,3.406a12.338,12.338,0,0,0,2.2,4.8c1.136,1.52,5.384,2.065,7.059,1.4s2.876-2.916,4.545-5.044,2.428-4.559,2.131-5.831c-.312-1.277-2.428,1.154-3.8,1.7s-3.182,1.946-5.766,1.335c-2.569-.606-3.258-1.454-4.318-1.762m-37.783-130.462c-2.422.487-3.644-1.335-5.619-4.862s-3.485-4.009-8.492-2.431-4.256,1.219-.909,2.312,3.791,1.459,4.238,1.459c.463,0,5.313.606,4.257,1.214-1.075.606-5.61,1.214-2.735,2.916s1.675.487,9.261,3.766,8.8.853,11.236,5.107c2.422,4.251,2.422,3.524.447,4.617s-4.551,2.186-3.494,2.31a81.505,81.505,0,0,0,8.195.729c5.163.242.306,2.794,6.067,2.794,5.776,0,7.285-1.58,9.567-3.89s2.735-1.093,7.585-.121,6.526,4.62,12.6,6.076,8.642,3.4,4.851.366-5.163-5.225-10.326-8.752c-5.148-3.521-5.454-3.887-6.976-6.561s-6.823-5.834-12.739-7.9-9.3-2.352-16.237-4.011c-7.138-1.7-8.345,4.377-10.773,4.862m-39.915-12.15c-2.272,1.362-2.554.529-4.254-.377s-1.231,1.891-5.016.377-5.194-2.273-9.255.3-1.513,3.635-1.614,5.452-3.4,6.961-4.63,8.85-1.222,2.576-.282,3.787,2.272.756,2.836,1.362,0,5.376-.658,6.966,1.6,1.894,3.966,1.435.282-.6.282-2.268,1.136-2.423,1.136-5.528v-4.538s.665-.305,1.519.753,2.076,4.011,3.111,5.526,2.076,2.65,3.69,1.591c1.6-1.061,3.111-2.27,3.111-2.27s-3.111-.835-3.111-1.741,1.326-1.667-.861-4.693c-2.171-3.026-3.3-3.179-.557-3.332s2.649-2.5,4.247-3.179a9.383,9.383,0,0,1,3.877-.453,4.68,4.68,0,0,0-4.064-.832,34.546,34.546,0,0,0-6.716,1.894c-2.07.982-3.871,1.588-4.247-.229a10.861,10.861,0,0,1-.377-4.77c.281-2.494,3.58-.6,6.048-1.209s2.462-.453,7.846-.153,5.757-.756,7.371-2.647a18.436,18.436,0,0,0,2.539-4.09s-3.681,2.652-5.938,4.014m12.758-6.624c.478-.753-3.96,2.61-4.79,3.279s0,1.641.6,2.615.462,4.314.689,5.041,2.5,1.4,2.5,1.4a6.3,6.3,0,0,1,.76-3.282c.83-1.032,0-2.307,0-4.19s-1.207-2.616.236-4.862m-8.731,19.951c-3.479-1.146-4.78-.393-4.78,1.175s-.392,2.341,3.323,2.341,7.907-1.406,1.458-3.516m6.936-1.014c-.864.227-1.758,2.578-1.271,3.985s1.075.471,3.032.155,1.654-1.641,4.091-1.8,7.515,1.483,7.515,1.483,1.081-1.09-2.82-3.2-5.674-1.954-10.547-.624m-69.411-77.3s-3.494.09-4.027.09-1.746,1.156-2.615,1.615-.87,1.09-.26,2.276,1.629,1.246,3.332,1.638,1.1-.635,2.358-1.032a2.871,2.871,0,0,0,1.865-2.244c.257-.882,1.087-1.277,1.4-1.58.3-.3-1-1.338-1-1.43a6.924,6.924,0,0,0-1.06.669m41.085,4.225c-1.372-.872-2.131,2.186-2.508,3.766s-.83,2.613-.156,3.766c.7,1.156.383,1.52.383,1.52l-1.975-1.277a9.631,9.631,0,0,0-.524,2.737c0,1.277-.613,1.823,1.669,2.734s3.032.427,3.332,1.825.3,2,1.825,2.247,3.258.788,3.871,1.644c.594.848.3-2.252,1.354-2.07a5.949,5.949,0,0,1,3.05,2.373,2.721,2.721,0,0,0,1.886,1.09s-1.739-2.489-.98-2.792.98-.548-.992-1.583-3.558-.788-5.08-.972-1.51.911-2.655-1.638a6.527,6.527,0,0,1-.226-4.68c0-.548.83.851,1.745-.914a8.234,8.234,0,0,0,.989-4.859c-.156-1.7,1.354-2.368.218-2.428s-4.471,0-5.224-.487m18.052,32.652c.227,1.23-1.363-.34-1.96.366s-.916.569-1.886.911a20.431,20.431,0,0,0-3.292,2.21,14.181,14.181,0,0,1,.024-1.48c.061-.277-.713-1.686-1.418-.73a6.323,6.323,0,0,1-2.995,2.255c-1.589.685-2.585,1.686-2.781,2.918a.928.928,0,0,0,.971,1.185,8.356,8.356,0,0,0,1.678-1.823c1.051-1.412,1.237-1.367,3.148-1.575s1.764-.182,2.367.706.141,2.236.2,3.216-.055,2.16,1.9,2.734,1.026.045,2.82-.092,1.764-.092,1.5-.864a13.042,13.042,0,0,1-.916-2.37c-.11-.914,1.035-1.3,1.4-1.48s.6.909,1.142,2.049.763,1.09.989.227a11.361,11.361,0,0,0,.634-4.009,12.947,12.947,0,0,1-.343-2.85,3.413,3.413,0,0,0-1.4-2.323c-.512-.321-2.266-1.662-2.266-1.662s.257,1.251.478,2.481m-8.737-7.438s.04-.774-1.6-2.165c-1.654-1.391-1.694-1.794-4.217-2.165-2.5-.371-5.022.187-3.963,2.5s1.372,2.66,3.5,2.937a4.856,4.856,0,0,0,3.415-.711s.156.371-1.85,1.454-2.232,3.155-.665,3.959,1.534,2.041,2.438,1.422,1.565-2.752,3.408-4.238,1.957-1.7,2.2-3.276a10.865,10.865,0,0,0,.037-2.845Zm4.3-4.456c-.226.161-1.543-.113-.18,1.025s2.624,1.393,2.453,2.234-.064,1-.824.911-1-.25-1.338-.271-.392.545-.175,1.067.175-.066.824.824.493,1.185.689,2.212.714.522.714.522-.172-2.463-.095-2.963c.095-.5-.227-1.707.744-1.319s.713,1.846,1.277.477a5.411,5.411,0,0,0,.034-3.669c-.282-1.1-1.277-1.138-2.453-1.138a10.938,10.938,0,0,0-1.669.09m-19.63,4.217c-.563.118-.916.593-1.253,2.255-.352,1.665-1.433,2.531-2.594,3.511s-4.333,3.6-4.489,4.125c-.181.521-.211.2,2.162-.756,2.358-.956,4.232-2.231,4.514-3.532s-.282-.5,1.8-1.341,1.02-1.117,1.106-2.442-.211-2.049-1.246-1.82m125.615,49.764c-.251,1.691.573,2.191-1.253,3.435s-3.871,1.246-5.815,1.52c-1.926.274-.518-.274-2.906-.332s-3,.089-1.9,1.122.83,2.036,4.364,1.915,6.443-1.762,8.721-2.368,2.092-2.189,2.288-2.918-3.237-4.2-3.494-2.373m9.858,3.648c.98,1.193.613,1.006,1.856,2.581s3.237,1.857,4.71,2.281.009-.456-1.1-1.733-1.176-1.973-2.814-3.25-4.355-1.973-2.655.121M1130.978,358.163c-4.866,2.655-7.059,2.46-5.117,5.831s3.145,4.8,3.417,5.439c.257.637,1.246-.427,2.569-3.1s1.482-6.169,2.006-7.232c.542-1.064-1.207-1.854-2.875-.94m83.271-131.1c.524,1.765,1.056,4.5-.15,4.8-1.222.3-2.052,2.247-2.349,4.254-.315,2-.919,4.556.367,6.137,1.3,1.58.377,1.7.377,3.037s.463,4.741-.3,6.745-1.213,2.492-.91,4.617,0,2.552,0,5.592-.217,5.468-.067,6.685.9-.608,1.424-1.033a3.552,3.552,0,0,1,3.73.364l1.136,1.033s1.825.669-.68-3.951-2.964-3.643-2.282-7.836,1.056-4.251,3.644-4.683,3.941,2.615,4.254,2.918c.3.306-.236-1.032-1.142-3.4s-1.749-3.158-2.055-6.134-1.372-5.473-2.725-6.321-.683-2.249-.071-3.4a8.366,8.366,0,0,0,.524-4.92,45.21,45.21,0,0,0-1.357-5.9c-.389-1.09-1.9.666-1.9.666Zm-2.281,46.55a5.132,5.132,0,0,1-.75,4.064c-1.075,1.52-.316,1.886-.91,4.011-.612,2.128-3.574,0-3.574.427a4.11,4.11,0,0,1-1.216,2.492c-.76.545-3.338.669-2.576,2.794a28.046,28.046,0,0,0,2.129,4.375,12.154,12.154,0,0,1,1.96-1.335c.463-.119,1.669-.424,1.669-.424s-.22-.611-1.889-1.277a1.872,1.872,0,0,1-1.292-2.492c.236-.427,2.352.124,3.714,0s2.517-.73,4.186.427a12.008,12.008,0,0,0,4.088,1.58,9.5,9.5,0,0,1,1.06-2.918c.765-1.214,2.961-.666,5.163-1.214s3.862-.851,3.117-1.641c-.769-.793-.7-2.552-1.151-3.888s-1.9-.061-3.032.421-2.569.121-4.1-.73-4.248-4.069-5.227-5.344c0,0-1.528-.669-1.372.672m-6.792,19.928c-.723.3-1.647,1.912-1.473,3.69s1.926-.137-.352,5.331-3.411,6.7-5.635,8.115-4.263,1.412-5.108,1.046c-.864-.363.226-1.593.845-1.962.634-.361-1.945-.5-3.01-.361-1.081.137-.061,1.188-.181,2.052s-2.208,3.19-1.981,4.24.221,1.367-1.142,1.73-2.266-.869-2.673-1.048-2.444.321-5.117.637-3.353,1.09-4.5,2.781-3.822,1.957-5.751,2.594-1.191,3.008-3.3,3.83-2.107,2.326-2.272,3.553,1.3.366,1.528.277.227-1.733,1.543-1.551,1.482.229.793,1.5-1.075,1.912-1.758,3.008.221,1.6,1.246,2.692,2-.321,4.146-2.278c2.177-1.96,2.343-2.418,2.177-4.654-.181-2.231-1.035-2.278-2.625-2.913s-1.944,0-.171-1.733,2.56-.045,3.751-.822,4.107-.73,6.887-1.32,5.469-1.367,5.58-.6.971,3.374,1.075,3.919,1.951-.772,3.807-1.364c1.89-.6.125-.867-.046-1.915a1.729,1.729,0,0,1,.854-1.641s.965,1.733,3.981.5,3.252-1.733,4.042-1.551,1.308.866,2.563.182,1.479-.045,1.243.5c-.217.545,3.644-1.048,4.5-1.551s.4-.042.055-1.96-1.418-2.049-.79-4.512a18.881,18.881,0,0,0,.625-4.238c.165-1.549.848-1.778,1.311-1.87s.462-2.141,1.418-3.232c.971-1.093.744-1.6.744-4.106s-1.608-2.049-1.7-3.824a11.36,11.36,0,0,1,.383-3.511s-3.237,1.051-3.58,1.686l-.346.64s-.5-.458-1.589,0m-21.234,27.387a67.393,67.393,0,0,0-7.726,1.341c-2,.545-2.422,1.3-2.11,3.016a32.428,32.428,0,0,0,1.357,4.32c.282.887,1.372,0,3.243-.856s1.764-3.361,3.549-3.361c1.8,0,1.136,1.783,3.558-.722s.582-2.708.658-3.977-2.529.24-2.529.24M1396.56,185.953c-3.6-.6-4.646-1.275-4.976-.15s-.719,1.491,1.553,2.186,3.408-.514,5.54.853,2.735,1.3,4.364,1.122a3.715,3.715,0,0,0,2.272-.88s-6.024-2.673-8.752-3.132m-41.1-48.686c-1.326.319-2.407-.774-2.055,2.007.331,2.776,1.075,3.1,5.227,2.6a58.642,58.642,0,0,1,6.722-.5c5.684-.363,6.872-1.048,6.872-1.048a9.022,9.022,0,0,0-2.716-2.642c-1.945-1.277-4.508.864-8.887.227s-5.163-.637-5.163-.637M1227.255,96.208c.064,1.061,5.69,4.053,7.736,4.92s3.641.5,7.974.09c4.318-.408,4.664-2,5.172-2.916s-2.052-.593-4.943-1.093c-2.909-.5-5.292.453-6.324,0s1.543-.911-1.02-1.73-3.2.271-3.761-.092-.683-1.143-1.935-1.233-2.961,1.051-2.9,2.054m-22.306,6.24c-1.96.68-1.819,1.28.389,2.874,2.226,1.593,1.5,1.23.527,2.368s0-.045,3.182,1.185,4.5,3.466,6.5,3.967a5.332,5.332,0,0,0,3.347-.14,14.966,14.966,0,0,0-2.563-4.009c-1.865-2.189-5.926-2.826-6.661-4.738s-1.935-2.463-4.716-1.507m20.316-8.929s-2.906-1.507-7.285-3.874-6.036-3.01-7.515-3.192-1.237,1.325-1.819,2.507c-.563,1.188-.962.956-3.243,0s-4.553-2.415-6.887-2.874-3.755,1.185-6.419,3.463-1.142,2.918,2.1,6.29,4.67,3.558,7.279,2.233c2.625-1.32,1.874-2.189,3.754-1.551s8.366-.637,8.6-.637-.4,3.1,2.45,2.284c2.83-.819,5.454-1.235,6.765-2.465s2.223-2.183,2.223-2.183m-197.05-65.1c-.83.608-5.7.245-8.2,3.645s-4.238,1.035-5.54,3.1a39.38,39.38,0,0,0-2.349,4.559s2.278,2.307,4.707,2.128,6.679.727,9.028,3.524,4.091,2.792,9.787,3.582,3.1,1.462,6.073,1.219c2.955-.248,7.043.3,6.143-.977a4.962,4.962,0,0,1-1.216-4.554c.377-2.492,3.026-2.373-.077-4.011s-5.313-.306-5.163-.608,2.811-1.217,1.755-1.277c-1.075-.061-6.308-.3-6.9-2.852-.612-2.552,1.424-2.739,2.49-2.918s.769-.487-2.272-2.368-7.123-3.83-7.123-3.83c-1.9.853-.312,1.032-1.142,1.638m28.529,18.41c-2.2.366-4.027,2.252-5.313,3.89a31.6,31.6,0,0,1-5.469,5.223c-1.589,1.1-1.136,1.4,1.442,2.194s7.138-1.4,8.424-1.459,2.272,1.641,6.376,1.214,10.32-1.1,7.288-2.979a61.681,61.681,0,0,1-5.313-3.282,16.285,16.285,0,0,0-7.585-2.489s6.906-2.007,5.227-2.126-5.077-.187-5.077-.187M881.336,16.877c-3.975,1.225-2.579,1.823-5.166,3.585-2.569,1.765-.836,2.249,4.719,1.1,5.531-1.156,5.828-1.641,9.4-3.037s-3.032-3.466-8.954-1.644m8.8,8.57c-3.721,1.42-2.734,2.913-1.749,4.13s3.715-.73,4.474.608,1,.788,4.483-1.217,2.2-1.4.845-3.521-1.675-2.431-8.054,0m-20.726-.882c-2.389.975-2.389.864-.116,1.778s7.788,1.638,10.632.045,2.634-1.277-.965-1.733c-3.58-.458-6.887-1.185-9.551-.09m-35.174,3.69a63.194,63.194,0,0,1,10.078-.137c2.952.277,1.871,2.463-3.589,2.963s.518,1.233,4.379,1.1,1.372-2.871,4.615-3.83,5.289-.366,9.153-1.551-2.211-2.326-6.716-2.231c-4.483.09-5.972.316-9.787.09s-6.878,1.248-10.8,1.823c-8.078,1.185-1.02,2.052,2.67,1.778m29.025.867c-3.252,0-11.1,1.549-4.5,2.1s6.1.911,8.816.045c2.741-.867-.9-2.141-4.318-2.141m22.989,1.185c-4.63-1.314-4.734-.777-8.314-.64s-5.007,2.052-2.664,2.871a10.824,10.824,0,0,0,5.855.232c1.935-.277,1.825-.774.57-1.188s7.289-.5,4.554-1.275m19.464-4.923c-3.558.382-3.761.911-4.107,1.915s.508.774,4.278.363a22,22,0,0,0,7.962-2c2.444-1.14-.511-3.917-.511-4.422s-3.47,1.507-4.44,2.233,1.017,1.462-3.182,1.915M627.05,200.2c-1.795,4.248-4.741,6.213-1.252,5.036s6.973-4.841,6.808-1.7c-.181,3.14-3.58,2.684-2.514,5.758s.276,2.81,6.088,3.922,1.066.722,2.508,3.664c1.418,2.945,2.413,3.861.894,4.707s-6-2.679-6.269-1.175.625,2.615,1.7,4.709-.72,3.269-4.107,4.638c-3.414,1.38-.453,2.226,2.141,2.1s9.12-1.18,8.054.785-4.2-.327-6.434,2.942c-2.257,3.269-10.492,6.081-6.183,5.887,4.287-.2,3.669-1.177,16.463-2.747s3.935-.132,12.351-2.355,5.727-2.813,1.072-2.157,3.05-3.927,1.969-8.173c-1.066-4.254-4.107-.2-6.082-2.879s-1.7-3.466,2.061-2.489,3.4-.651-3.846-4.638-2.775-3.208-6.088-6.54-8.948-2.945-8.948-2.945a10.673,10.673,0,0,0,3.846-3.664c1.427-2.418,1.7-2.223,3.219-5.162s-1.519-2.684-5.359-1.965c-3.856.716-5.114,1.048-4.309-.261a14.375,14.375,0,0,1,3.136-3.466c1.795-1.636,2.138-2.484-1.161-1.83-3.313.653-3.816.587-6.621,1.7-4.293,1.7-1.341,4.053-3.136,8.3m-9.04,10c-5.846,1.983-4.208,3.271-3.215,3.99s2.768-.653-2.695,2.028-5.54,5.623-2.68,6.211,2.5-1.438-.533,3.469c-3.047,4.9-5.1,8.239,1.075,7s7.873-3.99,10.828-4.317,3.485-2.355,3.485-5.428-1.966-3.14.361-5.692,2.5-5.231-2.067-6.474-.894-2.025-4.56-.785m73.5,68.632c-.306.69.392,2.55-1.966,3.827s1.136,2.431,1.889,3.648,1.755-4.135,1.519-6.685c-.22-2.552-.447-2.979-1.442-.79m-1.127,10.087c-3.865,1.567-4.091,2.731-4.56,5.223s3.117.487,2.2,2.673-.07,3.342,3.947,1.277,1.739-3.951,2.352-6.563,1.142-4.678-3.941-2.61m59.471,26.855c-3.384-.287-4.888,1.551.919,2.1s8.415.632,10.587.179c2.147-.456.328-.092-2.517-1.733s-4.661-.184-8.988-.548m32.314,1.551c-4.676-.869-3.4,4.011,1.372,3.282s2.961.274,5.126-2.731-1.592.361-6.5-.551M665.948,294.693c-3.81.413-4.1,1.52-1.145,2.186s2.578-.119,4.257-1.154-1.442-1.214-3.111-1.032M436.094,235.2c-2.333,1.593-5.007,3.919-8.305,9.026s-2.952,4.554-6.143,7.383-1.589,2.186,8.305,3.827,9.107,2.916,11.386,2.37,2.735,1.093,2.735,2.826,2.147.727,3.182-2c1.02-2.734-1.035-7.657-3.072-10.483-2.052-2.829-2.514-2.829-5.7-2.1s-2.162-.637-3.292-2.826-2.97-.456-.227-3.737c2.725-3.282,3.408-5.834,1.127-4.285M133.2,229.372c0,2.71,3.329,7.354,5.837,8.871s1.975.672.839-2.55-.227-3.224-.763-5.289-5.913-2.007-5.913-1.033m16.61,14.826a27.512,27.512,0,0,0,6.143,5.044A23.371,23.371,0,0,0,164,252.4c3.644.914,5.234-.3,2.876-2.126s-.377-1.641-4.63-2.492-5.148-.545-7.279-1.7-6.6-3.158-5.157-1.883M57.3,213.969c-2.725-.532-3.81-.637-5.69.637s-2.383,2.37-1.363,3.782.4.637,2.784-.774c2.4-1.414,1.262-1.593,4.269-2.233,3.026-.64,2.389-1.5,2.389-1.5a3.774,3.774,0,0,1-2.389.092m-.955-3.145c-1.84.953-2.453,1.73-.4,1.367s1.758-1.367,3.072-1.14,1.758-.226,1.758-.226-2.5-1-4.428,0M3.825,203.576c-2.508,1.051-4.875-.179-3.338.614a10.617,10.617,0,0,0,5.3,1.391c1.651-.158,2.732-.179,2.128-.867s-.759-.859-.79-1.567c-.061-.961-.8-.619-3.3.429M843.7,500.564c-2.876,5.47-8.957,2.794-13.8,6.806s-4.1,2.794-.463,8.386-3.016,4.983-4.7,11.544c-1.669,6.561,1.975,5.35,3.941,10.936,1.984,5.592,2.894,3.89,6.538,3.163a23.119,23.119,0,0,0,6.213-2.189,69.345,69.345,0,0,1,3.032-12.031c2.428-7.169,4.107-12.395,4.551-17.136.463-4.741.91-8.141,2.131-6.685s1.366,1.459,1.366-.848-1.452-8.807-3.794-10.333c-4.107-2.671-2.122,2.916-5.007,8.386m4.257-373.822c-3.975.78-5.861,2.868-2.965,3.69s2.609.366,7.4-1.1-.511-3.371-4.434-2.594m74.345-62.1c-1.366-1.823-2.572.608-16.534,5.834s-13.814.727-26.863,9.6-10.17,7.778-10.93,13.127-3.791,3.034-5,7.9-7.883,5.107-4.554,9.116,7.732,6.319,14.709,8.023,8.954-.121,7.441-.732-6.823-7.775-5.766-15.919,4.56-6.927,7.585-9.966,10.929-10.938,16.1-13.612c5.013-2.6,18.359-6.234,25.081-8.22.2-.058.432-.047.548-.166,5.323-5.1-.447-3.158-1.816-4.981M884.68,119.264c-1.654.2-2.438.245.6,2.8s5.69,4.5,4.695,1.093a4.978,4.978,0,0,0-5.3-3.89m49.837-24.732c-2.22-.888-3.408-1.823-3.941-.363s2.5,3.4,5.46,3.89.6-2.673-1.519-3.527M412.156,247.479c-3.369-1.456-6.667-2.613-8.869-2.613s.453,2,3.941,3.645c3.5,1.638,6.9-.182,4.927-1.032m-8.029,12.216c.181-2.41-1.874,2.766.643,3.917,2.5,1.156,3.8,1.459,5.39.061s.291-.519-1.9-.848-4.278-1.125-4.128-3.129M1398.19,175.96a19.756,19.756,0,0,1-7.175-.64s-.227,2.826-1.473,4.193a2.367,2.367,0,0,0-.346,2.826s-4.1-1.549-6.486-2.281-4.554-.087-5.926-3.19c-1.357-3.1-5.454-2.552-8.642-2.552s-2.272-3.553-2.272-3.553l-1.929.09c-1.942.095-1.6,4.1-4.1,5.381-2.517,1.272-10.36,2.094-10.36,2.094s5.007,3.1,6.033,5.652a24.033,24.033,0,0,0,2.961,5.015s-.453,1.183-6.486.182-5.69,1-12.185,3.279c-6.48,2.281-13.875,5.744-15.695,7.017-1.834,1.277-1.944.548-7.625-.635-5.7-1.188-6.823,1.367-8.314,2.007-1.473.635-.9-2.921-.9-2.921a12.647,12.647,0,0,0-4.569,1.1c-25.935,11.331-8.039,10.735-8.859,13.032l-2.744,8.839c-3.81,9.772-6.455,4.657-9.668,12.4-10.243,24.608-16.166-3.793-16.166-10.3,0-4.011-1.02-9.205,1.942-10.388,25.466-10.2,2.392-1.42,26.281-15.5,7.751-4.556,3.534-7.293,5.237-8.568a11.2,11.2,0,0,1,4.44-1.641l-4.208-.363c-4.214-.363-4.324.456-7.631,3.553s-5.907,3.648-5.224,1.275.781-4.828-1.709-3.55-3.528,1.093-8.189,1.912a23.862,23.862,0,0,0-13.894,7.293c-4.208,4.557-1.816,4.009-.447,5.1s-6.722.822-10.583.551c-3.88-.274-1.834-.914.447-1.554s-3.409-1.185-8.425-2.094-3.072.73-6.027,1.73-2.845-.909-4.324-1.183-8.078-.637-12.742-1.1-4.324.274-5.577,1.641-9.907,7.93-13.658,11.668-8.424,4.559-12.638,8.023-4.891,3.279-1.482,3.827,3.877.271,4.443,3.008,2.162,3.643,5.806,3.643,2.625.822,3.3-1.549-.91-5.1,2.162-3.008,5.58,3.648,6.489,6.656-.236,5.194-1.825,10.211-2.156,12.213-4.318,15.856-3.88,6.382-6.269,10.393-13.995,14.125-16.613,15.039-4.318,1-5.571-1-2.162-1.641-5.123.635c-2.946,2.281-4.318,3.65-5.463,7.293s-3.644,3.645-6.26,6.379-3.292,2.1-1.363,5.2,5.114,6.384,5.46,9.39-1.6,7.383-2.836,9.3c-1.262,1.912-7.178,2.826-7.068,1.912a62.379,62.379,0,0,0,0-8.11c-.23-2.642-2.5-2.642-1.709-3.464.808-.819,4.1-2.189,1.709-4.1s-4.091-.274-5.108-2.552c-1.035-2.278.444-4.1-.11-4.923-.588-.819-2.291-1.73-5.815-2s-4.324,2.731-5.123.087.343-2.916-1.256-4.009-2.961-.363-7.043,2.642c-4.1,3.008-4.906,2.37-8.314,3.648s-3.409,2-2.625,3.008c.808,1,3.644,5.376,6.033,5.831s4.107-.911,7.741-.911c3.654,0,4.327.456,3.418,1.638s-3.418,2.376-7.852,6.2-3.081,3.1-1.589,4.649a27.663,27.663,0,0,1,5.234,6.471c1.589,3.008,0,4.1-.236,5.831a7.212,7.212,0,0,0,2.392,7.111c2.961,2.734.915,1.823.569,2.826s-5.35,8.842-7.622,12.758-2.281,4.285-9.677,8.752-10.7,4.923-14.678,5.557a55.238,55.238,0,0,0-9.441,2.373c-2.055.729-1.262,2.186-1.473,3.1-.242.911-2.171.09-1.834-1.277s.116-2.37-.91-2.734a7.26,7.26,0,0,0-7.506,1.277c-3.3,2.734-7.294,2.916-8.651,6.382s-1.136,2.281.346,3.735,8.651,7.383,10.351,10.572a18.222,18.222,0,0,1,2.171,9.024c.107,3.466-8.2,9.843-11.842,11.942s-4.44,4.1-3.871.819-1.589-5.194-4.214-7.654c-2.609-2.465-10.571-4.467-12.069-4.741-1.464-.274.573-2.278-.453-2.189-1.01.092-3.408-.453-3.062,2.734.328,3.192-2.392,2.189-2.964,5.378s-1.253,6.471,1.136,6.2,1.935,2.826,3.754,6.287,1.136,1.551,5.7,4.741,3.408,2.642,4.443,5.834c1.011,3.19.68,5.012,2.961,7.93,2.257,2.916,2.383,3.553-1.372,1.912s-6.823-3.645-8.314-5.652-2.38-7.109-3.289-9.658c-.925-2.552-7.062-5.56-9.114-7.385s-.8-3.279.236-7.472c1.02-4.2-.462-8.2-.8-10.757a67.523,67.523,0,0,0-3.88-12.126c-1.136-2.41-.674-2.094-2.444,0s-3.127,3.377-4.835,3.377-4.2-.229-3.978-1.185,1.935-4.6,1.424-5.971-2.107-5.742-4.5-7.29a16.417,16.417,0,0,1-6.657-7.293c-1.537-3.6-1.935-2.552-4.891-.682s-9.741,2.094-12.975,2.323-.573,1.6-1.366,2.96-4.615,3.145-12.286,10.03c-7.686,6.88-8.844,7.109-10.835,7.838s-3.237.5-3.167,3.327c.055,2.823.352,4.359-.024,6.882s-1.252,3.553-2.091,5.16a27.875,27.875,0,0,0-2.006,6.05c-.257,1.52-1.966,3.282-4.474,4.83s-2.5,1.275-3.635-1-7.062-11.028-11.839-19.23-3.644-9.663-4.107-12.034c-.447-2.368-.542-16.6-.337-17.681.116-.608-2.312,1.672-2.995,2.824s-.649,2.555-3.369,2.766c-2.735.216-3.307.242-5.883-1.973s-3.764-3.463-3.317-3.4a16.168,16.168,0,0,0,5.133-.972c1.7-.73,1.136-1.52,1.136-1.52s-1.856.179-4.058.271-1.216-.424-4.131-1.428-3.571-1.093-4.058-2.215c-.5-1.122-1.216-2.708-1.638-3.558s-.759-.911-1.246-1.973-1.9.179-5.044.242-2.432.184-6.223,1.459-4.364.819-8.66.7c-4.275-.118-7.27-1.7-9.441-2.339s-2.5-.363-5.681-.761c-3.2-.39-2.508-1.788-3.307-2.947s-2.122-1.425-6.3-1.151-4.324.09-6.667-.456-2.554-1.277-4.523-2.979-1.323-.366-2.609-1.246a9.647,9.647,0,0,1-3.6-4.464c-1.032-2.37-.8-2.889-1.981-3.985s-1.09-.816-4.78-.816c-3.675,0-2.006.211-2.459.424a22.038,22.038,0,0,0-2.618,2.7c-1.02,1.1.83,2.615,2.312,4.1s.187,1.338,2.548,3.585,1.55,2.036,3.219,5.165,2.729,3.919,3.111,4.862.72-.366,1.1-1.214-.147-3.89-.147-3.89a17.746,17.746,0,0,1,1.363,3.527c.649,2.247.187,2.276.649,3.706s0,1.243,2.845,1.243a32.756,32.756,0,0,0,7.742-.545c3.151-.637,4.5-3.1,5.987-3.827s1.488-3.284,2.468-3.008.04,3.008.946,4.8,1.136,1.154,3.347,1.944c2.187.79,2.8,1.248,5.031,1.973s.72.822,1.942,2.737c1.207,1.915,1.136.851,2.312,1.52s.72.182-.11,2.46-1,2.307-2.961,4.164-1.975,1.275-2.272,1.214-.909-1.367-.909-1.367a12.732,12.732,0,0,0-1.442,4.8c-.187,2.581.98,1.638-2.624,2.884s-5.776,1.765-7.16,2.794c-1.4,1.035-1.4,2.4-2.2,3.071s-1.9.061-4.327.788-1.746.579-3.8,1.917c-2.036,1.335-.227,1.214-2.845,2.062s-7.35,2.826-9.738,3.04-1.9.761-2.508,1.52-.649,1.154-3.684,1.549-6.817.761-8.688,1.551-4.584,2.549-6.56,2.218-1.439-.4-2.091-1.917a16.435,16.435,0,0,1-1.286-5.1,21.552,21.552,0,0,0-3-8.689c-1.66-2.4-1.635-2.552-3.445-5.075s-3.041-4.646-4.633-5.621-2.379-1.032-3.148-1.759c-.753-.73-.3-3.221-1.09-5.349s-1.332-4.19-2.514-5.376a27.636,27.636,0,0,1-4.624-5.075c-1.629-2.523-1.739-2.8-4.088-6.682s-3.191-4.377-4.744-6.99-.539-2.1-1.1-3.648-2.055,2.523-3.222,3.313c-1.182.788-1.779.392-2.735-1.915s-1.745-4.343-2.468-3.432-1.292,1.823-.312,4.285c1,2.457,1.448,1.941,2.741,4.283s4.811,8.2,6.253,10.633.87,1.246,2.2,4.923,2.085,4.133,3.865,5.65c1.794,1.52,1.488.732,2.278,3.221s.5,5.41.612,6.93,1.106,2.307,3.219,3.827c2.131,1.52,1.066.972,2.055,2.581a32.6,32.6,0,0,1,2.545,5.468,4.97,4.97,0,0,0,2.915,3.377,31.813,31.813,0,0,0,3.794,1.3c1.675.516,1.1.88,2.232,2.128s3.344,2.186,4.716,4.164c1.357,1.973.447,1.393.367,3.311s-.79,1.032.2,2.033,2.7,1.825,5.564,3.463c2.891,1.641.588.485,3.157.427,2.588-.061,3.121-.64,5.886-1.156s6.33-1.4,9.738-2.1c3.427-.7,6.756-1.154,8.51-1.641,1.739-.485,1.779,1.159.447,3.708s-1.966,4.678-3.111,6.743-1.559,2.249-2.389,3.924-6.459,8.5-7.616,10.662a26.537,26.537,0,0,1-4.294,5.684c-1.709,1.788-7.053,5.041-9.555,6.771s-1.862,1.733-3.721,3.769-7.506,7.688-9.034,9.69a42.2,42.2,0,0,0-3.528,4.709c-1.127,1.975-4.349,4.77-4.551,6.2s-2,1.609-.643,2.858c1.372,1.243,2.085,1.454,2.585,3.037s-1.519,3.371-.233,6.258.383.819,2.327,3.129c1.926,2.307,1.847,3.766,2.036,7.14s.383,6.714-.227,8.9a37.321,37.321,0,0,1-2.312,5.594c-.87,1.975-5.659,3.311-8.464,4.372s-2.686.64-3.987,1.975c-1.277,1.338-5,4.132-6.253,6.195s-2.2,1.859-1.7,3.166,1.543,3.005,2.845,5.436c1.277,2.431.377,2.247.07,4.343s-.266,1.765-.6,4.314c-.352,2.555-3.831,2.613-7.812,3.951s-2.548.669-3,2.518-.181,5.5-.346,7.691c-.147,2.189-1.357,1.306-3.534,4.011-2.156,2.7-3.026,3.98-5.335,7.233-2.327,3.248-2.125,2.795-5.056,4.828-2.915,2.033-5.234,2.552-6.52,4.891s-2.765.79-9.034,2.523c-6.253,1.733-1.7.882-7.656,1.456s-8.078.975-11.236,1.462-2.725-.15-4.661-1.975-2.242-1.675-3.105-3.189-.227-1.883-.5-4.62-.527-2.829-1.7-4.527-1.106-1.975-2.392-4.678A21.3,21.3,0,0,0,719,552.124c-1.427-1.825-1.85-1.246-3.182-2.431s-1.357-2.22-1.669-3.888c-.3-1.675-.76-5.623-1.4-9.785s-.07-1.944-.839-3.706a64.388,64.388,0,0,0-2.955-6.229,31.875,31.875,0,0,0-2.805-4.62,26.39,26.39,0,0,1-3.032-5.012c-1.253-2.523-1.442-1.4-1.513-2.37s.643-2.734.723-4.435a58.871,58.871,0,0,1,1.2-6.29c.5-2.613-.674-2.581.612-4.375a27.62,27.62,0,0,0,3.464-5.468c.83-2.036.7-2.126.7-4.709s-.3-2.368-1.207-4.527-1.252-4.68-2.352-8.144-1.066-3.34-1.222-4.678a28.83,28.83,0,0,0-1.66-6.169c-.759-1.823-1.145-1.093-2.805-2.276s-.564-.674-2.006-1.978-1.185-1.73-2.588-3.161a17.992,17.992,0,0,1-2.741-3.1c-1.13-1.609-.517-.632-.367-3.34a108.031,108.031,0,0,1,1.629-10.846c.573-2.976.689-2.826-.634-4.069s-2.291-3.042-3.307-3.345-3.488.3-7.092.245-3.454-.759-5.007-2.313-3.61-3.706-4.333-4.28-1.966-.55-8.109-.155-2.438.487-6.535,1.038c-4.082.545-5.681,2.4-8.838,3.34-3.142.94-4.052.7-9.591-.242s-8.305,1.093-11.119,2.125-4.177.545-6.214-.669a41.474,41.474,0,0,0-6.419-3.553c-3.142-1.338-2.428-2.068-5.531-3.377-3.117-1.3-2.091-1.364-4.67-3.461s-2.765-4.222-4.554-6.411-3.3-5.254-5.7-7.564-4.731-6.959-5.916-8.355-2.076-1.52-2.046-2.189,2.321-4.586,3.268-6.624,1.216-1.762,1.623-3.037c.423-1.277-.557-4.952-1.473-6.959s-1.935-6.229-2.649-8.2c-.729-1.975.367-2,1.255-3.129a67.243,67.243,0,0,0,5.108-6.927c2.162-3.466,3.384-5.165,4.514-6.779s3.751-6.561,5.476-7.9a55.469,55.469,0,0,1,7.913-4.833c1.859-.816,3.378-1.272,3.684-2s1.1-6.745,1.629-9.266-.181-3.919,1.945-4.894,5.531-2.792,7.319-3.645c1.77-.851,2.046-2.125,2.952-3.982s1.3-4.19,2.664-4.952.98.334,2.759,1.369a7.866,7.866,0,0,0,2.921,1.275c.839.184,1.592-.577,3.684-.608a5.794,5.794,0,0,1,3.565.793c1.246.574.563.574,4.137-1.306a60.512,60.512,0,0,1,11.08-4.528,54.3,54.3,0,0,1,10.008-2.523c2.162-.211,1.057.029,3.494.853s2.539,1.183,3.026.574,2.092-2.31,3.117-2.249,2.2.427,4.82.822,3.712.182,4.777-.3,2.431-1.459,2.689-1.459,2.508.669,4.333,1.246,1.85.669,1.482,1.061a8.022,8.022,0,0,0-1.788,2.523c-.876,1.7-.453.79.377,2.584s1.433,1.7,1.057,3.008-2.082,2.52-3.329,3.8-.956,1.485,2.116,2.979a47.39,47.39,0,0,0,5.806,2.579c3.454,1.335,3.6.853,7.622,1.886s3.537,1.151,4.94,2.552,1.479,2.734,3.9,3.461,5.013.73,6.41,1.488,2.545,1.854,4.443,2.16,1.9.516,2.805-.669,1.666-2.249,1.332-2.858-1.372-1.546-1.145-2.126a39.205,39.205,0,0,1,2.312-3.582c.5-.7,1.755-.885,4.756-1,2.986-.124,5.068-.49,5.57,1.032s.377.819,2.689,1.641,2.545.816,4.474,1.459.956,1.546,1.942,1.486a13.7,13.7,0,0,1,4.4.276c1.819.453,5.163,1.82,8.682,1.941a10.1,10.1,0,0,0,5.43-1c.533-.213,3.032-2.855,4.514-1.032s3.418,1.852,7.129,1.67,3.764-.666,4.594-1.491a21.383,21.383,0,0,0,3.8-6.042c.714-2.131,2.68-6.774,3.212-8.876a10.779,10.779,0,0,0-.221-4.975,6.085,6.085,0,0,1,.72-3.5c.573-1.4-1.785-.548-2.732-.274s-1.21-.427-2.085-.64-1.789-.4-2.428,1-.352,2.1-3.831,1.944c-3.5-.15-2.845-.334-3.981-1.4s-3.072-1.335-4.633-1.73-1.7-.335-1.825.516c-.11.851-.147,1.43-1.277,1.765s-3.721-.063-5.883-.943a14.317,14.317,0,0,1-4.937-3.1c-2.131-1.791-1.819-1.791-2.689-4.556s-.87-5.136-.493-5.955.98-1.061-.652-.637-2.725.666-1.629-1.43a3.935,3.935,0,0,1,3.261-2.463,36.467,36.467,0,0,1,5.044-.421,13.581,13.581,0,0,0,4.594-1.341c.759-.271,2.318-.727,1.519-.909s-3.188-.4-2.775-.972.683-.548,1.975-.669,3.3-.182,5.016-.271c1.7-.092,2.719.179,3.3-.7a7.414,7.414,0,0,1,2.618-2.887c1.323-.7,2.765-.335,6.259-.458,3.479-.118,2.955.608,4.091,1.309s1.9.366,3.384.608c1.473.242.557,1,1.7,1.4s3.222.793,5.76,1.488.879.4,3.987.4a24.546,24.546,0,0,0,5.463-.334,11.8,11.8,0,0,0,5.234-2.215c1.749-1.064.533-3.374-.11-5.168s-3.384-2.945-4.63-3.764-3.95-3.437-5.384-4.5c-1.458-1.064-3.118-1.367-4.71-2.125s-4.44-2.007-4.7-3.01.612-1.03,2.961-1.517,1.592-.911,2.046-1.978.652-1.03,2.578-1.638-2.232-1.886-2.814-2.579c-.554-.7,1.3-.49,3.237-.885,1.926-.4,2.092-1.183,2.352-1.883s.181-1.035-2.092-1-5.157.851-8.988,1.733-2.076.911-4.4,2.46c-2.312,1.551-2.462.882-2.162,1.73s.453,1.673,2.805,2.734,1.363,1.1,2.021,1.248c.64.15,2.232.363,1.513.548s-1.372,1.148-2.432,1.148-1.528.946-3.338,1.825a10.663,10.663,0,0,1-3.941,1.188c-1.332.182-2.278-.184-2.092-2.128s-.68-.635-2.092-1.093a5.336,5.336,0,0,1-1.926-.975,17.081,17.081,0,0,0,2.811-1.185,4.957,4.957,0,0,0,2.725-2.7c.683-1.488-1.519-.669-3.108-.848s-1.136-.306-2.689-.487a2.9,2.9,0,0,1-2.162-1.246,5.417,5.417,0,0,0,2.036.124c1.332-.124,1.035-.427,1.522-.732s.885-.577.493-.577c-.377,0-2.015.15-3.105.09a13.554,13.554,0,0,0-3.335,0c-1.608.213-.958.73-2.095,1.367a3.714,3.714,0,0,0-1.785,1.794c-.6.943-.8.79-1.207,1.4-.423.608-.383,2.123-.383,3.161a2.845,2.845,0,0,1-1.029,2.215c-.72.853-.72.487-1.935,1s-.413.88-.563,1.915a24.454,24.454,0,0,0-.683,2.768c-.107,1.333-.72,1.393-1.669,2.336s-1.479.94-1.549,1.915a9.552,9.552,0,0,0,0,3.277c.257,1.886.87,1.4,2.578,3.316s2.609,1.188,2,2.154c-.594.975-.487.608-2.579.4s-2.419.061-3.932,1.306-1.834,1.944-2.618,2.4c-.805.45-.533-.911-.83-1.554-.312-.635-3.81-.848-6.2-1.457a31.417,31.417,0,0,0-3.644-.972c-.609,0-1.528-.124-4.027,1.061s-1.945,1.87-1.764,3.419,2.156,1.87,1.592,5.513c-.582,3.65,2.1,1.962,3.243,4.2s.11,2.052-.573,2.323-1.363,2.189-1.88,4.011.064,2.052-.573,1.96a2.538,2.538,0,0,1-2.554-1.185c-1.2-1.5-2.153-.09-2.333-.956-.165-.867-1.654-2.326-1.081-4.33s1.479-2.189-.573-3.234-1.528-1.185-2.5-3.329a11.712,11.712,0,0,0-3.065-4.509c-1.886-1.96-1.724-1.414-1.2-3.371.508-1.96.91-4.514-.236-5.881a37.192,37.192,0,0,0-9.732-6.927c-3.862-1.775-4.661-.411-6.379-3.234-1.7-2.826-2.49-5.789-5.344-7.522-2.836-1.733-1.418-1.867-4.143-1s-2.8,1.233-2.563,1.917a5.137,5.137,0,0,1,.447,3.464c-.4,1.865-.965,1.275,1.88,2.731s1.654,1.14,3.071,3.83c1.433,2.687,1.654,3.19,2.79,4.283s1.543,2.052,4.388,2.6,2.389-.134,3.117.458c.753.59-1.991.819-1.473,1.093a27.091,27.091,0,0,0,3.525,2.323c2.392,1.277,4.845,2.6,5.469,3.6s2.728,4.783-.343,2-3.127-1.5-3.981.411.784,3.371.689,4.786c-.126,1.412-1.544.869-2.514,2s-1.482,2.5-2.618,3.234-.79-.819-1.409-.819c-.637,0-.864.685-1.654,2s0,1.87.328,3.648.919,1.912-1.3,1.823-1.709-1.87-3.754-3.053-3.246-.777-4.952-1.691.735-1.138,5-1.593c4.278-.453,4.79-.819,6.1-1.683s.854-1.093,2.272-2.829,0-2.413-.971-4.514a8.158,8.158,0,0,0-3.408-3.461,30.463,30.463,0,0,1-3.292-2.826c-1.262-1.183-2.578-1.364-4.734-1.82s-1.761-2.141-2.952-2.644-2.392-1.96-5.126-4.148-1.7-3.83-2.961-5.742-2.5-3.371-5.234-3.371-4.78,1.641-7.515,3.919-2.162,3.374-5.344,1.641-4.318-1.551-6.605.09c-2.263,1.643-2.726,3.282-2.726,6.561s-2.735,1.917-4.9,2.826-4.091,3.192-7.39,8.568.227,2.826-.462,4.649.227,3.284-2.845,5.652-1.709-.271-3.519,1.641a9.591,9.591,0,0,1-8.657,3.01c-4.318-.458-3.071,1-5.8,1.549s-4.214,1.364-3.534-1.277.119-2.281-5.117-2.094-7.059,1.364-6.605.73.683-1.736,1.262-4.288,1.366-3.374.573-3.374-2.508.369-1.262-4.19c1.262-4.559,1.718-5.378,1.145-8.023s.217-6.2-.456-7.746c-.689-1.549,1.366-3.1.456-3.919s-1.945-1.915-1.256-1.915a55.072,55.072,0,0,1,7.163.64c3.659.545,7.4-.458,9.567-.274,2.156.184,6.716,1,11.26,1.638s4.443-.545,3.987-6.287.346-8.386-1.026-9.571-2.845-1.1-4.324-2.642-.337-3.83-3.519-4.651c-3.2-.819-6.722-.182-5.016-.727s2.392-.73.573-1.915c-1.834-1.185-2.278-2.457-.916-2.644s5.234-.179,5.234-.179.346,1.638,2.4.909,4.661-1.456,4.1-2.642c-.579-1.185-1.6-2.644-1.262-2.644s1.145,1.643,5.463,1.643,3.987-.548,3.641-2.1,2.854-1.459,5.016-2.737-.8-2.734-.337-3.917c.447-1.185,2.946-1.917,7.389-2.189s3.635-.914,3.182-1.37.125-2.37.453-4.828c.352-2.463-.328-3.284,1.945-4.467s1.589-.73,6.259-1.1,1.81-1.272,2.609-1.459,6.379-1.364,7.4-1.733.916-.269,0-2.007-2.165-2.731-3.182-10.751-.8-8.023,4.888-9.477,4.443-1,3.99,3.461-2.961,4.467-3.534,7.749-.11,5.286,2.278,8.75,2.165,1.73,7.288,1.73,3.981,1.1,7.39,2.1,2.272-1.82,5.586-2.823c3.292-1,2.609.637,10.345-.366,2.952-.382,3.963-.471,4.192-.49-.236.013-1.09.021-.205-.421,1.819-.911,2.281-2.552,4.9-2.829s4.437.64,4.318-2.823-1.589-2.916-1.136-5.56.564-1.456.793-3.553-.331-2.46,2.961-3.19c3.307-.73,1.035,2.549,5.007,3.276s3.414,1.277,4.1-1.364,2.851-6.105.909-5.923-2.392-.095-4.318-2.552c-1.945-2.46-3.072-3.008-1.825-3.008s5.469-1,11.487-.819c6.033.179,7.748.635,8.085.087s-1.017-1.09,1.02-2.186c2.052-1.093,8.768.548,7.751-.456-1.035-1-6.942-2.37-10.933-1.823s-13.658,1.549-15.137,1.459a11.636,11.636,0,0,1-4.891-1.641c-.68-.637-2.845-1.093-2.845-4.1s1.256-4.193-.8-7.109,3.754-5.376,7.742-8.478,2.964-5.65,5.344-5.834c2.4-.182,3.317-1.275,2.165-2.278-1.13-1-5.344-4.467-7.4-4.833s-5.117-2.368-8.3,2.373.217,5.194.8,7.657-4.44,4.285-8.2,6.561-5.117,1.733-6.263,7.567-2.278,6.016,1.935,8.017,5.016,3.011,3.081,4.744-6.033,1.641-8.541,5.742-1.473,6.105-2.508,7.93c-1.02,1.823-4.2,2.642-5.117,4.464-.9,1.823-.9,5.286-4.78,4.741s-1.709-5.012-3.414-7.293-3.072-4.19-5.117-7.019-.447-5.56-2.392-7.019a7.647,7.647,0,0,1-2.389-4.372L695,187.444c-.68,1.367-.337,2.189-4.214,6.29a12.691,12.691,0,0,1-12.513,3.371c-2.845-1-2.392-3.371-2.392-6.379s-.683-7.019-.11-11.757,2.156-4.377,8.189-7.475,6.152-2.918,7.631-4.923,5.8-4.83,8.3-6.653,6.841-8.752,9.1-13.672c2.288-4.923,6.489-7.93,10.58-13.219s11.383-9.932,20.717-13.3,7.742-3.737,9.894-6.382c2.171-2.642,3.081-1.1,6.725-1.73s3.071,0-.573,3.1-5.234,6.379-2.162,3.919,5.454-5.378,10.234-5.2,2.851,0,7.512,1.825c4.679,1.823,5.469,2,2.854,3.464s-7.062,1.1-7.062,1.1a7.248,7.248,0,0,0,5.806,3.461c4.327.458,6.71-2.918,9.561-1.641s3.644,2.186-.227,1.915-5.007,1.823-.227,3.279a44.948,44.948,0,0,0,11.493,2.37c6.253.73,9,4.649,13.768,6.382s10.357.271,8.768,4.014,1.246,7.38-7.059,9.113-8.079-.548-15.015-2.376c-6.952-1.817-11.839-3.643-11.839-3.643a41.789,41.789,0,0,0,5,4.649c3.182,2.552,3.534,4.92,3.182,9.571-.337,4.649-1.816,5.926,3.659,8.2s4.664,1.641,6.364,1.277,4.551-.819,3.871-1.554-1.256-2.091-3.072-2.821-1.936-2.463-.11-3.284c1.81-.819,3.519.73,7.506.55s0-1.275,1.929-3.008,2.061-4.649,6.722-6.2,9.671.73,10.93-1,2.609-3.737,0-6.382c-2.624-2.644-4.676-3.553-3.087-4.83s4.79-4.646,6.269-2.734,5.237,4.011.456,3.648-1.488,6.105,2.845,5.742,3.978-1.549,7.512-3.008,10.47-6.29,15.358-7.751,5.917-1.093,7.852-.361,1.935,2.094,7.288,1.185,6.933-2.007,11.949-2.737-.337,1.551,1.935,2.186,2.5,1.188,4.208.184,7.178-2.642,4.676-4.285-4.333-2.734-4.333-2.734a6.908,6.908,0,0,1,6.6-3.19c4.78.274,12.06,4.1,16.736,6.835s10.351,8.568,10.351,8.568,2.046-3.008.331-8.02c-1.7-5.012-6.018-3.83-6.018-8.568s-4-3.463-2.624-6.835,5.234-4.649,6.259-8.934,1.935-7.836,5.469-7.836c3.519,0,11.144.909,11.144.909s0,3.919-2.839,9.753,1.482,6.474.8,13.58-.8,8.02,1.13,9.661,5.586,3.651,4.214,6.745-2.052,5.015-7.169,6.745-11.6.73-9.224,2.1a24.878,24.878,0,0,0,8.878,3.008c3.418.456,1.709-.182,4.444-2.1s8.872-5.742,8.642-7.567-3.525-4.646-1.253-6.016c2.288-1.364,3.182-3.461,6.716-1.728s6.942,8.2,6.942,7.925-.674-6.379-4.891-10.022-11.15-.184-11.15-3.374,1.935-7.567,1.473-11.028-2.036-6.927.573-9.935c2.625-3.01,2.735-5.381,2.735-5.381a11.163,11.163,0,0,1,.227,6.382c-.91,3.556.462,5.652,2.392,5.652s10.577.092,5.917-1.1-6.027-2.278-1.366-4.462,4.437-.735,11.26.635,8.425,2.37,10.7,2.278,1.936-.271,1.13-2a8.137,8.137,0,0,0-3.981-4.1c-2.162-1.185-3.629.271-4.318-1.551s-1.935-6.382-2.508-8.11,1.718-.366,5.344-.366c3.644,0,13.548-.456,21.173-.637s.126-7.019-.453-11.852,14.111-5.012,21.28-5.921,15.477-.637,28.905-3.374,4.78-2.278,6.716-5.557,5.234-3.83,9.215-3.83,7.631.635,6.152,1.09-5.926,2.37,1.026,3.648,5.117,1.183,1.479,2.278-.569,3.1,6.48,3.1,2.845-.548,1.7-2.55,1.035-1.28,6.832-.458,8.088,1.641,11.266,4.19,3.755,1.917,4.9,5.47-.11,3.008-5.007,6.29-7.852,3.282-14.914,7.111-5.35,5.831-9.214,8.383-2.851,1.825,5.344,0,12.632-3.008,16.855-2.644c4.2.366,6.254,1.733,9.435,1.733s-.22.456,9.793.456,8.526,0,4.881,2.463.689,3.187,5.126,3.187,9.9.184,14-.361.563-3.192,5.46-3.374,6.483-.548,11.716-.548,3.644,1.823,5.46,3.466,4.327,2.731,2.624,6.013-2.624,3.371-1.6,7.838,3.653,5.1,6.835,5.923,3.179-4.009,6.259-5.65,3.755,3.282,7.288,2.552a24.117,24.117,0,0,1,10.577.453,19.886,19.886,0,0,0,10.014.458c4.324-.819,2.961-2.278,1.482-4.557s-1.593-2.1,1.136-4.467,4.551-1.185,13.428.819,6.033,2.007,11.04,3.192,3.408.914,11.033,3.919,6.158,6.564,9.677,8.476,3.754,0,10.813-.545,6.936.727,14.684,2.46,5.681,3.919,5.681,5.837-2.162,3.371,2.624,4.283,6.716,1.73,10.807.819.462.911,9.567,1c9.089.1,6.033-.906,8.761.735s3.414,4.917,7.843,4.557,4.107-.274,2.288-3.645-2.961-3.924-.346-3.83,7.971,1.1,17.866,2.46,10.234,2.918,18.328,7.293c8.078,4.375,10.351,4.738,16.267,8.657a13.828,13.828,0,0,1,2.759,2.033,16.259,16.259,0,0,1,3.047,1.067c6.364,2.552,5.234,1.733,10.7,4.011a63.921,63.921,0,0,1,10.115,5.468s.352.456-3.739.822M867.23,268.6s-.613.7,2.578-1.493-1.488-.09-3.316-.545c-1.81-.456-2.389-1.185-1.81-3.19s-.227-2.007-2.168-4.649c0,0-1.02-.545-3.182.545s-3.408-1.09-6.033-.271-5.463.456-7.052,3.83-3.418,1.183-3.99,3.917-5.46,4.193-5.46,4.193,1.942,1.641,3.415,3.19.456.548,1.929,5.652,2.514,4.651,4.56,5.376a48.18,48.18,0,0,1,5.234,2.463s-1.926-1-1.926,1.73S846.927,294,847.264,298s-4.2,7.746-.563,8.115,2.508,1.728,6.489,2.644a43.232,43.232,0,0,0,12.066,1.546c5.791,0,2.609-1.912,1.81-4.741a33.571,33.571,0,0,1-1.473-7.743c-.227-3.1-1.6-2.281-2.508-4.193s.463-3.008,3.182-3.008c2.735,0,3.081-.092,1.6-2.189s-.554-2.918-2.4-3.83c-1.81-.911-2.615,3.008-2.615,3.008s-1.13-.911-.674-4.738.8-2-.566-2.737-2.168.182-3.987-2.368-.22-2.007-2.382-5.1-1.035-1.459,1.357-1.459,1.136-.456,0-1.459-1.929-2.55,1.136-2.368,7.059.727,8.532.819.965.4.965.4M442.645,128.159c-1.047,1.557,1.788,3.556,3.834,2.934s2.725.068,3.892-.737,1.271-1.975-.107-3.132-.833-1.833-1.06-1.954c-2.615-1.38-5.494,1.33-6.56,2.889m562.587-100.5c-3.087.092-6.5.184-3.644,1s1.7,4.923,7.163,2.644,4.324-2.463,8.085-3.83,1.583-.714-2.961-1.73c-2.845-.64-5.57,1.823-8.642,1.912" transform="translate(577.344 5557.998)" fill="#eaeaea" opacity="0.175"/>
  </g>
</svg>
