<svg xmlns="http://www.w3.org/2000/svg" xmlns:xlink="http://www.w3.org/1999/xlink" width="62" height="58" viewBox="0 0 62 58">
  <defs>
    <clipPath id="clip-path">
      <rect id="Rectangle_9816" data-name="Rectangle 9816" width="62" height="58" rx="3" transform="translate(315 720)" fill="#fff"/>
    </clipPath>
  </defs>
  <g id="Group_40207" data-name="Group 40207" transform="translate(-315 -720)">
    <g id="Mask_Group_62" data-name="Mask Group 62" clip-path="url(#clip-path)">
      <g id="noun-mp4-5435884" transform="translate(325.618 723.64)">
        <path id="Path_2103" data-name="Path 2103" d="M19.782,12.172V7.41L12.91,14.282h4.382A2.46,2.46,0,0,0,19.782,12.172Z" transform="translate(-9.823 -4.323)" fill="none"/>
        <path id="Path_2104" data-name="Path 2104" d="M11.5,51.973a2.717,2.717,0,0,0,2.717,2.716h31.7a2.717,2.717,0,0,0,2.717-2.716V23H11.5Z" transform="translate(-9.689 -5.78)" fill="none"/>
        <path id="Path_2105" data-name="Path 2105" d="M44.721,11.76,43.2,14.06h1.521Z" transform="translate(-12.675 -4.734)" fill="#a3a3a3"/>
        <path id="Path_2106" data-name="Path 2106" d="M38.5,12.855a.77.77,0,0,0,.217-.589.788.788,0,0,0-.217-.589.905.905,0,0,0-.661-.208H37v1.566h.842a.905.905,0,0,0,.661-.181Z" transform="translate(-12.091 -4.706)" fill="#a3a3a3"/>
        <path id="Path_2107" data-name="Path 2107" d="M45.731,4H20L9.5,14.5V50.191a4.529,4.529,0,0,0,4.529,4.529h31.7a4.529,4.529,0,0,0,4.529-4.529V8.529A4.529,4.529,0,0,0,45.731,4Zm-7.337,9.419,2.862-4.094h1.73v4h.743v1.34h-.743v1.177H41.438V14.669H38.394ZM32.86,9.489h2.509a2.881,2.881,0,0,1,1.286.263,1.812,1.812,0,0,1,.788.725,2.21,2.21,0,0,1,0,2.074,1.757,1.757,0,0,1-.779.734,2.717,2.717,0,0,1-1.3.281h-.951v2.282H32.86Zm-8.315,0h1.812l1.812,4.4,1.766-4.4h1.812v6.34H30.2V12.034l-1.422,3.813h-1.25l-1.431-3.822v3.822H24.545Zm-5.081-2.4v4.764a2.461,2.461,0,0,1-2.491,2.11H12.589Zm28.985,43.1a2.717,2.717,0,0,1-2.717,2.717h-31.7a2.717,2.717,0,0,1-2.717-2.717V21.209H48.448Z" transform="translate(-9.5 -4)" fill="#a3a3a3"/>
        <path id="Path_2108" data-name="Path 2108" d="M24.891,46.041a1.1,1.1,0,0,1-.552-.154,1.032,1.032,0,0,1-.489-.905V32.559a1.032,1.032,0,0,1,1.494-.951l12.676,6.22a1.041,1.041,0,0,1,0,1.865l-12.676,6.22A1,1,0,0,1,24.891,46.041Zm1.041-11.816v9.1L35.177,38.8Z" transform="translate(-10.849 -6.589)" fill="#a3a3a3"/>
      </g>
    </g>
  </g>
</svg>
