<svg xmlns="http://www.w3.org/2000/svg" width="64.658" height="64" viewBox="0 0 64.658 64">
  <g id="Group_6" data-name="Group 6" transform="translate(-18.671 -24)">
    <rect id="Rectangle_13" data-name="Rectangle 13" width="64" height="64" transform="translate(19 24)" fill="none"/>
    <path id="visibility_24dp_000000_FILL0_wght200_GRAD0_opsz24" d="M115.095-727.256a11.329,11.329,0,0,0,8.342-3.441,11.4,11.4,0,0,0,3.426-8.356,11.329,11.329,0,0,0-3.441-8.342,11.4,11.4,0,0,0-8.356-3.426,11.329,11.329,0,0,0-8.342,3.441,11.4,11.4,0,0,0-3.426,8.356,11.329,11.329,0,0,0,3.441,8.342A11.4,11.4,0,0,0,115.095-727.256Zm-.015-3.076a8.4,8.4,0,0,1-6.167-2.54,8.4,8.4,0,0,1-2.54-6.167,8.4,8.4,0,0,1,2.54-6.168,8.4,8.4,0,0,1,6.167-2.539,8.4,8.4,0,0,1,6.167,2.539,8.4,8.4,0,0,1,2.54,6.168,8.4,8.4,0,0,1-2.54,6.167A8.4,8.4,0,0,1,115.08-730.331Zm.009,14.254a33.877,33.877,0,0,1-19.1-5.7c-5.747-3.8-10.05-10.888-12.911-17.259,2.861-6.371,7.162-13.458,12.9-17.259a33.835,33.835,0,0,1,19.089-5.7,33.877,33.877,0,0,1,19.1,5.7c5.747,3.8,10.05,10.888,12.911,17.259-2.861,6.371-7.162,13.458-12.9,17.259a34.346,34.346,0,0,1-10.145,4.576A34.437,34.437,0,0,1,115.089-716.077ZM115.08-739.039Zm0,19.737a30.779,30.779,0,0,0,16.729-4.8c5.079-3.2,8.962-9.511,11.65-14.94-2.687-5.428-6.571-11.742-11.65-14.94a30.78,30.78,0,0,0-16.729-4.8,30.78,30.78,0,0,0-16.729,4.8c-5.079,3.2-8.962,9.511-11.65,14.94,2.687,5.428,6.571,11.742,11.65,14.94A30.78,30.78,0,0,0,115.08-719.3Z" transform="translate(-64.08 795)"/>
    <path id="visibility_24dp_000000_FILL0_wght200_GRAD0_opsz24_-_Outline" data-name="visibility_24dp_000000_FILL0_wght200_GRAD0_opsz24 - Outline" d="M115.089-715.877a35.175,35.175,0,0,1-10.07-1.434,34.429,34.429,0,0,1-9.137-4.3c-6.108-4.041-10.432-11.662-12.984-17.344l-.037-.082.037-.082c2.552-5.682,6.874-13.3,12.975-17.344a34.364,34.364,0,0,1,9.131-4.3,35.152,35.152,0,0,1,10.068-1.434,35.175,35.175,0,0,1,10.07,1.434,34.426,34.426,0,0,1,9.137,4.3c6.109,4.041,10.432,11.662,12.984,17.344l.037.082-.037.082c-2.552,5.682-6.874,13.3-12.975,17.344a34.7,34.7,0,0,1-10.2,4.6A34.677,34.677,0,0,1,115.089-715.877ZM83.3-739.039c2.534,5.625,6.8,13.124,12.8,17.092a34.027,34.027,0,0,0,9.031,4.252,34.774,34.774,0,0,0,9.956,1.417,34.271,34.271,0,0,0,8.89-1.119,34.3,34.3,0,0,0,10.088-4.55c5.992-3.968,10.259-11.467,12.794-17.092-2.534-5.625-6.8-13.123-12.8-17.092a34.026,34.026,0,0,0-9.031-4.252,34.776,34.776,0,0,0-9.956-1.417,34.753,34.753,0,0,0-9.954,1.417,33.967,33.967,0,0,0-9.025,4.252C90.1-752.163,85.834-744.664,83.3-739.039ZM115.08-719.1a31.889,31.889,0,0,1-8.792-1.207,31.3,31.3,0,0,1-8.043-3.621,25.655,25.655,0,0,1-6.777-6.685,57.335,57.335,0,0,1-4.946-8.336l-.044-.089.044-.089a57.335,57.335,0,0,1,4.946-8.336,25.656,25.656,0,0,1,6.777-6.685,31.3,31.3,0,0,1,8.043-3.621,31.889,31.889,0,0,1,8.792-1.207,31.889,31.889,0,0,1,8.792,1.207,31.3,31.3,0,0,1,8.043,3.621,25.656,25.656,0,0,1,6.777,6.685,57.331,57.331,0,0,1,4.946,8.336l.044.089-.044.089a57.333,57.333,0,0,1-4.946,8.336,25.655,25.655,0,0,1-6.777,6.685,31.3,31.3,0,0,1-8.043,3.621A31.889,31.889,0,0,1,115.08-719.1ZM86.925-739.039a56.756,56.756,0,0,0,4.866,8.188,25.264,25.264,0,0,0,6.667,6.582,30.9,30.9,0,0,0,7.94,3.575,31.491,31.491,0,0,0,8.682,1.191,31.491,31.491,0,0,0,8.682-1.191,30.9,30.9,0,0,0,7.94-3.575,25.264,25.264,0,0,0,6.667-6.582,56.754,56.754,0,0,0,4.866-8.188,56.754,56.754,0,0,0-4.866-8.188,25.265,25.265,0,0,0-6.667-6.582,30.907,30.907,0,0,0-7.94-3.575,31.491,31.491,0,0,0-8.682-1.191,31.491,31.491,0,0,0-8.682,1.191,30.908,30.908,0,0,0-7.94,3.575,25.265,25.265,0,0,0-6.667,6.582A56.756,56.756,0,0,0,86.925-739.039Zm28.17,11.983a11.644,11.644,0,0,1-8.5-3.485,11.571,11.571,0,0,1-3.5-8.484,11.644,11.644,0,0,1,3.485-8.5,11.571,11.571,0,0,1,8.484-3.5,11.644,11.644,0,0,1,8.5,3.485,11.571,11.571,0,0,1,3.5,8.484,11.644,11.644,0,0,1-3.485,8.5A11.571,11.571,0,0,1,115.095-727.056Zm-.029-23.565a11.184,11.184,0,0,0-8.2,3.382,11.257,11.257,0,0,0-3.368,8.215,11.184,11.184,0,0,0,3.382,8.2,11.257,11.257,0,0,0,8.215,3.368,11.184,11.184,0,0,0,8.2-3.382,11.257,11.257,0,0,0,3.368-8.215,11.184,11.184,0,0,0-3.382-8.2A11.257,11.257,0,0,0,115.065-750.621Zm.015,20.49a8.626,8.626,0,0,1-6.309-2.6,8.626,8.626,0,0,1-2.6-6.309,8.627,8.627,0,0,1,2.6-6.309,8.627,8.627,0,0,1,6.309-2.6,8.627,8.627,0,0,1,6.309,2.6,8.627,8.627,0,0,1,2.6,6.309,8.626,8.626,0,0,1-2.6,6.309A8.626,8.626,0,0,1,115.08-730.131Zm0-17.414a8.24,8.24,0,0,0-6.026,2.481,8.24,8.24,0,0,0-2.481,6.026,8.239,8.239,0,0,0,2.481,6.026,8.239,8.239,0,0,0,6.026,2.481,8.239,8.239,0,0,0,6.026-2.481,8.239,8.239,0,0,0,2.481-6.026,8.24,8.24,0,0,0-2.481-6.026A8.24,8.24,0,0,0,115.08-747.546Z" transform="translate(-64.08 795)"/>
    <path id="visibility_24dp_000000_FILL0_wght200_GRAD0_opsz24_-_Outline-2" data-name="visibility_24dp_000000_FILL0_wght200_GRAD0_opsz24 - Outline" d="M115.089-715.777a35.274,35.274,0,0,1-10.1-1.438,34.526,34.526,0,0,1-9.164-4.314c-6.128-4.054-10.463-11.692-13.02-17.386l-.055-.123.055-.123c2.557-5.694,6.89-13.333,13.011-17.386a34.465,34.465,0,0,1,9.157-4.314,35.251,35.251,0,0,1,10.1-1.438,35.274,35.274,0,0,1,10.1,1.438,34.526,34.526,0,0,1,9.164,4.314c6.129,4.054,10.463,11.693,13.02,17.386l.055.123-.055.123c-2.557,5.695-6.89,13.333-13.011,17.386a34.467,34.467,0,0,1-9.157,4.314A35.251,35.251,0,0,1,115.089-715.777Zm-31.68-23.261c2.531,5.608,6.783,13.063,12.748,17.009a33.927,33.927,0,0,0,9,4.24,34.673,34.673,0,0,0,9.927,1.413,34.65,34.65,0,0,0,9.925-1.413,33.866,33.866,0,0,0,9-4.239c5.957-3.945,10.208-11.4,12.739-17.009-2.531-5.608-6.783-13.063-12.748-17.009a33.927,33.927,0,0,0-9-4.24,34.675,34.675,0,0,0-9.927-1.413,34.652,34.652,0,0,0-9.925,1.413,33.867,33.867,0,0,0-9,4.239C90.191-752.1,85.94-744.647,83.409-739.039ZM115.08-719a31.989,31.989,0,0,1-8.82-1.211,31.4,31.4,0,0,1-8.069-3.632,25.752,25.752,0,0,1-6.8-6.71,57.435,57.435,0,0,1-4.955-8.35l-.066-.133.066-.133a57.435,57.435,0,0,1,4.955-8.35,25.753,25.753,0,0,1,6.8-6.71,31.4,31.4,0,0,1,8.069-3.632,31.99,31.99,0,0,1,8.82-1.211,31.99,31.99,0,0,1,8.82,1.211,31.4,31.4,0,0,1,8.069,3.632,25.753,25.753,0,0,1,6.8,6.71,57.428,57.428,0,0,1,4.955,8.35l.066.133-.066.133a57.43,57.43,0,0,1-4.955,8.35,25.752,25.752,0,0,1-6.8,6.71,31.4,31.4,0,0,1-8.069,3.632A31.989,31.989,0,0,1,115.08-719ZM87.036-739.039a56.571,56.571,0,0,0,4.835,8.129,25.167,25.167,0,0,0,6.639,6.557,30.8,30.8,0,0,0,7.914,3.563,31.39,31.39,0,0,0,8.655,1.188,31.39,31.39,0,0,0,8.655-1.188,30.8,30.8,0,0,0,7.914-3.563,25.167,25.167,0,0,0,6.639-6.557,56.572,56.572,0,0,0,4.835-8.129,56.576,56.576,0,0,0-4.835-8.129,25.168,25.168,0,0,0-6.639-6.557,30.805,30.805,0,0,0-7.914-3.563,31.391,31.391,0,0,0-8.655-1.188,31.391,31.391,0,0,0-8.655,1.188,30.805,30.805,0,0,0-7.914,3.563,25.167,25.167,0,0,0-6.639,6.557A56.575,56.575,0,0,0,87.036-739.039Zm28.058,12.083a11.741,11.741,0,0,1-8.568-3.514A11.668,11.668,0,0,1,103-739.024a11.741,11.741,0,0,1,3.514-8.568,11.668,11.668,0,0,1,8.554-3.529,11.741,11.741,0,0,1,8.568,3.514,11.668,11.668,0,0,1,3.529,8.554,11.741,11.741,0,0,1-3.514,8.568A11.668,11.668,0,0,1,115.095-726.956Zm-.029-23.565a11.556,11.556,0,0,0-4.429.838,11.319,11.319,0,0,0-3.7,2.515,11.389,11.389,0,0,0-2.5,3.712,11.627,11.627,0,0,0-.834,4.433,11.555,11.555,0,0,0,.838,4.429,11.319,11.319,0,0,0,2.515,3.7,11.39,11.39,0,0,0,3.712,2.5,11.626,11.626,0,0,0,4.433.834,11.555,11.555,0,0,0,4.429-.838,11.318,11.318,0,0,0,3.7-2.515,11.39,11.39,0,0,0,2.5-3.712,11.626,11.626,0,0,0,.834-4.433,11.555,11.555,0,0,0-.838-4.429,11.318,11.318,0,0,0-2.515-3.7,11.389,11.389,0,0,0-3.712-2.5A11.626,11.626,0,0,0,115.065-750.521Zm.015,20.49a8.723,8.723,0,0,1-6.38-2.627,8.723,8.723,0,0,1-2.627-6.38,8.723,8.723,0,0,1,2.627-6.38,8.723,8.723,0,0,1,6.38-2.627,8.724,8.724,0,0,1,6.38,2.627,8.723,8.723,0,0,1,2.627,6.38,8.723,8.723,0,0,1-2.627,6.38A8.723,8.723,0,0,1,115.08-730.031Zm0-17.414a8.143,8.143,0,0,0-5.955,2.452,8.143,8.143,0,0,0-2.452,5.955,8.142,8.142,0,0,0,2.452,5.955,8.143,8.143,0,0,0,5.955,2.452,8.143,8.143,0,0,0,5.955-2.452,8.143,8.143,0,0,0,2.452-5.955,8.143,8.143,0,0,0-2.452-5.955A8.143,8.143,0,0,0,115.08-747.446Z" transform="translate(-64.08 795)"/>
  </g>
</svg>
