<svg xmlns="http://www.w3.org/2000/svg" width="56" height="56" viewBox="0 0 56 56">
  <g id="Group_43366" data-name="Group 43366" transform="translate(-879 -264)">
    <rect id="Rectangle_7018" data-name="Rectangle 7018" width="56" height="56" rx="6" transform="translate(879 264)" fill="#e2edf8"/>
    <path id="add_location_alt_24dp_E8EAED_FILL1_wght400_GRAD0_opsz24" d="M171.466-942.8a2.76,2.76,0,0,0,2.024-.842,2.761,2.761,0,0,0,.842-2.025,2.761,2.761,0,0,0-.842-2.025,2.76,2.76,0,0,0-2.024-.842,2.761,2.761,0,0,0-2.025.842,2.761,2.761,0,0,0-.842,2.025,2.761,2.761,0,0,0,.842,2.025A2.761,2.761,0,0,0,171.466-942.8Zm0,14.332a47.646,47.646,0,0,1-8.618-9.119A14.18,14.18,0,0,1,160-945.381a11.084,11.084,0,0,1,3.458-8.564,11.454,11.454,0,0,1,8.008-3.189,11.549,11.549,0,0,1,1.433.089,12.118,12.118,0,0,1,1.433.269v5.375h4.3v4.3h4.192a6.068,6.068,0,0,1,.09.842q.018.448.018.878a14.18,14.18,0,0,1-2.849,7.793A47.648,47.648,0,0,1,171.466-928.469Zm8.6-20.065v-4.3h-4.3V-955.7h4.3V-960h2.867v4.3h4.3v2.866h-4.3v4.3Z" transform="translate(733 1236)" fill="#016dd5"/>
  </g>
</svg>
