<svg xmlns="http://www.w3.org/2000/svg" width="50" height="50" viewBox="0 0 50 50">
  <g id="Group_42132" data-name="Group 42132" transform="translate(-750 -342)">
    <rect id="Rectangle_7018" data-name="Rectangle 7018" width="50" height="50" rx="6" transform="translate(750 342)" fill="#e2edf8"/>
    <path id="location_on_24dp_E3E3E3_FILL1_wght400_GRAD0_opsz24" d="M171.2-865.992a2.7,2.7,0,0,0,1.979-.823,2.7,2.7,0,0,0,.823-1.979,2.7,2.7,0,0,0-.823-1.979,2.7,2.7,0,0,0-1.979-.823,2.7,2.7,0,0,0-1.979.823,2.7,2.7,0,0,0-.823,1.979,2.7,2.7,0,0,0,.823,1.979,2.7,2.7,0,0,0,1.979.823Zm0,14.008a46.566,46.566,0,0,1-8.422-8.912A13.862,13.862,0,0,1,160-868.513a10.833,10.833,0,0,1,3.379-8.37A11.2,11.2,0,0,1,171.2-880a11.2,11.2,0,0,1,7.827,3.117,10.834,10.834,0,0,1,3.379,8.37,13.862,13.862,0,0,1-2.784,7.617,46.566,46.566,0,0,1-8.422,8.911Z" transform="translate(603.394 1232.714)" fill="#016dd5"/>
  </g>
</svg>
