<svg xmlns="http://www.w3.org/2000/svg" xmlns:xlink="http://www.w3.org/1999/xlink" width="24" height="24" viewBox="0 0 24 24">
  <defs>
    <clipPath id="clip-path">
      <rect id="Rectangle_10" data-name="Rectangle 10" width="24" height="24" fill="#fff"/>
    </clipPath>
  </defs>
  <g id="Mask_Group_13" data-name="Mask Group 13" clip-path="url(#clip-path)">
    <g id="Group_37480" data-name="Group 37480" transform="translate(0 0)">
      <path id="Path_99824" data-name="Path 99824" d="M21.487,0H2.514A2.514,2.514,0,0,0,0,2.514V13.747l1.674-1.674,5.1-5.1a2.514,2.514,0,0,1,3.552,0h0l4.353,4.353a.857.857,0,0,0,1.183,0l6.463-6.469L24,3.188V2.514A2.514,2.514,0,0,0,21.487,0M15.274,6.5a1.4,1.4,0,1,1,1.4-1.4,1.4,1.4,0,0,1-1.4,1.4" transform="translate(0)"/>
      <path id="Path_99825" data-name="Path 99825" d="M17.576,29.694a2.514,2.514,0,0,1-3.552,0h0L9.671,25.34a.838.838,0,0,0-1.183,0L.7,33.129a2.514,2.514,0,0,0,2.342,1.6H8.794v4.783H5.579a.838.838,0,0,0,0,1.674h13.9a.838.838,0,1,0,0-1.674H16.262V34.732h5.755a2.514,2.514,0,0,0,2.514-2.514V22.731L22.854,24.41Z" transform="translate(-0.527 -17.188)"/>
    </g>
  </g>
</svg>
