<svg xmlns="http://www.w3.org/2000/svg" width="56" height="56" viewBox="0 0 56 56">
  <g id="Group_43367" data-name="Group 43367" transform="translate(-1383 -264)">
    <rect id="Rectangle_7018" data-name="Rectangle 7018" width="56" height="56" rx="6" transform="translate(1383 264)" fill="#e2edf8"/>
    <path id="wrong_location_24dp_E8EAED_FILL1_wght400_GRAD0_opsz24" d="M172.04-901.52a2.9,2.9,0,0,0,2.126-.884,2.9,2.9,0,0,0,.884-2.126,2.9,2.9,0,0,0-.884-2.126,2.9,2.9,0,0,0-2.126-.884,2.9,2.9,0,0,0-2.126.884,2.9,2.9,0,0,0-.884,2.126,2.9,2.9,0,0,0,.884,2.126A2.9,2.9,0,0,0,172.04-901.52Zm0,15.05a50.032,50.032,0,0,1-9.049-9.576Q160-900.467,160-904.229a11.639,11.639,0,0,1,3.631-8.992,12.028,12.028,0,0,1,8.41-3.349,11.926,11.926,0,0,1,1.317.075q.677.075,1.317.151l3.612,3.612-3.161,3.161,4.252,4.252,3.161-3.161,1.166,1.2q.151.752.263,1.505a10.382,10.382,0,0,1,.113,1.543q0,3.763-2.991,8.184A50.034,50.034,0,0,1,172.04-886.47Zm7.337-21-2.107-2.107,3.161-3.161-3.161-3.161L179.378-918l3.161,3.161L185.7-918l2.107,2.107-3.161,3.161,3.161,3.161-2.107,2.107-3.161-3.161Z" transform="translate(1237 1194)" fill="#016dd5"/>
  </g>
</svg>
