<svg xmlns="http://www.w3.org/2000/svg" width="30.035" height="26.5" viewBox="0 0 30.035 26.5">
  <g id="Group_2" data-name="Group 2" transform="translate(-780.982 -893.75)">
    <path id="icon" d="M28,28.6H4V27.4H28Zm1.448-4H2.551l1.024-1.024A6.274,6.274,0,0,0,5.4,19.17V17.5a7.481,7.481,0,0,1,4.479-6.85l3.16-1.385A4.068,4.068,0,0,1,12.4,7a3.6,3.6,0,0,1,7.2,0,4.068,4.068,0,0,1-.639,2.266l3.16,1.385A7.49,7.49,0,0,1,26.6,17.5v1.67a6.189,6.189,0,0,0,1.824,4.406ZM5.277,23.4H26.719A7.376,7.376,0,0,1,25.4,19.17V17.5a6.289,6.289,0,0,0-3.762-5.751L16.954,9.7l.621-.621A2.79,2.79,0,0,0,18.4,7a2.4,2.4,0,1,0-4.8,0,2.79,2.79,0,0,0,.824,2.076l.621.621L10.361,11.75A6.281,6.281,0,0,0,6.6,17.5v1.67A7.489,7.489,0,0,1,5.277,23.4Z" transform="translate(780 891)" fill="#60c592"/>
    <path id="icon_-_Outline" data-name="icon - Outline" d="M28.25,28.85H3.75v-1.7h24.5Zm-24-.5h23.5v-.7H4.25Zm25.8-3.5H1.948L3.4,23.4A6.022,6.022,0,0,0,5.15,19.17V17.5a7.731,7.731,0,0,1,4.629-7.079l2.9-1.271A4.383,4.383,0,0,1,12.15,7a3.85,3.85,0,0,1,7.7,0,4.383,4.383,0,0,1-.529,2.151l2.9,1.271A7.741,7.741,0,0,1,26.85,17.5v1.67A5.941,5.941,0,0,0,28.6,23.4Zm-26.9-.5h25.69l-.6-.6a6.438,6.438,0,0,1-1.9-4.583V17.5a7.24,7.24,0,0,0-4.33-6.621l-3.43-1.5.161-.247A3.831,3.831,0,0,0,19.35,7a3.35,3.35,0,0,0-6.7,0,3.831,3.831,0,0,0,.6,2.129l.161.247-3.43,1.5A7.231,7.231,0,0,0,5.65,17.5v1.67a6.525,6.525,0,0,1-1.9,4.583Zm24.042-.7H4.8l.27-.392A7.276,7.276,0,0,0,6.35,19.17V17.5a6.531,6.531,0,0,1,3.911-5.98L14.61,9.615l-.362-.362A3.029,3.029,0,0,1,13.35,7a2.65,2.65,0,1,1,5.3,0,3.029,3.029,0,0,1-.9,2.253l-.362.362,4.349,1.905A6.54,6.54,0,0,1,25.65,17.5v1.67a7.123,7.123,0,0,0,1.274,4.087Zm-21.462-.5H26.258a7.627,7.627,0,0,1-1.108-3.98V17.5a6.039,6.039,0,0,0-3.612-5.522l-5.019-2.2.88-.88A2.552,2.552,0,0,0,18.15,7a2.15,2.15,0,1,0-4.3,0A2.552,2.552,0,0,0,14.6,8.9l.88.88-5.02,2.2A6.031,6.031,0,0,0,6.85,17.5v1.67A7.779,7.779,0,0,1,5.735,23.15Z" transform="translate(780 891)" fill="#60c592"/>
    <path id="icon_-_Outline-2" data-name="icon - Outline" d="M28.25,28.85H3.75v-1.7h24.5Zm-24-.5h23.5v-.7H4.25Zm25.8-3.5H1.948L3.4,23.4A6.022,6.022,0,0,0,5.15,19.17V17.5a7.731,7.731,0,0,1,4.629-7.079l2.9-1.271A4.383,4.383,0,0,1,12.15,7a3.85,3.85,0,0,1,7.7,0,4.383,4.383,0,0,1-.529,2.151l2.9,1.271A7.741,7.741,0,0,1,26.85,17.5v1.67A5.941,5.941,0,0,0,28.6,23.4Zm-26.9-.5h25.69l-.6-.6a6.438,6.438,0,0,1-1.9-4.583V17.5a7.24,7.24,0,0,0-4.33-6.621l-3.43-1.5.161-.247A3.831,3.831,0,0,0,19.35,7a3.35,3.35,0,0,0-6.7,0,3.831,3.831,0,0,0,.6,2.129l.161.247-3.43,1.5A7.231,7.231,0,0,0,5.65,17.5v1.67a6.525,6.525,0,0,1-1.9,4.583Zm24.042-.7H4.8l.27-.392A7.276,7.276,0,0,0,6.35,19.17V17.5a6.531,6.531,0,0,1,3.911-5.98L14.61,9.615l-.362-.362A3.029,3.029,0,0,1,13.35,7a2.65,2.65,0,1,1,5.3,0,3.029,3.029,0,0,1-.9,2.253l-.362.362,4.349,1.905A6.54,6.54,0,0,1,25.65,17.5v1.67a7.123,7.123,0,0,0,1.274,4.087Zm-21.462-.5H26.258a7.627,7.627,0,0,1-1.108-3.98V17.5a6.039,6.039,0,0,0-3.612-5.522l-5.019-2.2.88-.88A2.552,2.552,0,0,0,18.15,7a2.15,2.15,0,1,0-4.3,0A2.552,2.552,0,0,0,14.6,8.9l.88.88-5.02,2.2A6.031,6.031,0,0,0,6.85,17.5v1.67A7.779,7.779,0,0,1,5.735,23.15Z" transform="translate(780 891)" fill="#60c592"/>
    <path id="icon_-_Outline_-_Outline" data-name="icon - Outline - Outline" d="M28.65,29.25H3.35v-2.5h25.3Zm2.367-4H.982l2.134-2.134A5.619,5.619,0,0,0,4.75,19.17V17.5a8.131,8.131,0,0,1,4.869-7.445l2.518-1.1A4.889,4.889,0,0,1,11.75,7a4.25,4.25,0,0,1,8.5,0,4.889,4.889,0,0,1-.386,1.952l2.518,1.1A8.141,8.141,0,0,1,27.25,17.5v1.67a5.544,5.544,0,0,0,1.634,3.946ZM6.408,22.75H25.582a8.075,8.075,0,0,1-.832-3.58V17.5a5.639,5.639,0,0,0-3.373-5.156L16,9.988l-5.378,2.357A5.631,5.631,0,0,0,7.25,17.5v1.67A8.222,8.222,0,0,1,6.408,22.75ZM16,5.25A1.752,1.752,0,0,0,14.25,7a2.143,2.143,0,0,0,.634,1.616L16,9.732l1.116-1.116A2.143,2.143,0,0,0,17.75,7,1.752,1.752,0,0,0,16,5.25Z" transform="translate(780 891)" fill="#60c592"/>
  </g>
</svg>
