<svg xmlns="http://www.w3.org/2000/svg" width="29.07" height="26.1" viewBox="0 0 29.07 26.1">
  <g id="Group_2" data-name="Group 2" transform="translate(-781.465 -893.95)">
    <path id="icon" d="M28,28.6H4V27.4H28Zm1.448-4H2.551l1.024-1.024A6.274,6.274,0,0,0,5.4,19.17V17.5a7.481,7.481,0,0,1,4.479-6.85l3.16-1.385A4.068,4.068,0,0,1,12.4,7a3.6,3.6,0,0,1,7.2,0,4.068,4.068,0,0,1-.639,2.266l3.16,1.385A7.49,7.49,0,0,1,26.6,17.5v1.67a6.189,6.189,0,0,0,1.824,4.406ZM5.277,23.4H26.719A7.376,7.376,0,0,1,25.4,19.17V17.5a6.289,6.289,0,0,0-3.762-5.751L16.954,9.7l.621-.621A2.79,2.79,0,0,0,18.4,7a2.4,2.4,0,1,0-4.8,0,2.79,2.79,0,0,0,.824,2.076l.621.621L10.361,11.75A6.281,6.281,0,0,0,6.6,17.5v1.67A7.489,7.489,0,0,1,5.277,23.4Z" transform="translate(780 891)" fill="#fff"/>
    <path id="icon_-_Outline" data-name="icon - Outline" d="M28.2,28.8H3.8V27.2H28.2Zm-24-.4H27.8v-.8H4.2Zm25.731-3.6H2.069l1.366-1.366A6.072,6.072,0,0,0,5.2,19.17V17.5a7.681,7.681,0,0,1,4.6-7.033l2.95-1.293A4.321,4.321,0,0,1,12.2,7a3.8,3.8,0,1,1,7.6,0,4.321,4.321,0,0,1-.549,2.175L22.2,10.467A7.691,7.691,0,0,1,26.8,17.5v1.67a5.991,5.991,0,0,0,1.766,4.264Zm-26.9-.4H28.966l-.683-.683A6.388,6.388,0,0,1,26.4,19.17V17.5a7.29,7.29,0,0,0-4.36-6.667L18.664,9.354l.129-.2A3.88,3.88,0,0,0,19.4,7a3.4,3.4,0,1,0-6.8,0,3.88,3.88,0,0,0,.607,2.157l.129.2L9.96,10.834A7.281,7.281,0,0,0,5.6,17.5v1.67a6.475,6.475,0,0,1-1.883,4.547ZM27.1,23.6H4.9l.216-.313A7.326,7.326,0,0,0,6.4,19.17V17.5a6.481,6.481,0,0,1,3.881-5.934L14.7,9.631l-.414-.414A2.981,2.981,0,0,1,13.4,7a2.6,2.6,0,0,1,5.2,0,2.981,2.981,0,0,1-.883,2.217l-.414.414,4.416,1.935A6.49,6.49,0,0,1,25.6,17.5v1.67a7.173,7.173,0,0,0,1.283,4.116ZM5.646,23.2h20.7A7.575,7.575,0,0,1,25.2,19.17V17.5a6.089,6.089,0,0,0-3.642-5.568l-4.952-2.17.828-.828A2.6,2.6,0,0,0,18.2,7a2.2,2.2,0,0,0-4.4,0,2.6,2.6,0,0,0,.766,1.934l.828.828-4.953,2.17A6.081,6.081,0,0,0,6.8,17.5v1.67A7.73,7.73,0,0,1,5.646,23.2Z" transform="translate(780 891)" fill="#fff"/>
    <path id="icon_-_Outline-2" data-name="icon - Outline" d="M28.25,28.85H3.75v-1.7h24.5Zm-24-.5h23.5v-.7H4.25Zm25.8-3.5H1.948L3.4,23.4A6.022,6.022,0,0,0,5.15,19.17V17.5a7.731,7.731,0,0,1,4.629-7.079l2.9-1.271A4.383,4.383,0,0,1,12.15,7a3.85,3.85,0,0,1,7.7,0,4.383,4.383,0,0,1-.529,2.151l2.9,1.271A7.741,7.741,0,0,1,26.85,17.5v1.67A5.941,5.941,0,0,0,28.6,23.4Zm-26.9-.5h25.69l-.6-.6a6.438,6.438,0,0,1-1.9-4.583V17.5a7.24,7.24,0,0,0-4.33-6.621l-3.43-1.5.161-.247A3.831,3.831,0,0,0,19.35,7a3.35,3.35,0,0,0-6.7,0,3.831,3.831,0,0,0,.6,2.129l.161.247-3.43,1.5A7.231,7.231,0,0,0,5.65,17.5v1.67a6.525,6.525,0,0,1-1.9,4.583Zm24.042-.7H4.8l.27-.392A7.276,7.276,0,0,0,6.35,19.17V17.5a6.531,6.531,0,0,1,3.911-5.98L14.61,9.615l-.362-.362A3.029,3.029,0,0,1,13.35,7a2.65,2.65,0,1,1,5.3,0,3.029,3.029,0,0,1-.9,2.253l-.362.362,4.349,1.905A6.54,6.54,0,0,1,25.65,17.5v1.67a7.123,7.123,0,0,0,1.274,4.087Zm-21.462-.5H26.258a7.627,7.627,0,0,1-1.108-3.98V17.5a6.039,6.039,0,0,0-3.612-5.522l-5.019-2.2.88-.88A2.552,2.552,0,0,0,18.15,7a2.15,2.15,0,1,0-4.3,0A2.552,2.552,0,0,0,14.6,8.9l.88.88-5.02,2.2A6.031,6.031,0,0,0,6.85,17.5v1.67A7.779,7.779,0,0,1,5.735,23.15Z" transform="translate(780 891)" fill="#fff"/>
    <path id="icon_-_Outline_-_Outline" data-name="icon - Outline - Outline" d="M28.45,29.05H3.55v-2.1h24.9Zm-24.5-.4h24.1v-1.3H3.95Zm24-.1H4.05v-1.1h23.9Zm-23.5-.4h23.1v-.3H4.45Zm26.085-3.1H1.465l1.792-1.792A5.82,5.82,0,0,0,4.95,19.17V17.5A7.931,7.931,0,0,1,9.7,10.238l2.7-1.185A4.637,4.637,0,0,1,11.95,7a4.05,4.05,0,0,1,8.1,0A4.637,4.637,0,0,1,19.6,9.053l2.7,1.185A7.941,7.941,0,0,1,27.05,17.5v1.67a5.742,5.742,0,0,0,1.693,4.088Zm-28.1-.4H29.569L28.46,23.54a6.14,6.14,0,0,1-1.81-4.37V17.5a7.541,7.541,0,0,0-4.509-6.9l-3.1-1.359.106-.192A4.189,4.189,0,0,0,19.65,7a3.65,3.65,0,0,0-7.3,0,4.189,4.189,0,0,0,.5,2.054l.106.192L9.859,10.6A7.531,7.531,0,0,0,5.35,17.5v1.67a6.223,6.223,0,0,1-1.81,4.37Zm26.9-.1H2.672l.939-.939A6.324,6.324,0,0,0,5.45,19.17V17.5A7.431,7.431,0,0,1,9.9,10.7l3.214-1.408-.032-.049A4.027,4.027,0,0,1,12.45,7a3.55,3.55,0,0,1,7.1,0,4.027,4.027,0,0,1-.631,2.239l-.032.049L22.1,10.7a7.441,7.441,0,0,1,4.45,6.8v1.67a6.239,6.239,0,0,0,1.839,4.441Zm-25.69-.4H28.362l-.256-.256A6.636,6.636,0,0,1,26.15,19.17V17.5a7.04,7.04,0,0,0-4.21-6.438l-3.646-1.6.29-.445A3.635,3.635,0,0,0,19.15,7a3.15,3.15,0,0,0-6.3,0,3.635,3.635,0,0,0,.567,2.02l.29.445-3.646,1.6A7.031,7.031,0,0,0,5.85,17.5v1.67a6.727,6.727,0,0,1-1.956,4.724Zm23.942-.3H4.42l.486-.705A7.074,7.074,0,0,0,6.15,19.17V17.5a6.731,6.731,0,0,1,4.03-6.163l4.081-1.788-.155-.155A3.22,3.22,0,0,1,13.15,7a2.85,2.85,0,1,1,5.7,0,3.22,3.22,0,0,1-.956,2.394l-.155.155,4.08,1.788A6.74,6.74,0,0,1,25.85,17.5v1.67a6.924,6.924,0,0,0,1.238,3.973Zm-22.4-.4H26.814l-.055-.079a7.322,7.322,0,0,1-1.31-4.2V17.5a6.34,6.34,0,0,0-3.792-5.8L17.042,9.681l.569-.569A2.838,2.838,0,0,0,18.45,7a2.45,2.45,0,0,0-4.9,0,2.838,2.838,0,0,0,.839,2.111l.569.569L10.341,11.7A6.331,6.331,0,0,0,6.55,17.5v1.67a7.478,7.478,0,0,1-1.315,4.2Zm21.432-.1H5.381l.183-.3A7.625,7.625,0,0,0,6.65,19.17V17.5a6.231,6.231,0,0,1,3.731-5.7l4.752-2.082L14.46,9.04A2.743,2.743,0,0,1,13.65,7a2.35,2.35,0,1,1,4.7,0,2.743,2.743,0,0,1-.81,2.04l-.673.673,4.751,2.081A6.239,6.239,0,0,1,25.35,17.5v1.67a7.454,7.454,0,0,0,1.079,3.876ZM6.08,22.95H25.911a7.865,7.865,0,0,1-.961-3.78V17.5a5.839,5.839,0,0,0-3.493-5.339L16.17,9.845l1.087-1.087A2.361,2.361,0,0,0,17.95,7a1.95,1.95,0,0,0-3.9,0,2.361,2.361,0,0,0,.692,1.758L15.83,9.845l-5.288,2.317A5.831,5.831,0,0,0,7.05,17.5v1.67A8.03,8.03,0,0,1,6.08,22.95Z" transform="translate(780 891)" fill="#fff"/>
  </g>
</svg>
