<svg xmlns="http://www.w3.org/2000/svg" width="62" height="62" viewBox="0 0 62 62">
  <g id="Pending" transform="translate(0.333)">
    <rect id="Rectangle_7018" data-name="Rectangle 7018" width="62" height="62" rx="6" transform="translate(-0.333)" fill="#fff1d6"/>
    <g id="Group_42241" data-name="Group 42241" transform="translate(10.571 14.657)">
      <path id="campaign_24dp_E3E3E3_FILL1_wght400_GRAD0_opsz24" d="M112.686-781.614V-785.7h8.172v4.086Zm2.451,14.3-6.537-4.9,2.451-3.269,6.537,4.9Zm-4.086-24.515L108.6-795.1l6.537-4.9,2.451,3.269ZM86.129-769.356v-8.172H84.086a3.934,3.934,0,0,1-2.886-1.2,3.934,3.934,0,0,1-1.2-2.886V-785.7a3.934,3.934,0,0,1,1.2-2.886,3.934,3.934,0,0,1,2.886-1.2h8.172l10.214-6.129V-771.4l-10.214-6.129H90.214v8.172Zm18.386-7.457V-790.5a9.33,9.33,0,0,1,2.222,2.988,8.82,8.82,0,0,1,.843,3.856,8.82,8.82,0,0,1-.843,3.856A9.328,9.328,0,0,1,104.515-776.813Z" transform="translate(-80 800)" fill="#c78b1c"/>
      <g id="Group_41840" data-name="Group 41840" transform="translate(1.025 11.368)">
        <path id="schedule_24dp_E3E3E3_FILL1_wght300_GRAD0_opsz24" d="M106.793-852.655l.552-.552-1.978-1.978v-2.459h-.785v2.777Zm-1.818,2.6a4.846,4.846,0,0,1-1.94-.392,5.023,5.023,0,0,1-1.58-1.063,5.025,5.025,0,0,1-1.064-1.579,4.843,4.843,0,0,1-.392-1.94,4.847,4.847,0,0,1,.392-1.94,5.025,5.025,0,0,1,1.063-1.58,5.024,5.024,0,0,1,1.579-1.064,4.841,4.841,0,0,1,1.94-.392,4.846,4.846,0,0,1,1.94.392,5.023,5.023,0,0,1,1.58,1.063,5.024,5.024,0,0,1,1.064,1.579,4.842,4.842,0,0,1,.392,1.94,4.847,4.847,0,0,1-.392,1.94,5.024,5.024,0,0,1-1.063,1.58,5.022,5.022,0,0,1-1.579,1.064A4.841,4.841,0,0,1,104.975-850.051Z" transform="translate(-100 860)" fill="#fff1d6"/>
      </g>
    </g>
  </g>
</svg>
