<svg xmlns="http://www.w3.org/2000/svg" xmlns:xlink="http://www.w3.org/1999/xlink" width="166.206" height="132.53" viewBox="0 0 166.206 132.53">
  <defs>
    <clipPath id="clip-path">
      <rect id="Rectangle_11286" data-name="Rectangle 11286" width="166.206" height="68.888" fill="none"/>
    </clipPath>
    <clipPath id="clip-path-3">
      <rect id="Rectangle_11258" data-name="Rectangle 11258" width="166.187" height="59.398" fill="none"/>
    </clipPath>
    <clipPath id="clip-path-4">
      <rect id="Rectangle_11259" data-name="Rectangle 11259" width="78.285" height="22.05" fill="none"/>
    </clipPath>
    <clipPath id="clip-path-5">
      <rect id="Rectangle_11260" data-name="Rectangle 11260" width="8.52" height="1.883" fill="none"/>
    </clipPath>
    <clipPath id="clip-path-6">
      <rect id="Rectangle_11261" data-name="Rectangle 11261" width="12.132" height="5.713" fill="none"/>
    </clipPath>
    <clipPath id="clip-path-7">
      <rect id="Rectangle_11262" data-name="Rectangle 11262" width="31.973" height="17.708" fill="none"/>
    </clipPath>
    <clipPath id="clip-path-8">
      <rect id="Rectangle_11263" data-name="Rectangle 11263" width="78.397" height="22.602" fill="none"/>
    </clipPath>
    <clipPath id="clip-path-9">
      <rect id="Rectangle_11264" data-name="Rectangle 11264" width="18.583" height="17.639" fill="none"/>
    </clipPath>
    <clipPath id="clip-path-10">
      <rect id="Rectangle_11265" data-name="Rectangle 11265" width="1.491" height="5.933" fill="none"/>
    </clipPath>
    <clipPath id="clip-path-12">
      <rect id="Rectangle_11267" data-name="Rectangle 11267" width="5.608" height="3.688" fill="none"/>
    </clipPath>
    <clipPath id="clip-path-13">
      <rect id="Rectangle_11268" data-name="Rectangle 11268" width="5.606" height="3.687" fill="none"/>
    </clipPath>
    <clipPath id="clip-path-14">
      <rect id="Rectangle_11269" data-name="Rectangle 11269" width="5.609" height="3.685" fill="none"/>
    </clipPath>
    <clipPath id="clip-path-15">
      <rect id="Rectangle_11270" data-name="Rectangle 11270" width="5.598" height="3.684" fill="none"/>
    </clipPath>
    <clipPath id="clip-path-19">
      <rect id="Rectangle_11274" data-name="Rectangle 11274" width="5.598" height="3.686" fill="none"/>
    </clipPath>
    <clipPath id="clip-path-20">
      <rect id="Rectangle_11275" data-name="Rectangle 11275" width="5.612" height="3.688" fill="none"/>
    </clipPath>
    <clipPath id="clip-path-21">
      <rect id="Rectangle_11276" data-name="Rectangle 11276" width="5.604" height="3.688" fill="none"/>
    </clipPath>
    <clipPath id="clip-path-22">
      <rect id="Rectangle_11277" data-name="Rectangle 11277" width="5.607" height="3.687" fill="none"/>
    </clipPath>
    <clipPath id="clip-path-23">
      <rect id="Rectangle_11278" data-name="Rectangle 11278" width="16.251" height="9.395" fill="none"/>
    </clipPath>
    <clipPath id="clip-path-24">
      <rect id="Rectangle_11279" data-name="Rectangle 11279" width="6.721" height="5.968" fill="none"/>
    </clipPath>
    <clipPath id="clip-path-25">
      <rect id="Rectangle_11280" data-name="Rectangle 11280" width="1.977" height="5.866" fill="none"/>
    </clipPath>
    <clipPath id="clip-path-26">
      <rect id="Rectangle_11281" data-name="Rectangle 11281" width="4.966" height="25.912" fill="none"/>
    </clipPath>
    <clipPath id="clip-path-27">
      <rect id="Rectangle_11282" data-name="Rectangle 11282" width="10.188" height="29.209" fill="none"/>
    </clipPath>
    <clipPath id="clip-path-28">
      <rect id="Rectangle_11283" data-name="Rectangle 11283" width="36.475" height="8.649" fill="none"/>
    </clipPath>
    <clipPath id="clip-path-29">
      <rect id="Rectangle_11284" data-name="Rectangle 11284" width="26.991" height="10.959" fill="none"/>
    </clipPath>
    <clipPath id="clip-path-30">
      <rect id="Rectangle_11288" data-name="Rectangle 11288" width="47.253" height="132.53" fill="none"/>
    </clipPath>
  </defs>
  <g id="Commuting_Carl" data-name="Commuting Carl" transform="translate(-104.782 -1935.953)">
    <g id="freepik--Sign--inject-216" transform="translate(125.189 1972.337)">
      <g id="Group_43191" data-name="Group 43191" transform="translate(0 0)">
        <rect id="Rectangle_11225" data-name="Rectangle 11225" width="2.511" height="64.829" transform="translate(9.746 31.236)" fill="#263238"/>
        <rect id="Rectangle_11226" data-name="Rectangle 11226" width="2.511" height="64.829" transform="translate(9.746 31.236)" fill="#fff" opacity="0.3"/>
        <rect id="Rectangle_11227" data-name="Rectangle 11227" width="23.297" height="32.22" rx="5.93" transform="translate(0)" fill="#407bff"/>
        <path id="Path_101966" data-name="Path 101966" d="M608.892,198.459H590.42a1.071,1.071,0,0,1-1.07-1.07V169.42a1.071,1.071,0,0,1,1.07-1.07h18.472a1.072,1.072,0,0,1,1.07,1.07v27.968A1.072,1.072,0,0,1,608.892,198.459ZM590.42,168.68a.737.737,0,0,0-.737.737v27.968a.737.737,0,0,0,.737.737h18.472a.737.737,0,0,0,.737-.737V169.417a.737.737,0,0,0-.737-.737Z" transform="translate(-588.01 -167.056)" fill="#fff"/>
        <path id="Path_101967" data-name="Path 101967" d="M615.226,186.684a4.622,4.622,0,0,1,1.944,6.582,4.311,4.311,0,0,1-1.944,1.62,7.282,7.282,0,0,1-2.974.56h-2.6V199H606.67V186.11h5.578a7.172,7.172,0,0,1,2.974.57Zm-1.1,5.755a2.021,2.021,0,0,0,.7-1.647,2.062,2.062,0,0,0-.7-1.667,3.132,3.132,0,0,0-2.044-.58h-2.431v4.475h2.431A3.132,3.132,0,0,0,614.129,192.439Z" transform="translate(-599.555 -178.895)" fill="#fff"/>
      </g>
    </g>
    <g id="Group_43312" data-name="Group 43312" transform="translate(104.782 1999.595)">
      <g id="Group_43311" data-name="Group 43311" transform="translate(0 0)" clip-path="url(#clip-path)">
        <path id="Path_102009" data-name="Path 102009" d="M160.383,29.571H5.17V54.533L158.9,51.109Z" transform="translate(0.747 4.274)" fill="#2e353a"/>
        <g id="Group_43310" data-name="Group 43310" transform="translate(0 0)">
          <g id="Group_43309" data-name="Group 43309" clip-path="url(#clip-path)">
            <path id="Path_102010" data-name="Path 102010" d="M0,40.234a7.051,7.051,0,0,1,.434-2.357l2.13-5.988a7.54,7.54,0,0,1,4.252-4.4C13.043,24.921,27.5,19.8,42.983,20.355c0,0,20.162-17.335,41.2-19.78,18.244-2.115,52.94,2.193,61.868,3.373h.009a.514.514,0,0,1,.449.571.52.52,0,0,1-.358.415l-2.3.781-.04.014a.929.929,0,0,0-.548,1.195.974.974,0,0,0,.466.507l18.778,9.374a6.5,6.5,0,0,1,3.675,5.78V48.373a6.525,6.525,0,0,1-4.049,5.952l-2.5,1.058c-.1.042-.2.077-.293.114,0-.333.029-.664.029-1,.044-9.534-8.062-17.3-18.109-17.341S123.04,44.812,123,54.349a16.33,16.33,0,0,0,.173,2.445L50.113,58.443c2.3-9.283-3.774-18.578-13.546-20.758S17,41.262,14.707,50.545a16.407,16.407,0,0,0,.217,8.7L7.748,59.4a6.751,6.751,0,0,1-2.067-.274L4.6,58.808A6.224,6.224,0,0,1,.006,52.9V40.244Z" transform="translate(0 0)" fill="#2e353a"/>
            <g id="Group_43230" data-name="Group 43230" transform="translate(0 0)" opacity="0.4" style="mix-blend-mode: normal;isolation: isolate">
              <g id="Group_43229" data-name="Group 43229" transform="translate(0 0)">
                <g id="Group_43228" data-name="Group 43228" clip-path="url(#clip-path-3)">
                  <path id="Path_102011" data-name="Path 102011" d="M0,40.234a7.051,7.051,0,0,1,.434-2.357l2.13-5.988a7.54,7.54,0,0,1,4.252-4.4C13.043,24.921,27.5,19.8,42.983,20.355c0,0,20.162-17.335,41.2-19.78,18.244-2.115,52.94,2.193,61.868,3.373h.009a.514.514,0,0,1,.449.571.52.52,0,0,1-.358.415l-2.3.781-.04.014a.929.929,0,0,0-.548,1.195.974.974,0,0,0,.466.507l18.778,9.374a6.5,6.5,0,0,1,3.675,5.78V48.373a6.525,6.525,0,0,1-4.049,5.952l-2.5,1.058c-.1.042-.2.077-.293.114,0-.333.029-.664.029-1,.044-9.534-8.062-17.3-18.109-17.341S123.04,44.812,123,54.349a16.33,16.33,0,0,0,.173,2.445L50.113,58.443c2.3-9.283-3.774-18.578-13.546-20.758S17,41.262,14.707,50.545a16.407,16.407,0,0,0,.217,8.7L7.748,59.4a6.751,6.751,0,0,1-2.067-.274L4.6,58.808A6.224,6.224,0,0,1,.006,52.9V40.244Z" transform="translate(0 0)" fill="#fff"/>
                </g>
              </g>
            </g>
            <path id="Path_102012" data-name="Path 102012" d="M116.866,50.762,43.813,52.412a17.07,17.07,0,0,0,.444-2.927l8.732-4.263a5.67,5.67,0,0,1,2.155-.563L101.1,41.8a5.807,5.807,0,0,1,2.441.378L116.75,47.3c-.022.387-.038.774-.038,1.164a16.471,16.471,0,0,0,.157,2.289Z" transform="translate(6.332 6.04)" fill="#2e353a"/>
            <path id="Path_102013" data-name="Path 102013" d="M142.112,48.309l-2.5,1.058c-.1.042-.2.077-.293.114,0-.333.029-.664.029-1a16.534,16.534,0,0,0-.655-4.616l7.473-2.175v.658a6.524,6.524,0,0,1-4.049,5.961" transform="translate(20.045 6.026)" fill="#2e353a"/>
            <path id="Path_102014" data-name="Path 102014" d="M14.124,49.46a16.033,16.033,0,0,0,.56,2.632l-7.181.16a6.752,6.752,0,0,1-2.067-.274l-1.085-.315a6.57,6.57,0,0,1-2.5-1.362Z" transform="translate(0.268 7.149)" fill="#2e353a"/>
            <path id="Path_102015" data-name="Path 102015" d="M125.91,31.114c10.985,0,19.89,8.457,19.9,18.885v.269l-1.435.617c-.1.042-.2.077-.293.114,0-.333.029-.664.029-1,.044-9.534-8.062-17.3-18.109-17.341s-18.225,7.656-18.269,17.193a16.328,16.328,0,0,0,.173,2.445l-1.725.041c-1.363-10.349,6.372-19.785,17.274-21.079a20.714,20.714,0,0,1,2.47-.144Z" transform="translate(15.324 4.497)" fill="#2e353a"/>
            <path id="Path_102016" data-name="Path 102016" d="M30.853,31.108c10.987,0,19.9,8.453,19.9,18.885A17.984,17.984,0,0,1,50.32,53.9l-1.761.041c2.3-9.283-3.775-18.578-13.547-20.758s-19.563,3.578-21.861,12.86a16.407,16.407,0,0,0,.217,8.7l-1.765.038c-2.778-10.095,3.587-20.42,14.22-23.052a20.858,20.858,0,0,1,5.036-.613Z" transform="translate(1.583 4.496)" fill="#2e353a"/>
            <path id="Path_102017" data-name="Path 102017" d="M43.535,20.654C50.36,15.144,64.563,5.076,78.672,3.442c10.767-1.25,27.816.3,41.3,1.991a1.66,1.66,0,0,1,1.373,1.872,1.768,1.768,0,0,1-.444,1l-7.388,8.168a5.837,5.837,0,0,1-3.616,1.9L53.585,25a5.509,5.509,0,0,1-2.06-.148l-7.593-2.02a1.269,1.269,0,0,1-.4-2.175Z" transform="translate(6.226 0.432)" fill="#577afa"/>
            <g id="Group_43233" data-name="Group 43233" transform="translate(49.555 3.42)" opacity="0.8" style="mix-blend-mode: normal;isolation: isolate">
              <g id="Group_43232" data-name="Group 43232">
                <g id="Group_43231" data-name="Group 43231" clip-path="url(#clip-path-4)">
                  <path id="Path_102018" data-name="Path 102018" d="M43.757,20.654c6.825-5.51,21.028-15.578,35.137-17.211,10.767-1.25,27.815.3,41.3,1.991a1.66,1.66,0,0,1,1.373,1.872,1.765,1.765,0,0,1-.444,1l-7.275,8.618c-1.5,1.942-3.614,4.333-4.988,4.5L53.807,25a5.483,5.483,0,0,1-2.06-.148l-7.593-2.02a1.269,1.269,0,0,1-.4-2.175Z" transform="translate(-43.297 -2.987)" fill="#fff"/>
                </g>
              </g>
            </g>
            <g id="Group_43236" data-name="Group 43236" transform="translate(86.338 24.345)" opacity="0.3">
              <g id="Group_43235" data-name="Group 43235">
                <g id="Group_43234" data-name="Group 43234" clip-path="url(#clip-path-5)">
                  <path id="Path_102019" data-name="Path 102019" d="M75.89,23.115a.759.759,0,0,0,.268.038l6.7-.264a1.168,1.168,0,0,0,1.054-.73c0-.011.008-.023.011-.034a.652.652,0,0,0-.433-.815.759.759,0,0,0-.268-.038l-6.7.268a1.154,1.154,0,0,0-1.048.73l-.01.031a.65.65,0,0,0,.429.813Z" transform="translate(-75.436 -21.27)"/>
                </g>
              </g>
            </g>
            <path id="Path_102020" data-name="Path 102020" d="M119.44,7.178a1.466,1.466,0,0,1,.579-.3l6.1-1.45c-.008.015-.015.03-.022.046a.889.889,0,0,0,.456,1.172l18.778,9.385c.216.111.421.23.623.356h-3.863a4.124,4.124,0,0,1-1.038-.132L121.583,11.13a1.513,1.513,0,0,1-.671-.387L119.324,9.1c-.021-.022-.041-.045-.061-.069a1.318,1.318,0,0,1,.175-1.856Z" transform="translate(17.193 0.785)" fill="#577afa"/>
            <g id="Group_43239" data-name="Group 43239" transform="translate(3.282 29.226)" style="mix-blend-mode: normal;isolation: isolate">
              <g id="Group_43238" data-name="Group 43238">
                <g id="Group_43237" data-name="Group 43237" clip-path="url(#clip-path-6)">
                  <path id="Path_102021" data-name="Path 102021" d="M15,26.225l-.437.916-4.418,3.181a2.275,2.275,0,0,1-1.03.406l-3.83.5a2.131,2.131,0,0,1-2.1-.972l-.066-.114a1.74,1.74,0,0,1-.195-1.362,2.64,2.64,0,0,1,1.614-1.763l3.817-1.482L15,26.222Z" transform="translate(-2.867 -25.535)" fill="#fff"/>
                </g>
              </g>
            </g>
            <path id="Path_102022" data-name="Path 102022" d="M37.568,19.978S51.334,8.131,68,2.646l1.435.7.016.008a.2.2,0,0,1,.066.269.211.211,0,0,1-.114.094C57.85,7.252,47.145,14.835,40.991,19.778a2.672,2.672,0,0,1-2.36.482l-1.058-.286Z" transform="translate(5.43 0.383)" fill="#577afa"/>
            <g id="Group_43242" data-name="Group 43242" transform="translate(42.998 3.028)" opacity="0.8" style="mix-blend-mode: normal;isolation: isolate">
              <g id="Group_43241" data-name="Group 43241">
                <g id="Group_43240" data-name="Group 43240" clip-path="url(#clip-path-7)">
                  <path id="Path_102023" data-name="Path 102023" d="M37.568,19.978S51.334,8.131,68,2.646l1.435.7.016.008a.2.2,0,0,1,.066.269.211.211,0,0,1-.114.094C57.85,7.252,47.145,14.835,40.991,19.778a2.672,2.672,0,0,1-2.36.482l-1.058-.286Z" transform="translate(-37.568 -2.646)" fill="#fff"/>
                </g>
              </g>
            </g>
            <g id="Group_43245" data-name="Group 43245" transform="translate(50.151 27.03)" opacity="0.2" style="mix-blend-mode: normal;isolation: isolate">
              <g id="Group_43244" data-name="Group 43244">
                <g id="Group_43243" data-name="Group 43243" clip-path="url(#clip-path-8)">
                  <path id="Path_102024" data-name="Path 102024" d="M99.8,23.617h22.416l-22.59,16.47L51.848,46.219l-4.679-6.638a13.454,13.454,0,0,1-2.3-5.608l-1.054-6.555,55.978-3.8Z" transform="translate(-43.818 -23.617)" fill="#fff"/>
                </g>
              </g>
            </g>
            <path id="Path_102025" data-name="Path 102025" d="M140.462,49.437c0,7.945-6.785,14.386-15.154,14.386s-15.154-6.44-15.154-14.386,6.785-14.386,15.154-14.386,15.154,6.44,15.154,14.386" transform="translate(15.921 5.066)" fill="#2e353a"/>
            <g id="Group_43248" data-name="Group 43248" transform="translate(131.938 45.683)" opacity="0.4" style="mix-blend-mode: normal;isolation: isolate">
              <g id="Group_43247" data-name="Group 43247">
                <g id="Group_43246" data-name="Group 43246" clip-path="url(#clip-path-9)">
                  <path id="Path_102026" data-name="Path 102026" d="M133.86,48.734a9.3,9.3,0,1,1-9.291-8.82,9.065,9.065,0,0,1,9.291,8.82" transform="translate(-115.277 -39.914)" fill="#fff"/>
                </g>
              </g>
            </g>
            <g id="Group_43251" data-name="Group 43251" transform="translate(140.483 46.573)" opacity="0.3">
              <g id="Group_43250" data-name="Group 43250">
                <g id="Group_43249" data-name="Group 43249" clip-path="url(#clip-path-10)">
                  <path id="Path_102027" data-name="Path 102027" d="M123.492,40.692h-.006a.725.725,0,0,0-.743.705v4.522a.725.725,0,0,0,.743.705h.006a.725.725,0,0,0,.743-.705V41.394a.725.725,0,0,0-.743-.7" transform="translate(-122.743 -40.691)" fill="#fff"/>
                </g>
              </g>
            </g>
            <g id="Group_43254" data-name="Group 43254" transform="translate(140.483 56.506)" opacity="0.3">
              <g id="Group_43253" data-name="Group 43253">
                <g id="Group_43252" data-name="Group 43252" clip-path="url(#clip-path-10)">
                  <path id="Path_102028" data-name="Path 102028" d="M123.492,49.371h-.006a.725.725,0,0,0-.743.705V54.6a.725.725,0,0,0,.743.705h.006a.725.725,0,0,0,.743-.705V50.076a.725.725,0,0,0-.743-.705" transform="translate(-122.743 -49.371)" fill="#fff"/>
                </g>
              </g>
            </g>
            <g id="Group_43257" data-name="Group 43257" transform="translate(142.961 50.169)" opacity="0.3">
              <g id="Group_43256" data-name="Group 43256">
                <g id="Group_43255" data-name="Group 43255" clip-path="url(#clip-path-12)">
                  <path id="Path_102029" data-name="Path 102029" d="M126.019,47.421h.006l4.12-2.272.037-.021a.686.686,0,0,0,.237-.942.772.772,0,0,0-1.02-.258l-4.12,2.272-.037.021a.686.686,0,0,0-.237.942.764.764,0,0,0,1.013.264Z" transform="translate(-124.908 -43.833)" fill="#fff"/>
                </g>
              </g>
            </g>
            <g id="Group_43260" data-name="Group 43260" transform="translate(133.89 55.121)" opacity="0.3">
              <g id="Group_43259" data-name="Group 43259">
                <g id="Group_43258" data-name="Group 43258" clip-path="url(#clip-path-13)">
                  <path id="Path_102030" data-name="Path 102030" d="M118.1,51.754h0l4.12-2.272.044-.024a.687.687,0,0,0,.224-.945.762.762,0,0,0-1.013-.255l-4.12,2.272-.037.021a.686.686,0,0,0-.237.942.761.761,0,0,0,1.013.261Z" transform="translate(-116.983 -48.161)" fill="#fff"/>
                </g>
              </g>
            </g>
            <g id="Group_43263" data-name="Group 43263" transform="translate(142.956 55.134)" opacity="0.3">
              <g id="Group_43262" data-name="Group 43262">
                <g id="Group_43261" data-name="Group 43261" clip-path="url(#clip-path-14)">
                  <path id="Path_102031" data-name="Path 102031" d="M129.4,51.76a.767.767,0,0,0,1.02-.258l.021-.037a.687.687,0,0,0-.294-.926l-4.12-2.272a.771.771,0,0,0-1.02.255.348.348,0,0,0-.019.035.692.692,0,0,0,.293.934l4.12,2.272Z" transform="translate(-124.904 -48.171)" fill="#fff"/>
                </g>
              </g>
            </g>
            <g id="Group_43266" data-name="Group 43266" transform="translate(133.896 50.171)" opacity="0.3">
              <g id="Group_43265" data-name="Group 43265">
                <g id="Group_43264" data-name="Group 43264" clip-path="url(#clip-path-15)">
                  <path id="Path_102032" data-name="Path 102032" d="M122.488,47.167a.346.346,0,0,0,.019-.035.686.686,0,0,0-.287-.927l-4.12-2.272a.76.76,0,0,0-1.013.258l-.021.035a.687.687,0,0,0,.291.927l4.12,2.272a.764.764,0,0,0,1.013-.258Z" transform="translate(-116.988 -43.835)" fill="#fff"/>
                </g>
              </g>
            </g>
            <path id="Path_102033" data-name="Path 102033" d="M122.309,47.772h0a1.188,1.188,0,1,0,1.249-1.186h-.006a1.214,1.214,0,0,0-1.246,1.18Z" transform="translate(17.677 6.733)" fill="#2e353a"/>
            <path id="Path_102034" data-name="Path 102034" d="M45.413,49.437c0,7.945-6.785,14.386-15.154,14.386s-15.154-6.44-15.154-14.386S21.891,35.051,30.26,35.051s15.154,6.44,15.154,14.386" transform="translate(2.183 5.066)" fill="#2e353a"/>
            <g id="Group_43269" data-name="Group 43269" transform="translate(23.153 45.683)" opacity="0.4" style="mix-blend-mode: normal;isolation: isolate">
              <g id="Group_43268" data-name="Group 43268">
                <g id="Group_43267" data-name="Group 43267" clip-path="url(#clip-path-9)">
                  <path id="Path_102035" data-name="Path 102035" d="M38.812,48.734a9.065,9.065,0,0,1-9.291,8.82,8.832,8.832,0,1,1,0-17.639,9.065,9.065,0,0,1,9.291,8.82" transform="translate(-20.229 -39.914)" fill="#fff"/>
                </g>
              </g>
            </g>
            <g id="Group_43272" data-name="Group 43272" transform="translate(31.694 46.573)" opacity="0.3">
              <g id="Group_43271" data-name="Group 43271">
                <g id="Group_43270" data-name="Group 43270" clip-path="url(#clip-path-10)">
                  <path id="Path_102036" data-name="Path 102036" d="M28.439,40.692h0a.725.725,0,0,0-.743.705v4.522a.725.725,0,0,0,.743.705h.006a.725.725,0,0,0,.743-.705V41.394a.723.723,0,0,0-.744-.7" transform="translate(-27.692 -40.691)" fill="#fff"/>
                </g>
              </g>
            </g>
            <g id="Group_43275" data-name="Group 43275" transform="translate(31.694 56.506)" opacity="0.3">
              <g id="Group_43274" data-name="Group 43274">
                <g id="Group_43273" data-name="Group 43273" clip-path="url(#clip-path-10)">
                  <path id="Path_102037" data-name="Path 102037" d="M29.183,50.075a.726.726,0,0,0-.744-.705h0a.725.725,0,0,0-.743.705V54.6a.724.724,0,0,0,.743.705h.006a.724.724,0,0,0,.743-.705Z" transform="translate(-27.692 -49.371)" fill="#fff"/>
                </g>
              </g>
            </g>
            <g id="Group_43278" data-name="Group 43278" transform="translate(34.176 50.169)" opacity="0.3">
              <g id="Group_43277" data-name="Group 43277">
                <g id="Group_43276" data-name="Group 43276" clip-path="url(#clip-path-19)">
                  <path id="Path_102038" data-name="Path 102038" d="M30.958,47.427l.009-.006,4.12-2.272.037-.021a.686.686,0,0,0,.237-.942.764.764,0,0,0-1.013-.258L30.227,46.2l-.035.019a.688.688,0,0,0-.232.943.757.757,0,0,0,1,.264Z" transform="translate(-29.86 -43.833)" fill="#fff"/>
                </g>
              </g>
            </g>
            <g id="Group_43281" data-name="Group 43281" transform="translate(25.105 55.12)" opacity="0.3">
              <g id="Group_43280" data-name="Group 43280">
                <g id="Group_43279" data-name="Group 43279" clip-path="url(#clip-path-20)">
                  <path id="Path_102039" data-name="Path 102039" d="M22.032,51.494a.771.771,0,0,0,1.02.259l4.12-2.272.046-.025a.687.687,0,0,0,.228-.944.771.771,0,0,0-1.02-.255l-4.12,2.272-.037.021a.686.686,0,0,0-.237.942Z" transform="translate(-21.935 -48.159)" fill="#fff"/>
                </g>
              </g>
            </g>
            <g id="Group_43284" data-name="Group 43284" transform="translate(34.178 55.134)" opacity="0.3">
              <g id="Group_43283" data-name="Group 43283">
                <g id="Group_43282" data-name="Group 43282" clip-path="url(#clip-path-21)">
                  <path id="Path_102040" data-name="Path 102040" d="M35.367,51.5h0l.021-.035a.687.687,0,0,0-.291-.927l-4.12-2.272a.763.763,0,0,0-1.013.255.322.322,0,0,0-.024.043.686.686,0,0,0,.292.926l4.12,2.272a.764.764,0,0,0,1.013-.258Z" transform="translate(-29.862 -48.172)" fill="#fff"/>
                </g>
              </g>
            </g>
            <g id="Group_43287" data-name="Group 43287" transform="translate(25.106 50.168)" opacity="0.3">
              <g id="Group_43286" data-name="Group 43286">
                <g id="Group_43285" data-name="Group 43285" clip-path="url(#clip-path-22)">
                  <path id="Path_102041" data-name="Path 102041" d="M27.445,47.17v-.007l.021-.035a.687.687,0,0,0-.291-.927l-4.12-2.272a.768.768,0,0,0-1.02.259l-.021.035a.687.687,0,0,0,.291.927l4.12,2.272a.766.766,0,0,0,1.016-.252Z" transform="translate(-21.936 -43.833)" fill="#fff"/>
                </g>
              </g>
            </g>
            <path id="Path_102042" data-name="Path 102042" d="M27.255,47.77a1.188,1.188,0,1,0,1.25-1.186,1.22,1.22,0,0,0-1.25,1.186" transform="translate(3.939 6.733)" fill="#2e353a"/>
            <g id="Group_43290" data-name="Group 43290" transform="translate(149.035 17.993)" opacity="0.3" style="mix-blend-mode: normal;isolation: isolate">
              <g id="Group_43289" data-name="Group 43289">
                <g id="Group_43288" data-name="Group 43288" clip-path="url(#clip-path-23)">
                  <path id="Path_102043" data-name="Path 102043" d="M145.791,25.075a1.024,1.024,0,0,1-.545.007L134.189,21.9a.945.945,0,0,1-.421-.248l-3.307-3.386a.58.58,0,0,1-.042-.048.877.877,0,0,1,.112-1.236,1,1,0,0,1,.541-.229l11.551-1.03a.962.962,0,0,1,.991.642c1.957,1.858,2.634,4.553,2.81,7.58l.013.042a.9.9,0,0,1-.642,1.1Z" transform="translate(-130.215 -15.721)"/>
                </g>
              </g>
            </g>
            <path id="Path_102044" data-name="Path 102044" d="M43.106,20.026a1.234,1.234,0,0,1,.428-.7,70.534,70.534,0,0,1,10.242-7.174l2.256,11.56-2.391.151a8.865,8.865,0,0,1-2.112-.343L43.936,21.5a1.231,1.231,0,0,1-.827-1.482Z" transform="translate(6.225 1.757)" fill="#2e353a"/>
            <path id="Path_102045" data-name="Path 102045" d="M91.25,3.246,88.4,22.384l-6.24.425,4.77-19.748q2.131.067,4.321.185" transform="translate(11.874 0.443)" fill="#2e353a"/>
            <path id="Path_102046" data-name="Path 102046" d="M105.862,4.532c1.909.215,3.819.444,5.616.673a1.659,1.659,0,0,1,1.373,1.869,1.778,1.778,0,0,1-.458,1.011l-8.766,10.393" transform="translate(14.977 0.655)" fill="#2e353a"/>
            <path id="Path_102047" data-name="Path 102047" d="M49.492,21.536h.072l3.867-.142L52.5,15.57l-3.662.815a2.643,2.643,0,0,0-2.127,2.574,2.683,2.683,0,0,0,2.778,2.577Z" transform="translate(6.751 2.251)" fill="#2e353a"/>
            <g id="Group_43293" data-name="Group 43293" transform="translate(53.462 17.82)" opacity="0.4" style="mix-blend-mode: normal;isolation: isolate">
              <g id="Group_43292" data-name="Group 43292">
                <g id="Group_43291" data-name="Group 43291" clip-path="url(#clip-path-24)">
                  <path id="Path_102048" data-name="Path 102048" d="M49.492,21.536h.072l3.867-.142L52.5,15.57l-3.662.815a2.643,2.643,0,0,0-2.127,2.574,2.683,2.683,0,0,0,2.778,2.577Z" transform="translate(-46.711 -15.57)" fill="#fff"/>
                </g>
              </g>
            </g>
            <g id="Group_43296" data-name="Group 43296" transform="translate(58.205 17.819)" opacity="0.3" style="mix-blend-mode: normal;isolation: isolate">
              <g id="Group_43295" data-name="Group 43295">
                <g id="Group_43294" data-name="Group 43294" clip-path="url(#clip-path-25)">
                  <path id="Path_102049" data-name="Path 102049" d="M50.855,15.8l1.045-.236.932,5.825-1.07.041Z" transform="translate(-50.855 -15.569)"/>
                </g>
              </g>
            </g>
            <g id="Group_43299" data-name="Group 43299" transform="translate(95.294 22.75)" opacity="0.6" style="mix-blend-mode: normal;isolation: isolate">
              <g id="Group_43298" data-name="Group 43298">
                <g id="Group_43297" data-name="Group 43297" clip-path="url(#clip-path-26)">
                  <path id="Path_102050" data-name="Path 102050" d="M83.341,45.789h-.019a.079.079,0,0,1-.06-.095c.041-.179,4.04-18.008,4.553-20.437a27.715,27.715,0,0,0,.211-5.3v-.006a.075.075,0,0,1,.076-.076.08.08,0,0,1,.082.076,28.11,28.11,0,0,1-.214,5.337c-.509,2.429-4.512,20.257-4.553,20.437A.077.077,0,0,1,83.341,45.789Z" transform="translate(-83.26 -19.877)"/>
                </g>
              </g>
            </g>
            <g id="Group_43302" data-name="Group 43302" transform="translate(49.22 22.127)" opacity="0.6" style="mix-blend-mode: normal;isolation: isolate">
              <g id="Group_43301" data-name="Group 43301">
                <g id="Group_43300" data-name="Group 43300" clip-path="url(#clip-path-27)">
                  <path id="Path_102051" data-name="Path 102051" d="M53.111,48.536a.072.072,0,0,1-.063-.032c-.054-.072-5.217-7.325-6.988-10.361-1.824-3.121-3-18.087-3.055-18.722h0a.077.077,0,0,1,.072-.084.067.067,0,0,1,.022,0,.069.069,0,0,1,.063.074c.013.155,1.227,15.566,3.033,18.656,1.771,3.03,6.931,10.277,6.982,10.349l0,0a.08.08,0,0,1-.021.111.078.078,0,0,1-.047.016Z" transform="translate(-43.005 -19.333)"/>
                </g>
              </g>
            </g>
            <g id="Group_43305" data-name="Group 43305" transform="translate(8.69 20.653)" opacity="0.6" style="mix-blend-mode: normal;isolation: isolate">
              <g id="Group_43304" data-name="Group 43304">
                <g id="Group_43303" data-name="Group 43303" clip-path="url(#clip-path-28)">
                  <path id="Path_102052" data-name="Path 102052" d="M7.673,26.691a.078.078,0,0,1-.029-.151C11.6,25,24.3,22.108,27.273,21.65c3.751-.57,16.569-3.571,16.7-3.6a.079.079,0,1,1,.034.155c-.13.032-12.953,3.034-16.71,3.606-2.895.441-15.736,3.382-19.6,4.88a.061.061,0,0,1-.029.006Z" transform="translate(-7.593 -18.045)"/>
                </g>
              </g>
            </g>
            <g id="Group_43308" data-name="Group 43308" transform="translate(136.153 6.214)" opacity="0.8" style="mix-blend-mode: normal;isolation: isolate">
              <g id="Group_43307" data-name="Group 43307">
                <g id="Group_43306" data-name="Group 43306" clip-path="url(#clip-path-29)">
                  <path id="Path_102053" data-name="Path 102053" d="M119.44,7.178a1.466,1.466,0,0,1,.579-.3l6.1-1.45c-.008.015-.015.03-.022.046a.889.889,0,0,0,.456,1.172l18.778,9.385c.216.111.421.23.623.356h-3.863a4.124,4.124,0,0,1-1.038-.132L121.583,11.13a1.513,1.513,0,0,1-.671-.387L119.324,9.1c-.021-.022-.041-.045-.061-.069a1.318,1.318,0,0,1,.175-1.856Z" transform="translate(-118.96 -5.429)" fill="#fff"/>
                </g>
              </g>
            </g>
          </g>
        </g>
      </g>
    </g>
    <g id="Group_43314" data-name="Group 43314" transform="translate(202.327 1935.953)">
      <g id="Group_43313" data-name="Group 43313" clip-path="url(#clip-path-30)">
        <path id="Path_102054" data-name="Path 102054" d="M1.448,78.734l2.8.445L4.157,88.4S.84,86.918.426,86.2A2.99,2.99,0,0,1,.634,83.72a20.75,20.75,0,0,0,.652-3.087Z" transform="translate(-0.025 -7.851)" fill="#fff"/>
        <path id="Path_102055" data-name="Path 102055" d="M1.448,78.734l2.8.445L4.157,88.4S.84,86.918.426,86.2A2.99,2.99,0,0,1,.634,83.72a20.75,20.75,0,0,0,.652-3.087Z" transform="translate(-0.025 -7.851)" fill="none" stroke="#2e353a" stroke-linecap="round" stroke-linejoin="round" stroke-width="0.5"/>
        <path id="Path_102056" data-name="Path 102056" d="M4.1,87.77c-1.24.09-1.281-1.223-1.486-2.36s-.3-2.139-.3-2.139" transform="translate(-0.231 -8.304)" fill="#fff"/>
        <path id="Path_102057" data-name="Path 102057" d="M4.1,87.77c-1.24.09-1.281-1.223-1.486-2.36s-.3-2.139-.3-2.139" transform="translate(-0.231 -8.304)" fill="none" stroke="#2e353a" stroke-linecap="round" stroke-linejoin="round" stroke-width="0.5"/>
        <path id="Path_102058" data-name="Path 102058" d="M6.547,60.105,4.789,75.386l-3.4-.1L2.831,58.146,4.9,35.536Z" transform="translate(-0.138 -3.544)" fill="#fff"/>
        <path id="Path_102059" data-name="Path 102059" d="M6.547,60.105,4.789,75.386l-3.4-.1L2.831,58.146,4.9,35.536Z" transform="translate(-0.138 -3.544)" fill="none" stroke="#2e353a" stroke-linecap="round" stroke-linejoin="round" stroke-width="1"/>
        <path id="Path_102060" data-name="Path 102060" d="M4.433,65.224l.474,5.431s-.519,23.542.075,28.7,4.392,23.669,4.448,24.93a17.577,17.577,0,0,0,.911,3.649s-1.132,3.052-1.993,3.539S4.64,133.1,4.31,134.229,6,135.613,7.766,135.613a43.461,43.461,0,0,0,4.884-.63,26.192,26.192,0,0,0,3.146,0c.747-.126,1.612-.515,1.719-1.007s-.409-6.673-.429-7.176-.565-4.409-.712-7.932-.327-25.685-.327-25.685,1.549,15.741,1.573,16.244,2.611,17.121,2.611,17.121l.071,1.636a22.649,22.649,0,0,0,.393,3.024c.159.755-.866,3.268-.54,5.033s1.978,2.033,3.37,2.269a15.85,15.85,0,0,0,5.143-.393c.5-.252.7-1.388.54-2.143s-1.179-4.152-1.179-4.152.485-18.006.54-19.641-1.455-10.574-1.455-10.574.689-25.433.9-26.566-.787-9.948-.787-9.948c-7.94,2.9-22.794.131-22.794.131" transform="translate(-0.426 -6.491)" fill="#2e353a"/>
        <path id="Path_102061" data-name="Path 102061" d="M4.433,65.224l.474,5.431s-.519,23.542.075,28.7,4.392,23.669,4.448,24.93a17.577,17.577,0,0,0,.911,3.649s-1.132,3.052-1.993,3.539S4.64,133.1,4.31,134.229,6,135.613,7.766,135.613a43.461,43.461,0,0,0,4.884-.63,26.192,26.192,0,0,0,3.146,0c.747-.126,1.612-.515,1.719-1.007s-.409-6.673-.429-7.176-.565-4.409-.712-7.932-.327-25.685-.327-25.685,1.549,15.741,1.573,16.244,2.611,17.121,2.611,17.121l.071,1.636a22.649,22.649,0,0,0,.393,3.024c.159.755-.866,3.268-.54,5.033s1.978,2.033,3.37,2.269a15.85,15.85,0,0,0,5.143-.393c.5-.252.7-1.388.54-2.143s-1.179-4.152-1.179-4.152.485-18.006.54-19.641-1.455-10.574-1.455-10.574.689-25.433.9-26.566-.787-9.948-.787-9.948C19.288,67.991,4.433,65.224,4.433,65.224Z" transform="translate(-0.426 -6.491)" fill="none" stroke="#2e353a" stroke-linecap="round" stroke-linejoin="round" stroke-width="1"/>
        <path id="Path_102062" data-name="Path 102062" d="M15.465,28.218s-7.52,1.387-8.193,2.174c-2.45,2.867-3.469,7.982-3.366,9.945s.409,20.094.618,21.124,1.75,2.885,6.713,3.2,14.879-.609,16.016-1.124a1.8,1.8,0,0,0,.932-1.86l.307-9.292,2.359,7.864,1.136,16.205,4.542.185s1.24-13.321,1.549-14.246-2.685-26.223-2.685-26.223-2.575-1.651-4.849-2.89a75.528,75.528,0,0,1-7.227-5.265c-2.686-1.443-7.852.2-7.852.2" transform="translate(-0.389 -2.734)" fill="#fff"/>
        <path id="Path_102063" data-name="Path 102063" d="M15.465,28.218s-7.52,1.387-8.193,2.174c-2.45,2.867-3.469,7.982-3.366,9.945s.409,20.094.618,21.124,1.75,2.885,6.713,3.2,14.879-.609,16.016-1.124a1.8,1.8,0,0,0,.932-1.86l.307-9.292,2.359,7.864,1.136,16.205,4.542.185s1.24-13.321,1.549-14.246-2.685-26.223-2.685-26.223-2.575-1.651-4.849-2.89a75.528,75.528,0,0,1-7.227-5.265C20.631,26.571,15.465,28.218,15.465,28.218Z" transform="translate(-0.389 -2.734)" fill="none" stroke="#2e353a" stroke-linecap="round" stroke-linejoin="round" stroke-width="0.5"/>
        <path id="Path_102064" data-name="Path 102064" d="M16.521,29.783l-3.7,1.148-.747,2.312L13.391,37.2,10.245,59.263s2.634,4.447,2.965,3.952,2.469-3.3,2.469-3.3l-.99-23.054,2.8-3.787Z" transform="translate(-1.022 -2.97)" fill="#ace1a9"/>
        <path id="Path_102065" data-name="Path 102065" d="M16.521,29.783l-3.7,1.148-.747,2.312L13.391,37.2,10.245,59.263s2.634,4.447,2.965,3.952,2.469-3.3,2.469-3.3l-.99-23.054,2.8-3.787Z" transform="translate(-1.022 -2.97)" fill="none" stroke="#2e353a" stroke-linecap="round" stroke-linejoin="round" stroke-width="0.5"/>
        <path id="Path_102066" data-name="Path 102066" d="M15.163,43.819,13.036,42.45,12.56,45.8l2.765,1.782Z" transform="translate(-1.252 -4.233)" fill="#2e353a"/>
        <path id="Path_102067" data-name="Path 102067" d="M16.058,35.622,12.39,33.164l-.134.417,1.317,3.952-.015.114,1.392.936L14.89,37.2Z" transform="translate(-1.222 -3.307)" fill="#2e353a"/>
        <path id="Path_102068" data-name="Path 102068" d="M10.757,63.052l3.511,1.711c.676-.9,1.42-1.872,1.42-1.872l-.036-.877-5.016-2.442-.394,2.662s.205.339.516.817" transform="translate(-1.021 -5.94)" fill="#2e353a"/>
        <path id="Path_102069" data-name="Path 102069" d="M11.848,50.828l-.48,3.378,4.207,2.8L15.411,53.2Z" transform="translate(-1.134 -5.068)" fill="#2e353a"/>
        <line id="Line_1003" data-name="Line 1003" x2="3.818" y2="8.466" transform="translate(24.269 41.178)" fill="none" stroke="#2e353a" stroke-linecap="round" stroke-linejoin="round" stroke-width="1"/>
        <path id="Path_102070" data-name="Path 102070" d="M14.9,26.543l-2.758,1.38,2.071,6.221Z" transform="translate(-1.211 -2.647)" fill="#fff"/>
        <path id="Path_102071" data-name="Path 102071" d="M14.9,26.543l-2.758,1.38,2.071,6.221Z" transform="translate(-1.211 -2.647)" fill="none" stroke="#2e353a" stroke-linecap="round" stroke-linejoin="round" stroke-width="1"/>
        <path id="Path_102072" data-name="Path 102072" d="M12.681,30.762l-3.617.684,2.765-3.37Z" transform="translate(-0.904 -2.8)" fill="#fff"/>
        <path id="Path_102073" data-name="Path 102073" d="M12.681,30.762l-3.617.684,2.765-3.37Z" transform="translate(-0.904 -2.8)" fill="none" stroke="#2e353a" stroke-linecap="round" stroke-linejoin="round" stroke-width="0.5"/>
        <path id="Path_102074" data-name="Path 102074" d="M26.572,6.723c2.572,3.02.606,5.439.606,5.439l-3.8,10.106L16.4,28.912l-2.161,3.024.948-9.154a10.844,10.844,0,0,1-1.9-.519c-.519-.259-.523-1.3-.865-3.629a9.779,9.779,0,0,1,.952-6.13,47.455,47.455,0,0,0,1.966-6.291C17.07,4.053,24,3.7,26.572,6.723" transform="translate(-1.225 -0.451)" fill="#fff"/>
        <path id="Path_102075" data-name="Path 102075" d="M26.572,6.723c2.572,3.02.606,5.439.606,5.439l-3.8,10.106L16.4,28.912l-2.161,3.024.948-9.154a10.844,10.844,0,0,1-1.9-.519c-.519-.259-.523-1.3-.865-3.629a9.779,9.779,0,0,1,.952-6.13,47.455,47.455,0,0,0,1.966-6.291C17.07,4.053,24,3.7,26.572,6.723Z" transform="translate(-1.225 -0.451)" fill="none" stroke="#2e353a" stroke-linecap="round" stroke-linejoin="round" stroke-width="0.5"/>
        <path id="Path_102076" data-name="Path 102076" d="M27.142,14.6s1.4-3.468,2.161-4.923,1.3-3.6-1.207-6.291S16.688-.5,14.537,1.488s.6,2.5.6,2.5-1.467,3.367.09,3.193,6.3-1.817,8.981-.606S22.83,7.958,22.4,9s3.11,1.817,3.456,3.11a2.214,2.214,0,0,1-.692,2.161l1.207.519Z" transform="translate(-1.368 -0.05)" fill="#2e353a"/>
        <path id="Path_102077" data-name="Path 102077" d="M27.142,14.6s1.4-3.468,2.161-4.923,1.3-3.6-1.207-6.291S16.688-.5,14.537,1.488s.6,2.5.6,2.5-1.467,3.367.09,3.193,6.3-1.817,8.981-.606S22.83,7.958,22.4,9s3.11,1.817,3.456,3.11a2.214,2.214,0,0,1-.692,2.161l1.207.519Z" transform="translate(-1.368 -0.05)" fill="none" stroke="#2e353a" stroke-linecap="round" stroke-linejoin="round" stroke-width="1"/>
        <path id="Path_102078" data-name="Path 102078" d="M25.256,19.494a1.769,1.769,0,0,0,2.161.173c1.141-.774,2.523-2.933,1.573-3.8s-2.678.952-2.678.952" transform="translate(-2.518 -1.559)" fill="#fff"/>
        <path id="Path_102079" data-name="Path 102079" d="M25.256,19.494a1.769,1.769,0,0,0,2.161.173c1.141-.774,2.523-2.933,1.573-3.8s-2.678.952-2.678.952" transform="translate(-2.518 -1.559)" fill="none" stroke="#2e353a" stroke-linecap="round" stroke-linejoin="round" stroke-width="0.5"/>
        <path id="Path_102080" data-name="Path 102080" d="M16.936,17.01l-2.677-.6,2.752-4.149a3.4,3.4,0,0,0-.173-1.986c-.432-.947-1.3-.259-1.3-.259" transform="translate(-1.422 -0.975)" fill="none" stroke="#2e353a" stroke-linecap="round" stroke-linejoin="round" stroke-width="0.5"/>
        <path id="Path_102081" data-name="Path 102081" d="M19.789,18.869a3.693,3.693,0,0,1-3.625.692" transform="translate(-1.612 -1.882)" fill="none" stroke="#2e353a" stroke-linecap="round" stroke-linejoin="round" stroke-width="0.5"/>
        <path id="Path_102082" data-name="Path 102082" d="M23.081,12.093a2.72,2.72,0,0,0-3.366-1.207" transform="translate(-1.966 -1.067)" fill="none" stroke="#2e353a" stroke-linecap="round" stroke-linejoin="round" stroke-width="0.5"/>
        <path id="Path_102083" data-name="Path 102083" d="M20.455,13.881c0,.478-.252.865-.563.865s-.563-.387-.563-.865.252-.865.563-.865.563.387.563.865" transform="translate(-1.928 -1.298)" fill="#2e353a"/>
        <path id="Path_102084" data-name="Path 102084" d="M15.093,11.772c.31,0,.563.39.563.862s-.257.865-.563.865-.559-.385-.559-.865.248-.862.559-.862" transform="translate(-1.449 -1.174)" fill="#2e353a"/>
        <path id="Path_102085" data-name="Path 102085" d="M15.011,30.132l4.4-5.7-3.971.346Z" transform="translate(-1.497 -2.437)" fill="#2e353a"/>
        <path id="Path_102086" data-name="Path 102086" d="M15.011,30.132l4.4-5.7-3.971.346Z" transform="translate(-1.497 -2.437)" fill="none" stroke="#2e353a" stroke-width="1"/>
        <path id="Path_102087" data-name="Path 102087" d="M16.837,30.891l3.107,4.75,5.7-8.206-1.813-3.193Z" transform="translate(-1.679 -2.417)" fill="#fff"/>
        <path id="Path_102088" data-name="Path 102088" d="M16.837,30.891l3.107,4.75,5.7-8.206-1.813-3.193Z" transform="translate(-1.679 -2.417)" fill="none" stroke="#2e353a" stroke-linecap="round" stroke-linejoin="round" stroke-width="0.5"/>
        <path id="Path_102089" data-name="Path 102089" d="M39.1,86.993a1.691,1.691,0,0,1,1.686,1.7v3.932H31.538V88.684a1.691,1.691,0,0,1,1.691-1.691H39.1Z" transform="translate(-3.145 -8.675)" fill="none" stroke="#2e353a" stroke-linecap="round" stroke-linejoin="round" stroke-width="4"/>
        <path id="Path_102090" data-name="Path 102090" d="M49.161,97.131v8.249a5.15,5.15,0,0,1-5.15,5.15H26.542a5.15,5.15,0,0,1-5.15-5.15V97.131a5.15,5.15,0,0,1,5.15-5.15h17.47a5.15,5.15,0,0,1,5.15,5.15" transform="translate(-2.133 -9.172)" fill="#636363"/>
        <rect id="Rectangle_11287" data-name="Rectangle 11287" width="27.769" height="18.549" rx="5.72" transform="translate(19.259 82.809)" fill="none" stroke="#2e353a" stroke-linecap="round" stroke-linejoin="round" stroke-width="0.5"/>
        <path id="Path_102091" data-name="Path 102091" d="M39.25,82.081a24.654,24.654,0,0,1,.932,3.932,2.04,2.04,0,0,1-1.035,2.167,7.167,7.167,0,0,1-2.272.311,5.685,5.685,0,0,1-.393.826c-.212.311-1.262.311-1.967,0s-.311-1.239-.311-1.239l.311-2.686a13.642,13.642,0,0,1-2.064,1.447,1.006,1.006,0,0,1-1.135-.72c-.1-.515,1.245-1.03,1.966-2.064s1.44-2.167,1.44-2.167Z" transform="translate(-3.122 -8.166)" fill="#fff"/>
        <path id="Path_102092" data-name="Path 102092" d="M39.25,82.081a24.654,24.654,0,0,1,.932,3.932,2.04,2.04,0,0,1-1.035,2.167,7.167,7.167,0,0,1-2.272.311,5.685,5.685,0,0,1-.393.826c-.212.311-1.262.311-1.967,0s-.311-1.239-.311-1.239l.311-2.686a13.642,13.642,0,0,1-2.064,1.447,1.006,1.006,0,0,1-1.135-.72c-.1-.515,1.245-1.03,1.966-2.064s1.44-2.167,1.44-2.167Z" transform="translate(-3.122 -8.166)" fill="none" stroke="#2e353a" stroke-linecap="round" stroke-linejoin="round" stroke-width="0.5"/>
      </g>
    </g>
  </g>
</svg>
