<svg xmlns="http://www.w3.org/2000/svg" width="125.751" height="79.358" viewBox="0 0 125.751 79.358">
  <path id="Connect" d="M105.77,55.888a1,1,0,0,1,1.856-.732l1.653,4.178a1,1,0,0,1-1.856.732ZM62.408,92.264c.14-.217.279-.235.363-.506a3,3,0,0,0,.461-2.22,2.645,2.645,0,0,0-4.8-.866l-3.28,5.106a2.645,2.645,0,0,0,4.451,2.86Zm8.643-4.805a2.662,2.662,0,0,1,.766,3.633l-3.233,5.03a2.646,2.646,0,1,1-4.5-2.786c.14-.218.1-.348.309-.541S67,88.8,67.365,88.227a2.64,2.64,0,0,1,3.685-.774ZM49.408,89.237l2.8-4.36a2.645,2.645,0,0,1,4.451,2.86L53.38,92.844a2.647,2.647,0,0,1-4.8-.868,3.256,3.256,0,0,1,.838-2.739Zm.838-9.816a2.642,2.642,0,0,0-3.683.774L43.477,85h0a2.707,2.707,0,0,0-.546,2.3,2.647,2.647,0,0,0,4.8.868l3.288-5.123h0a2.663,2.663,0,0,0-.777-3.62ZM29.3,55.715a1,1,0,0,1,1.786.88l-1.794,3.676a1,1,0,1,1-1.793-.865l1.8-3.692ZM71.049,41.44l-7.427,4.022A5.471,5.471,0,0,0,61.43,52.85c1.418,2.617,5.757.952,10.034-1.147,2.169-1.068,5.114-2.672,7.047-3.45a1,1,0,0,1,.742,1.849c-1.14.46-2.475,1.13-3.894,1.858a.735.735,0,0,0-.011,1.305l31.636,16.9a.727.727,0,0,0,.812-.077,24.075,24.075,0,0,0,2.3-2.11.725.725,0,0,0,.15-.778L109.138,64.4a1,1,0,0,1,1.856-.732c.271.682,1.353,3.463,1.615,3.934,1.266,2.028,4.245,2.022,6.322,1.228l9.615-3.676c2.564-.978,2.515-4.374,1.755-6.632l-10.558-31.64c-.855-2.564-4.316-2.552-6.59-1.727-1.428.535-11.278,4.174-11.81,4.463-2.142,1.16-2.547,4.265-1.258,6.5a.976.976,0,0,1,.061.129h0l5.774,14.592a1,1,0,0,1-1.856.732L98.99,38.747a.735.735,0,0,0-.914-.429c-5.553,1.817-17.971-1.782-19.719-.838l-7.284,3.952-.024.013Zm-19.7-5.626c-2.065.78-4.369,1.649-9.53-.028a.735.735,0,0,0-.9.4c-2.422,5.472-5.227,11.1-8.021,16.75a1,1,0,0,1-1.786-.882c3.1-6.26,6.1-12.3,8.731-18.389,1.02-2.366.714-5.634-1.7-6.887l-9.194-4.772a4.78,4.78,0,0,0-6.288,2.575L5.8,60.112h0c-.988,2.116-1.446,5.781.964,6.924h0q4.969,2.342,9.967,4.656A4.778,4.778,0,0,0,23.01,69.15l2.742-6.064a.995.995,0,0,1,1.8.838L25.12,69.282a.724.724,0,0,0,.117.776c2.306,2.675,6.359,8.828,8.557,9.781l7.859,3.214a.731.731,0,0,0,.894-.279l2.338-3.64a4.646,4.646,0,0,1,6.428-1.386h0a4.622,4.622,0,0,1,2.075,3.307.738.738,0,0,0,.776.643,4.629,4.629,0,0,1,4.731,3.354.736.736,0,0,0,.854.52,4.641,4.641,0,0,1,4.636,1.773A.736.736,0,0,0,65.6,87.3a4.638,4.638,0,1,1,7.9,4.864l-1.3,2.026a.735.735,0,0,0,.348,1.083c4.2,1.668,9.407,3.716,12.632,5.107,5.761,2.484,7.126-3.38,1.6-5.968l-9.758-4.571-.17-.077a1,1,0,1,1,.819-1.817l15.673,7.126c3.274,1.491,6.083-.263,5.961-2.962a4.685,4.685,0,0,0-3.043-3.861l-17.066-8.1h0a.995.995,0,0,1,.848-1.8h0L98.913,87.23c3.205,1.515,6.141-.175,6.017-2.951a4.663,4.663,0,0,0-3.048-3.85L83.1,71.591h0a.995.995,0,0,1,.845-1.794h0l19.563,9.175c3.26,1.524,6.194-.07,6.074-2.81a4.928,4.928,0,0,0-2.957-3.932L72.251,53.868a.718.718,0,0,0-.664-.015c-4.836,2.3-9.738,3.875-11.886-.014a7.463,7.463,0,0,1,2.978-10.129l4.249-2.3a.736.736,0,0,0-.06-1.325l-9.442-4.075a6.707,6.707,0,0,0-6.081-.194Z" transform="translate(-5.005 -21.628)" fill="#026dd5" fill-rule="evenodd"/>
</svg>
