<svg xmlns="http://www.w3.org/2000/svg" width="59.11" height="59.11" viewBox="0 0 59.11 59.11">
  <path id="Contact_Support" data-name="Contact Support" d="M149.555-790.741a3.963,3.963,0,0,0,2.914-1.191,3.963,3.963,0,0,0,1.19-2.914,3.964,3.964,0,0,0-1.19-2.914,3.964,3.964,0,0,0-2.914-1.19,3.964,3.964,0,0,0-2.914,1.19,3.963,3.963,0,0,0-1.19,2.914,3.963,3.963,0,0,0,1.19,2.914A3.963,3.963,0,0,0,149.555-790.741ZM146.6-803.384h6.075a10.8,10.8,0,0,1,.657-4.351,14.145,14.145,0,0,1,2.791-3.53,28.8,28.8,0,0,0,4.064-4.8,8.194,8.194,0,0,0,1.19-4.392,9.005,9.005,0,0,0-2.956-7.019,11.438,11.438,0,0,0-7.963-2.668,13.031,13.031,0,0,0-7.676,2.217,11.44,11.44,0,0,0-4.392,6.157l5.419,2.135a6.471,6.471,0,0,1,2.3-3.571,6.322,6.322,0,0,1,4.023-1.355,5.7,5.7,0,0,1,3.694,1.19,3.855,3.855,0,0,1,1.478,3.161,5.93,5.93,0,0,1-.9,2.955,14.826,14.826,0,0,1-3.038,3.448,14.806,14.806,0,0,0-3.735,4.556A13.945,13.945,0,0,0,146.6-803.384ZM126.568-780.89a6.324,6.324,0,0,1-4.639-1.929A6.324,6.324,0,0,1,120-787.457v-45.975a6.325,6.325,0,0,1,1.929-4.639A6.325,6.325,0,0,1,126.568-840h45.975a6.325,6.325,0,0,1,4.639,1.929,6.324,6.324,0,0,1,1.929,4.639v45.975a6.324,6.324,0,0,1-1.929,4.638,6.324,6.324,0,0,1-4.639,1.929Z" transform="translate(-120 840)" fill="#016dd5"/>
</svg>
