<svg xmlns="http://www.w3.org/2000/svg" width="183.904" height="129.899" viewBox="0 0 183.904 129.899">
  <g id="Group_40341" data-name="Group 40341" transform="translate(-29.538 -16.995)">
    <g id="Group_40301" data-name="Group 40301" transform="translate(-3899 -1124)">
      <g id="Group_40299" data-name="Group 40299" transform="translate(3928.538 1140.995)">
        <g id="n.121_Webflow" data-name="n.121 Webflow" transform="translate(0 0)">
          <path id="Path_2443" data-name="Path 2443" d="M47.428,299.209l.149-7.612v-2.773c.055-3.263.137-6.522.149-9.78,0-1.447-.02-2.9-.071-4.337-.024-.918-.09-1.843-.086-2.765,0-.463,0-.925.02-1.388s.082-.925.129-1.384c.078-.58.275-.51.569-.031a8.564,8.564,0,0,1,.514.992,5.431,5.431,0,0,1,.337,1.435c.035.471.1.941.114,1.412l.039,1.416c.024.941.043,1.886.051,2.831q0,2.835-.137,5.686c-.106,2.278-.024,4.643-.047,6.969q-.063,3.835-.122,7.671-.035,2.353-.075,4.706c-.027,2.38-.071,4.776-.031,7.137.035,1.835.161,3.635.29,5.435l.1,1.176a6.823,6.823,0,0,1-.024,1.569,1.431,1.431,0,0,1-.357.733,1.9,1.9,0,0,1-.216.239c-.122.086-.251,0-.392-.275a3.682,3.682,0,0,1-.424-1.239c-.149-.82-.224-1.651-.294-2.482s-.114-1.682-.157-2.529c-.075-1.7-.1-3.42-.106-5.141,0-2.557.027-5.125.047-7.686Z" transform="translate(-46.957 -217.138)" fill="#231f20"/>
          <path id="Path_2512" data-name="Path 2512" d="M47.428,299.209l.149-7.612v-2.773c.055-3.263.137-6.522.149-9.78,0-1.447-.02-2.9-.071-4.337-.024-.918-.09-1.843-.086-2.765,0-.463,0-.925.02-1.388s.082-.925.129-1.384c.078-.58.275-.51.569-.031a8.564,8.564,0,0,1,.514.992,5.431,5.431,0,0,1,.337,1.435c.035.471.1.941.114,1.412l.039,1.416c.024.941.043,1.886.051,2.831q0,2.835-.137,5.686c-.106,2.278-.024,4.643-.047,6.969q-.063,3.835-.122,7.671-.035,2.353-.075,4.706c-.027,2.38-.071,4.776-.031,7.137.035,1.835.161,3.635.29,5.435l.1,1.176a6.823,6.823,0,0,1-.024,1.569,1.431,1.431,0,0,1-.357.733,1.9,1.9,0,0,1-.216.239c-.122.086-.251,0-.392-.275a3.682,3.682,0,0,1-.424-1.239c-.149-.82-.224-1.651-.294-2.482s-.114-1.682-.157-2.529c-.075-1.7-.1-3.42-.106-5.141,0-2.557.027-5.125.047-7.686Z" transform="translate(-44.161 -252.573)" fill="#231f20"/>
          <path id="Path_2444" data-name="Path 2444" d="M46.451,135.478c0-.62.031-1.239.031-1.863,0-.224-.031-.451-.027-.678,0-.784.031-1.6.024-2.4a10.586,10.586,0,0,0-.067-1.063,5.723,5.723,0,0,1-.059-.682,3.392,3.392,0,0,1,0-.345,1.455,1.455,0,0,1,.1-.349c.059-.149.192-.129.392,0a4.079,4.079,0,0,1,.341.231.651.651,0,0,1,.22.337,2.875,2.875,0,0,1,.106.682c0,.231.031.459.039.694a9.937,9.937,0,0,1-.055,1.4,15.747,15.747,0,0,0,.031,1.718v1.89l-.02,1.176c0,.588-.027,1.176,0,1.761,0,.451.09.9.133,1.345,0,.1.031.2.035.294a.6.6,0,0,1-.086.392.576.576,0,0,1-.29.169.734.734,0,0,0-.165.051.3.3,0,0,1-.251-.082.643.643,0,0,1-.22-.31,10.926,10.926,0,0,1-.239-2.467v-1.871Z" transform="translate(-46.349 -113.317)" fill="#231f20"/>
          <path id="Path_2445" data-name="Path 2445" d="M165.239,120.71q-13.737-.043-27.47,0l-10.017.082q-17.666.043-35.322.145c-5.221.039-10.474.125-15.659.224l-10,.208c-3.336.043-6.672.059-10,0-2.088-.094-1.808-.392-.054-.761a51.853,51.853,0,0,1,8.81-.961c13.6-.294,27.19-.471,40.909-.424,8.2.027,16.725-.161,25.124-.22q13.841-.1,27.683-.114h17.037c8.589,0,17.241.067,25.766.106,6.636.035,13.145,0,19.718.1,1.447,0,2.866.043,4.33.094,1.356.039,2.477.118,3.422.188.452.035.9.071,1.279.114s.737.094,1.049.153a13.324,13.324,0,0,1,1.51.357,5.338,5.338,0,0,1,.976.475,5.01,5.01,0,0,1,.683.431c.208.212-.253.31-1.216.341-.475,0-1.1.027-1.849.031q-.565,0-1.207-.024l-1.383-.031c-5.813-.173-11.83-.2-17.928-.247l-18.484-.114c-9.212-.047-18.47-.086-27.71-.082Z" transform="translate(-51.79 -107.783)" fill="#231f20"/>
          <path id="Path_2446" data-name="Path 2446" d="M460.154,334.179l-.071-13.3c0-1.616-.071-3.233-.078-4.849-.024-5.709,0-11.418,0-17.126,0-2.536-.047-5.079-.09-7.592q-.059-2.417-.051-4.849t.177-4.849c.059-1.008.29-.875.561,0,.165.562.308,1.147.427,1.75.074.363.145.741.208,1.179l.09.645c0,.222.027.445.035.682l.082,2.461.039,1.231v1.231l.024,4.938q0,4.938-.059,9.92c-.063,3.966.086,8.1.129,12.159q.051,6.673.11,13.4l.047,8.259c.024,4.174,0,8.363-.02,12.515,0,3.232.02,6.406-.114,9.638-.035.741-.051,1.416-.118,2.15-.043.571-.107,1.136-.192,1.69a7.468,7.468,0,0,1-.243,1.127,1.345,1.345,0,0,1-.635.956.854.854,0,0,1-.333.126c-.165,0-.255-.319-.286-.808-.014-.293-.014-.589,0-.882,0-.341.039-.741.067-1.186q.251-4.18.278-8.393c.035-2.906.047-5.872.047-8.852q0-6.673-.063-13.345Z" transform="translate(-277.84 -265.397)" fill="#231f20"/>
          <path id="Path_2448" data-name="Path 2448" d="M143.9,406.447l-18.738.2-6.835.106q-12.048.082-24.092.055H83.55c-2.273,0-4.549,0-6.828-.055-1.14-.027-2.283-.071-3.423-.149a22.236,22.236,0,0,1-3.439-.431,1.594,1.594,0,0,1-.867-.435.213.213,0,0,1-.054-.153.2.2,0,0,1,.04-.086c.04-.035.071-.071.094-.094s.027-.043.03-.035a.159.159,0,0,0,.128.1,3.205,3.205,0,0,0,.708-.02,44.9,44.9,0,0,1,5.989-.251c4.62.125,9.253.133,13.9.153l13.966.051c5.591.031,11.411-.149,17.129-.247l18.883-.318,11.613-.2c5.86-.114,11.751-.208,17.571-.369,4.522-.126,8.952-.353,13.427-.518.985-.035,1.949-.086,2.944-.106,3.682-.082,4.869.055,5.655.569a2.494,2.494,0,0,1,.509.365c.158.2-.121.341-.782.463a24.436,24.436,0,0,1-3.035.278c-7.978.392-16.408.62-24.871.784l-18.9.357Z" transform="translate(-60.08 -299.109)" fill="#231f20"/>
          <path id="Path_2453" data-name="Path 2453" d="M428.334,148.213c.09-1.326.18-2.651.251-3.976.024-.482,0-.969.035-1.451.094-1.7.169-3.4.2-5.1,0-.753-.024-1.51-.1-2.251-.09-.945-.235-1.894-.392-2.773-.051-.278.118-.337.392-.165a1.886,1.886,0,0,1,.467.439,2.3,2.3,0,0,1,.345.745,21.617,21.617,0,0,1,.357,3.02c.027.5.043,1,.039,1.5s0,1-.047,1.5c-.078,1.2-.027,2.439-.063,3.659-.039,1.341-.1,2.682-.161,4.02l-.118,2.474c-.055,1.243-.129,2.5-.141,3.737,0,.961.059,1.906.094,2.859,0,.208.031.412.035.624,0,.784-.078,1.031-.447,1.176a1.753,1.753,0,0,1-.231.11c-.243.071-.506-.255-.565-.827a36.6,36.6,0,0,1-.145-5.31c.039-1.341.1-2.682.169-4.024Z" transform="translate(-254.584 -115.997)" fill="#231f20"/>
          <path id="Path_2464" data-name="Path 2464" d="M380.627,140.814c-1.027-.027-2.055-.051-3.086-.063-.373,0-.749.027-1.125.02-1.322-.02-2.647-.055-3.969-.059-.588,0-1.176,0-1.761.043a13.573,13.573,0,0,1-2.259,0c-.235-.027-.2-.239,0-.451a1.525,1.525,0,0,1,.976-.471c.761-.055,1.525-.1,2.29-.125s1.533,0,2.306.035c.922.051,1.882-.031,2.823-.043h5.031c.969,0,1.961.024,2.906,0,.745,0,1.482-.086,2.231-.114a4.154,4.154,0,0,1,.494,0c.62.035.827.161.918.455a1.424,1.424,0,0,1,.059.2c.027.224-.243.392-.667.435a33.238,33.238,0,0,1-4.055.188l-3.1-.024Z" transform="translate(-218.21 -120.358)" fill="#231f20"/>
          <g id="Group_40292" data-name="Group 40292" transform="translate(159.356 21.467)" opacity="0.4">
            <path id="Path_2465" data-name="Path 2465" d="M394.772,148.436c.357.024.718.027,1.082.024.133,0,.267-.035.392-.035h1.435a5.7,5.7,0,0,0,.635-.043,1.9,1.9,0,0,1,.827,0c.086.024.071.216,0,.412s-.188.392-.333.392a6.235,6.235,0,0,1-1.608.086,6.273,6.273,0,0,0-1.008.078c-.373.024-.753.035-1.129.043h-.7c-.357,0-.714-.039-1.075-.047-.278,0-.561.024-.855,0a1.11,1.11,0,0,1-.2,0c-.239-.043-.282-.173-.235-.443a.331.331,0,0,1,.031-.173.537.537,0,0,1,.353-.392,6.477,6.477,0,0,1,1.322,0c.341,0,.69.043,1.051.039Z" transform="translate(-391.987 -148.304)" fill="#231f20"/>
          </g>
          <path id="Path_2493" data-name="Path 2493" d="M157.958,130.156l-18.282-.137h-6.667c-7.843-.059-15.686-.125-23.506-.145-3.478,0-6.973,0-10.424.063l-6.667.1c-2.22.02-4.439.047-6.667.024-1.384-.039-1.2-.2-.039-.439a37.253,37.253,0,0,1,5.882-.588c9.059-.173,18.106-.188,27.231-.071,5.459.071,11.141,0,16.725.039l18.431.078,11.337.043c5.722,0,11.471.027,17.149,0,4.416-.035,8.741-.137,13.106-.231l2.871-.067c1.792-.035,2.976-.039,3.808,0a5.992,5.992,0,0,1,1.7.294,5.4,5.4,0,0,1,.51.184c.176.1-.1.2-.753.306a24.748,24.748,0,0,1-2.988.251c-7.8.294-16.035.373-24.314.392l-18.455-.043Z" transform="translate(-69.703 -113.806)" fill="#231f20"/>
          <g id="Group_40294" data-name="Group 40294" transform="translate(18.798 100.257)" opacity="0.4">
            <path id="Path_2494" data-name="Path 2494" d="M163.881,394.783l-17.4.133-6.345.063-22.353.039-9.914.043-6.337.027c-2.11,0-4.224,0-6.329-.09-1.318-.047-1.137-.231-.024-.42a35.18,35.18,0,0,1,5.588-.392h25.882c5.192,0,10.588-.09,15.906-.145l17.518-.2,10.784-.141c5.439-.086,10.91-.165,16.31-.3,4.2-.106,8.31-.275,12.459-.439l2.745-.11c3.412-.125,4.5-.086,5.243.173a3.222,3.222,0,0,1,.49.18c.337.208-1.051.431-3.553.565-7.416.392-15.243.588-23.1.749-5.835.11-11.7.188-17.549.271Z" transform="translate(-94.283 -392.784)" fill="#231f20"/>
          </g>
          <path id="Path_2495" data-name="Path 2495" d="M57.786,312.081v-5.333l-.031-1.961v-6.859c0-1.012-.024-2.031-.055-3.039a25.67,25.67,0,0,1,.047-3.882c.043-.392.157-.353.329,0a6.582,6.582,0,0,1,.29.7,4.184,4.184,0,0,1,.192,1.008c.157,2.639.149,5.275.075,7.941-.047,1.592.024,3.247.035,4.874l.024,5.373v3.306c0,1.671.02,3.349.063,5,.035,1.286.122,2.549.188,3.82l.043.835c.039,1.047-.078,1.384-.282,1.612a1.1,1.1,0,0,1-.133.153c-.075.051-.145-.031-.22-.22a3.31,3.31,0,0,1-.2-.867c-.224-2.275-.282-4.675-.337-7.082-.024-1.788-.047-3.588-.071-5.38Z" transform="translate(-53.217 -230.492)" fill="#231f20"/>
          <path id="Path_2497" data-name="Path 2497" d="M184.575,91.4c-.09.627-.694,1.294-1.361.741-.541-.447.1-1.608.741-1.569A.631.631,0,0,1,184.575,91.4Z" transform="translate(-121.367 -90.568)" fill="#231f20"/>
          <path id="Path_2498" data-name="Path 2498" d="M130.185,109.106c-.09.627-.694,1.294-1.361.741-.541-.447.1-1.608.737-1.569C130.079,108.294,130.24,108.69,130.185,109.106Z" transform="translate(-91.511 -101.332)" fill="#231f20" opacity="0.6"/>
          <path id="Path_2500" data-name="Path 2500" d="M209.737,104.808c-.055.392-.439.82-.859.471-.345-.282.059-1.02.467-1a.392.392,0,0,1,.392.529Z" transform="translate(-135.529 -98.901)" fill="#231f20" opacity="0.4"/>
          <path id="Path_2503" data-name="Path 2503" d="M107.284,101.179c-.055.392-.439.824-.863.471-.341-.282.063-1.016.471-1a.416.416,0,0,1,.392.529Z" transform="translate(-82.786 -96.696)" fill="#231f20" opacity="0.4"/>
          <path id="Path_2504" data-name="Path 2504" d="M164.671,396.419q-8.553.129-17.1.18l-6.235.067q-10.98.027-21.988-.071l-9.749-.09-3.114-.031-3.114-.067c-2.078-.039-4.157-.125-6.224-.271-1.29-.086-1.106-.267,0-.42a22.611,22.611,0,0,1,2.271-.192c.937-.031,2.039-.043,3.231-.024,8.451.2,16.906.263,25.439.345,5.1.043,10.412-.043,15.631-.1q8.6-.094,17.22-.231,5.294-.09,10.588-.2c5.345-.122,10.722-.255,16.027-.447,4.125-.157,8.165-.392,12.239-.616l2.678-.153c3.349-.192,4.42-.176,5.157.071a3.431,3.431,0,0,1,.486.169c.333.2-1.024.451-3.482.635-7.282.537-14.976.831-22.7,1.071-5.737.165-11.5.29-17.255.392Z" transform="translate(-76.678 -293.245)" fill="#231f20"/>
          <g id="Group_40295" data-name="Group 40295" transform="translate(3.922 61.421)" opacity="0.4">
            <path id="Path_2506" data-name="Path 2506" d="M56.35,314.378l.051-5.157v-1.878l.09-6.627v-2.937a23.529,23.529,0,0,1,.086-3.753c.051-.392.165-.337.329,0a6.448,6.448,0,0,1,.286.678,4.313,4.313,0,0,1,.18.973c.122,2.549.086,5.1,0,7.671-.063,1.541,0,3.137-.02,4.706l-.035,5.192v8.027c0,1.243.094,2.463.145,3.69l.035.812c.027,1.012-.09,1.333-.3,1.569a1.68,1.68,0,0,1-.137.145c-.075.051-.145-.027-.216-.212a2.886,2.886,0,0,1-.192-.839c-.2-2.2-.235-4.514-.259-6.843v-5.2Z" transform="translate(-56.35 -293.752)" fill="#231f20"/>
          </g>
          <g id="Group_40297" data-name="Group 40297" transform="translate(17.825 15.51)" opacity="0.4">
            <path id="Path_2508" data-name="Path 2508" d="M162.582,131.64l-17.69-.22-6.447-.043c-7.58-.094-15.161-.2-22.745-.243-3.361,0-6.745,0-10.078.024l-6.439.09c-2.145,0-4.29.039-6.431,0-1.337-.043-1.176-.2-.039-.443a35.558,35.558,0,0,1,5.678-.58c8.765-.157,17.518-.133,26.345.02,5.278.09,10.773.067,16.173.11l17.82.165,10.98.086c5.533.031,11.094.071,16.584.047,4.271-.024,8.459-.118,12.678-.208l2.773-.063c1.737-.031,2.882-.031,3.686,0a5.776,5.776,0,0,1,1.647.3,4.707,4.707,0,0,1,.494.184c.169.1-.1.2-.729.306a23.366,23.366,0,0,1-2.894.247c-7.545.29-15.51.349-23.5.329-5.937,0-11.9-.067-17.851-.11Z" transform="translate(-91.802 -130.117)" fill="#231f20"/>
          </g>
        </g>
      </g>
    </g>
    <g id="Group_40339" data-name="Group 40339" transform="translate(68.021 48.793)">
      <path id="Path_2562" data-name="Path 2562" d="M44.7,160.886v-1.028c8.021,0,12.954-5.248,17.305-9.879a43.007,43.007,0,0,1,4.921-4.738,11.6,11.6,0,0,1,2.583-1.533,7.28,7.28,0,0,1,2.83-.585,14.14,14.14,0,0,1,3.9.507,11.842,11.842,0,0,1,3.062,1.358,24.31,24.31,0,0,1,4.688,4.154,25.266,25.266,0,0,0,5.9,5.008,16.791,16.791,0,0,0,4.306,1.687,24.962,24.962,0,0,0,5.929.653,15.487,15.487,0,0,0,6.5-1.377,17.631,17.631,0,0,0,5.041-3.568c2.993-2.945,5.317-6.873,7.367-10.339A58.433,58.433,0,0,1,123.054,135a9.714,9.714,0,0,1,4.643-3.635l.3.984a8.775,8.775,0,0,0-4.133,3.287,57.757,57.757,0,0,0-3.934,6.094c-2.082,3.52-4.443,7.509-7.531,10.549a16.842,16.842,0,0,1-12.266,5.24,21.362,21.362,0,0,1-10.74-2.473,26.083,26.083,0,0,1-6.144-5.2,23.545,23.545,0,0,0-4.485-3.989,11.653,11.653,0,0,0-6.422-1.71c-3.446,0-6.291,3.027-9.585,6.532a46.308,46.308,0,0,1-7.477,6.841A18.345,18.345,0,0,1,44.7,160.886Z" transform="translate(-43.074 -123.926)" fill="#b1d5f8"/>
      <path id="Path_2563" data-name="Path 2563" d="M43.707,210.551a1.21,1.21,0,1,1-1.21-1.21A1.21,1.21,0,0,1,43.707,210.551Z" transform="translate(-40.871 -174.105)" fill="#fff"/>
      <path id="Path_2563_-_Outline" data-name="Path 2563 - Outline" d="M42.012,211.79a1.724,1.724,0,1,1,1.724-1.724A1.726,1.726,0,0,1,42.012,211.79Zm0-2.42a.7.7,0,1,0,.7.7A.7.7,0,0,0,42.012,209.369Z" transform="translate(-40.385 -173.619)" fill="#1b1b1b"/>
      <path id="Path_2564" data-name="Path 2564" d="M121.67,163.347a1.21,1.21,0,1,1-1.21-1.21A1.21,1.21,0,0,1,121.67,163.347Z" transform="translate(-91.194 -143.636)" fill="#fff"/>
      <path id="Path_2564_-_Outline" data-name="Path 2564 - Outline" d="M119.974,161.137h0a1.724,1.724,0,1,1-1.725,1.724,1.713,1.713,0,0,1,1.725-1.724Zm0,2.42a.7.7,0,1,0,0-1.392h0a.7.7,0,1,0,0,1.392Z" transform="translate(-90.708 -143.15)" fill="#1b1b1b"/>
      <circle id="Ellipse_69" data-name="Ellipse 69" cx="1.21" cy="1.21" r="1.21" transform="translate(55.847 31.869)" fill="#fff"/>
      <path id="Ellipse_69_-_Outline" data-name="Ellipse 69 - Outline" d="M.725-1A1.725,1.725,0,1,1-1,.725,1.727,1.727,0,0,1,.725-1Zm0,2.421a.7.7,0,1,0-.7-.7A.7.7,0,0,0,.725,1.421Z" transform="translate(56.332 32.355)" fill="#1b1b1b"/>
      <circle id="Ellipse_70" data-name="Ellipse 70" cx="1.21" cy="1.21" r="1.21" transform="translate(83.562 6.721)" fill="#fff"/>
      <path id="Ellipse_70_-_Outline" data-name="Ellipse 70 - Outline" d="M.724-1A1.724,1.724,0,1,1-1,.724,1.726,1.726,0,0,1,.724-1Zm0,2.42a.7.7,0,1,0-.7-.7A.7.7,0,0,0,.724,1.42Z" transform="translate(84.048 7.207)" fill="#1b1b1b"/>
    </g>
    <g id="Group_40338" data-name="Group 40338" transform="translate(-4111.637 -812.136) rotate(-4)">
      <path id="Path_2515" data-name="Path 2515" d="M93.763,83.714a.7.7,0,0,0,.282.351,2.22,2.22,0,0,0,1.2.633c.282.07.845.211.915-.07.07-.211-.141-.562-.282-.773-.352-.633-1.056-1.476-1.83-1.406C93.481,82.519,93.481,83.152,93.763,83.714Z" transform="translate(4114.091 1105.44)" fill="#fff"/>
      <path id="Path_2516" data-name="Path 2516" d="M93.629,83.513a1.107,1.107,0,0,0-.07-.281v-.281c0-.141.07-.211.211-.281.07-.07.141,0,.211.07l.211.211c.141.141.493.351.774.633.07.07.141.141.141.211.07.07.07.141.141.211l.07.141s.07.141.07.07H94.9a3.029,3.029,0,0,1-.845-.141,2.68,2.68,0,0,1-.422-.351c.07-.141,0-.211,0-.211a.543.543,0,0,0,.07.211,1.621,1.621,0,0,0,.352.492,2.205,2.205,0,0,0,.774.562c.07.07.141.07.282.07s.141.07.352.07A.684.684,0,0,0,96.3,84.5v-.281a.422.422,0,0,0-.07-.281c0-.141-.07-.141-.07-.211l-.07-.211c-.07-.07-.07-.211-.141-.281s-.07-.211-.141-.281a2.349,2.349,0,0,0-1.267-1.195,1.364,1.364,0,0,0-.915,0,.835.835,0,0,0-.563.7,1.369,1.369,0,0,0,.07.562c.07.141.07.211.141.281A1.569,1.569,0,0,1,93.629,83.513Z" transform="translate(4114.225 1105.64)" fill="#1b1b1b"/>
      <path id="Path_2517" data-name="Path 2517" d="M86.956,67.614c-.282-1.687,1.056-2.882,2.887-2.671a6.352,6.352,0,0,1,4.506,3.725c.634,1.757-.352,3.3-2.042,3.3a3.339,3.339,0,0,0-1.2.07c-.774.211-.915,1.195-.563,2.109a9.987,9.987,0,0,0,1.76,2.6" transform="translate(4115.829 1110.012)" fill="#fff"/>
      <path id="Path_2518" data-name="Path 2518" d="M92.3,76.781l-.141-.141c-.07-.141-.211-.281-.352-.492s-.282-.492-.493-.773c-.141-.351-.352-.7-.493-1.054a1.771,1.771,0,0,1-.07-1.195.5.5,0,0,1,.282-.351c.07-.07.211-.07.493-.07a5.25,5.25,0,0,0,1.056,0,3.47,3.47,0,0,0,1.2-.422,2.78,2.78,0,0,0,1.267-2.249,2.727,2.727,0,0,0-.141-1.054,3.529,3.529,0,0,0-.352-.914,7.033,7.033,0,0,0-1.408-1.757,6.78,6.78,0,0,0-1.76-1.125,4.042,4.042,0,0,0-1.76-.422,2.808,2.808,0,0,0-1.549.351,1.918,1.918,0,0,0-.915.914,1.7,1.7,0,0,0-.282.914V67.5c0,.141,0,.211.07.211V67.5a1.744,1.744,0,0,1,.07-.562,2.7,2.7,0,0,1,.352-.843,1.887,1.887,0,0,1,.915-.7,3.117,3.117,0,0,1,1.408-.141,4.6,4.6,0,0,1,1.549.562,6.413,6.413,0,0,1,2.535,2.741,1.354,1.354,0,0,1,.211.7,1.2,1.2,0,0,1,0,.7,1.964,1.964,0,0,1-.774,1.265,1.191,1.191,0,0,1-.7.211c-.211.07-.493,0-.845.07a2.107,2.107,0,0,0-1.2.351,1.445,1.445,0,0,0-.563,1.054,2.522,2.522,0,0,0,.422,1.687A6.114,6.114,0,0,0,91.8,76.289Z" transform="translate(4115.84 1110.053)" fill="#1b1b1b"/>
      <path id="Path_2521" data-name="Path 2521" d="M72.25,61.833c-.211,0-.634,1.968-.493,5.623a35.982,35.982,0,0,0,4.506,14.9,27.079,27.079,0,0,0,3.027,4.358,21.167,21.167,0,0,0,4.365,3.865,11.839,11.839,0,0,0,6.125,2.109,10.054,10.054,0,0,0,6.759-2.109,14.363,14.363,0,0,0,4.365-5.833,24.98,24.98,0,0,0,1.831-7.169,34.251,34.251,0,0,0-.07-7.591,43.022,43.022,0,0,0-1.761-7.661,38.888,38.888,0,0,0-2.6-5.764,37.264,37.264,0,0,0-3.661-5.272A19.947,19.947,0,0,0,88.3,46.3a13.918,13.918,0,0,0-7.885-1.265,15,15,0,0,0-6.97,3.093A17.282,17.282,0,0,0,68.87,53.68a20.1,20.1,0,0,0-2.112,6.4,30.812,30.812,0,0,0-.282,6.185,48.247,48.247,0,0,0,.774,5.693c.211.914.422,1.757.634,2.6.282.843.493,1.687.774,2.46a27.363,27.363,0,0,0,4.435,7.8,24.175,24.175,0,0,0,5,4.569c3.1,2.038,5.21,2.389,5.21,2.179.07-.211-1.76-.914-4.506-3.093a25.7,25.7,0,0,1-4.365-4.639,26.921,26.921,0,0,1-3.872-7.521c-.282-.7-.422-1.546-.7-2.32-.211-.843-.352-1.617-.493-2.53a42.66,42.66,0,0,1-.634-5.342A21.6,21.6,0,0,1,71.053,54.8a15.914,15.914,0,0,1,4.013-4.709,12.256,12.256,0,0,1,5.773-2.53,11.058,11.058,0,0,1,6.336,1.054,16.916,16.916,0,0,1,5.491,4.358,27.554,27.554,0,0,1,3.309,4.78A36.65,36.65,0,0,1,98.44,63.1a35.89,35.89,0,0,1,1.69,7.1,33.611,33.611,0,0,1,.141,7.029,21.3,21.3,0,0,1-1.549,6.4,12.036,12.036,0,0,1-3.52,4.849,7.679,7.679,0,0,1-5.139,1.687,10.859,10.859,0,0,1-5.069-1.687A18.566,18.566,0,0,1,80.98,85.1a30.263,30.263,0,0,1-2.957-3.936A33.606,33.606,0,0,1,74.5,73.43a40.978,40.978,0,0,1-1.478-6.255C72.39,63.8,72.461,61.833,72.25,61.833Z" transform="translate(4121.172 1115.231)" fill="#1b1b1b"/>
      <path id="Path_2524" data-name="Path 2524" d="M112.488,172.139c-.211-.07-.352-.282-.282-.422.282-.773,1.548-2.812,6.97-4.287,6.829-1.9,9.928-1.757,10.983-.633C131.145,167.852,122.556,175.3,112.488,172.139Z" transform="translate(4109.236 1083.647)" fill="#1b1b1b"/>
      <path id="Path_2525" data-name="Path 2525" d="M118.939,170.738s1.408.984,4.154-.14a7.251,7.251,0,0,0,3.591-2.882l-3.52-4.147-4.787,1.687-.353.913Z" transform="translate(4107.713 1084.274)" fill="#fff"/>
      <path id="Path_2526" data-name="Path 2526" d="M111.052,134.295c.211-.281-.846-1.336-2.817-3.092A25.867,25.867,0,0,1,105,128.11,11.337,11.337,0,0,1,103.518,126a4.135,4.135,0,0,0-.282-.562v-.14c0-.07,0-.14.07-.14s.071,0,.141.07l.14.07.211.14c.141.07.352.211.493.281.7.422,1.478.914,2.253,1.476,1.549,1.055,3.309,2.038,5.069,3.023.282.14.563.351.845.492l.774.562.634.633a4.938,4.938,0,0,1,.563.7,7.776,7.776,0,0,1,.985,2.038c.211.773.353,1.546.493,2.319a36.7,36.7,0,0,1,.211,4.78v2.249a6.06,6.06,0,0,0,.07,1.125,6.156,6.156,0,0,0,.141,1.124,20.157,20.157,0,0,0,.985,3.936,17.613,17.613,0,0,0,2.676,4.99c.775,1.054,1.408,1.476,1.619,1.335.141-.14-.14-.773-.633-1.967a35.157,35.157,0,0,1-1.761-4.99,17.441,17.441,0,0,1-.563-3.585c0-.352-.07-.633-.07-.984v-1.054c0-.7.07-1.476.07-2.249a40.977,40.977,0,0,0-.07-5.061,21.389,21.389,0,0,0-.493-2.812,9.325,9.325,0,0,0-1.338-2.812,12.043,12.043,0,0,0-.774-.984,10.989,10.989,0,0,1-.916-.914c-.352-.281-.633-.492-.985-.773l-1.056-.633c-1.831-.984-3.45-1.9-5-2.882a26.636,26.636,0,0,0-2.393-1.406c-.211-.14-.423-.211-.634-.351l-.352-.141-.493-.211c-.211-.07-.422-.07-.563-.14l-.282-.07h-.282a5.458,5.458,0,0,0-1.056.14,1.788,1.788,0,0,0-.985.914,2.026,2.026,0,0,0-.211,1.265,4.884,4.884,0,0,0,.423,1.336,3.814,3.814,0,0,0,.422.773,11.54,11.54,0,0,0,1.971,2.389,16.647,16.647,0,0,0,3.872,2.952C109.573,133.8,110.841,134.506,111.052,134.295Z" transform="translate(4112.221 1094.992)" fill="#1b1b1b"/>
      <path id="Path_2527" data-name="Path 2527" d="M109,155.177c-.774.562.916,3.374,3.38,6.817a22943.433,22943.433,0,0,0,.7.984c.353.421.634.843.916,1.194a3.5,3.5,0,0,0,.492.562s.071,0,.071.211c.14.282.211.633.352.984.07.351.211.7.282.984.352,1.265.633,2.038,1.126,2.038.423,0,.775-.843.845-2.249a6.741,6.741,0,0,0,0-1.2,6.172,6.172,0,0,0-.211-1.476,3.373,3.373,0,0,0-.492-1.054,3.864,3.864,0,0,0-.423-.562l-.845-1.265a2.1,2.1,0,0,1-.352-.492c-.141-.14-.211-.351-.353-.491C111.959,156.934,109.706,154.685,109,155.177Z" transform="translate(4110.116 1086.481)" fill="#1b1b1b"/>
      <path id="Path_2528" data-name="Path 2528" d="M99.738,145.1c-.211-.14-.422-.07-.774.282a2.581,2.581,0,0,0-.563,1.757,4.087,4.087,0,0,0,.915,2.46,11.174,11.174,0,0,0,2.041,2.038l.634.422.211.07.282.07c.141.07.353.14.493.211a3.891,3.891,0,0,0,1.268.141,2.36,2.36,0,0,0,1.056-.352,1.974,1.974,0,0,0,.985-1.687,6.246,6.246,0,0,0-.211-.984c-.141-.351-.282-.633-.423-.913a1.944,1.944,0,0,0-.422-.562c-.141-.14-.211-.281-.353-.421-.985-.984-1.9-1.125-2.112-.773s.14.984.563,1.9c.07.14.07.211.14.352s.141.281.07.351c0,.14,0,.14-.07.14-.07.071-.211,0-.14-.07h-.071a2.863,2.863,0,0,1-.282-.211,9.7,9.7,0,0,1-1.76-1.476,4.142,4.142,0,0,1-.915-1.2,5.863,5.863,0,0,1-.282-1.054C100.02,145.448,99.949,145.166,99.738,145.1Z" transform="translate(4112.833 1089.111)" fill="#1b1b1b"/>
      <path id="Path_2529" data-name="Path 2529" d="M103.776,140.151c.352-.282-.211-1.476-1.548-3.3-.353-.422-.7-.914-1.2-1.406a8.05,8.05,0,0,0-.775-.773,3.064,3.064,0,0,0-.492-.422c-.211-.211-.564-.281-.846-.491a2.175,2.175,0,0,0-1.971.211,2.7,2.7,0,0,0-.774.773,3.035,3.035,0,0,0-.282.492c-.07.211-.141.281-.141.421a10.285,10.285,0,0,0-.352,1.406c0,.211-.07.422-.07.7,0,.211-.07.492-.07.7a3.414,3.414,0,0,0,.07.843c.07.141.07.282.141.422l.141.351a5.18,5.18,0,0,0,.845,1.125l.845.843c.634.562,1.267,1.055,1.83,1.546.141.141.282.211.423.352l.211.211c.07.07.211.14.282.211a3.554,3.554,0,0,0,1.126.633,6.383,6.383,0,0,0,2.323.7,1.919,1.919,0,0,0,.633,0c.211,0,.423-.07.7-.07a3.184,3.184,0,0,0,1.338-.773,4.2,4.2,0,0,0,.422-.773.884.884,0,0,0,.071-.422v-.421a1.418,1.418,0,0,0-.211-.773,1.136,1.136,0,0,0-.282-.492,5.018,5.018,0,0,0-1.056-1.265c-.633-.562-1.126-.773-1.338-.562-.14.14,0,.632.282,1.335.141.352.352.774.493,1.2,0,.14.07.211.07.352v.14c0,.07-.07.211-.14.211s-.141.07-.211,0h-.211a.424.424,0,0,1-.282-.07,8.452,8.452,0,0,1-1.478-.633,6.019,6.019,0,0,1-.7-.492c-.07-.07-.14-.07-.14-.14l-.211-.14-.423-.422c-.563-.492-1.2-.984-1.69-1.476a6.565,6.565,0,0,1-.7-.7,3.834,3.834,0,0,1-.493-.633,9.4,9.4,0,0,1,.352-2.179.245.245,0,0,1,.07-.14v-.07a.069.069,0,0,1,.07-.07h.07c.141.07.211.14.352.211a4.99,4.99,0,0,1,.7.562c.493.352.915.773,1.338,1.125C102.438,139.589,103.494,140.362,103.776,140.151Z" transform="translate(4113.653 1092.089)" fill="#1b1b1b"/>
      <path id="Path_2530" data-name="Path 2530" d="M106.539,133.874c.352-.281-.211-1.476-1.549-3.3-.352-.421-.7-.914-1.2-1.406a8.135,8.135,0,0,0-.775-.773,3.069,3.069,0,0,0-.493-.421c-.211-.211-.563-.282-.845-.492a2.18,2.18,0,0,0-1.971.211,2.708,2.708,0,0,0-.775.773,3.093,3.093,0,0,0-.282.492c-.07.211-.141.281-.141.422a10.24,10.24,0,0,0-.352,1.406c0,.211-.07.421-.07.7,0,.211-.07.492-.07.7a3.417,3.417,0,0,0,.07.843c.07.14.07.281.141.421l.141.352a5.172,5.172,0,0,0,.845,1.124l.845.844c.7.632,1.478,1.194,2.112,1.757a3.026,3.026,0,0,1,.492.422l.634.421a10.541,10.541,0,0,0,1.267.633,5.16,5.16,0,0,0,2.746.422,2.264,2.264,0,0,0,2.112-2.179,2.5,2.5,0,0,0-.14-.7,4.928,4.928,0,0,0-.211-.562,1.8,1.8,0,0,0-.493-.7,5.517,5.517,0,0,0-.915-.914c-.563-.562-.986-.7-1.126-.492-.141.14-.071.492.211,1.125.141.281.282.632.423.984s.282.843.211.914a.482.482,0,0,1-.353.211,3.471,3.471,0,0,1-1.548-.491c-.282-.14-.563-.352-.845-.492-.141-.07-.282-.211-.423-.281l-.422-.422c-.634-.562-1.338-1.124-1.972-1.687a6.717,6.717,0,0,1-.7-.7,3.908,3.908,0,0,1-.493-.633,9.425,9.425,0,0,1,.352-2.179.244.244,0,0,1,.071-.14v-.07a.069.069,0,0,1,.07-.071h.07c.141.071.211.141.352.211a4.888,4.888,0,0,1,.7.562c.493.351.915.773,1.338,1.124C105.2,133.242,106.257,134.085,106.539,133.874Z" transform="translate(4112.933 1093.726)" fill="#1b1b1b"/>
      <path id="Path_2531" data-name="Path 2531" d="M97.543,106.3l5.281,13.425L107.4,121.9l-3.872-17.291S101.838,106.436,97.543,106.3Z" transform="translate(4113.056 1099.657)" fill="#1b1b1b"/>
      <path id="Path_2532" data-name="Path 2532" d="M108.022,133.423l5.984,15.534.634.281-2.324-12.581Z" transform="translate(4110.323 1092.139)" fill="#1b1b1b"/>
      <path id="Path_2546" data-name="Path 2546" d="M67.351,137.653c.915,0,1.267-.7,1.338-1.546v-.282c-.07-.843-.422-1.546-1.338-1.546-.845,0-1.267.7-1.338,1.546v.282C66.084,136.95,66.506,137.653,67.351,137.653Z" transform="translate(4121.283 1091.916)" fill="#1b1b1b"/>
    </g>
    <g id="Group_40340" data-name="Group 40340" transform="translate(6.077 11.295)">
      <path id="Path_197" data-name="Path 197" d="M255.866,164.092l-.091-5.541c0-.674-.055-1.348-.063-2.021q-.024-3.565,0-7.126v-3.162a15.987,15.987,0,0,1,.323-4.048c.154-.439.241-.336.323.017.055.182.114.431.2.735l.114.492.051.28.02.28.063,1.023.039.512v.512q0,1.026.032,2.055c.02,1.37.028,2.745-.02,4.129-.047,1.652.071,3.372.114,5.063q.059,2.8.126,5.592l.083,3.433c.051,1.733.087,3.475.174,5.195.067,1.339.2,2.648.3,3.97.02.28.051.576.063.869.043,1.093-.028,1.445-.394,1.677a2.009,2.009,0,0,1-.217.151c-.225.1-.469-.338-.548-1.132-.272-2.351-.418-4.842-.525-7.345-.063-1.856-.13-3.724-.193-5.592Z" transform="translate(-205.771 -96.161)" fill="#231f20"/>
      <path id="Path_199" data-name="Path 199" d="M321.718,275.287l-13.667-.067h-4.983l-17.575-.114c-2.6,0-5.2,0-7.787.024-3.318.02-6.631.1-9.973-.055-1.052-.051-.873-.284,0-.5a20.849,20.849,0,0,1,4.382-.454c6.753-.051,13.517-.091,20.333,0,4.082.055,8.325-.039,12.493-.059l13.765-.039h8.475c4.272-.02,8.568,0,12.811-.075,3.3-.043,6.533-.17,9.793-.256.717,0,1.422-.055,2.145-.067,2.682-.047,3.55.047,4.122.418a1.983,1.983,0,0,1,.382.256c.26.288-.832.528-2.792.623-5.822.276-11.973.343-18.142.394l-13.788.028Z" transform="translate(-212.624 -189.75)" fill="#231f20"/>
    </g>
    <path id="Path_2610" data-name="Path 2610" d="M290.709,277.485l-3.283.043-1.2.043-4.222.024c-.624,0-1.251.032-1.871.059a18.633,18.633,0,0,1-2.393.024c-.495-.043.134-.694,1.049-.737,1.624-.071,3.248-.134,4.887-.114.98,0,2-.083,3-.122l3.307-.122,2.035-.071c1.027-.043,2.059-.075,3.079-.146.793-.055,1.569-.166,2.353-.252l.514-.059c.645-.051.852,0,.992.284a1.186,1.186,0,0,1,.091.189c.061.213-.2.394-.671.465a35.385,35.385,0,0,1-4.358.394l-3.314.118Z" transform="translate(-223.646 -176.672)" fill="#231f20"/>
  </g>
</svg>
