<svg xmlns="http://www.w3.org/2000/svg" width="104.741" height="73.226" viewBox="0 0 104.741 73.226">
  <path id="Virtual_Demo" data-name="Virtual Demo" d="M12.05,0H92.382a12.335,12.335,0,0,1,12.359,12.05V60.867A12.4,12.4,0,0,1,92.382,73.226H12.05A12.335,12.335,0,0,1,0,60.867V12.05A12.27,12.27,0,0,1,12.05,0ZM66.429,34.3,44.8,21.937A2.518,2.518,0,0,0,40.784,24.1V49.126A2.706,2.706,0,0,0,44.8,51.289L66.429,38.93C68.282,37.694,68.282,35.223,66.429,34.3Z" fill="#026dd5" fill-rule="evenodd"/>
</svg>
