<svg xmlns="http://www.w3.org/2000/svg" width="63.005" height="92.836" viewBox="0 0 63.005 92.836">
  <g id="Digital" transform="translate(-1444 -479)">
    <g id="Group_41485" data-name="Group 41485" transform="translate(1444 479)">
      <path id="Path_101321" data-name="Path 101321" d="M75.7,6.25H26.017a6.666,6.666,0,0,0-6.666,6.662V71.375a6.66,6.66,0,0,0,6.662,6.662H75.7a6.663,6.663,0,0,0,6.662-6.662V12.912A6.66,6.66,0,0,0,75.7,6.25ZM65,53.929l-3.493,4.16.377,5.421a4.371,4.371,0,0,1-6,4.357L50.856,65.83l-5.035,2.036a4.369,4.369,0,0,1-1.646.321,4.379,4.379,0,0,1-4.353-4.682l.377-5.421-3.493-4.16A4.369,4.369,0,0,1,39,46.874l5.272-1.313,2.879-4.606a4.527,4.527,0,0,1,7.416,0l2.879,4.606,5.272,1.313A4.372,4.372,0,0,1,65,53.929ZM38.738,30.394A2.889,2.889,0,0,1,41.629,27.5H60.092a2.891,2.891,0,0,1,0,5.782H41.629A2.889,2.889,0,0,1,38.738,30.394Zm27.348-8.509H35.629a2.891,2.891,0,1,1,0-5.782H66.086a2.891,2.891,0,1,1,0,5.782Z" transform="translate(-19.352 -6.25)" fill="#016dd5"/>
      <path id="Path_101322" data-name="Path 101322" d="M66.477,91.2H59.868V81.711H41.161l0,9.484H34.547a2.891,2.891,0,1,0,0,5.782h31.93a2.891,2.891,0,1,0,0-5.782Z" transform="translate(-18.795 -4.142)" fill="#016dd5"/>
    </g>
    <rect id="Rectangle_10629" data-name="Rectangle 10629" width="54.165" height="63.034" rx="4" transform="translate(1448.628 483.644)" fill="#026dd5"/>
    <path id="Path_101329" data-name="Path 101329" d="M51.5,24.93A14.459,14.459,0,1,0,66.1,39.389,14.537,14.537,0,0,0,51.5,24.93Zm5.7,16.5-6.688,4.229a2.439,2.439,0,0,1-3.753-2.043v-8.44a2.439,2.439,0,0,1,3.753-2.043L57.2,37.357a2.4,2.4,0,0,1,0,4.069Z" transform="translate(1423.969 470.759)" fill="#fff"/>
    <line id="Line_799" data-name="Line 799" x2="35.831" transform="translate(1457.993 537.226)" fill="none" stroke="#fff" stroke-linecap="round" stroke-width="5"/>
  </g>
</svg>
