<svg xmlns="http://www.w3.org/2000/svg" width="30" height="30" viewBox="0 0 30 30">
  <g id="Fashion_Hub" data-name="Fashion Hub" transform="translate(-1988.363 -269)">
    <rect id="Rectangle_7018" data-name="Rectangle 7018" width="30" height="30" rx="2" transform="translate(1988.363 269)" fill="#fff1d6"/>
    <g id="ClothingStore" transform="translate(1995.62 276.257)">
      <path id="Path_28303" data-name="Path 28303" d="M27.034,18v.645a1.291,1.291,0,1,1-2.581,0V18H20.581L18,18.787v5.136l3.394-.561A9.172,9.172,0,0,0,22.407,25.1h6.678a8.979,8.979,0,0,0,1.045-1.82l3.355.671V18.787L30.905,18Z" transform="translate(-18 -18)" fill="#c78b1d"/>
      <path id="Path_28304" data-name="Path 28304" d="M23.82,31A9.3,9.3,0,0,0,22,36.549V38.1H32.324V36.549A9.3,9.3,0,0,0,30.5,31Z" transform="translate(-19.419 -22.612)" fill="#c78b1d"/>
    </g>
  </g>
</svg>
