<svg xmlns="http://www.w3.org/2000/svg" width="35" height="35" viewBox="0 0 35 35">
  <g id="Frequency" transform="translate(-1198 -1202)">
    <rect id="Rectangle_10262" data-name="Rectangle 10262" width="35" height="35" rx="3" transform="translate(1198 1202)" fill="#e2edf8"/>
    <g id="noun-frequency-6825672" transform="translate(1190.865 1190.978)">
      <path id="Path_102744" data-name="Path 102744" d="M36.462,28.5a.994.994,0,0,1-.974,1.014l-2.864.057-1.956,8.2a.992.992,0,0,1-.966.763h-.009a.993.993,0,0,1-.961-.78L25.745,24.208l-2.028,9.563a.994.994,0,0,1-.932.786,1.021,1.021,0,0,1-.992-.708l-2.334-7.782-1.823,3.04a.994.994,0,0,1-.852.482H13.8a.994.994,0,1,1,0-1.987h2.418l2.692-4.486a.994.994,0,0,1,1.8.226l1.863,6.213L24.754,19.3a.993.993,0,0,1,1.941-.007L29.739,33.1l1.129-4.731a.993.993,0,0,1,.947-.763l3.633-.073a1,1,0,0,1,1.014.974Z" fill="#016dd5" stroke="#016dd5" stroke-width="0.5"/>
    </g>
  </g>
</svg>
