<svg xmlns="http://www.w3.org/2000/svg" width="260.489" height="180" viewBox="0 0 260.489 180">
  <g id="Group_1109" data-name="Group 1109" transform="translate(-1697.254 -2272.185)">
    <g id="Group_1107" data-name="Group 1107" transform="translate(1722.244 2272.185)">
      <path id="path964" d="M20.255-373.352v77.161h5.553V-450.513H20.255v77.161" transform="translate(64.303 463.353)" fill="#bfddfa"/>
      <path id="path968" d="M32.883-376.432v72.2h5.553v-144.4H32.883v72.2" transform="translate(84.995 466.434)" fill="#bfddfa"/>
      <path id="path969" d="M36.04-365.378v90h5.553v-180H36.04v90" transform="translate(90.168 455.379)" fill="#bfddfa"/>
      <path id="path973" d="M48.668-403.521v28.58h5.553V-432.1H48.668v28.58" transform="translate(110.859 493.522)" fill="#bfddfa"/>
      <path id="path973-2" data-name="path973" d="M48.668-403.521v28.58h5.553V-432.1H48.668v28.58" transform="translate(-48.668 493.522)" fill="#bfddfa"/>
      <path id="path974" d="M51.825-391.987v47.149h5.552v-94.3H51.825v47.152" transform="translate(-43.494 481.989)" fill="#bfddfa"/>
      <path id="path975" d="M54.981-376.432v72.2h5.553v-144.4H54.981v72.2" transform="translate(121.205 466.434)" fill="#bfddfa"/>
      <path id="path975-2" data-name="path975" d="M54.981-376.432v72.2h5.553v-144.4H54.981v72.2" transform="translate(-38.322 466.434)" fill="#bfddfa"/>
    </g>
    <g id="Group_1108" data-name="Group 1108" transform="translate(1697.254 2321.572)">
      <path id="path959" d="M10.784-416.887v7.057h5.553v-14.114H10.784v7.057" transform="translate(73.773 465.872)" fill="#016dd5"/>
      <path id="path959-2" data-name="path959" d="M10.784-416.887v7.057h5.553v-14.114H10.784v7.057" transform="translate(-2.455 465.872)" fill="#016dd5"/>
      <path id="path960" d="M13.941-410.51v17.326h5.553v-34.653H13.941v17.326" transform="translate(78.946 459.495)" fill="#016dd5"/>
      <path id="path960-2" data-name="path960" d="M13.941-410.51v17.326h5.553v-34.653H13.941v17.326" transform="translate(2.719 459.495)" fill="#016dd5"/>
      <path id="path961" d="M17.1-390.849v48.989h5.553v-97.974H17.1v48.985" transform="translate(84.119 439.834)" fill="#016dd5"/>
      <path id="path963" d="M7.627-417.89v5.442h5.553v-10.885H7.627v5.442" transform="translate(68.6 466.875)" fill="#016dd5"/>
      <path id="path963-2" data-name="path963" d="M7.627-417.89v5.442h5.553v-10.885H7.627v5.442" transform="translate(-7.627 466.875)" fill="#016dd5"/>
      <path id="path965" d="M23.412-397.309v38.582h5.553v-77.165H23.412v38.582" transform="translate(94.465 446.295)" fill="#016dd5"/>
      <path id="path966" d="M26.569-415.537v9.231h5.554v-18.463H26.569v9.231" transform="translate(99.638 464.522)" fill="#016dd5"/>
      <path id="path967" d="M29.726-393.121V-347.8h5.553v-90.653H29.726v45.326" transform="translate(104.811 442.106)" fill="#016dd5"/>
      <path id="path970" d="M39.2-403.521v28.58H44.75V-432.1H39.2v28.58" transform="translate(120.33 452.506)" fill="#016dd5"/>
      <path id="path971" d="M42.354-412.4v14.29h5.553v-28.58H42.354v14.29" transform="translate(125.502 461.38)" fill="#016dd5"/>
      <path id="path972" d="M45.511-419.008v3.641h5.552v-7.282H45.511v3.641" transform="translate(130.676 467.993)" fill="#016dd5"/>
      <path id="path974-2" data-name="path974" d="M51.825-391.987v47.149h5.552v-94.3H51.825v47.152" transform="translate(141.022 440.973)" fill="#016dd5"/>
      <path id="path976" d="M58.139-435.892v77.164h5.553v-77.164H58.139" transform="translate(151.368 446.295)" fill="#016dd5"/>
      <path id="path976-2" data-name="path976" d="M58.139-435.892v77.164h5.553v-77.164H58.139" transform="translate(-8.159 446.295)" fill="#016dd5"/>
      <path id="path977" d="M61.773-410.51v17.326h5.553v-34.653H61.773v17.326" transform="translate(157.323 459.495)" fill="#016dd5"/>
      <path id="path977-2" data-name="path977" d="M61.773-410.51v17.326h5.553v-34.653H61.773v17.326" transform="translate(-2.204 459.495)" fill="#016dd5"/>
      <path id="path978" d="M64.93-425.565v22.67h5.553v-22.67H64.93" transform="translate(162.496 463.215)" fill="#016dd5"/>
      <path id="path978-2" data-name="path978" d="M64.93-425.565v22.67h5.553v-22.67H64.93" transform="translate(2.969 463.215)" fill="#016dd5"/>
      <path id="path979" d="M68.564-416.845v7.124h5.553v-14.248H68.564v7.124" transform="translate(168.451 465.831)" fill="#016dd5"/>
      <path id="path980" d="M71.722-423.332v10.885h5.553v-10.885H71.722" transform="translate(173.624 466.875)" fill="#016dd5"/>
      <path id="path981" d="M75.356-419.808v2.354h5.553v-4.707H75.356v2.354" transform="translate(179.58 468.793)" fill="#016dd5"/>
    </g>
  </g>
</svg>
