<svg xmlns="http://www.w3.org/2000/svg" width="40" height="40" viewBox="0 0 40 40">
  <g id="Grocery_Gateway" data-name="Grocery Gateway" transform="translate(-381 -1286)">
    <rect id="Rectangle_7018" data-name="Rectangle 7018" width="40" height="40" rx="2" transform="translate(381 1286)" fill="#e2edf8"/>
    <g id="noun-cart-7952655" transform="translate(389.453 1294.026)">
      <path id="Path_101395" data-name="Path 101395" d="M5.064,3.956a.576.576,0,0,1,0-1.151H9.005a.576.576,0,0,1,.564.458l.583,2.172H27.006a.576.576,0,0,1,.576.576.561.561,0,0,1-.064.264l-3.029,7.074a3.458,3.458,0,0,1-3.218,2.126H12.487l-1.3,3.42h13.6a.576.576,0,0,1,0,1.151H10.347a.6.6,0,0,1-.205-.038.576.576,0,0,1-.333-.743l1.678-4.4L9.153,6.157l-.59-2.2h-3.5Zm17.2,18.025a2.385,2.385,0,1,1-1.687.7A2.382,2.382,0,0,1,22.259,21.981Zm-9.439,0a2.385,2.385,0,1,1-1.687.7A2.382,2.382,0,0,1,12.82,21.981Z" transform="translate(-4.488 -2.805)" fill="#016dd5" fill-rule="evenodd"/>
    </g>
  </g>
</svg>
