<svg xmlns="http://www.w3.org/2000/svg" width="56.301" height="141.463" viewBox="0 0 56.301 141.463">
  <g id="Health-Conscious_Helen" data-name="Health-Conscious Helen" transform="translate(-91.561 -139.336)">
    <path id="Path_102525" data-name="Path 102525" d="M119.885,231.781a94.583,94.583,0,0,1,9.556-16.351l-.986-1.13a82.41,82.41,0,0,0-10.645,17.572Z" transform="translate(-12.029 -37.133)"/>
    <path id="Path_102526" data-name="Path 102526" d="M176.091,201.432a2.416,2.416,0,0,1-1.148,2.076,2.809,2.809,0,0,1-2.493.25,3.443,3.443,0,0,1-1.408-.959c-1.241-1.378-2.324-7.681-2.92-11.834-.3-2.165-.482-3.75-.482-3.75l1.69-4.4C171.009,183.264,176.167,198.969,176.091,201.432Z" transform="translate(-34.866 -21.539)" fill="#407bff"/>
    <path id="Path_102527" data-name="Path 102527" d="M172.858,208.727a3.444,3.444,0,0,1-1.408-.959c-1.24-1.378-2.324-7.681-2.92-11.834a6.631,6.631,0,0,1,2.2-3.083S176.791,204.619,172.858,208.727Z" transform="translate(-35.274 -26.508)" opacity="0.2" style="mix-blend-mode: normal;isolation: isolate"/>
    <path id="Path_102528" data-name="Path 102528" d="M150.908,149.739s3.25,5.087,2.5,7.146a2.95,2.95,0,0,1-2.784,2.019,1.946,1.946,0,0,0,.542-2.377s-.092,2.054-4.009,3.316-10.655,1.464-11.5-1.554a1.961,1.961,0,0,0,.179,1.882s-3.012-.5-3.792-2.054c-1.127-2.337,1.484-7.656,1.484-7.656s-2.438-7.873,8.055-10.33c0,0,4.139,3.139,6.2,3.194S152.972,147.024,150.908,149.739Z" transform="translate(-18.427 -0.393)" fill="#263238"/>
    <path id="Path_102529" data-name="Path 102529" d="M148.682,180.162l-9.637-.782-3.375,18.753H156.4Z" transform="translate(-20.214 -19.835)" fill="#407bff"/>
    <path id="Path_102530" data-name="Path 102530" d="M148.682,180.162l-9.637-.782-3.375,18.753H156.4Z" transform="translate(-20.214 -19.835)" opacity="0.2" style="mix-blend-mode: normal;isolation: isolate"/>
    <path id="Path_102531" data-name="Path 102531" d="M129.417,280.94c-.715,1.761-1.371,3.533-1.966,5.3a129,129,0,0,0-4.55,19.414c-8.05,15.14-13.7,37.935-13.7,37.935l2.979.929,19.572-40.539,5.813-13.924Z" transform="translate(-8.084 -70.142)" fill="#eec1bb"/>
    <path id="Path_102532" data-name="Path 102532" d="M106.622,400.858c.179-.328,4.4,1.9,4.4,1.9s1.36,3.76,3.667,5.506.092,2.549-2.817,1.231l-7.21-3.26C102.581,405.3,104.731,404.244,106.622,400.858Z" transform="translate(-5.614 -129.526)" fill="#263238"/>
    <path id="Path_102533" data-name="Path 102533" d="M117.5,405.218v-.04h0a.117.117,0,0,1,0-.04h0a.1.1,0,0,1,0-.04h0l.032-.04a2.883,2.883,0,0,1,1.625-.777.769.769,0,0,1,.542.273.385.385,0,0,1,.108.469c-.125.207-.542.283-.991.3a2.019,2.019,0,0,1,.926.54.478.478,0,0,1,.092.383.453.453,0,0,1-.336.384.7.7,0,0,1-.433-.076A5.855,5.855,0,0,1,117.5,405.218Zm.433.111c.509.545,1.192,1.13,1.479,1.065,0,0,.1,0,.141-.2a.23.23,0,0,0-.049-.2,1.211,1.211,0,0,0-.466-.323A6.189,6.189,0,0,0,117.932,405.329Zm1.17-.812a2.191,2.191,0,0,0-1.2.535c.764.066,1.555.03,1.658-.146.033-.055-.038-.151-.081-.207a.536.536,0,0,0-.179-.136A.608.608,0,0,0,119.1,404.516Z" transform="translate(-11.886 -131.236)" fill="#407bff"/>
    <path id="Path_102534" data-name="Path 102534" d="M145.648,254.314a60.1,60.1,0,0,1-4.642,15.271c-2.427,5.254-5.108,9.119-7.042,13.121-3.445,7.065-12.356,23.825-12.356,23.825l-5.417-4.194s8.976-21.362,9.621-25.556c.417-2.715.818-17.315,1.051-27.252.125-5.425.2-9.467.2-9.467L144.1,227.39A60.937,60.937,0,0,1,145.648,254.314Z" transform="translate(-11.287 -43.617)" fill="#407bff"/>
    <path id="Path_102535" data-name="Path 102535" d="M141.006,281.631c-2.427,5.254-5.108,9.119-7.042,13.121-3.445,7.065-12.356,23.825-12.356,23.825l-5.417-4.194s8.976-21.362,9.621-25.556c.417-2.715.818-17.315,1.051-27.252l5.043-9.866,6.538,2.448-2.134,7.651Z" transform="translate(-11.287 -55.663)" opacity="0.2" style="mix-blend-mode: normal;isolation: isolate"/>
    <path id="Path_102536" data-name="Path 102536" d="M145.648,254.314a60.1,60.1,0,0,1-4.642,15.271c-2.427,5.254-5.108,9.119-7.042,13.121-3.445,7.065-12.356,23.825-12.356,23.825l-5.417-4.194s8.976-21.362,9.621-25.556c.417-2.715.818-17.315,1.051-27.252.125-5.425.2-9.467.2-9.467L144.1,227.39A60.937,60.937,0,0,1,145.648,254.314Z" transform="translate(-11.287 -43.617)" fill="#fff" opacity="0.4"/>
    <path id="Path_102537" data-name="Path 102537" d="M150.45,343c4.491,15.932,12.931,34.822,12.931,34.822l2.925-1.06L157.736,343Z" transform="translate(-26.988 -100.883)" fill="#eec1bb"/>
    <path id="Path_102538" data-name="Path 102538" d="M171.459,407.866c-.081-.358,4.7-1.156,4.7-1.156s3.619,2.084,6.593,2.064,1.82,1.9-1.327,2.624l-7.779,1.766C171.41,413.674,172.342,411.585,171.459,407.866Z" transform="translate(-36.616 -132.441)" fill="#263238"/>
    <path id="Path_102539" data-name="Path 102539" d="M181.312,405.821h-.043l-.033-.025h0a.071.071,0,0,1,0-.035h0a.081.081,0,0,1,0-.05,2.5,2.5,0,0,1,.7-1.554.814.814,0,0,1,.612-.121c.238.045.379.146.406.3.049.232-.228.54-.542.818a2.127,2.127,0,0,1,1.083-.131.539.539,0,0,1,.33.237.41.41,0,0,1,0,.5.669.669,0,0,1-.385.2A6.582,6.582,0,0,1,181.312,405.821Zm.412-.172c.769.116,1.7.161,1.869-.061,0,0,.065-.076-.027-.237a.28.28,0,0,0-.173-.126,1.324,1.324,0,0,0-.585.03A6.45,6.45,0,0,0,181.724,405.649Zm.347-1.322a1.893,1.893,0,0,0-.542,1.13c.628-.409,1.213-.9,1.176-1.1,0-.066-.135-.1-.206-.111a.582.582,0,0,0-.233,0A.7.7,0,0,0,182.071,404.327Z" transform="translate(-41.095 -131.108)" fill="#407bff"/>
    <path id="Path_102540" data-name="Path 102540" d="M130.333,224s-6.6,12.975-4.274,25.233,9.388,27.963,11.289,31.794,9,26.389,9,26.389l6.143-1.862S147,283.1,145.3,275.294c-.813-3.689-7.79-29.946-7.79-29.946s11.95-8.271,11.105-21.2Z" transform="translate(-15.582 -41.937)" fill="#407bff"/>
    <path id="Path_102541" data-name="Path 102541" d="M130.333,224s-6.6,12.975-4.274,25.233,9.388,27.963,11.289,31.794,9,26.389,9,26.389l6.143-1.862S147,283.1,145.3,275.294c-.813-3.689-7.79-29.946-7.79-29.946s11.95-8.271,11.105-21.2Z" transform="translate(-15.582 -41.937)" fill="#fff" opacity="0.4"/>
    <path id="Path_102542" data-name="Path 102542" d="M146.43,227.268l9.545.136.108-2.675-9.556.1Z" transform="translate(-25.146 -42.299)"/>
    <path id="Path_102543" data-name="Path 102543" d="M165.714,224.7l-.114,2.695.964.015.265-2.72Z" transform="translate(-33.931 -42.279)"/>
    <path id="Path_102544" data-name="Path 102544" d="M140.587,224.94l-5.065.045-.222,2.3,5.184.076Z" transform="translate(-20.045 -42.403)"/>
    <rect id="Rectangle_12036" data-name="Rectangle 12036" width="3.716" height="2.624" transform="translate(124.995 182.623)" fill="#fff"/>
    <path id="Path_102545" data-name="Path 102545" d="M129.3,182.542s12-2.463,21.912,1.13a79.821,79.821,0,0,1-1.463,19.732l-18.337.121s.991-4.648-3.082-13.626Z" transform="translate(-16.851 -20.994)" fill="#263238"/>
    <path id="Path_102546" data-name="Path 102546" d="M150.413,179.466c-4.215-.964-5.293-2.806-5.293-2.806,1.939-1.347,1.9-3.649,1.625-5.112a7.629,7.629,0,0,0-.368-1.358l5.043,1.443a13.161,13.161,0,0,0-.45,2.019,5.766,5.766,0,0,0-.038,1.514c.173,1.469,1.051,1.585,1.051,1.585C152.693,178.391,150.413,179.466,150.413,179.466Z" transform="translate(-24.545 -15.283)" fill="#eec1bb"/>
    <path id="Path_102547" data-name="Path 102547" d="M152.034,173.632a5.764,5.764,0,0,0-.038,1.514,7,7,0,0,1-4.187-3.588,7.628,7.628,0,0,0-.368-1.358l5.043,1.443A13.157,13.157,0,0,0,152.034,173.632Z" transform="translate(-25.609 -15.288)" opacity="0.2" style="mix-blend-mode: normal;isolation: isolate"/>
    <path id="Path_102548" data-name="Path 102548" d="M149.05,146.779c4.512.1,5.9,2.377,6.132,6.712.282,5.42-1.083,9.24-6.712,7.964C140.876,159.723,141.558,146.622,149.05,146.779Z" transform="translate(-23.616 -3.686)" fill="#eec1bb"/>
    <path id="Path_102549" data-name="Path 102549" d="M160,159.5a8.73,8.73,0,0,0,1.268,1.766,1.285,1.285,0,0,1-1.2.454Z" transform="translate(-31.365 -9.988)" fill="#d4827d"/>
    <path id="Path_102550" data-name="Path 102550" d="M154.244,158.086c0,.343-.2.626-.45.626s-.444-.283-.444-.626.195-.626.444-.626S154.244,157.732,154.244,158.086Z" transform="translate(-28.317 -8.978)" fill="#263238"/>
    <path id="Path_102551" data-name="Path 102551" d="M153.94,157.2l.807-.293S154.346,157.541,153.94,157.2Z" transform="translate(-28.587 -8.705)" fill="#263238"/>
    <path id="Path_102552" data-name="Path 102552" d="M162.7,157.936c0,.343-.2.626-.444.626s-.45-.278-.45-.626.2-.626.45-.626S162.7,157.593,162.7,157.936Z" transform="translate(-32.194 -8.903)" fill="#263238"/>
    <path id="Path_102553" data-name="Path 102553" d="M162.45,157.058l.8-.3S162.851,157.386,162.45,157.058Z" transform="translate(-32.487 -8.631)" fill="#263238"/>
    <path id="Path_102554" data-name="Path 102554" d="M151.217,153.52a.181.181,0,0,1-.125-.045.164.164,0,0,1,0-.247,2.614,2.614,0,0,1,2.167-.656.181.181,0,0,1,.16.2.191.191,0,0,1-.219.149,2.275,2.275,0,0,0-1.8.5A.177.177,0,0,1,151.217,153.52Z" transform="translate(-27.256 -6.541)" fill="#263238"/>
    <path id="Path_102555" data-name="Path 102555" d="M162.683,153.071a.2.2,0,0,1-.114-.035,2.013,2.013,0,0,0-1.625-.358.2.2,0,0,1-.244-.111.166.166,0,0,1,.008-.137.186.186,0,0,1,.111-.09,2.387,2.387,0,0,1,1.961.4.174.174,0,0,1,.049.252A.21.21,0,0,1,162.683,153.071Z" transform="translate(-31.681 -6.41)" fill="#263238"/>
    <path id="Path_102556" data-name="Path 102556" d="M156.315,166.308a9.993,9.993,0,0,0-.542,1.448.911.911,0,0,1-.287-.03c-1.311-.151-1.863-.626-2.08-1.105a1.42,1.42,0,0,1-.114-.742,1.572,1.572,0,0,1,.092-.419,6.566,6.566,0,0,0,2.508.792C156.141,166.293,156.315,166.308,156.315,166.308Z" transform="translate(-28.286 -12.94)" fill="#263238"/>
    <path id="Path_102557" data-name="Path 102557" d="M155.86,166.222l-.179.424a4.1,4.1,0,0,1-2.421-.8,1.571,1.571,0,0,1,.092-.419A6.565,6.565,0,0,0,155.86,166.222Z" transform="translate(-28.276 -12.925)" fill="#fff"/>
    <path id="Path_102558" data-name="Path 102558" d="M155.55,168.915c-1.311-.151-1.864-.626-2.08-1.105a4.487,4.487,0,0,1,1.414.439A1.563,1.563,0,0,1,155.55,168.915Z" transform="translate(-28.372 -14.104)" fill="#de5753"/>
    <path id="Path_102559" data-name="Path 102559" d="M142.935,152.112s2.194-3.406,1.939-6.081c0,0,9.02-3.21,9.258,5.248,0,0,1.056-7.484-6.7-7.817s-7.974,10.24-4.047,13.469C143.39,156.932,141.581,154.242,142.935,152.112Z" transform="translate(-22.604 -2.04)" fill="#263238"/>
    <path id="Path_102560" data-name="Path 102560" d="M143.248,160.7a1.792,1.792,0,0,0-.657-1.269,2.063,2.063,0,0,0-1.429-.462c-1.4.111-2.134,2.771,1.327,3.487C142.982,162.555,143.275,162.111,143.248,160.7Z" transform="translate(-22.196 -9.722)" fill="#eec1bb"/>
    <path id="Path_102561" data-name="Path 102561" d="M142.989,141.039s2.5-1.771,4.691-1.7a3.471,3.471,0,0,1,2.92,1.257,3.061,3.061,0,0,1,2.627-.318c1.582.5,3.581,2.957,3.841,6.4a3.844,3.844,0,0,1-2.709,4.2s1.457-5.889-3.754-7.1c0,0-1.939-.868-2.99.6s-.363,5.44-4.7,4.507S140.546,142.891,142.989,141.039Z" transform="translate(-22.36 0)" fill="#263238"/>
    <path id="Path_102562" data-name="Path 102562" d="M112.449,183.35c-3.288.954-5.347,15.009-6.381,17.764-.775,2.064-8.239,15.009-8.239,15.009S90.959,217.9,91.6,218.9a7.768,7.768,0,0,0,3.537,2.8c1.073.2,4.393-2.3,4.713-3a5.7,5.7,0,0,0,.325-1.913s7.969-11.2,8.965-13.555c.753-1.781,5.693-13.661,5.693-13.661a3.792,3.792,0,0,0,0-3.588A4.537,4.537,0,0,0,112.449,183.35Z" transform="translate(0 -21.802)" fill="#eec1bb"/>
    <path id="Path_102563" data-name="Path 102563" d="M155.141,160.67l-5.959,1.1s.639,2.745-.872,4.512a11.142,11.142,0,0,0,4.643,2.342s4.16,0,5.195-3.533a5.373,5.373,0,0,0-.46-3.321Z" transform="translate(-26.007 -10.568)" fill="#407bff"/>
    <path id="Path_102564" data-name="Path 102564" d="M148.26,166.252a11.1,11.1,0,0,0,4.642,2.342,5.037,5.037,0,0,0,.542-.04c1.159-.136,3.852-.752,4.653-3.533a4.929,4.929,0,0,0-.309-2.967,2.993,2.993,0,0,0-.152-.353l-2.519-1.08-5.959,1.1S149.744,164.481,148.26,166.252Z" transform="translate(-25.984 -10.543)" fill="#fff" opacity="0.7"/>
    <path id="Path_102565" data-name="Path 102565" d="M148.93,166.455a20.886,20.886,0,0,0,4.821,2.332c1.159-.136,3.852-.752,4.653-3.533a4.929,4.929,0,0,0-.309-2.967l-2.5-1.2-5.845,1.06A5.879,5.879,0,0,1,148.93,166.455Z" transform="translate(-26.291 -10.776)" fill="#fff"/>
    <path id="Path_102566" data-name="Path 102566" d="M156.83,168.594a5.037,5.037,0,0,0,.542-.04c1.159-.136,3.852-.752,4.653-3.533a4.929,4.929,0,0,0-.309-2.967,3,3,0,0,0-.152-.353l-2.519-1.08S162.507,166.267,156.83,168.594Z" transform="translate(-29.912 -10.543)" opacity="0.2" style="mix-blend-mode: normal;isolation: isolate"/>
    <path id="Path_102567" data-name="Path 102567" d="M148.173,161.728a.122.122,0,0,0,.065,0,.115.115,0,0,0,0-.177,9.016,9.016,0,0,0-3.624-2.13.139.139,0,0,0-.173.071.118.118,0,0,0,0,.1.132.132,0,0,0,.076.068,8.741,8.741,0,0,1,3.51,2.049A.131.131,0,0,0,148.173,161.728Z" transform="translate(-24.229 -9.945)" fill="#407bff"/>
    <path id="Path_102568" data-name="Path 102568" d="M146.664,169.1a.125.125,0,0,0,0-.247,5.651,5.651,0,0,1-3.386-3.195.141.141,0,0,0-.181-.063.124.124,0,0,0-.068.169A5.776,5.776,0,0,0,146.6,169.1Z" transform="translate(-23.582 -13.001)" fill="#407bff"/>
    <g id="Group_43316" data-name="Group 43316" transform="translate(120.201 149.468)" opacity="0.8">
      <path id="Path_102569" data-name="Path 102569" d="M148.173,161.728a.122.122,0,0,0,.065,0,.115.115,0,0,0,0-.177,9.016,9.016,0,0,0-3.624-2.13.139.139,0,0,0-.173.071.118.118,0,0,0,0,.1.132.132,0,0,0,.076.068,8.741,8.741,0,0,1,3.51,2.049A.131.131,0,0,0,148.173,161.728Z" transform="translate(-144.43 -159.414)" fill="#fff"/>
    </g>
    <g id="Group_43317" data-name="Group 43317" transform="translate(119.436 152.581)" opacity="0.8">
      <path id="Path_102570" data-name="Path 102570" d="M146.664,169.1a.125.125,0,0,0,0-.247,5.651,5.651,0,0,1-3.386-3.195.141.141,0,0,0-.181-.063.124.124,0,0,0-.068.169A5.776,5.776,0,0,0,146.6,169.1Z" transform="translate(-143.017 -165.582)" fill="#fff"/>
    </g>
    <g id="Group_43318" data-name="Group 43318" transform="translate(125 154.195)" opacity="0.2" style="mix-blend-mode: normal;isolation: isolate">
      <path id="Path_102571" data-name="Path 102571" d="M153.723,168.891l-.141.363.5.126-.032.086-.5-.126c-.049.131-.1.262-.157.394l-.1-.025c.119-.313.244-.621.368-.929l.666.161-.032.086A4.811,4.811,0,0,0,153.723,168.891Z" transform="translate(-153.29 -168.78)"/>
      <path id="Path_102572" data-name="Path 102572" d="M155.336,169.266l-.146.368c.168.03.341.066.515.091l-.033.086-.542-.091-.152.394h-.108c.125-.313.249-.621.368-.934.228.05.455.091.688.126l-.033.086C155.72,169.341,155.525,169.306,155.336,169.266Z" transform="translate(-154.014 -168.978)"/>
      <path id="Path_102573" data-name="Path 102573" d="M157.635,169.874a.489.489,0,0,1-.542.278l-.276-.035c-.038.1-.081.2-.119.293h-.108l.374-.929.379.05C157.6,169.546,157.711,169.677,157.635,169.874Zm-.114,0c.06-.146,0-.242-.222-.262l-.271-.035c-.06.156-.125.308-.184.464l.271.035a.357.357,0,0,0,.406-.212Z" transform="translate(-154.802 -169.127)"/>
      <path id="Path_102574" data-name="Path 102574" d="M159.079,170.546l-.038.086a4.443,4.443,0,0,1-.731-.04l.027-.066.585-.353c.157-.1.206-.156.233-.222s0-.177-.179-.187a.525.525,0,0,0-.325.086l-.054-.061a.662.662,0,0,1,.423-.111c.217,0,.309.111.249.267a.621.621,0,0,1-.287.283l-.482.293Z" transform="translate(-155.591 -169.224)"/>
    </g>
    <path id="Path_102575" data-name="Path 102575" d="M169.636,382.65l-7.676,2.614L163.136,387l6.5-2.17Z" transform="translate(-32.263 -120.523)" fill="#407bff"/>
    <path id="Path_102576" data-name="Path 102576" d="M169.636,382.65l-7.676,2.614L163.136,387l6.5-2.17Z" transform="translate(-32.263 -120.523)" fill="#fff" opacity="0.8"/>
    <path id="Path_102577" data-name="Path 102577" d="M121.9,379.079l-6.788-4.249-.807,1.9,5.7,3.629Z" transform="translate(-10.425 -116.65)" fill="#407bff"/>
    <path id="Path_102578" data-name="Path 102578" d="M121.9,379.079l-6.788-4.249-.807,1.9,5.7,3.629Z" transform="translate(-10.425 -116.65)" fill="#fff" opacity="0.8"/>
    <path id="Path_102579" data-name="Path 102579" d="M128.072,189.792c.482,4.794,1.365,9.018,1.365,9.018l1.381.389,3.678,1.009,4.691-17.406-3.759-3.462-.932.782c-6.609.5-6.668,2.145-6.668,2.205a47.648,47.648,0,0,0,.244,7.464Z" transform="translate(-16.598 -19.816)" fill="#407bff"/>
    <path id="Path_102580" data-name="Path 102580" d="M140.7,179.38l-1.419.823,1.75,4.3,3.429-1.665Z" transform="translate(-21.869 -19.835)" fill="#407bff"/>
    <path id="Path_102581" data-name="Path 102581" d="M140.7,179.38l-1.419.823,1.75,4.3,3.429-1.665Z" transform="translate(-21.869 -19.835)" fill="#fff" opacity="0.2"/>
    <path id="Path_102582" data-name="Path 102582" d="M128.32,198.232c.482,4.794,1.365,9.018,1.365,9.018l1.381.389c1.956-4.89-.6-11.259-.6-11.259Z" transform="translate(-16.846 -28.256)" opacity="0.2" style="mix-blend-mode: normal;isolation: isolate"/>
    <path id="Path_102583" data-name="Path 102583" d="M128.925,162.453a.194.194,0,0,1-.184-.126c-.693-2.215.8-3.906,2.113-5.4a15.437,15.437,0,0,0,1.083-1.282,15.849,15.849,0,0,0,1.9-4.673.177.177,0,0,1,.083-.113.2.2,0,0,1,.144-.024.19.19,0,0,1,.121.077.167.167,0,0,1,.025.135,15.259,15.259,0,0,1-1.956,4.794,16.351,16.351,0,0,1-1.083,1.312c-1.257,1.423-2.676,3.028-2.042,5.047a.166.166,0,0,1-.015.137.188.188,0,0,1-.115.085Z" transform="translate(-16.958 -5.694)" fill="#263238"/>
    <path id="Path_102584" data-name="Path 102584" d="M117.038,184.35s-2.633,2.054-5.417,15.246L103.69,214.62l3.857,1.448,9.155-13.974,2.026-6.561a34.79,34.79,0,0,0,0-7.318C118.262,185.213,117.038,184.35,117.038,184.35Z" transform="translate(-5.558 -22.297)" fill="#407bff"/>
    <path id="Path_102585" data-name="Path 102585" d="M160.113,181.72l-.423,1.665,6,17.406,1.809-.565a105.575,105.575,0,0,0-1.809-17.951Z" transform="translate(-31.223 -20.995)" fill="#407bff"/>
    <path id="Path_102586" data-name="Path 102586" d="M159.447,180.93l-.287,2.665,2.335,1.191.265-3.457Z" transform="translate(-30.98 -20.603)" fill="#407bff"/>
    <path id="Path_102587" data-name="Path 102587" d="M159.447,180.93l-.287,2.665,2.335,1.191.265-3.457Z" transform="translate(-30.98 -20.603)" fill="#fff" opacity="0.2"/>
    <path id="Path_102588" data-name="Path 102588" d="M107.8,244.314l-4.783-2.064-.856,1.534,4.5,1.842Z" transform="translate(-4.857 -50.977)" fill="#407bff"/>
    <path id="Path_102589" data-name="Path 102589" d="M107.8,244.314l-4.783-2.064-.856,1.534,4.5,1.842Z" transform="translate(-4.857 -50.977)" fill="#fff" opacity="0.2"/>
    <path id="Path_102590" data-name="Path 102590" d="M154.964,182.27S153.88,203.2,139.98,216.007l2.21,1.282a53.477,53.477,0,0,0,13.743-34.822Z" transform="translate(-22.19 -21.267)"/>
    <path id="Path_102591" data-name="Path 102591" d="M128.711,249.451s-.228,10.638-2.709,13-13.109,2.559-14.838-.535c-.823-1.479-.769-4.708,0-7.772.84-3.351,2.53-6.505,4.843-6.939,0,0,5.173,3.427,10.509.969h0a1.683,1.683,0,0,1,1.455.11A1.459,1.459,0,0,1,128.711,249.451Z" transform="translate(-8.71 -53.429)" fill="#263238"/>
    <path id="Path_102592" data-name="Path 102592" d="M127,248.194c-2.275.939-3.938,7.318-6.869,7.388s-8.494-1.393-8.494-1.393c.84-3.351,2.53-6.505,4.843-6.939C116.483,247.225,121.656,250.656,127,248.194Z" transform="translate(-9.202 -53.454)" fill="#fff" opacity="0.2"/>
    <path id="Path_102593" data-name="Path 102593" d="M115.969,260.1l1.213.177a17.394,17.394,0,0,1-1.213,3.694l-1.479-.5A8.363,8.363,0,0,0,115.969,260.1Z" transform="translate(-10.508 -59.819)"/>
    <path id="Path_102594" data-name="Path 102594" d="M116.515,264.2h-.065l-1.549-.5a.228.228,0,0,1-.125-.106.184.184,0,0,1,0-.151l.542-1.181a.21.21,0,0,1,.233-.111l1.544.353a.194.194,0,0,1,.13.091.175.175,0,0,1,0,.156l-.542,1.322A.208.208,0,0,1,116.515,264.2Zm-1.278-.8,1.159.368.374-.954-1.148-.257Z" transform="translate(-10.632 -60.83)" fill="#fff"/>
    <path id="Path_102595" data-name="Path 102595" d="M175.721,191.28c.753,1.035,5.515,10.689,1.918,12.511s-2.573-7.686-3.581-10.093S175.721,191.28,175.721,191.28Z" transform="translate(-37.703 -25.73)" fill="#eec1bb"/>
    <path id="Path_102596" data-name="Path 102596" d="M174.74,200.072l4.545-.792s2.421,11.814-2.123,12.617C173.673,212.492,174.74,200.072,174.74,200.072Z" transform="translate(-38.049 -29.693)" fill="#407bff"/>
    <path id="Path_102597" data-name="Path 102597" d="M174.021,199.368l-.011,1.029,5.823-.641-.07-1.267Z" transform="translate(-37.785 -29.301)" fill="#407bff"/>
    <path id="Path_102598" data-name="Path 102598" d="M174.021,199.368l-.011,1.029,5.823-.641-.07-1.267Z" transform="translate(-37.785 -29.301)" fill="#fff" opacity="0.2"/>
    <path id="Path_102599" data-name="Path 102599" d="M166.041,188.182c.228-.7,3.6.368,5.26.833s.888,2.13.888,2.13.423,1.958-1.571,1.61-4.133-.651-4.236-1.075A13.723,13.723,0,0,1,166.041,188.182Z" transform="translate(-34.112 -24.081)" fill="#eec1bb"/>
  </g>
</svg>
