<svg xmlns="http://www.w3.org/2000/svg" width="40" height="40" viewBox="0 0 40 40">
  <g id="Health_Finance_Corridor" data-name="Health &amp; Finance Corridor" transform="translate(-381 -1363)">
    <rect id="Rectangle_7018" data-name="Rectangle 7018" width="40" height="40" rx="2" transform="translate(381 1363)" fill="#e2edf8"/>
    <g id="noun-insurance-4952530" transform="translate(390.603 1370.845)">
      <path id="Path_101397" data-name="Path 101397" d="M24.148,6.725,14.707,2,5.265,6.725a1.732,1.732,0,0,0-.949,1.77l.98,7.8a10.414,10.414,0,0,0,4.975,7.641l3.54,2.127a1.739,1.739,0,0,0,1.785,0l3.54-2.127A10.422,10.422,0,0,0,24.11,16.3l.972-7.809a1.739,1.739,0,0,0-.934-1.762Zm-5.925,8.3H15.58v2.605H13.848V15.019h-2.6V13.28h2.59v-2.6H15.58v2.605h2.643Z" transform="translate(-4.302 -2)" fill="#016dd5" fill-rule="evenodd"/>
    </g>
  </g>
</svg>
