<svg xmlns="http://www.w3.org/2000/svg" width="30" height="30" viewBox="0 0 30 30">
  <g id="Health_Finance" data-name="Health/Finance" transform="translate(-1988 -519)">
    <rect id="Rectangle_7018" data-name="Rectangle 7018" width="30" height="30" rx="2" transform="translate(1988 519)" fill="#f2e0ff"/>
    <g id="noun-health-financing-2279970" transform="translate(1994.317 525.421)">
      <path id="Path_101392" data-name="Path 101392" d="M21.277,18.636h-1.3v1.8h-1.8v1.3h1.8v1.8h1.3v-1.8h1.8v-1.3h-1.8Zm-7.864-2.279v9.391h1.178V16.357ZM28.928,26.388H12.56a.219.219,0,0,0-.219.219v.933a.219.219,0,0,0,.219.219H28.928a.219.219,0,0,0,.219-.219v-.933a.219.219,0,0,0-.219-.219ZM15.265,16.357v9.391H25.986V16.357Zm8.486,6.052h-1.8v1.8H19.3v-1.8H17.5V19.759h1.8v-1.8h2.649v1.8h1.8Zm2.909-6.052v9.391h1.18V16.357ZM29.13,15l-8.2-4.318a.629.629,0,0,0-.612,0L12.121,15a.341.341,0,0,0,.167.641H28.965A.341.341,0,0,0,29.131,15Z" transform="translate(-11.944 -10.602)" fill="#6a0dad"/>
    </g>
  </g>
</svg>
