<svg xmlns="http://www.w3.org/2000/svg" width="30" height="30" viewBox="0 0 30 30">
  <g id="High_Footfall" data-name="High Footfall" transform="translate(-1988.175 -227)">
    <rect id="Rectangle_7018" data-name="Rectangle 7018" width="30" height="30" rx="2" transform="translate(1988.175 227)" fill="#dee2ff"/>
    <path id="footprint_24dp_E8EAED_FILL1_wght400_GRAD0_opsz24" d="M84.043-920a3.365,3.365,0,0,1,2.976,1.636,6.4,6.4,0,0,1,1.067,3.565,7.278,7.278,0,0,1-.191,1.69,10.7,10.7,0,0,1-.438,1.431l-6.4,1.235a10.89,10.89,0,0,1-.7-1.745A8.54,8.54,0,0,1,80-914.8a5.9,5.9,0,0,1,1.146-3.717A3.515,3.515,0,0,1,84.043-920Zm1.235,14.738a3.043,3.043,0,0,1-2.482-1.073,4.344,4.344,0,0,1-1-2.481l5.8-1.127a7.034,7.034,0,0,1,.337.834,3,3,0,0,1,.157.964,2.842,2.842,0,0,1-.8,2.059A2.68,2.68,0,0,1,85.279-905.262Zm8.648-10.4a3.516,3.516,0,0,1,2.9,1.485,5.9,5.9,0,0,1,1.146,3.717,8.54,8.54,0,0,1-.359,2.612,10.884,10.884,0,0,1-.7,1.745l-6.4-1.235a10.7,10.7,0,0,1-.438-1.43,7.275,7.275,0,0,1-.191-1.69,6.4,6.4,0,0,1,1.067-3.565A3.365,3.365,0,0,1,93.927-915.666Zm-1.235,14.738a2.681,2.681,0,0,1-2.01-.824,2.843,2.843,0,0,1-.8-2.059,3,3,0,0,1,.157-.964,7.057,7.057,0,0,1,.337-.834l5.773,1.127A4.383,4.383,0,0,1,95.162-902,3.011,3.011,0,0,1,92.691-900.927Z" transform="translate(1914.19 1152.463)" fill="#4557de"/>
  </g>
</svg>
