<svg id="noun-traffic-7994528" xmlns="http://www.w3.org/2000/svg" width="24.284" height="15.411" viewBox="0 0 24.284 15.411">
  <path id="Path_104120" data-name="Path 104120" d="M75.487,42.852H69.894a2.057,2.057,0,0,1,.892.4,1.843,1.843,0,0,1,.346,2.587l-.591.764h6.066a.641.641,0,0,0,.647-.636V44.62a1.768,1.768,0,0,0-1.768-1.768Zm-1.043,2.437H73.011a.558.558,0,1,1,0-1.115h1.433a.558.558,0,0,1,0,1.115Z" transform="translate(-53.547 -37.962)" fill="#3ea04a"/>
  <path id="Path_104122" data-name="Path 104122" d="M39.8,52.054a1.854,1.854,0,0,0-.535-.078H27.691a1.921,1.921,0,0,0-.541.078,1.959,1.959,0,0,0-1.427,1.89v1.5a.71.71,0,0,0,.714.708H40.515a.71.71,0,0,0,.714-.708v-1.5a1.952,1.952,0,0,0-1.433-1.89Zm-9.35,2.57H28.85a.558.558,0,0,1,0-1.115h1.595a.558.558,0,1,1,0,1.115Zm7.655,0H36.506a.558.558,0,1,1,0-1.115H38.1a.558.558,0,1,1,0,1.115Z" transform="translate(-25.138 -43.83)" fill="#3ea04a"/>
  <path id="Path_104123" data-name="Path 104123" d="M41.833,41.255a1.854,1.854,0,0,1,.535.078l-.909-2.777-.05-.145a1.982,1.982,0,0,0-1.885-1.372H32.572a1.982,1.982,0,0,0-1.885,1.372l-.647,1.952-.318.97a1.922,1.922,0,0,1,.541-.078Z" transform="translate(-27.71 -34.224)" fill="#3ea04a"/>
  <path id="Path_104124" data-name="Path 104124" d="M29.73,68.283a.5.5,0,0,0,.5.5h2.2a.5.5,0,0,0,.5-.5V66.808h-3.2Z" transform="translate(-27.715 -53.369)" fill="#3ea04a"/>
  <path id="Path_104125" data-name="Path 104125" d="M56.211,68.283a.5.5,0,0,0,.5.5h2.2a.5.5,0,0,0,.5-.5V66.808h-3.2Z" transform="translate(-44.746 -53.369)" fill="#3ea04a"/>
  <path id="Path_104126" data-name="Path 104126" d="M25.608,47.843l.318-.97-.134-.173a1.025,1.025,0,0,0-.8-.4,1.054,1.054,0,0,0-.624.212.727.727,0,0,0-.128,1.02l.574.753a1.944,1.944,0,0,1,.8-.446Z" transform="translate(-24.083 -40.182)" fill="#3ea04a"/>
  <path id="Path_104127" data-name="Path 104127" d="M66.267,46.266l-.138.178c.078.9.486,1.317,1.118,1.409l.577-.75a.729.729,0,0,0-.132-1.022,1.016,1.016,0,0,0-1.425.184Z" transform="translate(-51.125 -39.903)" fill="#3ea04a"/>
  <path id="Path_104128" data-name="Path 104128" d="M60.065,32.99,67.726,33l-.864-2.626a1.776,1.776,0,0,0-1.7-1.221H58.933a1.781,1.781,0,0,0-1.7,1.221l-.156.48h.039a3.089,3.089,0,0,1,2.944,2.141Z" transform="translate(-45.306 -29.148)" fill="#3ea04a"/>
  <path id="Path_104129" data-name="Path 104129" d="M78.875,57.688a.427.427,0,0,0,.427.427h2.014a.427.427,0,0,0,.427-.427V56.5H78.875Z" transform="translate(-59.323 -46.737)" fill="#3ea04a"/>
  <path id="Path_104130" data-name="Path 104130" d="M88.895,37.627a.911.911,0,0,0-1.278.164l-.124.16a1.2,1.2,0,0,0,1,1.264l.519-.673a.654.654,0,0,0-.12-.916Z" transform="translate(-64.865 -34.479)" fill="#3ea04a"/>
</svg>
