<svg id="Impressions" xmlns="http://www.w3.org/2000/svg" width="35" height="35" viewBox="0 0 35 35">
  <rect id="Rectangle_10262" data-name="Rectangle 10262" width="35" height="35" rx="3" fill="#e2edf8"/>
  <path id="preview_24dp_E8EAED_FILL1_wght400_GRAD0_opsz24" d="M121.991-822.078a1.918,1.918,0,0,1-1.406-.585A1.918,1.918,0,0,1,120-824.07v-13.939a1.918,1.918,0,0,1,.585-1.407,1.918,1.918,0,0,1,1.406-.585H135.93a1.918,1.918,0,0,1,1.406.585,1.918,1.918,0,0,1,.585,1.407v13.939a1.918,1.918,0,0,1-.585,1.406,1.918,1.918,0,0,1-1.406.585Zm0-1.991H135.93v-11.948H121.991Zm6.97-1.991a6.267,6.267,0,0,1-3.647-1.108,6.345,6.345,0,0,1-2.327-2.875,6.346,6.346,0,0,1,2.327-2.875,6.269,6.269,0,0,1,3.647-1.108,6.269,6.269,0,0,1,3.647,1.108,6.346,6.346,0,0,1,2.327,2.875,6.345,6.345,0,0,1-2.327,2.875A6.267,6.267,0,0,1,128.961-826.061Zm0-2.489a1.44,1.44,0,0,1-1.058-.436,1.44,1.44,0,0,1-.436-1.058,1.441,1.441,0,0,1,.436-1.058,1.44,1.44,0,0,1,1.058-.436,1.44,1.44,0,0,1,1.058.436,1.44,1.44,0,0,1,.436,1.058,1.44,1.44,0,0,1-.436,1.058A1.44,1.44,0,0,1,128.961-828.55Zm0,1a2.4,2.4,0,0,0,1.767-.722,2.4,2.4,0,0,0,.722-1.767,2.4,2.4,0,0,0-.722-1.767,2.4,2.4,0,0,0-1.767-.721,2.4,2.4,0,0,0-1.767.721,2.4,2.4,0,0,0-.722,1.767,2.4,2.4,0,0,0,.722,1.767A2.4,2.4,0,0,0,128.961-827.554Z" transform="translate(-111.875 849)" fill="#026dd5"/>
</svg>
