<svg xmlns="http://www.w3.org/2000/svg" width="56" height="56" viewBox="0 0 56 56">
  <g id="Last_Audited_Sites" data-name="Last Audited Sites" transform="translate(-376 -246)">
    <rect id="Rectangle_7018" data-name="Rectangle 7018" width="56" height="56" rx="6" transform="translate(376 246)" fill="#e2edf8"/>
    <g id="Group_37234" data-name="Group 37234" transform="translate(-30.5 1)">
      <path id="Path_99585" data-name="Path 99585" d="M40.016,31C40.33,30.437,47.3,17,47.3,12.914a7.851,7.851,0,1,0-15.7-.063c0,4.082,7.034,17.523,7.286,18.088A.63.63,0,0,0,40.016,31ZM35.243,12.914a4.208,4.208,0,1,1,4.208,4.208A4.208,4.208,0,0,1,35.243,12.914Z" transform="translate(401.805 250)" fill="#006dd5"/>
      <path id="Path_99586" data-name="Path 99586" d="M39.006,39.614a.66.66,0,0,0-.565-.314H37.31c-1.131,2.324-2.073,4.271-2.512,5.025a1.874,1.874,0,0,1-3.329,0c0-.063-1.131-2.2-2.512-5.025H14.7L45.915,51.485Z" transform="translate(408.09 237.243)" fill="#006dd5"/>
      <path id="Path_99587" data-name="Path 99587" d="M23.229,49.7,2,56.734H41c.126,0,.188,0,.251-.063Z" transform="translate(412.814 233.375)" fill="#006dd5"/>
      <path id="Path_99588" data-name="Path 99588" d="M8.283,40.5,1.5,52.119l19.721-6.595Z" transform="translate(413 236.796)" fill="#006dd5"/>
    </g>
  </g>
</svg>
