<svg xmlns="http://www.w3.org/2000/svg" xmlns:xlink="http://www.w3.org/1999/xlink" width="262" height="262" viewBox="0 0 262 262">
  <defs>
    <linearGradient id="linear-gradient" x1="0.5" x2="0.5" y2="1" gradientUnits="objectBoundingBox">
      <stop offset="0" stop-color="#006dd5"/>
      <stop offset="1" stop-color="#11579a"/>
    </linearGradient>
  </defs>
  <g id="Group_40254" data-name="Group 40254" transform="translate(-2730.5 -698.331)">
    <circle id="Ellipse_826" data-name="Ellipse 826" cx="131" cy="131" r="131" transform="translate(2730.5 698.331)" fill="#006dd5" opacity="0.038"/>
    <g id="Ellipse_825" data-name="Ellipse 825" transform="translate(2763.5 731.331)" fill="#006dd5" stroke="#006dd5" stroke-width="1" opacity="0.043">
      <circle cx="98" cy="98" r="98" stroke="none"/>
      <circle cx="98" cy="98" r="97.5" fill="none"/>
    </g>
    <circle id="Ellipse_824" data-name="Ellipse 824" cx="64" cy="64" r="64" transform="translate(2797.5 765.331)" fill="url(#linear-gradient)"/>
    <path id="lock_24dp_E3E3E3_FILL1_wght400_GRAD0_opsz24_1_" data-name="lock_24dp_E3E3E3_FILL1_wght400_GRAD0_opsz24 (1)" d="M164.884-868.715a4.7,4.7,0,0,1-3.45-1.435A4.7,4.7,0,0,1,160-873.6v-24.421a4.7,4.7,0,0,1,1.435-3.45,4.7,4.7,0,0,1,3.45-1.435h2.442v-4.884a11.768,11.768,0,0,1,3.572-8.639A11.768,11.768,0,0,1,179.537-920a11.768,11.768,0,0,1,8.639,3.572,11.768,11.768,0,0,1,3.572,8.639v4.884h2.442a4.7,4.7,0,0,1,3.45,1.435,4.7,4.7,0,0,1,1.435,3.45v24.42a4.7,4.7,0,0,1-1.435,3.45,4.7,4.7,0,0,1-3.45,1.435Zm14.653-12.211a4.7,4.7,0,0,0,3.45-1.435,4.7,4.7,0,0,0,1.435-3.45,4.7,4.7,0,0,0-1.435-3.45,4.7,4.7,0,0,0-3.45-1.435,4.7,4.7,0,0,0-3.45,1.435,4.7,4.7,0,0,0-1.435,3.45,4.7,4.7,0,0,0,1.435,3.45A4.7,4.7,0,0,0,179.537-880.926Zm-7.326-21.979h14.653v-4.884a7.065,7.065,0,0,0-2.137-5.19,7.066,7.066,0,0,0-5.19-2.137,7.067,7.067,0,0,0-5.19,2.137,7.065,7.065,0,0,0-2.137,5.19Z" transform="translate(2681.784 1723.689)" fill="#fff"/>
  </g>
</svg>
