<svg xmlns="http://www.w3.org/2000/svg" width="40" height="40" viewBox="0 0 40 40">
  <g id="Parking_Central" data-name="Parking Central" transform="translate(-381 -1209)">
    <rect id="Rectangle_7018" data-name="Rectangle 7018" width="40" height="40" rx="2" transform="translate(381 1209)" fill="#e2edf8"/>
    <g id="noun-parking-7024893" transform="translate(391.297 1213)">
      <path id="Path_101398" data-name="Path 101398" d="M35.219,23.823a8.721,8.721,0,0,0,1.8-.188V34.3h-3.6V23.635A8.721,8.721,0,0,0,35.219,23.823Zm1.2-11.595H34.666v2.154h1.753a1.013,1.013,0,0,0,1-1.023V13.25h0a1.013,1.013,0,0,0-1-1.023Zm7.1,2.329a8.6,8.6,0,0,1-2.426,6,8.14,8.14,0,0,1-11.713.007,8.649,8.649,0,0,1-.014-12.01,8.115,8.115,0,0,1,11.708,0A8.617,8.617,0,0,1,43.5,14.562Zm-2.19,0a6.329,6.329,0,0,0-1.784-4.417,5.989,5.989,0,0,0-8.616-.007,6.36,6.36,0,0,0-.014,8.834,5.968,5.968,0,0,0,8.61.009,6.34,6.34,0,0,0,1.788-4.414ZM38.957,35.069H31.482a1.893,1.893,0,0,0-1.868,1.915V38a.389.389,0,0,0,.109.272.37.37,0,0,0,.265.112H40.451a.37.37,0,0,0,.265-.112A.389.389,0,0,0,40.825,38V36.985a1.935,1.935,0,0,0-.548-1.355,1.844,1.844,0,0,0-1.32-.56Zm1.61-20.508A5.554,5.554,0,0,1,39,18.437a5.254,5.254,0,0,1-7.562,0,5.581,5.581,0,0,1,0-7.754,5.251,5.251,0,0,1,7.562,0A5.568,5.568,0,0,1,40.567,14.562Zm-2.4-1.306h0a1.77,1.77,0,0,0-1.745-1.789H34.293a.378.378,0,0,0-.374.384v5.778a.374.374,0,1,0,.747,0V15.148h1.753a1.771,1.771,0,0,0,1.745-1.79Z" transform="translate(-26.95 -6.062)" fill="#016dd5"/>
    </g>
  </g>
</svg>
