<svg xmlns="http://www.w3.org/2000/svg" width="62" height="62" viewBox="0 0 62 62">
  <g id="In_Progress" data-name="In Progress" transform="translate(-0.333)">
    <rect id="Rectangle_7018" data-name="Rectangle 7018" width="62" height="62" rx="6" transform="translate(0.333)" fill="#f2e0ff"/>
    <g id="Group_42240" data-name="Group 42240" transform="translate(10.571 14.657)">
      <path id="campaign_24dp_E3E3E3_FILL1_wght400_GRAD0_opsz24" d="M112.686-781.614V-785.7h8.172v4.086Zm2.451,14.3-6.537-4.9,2.451-3.269,6.537,4.9Zm-4.086-24.515L108.6-795.1l6.537-4.9,2.451,3.269ZM86.129-769.356v-8.172H84.086a3.934,3.934,0,0,1-2.886-1.2,3.934,3.934,0,0,1-1.2-2.886V-785.7a3.934,3.934,0,0,1,1.2-2.886,3.934,3.934,0,0,1,2.886-1.2h8.172l10.214-6.129V-771.4l-10.214-6.129H90.214v8.172Zm18.386-7.457V-790.5a9.33,9.33,0,0,1,2.222,2.988,8.82,8.82,0,0,1,.843,3.856,8.82,8.82,0,0,1-.843,3.856A9.328,9.328,0,0,1,104.515-776.813Z" transform="translate(-80 800)" fill="#6a0dad"/>
      <path id="inactive_order_24dp_E3E3E3_FILL1_wght300_GRAD0_opsz24" d="M162.342-793.774h.978v-4.018h-.978Zm2.551,0h.978v-4.018h-.978Zm-.787,2.966a4.8,4.8,0,0,1-3.523-1.452,4.8,4.8,0,0,1-1.452-3.523,4.8,4.8,0,0,1,1.452-3.523,4.8,4.8,0,0,1,3.523-1.452,4.8,4.8,0,0,1,3.523,1.452,4.8,4.8,0,0,1,1.452,3.523,4.8,4.8,0,0,1-1.452,3.523A4.8,4.8,0,0,1,164.107-790.808Z" transform="translate(-158.105 812.127)" fill="#f2e0ff"/>
    </g>
  </g>
</svg>
