<svg xmlns="http://www.w3.org/2000/svg" width="62" height="62" viewBox="0 0 62 62">
  <g id="Group_1100" data-name="Group 1100" transform="translate(-1207 -474)">
    <g id="Group_1097" data-name="Group 1097">
      <g id="Group_1098" data-name="Group 1098">
        <g id="Group_1096" data-name="Group 1096" transform="translate(82)">
          <g id="red-location" transform="translate(1125 474)">
            <rect id="Rectangle_7018" data-name="Rectangle 7018" width="62" height="62" rx="6" fill="#016dd5" opacity="0.2"/>
          </g>
        </g>
      </g>
    </g>
    <path id="hub_24dp_016DD5_FILL0_wght400_GRAD0_opsz24" d="M10.5-920a5.079,5.079,0,0,1-3.719-1.522,5.016,5.016,0,0,1-1.531-3.7,5.016,5.016,0,0,1,1.531-3.7,5.079,5.079,0,0,1,3.719-1.522,4.709,4.709,0,0,1,1.138.13,5.885,5.885,0,0,1,1.006.348l2.494-3.087a7.535,7.535,0,0,1-1.706-3.043,7.872,7.872,0,0,1-.219-3.391l-3.544-1.174a5.668,5.668,0,0,1-1.881,1.739,5.01,5.01,0,0,1-2.538.652,5.079,5.079,0,0,1-3.719-1.522A5.016,5.016,0,0,1,0-943.478a5.016,5.016,0,0,1,1.531-3.7A5.079,5.079,0,0,1,5.25-948.7a5.079,5.079,0,0,1,3.719,1.522,5.016,5.016,0,0,1,1.531,3.7v.348l3.544,1.217a8.334,8.334,0,0,1,2.341-2.652,7.528,7.528,0,0,1,3.3-1.391v-3.783a5.454,5.454,0,0,1-2.822-1.848,4.909,4.909,0,0,1-1.116-3.2,5.016,5.016,0,0,1,1.531-3.7A5.079,5.079,0,0,1,21-960a5.079,5.079,0,0,1,3.719,1.522,5.016,5.016,0,0,1,1.531,3.7,4.851,4.851,0,0,1-1.138,3.2,5.576,5.576,0,0,1-2.8,1.848v3.783a7.528,7.528,0,0,1,3.3,1.391,8.334,8.334,0,0,1,2.341,2.652L31.5-943.13v-.348a5.016,5.016,0,0,1,1.531-3.7A5.079,5.079,0,0,1,36.75-948.7a5.079,5.079,0,0,1,3.719,1.522,5.016,5.016,0,0,1,1.531,3.7,5.016,5.016,0,0,1-1.531,3.7,5.079,5.079,0,0,1-3.719,1.522,5.13,5.13,0,0,1-2.559-.652,5.212,5.212,0,0,1-1.859-1.739l-3.544,1.174a7.759,7.759,0,0,1-.219,3.37,7.912,7.912,0,0,1-1.706,3.065L29.356-930a4.8,4.8,0,0,1,1.006-.326,5.608,5.608,0,0,1,1.137-.109,5.079,5.079,0,0,1,3.719,1.522,5.016,5.016,0,0,1,1.531,3.7,5.016,5.016,0,0,1-1.531,3.7A5.079,5.079,0,0,1,31.5-920a5.079,5.079,0,0,1-3.719-1.522,5.016,5.016,0,0,1-1.531-3.7,4.985,4.985,0,0,1,.284-1.674,5.555,5.555,0,0,1,.766-1.457l-2.494-3.087a7.74,7.74,0,0,1-3.828,1,7.74,7.74,0,0,1-3.828-1l-2.45,3.087a5.555,5.555,0,0,1,.766,1.457,4.985,4.985,0,0,1,.284,1.674,5.016,5.016,0,0,1-1.531,3.7A5.079,5.079,0,0,1,10.5-920ZM5.25-941.739a1.7,1.7,0,0,0,1.247-.5,1.678,1.678,0,0,0,.5-1.239,1.677,1.677,0,0,0-.5-1.239,1.7,1.7,0,0,0-1.247-.5,1.7,1.7,0,0,0-1.247.5,1.677,1.677,0,0,0-.5,1.239,1.678,1.678,0,0,0,.5,1.239A1.7,1.7,0,0,0,5.25-941.739Zm5.25,18.261a1.7,1.7,0,0,0,1.247-.5,1.677,1.677,0,0,0,.5-1.239,1.677,1.677,0,0,0-.5-1.239,1.7,1.7,0,0,0-1.247-.5,1.7,1.7,0,0,0-1.247.5,1.677,1.677,0,0,0-.5,1.239,1.677,1.677,0,0,0,.5,1.239A1.7,1.7,0,0,0,10.5-923.478ZM21-953.044a1.7,1.7,0,0,0,1.247-.5,1.677,1.677,0,0,0,.5-1.239,1.677,1.677,0,0,0-.5-1.239,1.7,1.7,0,0,0-1.247-.5,1.7,1.7,0,0,0-1.247.5,1.677,1.677,0,0,0-.5,1.239,1.677,1.677,0,0,0,.5,1.239A1.7,1.7,0,0,0,21-953.044Zm0,19.13a4.238,4.238,0,0,0,3.106-1.261,4.185,4.185,0,0,0,1.269-3.087,4.185,4.185,0,0,0-1.269-3.087A4.238,4.238,0,0,0,21-942.609a4.238,4.238,0,0,0-3.106,1.261,4.185,4.185,0,0,0-1.269,3.087,4.185,4.185,0,0,0,1.269,3.087A4.238,4.238,0,0,0,21-933.913Zm10.5,10.435a1.7,1.7,0,0,0,1.247-.5,1.677,1.677,0,0,0,.5-1.239,1.677,1.677,0,0,0-.5-1.239,1.7,1.7,0,0,0-1.247-.5,1.7,1.7,0,0,0-1.247.5,1.677,1.677,0,0,0-.5,1.239,1.677,1.677,0,0,0,.5,1.239A1.7,1.7,0,0,0,31.5-923.478Zm5.25-18.261a1.7,1.7,0,0,0,1.247-.5,1.678,1.678,0,0,0,.5-1.239,1.677,1.677,0,0,0-.5-1.239,1.7,1.7,0,0,0-1.247-.5,1.7,1.7,0,0,0-1.247.5,1.677,1.677,0,0,0-.5,1.239,1.678,1.678,0,0,0,.5,1.239A1.7,1.7,0,0,0,36.75-941.739ZM21-954.783ZM5.25-943.478ZM21-938.261ZM36.75-943.478ZM10.5-925.217ZM31.5-925.217Z" transform="translate(1217 1445)" fill="#016dd5"/>
  </g>
</svg>
