<svg xmlns="http://www.w3.org/2000/svg" width="62" height="62" viewBox="0 0 62 62">
  <g id="Group_1095" data-name="Group 1095" transform="translate(-1043 -474)">
    <g id="red-location" transform="translate(1043 474)">
      <rect id="Rectangle_7018" data-name="Rectangle 7018" width="62" height="62" rx="6" fill="#016dd5" opacity="0.2"/>
    </g>
    <path id="my_location_24dp_016DD5_FILL0_wght400_GRAD0_opsz24" d="M61.733-874.567v-3.966A17.373,17.373,0,0,1,51.1-883.665,17.373,17.373,0,0,1,45.966-894.3H42v-3.966h3.966A17.372,17.372,0,0,1,51.1-908.9a17.372,17.372,0,0,1,10.635-5.132V-918H65.7v3.966A17.372,17.372,0,0,1,76.335-908.9a17.372,17.372,0,0,1,5.132,10.635h3.966v3.966H81.466a17.373,17.373,0,0,1-5.132,10.635A17.373,17.373,0,0,1,65.7-878.534v3.966Zm1.983-7.834a13.376,13.376,0,0,0,9.817-4.066,13.376,13.376,0,0,0,4.066-9.817,13.376,13.376,0,0,0-4.066-9.817,13.376,13.376,0,0,0-9.817-4.066A13.376,13.376,0,0,0,53.9-906.1a13.376,13.376,0,0,0-4.066,9.817,13.376,13.376,0,0,0,4.066,9.817A13.376,13.376,0,0,0,63.716-882.4Zm0-5.95a7.639,7.639,0,0,1-5.6-2.33,7.639,7.639,0,0,1-2.33-5.6,7.639,7.639,0,0,1,2.33-5.6,7.639,7.639,0,0,1,5.6-2.33,7.639,7.639,0,0,1,5.6,2.33,7.639,7.639,0,0,1,2.33,5.6,7.639,7.639,0,0,1-2.33,5.6A7.639,7.639,0,0,1,63.716-888.351Zm0-3.966a3.819,3.819,0,0,0,2.8-1.165,3.819,3.819,0,0,0,1.165-2.8,3.819,3.819,0,0,0-1.165-2.8,3.819,3.819,0,0,0-2.8-1.165,3.819,3.819,0,0,0-2.8,1.165,3.819,3.819,0,0,0-1.165,2.8,3.819,3.819,0,0,0,1.165,2.8A3.819,3.819,0,0,0,63.716-892.317ZM63.716-896.284Z" transform="translate(1010.284 1401.284)" fill="#016dd5"/>
  </g>
</svg>
