<svg xmlns="http://www.w3.org/2000/svg" width="62" height="62" viewBox="0 0 62 62">
  <g id="Group_1102" data-name="Group 1102" transform="translate(-1044 -549)">
    <g id="red-location" transform="translate(1044 549)">
      <rect id="Rectangle_7018" data-name="Rectangle 7018" width="62" height="62" rx="6" fill="#016dd5" opacity="0.2"/>
    </g>
    <path id="category_24dp_016DD5_FILL0_wght300_GRAD0_opsz24" d="M144.348-832.063l11.407-18.707,11.407,18.707Zm23.381,23.948a9.422,9.422,0,0,1-6.924-2.84,9.422,9.422,0,0,1-2.84-6.924,9.422,9.422,0,0,1,2.84-6.924,9.421,9.421,0,0,1,6.924-2.84,9.421,9.421,0,0,1,6.924,2.84,9.422,9.422,0,0,1,2.84,6.924,9.422,9.422,0,0,1-2.84,6.924,9.422,9.422,0,0,1-6.924,2.839ZM136.39-809.3v-17.155h17.155V-809.3Zm31.338-2.372a5.993,5.993,0,0,0,4.406-1.8,5.99,5.99,0,0,0,1.8-4.405,5.993,5.993,0,0,0-1.8-4.406,5.99,5.99,0,0,0-4.4-1.8,5.993,5.993,0,0,0-4.406,1.8,5.99,5.99,0,0,0-1.8,4.405,5.994,5.994,0,0,0,1.8,4.406A5.991,5.991,0,0,0,167.728-811.672Zm-27.78-1.186h10.038V-822.9H139.948Zm10.678-22.761h10.257l-5.128-8.25ZM155.755-835.622Zm-5.768,12.648h0l17.742,5.019s0-.038,0,0" transform="translate(918.168 1409.274)" fill="#016dd5"/>
  </g>
</svg>
