<svg xmlns="http://www.w3.org/2000/svg" width="229.064" height="180" viewBox="0 0 229.064 180">
  <g id="Group_1105" data-name="Group 1105" transform="translate(-290.646 -192.165)">
    <g id="Group_1106" data-name="Group 1106" transform="translate(298.441 192.165)">
      <path id="path1072" d="M295.425-179.928h0a2.15,2.15,0,0,0,2.315-1.938V-357.987a2.153,2.153,0,0,0-2.315-1.941h0a2.157,2.157,0,0,0-2.319,1.941v176.121a2.154,2.154,0,0,0,2.319,1.938" transform="translate(-293.106 359.928)" fill="#bfddfa"/>
      <path id="path1073" d="M305.3-179.928h0a2.154,2.154,0,0,0,2.319-1.938V-357.987a2.157,2.157,0,0,0-2.319-1.941h0a2.157,2.157,0,0,0-2.319,1.941v176.121a2.154,2.154,0,0,0,2.319,1.938" transform="translate(-271.69 359.928)" fill="#bfddfa"/>
      <path id="path1075" d="M325.053-179.928h0a2.154,2.154,0,0,0,2.319-1.938V-357.987a2.157,2.157,0,0,0-2.319-1.941h0a2.157,2.157,0,0,0-2.319,1.941v176.121a2.154,2.154,0,0,0,2.319,1.938" transform="translate(-233.234 359.928)" fill="#bfddfa"/>
      <path id="path1076" d="M334.926-179.928h0a2.154,2.154,0,0,0,2.319-1.938V-357.987a2.157,2.157,0,0,0-2.319-1.941h0a2.153,2.153,0,0,0-2.315,1.941v176.121a2.15,2.15,0,0,0,2.315,1.938" transform="translate(-213.273 359.928)" fill="#bfddfa"/>
      <path id="path1077" d="M344.805-179.928h0a2.15,2.15,0,0,0,2.315-1.938V-357.987a2.153,2.153,0,0,0-2.315-1.941h0a2.157,2.157,0,0,0-2.319,1.941v176.121a2.154,2.154,0,0,0,2.319,1.938" transform="translate(-193.316 359.928)" fill="#bfddfa"/>
      <path id="path1078" d="M354.681-179.928h0A2.154,2.154,0,0,0,357-181.866V-357.987a2.157,2.157,0,0,0-2.319-1.941h0a2.157,2.157,0,0,0-2.319,1.941v176.121a2.154,2.154,0,0,0,2.319,1.938" transform="translate(-174.817 359.928)" fill="#bfddfa"/>
      <path id="path1079" d="M364.557-179.928h0a2.154,2.154,0,0,0,2.319-1.938V-357.987a2.157,2.157,0,0,0-2.319-1.941h0a2.157,2.157,0,0,0-2.319,1.941v176.121a2.154,2.154,0,0,0,2.319,1.938" transform="translate(-153.401 359.928)" fill="#bfddfa"/>
    </g>
    <g id="Group_1110" data-name="Group 1110" transform="translate(290.646 216.026)">
      <path id="path1080" d="M310.869-319.071a10.107,10.107,0,0,1-10.109,10.109,10.111,10.111,0,0,1-10.114-10.109,10.115,10.115,0,0,1,10.114-10.114,10.111,10.111,0,0,1,10.109,10.114" transform="translate(-290.646 389.728)" fill="#016dd5"/>
      <path id="path1081" d="M320.745-344.155a10.111,10.111,0,0,1-10.11,10.114,10.115,10.115,0,0,1-10.114-10.114,10.115,10.115,0,0,1,10.114-10.114,10.111,10.111,0,0,1,10.11,10.114" transform="translate(-269.23 354.268)" fill="#016dd5"/>
      <path id="path1083" d="M340.5-322.266a10.115,10.115,0,0,1-10.114,10.114,10.111,10.111,0,0,1-10.109-10.114,10.107,10.107,0,0,1,10.109-10.109A10.111,10.111,0,0,1,340.5-322.266" transform="translate(-230.771 385.217)" fill="#016dd5"/>
      <path id="path1084" d="M350.374-314.708a10.115,10.115,0,0,1-10.114,10.114,10.111,10.111,0,0,1-10.11-10.114,10.107,10.107,0,0,1,10.11-10.109,10.111,10.111,0,0,1,10.114,10.109" transform="translate(-210.813 395.902)" fill="#016dd5"/>
      <path id="path1085" d="M360.249-341.907a10.111,10.111,0,0,1-10.109,10.114,10.115,10.115,0,0,1-10.114-10.114,10.115,10.115,0,0,1,10.114-10.114,10.111,10.111,0,0,1,10.109,10.114" transform="translate(-190.856 359.143)" fill="#016dd5"/>
      <path id="path1086" d="M370.125-333.855a10.107,10.107,0,0,1-10.109,10.109A10.111,10.111,0,0,1,349.9-333.855a10.115,10.115,0,0,1,10.114-10.114,10.111,10.111,0,0,1,10.109,10.114" transform="translate(-172.357 368.829)" fill="#016dd5"/>
      <path id="path1087" d="M380.005-309.7a10.115,10.115,0,0,1-10.114,10.114A10.114,10.114,0,0,1,359.778-309.7a10.111,10.111,0,0,1,10.114-10.11,10.111,10.111,0,0,1,10.114,10.11" transform="translate(-150.941 402.976)" fill="#016dd5"/>
    </g>
    <g id="Group_1111" data-name="Group 1111">
      <path id="path1074" d="M315.177-179.928h0a2.154,2.154,0,0,0,2.319-1.938V-357.987a2.157,2.157,0,0,0-2.319-1.941h0a2.157,2.157,0,0,0-2.319,1.941v176.121a2.154,2.154,0,0,0,2.319,1.938" transform="translate(45.25 552.093)" fill="#bfddfa"/>
      <path id="path1082" d="M330.625-297.734a10.115,10.115,0,0,1-10.114,10.114A10.115,10.115,0,0,1,310.4-297.734a10.111,10.111,0,0,1,10.114-10.109,10.111,10.111,0,0,1,10.114,10.109" transform="translate(39.915 635.924)" fill="#016dd5"/>
    </g>
  </g>
</svg>
