<svg xmlns="http://www.w3.org/2000/svg" width="35" height="35" viewBox="0 0 35 35">
  <g id="Population" transform="translate(-1198 -1202)">
    <rect id="Rectangle_10262" data-name="Rectangle 10262" width="35" height="35" rx="3" transform="translate(1198 1202)" fill="#e2edf8"/>
    <g id="noun-population-2654121" transform="translate(935.386 971.658)">
      <g id="Group_43323" data-name="Group 43323" transform="translate(271.42 237.19)">
        <path id="Path_102745" data-name="Path 102745" d="M277.719,245.114h4.79a1.585,1.585,0,0,1,1.58,1.58v6.518h-1.334v3.247a2.042,2.042,0,0,1-2.036,2.036h-1.21a2.042,2.042,0,0,1-2.036-2.036v-3.247h-1.334v-6.518A1.584,1.584,0,0,1,277.719,245.114Zm-4.925-1.849h4.164a1.378,1.378,0,0,1,1.367,1.244h-.606a2.189,2.189,0,0,0-2.184,2.184v7.123h1.333v.3a1.771,1.771,0,0,1-1.466.782H274.35a1.775,1.775,0,0,1-1.77-1.77V250.3h-1.16v-5.667A1.378,1.378,0,0,1,272.794,243.265Zm2.082-6.075a2.339,2.339,0,0,1,2.325,2.084,3.278,3.278,0,0,0-.383,1.542v.016a2.339,2.339,0,1,1-1.942-3.643Zm8.394,6.075h4.164a1.378,1.378,0,0,1,1.373,1.373V250.3h-1.159v2.822a1.775,1.775,0,0,1-1.77,1.77h-1.052a1.773,1.773,0,0,1-1.467-.782v-.3h1.334v-7.123a2.19,2.19,0,0,0-2.184-2.184H281.9A1.379,1.379,0,0,1,283.27,243.265Zm2.082-6.075a2.339,2.339,0,1,1-1.943,3.643v-.016a3.278,3.278,0,0,0-.383-1.542A2.34,2.34,0,0,1,285.352,237.19Zm-5.238.936a2.691,2.691,0,1,1-2.691,2.691A2.691,2.691,0,0,1,280.114,238.126Z" transform="translate(-271.42 -237.19)" fill="#016dd5" fill-rule="evenodd"/>
      </g>
    </g>
  </g>
</svg>
