<svg xmlns="http://www.w3.org/2000/svg" width="15.84" height="16.594" viewBox="0 0 15.84 16.594">
  <path id="Path_104117" data-name="Path 104117" d="M29.952,15.478a5.183,5.183,0,1,0,1.518,3.665,5.181,5.181,0,0,0-1.518-3.665Zm-3.665-.864a4.529,4.529,0,1,1-3.2,1.327,4.526,4.526,0,0,1,3.2-1.327Zm1.807,6.648H24.481L23.7,18.326l1.239.716a.327.327,0,0,0,.446-.119l.908-1.571.908,1.572a.327.327,0,0,0,.446.119l1.239-.716Zm-3.863.656a.327.327,0,0,1-.316-.243l-1.056-3.943a.326.326,0,0,1,.48-.367l1.64.947L26,16.536a.326.326,0,0,1,.568,0L27.6,18.311l1.628-.939a.327.327,0,0,1,.492.362l-1.052,3.924a.327.327,0,0,1-.32.261ZM26.57,10.953,28,12.049h0a1.115,1.115,0,0,0,.682.237l2.182.039a.488.488,0,0,1,.468.357l.51,1.723h0a1.12,1.12,0,0,0,.41.594l1.743,1.315h0a.49.49,0,0,1,.169.565l-.6,1.7a1.12,1.12,0,0,0-.016.72l.637,2.088h0a.489.489,0,0,1-.194.556l-1.483,1.019a1.123,1.123,0,0,0-.439.578L31.359,25.6a.486.486,0,0,1-.484.336l-1.8-.048h0a1.1,1.1,0,0,0-.689.207L26.6,27.347h0a.487.487,0,0,1-.591-.014l-1.028-.791h0l-.4-.3h0A1.125,1.125,0,0,0,23.9,26l-2.182-.039h0a.493.493,0,0,1-.469-.357l-.458-1.548,0-.008-.05-.169h0a1.128,1.128,0,0,0-.412-.594L18.584,21.97h0a.488.488,0,0,1-.169-.566l.6-1.7h0a1.131,1.131,0,0,0,.015-.721L18.393,16.9a.486.486,0,0,1,.194-.556l1.483-1.019.025-.018h0a1.118,1.118,0,0,0,.242-.232,1.2,1.2,0,0,0,.173-.325l.711-2.064a.486.486,0,0,1,.484-.336l1.8.048h0a1.1,1.1,0,0,0,.689-.207l1.789-1.251a.487.487,0,0,1,.591.014Z" transform="translate(-18.37 -10.846)" fill="#b48d40" fill-rule="evenodd"/>
</svg>
