<svg id="Rejected" xmlns="http://www.w3.org/2000/svg" width="62" height="62" viewBox="0 0 62 62">
  <rect id="Rectangle_7018" data-name="Rectangle 7018" width="62" height="62" rx="6" fill="#ffdedd"/>
  <path id="Rejected-2" data-name="Rejected" d="M171.649-901.8a2.782,2.782,0,0,0,2.057-.869,2.873,2.873,0,0,0,.855-2.09,2.873,2.873,0,0,0-.855-2.09,2.782,2.782,0,0,0-2.057-.869,2.782,2.782,0,0,0-2.057.869,2.873,2.873,0,0,0-.855,2.09,2.873,2.873,0,0,0,.855,2.09A2.782,2.782,0,0,0,171.649-901.8Zm0,14.8a48.88,48.88,0,0,1-8.755-9.415A14.791,14.791,0,0,1,160-904.461a11.538,11.538,0,0,1,3.513-8.841,11.537,11.537,0,0,1,8.136-3.292,11.359,11.359,0,0,1,1.274.074q.655.074,1.274.148l3.495,3.551-3.058,3.107,4.114,4.18,3.058-3.107,1.128,1.184q.146.74.255,1.48a10.374,10.374,0,0,1,.109,1.517,14.791,14.791,0,0,1-2.894,8.046A48.881,48.881,0,0,1,171.649-887Zm7.1-20.642-2.039-2.072,3.058-3.107-3.058-3.107L178.748-918l3.058,3.107L184.863-918l2.039,2.072-3.058,3.107,3.058,3.107-2.039,2.072-3.058-3.107Z" transform="translate(-142 934)" fill="#db3a32"/>
</svg>
