<svg xmlns="http://www.w3.org/2000/svg" width="185.971" height="164" viewBox="0 0 185.971 164">
  <g id="request-not-found" transform="translate(-13.393)">
    <path id="Path_2611" data-name="Path 2611" d="M20.644,51.286A50.715,50.715,0,0,1,39.455,30.749a41.907,41.907,0,0,1,9.406-4.209A50.326,50.326,0,0,1,84.077,28.5a45.9,45.9,0,0,1,13.27,8.635,37.859,37.859,0,0,1,10.936,16.908c.657,2.032-.292,1.959-1.677.653a13.792,13.792,0,0,1-2.26-2.83,39.4,39.4,0,0,1-2.771-4.064A42.751,42.751,0,0,0,88.16,34.45,48.344,48.344,0,0,0,70,27.847a19.835,19.835,0,0,0-2.916-.29,20.63,20.63,0,0,0-2.989-.145,41.429,41.429,0,0,0-5.979.435,50.407,50.407,0,0,0-11.666,3.12,40,40,0,0,0-5.833,2.975c-.948.581-1.823,1.234-2.7,1.887l-1.458.871-1.239,1.089a47.417,47.417,0,0,0-8.749,9.942,45.5,45.5,0,0,0-3.864,7.184,60.406,60.406,0,0,0-2.552,7.765,45.235,45.235,0,0,0,1.021,24.528,42.393,42.393,0,0,0,9.843,15.964c.437.508.948.943,1.458,1.452.51.435,1.021.943,1.531,1.378,3.937,3.338,5.323,4.281,5.76,5.661a4.66,4.66,0,0,1,.292.943c.073.435-.437.435-1.458.145a8.935,8.935,0,0,1-1.75-.8A22.836,22.836,0,0,1,34.5,110.5,43.581,43.581,0,0,1,22.029,97a49.163,49.163,0,0,1-4.01-8.635A45.8,45.8,0,0,1,15.9,79.006a49.052,49.052,0,0,1,4.666-27.793Z" transform="translate(-0.291 -3.319)" fill="#333" fill-rule="evenodd"/>
    <path id="Path_2612" data-name="Path 2612" d="M67.352,136.332a30.619,30.619,0,0,1-8.385,6.677,29.355,29.355,0,0,1-3.354,1.741c-.875.436-1.823.726-2.771,1.088l-1.385.508-.729.218-.875.29a33.881,33.881,0,0,1-4.3,1.088c-1.239.218-3.062.8-3.062.291.583-.871,1.239-1.887,1.75-2.685l.729-1.233.437-1.088a8.822,8.822,0,0,0,.365-1.016l.146-.653a10.849,10.849,0,0,0,.365-2.685c.219-2.322-.073-4.644,0-7.038,0-.726.875-.8,1.75-.218a4.267,4.267,0,0,1,1.9,3.266,28.619,28.619,0,0,1-.437,6.1c-.146.508-.219,1.016-.365,1.523l-.219.653h-.073l-.292.29-.146.218v.073c.073.073.073.073.219.073a1.822,1.822,0,0,0,.583-.073l.219-.073.292-.073c.146-.073.365-.145.51-.217l1.021-.363c1.385-.581,2.771-1.162,4.083-1.814a31.878,31.878,0,0,0,8.02-5.443,14.809,14.809,0,0,0,1.021-1.088c.292-.363.656-.725.948-1.088l1.094-1.6.292-.508.073-.073h.437l1.094.073,1.385.073c.365,0,.8.073,1.167.073h2.333a32.813,32.813,0,0,0,4.593-.435,36.059,36.059,0,0,0,6.781-1.887c.51-.218.948-.363,1.458-.58,1.823-.653,2.406-.726,3.135-.073.146.146.365.291.51.436.437.508-.073,1.378-1.385,2.1a34.41,34.41,0,0,1-13.416,3.629,43.466,43.466,0,0,1-5.322.072h-.948l-.073.073-.219.29A4.648,4.648,0,0,1,67.352,136.332Z" transform="translate(-3.982 -17.541)" fill="#333" fill-rule="evenodd"/>
    <path id="Path_2613" data-name="Path 2613" d="M124.713,66.525a43.976,43.976,0,0,0-8.239,4.717,39.833,39.833,0,0,0-12.1,14.513,39.575,39.575,0,0,0-3.5,22.858,37.875,37.875,0,0,0,32.956,32.219,43.547,43.547,0,0,0,11.083-.145c.948-.145,1.822-.29,2.77-.508.875-.218,1.823-.363,2.7-.653l1.312-.363,1.021-.291.51-.145.292-.073c.073,0,.146.073.218.145l1.459,1.234a5.729,5.729,0,0,0,1.094.725,19.828,19.828,0,0,0,8.968,2.613,35.542,35.542,0,0,0,4.812-.073l.729-.073.51-.072.51-.073.219-.073h.146l-.073-.073c-.218-.218-.364-.435-.583-.653l-.292-.363-.291-.435c-.146-.145-.219-.363-.365-.508a16.574,16.574,0,0,1-1.969-4.5c-.364-1.378-.218-2.1,0-2.249.292-.145.657.29,1.24,1.088s1.313,1.887,2.334,3.12a9.145,9.145,0,0,0,.8.943,3.159,3.159,0,0,1,.438.508l.218.218a2.7,2.7,0,0,0,.438.508c1.166,1.378,3.062,3.048,4.739,4.79-.364.145-.874.218-1.385.363s-1.02.218-1.53.363-1.094.218-1.677.363c-.583.073-1.24.218-1.823.29l-.875.145-.874.073c-.292,0-.657.072-.948.072-.657,0-1.313.073-1.969.073a38.185,38.185,0,0,1-4.01-.218,22.608,22.608,0,0,1-7.875-2.249,15.132,15.132,0,0,1-1.823-1.088c-.292-.218-.583-.363-.874-.581l-.438-.363-.073-.073-1.75.508c-1.239.29-2.551.58-3.791.8-1.313.145-2.552.363-3.864.508a44.847,44.847,0,0,1-15.531-1.306,39.724,39.724,0,0,1-13.925-6.894A43.8,43.8,0,0,1,107,129.73a41.475,41.475,0,0,1-5.25-7.91,40.443,40.443,0,0,1-4.521-18.359,48.524,48.524,0,0,1,1.167-10.3,42.117,42.117,0,0,1,3.572-9.724c.729-1.6,1.75-2.975,2.625-4.5a44.684,44.684,0,0,1,10.937-10.957,45.18,45.18,0,0,1,23.842-8.127,35.513,35.513,0,0,1,4.812.073,13.6,13.6,0,0,1,2.406.29c.8.145,1.6.145,2.406.363a36.947,36.947,0,0,1,4.666,1.234c.729.29,1.531.508,2.261.8l2.187.943,1.094.508,1.02.581,2.115,1.161,1.969,1.306c.656.435,1.312.871,1.968,1.379l1.9,1.524c.583.508,1.166,1.089,1.75,1.669,1.167,1.088,2.187,2.322,3.208,3.483A42.057,42.057,0,0,1,180.272,88a37.669,37.669,0,0,1,1.969,14.513,39.288,39.288,0,0,1-.875,6.458,28.148,28.148,0,0,1-3.062,8.055,8.039,8.039,0,0,1-2.551,2.9,6.235,6.235,0,0,1-1.094.653c-.511.145-.438-.581.072-1.887s1.313-3.339,2.261-5.951a37.766,37.766,0,0,0,2.041-12.119,39.426,39.426,0,0,0-2.115-12.264,37.617,37.617,0,0,0-15.6-19.448,34.317,34.317,0,0,0-8.6-3.991,32.746,32.746,0,0,0-4.594-1.161c-.8-.145-1.6-.218-2.333-.29l-1.166-.145a6.307,6.307,0,0,1-1.167-.073A40.679,40.679,0,0,0,124.713,66.525Z" transform="translate(-11.472 -8.181)" fill="#333" fill-rule="evenodd"/>
    <path id="Path_2614" data-name="Path 2614" d="M76.368,71.018a9.625,9.625,0,0,0,1.9-6.749,7.8,7.8,0,0,0-.729-2.54c-1.094-2.83-4.666-4.354-8.02-3.7a9.7,9.7,0,0,0-4.083,1.959A11.3,11.3,0,0,0,62.15,64.7c-.219.581-.656.435-.948-.218a3.693,3.693,0,0,1,.219-3.12,11.157,11.157,0,0,1,12.541-5.515,10.289,10.289,0,0,1,4.083,2.032,8.889,8.889,0,0,1,2.625,3.773,12.972,12.972,0,0,1-.219,9.506,12.807,12.807,0,0,1-3.646,4.644c-2.187,1.887-4.593,3.193-6.416,4.935a9.986,9.986,0,0,0-1.823,2.177,13.214,13.214,0,0,0-1.021,2.54,9.153,9.153,0,0,1-.437,1.306c-.656,1.669-1.239,2.032-2.26,1.959a2.494,2.494,0,0,1-.729-.073c-.729-.218-.948-1.089-.729-2.25.219-.871.365-1.742.656-2.685A13.229,13.229,0,0,1,65.5,80.6a20.867,20.867,0,0,1,4.666-4.5c2.406-1.742,4.666-3.266,5.979-5.08Z" transform="translate(-6.509 -7.595)" fill="#333" fill-rule="evenodd"/>
    <path id="Path_2615" data-name="Path 2615" d="M64.456,102.143v.218c-.146,1.524-1.312,2.032-2.7,1.887a2.363,2.363,0,0,1-1.6-3.773C61.613,98.369,64.456,99.893,64.456,102.143Z" transform="translate(-6.336 -13.612)" fill="#333" fill-rule="evenodd"/>
    <path id="Path_2616" data-name="Path 2616" d="M126.255,151.554a39.345,39.345,0,0,0,12.322,2.249,32.488,32.488,0,0,0,4.594-.218l2.041-.218a18.735,18.735,0,0,0,1.968-.363l1.969-.363c.656-.145,1.313-.363,1.969-.508l2.26-.653c.292-.218.438.145.729.291l.51.435.729.653c.51.363,1.094.725,1.677,1.088.583.29,1.239.58,1.823.87a20.636,20.636,0,0,0,7,1.307,42.748,42.748,0,0,0,9.114-.943c.948-.218.948.29.218.871a8.323,8.323,0,0,1-4.01,1.6,30.352,30.352,0,0,1-9.916-.363,18.578,18.578,0,0,1-4.739-1.742c-.729-.435-1.459-.871-2.187-1.378l-.949-.8c-.145-.073-.073-.073-.073-.073l-.073-.072h-.146A51.779,51.779,0,0,1,141.42,155.4a41.726,41.726,0,0,1-13.051-1.451c-.656-.218-1.312-.363-1.969-.581l-1.9-.726a34.213,34.213,0,0,1-3.718-1.668,41.462,41.462,0,0,1-9.843-7.112,42.466,42.466,0,0,1-5.907-7.184l-1.094-1.742c-1.239-2.249-1.458-3.048-1.239-3.7.073-.145.073-.363.146-.435.219-.363.948.435,1.823,2.032a43.945,43.945,0,0,0,10.645,12.626A35.845,35.845,0,0,0,126.255,151.554Z" transform="translate(-12.211 -17.887)" fill="#333" fill-rule="evenodd"/>
    <path id="Path_2617" data-name="Path 2617" d="M70.383,136.318l-.8-.073h-.073l-.948,1.306a29.666,29.666,0,0,1-2.625,2.613c-.656.581-1.385,1.161-2.042,1.669a39.861,39.861,0,0,1-8.166,4.281c-1.239.508-2.552,1.016-3.791,1.523a22.9,22.9,0,0,1-4.958,1.452c-1.094.145-.073-1.742,1.677-2.249a89.908,89.908,0,0,0,9.624-3.556,25.23,25.23,0,0,0,5.323-3.338l1.312-1.088a9.435,9.435,0,0,0,1.239-1.161c.365-.436.8-.8,1.167-1.234l1.167-1.6.146-.145h1.312l1.094.073c.729,0,1.458.072,2.187.072a38.437,38.437,0,0,0,6.489-.436,19.5,19.5,0,0,0,4.666-1.523l.948-.508c1.167-.58,1.6-.725,2.114-.508.073.073.219.073.292.145.292.218-.073.8-.948,1.306a20.8,20.8,0,0,1-9.187,2.975A59.941,59.941,0,0,1,70.383,136.318Z" transform="translate(-4.534 -18.035)" fill="#333" fill-rule="evenodd"/>
    <path id="Path_2618" data-name="Path 2618" d="M136.251,43.891a.98.98,0,0,1,.948-1.016C139.9,42.73,136.324,46.721,136.251,43.891Z" transform="translate(-16.812 -5.867)" fill="none" stroke="#1b1b1b" stroke-width="0.6"/>
    <path id="Path_2619" data-name="Path 2619" d="M86.92,154.025a.98.98,0,0,1,.948-1.016C90.566,152.936,86.993,156.855,86.92,154.025Z" transform="translate(-10.062 -20.938)" fill="none" stroke="#1b1b1b" stroke-width="0.6"/>
    <path id="Path_2620" data-name="Path 2620" d="M165.91,34.712a.825.825,0,0,1,.583,1.016C165.984,37.977,163.577,34.131,165.91,34.712Z" transform="translate(-20.734 -4.742)" fill="#1b1b1b" fill-rule="evenodd"/>
    <path id="Path_2621" data-name="Path 2621" d="M149.617,125.941c9.383-1.222,16.026-9.526,14.84-18.546S154.7,92.054,145.321,93.276s-16.027,9.526-14.84,18.546S140.235,127.164,149.617,125.941Z" transform="translate(-16.004 -12.743)" fill="#ddecfa"/>
    <path id="Path_2622" data-name="Path 2622" d="M152.337,88.721c.072-.218-1.167-.943-3.718-1.306a14.792,14.792,0,0,0-4.666.145,18.171,18.171,0,0,0-5.907,2.25,20.013,20.013,0,0,0-5.541,5.3,22.192,22.192,0,0,0-3.5,8.127,19.378,19.378,0,0,0,.51,9.942,21.337,21.337,0,0,0,2.333,4.862,18.306,18.306,0,0,0,3.718,4.136,21.2,21.2,0,0,0,3.792,2.467,22.634,22.634,0,0,0,4.229,1.523,19.338,19.338,0,0,0,10.791-.653,19.684,19.684,0,0,0,8.239-5.661,18.575,18.575,0,0,0,2.552-3.845c.291-.653.583-1.379.874-2.032a12.338,12.338,0,0,0,.583-2.032,18.352,18.352,0,0,0,.146-7.692,19.835,19.835,0,0,0-2.115-5.878,18.811,18.811,0,0,0-2.771-3.773c-1.75-1.814-2.989-2.467-3.135-2.322-.146.218.8,1.089,2.261,3.048a20.662,20.662,0,0,1,3.791,9.216,16.931,16.931,0,0,1-.438,6.822c-.146.581-.364,1.161-.583,1.814a18.614,18.614,0,0,1-.8,1.741,17.2,17.2,0,0,1-2.333,3.339,17.01,17.01,0,0,1-7.145,4.789,16.659,16.659,0,0,1-9.26.436,15.568,15.568,0,0,1-3.645-1.306,15.31,15.31,0,0,1-3.208-2.1,16.427,16.427,0,0,1-5.25-7.62,17.535,17.535,0,0,1-.583-8.635,19.85,19.85,0,0,1,2.916-7.33,19.29,19.29,0,0,1,4.74-4.935,15.8,15.8,0,0,1,5.1-2.322,16.281,16.281,0,0,1,4.229-.58C150.951,88.648,152.263,89.011,152.337,88.721Z" transform="translate(-15.763 -11.946)" fill="#333"/>
    <path id="Path_2623" data-name="Path 2623" d="M155.928,105.292c-.073-.218-.364-.363-.948-.29a4.953,4.953,0,0,0-2.26,1.016,13.246,13.246,0,0,0-2.333,2.539c-.729,1.016-1.459,2.177-2.187,3.338-.146.218-.292.508-.438.726s-.292.508-.438.726c-.583.943-.364.653-.438.725h-.073l-.146-.073c-.511-.29-.948-.508-1.385-.725a14.811,14.811,0,0,0-2.406-.943c-1.385-.436-2.26-.363-2.406,0s.51.871,1.677,1.668c.583.363,1.24.871,2.041,1.379.364.29.8.508,1.166.8a10.475,10.475,0,0,1,1.094.8c.438.29.875.653,1.385.943.656-1.016,1.313-2.032,1.969-3.12.146-.218.292-.508.438-.726s.292-.508.438-.725c.729-1.234,1.385-2.4,1.968-3.411a20.955,20.955,0,0,1,1.6-2.467C155.054,106.235,156,105.8,155.928,105.292Z" transform="translate(-17.387 -14.366)" fill="#333"/>
    <path id="Path_2624" data-name="Path 2624" d="M14.957,42.57c.219.145.51.073.875-.073a4.333,4.333,0,0,1,1.458-.29,1.505,1.505,0,0,1,1.239.726,1.362,1.362,0,0,1,.073.8,5.045,5.045,0,0,1-.437,1.234c-.073.145-.219.363-.292.508a3.075,3.075,0,0,0-.365.508c-.219.218-.365.435-.51.581l-.073.073h-.073c-.073,0,0,.073-.146-.145a3.159,3.159,0,0,1-.438-.508c-.146-.145-.292-.363-.437-.508a5.414,5.414,0,0,1-.51-.871,3.352,3.352,0,0,1-.292-1.379.458.458,0,0,0-.073-.653c-.146-.145-.51-.073-.875.29a2.636,2.636,0,0,0-.656,2.322,6.517,6.517,0,0,0,.437,1.6,6.711,6.711,0,0,0,.365.726c.146.218.292.508.51.8a3.639,3.639,0,0,0,1.094.943,2.062,2.062,0,0,0,1.6.218,1.973,1.973,0,0,0,.8-.363,1.279,1.279,0,0,0,.365-.29l.146-.145.146-.073c.292-.29.51-.581.729-.8.146-.218.365-.508.51-.726.146-.29.292-.508.437-.8a6.149,6.149,0,0,0,.656-2.25,3.838,3.838,0,0,0-.656-2.467,3.449,3.449,0,0,0-1.823-1.306,3.429,3.429,0,0,0-3.791,1.379A.846.846,0,0,0,14.957,42.57Z" transform="translate(0 -5.489)" fill="#333"/>
    <path id="Path_2625" data-name="Path 2625" d="M176.211,181.539c.219.145.51.073.875-.073a4.333,4.333,0,0,1,1.458-.29,1.5,1.5,0,0,1,1.24.726,1.359,1.359,0,0,1,.073.8,5.082,5.082,0,0,1-.438,1.234c-.073.145-.219.363-.292.508a3.045,3.045,0,0,0-.364.508c-.219.218-.365.435-.511.58l-.073.072h-.073c-.073,0,0,.073-.146-.145a3.2,3.2,0,0,1-.437-.508c-.146-.146-.292-.363-.438-.508a5.273,5.273,0,0,1-.51-.871,3.343,3.343,0,0,1-.292-1.378.7.7,0,0,0-.073-.653c-.146-.145-.51-.073-.874.291a2.635,2.635,0,0,0-.657,2.322,6.552,6.552,0,0,0,.438,1.6,6.822,6.822,0,0,0,.364.726c.146.218.292.508.511.8a3.638,3.638,0,0,0,1.094.943,2.063,2.063,0,0,0,1.6.218,1.973,1.973,0,0,0,.8-.363,1.27,1.27,0,0,0,.365-.291l.146-.145.146-.072c.291-.29.51-.58.729-.8.146-.218.365-.508.511-.725.146-.291.291-.508.437-.8a6.154,6.154,0,0,0,.657-2.249,3.839,3.839,0,0,0-.657-2.468A3.449,3.449,0,0,0,180,179.217a3.43,3.43,0,0,0-3.792,1.378C175.993,181.1,175.993,181.467,176.211,181.539Z" transform="translate(-22.066 -24.506)" fill="#a8a8a8"/>
    <path id="Path_2626" data-name="Path 2626" d="M221.319,116.048c.218.145.51.073.874-.073a4.338,4.338,0,0,1,1.459-.29,1.506,1.506,0,0,1,1.239.725,1.364,1.364,0,0,1,.073.8,4.993,4.993,0,0,1-.438,1.233c-.073.146-.218.363-.292.508a3.07,3.07,0,0,0-.364.508c-.218.218-.364.436-.51.581l-.073.073h-.073c-.073,0,0,.073-.146-.145a3.13,3.13,0,0,1-.438-.508c-.146-.145-.292-.363-.438-.508a5.435,5.435,0,0,1-.51-.871,3.356,3.356,0,0,1-.292-1.378.458.458,0,0,0-.073-.653c-.146-.145-.511-.073-.875.29a2.638,2.638,0,0,0-.656,2.323,6.476,6.476,0,0,0,.438,1.6,6.586,6.586,0,0,0,.364.726c.146.218.292.508.51.8a3.649,3.649,0,0,0,1.094.943,2.065,2.065,0,0,0,1.6.218,1.969,1.969,0,0,0,.8-.363,1.278,1.278,0,0,0,.364-.29l.146-.145.146-.073c.292-.29.51-.581.729-.8.146-.218.364-.508.51-.726.146-.29.292-.508.438-.8a6.153,6.153,0,0,0,.656-2.25,3.837,3.837,0,0,0-.656-2.467,3.447,3.447,0,0,0-1.823-1.306,3.429,3.429,0,0,0-3.791,1.378C221.173,115.613,221.173,115.9,221.319,116.048Z" transform="translate(-28.239 -15.544)" fill="#333"/>
    <path id="Path_2627" data-name="Path 2627" d="M114.873,174.342c-.875-.363-1.458.072-1.9.8,0,.073,0,.073-.073.145,0,.072,0,.072-.073.145a1.329,1.329,0,0,0,.729,1.887,1.446,1.446,0,0,0,1.9-.8c0-.073,0-.073.073-.145,0-.073.073-.073.073-.145C115.82,175.431,115.675,174.632,114.873,174.342Z" transform="translate(-13.589 -23.839)" fill="#a8a8a8"/>
    <path id="Path_2628" data-name="Path 2628" d="M32.536,143.692a1.315,1.315,0,0,0,0,1.959l.073.073.073.073a1.327,1.327,0,0,0,1.969,0,1.375,1.375,0,0,0,0-1.959l-.073-.073-.073-.072A1.33,1.33,0,0,0,32.536,143.692Z" transform="translate(-2.559 -19.603)" fill="#a8a8a8"/>
    <path id="Path_2629" data-name="Path 2629" d="M73.262,0c-.437,0-.8.508-.875,1.234a6.8,6.8,0,0,0,.438,2.975c.073.145.073.218.146.363.073.073.073.218.146.363a6.589,6.589,0,0,0,1.75,2.395c.583.508,1.167.581,1.531.29.656-.581,0-2.032-.729-3.773l-.146-.363-.073-.29C74.648,1.451,74.137,0,73.262,0Z" transform="translate(-8.07)" fill="#a8a8a8"/>
    <path id="Path_2630" data-name="Path 2630" d="M125.814,31.813c-.657-.653-1.677-.218-2.7.726l-.146.145-.146.145c-.948,1.016-1.385,2.032-.729,2.685.583.581,1.676.218,2.7-.726l.146-.145.146-.145C126.032,33.482,126.47,32.394,125.814,31.813Z" transform="translate(-14.832 -4.311)" fill="#a8a8a8"/>
    <path id="Path_2631" data-name="Path 2631" d="M197.3,45.27c-.656-.653-1.02-.871-1.166-.8-.073.145.146.508.8,1.161.583.581,1.021.871,1.167.8C198.18,46.285,197.962,45.85,197.3,45.27Z" transform="translate(-25.005 -6.084)" fill="#a8a8a8"/>
    <path id="Path_2632" data-name="Path 2632" d="M171.971,18.243c-.218,0-.437.943-.8,2.612-.146.8-.364,1.814-.656,2.975a16.145,16.145,0,0,1-1.312,3.7,5.861,5.861,0,0,1-1.239,1.742,7.867,7.867,0,0,1-1.75,1.306,6.923,6.923,0,0,1-4.885.363,7.816,7.816,0,0,1-4.52-3.12,4.839,4.839,0,0,1-.875-2.54,4.135,4.135,0,0,1,.656-2.612,3.521,3.521,0,0,1,1.531-1.379,1.716,1.716,0,0,1,.8-.145,1.383,1.383,0,0,1,.656.218,5.587,5.587,0,0,1,.875.943,6.442,6.442,0,0,1,.583,1.234,6.155,6.155,0,0,1,.146,2.83,5.852,5.852,0,0,1-1.094,2.467,10.055,10.055,0,0,1-1.969,1.959,22.867,22.867,0,0,1-4.958,2.54c-1.677.653-3.208,1.161-4.666,1.6a68.037,68.037,0,0,1-7,1.451c-1.677.29-2.625.435-2.625.653s.948.435,2.7.508A30.345,30.345,0,0,0,149,36.893a31.068,31.068,0,0,0,5.031-1.379A24.131,24.131,0,0,0,159.65,32.9a10.523,10.523,0,0,0,2.625-2.467,12.721,12.721,0,0,0,1.02-1.669,8.115,8.115,0,0,0,.583-1.887,7.722,7.722,0,0,0-.146-4.064,9.454,9.454,0,0,0-.874-1.959,7.122,7.122,0,0,0-1.6-1.742,3.714,3.714,0,0,0-2.114-.726,6.016,6.016,0,0,0-2.042.363,6.257,6.257,0,0,0-2.843,2.467,7.469,7.469,0,0,0-1.021,4.281,7.931,7.931,0,0,0,1.385,3.919,10.366,10.366,0,0,0,6.125,4.064,9.154,9.154,0,0,0,3.427.145,7.969,7.969,0,0,0,3.135-1.016,8.989,8.989,0,0,0,2.333-1.959,9.758,9.758,0,0,0,1.385-2.322,14.787,14.787,0,0,0,1.094-4.281,16.731,16.731,0,0,0,.146-3.193C172.336,19.187,172.19,18.243,171.971,18.243Z" transform="translate(-17.171 -2.496)" fill="#333"/>
  </g>
</svg>
