<svg xmlns="http://www.w3.org/2000/svg" xmlns:xlink="http://www.w3.org/1999/xlink" width="28.164" height="24" viewBox="0 0 28.164 24">
  <defs>
    <clipPath id="clip-path">
      <rect id="Rectangle_10" data-name="Rectangle 10" width="28.164" height="24" transform="translate(-2.082)" fill="#fff"/>
    </clipPath>
  </defs>
  <g id="Mask_Group_7" data-name="Mask Group 7" transform="translate(2.082)" clip-path="url(#clip-path)">
    <g id="Group_37450" data-name="Group 37450" transform="translate(-2.082 0.003)">
      <path id="Path_99764" data-name="Path 99764" d="M1.561,14.611H0V12.531H1.62a.174.174,0,0,0,.185-.118L5.693,4.145a.509.509,0,0,0,.04-.2v-.8h2.08V2.088H7.3V1.838A8.2,8.2,0,0,1,7.33.859,1.012,1.012,0,0,1,8.378,0,1.03,1.03,0,0,1,9.367.95c.025.367,0,.737,0,1.121h-.5V3.124h6.253V2.088h-.512V1.642a5.836,5.836,0,0,1,.026-.78A1.019,1.019,0,0,1,15.69,0a1.033,1.033,0,0,1,.989.951c.024.33.007.659.009.994a1.07,1.07,0,0,1-.005.125h-.5V3.117h6.254V2.088H21.92V1.538a4.811,4.811,0,0,1,.023-.667,1.029,1.029,0,0,1,2.043.067c.03.33.01.659.011.994a1.111,1.111,0,0,1-.007.141h-.5V3.126h2.066v8.349H24.01v1.049h4.155V14.6H26.612V24H1.561Zm5.217-4.175H24.516V4.175H6.778ZM24,15.665H18.786v6.262h5.207Zm-7.3,0H11.476v6.252h5.217ZM4.164,21.917H9.38V15.665H4.164ZM5.739,11.481V6.564L5.7,6.556l-2.8,5.962H7.287v-1.04Zm17.214.007H18.786v1.037h4.163Zm-5.22,0H13.57v1.037h4.163Zm-5.215,0H8.349v1.037h4.169Z" transform="translate(0 0)"/>
      <path id="Path_99765" data-name="Path 99765" d="M31.7,29.38a.516.516,0,1,1-.514.521.525.525,0,0,1,.514-.521" transform="translate(-22.319 -21.026)"/>
      <path id="Path_99766" data-name="Path 99766" d="M37.727,29.9a.516.516,0,1,1-.5-.524.526.526,0,0,1,.5.524" transform="translate(-26.261 -21.025)"/>
      <path id="Path_99767" data-name="Path 99767" d="M70.778,18.876a.516.516,0,1,1-.523-.513.526.526,0,0,1,.523.513" transform="translate(-49.913 -13.141)"/>
      <path id="Path_99768" data-name="Path 99768" d="M48.221,29.38a.516.516,0,1,1-.508.515.526.526,0,0,1,.508-.515" transform="translate(-34.147 -21.025)"/>
      <path id="Path_99769" data-name="Path 99769" d="M54.252,29.9a.516.516,0,1,1-.506-.516.526.526,0,0,1,.506.516" transform="translate(-38.087 -21.025)"/>
      <path id="Path_99770" data-name="Path 99770" d="M59.247,29.38a.516.516,0,1,1-.519.516.526.526,0,0,1,.519-.516" transform="translate(-42.03 -21.025)"/>
      <path id="Path_99771" data-name="Path 99771" d="M64.753,29.38a.516.516,0,1,1-.515.524.526.526,0,0,1,.515-.524" transform="translate(-45.972 -21.026)"/>
      <path id="Path_99772" data-name="Path 99772" d="M70.264,30.412a.516.516,0,1,1,.514-.521.526.526,0,0,1-.514.521" transform="translate(-49.914 -21.025)"/>
      <path id="Path_99773" data-name="Path 99773" d="M76.286,29.9a.516.516,0,1,1-.509-.515.526.526,0,0,1,.509.515" transform="translate(-53.856 -21.025)"/>
      <path id="Path_99774" data-name="Path 99774" d="M59.24,19.393a.516.516,0,1,1,.522-.519.527.527,0,0,1-.522.519" transform="translate(-42.029 -13.141)"/>
      <path id="Path_99775" data-name="Path 99775" d="M53.729,18.363a.516.516,0,1,1-.509.526.526.526,0,0,1,.509-.526" transform="translate(-38.087 -13.141)"/>
      <path id="Path_99776" data-name="Path 99776" d="M48.226,18.363a.516.516,0,1,1-.514.525.526.526,0,0,1,.514-.525" transform="translate(-34.146 -13.141)"/>
      <path id="Path_99777" data-name="Path 99777" d="M42.713,19.393a.516.516,0,1,1,.522-.514.527.527,0,0,1-.522.514" transform="translate(-30.203 -13.14)"/>
      <path id="Path_99778" data-name="Path 99778" d="M37.727,18.877a.516.516,0,1,1-.509-.515.525.525,0,0,1,.509.515" transform="translate(-26.261 -13.14)"/>
      <path id="Path_99779" data-name="Path 99779" d="M31.7,18.363a.516.516,0,1,1-.516.523.526.526,0,0,1,.516-.523" transform="translate(-22.319 -13.141)"/>
      <path id="Path_99780" data-name="Path 99780" d="M76.286,24.382a.516.516,0,1,1-.526-.51.525.525,0,0,1,.526.51" transform="translate(-53.855 -17.084)"/>
      <path id="Path_99781" data-name="Path 99781" d="M70.778,24.392a.516.516,0,1,1-.5-.522.526.526,0,0,1,.5.522" transform="translate(-49.914 -17.083)"/>
      <path id="Path_99782" data-name="Path 99782" d="M64.755,23.872a.516.516,0,1,1-.517.517.526.526,0,0,1,.517-.517" transform="translate(-45.972 -17.084)"/>
      <path id="Path_99783" data-name="Path 99783" d="M59.239,24.9a.516.516,0,1,1,.522-.5.527.527,0,0,1-.522.5" transform="translate(-42.03 -17.083)"/>
      <path id="Path_99784" data-name="Path 99784" d="M53.737,23.872a.516.516,0,1,1-.516.523.526.526,0,0,1,.516-.523" transform="translate(-38.088 -17.084)"/>
      <path id="Path_99785" data-name="Path 99785" d="M48.221,23.871a.516.516,0,1,1-.509.526.526.526,0,0,1,.509-.526" transform="translate(-34.145 -17.083)"/>
      <path id="Path_99786" data-name="Path 99786" d="M43.235,24.381a.516.516,0,1,1-.514-.51.527.527,0,0,1,.514.51" transform="translate(-30.203 -17.083)"/>
      <path id="Path_99787" data-name="Path 99787" d="M37.218,24.9a.516.516,0,1,1,.509-.527.528.528,0,0,1-.509.527" transform="translate(-26.261 -17.084)"/>
      <path id="Path_99788" data-name="Path 99788" d="M31.694,24.9a.516.516,0,1,1,.523-.5.527.527,0,0,1-.523.5" transform="translate(-22.317 -17.083)"/>
      <path id="Path_99789" data-name="Path 99789" d="M64.746,18.363a.516.516,0,1,1-.51.53.526.526,0,0,1,.51-.53" transform="translate(-45.971 -13.141)"/>
      <path id="Path_99790" data-name="Path 99790" d="M75.764,19.393a.516.516,0,1,1,.524-.5.527.527,0,0,1-.524.5" transform="translate(-53.857 -13.142)"/>
      <path id="Path_99791" data-name="Path 99791" d="M43.235,29.9a.516.516,0,1,1-.517-.519.526.526,0,0,1,.517.519" transform="translate(-30.203 -21.026)"/>
    </g>
  </g>
</svg>
