<svg xmlns="http://www.w3.org/2000/svg" xmlns:xlink="http://www.w3.org/1999/xlink" width="24" height="24" viewBox="0 0 24 24">
  <defs>
    <clipPath id="clip-path">
      <rect id="Rectangle_10" data-name="Rectangle 10" width="24" height="24" fill="#fff"/>
    </clipPath>
  </defs>
  <g id="Mask_Group_10" data-name="Mask Group 10" clip-path="url(#clip-path)">
    <g id="Group_37456" data-name="Group 37456">
      <path id="Path_99796" data-name="Path 99796" d="M52.911,63.132h.534a.556.556,0,0,1-.109-.237,6.688,6.688,0,0,0-1.217-2.846l-.109,1.563a.436.436,0,0,0,.051-.009.447.447,0,0,1,.129,0,.839.839,0,0,1,.606.321.849.849,0,0,1,.185.655Z" transform="translate(-38.564 -44.523)"/>
      <path id="Path_99797" data-name="Path 99797" d="M34.452,61.591a.457.457,0,0,1,.161.005c.009,0,.021.005.036.005l-.109-1.563a6.673,6.673,0,0,0-1.222,2.846.52.52,0,0,1-.109.237h.539l-.072-.56a.855.855,0,0,1,.772-.97" transform="translate(-24.623 -44.515)"/>
      <path id="Path_99798" data-name="Path 99798" d="M43.611,74.135l.063-1.169H41.852l.063,1.169Z" transform="translate(-31.031 -54.099)"/>
      <rect id="Rectangle_8487" data-name="Rectangle 8487" width="1.195" height="2.262" transform="translate(17.741 20.296)"/>
      <path id="Path_99799" data-name="Path 99799" d="M60.829,72.967h-4.82c-.005,0-.015.005-.021.005s-.009-.005-.015-.005H54.918l-.149,1.169h6.06V72.967" transform="translate(-40.608 -54.1)"/>
      <path id="Path_99800" data-name="Path 99800" d="M56.27,58.9a.646.646,0,0,1-.109.482h3.047V54.988H54.317A7.185,7.185,0,0,1,56.27,58.9" transform="translate(-40.273 -40.77)"/>
      <path id="Path_99801" data-name="Path 99801" d="M42.153,47.973a1.126,1.126,0,1,0-1.123-1.129,1.126,1.126,0,0,0,1.123,1.129" transform="translate(-30.422 -33.899)"/>
      <path id="Path_99802" data-name="Path 99802" d="M34.957,59.583l-.109,1.912a.453.453,0,0,0,.407.476.462.462,0,0,0,.486-.393l.534-4.146a.628.628,0,0,0-.129-.462.594.594,0,0,0-.414-.218h-.109a.607.607,0,0,0-.462.275.121.121,0,0,1-.177.036.128.128,0,0,1-.041-.177.839.839,0,0,1,.342-.3l.135-1.912a2.938,2.938,0,0,0-.41-.362.128.128,0,1,1,.151-.206,3.591,3.591,0,0,1,.477.419.046.046,0,0,0,.021.021c.063.072.129.134.192.213a7,7,0,0,1,1.285,2.978.36.36,0,0,0,.342.29H37.5a.376.376,0,0,0,.275-.134.363.363,0,0,0,.077-.293c-.462-2.255-1.479-3.825-2.878-4.438a1.4,1.4,0,0,1-1.133.6,1.373,1.373,0,0,1-1.129-.6c-1.4.616-2.423,2.182-2.878,4.438a.355.355,0,0,0,.072.293.378.378,0,0,0,.276.134h.027a.358.358,0,0,0,.342-.29,6.983,6.983,0,0,1,1.285-2.978,2.675,2.675,0,0,1,.2-.213.047.047,0,0,1,.021-.021,2.892,2.892,0,0,1,.47-.419.128.128,0,1,1,.149.206,3.2,3.2,0,0,0-.4.357l.129,1.914a.824.824,0,0,1,.341.3.127.127,0,0,1-.036.177.124.124,0,0,1-.18-.036.615.615,0,0,0-.462-.276h-.086a.6.6,0,0,0-.554.683l.534,4.146a.464.464,0,0,0,.491.393.455.455,0,0,0,.4-.474l-.109-1.912a.005.005,0,0,1-.005-.005v-.005l-.084-1.584a.131.131,0,0,1,.12-.134.134.134,0,0,1,.141.123v.041h1.855v-.033a.137.137,0,0,1,.141-.123.13.13,0,0,1,.12.134l-.084,1.588h0" transform="translate(-22.122 -39.414)"/>
      <path id="Path_99803" data-name="Path 99803" d="M19.554,59.379h2.525a.6.6,0,0,1-.109-.482,7.152,7.152,0,0,1,1.948-3.909H19.553Z" transform="translate(-14.498 -40.77)"/>
      <path id="Path_99804" data-name="Path 99804" d="M19.978,72.967H18.924c-.005,0-.009.005-.015.005s-.015-.005-.021-.005H14.6v1.169h5.532Z" transform="translate(-10.822 -54.1)"/>
      <rect id="Rectangle_8488" data-name="Rectangle 8488" width="1.195" height="2.262" transform="translate(5.025 20.296)"/>
      <rect id="Rectangle_8489" data-name="Rectangle 8489" width="1.195" height="15.686" transform="translate(1.207 6.87)"/>
      <path id="Path_99805" data-name="Path 99805" d="M13.176,88.234H0v1.189H23.962V88.234Z" transform="translate(0 -65.42)"/>
      <rect id="Rectangle_8490" data-name="Rectangle 8490" width="1.195" height="15.686" transform="translate(21.559 6.87)"/>
      <rect id="Rectangle_8491" data-name="Rectangle 8491" width="7.515" height="4.622" transform="translate(16.447 1.989)"/>
      <path id="Path_99806" data-name="Path 99806" d="M39.713,21.418a.261.261,0,1,0-.261-.261.261.261,0,0,0,.261.261" transform="translate(-29.254 -15.493)"/>
      <path id="Path_99807" data-name="Path 99807" d="M42.284,22.171a.165.165,0,1,0,.165.165.163.163,0,0,0-.165-.165" transform="translate(-31.228 -16.439)"/>
      <path id="Path_99808" data-name="Path 99808" d="M45.3,23.248h-.937a.053.053,0,0,0-.057.051.059.059,0,0,0,.057.057H45.3a.056.056,0,0,0,.051-.057.049.049,0,0,0-.051-.051" transform="translate(-32.852 -17.237)"/>
      <path id="Path_99809" data-name="Path 99809" d="M45.3,21.951h-.937a.059.059,0,0,0-.057.057.056.056,0,0,0,.057.051H45.3A.055.055,0,0,0,45.353,22a.052.052,0,0,0-.051-.057" transform="translate(-32.852 -16.276)"/>
      <path id="Path_99810" data-name="Path 99810" d="M49.443,22.171a.165.165,0,1,1-.165.165.165.165,0,0,1,.165-.165" transform="translate(-36.537 -16.439)"/>
      <path id="Path_99811" data-name="Path 99811" d="M51.464,20.885a.266.266,0,0,0-.263.263.262.262,0,1,0,.263-.264" transform="translate(-37.962 -15.485)"/>
      <path id="Path_99812" data-name="Path 99812" d="M43.01,10.608c0-.005.005-.009.005-.015V8.455a.436.436,0,0,0-.436-.436H39.9a.436.436,0,0,0-.436.436v2.138c0,.005.005.009.005.015.327.748,3.216.748,3.549,0" transform="translate(-29.253 -5.943)"/>
      <rect id="Rectangle_8492" data-name="Rectangle 8492" width="7.515" height="4.622" transform="translate(0 1.989)"/>
      <rect id="Rectangle_8493" data-name="Rectangle 8493" width="8.026" height="8.672" transform="translate(8.034)"/>
      <path id="Path_99813" data-name="Path 99813" d="M40.111,2.656H34.38a.392.392,0,0,0-.391.391V9.564a.392.392,0,0,0,.391.391h5.731a.392.392,0,0,0,.391-.391V3.047a.392.392,0,0,0-.391-.391M39.981,9.3a.131.131,0,0,1-.13.13H34.64a.131.131,0,0,1-.13-.13v-6a.131.131,0,0,1,.13-.13h5.213a.131.131,0,0,1,.13.13Z" transform="translate(-25.2 -1.969)" fill="#fff"/>
      <path id="Path_99814" data-name="Path 99814" d="M39.7,17.337l.327.188a.131.131,0,0,1-.129.227l-1.455-.831-1.435.862v1.594h4.952v-2l-1.181-.965Z" transform="translate(-27.442 -12.172)" fill="#fff"/>
      <path id="Path_99815" data-name="Path 99815" d="M40.576,10.235a.522.522,0,1,1-.522-.522.522.522,0,0,1,.522.522" transform="translate(-29.311 -7.201)" fill="#fff"/>
    </g>
  </g>
</svg>
