<svg xmlns="http://www.w3.org/2000/svg" width="56" height="56" viewBox="0 0 56 56">
  <g id="Campaign" transform="translate(-376 -246)">
    <rect id="Rectangle_7018" data-name="Rectangle 7018" width="56" height="56" rx="6" transform="translate(376 246)" fill="#e2edf8"/>
    <g id="Not_OK" data-name="Not OK" transform="translate(-0.991 11.084)">
      <path id="Path_99583" data-name="Path 99583" d="M37.66,17.1a1.206,1.206,0,0,0-.736,1.538,11.334,11.334,0,0,1,.645,3.8c0,4.644-6.635,13.379-10.121,17.492-1.056-1.243-2.889-3.48-4.711-6.032A1.206,1.206,0,1,0,20.771,35.3a89.825,89.825,0,0,0,5.778,7.3,1.206,1.206,0,0,0,1.81,0C28.836,42.063,40,29.535,40,22.484a13.747,13.747,0,0,0-.784-4.608A1.206,1.206,0,0,0,37.66,17.1Z" transform="translate(377.034 236.828)" fill="#006dd5"/>
      <path id="Path_99584" data-name="Path 99584" d="M37.108,4.881a1.206,1.206,0,0,0-1.707,0L32.385,7.9A12.112,12.112,0,0,0,23.476,4c-6.912,0-12.54,5.953-12.54,13.27,0,2.256,1.074,5.151,3.257,8.818l-3.275,3.275a1.206,1.206,0,1,0,1.7,1.707L37.108,6.588a1.206,1.206,0,0,0,0-1.707ZM21.546,18.754a3.215,3.215,0,1,1,4.5-4.5Z" transform="translate(381 242)" fill="#006dd5"/>
    </g>
  </g>
</svg>
