<svg xmlns="http://www.w3.org/2000/svg" width="16.792" height="17.592" viewBox="0 0 16.792 17.592">
  <g id="noun-standard-5439868" transform="translate(0)">
    <path id="Path_104119" data-name="Path 104119" d="M63.431,49.064a4.585,4.585,0,0,0-5.876-.591,4.8,4.8,0,0,0-1.714,5.763,4.635,4.635,0,0,0,5.207,2.839,4.724,4.724,0,0,0,3.746-4.655,4.78,4.78,0,0,0-1.363-3.356Zm-3.29-2.691a5.96,5.96,0,0,1,5.816,4.868,6.074,6.074,0,0,1-3.546,6.767,5.865,5.865,0,0,1-7.2-2.228,6.138,6.138,0,0,1,.738-7.636,5.852,5.852,0,0,1,4.192-1.771Zm-2.356,6.719a.657.657,0,0,1-.062-.895.627.627,0,0,1,.874-.1l1.172.994,2.151-2.719a.628.628,0,0,1,.895-.1.658.658,0,0,1,.1.913l-2.557,3.232h0l-.007.009a.627.627,0,0,1-.895.084l-1.668-1.417Zm6.127-8.585.022.009a1.689,1.689,0,0,1,.394.63,2.829,2.829,0,0,0,.707,1.044,2.735,2.735,0,0,0,1.156.479,1.606,1.606,0,0,1,.68.25,1.671,1.671,0,0,1,.095.731,2.913,2.913,0,0,0,.207,1.258,2.86,2.86,0,0,0,.837.935c.245.2.492.407.526.559a1.743,1.743,0,0,1-.224.758,2.469,2.469,0,0,0,0,2.521,1.743,1.743,0,0,1,.224.758c-.035.151-.281.356-.526.559a2.863,2.863,0,0,0-.837.934,2.913,2.913,0,0,0-.207,1.258,1.672,1.672,0,0,1-.095.732,1.612,1.612,0,0,1-.68.25A2.184,2.184,0,0,0,64.329,59.7a1.677,1.677,0,0,1-.394.63,1.609,1.609,0,0,1-.739-.063,2.85,2.85,0,0,0-1.258-.069,2.938,2.938,0,0,0-1.088.614,1.673,1.673,0,0,1-.709.41,1.673,1.673,0,0,1-.709-.41,2.938,2.938,0,0,0-1.088-.614,2.85,2.85,0,0,0-1.258.069,1.609,1.609,0,0,1-.739.063,1.681,1.681,0,0,1-.394-.63,2.833,2.833,0,0,0-.707-1.043,2.74,2.74,0,0,0-1.156-.479,1.607,1.607,0,0,1-.68-.25,1.672,1.672,0,0,1-.095-.732,2.914,2.914,0,0,0-.207-1.258A2.863,2.863,0,0,0,52.27,55c-.245-.2-.491-.407-.526-.559a1.743,1.743,0,0,1,.224-.758,2.469,2.469,0,0,0,0-2.521,1.743,1.743,0,0,1-.224-.758c.035-.151.281-.356.526-.559a2.863,2.863,0,0,0,.837-.934,2.916,2.916,0,0,0,.207-1.259,1.671,1.671,0,0,1,.095-.731,1.606,1.606,0,0,1,.68-.25,2.735,2.735,0,0,0,1.155-.479,2.834,2.834,0,0,0,.707-1.043,1.684,1.684,0,0,1,.394-.63,1.612,1.612,0,0,1,.739.063,2.843,2.843,0,0,0,1.258.069,2.932,2.932,0,0,0,1.088-.614,1.676,1.676,0,0,1,.709-.41,1.676,1.676,0,0,1,.709.41,2.932,2.932,0,0,0,1.088.614,2.843,2.843,0,0,0,1.258-.069,2.709,2.709,0,0,1,.638-.087.585.585,0,0,0,.079.015Z" transform="translate(-51.744 -43.626)" fill="#bd467c" fill-rule="evenodd"/>
  </g>
</svg>
