<svg id="Group_41472" data-name="Group 41472" xmlns="http://www.w3.org/2000/svg" width="63.005" height="92.836" viewBox="0 0 63.005 92.836">
  <path id="Path_101320" data-name="Path 101320" d="M52.525,48.538l-2.3-3.682-2.3,3.682a2.891,2.891,0,0,1-1.751,1.273l-4.216,1.052,2.791,3.329a2.875,2.875,0,0,1,.667,2.064l-.305,4.333,4.023-1.63a2.893,2.893,0,0,1,2.168,0l4.023,1.63-.305-4.333a2.923,2.923,0,0,1,.667-2.064l2.791-3.329L54.26,49.811a2.9,2.9,0,0,1-1.735-1.273Z" transform="translate(-18.72 -5.171)" fill="#026dd5"/>
  <path id="Path_101321" data-name="Path 101321" d="M75.7,6.25H26.017a6.666,6.666,0,0,0-6.666,6.662V71.376a6.66,6.66,0,0,0,6.662,6.662H75.7a6.663,6.663,0,0,0,6.662-6.662V12.912A6.66,6.66,0,0,0,75.7,6.25ZM65,53.929l-3.493,4.16.377,5.421a4.371,4.371,0,0,1-6,4.357L50.857,65.83l-5.035,2.036a4.369,4.369,0,0,1-1.646.321,4.379,4.379,0,0,1-4.353-4.682l.377-5.421-3.493-4.16A4.369,4.369,0,0,1,39,46.874l5.272-1.313,2.879-4.606a4.527,4.527,0,0,1,7.416,0l2.879,4.606,5.272,1.313A4.372,4.372,0,0,1,65,53.929ZM38.738,30.394A2.889,2.889,0,0,1,41.629,27.5H60.092a2.891,2.891,0,0,1,0,5.782H41.629A2.889,2.889,0,0,1,38.738,30.394Zm27.348-8.509H35.629a2.891,2.891,0,1,1,0-5.782H66.086a2.891,2.891,0,1,1,0,5.782Z" transform="translate(-19.352 -6.25)" fill="#026dd5"/>
  <path id="Path_101322" data-name="Path 101322" d="M66.477,91.2H59.868V81.711H41.161l0,9.484H34.547a2.891,2.891,0,0,0,0,5.782h31.93a2.891,2.891,0,0,0,0-5.782Z" transform="translate(-19.008 -4.142)" fill="#026dd5"/>
</svg>
