<svg xmlns="http://www.w3.org/2000/svg" xmlns:xlink="http://www.w3.org/1999/xlink" width="88.03" height="147.015" viewBox="0 0 88.03 147.015">
  <defs>
    <clipPath id="clip-path">
      <path id="Path_101479" data-name="Path 101479" d="M203.21,197.336c-4.4.02-6.843-.18-7.252-.458-.09-.061-1.014-7.056,1.8-12.025.454-.818,1.9,1.068,1.9,1.068s.18.438.474.994a8.464,8.464,0,0,0,1.108,1.636,3,3,0,0,0,.769.63C203.427,190.9,203.128,195.123,203.21,197.336Z" transform="translate(-195.742 -184.647)" fill="#92e3a9" stroke="#263238" stroke-linecap="round" stroke-linejoin="round" stroke-width="1"/>
    </clipPath>
    <clipPath id="clip-path-2">
      <path id="Path_101483" data-name="Path 101483" d="M225.3,157.758s-5.424,18.058-11.068,18.962a13.2,13.2,0,0,1-1.963.564c-.078-2.213.221-6.438-1.194-8.16.65.36,1.378.27,2.078-.8a11.547,11.547,0,0,0,1.321-3.456c2.348-9.383,4.466-12.966,5.162-13.33C226.7,147.851,225.3,157.758,225.3,157.758Z" transform="translate(-211.07 -150.717)" fill="#92e3a9" stroke="#263238" stroke-linecap="round" stroke-linejoin="round" stroke-width="1"/>
    </clipPath>
    <clipPath id="clip-path-3">
      <path id="Path_101493" data-name="Path 101493" d="M245.25,146.41l-8.009-2.63-9.563,3.681-2.168,7.551a21.972,21.972,0,0,0-.131,11.632l1.366,5.2s-1.178,9.113-1.076,9.874,20.86.188,20.86.188l-2.544-12.43s3.509-14.811,3.023-20.839A2.569,2.569,0,0,0,245.25,146.41Z" transform="translate(-224.66 -143.78)" fill="#92e3a9" stroke="#263238" stroke-linecap="round" stroke-linejoin="round" stroke-width="1"/>
    </clipPath>
    <clipPath id="clip-path-4">
      <path id="Path_101499" data-name="Path 101499" d="M226.013,204.219l-.818,1.419.793.871-.818,1.9,1.481,1.865a8.311,8.311,0,0,1,4.421-2.111c2.822-.446,14.348,2.119,14.348,2.119l.037-3.252.045-3.473-14.725,1.661Z" transform="translate(-225.17 -203.56)" fill="#92e3a9" stroke="#263238" stroke-linecap="round" stroke-linejoin="round" stroke-width="1"/>
    </clipPath>
    <clipPath id="clip-path-5">
      <path id="Path_101504" data-name="Path 101504" d="M270.135,152.116a2.863,2.863,0,0,0-2.634-1.636c-1.321.037-2.957.646-3.767,3.145-1.489,4.61,1.82,20.913,1.82,20.913l5.317,9.632,5.559.07s4.982-3.272,4.552-7.121C280.622,173.847,272.478,156.93,270.135,152.116Z" transform="translate(-263.349 -150.479)" fill="#92e3a9" stroke="#263238" stroke-linecap="round" stroke-linejoin="round" stroke-width="1"/>
    </clipPath>
    <clipPath id="clip-path-6">
      <path id="Path_101510" data-name="Path 101510" d="M242.583,123.89a27.8,27.8,0,0,0,.6,8.135s3.374.994,3.354,1.526h0a49.237,49.237,0,0,0-9.33,15.624l-.274.744s-2.36-9.555-2.184-14.316L237,133.559l-.02,1.931a21.136,21.136,0,0,0-.241-5.632l-.131-.614,2.986-2.52Z" transform="translate(-234.737 -123.89)" fill="#fff" stroke="#263238" stroke-linecap="round" stroke-linejoin="round" stroke-width="1"/>
    </clipPath>
    <clipPath id="clip-path-7">
      <path id="Path_101531" data-name="Path 101531" d="M314.874,330.915l5.342-4.323L295.871,292.95l-2.311,1.869Z" transform="translate(-293.56 -292.95)" fill="#fff" stroke="#263238" stroke-linecap="round" stroke-linejoin="round" stroke-width="1"/>
    </clipPath>
    <clipPath id="clip-path-8">
      <path id="Path_101546" data-name="Path 101546" d="M263.358,214.737l-3.46,3.477s-7.612.192-11.677-1.661c-.495-.266-.957-.54-1.387-.818a19.309,19.309,0,0,1-5.215-4.561l-.409-.9.683-.941s.094,1.489,6.36,4.413c2.139,1,9.919,2.131,9.919,2.131A31.46,31.46,0,0,0,263.358,214.737Z" transform="translate(-241.21 -209.33)" fill="#92e3a9" stroke="#263238" stroke-linecap="round" stroke-linejoin="round" stroke-width="1"/>
    </clipPath>
    <clipPath id="clip-path-9">
      <path id="Path_101550" data-name="Path 101550" d="M236.459,208.31l-.491.781a7.391,7.391,0,0,0-.916,5.726L237.6,225.01l5.227,1.5-5.469-10.43.078-6.409A1.53,1.53,0,0,0,236.459,208.31Z" transform="translate(-234.833 -208.31)" fill="#92e3a9" stroke="#263238" stroke-linecap="round" stroke-linejoin="round" stroke-width="1"/>
    </clipPath>
  </defs>
  <g id="Urban_Shopper_Sally" data-name="Urban Shopper  Sally" transform="translate(-172.745 -85.938)">
    <path id="Path_101447" data-name="Path 101447" d="M243.64,298.3l2.781,12.594a37.019,37.019,0,0,0,4.115,10.565l12.438,21.449,5.444-1.849s-2.953-5.775-5.109-11.387c-2.274-5.886-4.536-11.387-8.45-16.361h0l-.409-14.5Z" transform="translate(-41.747 -125.241)" fill="#fff" stroke="#263238" stroke-linecap="round" stroke-linejoin="round" stroke-width="0.5"/>
    <path id="Path_101448" data-name="Path 101448" d="M217.62,303.531s-6.381,39.842-5.9,39.527,6.058.078,6.058.078l4.5-15.653a58.035,58.035,0,0,0,2.1-11.829l.335-4.651,5.415-12.68-9.567-.115C220.717,298.2,217.62,303.531,217.62,303.531Z" transform="translate(-22.869 -125.187)" fill="#fff" stroke="#263238" stroke-linecap="round" stroke-linejoin="round" stroke-width="0.5"/>
    <path id="Path_101449" data-name="Path 101449" d="M207.924,252.12v.045a1.419,1.419,0,0,0-.454-.065C207.593,252.1,207.744,252.1,207.924,252.12Z" transform="translate(-20.371 -97.937)" fill="#92e3a9" stroke="#263238" stroke-linecap="round" stroke-linejoin="round" stroke-width="1"/>
    <path id="Path_101450" data-name="Path 101450" d="M201.018,230.586a1.5,1.5,0,0,1-1.562,1.853c-3.591-.262-10.7-.789-11.51-.883a3.325,3.325,0,0,0-.409,0,3.152,3.152,0,0,0-.429,0c-.818.074-8.814.442-12.545.609a1.5,1.5,0,0,1-1.534-1.787l2.52-12.8a2.56,2.56,0,0,1,2.54-2.045l17.281.209a2.552,2.552,0,0,1,2.454,1.939Z" transform="translate(0 -76.325)" fill="#999" stroke="#263238" stroke-linecap="round" stroke-linejoin="round" stroke-width="0.5"/>
    <path id="Path_101451" data-name="Path 101451" d="M175.62,238.61l1.023.168a90.909,90.909,0,0,0,25.085.646h0" transform="translate(-1.549 -89.965)" fill="none" stroke="#263238" stroke-linecap="round" stroke-linejoin="round" stroke-width="0.5"/>
    <path id="Path_101452" data-name="Path 101452" d="M194.79,218.86c1.775,5.317,4.286,12.4,4.978,12.88a.708.708,0,0,0,.409.155c.323,0,.511-.36.634-.659q2.454-6.037,4.88-12.066" transform="translate(-12.878 -78.293)" fill="none" stroke="#263238" stroke-linecap="round" stroke-linejoin="round" stroke-width="0.5"/>
    <path id="Path_101453" data-name="Path 101453" d="M183.73,221.717c.266-1.043,1.051-1.358,2.376-1.227" transform="translate(-6.341 -79.239)" fill="none" stroke="#fff" stroke-linecap="round" stroke-linejoin="round" stroke-width="0.75"/>
    <path id="Path_101454" data-name="Path 101454" d="M178.75,234.073q.769-3.522,1.53-7.035c.025-.115.053-.229.078-.348" transform="translate(-3.398 -82.92)" fill="none" stroke="#fff" stroke-linecap="round" stroke-linejoin="round" stroke-width="0.75"/>
    <path id="Path_101455" data-name="Path 101455" d="M226.558,231.07a39.165,39.165,0,0,0,.515,9.755,51.434,51.434,0,0,1-.883,20.647h0l1.256.372a31.728,31.728,0,0,0,17.019.274h0c-.8-6.737-.45-10.336,2.487-16.451a31.842,31.842,0,0,0,1.841-7.264c.094-5.788-1.362-7.146-1.362-7.146S227.47,222.5,226.558,231.07Z" transform="translate(-31.434 -83.287)" fill="#263238" stroke="#263238" stroke-linecap="round" stroke-linejoin="round" stroke-width="1"/>
    <path id="Path_101456" data-name="Path 101456" d="M200.377,407.86s-2.192,9.7-2.671,9.7-5.8,4.552-5.154,4.4,7.653.1,7.653.1l4.679-4.732.74,4.8,2.393.029.094-7.816L205.792,410l.663-2.045Z" transform="translate(-11.524 -189.989)" fill="#263238" stroke="#263238" stroke-linecap="round" stroke-linejoin="round" stroke-width="1"/>
    <path id="Path_101457" data-name="Path 101457" d="M289.432,404.583s3.661,9.248,3.272,9.514a6.027,6.027,0,0,1-1,2.331,16.669,16.669,0,0,1-3.272,2.6c5.419,1.342,7.669-1.485,7.669-1.485l2.38-7.7,3.317,3.546,1.992-1.325-4.332-6.512-1.329-.307a5.047,5.047,0,0,1-3.252-2.43h0Z" transform="translate(-68.217 -187.01)" fill="#263238" stroke="#263238" stroke-linecap="round" stroke-linejoin="round" stroke-width="1"/>
    <path id="Path_101458" data-name="Path 101458" d="M188.5,167.624c-1.08,1.366-1.342,1.587-2.781,3.6-.671-2.573-1.247-2.577-3.824-10.086,0,0-4.16-3.98-4.119-4.376.176-1.7.434-4.765.434-4.765l4.176-.409.135,5.395.928-1.636.409-1.865s.033-.982.687-1.051.339,2.663.6,3.489a5.752,5.752,0,0,1-.794,4.532Z" transform="translate(-2.825 -38.538)" fill="#fff" stroke="#263238" stroke-linecap="round" stroke-linejoin="round" stroke-width="0.5"/>
    <path id="Path_101459" data-name="Path 101459" d="M184.649,141.131v.045c0,.033-.025.3-.041.409s-.041.311-.065.466-.057.38-.086.573v.053c-.02.155-.049.307-.07.466s-.041.315-.074.47-.037.241-.057.364c-.033.2-.053.409-.086.609s-.061.409-.094.609c-.025.139-.037.282-.057.409,0,.074-.09.56-.18,1.178-.2,1.264-.474,3.076-.474,3.076v.049h0v.078a.278.278,0,0,1-.078.172,1.157,1.157,0,0,1-.323.184,1.633,1.633,0,0,1-.339.1,3.846,3.846,0,0,1-.409.074,6.075,6.075,0,0,1-.9.074h-.556a1.261,1.261,0,0,1-.3-.025l-.29-.049a3.407,3.407,0,0,1-.6-.151,1.418,1.418,0,0,1-.483-.245c-.02,0-.037-.033-.037-.061l-.074-.548a3.382,3.382,0,0,0-.057-.45c-.029-.225-.053-.446-.082-.671l-.061-.47c-.025-.209-.053-.409-.078-.626a2.728,2.728,0,0,0-.053-.409v-.155c-.02-.168-.045-.38-.061-.5s-.139-1.108-.217-1.767c-.041-.323-.074-.577-.082-.638-.025-.2-.053-.409-.078-.609s-.057-.446-.082-.667a1.663,1.663,0,0,0-.033-.25c-.029-.229-.061-.454-.086-.679,0-.143-.033-.286-.041-.434a.168.168,0,0,1,0-.045.16.16,0,0,1,.041-.127l.033-.029a.727.727,0,0,1,.184-.1,1.149,1.149,0,0,1,.2-.065,6.254,6.254,0,0,1,.908-.18c.2-.025.409-.041.6-.057.278-.025.548-.037.818-.049h1.751l.344.029.409.029.524.07.192.033a4.063,4.063,0,0,1,.552.151.106.106,0,0,1,.061.029.208.208,0,0,1,.053.049.274.274,0,0,1,.02.213Z" transform="translate(-2.929 -32.001)" fill="#92e3a9"/>
    <path id="Path_101460" data-name="Path 101460" d="M188.77,162.743a.524.524,0,0,0,.172-.053" transform="translate(-9.32 -45.097)" fill="#92e3a9"/>
    <path id="Path_101461" data-name="Path 101461" d="M182.29,162.63a3.358,3.358,0,0,0,.937.16,6.488,6.488,0,0,0,.847-.02" transform="translate(-5.49 -45.062)" fill="#92e3a9"/>
    <path id="Path_101462" data-name="Path 101462" d="M184.465,139.21a.352.352,0,0,1-.053.119.36.36,0,0,1-.245.164h0a.274.274,0,0,0-.074-.192.164.164,0,0,0-.053-.053.143.143,0,0,0-.061-.029,4.054,4.054,0,0,0-.552-.147l-.192-.033-.524-.074c-.127,0-.262-.02-.409-.033l-.344-.02h-1.751c-.274,0-.548.025-.818.049a4.829,4.829,0,0,0-.6.057,6.252,6.252,0,0,0-.908.18,1.63,1.63,0,0,0-.2.07.71.71,0,0,0-.184.094.244.244,0,0,0-.033.033.159.159,0,0,0-.041.127.167.167,0,0,0,0,.045h-.029a.339.339,0,0,1-.233-.119h0a.327.327,0,0,1-.041-.176,4.382,4.382,0,0,1,.057-.732.347.347,0,0,1,.045-.139.5.5,0,0,1,.274-.192,3.463,3.463,0,0,1,.409-.119l.515-.11c.29-.053.593-.09.888-.127.143,0,.286-.029.409-.033l.462-.029a5.208,5.208,0,0,0,.564-.02,1.838,1.838,0,0,0,.213,0h.659a6.561,6.561,0,0,1,.8.07c.266.033.429.053.646.094l.368.07.458.11a1.354,1.354,0,0,1,.2.078l.131.057a.323.323,0,0,1,.176.245A5.9,5.9,0,0,1,184.465,139.21Z" transform="translate(-2.434 -30.37)" fill="#92e3a9"/>
    <path id="Path_101463" data-name="Path 101463" d="M184.659,136.306a.193.193,0,0,1,0,.049h-.02a1.353,1.353,0,0,0-.2-.078l-.458-.11-.368-.07c-.217-.041-.429-.07-.646-.094s-.532-.061-.8-.07h-.659a1.839,1.839,0,0,1-.213,0c-.188,0-.376.02-.564.02l-.462.029a1.676,1.676,0,0,0-.409.033c-.295.037-.6.074-.888.127l-.515.11a3.461,3.461,0,0,0-.409.119h0a.332.332,0,0,1,.02-.127c.033-.249.057-.552.094-.818a.2.2,0,0,1,.086-.143,1.228,1.228,0,0,1,.262-.164,4.624,4.624,0,0,1,.605-.213c.2-.049.409-.094.6-.131.119-.02.233-.037.352-.049l.258-.033h.217l.344-.025h.9c.176,0,.409.037.593.057l.331.045a3.139,3.139,0,0,1,.409.065,5.778,5.778,0,0,1,.867.237,1.854,1.854,0,0,1,.5.254.282.282,0,0,1,.135.184A5.876,5.876,0,0,0,184.659,136.306Z" transform="translate(-2.984 -28.538)" fill="#92e3a9"/>
    <path id="Path_101464" data-name="Path 101464" d="M184.649,141.131v.045c0,.033-.025.3-.041.409s-.041.311-.065.466-.057.38-.086.573v.053c-.02.155-.049.307-.07.466s-.041.315-.074.47-.037.241-.057.364c-.033.2-.053.409-.086.609s-.061.409-.094.609c-.025.139-.037.282-.057.409,0,.074-.09.56-.18,1.178-.2,1.264-.474,3.076-.474,3.076v.049h0v.078a.278.278,0,0,1-.078.172,1.157,1.157,0,0,1-.323.184,1.633,1.633,0,0,1-.339.1,3.846,3.846,0,0,1-.409.074,6.075,6.075,0,0,1-.9.074h-.556a1.261,1.261,0,0,1-.3-.025l-.29-.049a3.407,3.407,0,0,1-.6-.151,1.418,1.418,0,0,1-.483-.245c-.02,0-.037-.033-.037-.061l-.074-.548a3.382,3.382,0,0,0-.057-.45c-.029-.225-.053-.446-.082-.671l-.061-.47c-.025-.209-.053-.409-.078-.626a2.728,2.728,0,0,0-.053-.409v-.155c-.02-.168-.045-.38-.061-.5s-.139-1.108-.217-1.767c-.041-.323-.074-.577-.082-.638-.025-.2-.053-.409-.078-.609s-.057-.446-.082-.667a1.663,1.663,0,0,0-.033-.25c-.029-.229-.061-.454-.086-.679,0-.143-.033-.286-.041-.434a.168.168,0,0,1,0-.045.16.16,0,0,1,.041-.127l.033-.029a.727.727,0,0,1,.184-.1,1.149,1.149,0,0,1,.2-.065,6.254,6.254,0,0,1,.908-.18c.2-.025.409-.041.6-.057.278-.025.548-.037.818-.049h1.751l.344.029.409.029.524.07.192.033a4.063,4.063,0,0,1,.552.151.106.106,0,0,1,.061.029.208.208,0,0,1,.053.049.274.274,0,0,1,.02.213Z" transform="translate(-2.929 -32.001)" fill="#92e3a9" stroke="#263238" stroke-linecap="round" stroke-linejoin="round" stroke-width="1"/>
    <path id="Path_101465" data-name="Path 101465" d="M188.77,162.743a.524.524,0,0,0,.172-.053" transform="translate(-9.32 -45.097)" fill="none" stroke="#263238" stroke-linecap="round" stroke-linejoin="round" stroke-width="1"/>
    <path id="Path_101466" data-name="Path 101466" d="M182.29,162.63a3.358,3.358,0,0,0,.937.16,6.488,6.488,0,0,0,.847-.02" transform="translate(-5.49 -45.062)" fill="none" stroke="#263238" stroke-linecap="round" stroke-linejoin="round" stroke-width="1"/>
    <path id="Path_101467" data-name="Path 101467" d="M184.465,139.21a.352.352,0,0,1-.053.119.36.36,0,0,1-.245.164h0a.274.274,0,0,0-.074-.192.164.164,0,0,0-.053-.053.143.143,0,0,0-.061-.029,4.054,4.054,0,0,0-.552-.147l-.192-.033-.524-.074c-.127,0-.262-.02-.409-.033l-.344-.02h-1.751c-.274,0-.548.025-.818.049a4.829,4.829,0,0,0-.6.057,6.252,6.252,0,0,0-.908.18,1.63,1.63,0,0,0-.2.07.71.71,0,0,0-.184.094.244.244,0,0,0-.033.033.159.159,0,0,0-.041.127.167.167,0,0,0,0,.045h-.029a.339.339,0,0,1-.233-.119h0a.327.327,0,0,1-.041-.176,4.382,4.382,0,0,1,.057-.732.347.347,0,0,1,.045-.139.5.5,0,0,1,.274-.192,3.463,3.463,0,0,1,.409-.119l.515-.11c.29-.053.593-.09.888-.127.143,0,.286-.029.409-.033l.462-.029a5.208,5.208,0,0,0,.564-.02,1.838,1.838,0,0,0,.213,0h.659a6.561,6.561,0,0,1,.8.07c.266.033.429.053.646.094l.368.07.458.11a1.354,1.354,0,0,1,.2.078l.131.057a.323.323,0,0,1,.176.245A5.9,5.9,0,0,1,184.465,139.21Z" transform="translate(-2.434 -30.37)" fill="#fff" stroke="#263238" stroke-linecap="round" stroke-linejoin="round" stroke-width="1"/>
    <path id="Path_101468" data-name="Path 101468" d="M184.659,136.306a.193.193,0,0,1,0,.049h-.02a1.353,1.353,0,0,0-.2-.078l-.458-.11-.368-.07c-.217-.041-.429-.07-.646-.094s-.532-.061-.8-.07h-.659a1.839,1.839,0,0,1-.213,0c-.188,0-.376.02-.564.02l-.462.029a1.676,1.676,0,0,0-.409.033c-.295.037-.6.074-.888.127l-.515.11a3.461,3.461,0,0,0-.409.119h0a.332.332,0,0,1,.02-.127c.033-.249.057-.552.094-.818a.2.2,0,0,1,.086-.143,1.228,1.228,0,0,1,.262-.164,4.624,4.624,0,0,1,.605-.213c.2-.049.409-.094.6-.131.119-.02.233-.037.352-.049l.258-.033h.217l.344-.025h.9c.176,0,.409.037.593.057l.331.045a3.139,3.139,0,0,1,.409.065,5.778,5.778,0,0,1,.867.237,1.854,1.854,0,0,1,.5.254.282.282,0,0,1,.135.184A5.876,5.876,0,0,0,184.659,136.306Z" transform="translate(-2.984 -28.538)" fill="#fff" stroke="#263238" stroke-linecap="round" stroke-linejoin="round" stroke-width="1"/>
    <path id="Path_101469" data-name="Path 101469" d="M184.649,141.131v.045c0,.033-.025.3-.041.409s-.041.311-.065.466-.057.38-.086.573v.053c-.02.155-.049.307-.07.466s-.041.315-.074.47-.037.241-.057.364c-.033.2-.053.409-.086.609s-.061.409-.094.609c-.025.139-.037.282-.057.409,0,.074-.09.56-.18,1.178-.2,1.264-.474,3.076-.474,3.076v.049h0v.078a.278.278,0,0,1-.078.172,1.157,1.157,0,0,1-.323.184,1.633,1.633,0,0,1-.339.1,3.846,3.846,0,0,1-.409.074,6.075,6.075,0,0,1-.9.074h-.556a1.261,1.261,0,0,1-.3-.025l-.29-.049a3.407,3.407,0,0,1-.6-.151,1.418,1.418,0,0,1-.483-.245c-.02,0-.037-.033-.037-.061l-.074-.548a3.382,3.382,0,0,0-.057-.45c-.029-.225-.053-.446-.082-.671l-.061-.47c-.025-.209-.053-.409-.078-.626a2.728,2.728,0,0,0-.053-.409v-.155c-.02-.168-.045-.38-.061-.5s-.139-1.108-.217-1.767c-.041-.323-.074-.577-.082-.638-.025-.2-.053-.409-.078-.609s-.057-.446-.082-.667a1.663,1.663,0,0,0-.033-.25c-.029-.229-.061-.454-.086-.679,0-.143-.033-.286-.041-.434a.168.168,0,0,1,0-.045.16.16,0,0,1,.041-.127l.033-.029a.727.727,0,0,1,.184-.1,1.149,1.149,0,0,1,.2-.065,6.254,6.254,0,0,1,.908-.18c.2-.025.409-.041.6-.057.278-.025.548-.037.818-.049h1.751l.344.029.409.029.524.07.192.033a4.063,4.063,0,0,1,.552.151.106.106,0,0,1,.061.029.208.208,0,0,1,.053.049.274.274,0,0,1,.02.213Z" transform="translate(-2.929 -32.001)" fill="none" stroke="#263238" stroke-linecap="round" stroke-linejoin="round" stroke-width="0.5"/>
    <path id="Path_101470" data-name="Path 101470" d="M188.77,162.743a.524.524,0,0,0,.172-.053" transform="translate(-9.32 -45.097)" fill="none" stroke="#263238" stroke-linecap="round" stroke-linejoin="round" stroke-width="1"/>
    <path id="Path_101471" data-name="Path 101471" d="M182.29,162.63a3.358,3.358,0,0,0,.937.16,6.488,6.488,0,0,0,.847-.02" transform="translate(-5.49 -45.062)" fill="none" stroke="#263238" stroke-linecap="round" stroke-linejoin="round" stroke-width="1"/>
    <path id="Path_101472" data-name="Path 101472" d="M184.465,139.21a.352.352,0,0,1-.053.119.36.36,0,0,1-.245.164h0a.274.274,0,0,0-.074-.192.164.164,0,0,0-.053-.053.143.143,0,0,0-.061-.029,4.054,4.054,0,0,0-.552-.147l-.192-.033-.524-.074c-.127,0-.262-.02-.409-.033l-.344-.02h-1.751c-.274,0-.548.025-.818.049a4.829,4.829,0,0,0-.6.057,6.252,6.252,0,0,0-.908.18,1.63,1.63,0,0,0-.2.07.71.71,0,0,0-.184.094.244.244,0,0,0-.033.033.159.159,0,0,0-.041.127.167.167,0,0,0,0,.045h-.029a.339.339,0,0,1-.233-.119h0a.327.327,0,0,1-.041-.176,4.382,4.382,0,0,1,.057-.732.347.347,0,0,1,.045-.139.5.5,0,0,1,.274-.192,3.463,3.463,0,0,1,.409-.119l.515-.11c.29-.053.593-.09.888-.127.143,0,.286-.029.409-.033l.462-.029a5.208,5.208,0,0,0,.564-.02,1.838,1.838,0,0,0,.213,0h.659a6.561,6.561,0,0,1,.8.07c.266.033.429.053.646.094l.368.07.458.11a1.354,1.354,0,0,1,.2.078l.131.057a.323.323,0,0,1,.176.245A5.9,5.9,0,0,1,184.465,139.21Z" transform="translate(-2.434 -30.37)" fill="none" stroke="#263238" stroke-linecap="round" stroke-linejoin="round" stroke-width="1"/>
    <path id="Path_101473" data-name="Path 101473" d="M184.659,136.306a.193.193,0,0,1,0,.049h-.02a1.353,1.353,0,0,0-.2-.078l-.458-.11-.368-.07c-.217-.041-.429-.07-.646-.094s-.532-.061-.8-.07h-.659a1.839,1.839,0,0,1-.213,0c-.188,0-.376.02-.564.02l-.462.029a1.676,1.676,0,0,0-.409.033c-.295.037-.6.074-.888.127l-.515.11a3.461,3.461,0,0,0-.409.119h0a.332.332,0,0,1,.02-.127c.033-.249.057-.552.094-.818a.2.2,0,0,1,.086-.143,1.228,1.228,0,0,1,.262-.164,4.624,4.624,0,0,1,.605-.213c.2-.049.409-.094.6-.131.119-.02.233-.037.352-.049l.258-.033h.217l.344-.025h.9c.176,0,.409.037.593.057l.331.045a3.139,3.139,0,0,1,.409.065,5.778,5.778,0,0,1,.867.237,1.854,1.854,0,0,1,.5.254.282.282,0,0,1,.135.184A5.876,5.876,0,0,0,184.659,136.306Z" transform="translate(-2.984 -28.538)" fill="none" stroke="#263238" stroke-linecap="round" stroke-linejoin="round" stroke-width="0.5"/>
    <path id="Path_101474" data-name="Path 101474" d="M183.885,149.7l-5.579-.065-.536-4.184,6.753.082Z" transform="translate(-2.819 -34.909)" fill="#fff" stroke="#263238" stroke-linecap="round" stroke-linejoin="round" stroke-width="0.5"/>
    <path id="Path_101475" data-name="Path 101475" d="M189.98,163.77v.025a2.143,2.143,0,0,0-.609,2.225" transform="translate(-9.618 -45.736)" fill="none" stroke="#263238" stroke-linecap="round" stroke-linejoin="round" stroke-width="1"/>
    <path id="Path_101476" data-name="Path 101476" d="M198.619,199.106v.376a1.791,1.791,0,0,0,.25.875.687.687,0,0,0,1.035.213,1.26,1.26,0,0,0,.229-.761v-.192c.131-2.413-.3-6.082,1.158-7.927a3.1,3.1,0,0,1,.487-.495,1.419,1.419,0,0,1,.3-.172,9.143,9.143,0,0,0,1.145-1.755c-.434-.855-1.951-.924-2.675-.589a2.877,2.877,0,0,0-1.313,2.086c-.057.233-.1.47-.135.7a43.411,43.411,0,0,0-.479,7.64Z" transform="translate(-15.132 -60.346)" fill="#263238" stroke="#263238" stroke-linecap="round" stroke-linejoin="round" stroke-width="1"/>
    <path id="Path_101477" data-name="Path 101477" d="M203.21,197.336c-4.4.02-6.843-.18-7.252-.458-.09-.061-1.014-7.056,1.8-12.025.454-.818,1.9,1.068,1.9,1.068s.18.438.474.994a8.464,8.464,0,0,0,1.108,1.636,3,3,0,0,0,.769.63C203.427,190.9,203.128,195.123,203.21,197.336Z" transform="translate(-13.44 -58.074)" fill="#92e3a9"/>
    <g id="Group_43152" data-name="Group 43152" transform="translate(182.302 126.573)" clip-path="url(#clip-path)">
      <path id="Path_101478" data-name="Path 101478" d="M202.426,192.68c-.908,2.344-1.832,4.818-1.44,7.3a13.725,13.725,0,0,1,1.141-3.145,4.36,4.36,0,0,0,1.17,2.413c-.07-.716-.143-1.432-.213-2.147-.029-.282.025-.675.311-.7a.556.556,0,0,1,.409.225l1.763,1.812a11.752,11.752,0,0,0-.344-2.675,3.98,3.98,0,0,0-1.464-2.209,3.681,3.681,0,0,0,.164,2.8,5.493,5.493,0,0,1-.614-2.728,2.119,2.119,0,0,0-.65,1.252c.057-.675.115-1.354.168-2.045h-.376l.09.384" transform="translate(-198.786 -189.394)" opacity="0.2"/>
    </g>
    <path id="Path_101480" data-name="Path 101480" d="M203.21,197.336c-4.4.02-6.843-.18-7.252-.458-.09-.061-1.014-7.056,1.8-12.025.454-.818,1.9,1.068,1.9,1.068s.18.438.474.994a8.464,8.464,0,0,0,1.108,1.636,3,3,0,0,0,.769.63C203.427,190.9,203.128,195.123,203.21,197.336Z" transform="translate(-13.44 -58.074)" fill="none" stroke="#263238" stroke-linecap="round" stroke-linejoin="round" stroke-width="0.5"/>
    <path id="Path_101481" data-name="Path 101481" d="M225.3,157.758s-5.424,18.058-11.068,18.962a13.2,13.2,0,0,1-1.963.564c-.078-2.213.221-6.438-1.194-8.16.65.36,1.378.27,2.078-.8a11.547,11.547,0,0,0,1.321-3.456c2.348-9.383,4.466-12.966,5.162-13.33C226.7,147.851,225.3,157.758,225.3,157.758Z" transform="translate(-22.499 -38.022)" fill="#92e3a9"/>
    <g id="Group_43153" data-name="Group 43153" transform="translate(188.571 112.695)" clip-path="url(#clip-path-2)">
      <path id="Path_101482" data-name="Path 101482" d="M218.61,180.484l-.552-.18,1.391,3.031-1.317-1.055.552,2.454-.883-1.673q0,2.626-.02,5.256a5.019,5.019,0,0,0,2.078-.7,1.749,1.749,0,0,0,.765-1.91,1.572,1.572,0,0,0,1.2-1.579,5.693,5.693,0,0,0-.532-2.082,15.363,15.363,0,0,1-.9-6.062c.1-2.008,1-3.742,1.268-5.661A26.211,26.211,0,0,0,218.61,180.484Z" transform="translate(-215.035 -162.302)" opacity="0.2"/>
    </g>
    <path id="Path_101484" data-name="Path 101484" d="M225.3,157.758s-5.424,18.058-11.068,18.962a13.2,13.2,0,0,1-1.963.564c-.078-2.213.221-6.438-1.194-8.16.65.36,1.378.27,2.078-.8a11.547,11.547,0,0,0,1.321-3.456c2.348-9.383,4.466-12.966,5.162-13.33C226.7,147.851,225.3,157.758,225.3,157.758Z" transform="translate(-22.499 -38.022)" fill="none" stroke="#263238" stroke-linecap="round" stroke-linejoin="round" stroke-width="1"/>
    <path id="Path_101485" data-name="Path 101485" d="M210.879,199.23a1.919,1.919,0,0,1-.025.376,1.82,1.82,0,0,1-.27.871.687.687,0,0,1-1.039.188,1.247,1.247,0,0,1-.213-.769V199.7c-.074-2.413.442-6.074-.969-7.951a2.932,2.932,0,0,0-.474-.507,1.228,1.228,0,0,0-.29-.176,9.563,9.563,0,0,1-1.108-1.783c.458-.847,1.976-.875,2.691-.523a2.9,2.9,0,0,1,1.264,2.115c.049.237.082.474.115.7A43.457,43.457,0,0,1,210.879,199.23Z" transform="translate(-19.792 -60.381)" fill="#263238" stroke="#263238" stroke-linecap="round" stroke-linejoin="round" stroke-width="1"/>
    <path id="Path_101486" data-name="Path 101486" d="M245.25,146.41l-8.009-2.63-9.563,3.681-2.168,7.551a21.972,21.972,0,0,0-.131,11.632l1.366,5.2s-1.178,9.113-1.076,9.874,20.86.188,20.86.188l-2.544-12.43s3.509-14.811,3.023-20.839A2.569,2.569,0,0,0,245.25,146.41Z" transform="translate(-30.53 -33.922)" fill="#92e3a9" stroke="#707070" stroke-width="0.5"/>
    <g id="Group_43154" data-name="Group 43154" transform="translate(194.13 109.858)" clip-path="url(#clip-path-3)">
      <path id="Path_101487" data-name="Path 101487" d="M254.5,197.81l-1.166,2.659a15.306,15.306,0,0,1,2.614-1.374,1.263,1.263,0,0,1,.757-.131.884.884,0,0,1,.6.65,2.693,2.693,0,0,1,.033.924c0,.025-5.616.928-5.964.556C250.215,199.851,253.749,198.133,254.5,197.81Z" transform="translate(-240.309 -175.711)" opacity="0.2"/>
      <path id="Path_101488" data-name="Path 101488" d="M260.339,164.72a9.886,9.886,0,0,0-.409,3.8l-.908-2.585h-.233a9.125,9.125,0,0,0,2,8.336q-.286-4.466-.581-8.933h-.18" transform="translate(-244.657 -156.155)" opacity="0.2"/>
      <path id="Path_101489" data-name="Path 101489" d="M228.246,182.174a8.313,8.313,0,0,1,2.278,2.07,1.452,1.452,0,0,1,.409.794c.049.618-.659,1.018-1.272,1.108a4,4,0,0,1-3.023-.818C224.544,183.651,225.42,180.648,228.246,182.174Z" transform="translate(-225.146 -166.222)" opacity="0.2"/>
      <path id="Path_101490" data-name="Path 101490" d="M246.106,182.077c3.46,2.156,4.818,1.407,4.818,1.407a1.5,1.5,0,0,1,.409.794c.045.622-.659,1.023-1.276,1.113-1.059.151-4.724.511-5.563-.155C242.4,183.554,243.378,180.376,246.106,182.077Z" transform="translate(-235.713 -166.126)" opacity="0.2"/>
      <path id="Path_101491" data-name="Path 101491" d="M246.27,225.153H243c-.307,0-1.088-1.853-1.227-2.131a13.5,13.5,0,0,1-.818-2.454,9.874,9.874,0,0,1-.139-5c.581.339.708,1.452.933,2.045a24.382,24.382,0,0,0,4.524,7.538Z" transform="translate(-234.044 -186.207)" opacity="0.2"/>
      <path id="Path_101492" data-name="Path 101492" d="M260.384,227.309c.442-.667-.217-2.818-.217-2.818s-1.342-.335-2.123-.495-1.591-.18-2.381-.311c-2.3-.372-5.616-1.9-7.084-3.775a34.609,34.609,0,0,0,5.387,4.54,25.133,25.133,0,0,0,3.178,1.689C257.448,226.254,260.249,227.5,260.384,227.309Z" transform="translate(-238.796 -188.772)" opacity="0.2"/>
    </g>
    <path id="Path_101494" data-name="Path 101494" d="M245.25,146.41l-8.009-2.63-9.563,3.681-2.168,7.551a21.972,21.972,0,0,0-.131,11.632l1.366,5.2s-1.178,9.113-1.076,9.874,20.86.188,20.86.188l-2.544-12.43s3.509-14.811,3.023-20.839A2.569,2.569,0,0,0,245.25,146.41Z" transform="translate(-30.53 -33.922)" fill="none" stroke="#263238" stroke-linecap="round" stroke-linejoin="round" stroke-width="0.5"/>
    <path id="Path_101495" data-name="Path 101495" d="M226.013,204.219l-.818,1.419.793.871-.818,1.9,1.481,1.865a8.311,8.311,0,0,1,4.421-2.111c2.822-.446,14.348,2.119,14.348,2.119l.037-3.252.045-3.473-14.725,1.661Z" transform="translate(-30.832 -69.251)" fill="#92e3a9"/>
    <g id="Group_43155" data-name="Group 43155" transform="translate(194.338 134.309)" clip-path="url(#clip-path-4)">
      <path id="Path_101496" data-name="Path 101496" d="M252.186,207.239a6.2,6.2,0,0,1-2.372.409l-5.424.188a66.223,66.223,0,0,1,12.868,3.853,6.094,6.094,0,0,1-1.378-1.853c-.331-.736-1.145-1.669-1.427-2.425-.16-.409-.294-1.636-.9-1.481C253.168,206.016,252.685,207.014,252.186,207.239Z" transform="translate(-236.529 -204.953)" opacity="0.2"/>
      <path id="Path_101497" data-name="Path 101497" d="M231.024,209.249c-.614.221-3.894-1.051-4.131.147C226.729,210.206,230.492,209.437,231.024,209.249Z" transform="translate(-226.185 -206.701)" opacity="0.2"/>
      <path id="Path_101498" data-name="Path 101498" d="M225.33,214.621l1.207,1.256a.589.589,0,0,0,.748.188,3.681,3.681,0,0,0,1.5-.63c.368-.307.785-.941.585-1.395A14.3,14.3,0,0,1,225.33,214.621Z" transform="translate(-225.265 -209.754)" opacity="0.2"/>
    </g>
    <path id="Path_101500" data-name="Path 101500" d="M226.013,204.219l-.818,1.419.793.871-.818,1.9,1.481,1.865a8.311,8.311,0,0,1,4.421-2.111c2.822-.446,14.348,2.119,14.348,2.119l.037-3.252.045-3.473-14.725,1.661Z" transform="translate(-30.832 -69.251)" fill="none" stroke="#263238" stroke-linecap="round" stroke-linejoin="round" stroke-width="0.5"/>
    <path id="Path_101501" data-name="Path 101501" d="M270.135,152.116a2.863,2.863,0,0,0-2.634-1.636c-1.321.037-2.957.646-3.767,3.145-1.489,4.61,1.82,20.913,1.82,20.913l5.317,9.632,5.559.07s4.982-3.272,4.552-7.121C280.622,173.847,272.478,156.93,270.135,152.116Z" transform="translate(-53.395 -37.881)" fill="#92e3a9"/>
    <g id="Group_43156" data-name="Group 43156" transform="translate(209.954 112.598)" clip-path="url(#clip-path-5)">
      <path id="Path_101502" data-name="Path 101502" d="M274.613,207.55c-.753,0-1.636.123-1.992.789a2.241,2.241,0,0,0,.123,1.755c.683,1.914,1.579,4.049,3.489,4.749,1.043.384,2.221.249,3.272.609.863.294,1.636.916,2.56.871,1.513-.074,2.454-1.841,3.076-3.006.818-1.522.033-2.237-1.284-3.059a17.751,17.751,0,0,0-9.244-2.708Z" transform="translate(-268.747 -184.207)" opacity="0.2"/>
      <path id="Path_101503" data-name="Path 101503" d="M271.2,169.866a5.932,5.932,0,0,0,3.747.863c-.323-4.331-2.4-2.164-5.816-8.144-.356-.618-1.886-2.225-2.736-1.477-.654.577.258,2.569.519,3.227A12.528,12.528,0,0,0,271.2,169.866Z" transform="translate(-265.012 -156.646)" opacity="0.2"/>
    </g>
    <path id="Path_101505" data-name="Path 101505" d="M270.135,152.116a2.863,2.863,0,0,0-2.634-1.636c-1.321.037-2.957.646-3.767,3.145-1.489,4.61,1.82,20.913,1.82,20.913l5.317,9.632,5.559.07s4.982-3.272,4.552-7.121C280.622,173.847,272.478,156.93,270.135,152.116Z" transform="translate(-53.395 -37.881)" fill="none" stroke="#263238" stroke-linecap="round" stroke-linejoin="round" stroke-width="0.5"/>
    <path id="Path_101506" data-name="Path 101506" d="M291.063,248a1.971,1.971,0,0,1-.728,1.612s-1.5.777-2.1,1.068-3.084-3.149-3.084-3.149l.937-4.745-4.319-12.716c2.622-4.119,5.886-.491,5.886-.491l1.227,12.614,1.636,3.272A7.959,7.959,0,0,1,291.063,248Z" transform="translate(-64.281 -83.754)" fill="#fff" stroke="#263238" stroke-linecap="round" stroke-linejoin="round" stroke-width="0.5"/>
    <path id="Path_101507" data-name="Path 101507" d="M224.667,86.609a7.708,7.708,0,0,0-3.681,2.262,18.063,18.063,0,0,0-3.493,4.593c-1.227,2.286-1.926,5.064-.949,7.465a7.945,7.945,0,0,0,3.877,3.877,31.688,31.688,0,0,0,6.041,2.389,6.135,6.135,0,0,0,2.43.233,5.75,5.75,0,0,0,1.8-.749c1.8-1.014,2.822-2.839,4.5-4.07a8.614,8.614,0,0,0,2.5-2.52c1.092-1.939.675-4.417-.356-6.389a15.056,15.056,0,0,0-5.514-5.689A8.814,8.814,0,0,0,224.667,86.609Z" transform="translate(-25.461 0)" fill="#263238" stroke="#263238" stroke-linecap="round" stroke-linejoin="round" stroke-width="1"/>
    <path id="Path_101508" data-name="Path 101508" d="M242.583,123.89a27.8,27.8,0,0,0,.6,8.135s3.374.994,3.354,1.526h0a49.237,49.237,0,0,0-9.33,15.624l-.274.744s-2.36-9.555-2.184-14.316L237,133.559l-.02,1.931a21.136,21.136,0,0,0-.241-5.632l-.131-.614,2.986-2.52Z" transform="translate(-36.486 -22.167)" fill="#fff" stroke="#707070" stroke-width="0.5"/>
    <g id="Group_43157" data-name="Group 43157" transform="translate(198.251 101.723)" clip-path="url(#clip-path-6)">
      <path id="Path_101509" data-name="Path 101509" d="M239.572,129.015c3.436,1.7,5.285-3.505,5.6-5.726a10.827,10.827,0,0,1-.1-1.558l-2.9,2.307-2.794,2.209Z" transform="translate(-237.481 -122.613)" fill="#263238" stroke="#263238" stroke-linecap="round" stroke-linejoin="round" stroke-width="1"/>
    </g>
    <path id="Path_101511" data-name="Path 101511" d="M242.583,123.89a27.8,27.8,0,0,0,.6,8.135s3.374.994,3.354,1.526h0a49.237,49.237,0,0,0-9.33,15.624l-.274.744s-2.36-9.555-2.184-14.316L237,133.559l-.02,1.931a21.136,21.136,0,0,0-.241-5.632l-.131-.614,2.986-2.52Z" transform="translate(-36.486 -22.167)" fill="none" stroke="#263238" stroke-linecap="round" stroke-linejoin="round" stroke-width="0.5"/>
    <path id="Path_101512" data-name="Path 101512" d="M225.089,127.06l-.7,1.6.888,1.865.883-2.074Z" transform="translate(-30.371 -24.041)" fill="#92e3a9" stroke="#263238" stroke-linecap="round" stroke-linejoin="round" stroke-width="1"/>
    <path id="Path_101513" data-name="Path 101513" d="M238.073,105.639a3.132,3.132,0,0,1-3.853-1.718c-.609-1.145-1.841-3.53-1.841-3.53a4.348,4.348,0,0,0,.053,2.344,9.252,9.252,0,0,0-2.413-.474,9.59,9.59,0,0,1-.691-3.1,5.812,5.812,0,0,0-.593,3.178,6.254,6.254,0,0,0-3.485,1.423,20.624,20.624,0,0,1,.155,4.908c-.135,3.563,1.567,4.561,3.219,5.914s6.221,2.1,7.882-4.855c0,0,3.325-1.19,1.738-3.8Z" transform="translate(-30.879 -7.552)" fill="#fff" stroke="#263238" stroke-linecap="round" stroke-linejoin="round" stroke-width="0.5"/>
    <path id="Path_101514" data-name="Path 101514" d="M236,110.977a4.185,4.185,0,0,1,3.681.851" transform="translate(-37.232 -14.482)" fill="none" stroke="#263238" stroke-linecap="round" stroke-linejoin="round" stroke-width="1"/>
    <path id="Path_101515" data-name="Path 101515" d="M226.76,112.466a2.749,2.749,0,0,1,2.045-.789" transform="translate(-31.771 -14.948)" fill="none" stroke="#263238" stroke-linecap="round" stroke-linejoin="round" stroke-width="1"/>
    <path id="Path_101516" data-name="Path 101516" d="M237.146,128.813a3.329,3.329,0,0,0,1.174-1.513l-.155.082a8.925,8.925,0,0,1-3.125.957h0A1.791,1.791,0,0,0,237.146,128.813Z" transform="translate(-36.665 -24.183)" fill="none" stroke="#263238" stroke-linecap="round" stroke-linejoin="round" stroke-width="1"/>
    <path id="Path_101517" data-name="Path 101517" d="M240.247,113.658c.229-.025.458.356.515.847s-.09.912-.315.941-.458-.356-.515-.847S240.018,113.683,240.247,113.658Z" transform="translate(-39.548 -16.12)" fill="#263238"/>
    <path id="Path_101518" data-name="Path 101518" d="M229.813,115.816c.057.483-.082.9-.307.92s-.45-.348-.5-.818.086-.9.311-.92S229.748,115.342,229.813,115.816Z" transform="translate(-33.091 -16.912)" fill="#263238"/>
    <path id="Path_101519" data-name="Path 101519" d="M248.911,112.847s-.3-.879.057-1.338" transform="translate(-44.793 -14.851)" fill="none" stroke="#263238" stroke-linecap="round" stroke-linejoin="round" stroke-width="1"/>
    <path id="Path_101520" data-name="Path 101520" d="M225.05,113.647l-.912-.937-4.278.495.119,1.031.474-.057s.18,2.229,1.37,2.814S225.484,116.714,225.05,113.647Z" transform="translate(-27.694 -15.56)" fill="#263238"/>
    <path id="Path_101521" data-name="Path 101521" d="M222.354,113.19l-2.454.286.119,1.031.474-.057s.18,2.229,1.37,2.814a1.771,1.771,0,0,0,.5.147" transform="translate(-27.717 -15.844)" fill="none" stroke="#fff" stroke-linecap="round" stroke-linejoin="round" stroke-width="0.75"/>
    <path id="Path_101522" data-name="Path 101522" d="M236.06,112.226l.671-1.121,4.278-.495.119,1.031-.474.053s.335,2.209-.691,3.051S236.338,115.326,236.06,112.226Z" transform="translate(-37.268 -14.319)" fill="#263238"/>
    <rect id="Rectangle_10765" data-name="Rectangle 10765" width="1.984" height="0.753" transform="translate(197.186 97.893) rotate(-6.62)" fill="#263238" stroke="#263238" stroke-linecap="round" stroke-linejoin="round" stroke-width="1"/>
    <path id="Path_101523" data-name="Path 101523" d="M226.965,115.45l-.855,2.086" transform="translate(-31.387 -17.179)" fill="none" stroke="#fff" stroke-linecap="round" stroke-linejoin="round" stroke-width="0.75"/>
    <path id="Path_101524" data-name="Path 101524" d="M238.695,113.49l-.585,1.436" transform="translate(-38.479 -16.021)" fill="none" stroke="#fff" stroke-linecap="round" stroke-linejoin="round" stroke-width="0.75"/>
    <path id="Path_101525" data-name="Path 101525" d="M243.941,113.63l-.871,2.393" transform="translate(-41.41 -16.104)" fill="none" stroke="#fff" stroke-linecap="round" stroke-linejoin="round" stroke-width="0.75"/>
    <path id="Path_101526" data-name="Path 101526" d="M223.43,115.17c-.057.151-.119.3-.18.454" transform="translate(-29.697 -17.014)" fill="none" stroke="#fff" stroke-linecap="round" stroke-linejoin="round" stroke-width="0.75"/>
    <path id="Path_101527" data-name="Path 101527" d="M331.775,308.04l-16.9,13.673-21.314-36.1,11.5-8.238Z" transform="translate(-71.249 -112.877)" fill="#fff" stroke="#263238" stroke-linecap="round" stroke-linejoin="round" stroke-width="0.5"/>
    <path id="Path_101528" data-name="Path 101528" d="M314.874,330.915l5.342-4.323L295.871,292.95l-2.311,1.869Z" transform="translate(-71.249 -122.079)" fill="#fff"/>
    <g id="Group_43158" data-name="Group 43158" transform="translate(222.311 170.871)" clip-path="url(#clip-path-7)">
      <path id="Path_101529" data-name="Path 101529" d="M299.21,293s20.492,33.511,20.934,33.744a15.67,15.67,0,0,0,3.411-.1Z" transform="translate(-296.899 -292.98)" opacity="0.2"/>
      <path id="Path_101530" data-name="Path 101530" d="M344.45,379.723l2.135-2.753-.949,3.039-.687.56Z" transform="translate(-323.635 -342.604)" opacity="0.2"/>
    </g>
    <path id="Path_101532" data-name="Path 101532" d="M314.874,330.915l5.342-4.323L295.871,292.95l-2.311,1.869Z" transform="translate(-71.249 -122.079)" fill="none" stroke="#263238" stroke-linecap="round" stroke-linejoin="round" stroke-width="0.5"/>
    <path id="Path_101533" data-name="Path 101533" d="M315.287,287.615a.376.376,0,0,1,.02.532.372.372,0,0,1-.532.02.376.376,0,0,1,.511-.552Z" transform="translate(-83.716 -118.867)" fill="#fff" stroke="#263238" stroke-linecap="round" stroke-linejoin="round" stroke-width="1"/>
    <path id="Path_101534" data-name="Path 101534" d="M300.945,277.58c-1.755-1.783-2.785-3.158-4.933-4.438a2.7,2.7,0,0,0-.941-.409.9.9,0,0,0-.863.274.957.957,0,0,0,0,1.006l-.2.094a1.141,1.141,0,0,1,.033-1.227,1.125,1.125,0,0,1,1.076-.356,2.9,2.9,0,0,1,1.018.434c2.164,1.288,3.211,2.679,4.978,4.471Z" transform="translate(-71.415 -109.994)" fill="#fff" stroke="#263238" stroke-linecap="round" stroke-linejoin="round" stroke-width="1"/>
    <path id="Path_101535" data-name="Path 101535" d="M303.716,277.872c-1.317-2.27-3.681-5.469-5.873-6.773a2.729,2.729,0,0,0-.937-.409.818.818,0,0,0-.867,1.284l-.2.094a1.149,1.149,0,0,1,.029-1.227,1.129,1.129,0,0,1,1.076-.356,2.864,2.864,0,0,1,1.018.434c2.213,1.321,4.622,4.561,5.951,6.851Z" transform="translate(-72.496 -108.788)" fill="#fff" stroke="#263238" stroke-linecap="round" stroke-linejoin="round" stroke-width="1"/>
    <path id="Path_101536" data-name="Path 101536" d="M303.244,284.075c-.082-.074-2.728-1.693-3.154-1.914l.106-.2c.409.221,3.109,1.861,3.2,1.955Z" transform="translate(-75.108 -115.584)" fill="#fff" stroke="#263238" stroke-linecap="round" stroke-linejoin="round" stroke-width="1"/>
    <line id="Line_988" data-name="Line 988" x2="20.124" y2="23.662" transform="translate(237.903 170.871)" fill="none" stroke="#263238" stroke-linecap="round" stroke-linejoin="round" stroke-width="0.5"/>
    <line id="Line_989" data-name="Line 989" x2="1.014" y2="1.194" transform="translate(235.637 168.208)" fill="none" stroke="#263238" stroke-linecap="round" stroke-linejoin="round" stroke-width="0.5"/>
    <path id="Path_101537" data-name="Path 101537" d="M317.54,282.083l.937-.785a.675.675,0,0,1,.941.082l.982,1.158" transform="translate(-85.421 -115.102)" fill="none" stroke="#263238" stroke-linecap="round" stroke-linejoin="round" stroke-width="0.5"/>
    <path id="Path_101538" data-name="Path 101538" d="M293.71,268.6l-1.125.6-.843.908.172,1.3a.63.63,0,0,1-.3.622h0a.626.626,0,0,1-.818-.151l-.8-1.006.642-3.272" transform="translate(-69.145 -107.097)" fill="#fff" stroke="#263238" stroke-linecap="round" stroke-linejoin="round" stroke-width="1"/>
    <path id="Path_101539" data-name="Path 101539" d="M297.35,276.045l.875-.389.286-1.354-1.051-.282" transform="translate(-73.489 -110.891)" fill="#fff" stroke="#263238" stroke-linecap="round" stroke-linejoin="round" stroke-width="1"/>
    <path id="Path_101540" data-name="Path 101540" d="M295.08,274.784l.667-.924.793.143a2.368,2.368,0,0,1-.344,1.178,2.021,2.021,0,0,0-.18,1.129" transform="translate(-72.147 -110.797)" fill="#fff" stroke="#263238" stroke-linecap="round" stroke-linejoin="round" stroke-width="1"/>
    <path id="Path_101541" data-name="Path 101541" d="M299.88,278a5.907,5.907,0,0,0,.634.237" transform="translate(-74.984 -113.244)" fill="#fff" stroke="#263238" stroke-linecap="round" stroke-linejoin="round" stroke-width="1"/>
    <path id="Path_101542" data-name="Path 101542" d="M235.546,153.309c-.352-.352,1.186.879,2.417.9" transform="translate(-36.934 -39.516)" fill="#fff" stroke="#263238" stroke-linecap="round" stroke-linejoin="round" stroke-width="0.5"/>
    <path id="Path_101543" data-name="Path 101543" d="M247.65,150.721a10.091,10.091,0,0,0,1.759-.618,27.356,27.356,0,0,0,4.745-2.344" transform="translate(-44.117 -36.274)" fill="#fff" stroke="#263238" stroke-linecap="round" stroke-linejoin="round" stroke-width="0.5"/>
    <path id="Path_101544" data-name="Path 101544" d="M263.358,214.737l-3.46,3.477s-7.612.192-11.677-1.661c-.495-.266-.957-.54-1.387-.818a19.309,19.309,0,0,1-5.215-4.561l-.409-.9.683-.941s.094,1.489,6.36,4.413c2.139,1,9.919,2.131,9.919,2.131A31.46,31.46,0,0,0,263.358,214.737Z" transform="translate(-40.311 -72.661)" fill="#92e3a9" stroke="#707070" stroke-width="0.5"/>
    <g id="Group_43160" data-name="Group 43160" transform="translate(200.899 136.669)" clip-path="url(#clip-path-8)">
      <g id="Group_43159" data-name="Group 43159" transform="translate(9.223 5.779)" opacity="0.2">
        <path id="Path_101545" data-name="Path 101545" d="M263.76,225.1a63.924,63.924,0,0,0,7.027,1.4,4.09,4.09,0,0,0,2.151-.045,3.682,3.682,0,0,0,.908-.573,17.886,17.886,0,0,0,2.528-2.417,26.992,26.992,0,0,1-4.233.818,73.463,73.463,0,0,1-8.258.638Z" transform="translate(-263.76 -223.46)"/>
      </g>
    </g>
    <path id="Path_101547" data-name="Path 101547" d="M263.358,214.737l-3.46,3.477s-7.612.192-11.677-1.661c-.495-.266-.957-.54-1.387-.818a19.309,19.309,0,0,1-5.215-4.561l-.409-.9.683-.941s.094,1.489,6.36,4.413c2.139,1,9.919,2.131,9.919,2.131A31.46,31.46,0,0,0,263.358,214.737Z" transform="translate(-40.311 -72.661)" fill="none" stroke="#263238" stroke-linecap="round" stroke-linejoin="round" stroke-width="0.5"/>
    <path id="Path_101548" data-name="Path 101548" d="M236.459,208.31l-.491.781a7.391,7.391,0,0,0-.916,5.726L237.6,225.01l5.227,1.5-5.469-10.43.078-6.409A1.53,1.53,0,0,0,236.459,208.31Z" transform="translate(-36.542 -72.058)" fill="#92e3a9"/>
    <g id="Group_43161" data-name="Group 43161" transform="translate(198.29 136.252)" clip-path="url(#clip-path-9)">
      <path id="Path_101549" data-name="Path 101549" d="M238.37,217.882l-.049-4.364c0,.47-1.468-.429-1.591-.638C237.061,214.729,237.143,216.328,238.37,217.882Z" transform="translate(-235.954 -211.011)" opacity="0.2"/>
    </g>
    <path id="Path_101551" data-name="Path 101551" d="M236.459,208.31l-.491.781a7.391,7.391,0,0,0-.916,5.726L237.6,225.01l5.227,1.5-5.469-10.43.078-6.409A1.53,1.53,0,0,0,236.459,208.31Z" transform="translate(-36.542 -72.058)" fill="none" stroke="#263238" stroke-linecap="round" stroke-linejoin="round" stroke-width="1"/>
    <path id="Path_101552" data-name="Path 101552" d="M237.775,208.07a1.407,1.407,0,0,0-.691,1.489,1.374,1.374,0,0,0,1.227,1.059,1.395,1.395,0,0,0,1.382-1.473,1.448,1.448,0,0,0-1.636-1.227Z" transform="translate(-37.858 -71.819)" fill="#92e3a9" stroke="#263238" stroke-linecap="round" stroke-linejoin="round" stroke-width="0.5"/>
    <path id="Path_101553" data-name="Path 101553" d="M236.89,218.85l.818,1.636c.577,1.153,2.336,4.63,2.336,4.63" transform="translate(-37.758 -78.287)" fill="#92e3a9" stroke="#263238" stroke-linecap="round" stroke-linejoin="round" stroke-width="1"/>
    <path id="Path_101554" data-name="Path 101554" d="M256.347,225.818A6.482,6.482,0,0,1,254.96,225C255.385,225.274,255.852,225.548,256.347,225.818Z" transform="translate(-48.437 -81.922)" fill="#92e3a9" stroke="#263238" stroke-linecap="round" stroke-linejoin="round" stroke-width="1"/>
    <path id="Path_101555" data-name="Path 101555" d="M257.73,223.552a22.329,22.329,0,0,0,7.44.487,36.408,36.408,0,0,0,4.123-.524,16.807,16.807,0,0,0,3.816-.965" transform="translate(-50.074 -80.474)" fill="none" stroke="#263238" stroke-linecap="round" stroke-linejoin="round" stroke-width="0.5"/>
    <path id="Path_101556" data-name="Path 101556" d="M230.42,93.767l1.28-1.657v1.227l.818-1.17.45.442.266-.446a.769.769,0,0,0,.327.687c.241.119.581-.221.384-.409a.451.451,0,0,0,.839-.315,1.493,1.493,0,0,0,.871.683c.376.057.8-.368.589-.683a2.262,2.262,0,0,0,1.505.6l-1.121-1.108a9.53,9.53,0,0,1,2.986.564,3.215,3.215,0,0,1,2,2.172" transform="translate(-33.934 -3.096)" fill="none" stroke="#999" stroke-linecap="round" stroke-linejoin="round" stroke-width="0.75"/>
    <path id="Path_101557" data-name="Path 101557" d="M269.12,279.223q.875-1.256,1.783-2.5" transform="translate(-56.805 -112.487)" fill="none" stroke="#999" stroke-linecap="round" stroke-linejoin="round" stroke-width="0.75"/>
    <path id="Path_101558" data-name="Path 101558" d="M250,298.544a124.206,124.206,0,0,1,6.544-11.043" transform="translate(-45.506 -118.858)" fill="none" stroke="#999" stroke-linecap="round" stroke-linejoin="round" stroke-width="0.75"/>
    <path id="Path_101559" data-name="Path 101559" d="M232.749,255.78A78.641,78.641,0,0,0,228,274.628" transform="translate(-32.504 -100.112)" fill="none" stroke="#999" stroke-linecap="round" stroke-linejoin="round" stroke-width="0.75"/>
    <path id="Path_101560" data-name="Path 101560" d="M270.429,287.17a17.4,17.4,0,0,0-.3,6.974" transform="translate(-57.301 -118.663)" fill="none" stroke="#999" stroke-linecap="round" stroke-linejoin="round" stroke-width="0.75"/>
    <path id="Path_101561" data-name="Path 101561" d="M232.19,262.31c.765,1.926.384.965,1.145,2.892" transform="translate(-34.98 -103.971)" fill="none" stroke="#999" stroke-linecap="round" stroke-linejoin="round" stroke-width="0.75"/>
    <path id="Path_101562" data-name="Path 101562" d="M205.383,194.93a9.2,9.2,0,0,0,.356,6.135" transform="translate(-18.922 -64.151)" fill="none" stroke="#263238" stroke-linecap="round" stroke-linejoin="round" stroke-width="0.5"/>
    <path id="Path_101563" data-name="Path 101563" d="M208.46,200.52a5.436,5.436,0,0,0,1.955,2.585" transform="translate(-20.956 -67.454)" fill="none" stroke="#263238" stroke-linecap="round" stroke-linejoin="round" stroke-width="0.5"/>
    <path id="Path_101564" data-name="Path 101564" d="M216.05,194.79a6.7,6.7,0,0,1,2.589,4.176.409.409,0,0,1-.033.319c-.127.16-.384.053-.536-.078a2.663,2.663,0,0,1-.912-1.963" transform="translate(-25.442 -64.068)" fill="none" stroke="#263238" stroke-linecap="round" stroke-linejoin="round" stroke-width="1"/>
    <path id="Path_101565" data-name="Path 101565" d="M224.77,183a8.033,8.033,0,0,0,1.742,3.681" transform="translate(-30.595 -57.1)" fill="none" stroke="#263238" stroke-linecap="round" stroke-linejoin="round" stroke-width="1"/>
    <path id="Path_101566" data-name="Path 101566" d="M260.51,175.61a18.21,18.21,0,0,0,1.8,4.761" transform="translate(-51.717 -52.733)" fill="none" stroke="#263238" stroke-linecap="round" stroke-linejoin="round" stroke-width="1"/>
    <path id="Path_101567" data-name="Path 101567" d="M259.47,167.85a12.179,12.179,0,0,0,.127,1.493" transform="translate(-51.102 -48.147)" fill="none" stroke="#263238" stroke-linecap="round" stroke-linejoin="round" stroke-width="1"/>
    <path id="Path_101568" data-name="Path 101568" d="M249.31,201.962a13.689,13.689,0,0,1,2.863-2.642" transform="translate(-45.098 -66.745)" fill="none" stroke="#263238" stroke-linecap="round" stroke-linejoin="round" stroke-width="0.5"/>
    <path id="Path_101569" data-name="Path 101569" d="M229.64,210.494l2.863-.274" transform="translate(-33.473 -73.187)" fill="none" stroke="#263238" stroke-linecap="round" stroke-linejoin="round" stroke-width="0.5"/>
    <path id="Path_101570" data-name="Path 101570" d="M243.56,209.464c2.863-.139,5.763-.151,8.643-.041" transform="translate(-41.7 -72.672)" fill="none" stroke="#263238" stroke-linecap="round" stroke-linejoin="round" stroke-width="1"/>
    <path id="Path_101571" data-name="Path 101571" d="M278.14,152.56a22.9,22.9,0,0,1,3.886,13.232" transform="translate(-62.136 -39.111)" fill="none" stroke="#263238" stroke-linecap="round" stroke-linejoin="round" stroke-width="0.5"/>
    <path id="Path_101572" data-name="Path 101572" d="M279.4,209a15.644,15.644,0,0,1,9.624,3.076" transform="translate(-62.881 -72.462)" fill="none" stroke="#263238" stroke-linecap="round" stroke-linejoin="round" stroke-width="0.5"/>
    <path id="Path_101573" data-name="Path 101573" d="M272.63,209.385a14.257,14.257,0,0,1,1.607-.245" transform="translate(-58.88 -72.549)" fill="none" stroke="#263238" stroke-linecap="round" stroke-linejoin="round" stroke-width="0.5"/>
    <path id="Path_101574" data-name="Path 101574" d="M241.018,174.32a13.166,13.166,0,0,0-1.059,5.317" transform="translate(-39.571 -51.971)" fill="none" stroke="#263238" stroke-linecap="round" stroke-linejoin="round" stroke-width="1"/>
    <path id="Path_101575" data-name="Path 101575" d="M254,340.68a4.622,4.622,0,0,0,2.012,2.078l-.331-.335" transform="translate(-47.87 -150.286)" fill="none" stroke="#263238" stroke-linecap="round" stroke-linejoin="round" stroke-width="1"/>
    <path id="Path_101576" data-name="Path 101576" d="M224.25,326.57a9.281,9.281,0,0,0,.409,5.019" transform="translate(-30.186 -141.948)" fill="none" stroke="#263238" stroke-linecap="round" stroke-linejoin="round" stroke-width="1"/>
    <path id="Path_101577" data-name="Path 101577" d="M252.479,122.62l-.7,1.6.888,1.865.879-2.074Z" transform="translate(-46.558 -21.417)" fill="#92e3a9" stroke="#263238" stroke-linecap="round" stroke-linejoin="round" stroke-width="1"/>
    <path id="Path_101578" data-name="Path 101578" d="M230.162,119.416c-.315-.041-1.207-.474-1.272-1.084a.63.63,0,0,1,.311-.487,2.781,2.781,0,0,0,1.2-2.409v-.106" transform="translate(-33.03 -17.109)" fill="none" stroke="#263238" stroke-linecap="round" stroke-linejoin="round" stroke-width="1"/>
  </g>
</svg>
