<svg xmlns="http://www.w3.org/2000/svg" width="35" height="35" viewBox="0 0 35 35">
  <g id="User_Personas" data-name="User Personas" transform="translate(-1219 -1054)">
    <rect id="Rectangle_10262" data-name="Rectangle 10262" width="35" height="35" rx="3" transform="translate(1219 1054)" fill="#e2edf8"/>
    <path id="sensor_occupied_24dp_E8EAED_FILL1_wght400_GRAD0_opsz24" d="M49.111-911.983a3.164,3.164,0,0,1-2.324-.957,3.164,3.164,0,0,1-.957-2.324,3.164,3.164,0,0,1,.957-2.324,3.164,3.164,0,0,1,2.324-.957,3.164,3.164,0,0,1,2.324.957,3.164,3.164,0,0,1,.957,2.324,3.164,3.164,0,0,1-.957,2.324A3.164,3.164,0,0,1,49.111-911.983Zm-6.561,6.561V-907.5a2.153,2.153,0,0,1,.287-1.08,2.2,2.2,0,0,1,.779-.806,11.666,11.666,0,0,1,2.6-1.107,10.355,10.355,0,0,1,2.9-.4,10.355,10.355,0,0,1,2.9.4,11.666,11.666,0,0,1,2.6,1.107,2.2,2.2,0,0,1,.779.806,2.153,2.153,0,0,1,.287,1.08v2.078ZM59.2-915.1a11,11,0,0,0-2.365-3.513,11,11,0,0,0-3.513-2.365L54.168-923a12.623,12.623,0,0,1,4.224,2.816,13.242,13.242,0,0,1,2.829,4.237Zm-20.175,0L37-915.947a13.084,13.084,0,0,1,2.829-4.224A13.083,13.083,0,0,1,44.053-923l.847,2.023a11,11,0,0,0-3.513,2.365A11,11,0,0,0,39.023-915.1Zm5.03,16.321a12.624,12.624,0,0,1-4.224-2.816A13.242,13.242,0,0,1,37-905.832l2.023-.848a11,11,0,0,0,2.365,3.513A11,11,0,0,0,44.9-900.8Zm10.115,0-.847-2.023a11,11,0,0,0,3.513-2.365,11,11,0,0,0,2.365-3.513l2.023.848a12.623,12.623,0,0,1-2.816,4.224A13.243,13.243,0,0,1,54.168-898.779Z" transform="translate(1187 1982)" fill="#016dd5"/>
  </g>
</svg>
