<svg xmlns="http://www.w3.org/2000/svg" width="88.731" height="87.998" viewBox="0 0 88.731 87.998">
  <g id="Group_40289" data-name="Group 40289" transform="translate(-1799.583 -563)">
    <circle id="Ellipse_65" data-name="Ellipse 65" cx="11.071" cy="11.071" r="11.071" transform="translate(1832.868 593.414)"/>
    <path id="Path_2340" data-name="Path 2340" d="M143.786,29.412l-2.256,4.021a1.112,1.112,0,0,1-.752.546l-4.521.9a2.669,2.669,0,0,0-1.438,4.427l3.127,3.388a1.112,1.112,0,0,1,.287.885l-.538,4.579a2.669,2.669,0,0,0,3.766,2.736l4.189-1.927a1.113,1.113,0,0,1,.93,0l4.189,1.927a2.669,2.669,0,0,0,3.766-2.736l-.538-4.579a1.112,1.112,0,0,1,.287-.885l3.127-3.388a2.669,2.669,0,0,0-1.438-4.427l-4.521-.9a1.112,1.112,0,0,1-.752-.546l-2.256-4.021a2.668,2.668,0,0,0-4.655,0ZM113.741,18.2a6.9,6.9,0,0,0-9.7-1.183c-2.527,2.161-2.7,6.48-.171,10.8,1.669,3.048,5.922,6.122,9.486,8.153a.777.777,0,0,0,.771,0c3.564-2.032,7.816-5.106,9.486-8.153,2.524-4.322,2.356-8.64-.171-10.8a6.9,6.9,0,0,0-9.7,1.183Z" transform="translate(1730.198 547.454)" fill-rule="evenodd"/>
    <path id="Path_2341" data-name="Path 2341" d="M133.864,138.832c-.584.186-15.968,5.148-27.056,15.134-5.816,5.238-10.22,11.889-11.65,19.689,0,.014,0,.028-.007.043a6.179,6.179,0,0,0,12.261,1.545c0-.014,0-.029,0-.043.374-5.376,3.076-10.1,6.606-14.073,8.614-9.71,21.421-15.482,22.208-15.831l.021-.009a3.441,3.441,0,0,0-2.4-6.449l.011,0Z" transform="translate(1734.557 470.348)" fill-rule="evenodd"/>
    <path id="Path_2342" data-name="Path 2342" d="M62.974,98.817q-1.532-.205-3.019-.5a.778.778,0,0,0-.307,1.526q1.536.309,3.12.521a.778.778,0,0,0,.206-1.543Zm18.538-1.135q-1.464.389-2.982.685a.778.778,0,1,0,.3,1.527q1.569-.305,3.084-.709a.778.778,0,1,0-.4-1.5Zm-24.534-.074q-1.491-.407-2.92-.906a.778.778,0,1,0-.513,1.469q1.479.517,3.024.939a.778.778,0,1,0,.409-1.5ZM87.291,95.7q-1.391.592-2.854,1.092a.778.778,0,0,0,.5,1.473q1.516-.518,2.959-1.133a.778.778,0,1,0-.609-1.432Zm-36.081-.111q-1.416-.615-2.752-1.32a.778.778,0,1,0-.727,1.376q1.386.732,2.86,1.371a.778.778,0,1,0,.619-1.428Zm41.491-2.7q-1.277.8-2.649,1.511a.778.778,0,1,0,.717,1.382q1.426-.74,2.757-1.573a.778.778,0,1,0-.826-1.319Zm-46.88-.151q-1.3-.828-2.5-1.743a.778.778,0,1,0-.947,1.235q1.247.955,2.606,1.821a.778.778,0,0,0,.836-1.313Zm51.731-3.511q-1.11,1.011-2.341,1.938a.778.778,0,1,0,.936,1.243q1.289-.97,2.453-2.03a.778.778,0,1,0-1.048-1.151ZM41,89.04a29.84,29.84,0,0,1-2.118-2.17A.778.778,0,1,0,37.716,87.9a31.408,31.408,0,0,0,2.228,2.283A.778.778,0,1,0,41,89.04Zm60.585-4.318a27.467,27.467,0,0,1-1.9,2.358.778.778,0,1,0,1.158,1.04,29.107,29.107,0,0,0,2-2.491.778.778,0,0,0-1.266-.906Zm-64.575-.229a25.068,25.068,0,0,1-1.58-2.57.778.778,0,0,0-1.373.732,26.616,26.616,0,0,0,1.679,2.73.778.778,0,1,0,1.275-.893Zm67.461-5.05a23.291,23.291,0,0,1-1.276,2.726.778.778,0,1,0,1.365.749,24.892,24.892,0,0,0,1.362-2.908.778.778,0,0,0-1.45-.567Zm-70.284-.26a21.76,21.76,0,0,1-.864-2.876.778.778,0,1,0-1.518.343,23.341,23.341,0,0,0,.925,3.082.778.778,0,1,0,1.457-.548Zm71.675-5.564a21.089,21.089,0,0,1-.491,2.959.778.778,0,1,0,1.514.363,22.663,22.663,0,0,0,.527-3.177.778.778,0,1,0-1.55-.145Zm-72.991-.277q-.067-.835-.067-1.684,0-.661.041-1.315a.778.778,0,1,0-1.553-.1q-.044.7-.044,1.412,0,.911.072,1.809a.778.778,0,1,0,1.551-.124Zm72.7-5.7a21.066,21.066,0,0,1,.361,2.978.778.778,0,0,0,1.554-.077,22.6,22.6,0,0,0-.387-3.2.778.778,0,0,0-1.528.3ZM95.43,52.312q.336.257.663.521a.778.778,0,1,0,.977-1.211q-.342-.276-.694-.545a.778.778,0,0,0-.946,1.236ZM90.3,49.039q1.365.72,2.637,1.53a.778.778,0,0,0,.836-1.313q-1.323-.842-2.746-1.593a.778.778,0,1,0-.727,1.376ZM46.076,50.413q1.277-.8,2.649-1.509a.778.778,0,0,0-.716-1.382q-1.427.74-2.759,1.572a.778.778,0,1,0,.825,1.32Zm38.622-3.8q1.458.509,2.846,1.111a.778.778,0,1,0,.619-1.428q-1.438-.623-2.952-1.152a.778.778,0,0,0-.513,1.469Zm-33.211,1q1.391-.591,2.854-1.091a.778.778,0,1,0-.5-1.473q-1.516.518-2.96,1.131a.778.778,0,0,0,.608,1.432ZM78.8,45q1.515.3,2.977.7a.778.778,0,0,0,.409-1.5q-1.512-.412-3.08-.728A.778.778,0,1,0,78.8,45Zm-21.531.627q1.325-.351,2.694-.627a.778.778,0,0,0-.307-1.526q-1.415.285-2.786.649a.778.778,0,0,0,.4,1.5Z" transform="translate(1774.559 529.967)" fill-rule="evenodd"/>
    <path id="Path_2343" data-name="Path 2343" d="M92.54,159.849c-.756.742-1.492,1.512-2.2,2.309a26.684,26.684,0,0,0-4.973,7.774A19.284,19.284,0,0,1,86.5,175.2c0,.015,0,.029,0,.043A6.179,6.179,0,0,0,98.769,173.7c0-.015,0-.029-.007-.043A32.648,32.648,0,0,0,92.54,159.849Zm-16.172-2.3a44.35,44.35,0,0,1,4.552-4.74q1.147-1.033,2.349-2A87.537,87.537,0,0,0,60.053,138.83a3.441,3.441,0,0,0-2.379,6.456,76.734,76.734,0,0,1,18.7,12.262Z" transform="translate(1759.402 470.349)" fill-rule="evenodd"/>
    <path id="Path_2344" data-name="Path 2344" d="M22.518,65.613a39.7,39.7,0,0,1,8.255,0,14.852,14.852,0,0,1-1.531,4.118A4.179,4.179,0,0,1,27.2,71.749q-.278.013-.56.013t-.56-.013a4.179,4.179,0,0,1-2.037-2.018A14.852,14.852,0,0,1,22.518,65.613Zm9.8.2a28.45,28.45,0,0,1,4.123.924A12.093,12.093,0,0,1,30.1,71.258q.25-.345.482-.741A16.646,16.646,0,0,0,32.318,65.812Zm-11.346,0a16.646,16.646,0,0,0,1.732,4.7q.232.4.482.741a12.091,12.091,0,0,1-6.337-4.522A28.428,28.428,0,0,1,20.972,65.812ZM37.29,54.026a29.447,29.447,0,0,1-4.682,1.091,30.079,30.079,0,0,1,0,9.165,29.5,29.5,0,0,1,4.682,1.091,12.066,12.066,0,0,0,0-11.347Zm-21.29,0a12.066,12.066,0,0,0,0,11.347,29.488,29.488,0,0,1,4.682-1.091,30.078,30.078,0,0,1,0-9.165A29.456,29.456,0,0,1,16,54.026ZM31.068,55.32a28.86,28.86,0,0,1,0,8.76,41.106,41.106,0,0,0-8.847,0,28.86,28.86,0,0,1,0-8.76,41.106,41.106,0,0,0,8.847,0Zm-4.983-7.669q.277-.013.56-.013t.56.013a4.177,4.177,0,0,1,2.037,2.018,14.847,14.847,0,0,1,1.531,4.118,39.767,39.767,0,0,1-8.255,0,14.847,14.847,0,0,1,1.531-4.118A4.177,4.177,0,0,1,26.085,47.651Zm4.018.491a12.091,12.091,0,0,1,6.337,4.522,28.427,28.427,0,0,1-4.123.924,16.642,16.642,0,0,0-1.732-4.7q-.232-.4-.482-.741Zm-6.917,0q-.25.345-.482.741a16.642,16.642,0,0,0-1.732,4.7,28.438,28.438,0,0,1-4.123-.924,12.091,12.091,0,0,1,6.337-4.522Z" transform="translate(1785 527.349)" fill-rule="evenodd"/>
  </g>
</svg>
