<svg xmlns="http://www.w3.org/2000/svg" width="82.321" height="87.998" viewBox="0 0 82.321 87.998">
  <g id="noun-pyramid-4949254_1_" data-name="noun-pyramid-4949254 (1)" transform="translate(-3 -1)">
    <path id="Path_2429" data-name="Path 2429" d="M48,31.758v7.1H59.355v-7.1A4.258,4.258,0,0,0,55.1,27.5H52.258A4.258,4.258,0,0,0,48,31.758Z" transform="translate(18.87 11.112)"/>
    <circle id="Ellipse_66" data-name="Ellipse 66" cx="3.548" cy="3.548" r="3.548" transform="translate(68.999 31.515)"/>
    <path id="Path_2430" data-name="Path 2430" d="M8,31.758v7.1H19.355v-7.1A4.258,4.258,0,0,0,15.1,27.5H12.258A4.258,4.258,0,0,0,8,31.758Z" transform="translate(2.097 11.112)"/>
    <circle id="Ellipse_67" data-name="Ellipse 67" cx="3.548" cy="3.548" r="3.548" transform="translate(12.226 31.515)"/>
    <rect id="Rectangle_10117" data-name="Rectangle 10117" width="11.709" height="6.387" transform="translate(45.225 18.032)"/>
    <rect id="Rectangle_10118" data-name="Rectangle 10118" width="14.548" height="6.387" transform="translate(45.225 26.548)"/>
    <rect id="Rectangle_10119" data-name="Rectangle 10119" width="11.709" height="6.387" transform="translate(45.225 35.064)"/>
    <rect id="Rectangle_10120" data-name="Rectangle 10120" width="8.871" height="6.387" transform="translate(45.225 9.516)"/>
    <rect id="Rectangle_10121" data-name="Rectangle 10121" width="13.129" height="6.387" transform="translate(29.967 35.064)"/>
    <rect id="Rectangle_10122" data-name="Rectangle 10122" width="15.967" height="6.387" transform="translate(27.129 26.548)"/>
    <rect id="Rectangle_10123" data-name="Rectangle 10123" width="8.871" height="6.387" transform="translate(34.225 9.516)"/>
    <rect id="Rectangle_10124" data-name="Rectangle 10124" width="11.709" height="6.387" transform="translate(31.386 18.032)"/>
    <rect id="Rectangle_10125" data-name="Rectangle 10125" width="6.032" height="6.387" transform="translate(45.225 1)"/>
    <rect id="Rectangle_10126" data-name="Rectangle 10126" width="6.032" height="6.387" transform="translate(37.064 1)"/>
    <rect id="Rectangle_10127" data-name="Rectangle 10127" width="17.387" height="6.387" transform="translate(45.225 43.58)"/>
    <rect id="Rectangle_10128" data-name="Rectangle 10128" width="15.967" height="6.387" transform="translate(27.129 43.58)"/>
    <path id="Path_2431" data-name="Path 2431" d="M84.317,37H4a1.006,1.006,0,0,0-.995,1.141,41.557,41.557,0,0,0,82.3,0A1.006,1.006,0,0,0,84.317,37ZM81.2,46.288a18.432,18.432,0,0,1-7.689.433,14.951,14.951,0,0,0-4.1-.438,3.331,3.331,0,0,0-3.024,2.4,16.05,16.05,0,0,1-.119,2.5c-.407,1.173-1.836,1.592-3.07,1.7-4.481.4-9.313-.949-13.314,1.113a2.768,2.768,0,0,0-1.712,2.035c-.089,1.334,1.39,2.22,1.831,3.482.728,2.086-1.487,3.9-2.528,5.849a6.046,6.046,0,0,0,.59,6.323c-1.289.128-2.592.2-3.91.2a39.533,39.533,0,0,1-21.673-6.47,4.861,4.861,0,0,1,1.969-4.064,8.36,8.36,0,0,0,1.727-1.221,3.34,3.34,0,0,0-.161-3.945A24.559,24.559,0,0,0,23,53.2a4.535,4.535,0,0,1-1.646-3.757,4.1,4.1,0,0,1,2.436-2.818,31.47,31.47,0,0,1,5.381-1.436c2.281-.633,4.961-3.326,6.643-5.251a2.673,2.673,0,0,1,2.018-.922H83.152A38.589,38.589,0,0,1,81.2,46.288Z" transform="translate(0 15.096)"/>
  </g>
</svg>
