<svg xmlns="http://www.w3.org/2000/svg" width="101.46" height="94.984" viewBox="0 0 101.46 94.984">
  <g id="noun-map-2165616" transform="translate(-6.25 -7.542)">
    <path id="Path_3151" data-name="Path 3151" d="M105.791,23.393H96.868c-.792,1.27-1.6,2.528-2.407,3.733l7.783,0L98.216,40.405,75.246,48.329l-24.437.08L62.327,27.143l5.128-.005c-.812-1.207-1.618-2.47-2.415-3.745H25.329a3.209,3.209,0,0,0-3,1.884L6.32,76.8c-.323,1.042.5,1.876,1.846,1.869H89.21a3.209,3.209,0,0,0,3-1.881l15.439-51.533C107.955,24.227,107.124,23.393,105.791,23.393ZM26.574,27.158l29.668-.015-8.4,12.283L23.7,36.4Zm-4.66,15.016,14.61,2.6-.175,11.346L18.986,51.613ZM11.766,75.019l4.452-14.487,27.035,4.619L31.181,74.956Zm29.681-.063,11.17-9.387-.511-9.514,15.169-.063.862,18.964H41.447Zm46.463,0-12.581.083-.919-18.924L94.23,53.55Z" transform="translate(0 23.858)"/>
    <path id="Path_3152" data-name="Path 3152" d="M66.965,26.839a19.3,19.3,0,0,0-38.6,0c0,10.659,19.3,34.187,19.3,34.187S66.965,37.5,66.965,26.839Zm-30.74-.964A11.441,11.441,0,1,1,47.665,37.313,11.44,11.44,0,0,1,36.225,25.875Z" transform="translate(33.287)"/>
  </g>
</svg>
