<svg xmlns="http://www.w3.org/2000/svg" xmlns:xlink="http://www.w3.org/1999/xlink" width="2561" height="378" viewBox="0 0 2561 378">
  <defs>
    <clipPath id="clip-path">
      <rect width="2561" height="378" fill="none"/>
    </clipPath>
  </defs>
  <g id="Group_44270" data-name="Group 44270" transform="translate(0 -5877)">
    <rect id="Rectangle_12281" data-name="Rectangle 12281" width="2560" height="378" transform="translate(0 5877)"/>
    <g id="Lines" transform="translate(0 5877)" clip-path="url(#clip-path)">
      <g transform="translate(-17 -78.5)">
        <line id="Line_1" data-name="Line 1" y2="377.5" transform="translate(17.5 78.5)" fill="none" stroke="#141414" stroke-width="1"/>
      </g>
      <g transform="translate(4 -78.5)">
        <line id="Line_1-2" data-name="Line 1" y2="377.5" transform="translate(17.5 78.5)" fill="none" stroke="#141414" stroke-width="1"/>
      </g>
      <g transform="translate(25 -78.5)">
        <line id="Line_1-3" data-name="Line 1" y2="377.5" transform="translate(17.5 78.5)" fill="none" stroke="#141414" stroke-width="1"/>
      </g>
      <g transform="translate(46 -78.5)">
        <line id="Line_1-4" data-name="Line 1" y2="377.5" transform="translate(17.5 78.5)" fill="none" stroke="#141414" stroke-width="1"/>
      </g>
      <g transform="translate(67 -78.5)">
        <line id="Line_1-5" data-name="Line 1" y2="377.5" transform="translate(17.5 78.5)" fill="none" stroke="#141414" stroke-width="1"/>
      </g>
      <g transform="translate(88 -78.5)">
        <line id="Line_1-6" data-name="Line 1" y2="377.5" transform="translate(17.5 78.5)" fill="none" stroke="#141414" stroke-width="1"/>
      </g>
      <g transform="translate(109 -78.5)">
        <line id="Line_1-7" data-name="Line 1" y2="377.5" transform="translate(17.5 78.5)" fill="none" stroke="#141414" stroke-width="1"/>
      </g>
      <g transform="translate(130 -78.5)">
        <line id="Line_1-8" data-name="Line 1" y2="377.5" transform="translate(17.5 78.5)" fill="none" stroke="#141414" stroke-width="1"/>
      </g>
      <g transform="translate(151 -78.5)">
        <line id="Line_1-9" data-name="Line 1" y2="377.5" transform="translate(17.5 78.5)" fill="none" stroke="#141414" stroke-width="1"/>
      </g>
      <g transform="translate(172 -78.5)">
        <line id="Line_1-10" data-name="Line 1" y2="377.5" transform="translate(17.5 78.5)" fill="none" stroke="#141414" stroke-width="1"/>
      </g>
      <g transform="translate(193 -78.5)">
        <line id="Line_1-11" data-name="Line 1" y2="377.5" transform="translate(17.5 78.5)" fill="none" stroke="#141414" stroke-width="1"/>
      </g>
      <g transform="translate(214 -78.5)">
        <line id="Line_1-12" data-name="Line 1" y2="377.5" transform="translate(17.5 78.5)" fill="none" stroke="#141414" stroke-width="1"/>
      </g>
      <g transform="translate(235 -78.5)">
        <line id="Line_1-13" data-name="Line 1" y2="377.5" transform="translate(17.5 78.5)" fill="none" stroke="#141414" stroke-width="1"/>
      </g>
      <g transform="translate(256 -78.5)">
        <line id="Line_1-14" data-name="Line 1" y2="377.5" transform="translate(17.5 78.5)" fill="none" stroke="#141414" stroke-width="1"/>
      </g>
      <g transform="translate(277 -78.5)">
        <line id="Line_1-15" data-name="Line 1" y2="377.5" transform="translate(17.5 78.5)" fill="none" stroke="#141414" stroke-width="1"/>
      </g>
      <g transform="translate(298 -78.5)">
        <line id="Line_1-16" data-name="Line 1" y2="377.5" transform="translate(17.5 78.5)" fill="none" stroke="#141414" stroke-width="1"/>
      </g>
      <g transform="translate(319 -78.5)">
        <line id="Line_1-17" data-name="Line 1" y2="377.5" transform="translate(17.5 78.5)" fill="none" stroke="#141414" stroke-width="1"/>
      </g>
      <g transform="translate(340 -78.5)">
        <line id="Line_1-18" data-name="Line 1" y2="377.5" transform="translate(17.5 78.5)" fill="none" stroke="#141414" stroke-width="1"/>
      </g>
      <g transform="translate(361 -78.5)">
        <line id="Line_1-19" data-name="Line 1" y2="377.5" transform="translate(17.5 78.5)" fill="none" stroke="#141414" stroke-width="1"/>
      </g>
      <g transform="translate(382 -78.5)">
        <line id="Line_1-20" data-name="Line 1" y2="377.5" transform="translate(17.5 78.5)" fill="none" stroke="#141414" stroke-width="1"/>
      </g>
      <g transform="translate(403 -78.5)">
        <line id="Line_1-21" data-name="Line 1" y2="377.5" transform="translate(17.5 78.5)" fill="none" stroke="#141414" stroke-width="1"/>
      </g>
      <g transform="translate(424 -78.5)">
        <line id="Line_1-22" data-name="Line 1" y2="377.5" transform="translate(17.5 78.5)" fill="none" stroke="#141414" stroke-width="1"/>
      </g>
      <g transform="translate(445 -78.5)">
        <line id="Line_1-23" data-name="Line 1" y2="377.5" transform="translate(17.5 78.5)" fill="none" stroke="#141414" stroke-width="1"/>
      </g>
      <g transform="translate(466 -78.5)">
        <line id="Line_1-24" data-name="Line 1" y2="377.5" transform="translate(17.5 78.5)" fill="none" stroke="#141414" stroke-width="1"/>
      </g>
      <g transform="translate(487 -78.5)">
        <line id="Line_1-25" data-name="Line 1" y2="377.5" transform="translate(17.5 78.5)" fill="none" stroke="#141414" stroke-width="1"/>
      </g>
      <g transform="translate(508 -78.5)">
        <line id="Line_1-26" data-name="Line 1" y2="377.5" transform="translate(17.5 78.5)" fill="none" stroke="#141414" stroke-width="1"/>
      </g>
      <g transform="translate(529 -78.5)">
        <line id="Line_1-27" data-name="Line 1" y2="377.5" transform="translate(17.5 78.5)" fill="none" stroke="#141414" stroke-width="1"/>
      </g>
      <g transform="translate(550 -78.5)">
        <line id="Line_1-28" data-name="Line 1" y2="377.5" transform="translate(17.5 78.5)" fill="none" stroke="#141414" stroke-width="1"/>
      </g>
      <g transform="translate(571 -78.5)">
        <line id="Line_1-29" data-name="Line 1" y2="377.5" transform="translate(17.5 78.5)" fill="none" stroke="#141414" stroke-width="1"/>
      </g>
      <g transform="translate(592 -78.5)">
        <line id="Line_1-30" data-name="Line 1" y2="377.5" transform="translate(17.5 78.5)" fill="none" stroke="#141414" stroke-width="1"/>
      </g>
      <g transform="translate(613 -78.5)">
        <line id="Line_1-31" data-name="Line 1" y2="377.5" transform="translate(17.5 78.5)" fill="none" stroke="#141414" stroke-width="1"/>
      </g>
      <g transform="translate(634 -78.5)">
        <line id="Line_1-32" data-name="Line 1" y2="377.5" transform="translate(17.5 78.5)" fill="none" stroke="#141414" stroke-width="1"/>
      </g>
      <g transform="translate(655 -78.5)">
        <line id="Line_1-33" data-name="Line 1" y2="377.5" transform="translate(17.5 78.5)" fill="none" stroke="#141414" stroke-width="1"/>
      </g>
      <g transform="translate(676 -78.5)">
        <line id="Line_1-34" data-name="Line 1" y2="377.5" transform="translate(17.5 78.5)" fill="none" stroke="#141414" stroke-width="1"/>
      </g>
      <g transform="translate(697 -78.5)">
        <line id="Line_1-35" data-name="Line 1" y2="377.5" transform="translate(17.5 78.5)" fill="none" stroke="#141414" stroke-width="1"/>
      </g>
      <g transform="translate(718 -78.5)">
        <line id="Line_1-36" data-name="Line 1" y2="377.5" transform="translate(17.5 78.5)" fill="none" stroke="#141414" stroke-width="1"/>
      </g>
      <g transform="translate(739 -78.5)">
        <line id="Line_1-37" data-name="Line 1" y2="377.5" transform="translate(17.5 78.5)" fill="none" stroke="#141414" stroke-width="1"/>
      </g>
      <g transform="translate(760 -78.5)">
        <line id="Line_1-38" data-name="Line 1" y2="377.5" transform="translate(17.5 78.5)" fill="none" stroke="#141414" stroke-width="1"/>
      </g>
      <g transform="translate(781 -78.5)">
        <line id="Line_1-39" data-name="Line 1" y2="377.5" transform="translate(17.5 78.5)" fill="none" stroke="#141414" stroke-width="1"/>
      </g>
      <g transform="translate(802 -78.5)">
        <line id="Line_1-40" data-name="Line 1" y2="377.5" transform="translate(17.5 78.5)" fill="none" stroke="#141414" stroke-width="1"/>
      </g>
      <g transform="translate(823 -78.5)">
        <line id="Line_1-41" data-name="Line 1" y2="377.5" transform="translate(17.5 78.5)" fill="none" stroke="#141414" stroke-width="1"/>
      </g>
      <g transform="translate(844 -78.5)">
        <line id="Line_1-42" data-name="Line 1" y2="377.5" transform="translate(17.5 78.5)" fill="none" stroke="#141414" stroke-width="1"/>
      </g>
      <g transform="translate(865 -78.5)">
        <line id="Line_1-43" data-name="Line 1" y2="377.5" transform="translate(17.5 78.5)" fill="none" stroke="#141414" stroke-width="1"/>
      </g>
      <g transform="translate(886 -78.5)">
        <line id="Line_1-44" data-name="Line 1" y2="377.5" transform="translate(17.5 78.5)" fill="none" stroke="#141414" stroke-width="1"/>
      </g>
      <g transform="translate(907 -78.5)">
        <line id="Line_1-45" data-name="Line 1" y2="377.5" transform="translate(17.5 78.5)" fill="none" stroke="#141414" stroke-width="1"/>
      </g>
      <g transform="translate(928 -78.5)">
        <line id="Line_1-46" data-name="Line 1" y2="377.5" transform="translate(17.5 78.5)" fill="none" stroke="#141414" stroke-width="1"/>
      </g>
      <g transform="translate(949 -78.5)">
        <line id="Line_1-47" data-name="Line 1" y2="377.5" transform="translate(17.5 78.5)" fill="none" stroke="#141414" stroke-width="1"/>
      </g>
      <g transform="translate(970 -78.5)">
        <line id="Line_1-48" data-name="Line 1" y2="377.5" transform="translate(17.5 78.5)" fill="none" stroke="#141414" stroke-width="1"/>
      </g>
      <g transform="translate(991 -78.5)">
        <line id="Line_1-49" data-name="Line 1" y2="377.5" transform="translate(17.5 78.5)" fill="none" stroke="#141414" stroke-width="1"/>
      </g>
      <g transform="translate(1012 -78.5)">
        <line id="Line_1-50" data-name="Line 1" y2="377.5" transform="translate(17.5 78.5)" fill="none" stroke="#141414" stroke-width="1"/>
      </g>
      <g transform="translate(1033 -78.5)">
        <line id="Line_1-51" data-name="Line 1" y2="377.5" transform="translate(17.5 78.5)" fill="none" stroke="#141414" stroke-width="1"/>
      </g>
      <g transform="translate(1054 -78.5)">
        <line id="Line_1-52" data-name="Line 1" y2="377.5" transform="translate(17.5 78.5)" fill="none" stroke="#141414" stroke-width="1"/>
      </g>
      <g transform="translate(1075 -78.5)">
        <line id="Line_1-53" data-name="Line 1" y2="377.5" transform="translate(17.5 78.5)" fill="none" stroke="#141414" stroke-width="1"/>
      </g>
      <g transform="translate(1096 -78.5)">
        <line id="Line_1-54" data-name="Line 1" y2="377.5" transform="translate(17.5 78.5)" fill="none" stroke="#141414" stroke-width="1"/>
      </g>
      <g transform="translate(1117 -78.5)">
        <line id="Line_1-55" data-name="Line 1" y2="377.5" transform="translate(17.5 78.5)" fill="none" stroke="#141414" stroke-width="1"/>
      </g>
      <g transform="translate(1138 -78.5)">
        <line id="Line_1-56" data-name="Line 1" y2="377.5" transform="translate(17.5 78.5)" fill="none" stroke="#141414" stroke-width="1"/>
      </g>
      <g transform="translate(1159 -78.5)">
        <line id="Line_1-57" data-name="Line 1" y2="377.5" transform="translate(17.5 78.5)" fill="none" stroke="#141414" stroke-width="1"/>
      </g>
      <g transform="translate(1180 -78.5)">
        <line id="Line_1-58" data-name="Line 1" y2="377.5" transform="translate(17.5 78.5)" fill="none" stroke="#141414" stroke-width="1"/>
      </g>
      <g transform="translate(1201 -78.5)">
        <line id="Line_1-59" data-name="Line 1" y2="377.5" transform="translate(17.5 78.5)" fill="none" stroke="#141414" stroke-width="1"/>
      </g>
      <g transform="translate(1222 -78.5)">
        <line id="Line_1-60" data-name="Line 1" y2="377.5" transform="translate(17.5 78.5)" fill="none" stroke="#141414" stroke-width="1"/>
      </g>
      <g transform="translate(1243 -78.5)">
        <line id="Line_1-61" data-name="Line 1" y2="377.5" transform="translate(17.5 78.5)" fill="none" stroke="#141414" stroke-width="1"/>
      </g>
      <g transform="translate(1264 -78.5)">
        <line id="Line_1-62" data-name="Line 1" y2="377.5" transform="translate(17.5 78.5)" fill="none" stroke="#141414" stroke-width="1"/>
      </g>
      <g transform="translate(1285 -78.5)">
        <line id="Line_1-63" data-name="Line 1" y2="377.5" transform="translate(17.5 78.5)" fill="none" stroke="#141414" stroke-width="1"/>
      </g>
      <g transform="translate(1306 -78.5)">
        <line id="Line_1-64" data-name="Line 1" y2="377.5" transform="translate(17.5 78.5)" fill="none" stroke="#141414" stroke-width="1"/>
      </g>
      <g transform="translate(1327 -78.5)">
        <line id="Line_1-65" data-name="Line 1" y2="377.5" transform="translate(17.5 78.5)" fill="none" stroke="#141414" stroke-width="1"/>
      </g>
      <g transform="translate(1348 -78.5)">
        <line id="Line_1-66" data-name="Line 1" y2="377.5" transform="translate(17.5 78.5)" fill="none" stroke="#141414" stroke-width="1"/>
      </g>
      <g transform="translate(1369 -78.5)">
        <line id="Line_1-67" data-name="Line 1" y2="377.5" transform="translate(17.5 78.5)" fill="none" stroke="#141414" stroke-width="1"/>
      </g>
      <g transform="translate(1390 -78.5)">
        <line id="Line_1-68" data-name="Line 1" y2="377.5" transform="translate(17.5 78.5)" fill="none" stroke="#141414" stroke-width="1"/>
      </g>
      <g transform="translate(1411 -78.5)">
        <line id="Line_1-69" data-name="Line 1" y2="377.5" transform="translate(17.5 78.5)" fill="none" stroke="#141414" stroke-width="1"/>
      </g>
      <g transform="translate(1432 -78.5)">
        <line id="Line_1-70" data-name="Line 1" y2="377.5" transform="translate(17.5 78.5)" fill="none" stroke="#141414" stroke-width="1"/>
      </g>
      <g transform="translate(1453 -78.5)">
        <line id="Line_1-71" data-name="Line 1" y2="377.5" transform="translate(17.5 78.5)" fill="none" stroke="#141414" stroke-width="1"/>
      </g>
      <g transform="translate(1474 -78.5)">
        <line id="Line_1-72" data-name="Line 1" y2="377.5" transform="translate(17.5 78.5)" fill="none" stroke="#141414" stroke-width="1"/>
      </g>
      <g transform="translate(1495 -78.5)">
        <line id="Line_1-73" data-name="Line 1" y2="377.5" transform="translate(17.5 78.5)" fill="none" stroke="#141414" stroke-width="1"/>
      </g>
      <g transform="translate(1516 -78.5)">
        <line id="Line_1-74" data-name="Line 1" y2="377.5" transform="translate(17.5 78.5)" fill="none" stroke="#141414" stroke-width="1"/>
      </g>
      <g transform="translate(1537 -78.5)">
        <line id="Line_1-75" data-name="Line 1" y2="377.5" transform="translate(17.5 78.5)" fill="none" stroke="#141414" stroke-width="1"/>
      </g>
      <g transform="translate(1558 -78.5)">
        <line id="Line_1-76" data-name="Line 1" y2="377.5" transform="translate(17.5 78.5)" fill="none" stroke="#141414" stroke-width="1"/>
      </g>
      <g transform="translate(1579 -78.5)">
        <line id="Line_1-77" data-name="Line 1" y2="377.5" transform="translate(17.5 78.5)" fill="none" stroke="#141414" stroke-width="1"/>
      </g>
      <g transform="translate(1600 -78.5)">
        <line id="Line_1-78" data-name="Line 1" y2="377.5" transform="translate(17.5 78.5)" fill="none" stroke="#141414" stroke-width="1"/>
      </g>
      <g transform="translate(1621 -78.5)">
        <line id="Line_1-79" data-name="Line 1" y2="377.5" transform="translate(17.5 78.5)" fill="none" stroke="#141414" stroke-width="1"/>
      </g>
      <g transform="translate(1642 -78.5)">
        <line id="Line_1-80" data-name="Line 1" y2="377.5" transform="translate(17.5 78.5)" fill="none" stroke="#141414" stroke-width="1"/>
      </g>
      <g transform="translate(1663 -78.5)">
        <line id="Line_1-81" data-name="Line 1" y2="377.5" transform="translate(17.5 78.5)" fill="none" stroke="#141414" stroke-width="1"/>
      </g>
      <g transform="translate(1684 -78.5)">
        <line id="Line_1-82" data-name="Line 1" y2="377.5" transform="translate(17.5 78.5)" fill="none" stroke="#141414" stroke-width="1"/>
      </g>
      <g transform="translate(1705 -78.5)">
        <line id="Line_1-83" data-name="Line 1" y2="377.5" transform="translate(17.5 78.5)" fill="none" stroke="#141414" stroke-width="1"/>
      </g>
      <g transform="translate(1726 -78.5)">
        <line id="Line_1-84" data-name="Line 1" y2="377.5" transform="translate(17.5 78.5)" fill="none" stroke="#141414" stroke-width="1"/>
      </g>
      <g transform="translate(1747 -78.5)">
        <line id="Line_1-85" data-name="Line 1" y2="377.5" transform="translate(17.5 78.5)" fill="none" stroke="#141414" stroke-width="1"/>
      </g>
      <g transform="translate(1768 -78.5)">
        <line id="Line_1-86" data-name="Line 1" y2="377.5" transform="translate(17.5 78.5)" fill="none" stroke="#141414" stroke-width="1"/>
      </g>
      <g transform="translate(1789 -78.5)">
        <line id="Line_1-87" data-name="Line 1" y2="377.5" transform="translate(17.5 78.5)" fill="none" stroke="#141414" stroke-width="1"/>
      </g>
      <g transform="translate(1810 -78.5)">
        <line id="Line_1-88" data-name="Line 1" y2="377.5" transform="translate(17.5 78.5)" fill="none" stroke="#141414" stroke-width="1"/>
      </g>
      <g transform="translate(1831 -78.5)">
        <line id="Line_1-89" data-name="Line 1" y2="377.5" transform="translate(17.5 78.5)" fill="none" stroke="#141414" stroke-width="1"/>
      </g>
      <g transform="translate(1852 -78.5)">
        <line id="Line_1-90" data-name="Line 1" y2="377.5" transform="translate(17.5 78.5)" fill="none" stroke="#141414" stroke-width="1"/>
      </g>
      <g transform="translate(1873 -78.5)">
        <line id="Line_1-91" data-name="Line 1" y2="377.5" transform="translate(17.5 78.5)" fill="none" stroke="#141414" stroke-width="1"/>
      </g>
      <g transform="translate(1894 -78.5)">
        <line id="Line_1-92" data-name="Line 1" y2="377.5" transform="translate(17.5 78.5)" fill="none" stroke="#141414" stroke-width="1"/>
      </g>
      <g transform="translate(1915 -78.5)">
        <line id="Line_1-93" data-name="Line 1" y2="377.5" transform="translate(17.5 78.5)" fill="none" stroke="#141414" stroke-width="1"/>
      </g>
      <g transform="translate(1936 -78.5)">
        <line id="Line_1-94" data-name="Line 1" y2="377.5" transform="translate(17.5 78.5)" fill="none" stroke="#141414" stroke-width="1"/>
      </g>
      <g transform="translate(1957 -78.5)">
        <line id="Line_1-95" data-name="Line 1" y2="377.5" transform="translate(17.5 78.5)" fill="none" stroke="#141414" stroke-width="1"/>
      </g>
      <g transform="translate(1978 -78.5)">
        <line id="Line_1-96" data-name="Line 1" y2="377.5" transform="translate(17.5 78.5)" fill="none" stroke="#141414" stroke-width="1"/>
      </g>
      <g transform="translate(1999 -78.5)">
        <line id="Line_1-97" data-name="Line 1" y2="377.5" transform="translate(17.5 78.5)" fill="none" stroke="#141414" stroke-width="1"/>
      </g>
      <g transform="translate(2020 -78.5)">
        <line id="Line_1-98" data-name="Line 1" y2="377.5" transform="translate(17.5 78.5)" fill="none" stroke="#141414" stroke-width="1"/>
      </g>
      <g transform="translate(2041 -78.5)">
        <line id="Line_1-99" data-name="Line 1" y2="377.5" transform="translate(17.5 78.5)" fill="none" stroke="#141414" stroke-width="1"/>
      </g>
      <g transform="translate(2062 -78.5)">
        <line id="Line_1-100" data-name="Line 1" y2="377.5" transform="translate(17.5 78.5)" fill="none" stroke="#141414" stroke-width="1"/>
      </g>
      <g transform="translate(2083 -78.5)">
        <line id="Line_1-101" data-name="Line 1" y2="377.5" transform="translate(17.5 78.5)" fill="none" stroke="#141414" stroke-width="1"/>
      </g>
      <g transform="translate(2104 -78.5)">
        <line id="Line_1-102" data-name="Line 1" y2="377.5" transform="translate(17.5 78.5)" fill="none" stroke="#141414" stroke-width="1"/>
      </g>
      <g transform="translate(2125 -78.5)">
        <line id="Line_1-103" data-name="Line 1" y2="377.5" transform="translate(17.5 78.5)" fill="none" stroke="#141414" stroke-width="1"/>
      </g>
      <g transform="translate(2146 -78.5)">
        <line id="Line_1-104" data-name="Line 1" y2="377.5" transform="translate(17.5 78.5)" fill="none" stroke="#141414" stroke-width="1"/>
      </g>
      <g transform="translate(2167 -78.5)">
        <line id="Line_1-105" data-name="Line 1" y2="377.5" transform="translate(17.5 78.5)" fill="none" stroke="#141414" stroke-width="1"/>
      </g>
      <g transform="translate(2188 -78.5)">
        <line id="Line_1-106" data-name="Line 1" y2="377.5" transform="translate(17.5 78.5)" fill="none" stroke="#141414" stroke-width="1"/>
      </g>
      <g transform="translate(2209 -78.5)">
        <line id="Line_1-107" data-name="Line 1" y2="377.5" transform="translate(17.5 78.5)" fill="none" stroke="#141414" stroke-width="1"/>
      </g>
      <g transform="translate(2230 -78.5)">
        <line id="Line_1-108" data-name="Line 1" y2="377.5" transform="translate(17.5 78.5)" fill="none" stroke="#141414" stroke-width="1"/>
      </g>
      <g transform="translate(2251 -78.5)">
        <line id="Line_1-109" data-name="Line 1" y2="377.5" transform="translate(17.5 78.5)" fill="none" stroke="#141414" stroke-width="1"/>
      </g>
      <g transform="translate(2272 -78.5)">
        <line id="Line_1-110" data-name="Line 1" y2="377.5" transform="translate(17.5 78.5)" fill="none" stroke="#141414" stroke-width="1"/>
      </g>
      <g transform="translate(2293 -78.5)">
        <line id="Line_1-111" data-name="Line 1" y2="377.5" transform="translate(17.5 78.5)" fill="none" stroke="#141414" stroke-width="1"/>
      </g>
      <g transform="translate(2314 -78.5)">
        <line id="Line_1-112" data-name="Line 1" y2="377.5" transform="translate(17.5 78.5)" fill="none" stroke="#141414" stroke-width="1"/>
      </g>
      <g transform="translate(2335 -78.5)">
        <line id="Line_1-113" data-name="Line 1" y2="377.5" transform="translate(17.5 78.5)" fill="none" stroke="#141414" stroke-width="1"/>
      </g>
      <g transform="translate(2356 -78.5)">
        <line id="Line_1-114" data-name="Line 1" y2="377.5" transform="translate(17.5 78.5)" fill="none" stroke="#141414" stroke-width="1"/>
      </g>
      <g transform="translate(2377 -78.5)">
        <line id="Line_1-115" data-name="Line 1" y2="377.5" transform="translate(17.5 78.5)" fill="none" stroke="#141414" stroke-width="1"/>
      </g>
      <g transform="translate(2398 -78.5)">
        <line id="Line_1-116" data-name="Line 1" y2="377.5" transform="translate(17.5 78.5)" fill="none" stroke="#141414" stroke-width="1"/>
      </g>
      <g transform="translate(2419 -78.5)">
        <line id="Line_1-117" data-name="Line 1" y2="377.5" transform="translate(17.5 78.5)" fill="none" stroke="#141414" stroke-width="1"/>
      </g>
      <g transform="translate(2440 -78.5)">
        <line id="Line_1-118" data-name="Line 1" y2="377.5" transform="translate(17.5 78.5)" fill="none" stroke="#141414" stroke-width="1"/>
      </g>
      <g transform="translate(2461 -78.5)">
        <line id="Line_1-119" data-name="Line 1" y2="377.5" transform="translate(17.5 78.5)" fill="none" stroke="#141414" stroke-width="1"/>
      </g>
      <g transform="translate(2482 -78.5)">
        <line id="Line_1-120" data-name="Line 1" y2="377.5" transform="translate(17.5 78.5)" fill="none" stroke="#141414" stroke-width="1"/>
      </g>
      <g transform="translate(2503 -78.5)">
        <line id="Line_1-121" data-name="Line 1" y2="377.5" transform="translate(17.5 78.5)" fill="none" stroke="#141414" stroke-width="1"/>
      </g>
      <g transform="translate(2524 -78.5)">
        <line id="Line_1-122" data-name="Line 1" y2="377.5" transform="translate(17.5 78.5)" fill="none" stroke="#141414" stroke-width="1"/>
      </g>
    </g>
  </g>
</svg>
