<svg xmlns="http://www.w3.org/2000/svg" width="100" height="94.984" viewBox="0 0 100 94.984">
  <g id="noun-calendar-6935529" transform="translate(0 -2.516)">
    <path id="Path_3150" data-name="Path 3150" d="M83.234,61.328V15.953a5.771,5.771,0,0,0-5.766-5.766H72.234V7.375a4.836,4.836,0,1,0-9.672,0V10.2h-7.5V7.375a4.861,4.861,0,0,0-4.844-4.859,4.943,4.943,0,0,0-3.437,1.422,4.872,4.872,0,0,0-1.406,3.437V10.2h-7.5V7.375a4.861,4.861,0,0,0-4.844-4.859,4.915,4.915,0,0,0-3.437,1.422,4.86,4.86,0,0,0-1.422,3.437V10.2h-7.5V7.375A4.85,4.85,0,0,0,12.39,3.937a4.818,4.818,0,0,0-1.406,3.437V10.2H5.765A5.758,5.758,0,0,0,0,15.953V81.078a5.771,5.771,0,0,0,5.766,5.766H65.406A18.1,18.1,0,1,0,83.233,61.328ZM65.25,7.375a2.076,2.076,0,0,1,.641-1.531,2.108,2.108,0,0,1,1.516-.656,2.184,2.184,0,0,1,2.188,2.188V10.2H65.266V7.375Zm-17.219,0a2.09,2.09,0,0,1,.656-1.531,2.116,2.116,0,0,1,1.531-.656,2.184,2.184,0,0,1,2.188,2.188V10.2H48.047V7.375Zm-17.2,0a2.09,2.09,0,0,1,.656-1.531,2.091,2.091,0,0,1,1.531-.656,2.181,2.181,0,0,1,2.172,2.188V10.2H30.844V7.375Zm-17.172,0a2.1,2.1,0,0,1,.625-1.531,2.152,2.152,0,0,1,1.547-.656A2.181,2.181,0,0,1,18,7.375V10.2H13.656ZM2.672,15.953A3.074,3.074,0,0,1,5.75,12.875h5.219v2.938a4.2,4.2,0,0,0,4.188,4.2h1.281a1.336,1.336,0,1,0,0-2.672H15.172a1.53,1.53,0,0,1-1.516-1.531V12.875h14.5v2.938a4.2,4.2,0,0,0,4.2,4.2h1.3a1.336,1.336,0,0,0,0-2.672h-1.3a1.544,1.544,0,0,1-1.531-1.531V12.875H45.359v2.938a4.191,4.191,0,0,0,4.188,4.2h1.3a1.336,1.336,0,0,0,0-2.672h-1.3a1.544,1.544,0,0,1-1.531-1.531V12.875H62.547v2.938a4.2,4.2,0,0,0,4.187,4.2h1.281a1.336,1.336,0,0,0,0-2.672H66.734a1.52,1.52,0,0,1-1.516-1.531V12.875H77.452a3.084,3.084,0,0,1,3.078,3.078v8.891H2.672ZM5.766,84.172a3.074,3.074,0,0,1-3.078-3.078V27.516H80.563V61.328a17.81,17.81,0,0,0-2.922.469V33.235a2.271,2.271,0,0,0-2.281-2.266H7.844a2.271,2.271,0,0,0-2.281,2.266v45.2a2.284,2.284,0,0,0,2.281,2.281H63.859a16.8,16.8,0,0,0,.594,3.453ZM60.141,42.984v-9.3l14.812.016v9.281Zm14.812,2.672v8.859H60.141V45.656ZM42.937,66.031V57.187H57.468v8.859H42.937Zm14.547,2.688v9.3H42.953v-9.3ZM42.937,54.5V45.64H57.468V54.5Zm0-11.516V33.671l14.531.016v9.3ZM25.515,66.031V57.187h14.75v8.859H25.515Zm14.75,2.688V78l-14.75-.016V68.718ZM25.515,54.5V45.64h14.75V54.5Zm0-11.516V33.671h14.75v9.313ZM63.859,78.03H60.14V68.717H67.3a17.78,17.78,0,0,0-3.437,9.313Zm-3.719-12V57.186H74.952v5.469a18.433,18.433,0,0,0-5.266,3.391H60.139Zm32.094,9.109-10.719,10.7a1.291,1.291,0,0,1-.937.406,1.265,1.265,0,0,1-.937-.406l-5.016-5.016a1.291,1.291,0,0,1-.406-.937,1.265,1.265,0,0,1,.406-.937,1.339,1.339,0,0,1,.938-.391,1.285,1.285,0,0,1,.938.391l4.078,4.078,9.766-9.766a1.339,1.339,0,0,1,.938-.391,1.285,1.285,0,0,1,.938.391,1.367,1.367,0,0,1,.391.938,1.35,1.35,0,0,1-.375.938Z"/>
  </g>
</svg>
