<svg xmlns="http://www.w3.org/2000/svg" width="154" height="154" viewBox="0 0 154 154">
  <g id="Group_41915" data-name="Group 41915" transform="translate(0.056 -0.029)">
    <g id="Ellipse_21" data-name="Ellipse 21" transform="translate(-0.056 0.029)" fill="#eff8ff" stroke="#b0d3f4" stroke-width="0.5">
      <circle cx="77" cy="77" r="77" stroke="none"/>
      <circle cx="77" cy="77" r="76.75" fill="none"/>
    </g>
    <g id="Group_41892" data-name="Group 41892" transform="translate(7.858 42.611)">
      <path id="Path_251734" data-name="Path 251734" d="M206.59,598.162a73.695,73.695,0,0,0,4.958,7.862l128.81.272a73.724,73.724,0,0,0,4.958-7.863Z" transform="translate(-206.59 -540.013)" fill="#f2f2f2"/>
      <rect id="Rectangle_10358" data-name="Rectangle 10358" width="1.407" height="0.844" rx="0.422" transform="translate(109.704 57.163) rotate(180)" fill="#3f3d56"/>
      <rect id="Rectangle_10359" data-name="Rectangle 10359" width="1.407" height="0.844" rx="0.422" transform="translate(109.739 58.571) rotate(180)" fill="#3f3d56"/>
      <g id="Group_41891" data-name="Group 41891" transform="translate(94.376 32.758)">
        <path id="Path_251735" data-name="Path 251735" d="M702.02,502.42v22.334a1.075,1.075,0,0,0,1.073,1.074h33.1a1.075,1.075,0,0,0,1.074-1.074V502.42a1.075,1.075,0,0,0-1.074-1.072h-33.1A1.075,1.075,0,0,0,702.02,502.42Z" transform="translate(-701.181 -501.348)" fill="#3f3d56"/>
        <path id="Path_251736" data-name="Path 251736" d="M705,504.9v21.781a.575.575,0,0,0,.573.574h32.545a.575.575,0,0,0,.574-.574V504.9a.575.575,0,0,0-.574-.575H705.573A.575.575,0,0,0,705,504.9Z" transform="translate(-703.385 -503.547)" fill="#016dd5"/>
        <path id="Path_251737" data-name="Path 251737" d="M698.948,597.46a.643.643,0,0,0,.507.243h35.44a.652.652,0,0,0,.637-.786l-.55-2.613a.653.653,0,0,0-.406-.474.629.629,0,0,0-.232-.044H700a.627.627,0,0,0-.231.044.654.654,0,0,0-.406.474l-.55,2.613a.652.652,0,0,0,.133.544Z" transform="translate(-698.801 -569.698)" fill="#2f2e41"/>
        <path id="Path_251738" data-name="Path 251738" d="M.127,0H8.605a.127.127,0,0,1,.127.127v.4a.127.127,0,0,1-.127.127H.127A.127.127,0,0,1,0,.528v-.4A.127.127,0,0,1,.127,0Z" transform="translate(24.838 27.615) rotate(180)" fill="#3f3d56"/>
        <rect id="Rectangle_10360" data-name="Rectangle 10360" width="1.555" height="0.814" rx="0.407" transform="translate(6.103 5.54)" fill="#fff"/>
        <rect id="Rectangle_10361" data-name="Rectangle 10361" width="1.555" height="0.814" rx="0.407" transform="translate(14.579 5.54)" fill="#fff"/>
        <rect id="Rectangle_10362" data-name="Rectangle 10362" width="1.555" height="0.814" rx="0.407" transform="translate(16.98 5.54)" fill="#fff"/>
        <rect id="Rectangle_10363" data-name="Rectangle 10363" width="5.419" height="0.814" rx="0.407" transform="translate(8.409 5.472)" fill="#fff"/>
        <rect id="Rectangle_10364" data-name="Rectangle 10364" width="5.419" height="0.814" rx="0.407" transform="translate(19.71 5.472)" fill="#fff"/>
        <rect id="Rectangle_10365" data-name="Rectangle 10365" width="1.555" height="0.814" rx="0.407" transform="translate(8.363 7.377)" fill="#fff"/>
        <rect id="Rectangle_10366" data-name="Rectangle 10366" width="1.555" height="0.814" rx="0.407" transform="translate(16.839 7.377)" fill="#fff"/>
        <rect id="Rectangle_10367" data-name="Rectangle 10367" width="1.555" height="0.814" rx="0.407" transform="translate(19.241 7.377)" fill="#fff"/>
        <rect id="Rectangle_10368" data-name="Rectangle 10368" width="5.419" height="0.814" rx="0.407" transform="translate(10.669 7.309)" fill="#fff"/>
        <rect id="Rectangle_10369" data-name="Rectangle 10369" width="5.419" height="0.814" rx="0.407" transform="translate(21.969 7.309)" fill="#fff"/>
        <rect id="Rectangle_10370" data-name="Rectangle 10370" width="1.555" height="0.814" rx="0.407" transform="translate(10.624 9.213)" fill="#fff"/>
        <rect id="Rectangle_10371" data-name="Rectangle 10371" width="1.555" height="0.814" rx="0.407" transform="translate(19.099 9.213)" fill="#fff"/>
        <rect id="Rectangle_10372" data-name="Rectangle 10372" width="1.555" height="0.814" rx="0.407" transform="translate(21.501 9.213)" fill="#fff"/>
        <rect id="Rectangle_10373" data-name="Rectangle 10373" width="5.419" height="0.814" rx="0.407" transform="translate(12.929 9.145)" fill="#fff"/>
        <rect id="Rectangle_10374" data-name="Rectangle 10374" width="5.419" height="0.814" rx="0.407" transform="translate(24.23 9.145)" fill="#fff"/>
        <rect id="Rectangle_10375" data-name="Rectangle 10375" width="1.555" height="0.814" rx="0.407" transform="translate(12.884 11.049)" fill="#fff"/>
        <rect id="Rectangle_10376" data-name="Rectangle 10376" width="1.555" height="0.814" rx="0.407" transform="translate(21.359 11.049)" fill="#fff"/>
        <rect id="Rectangle_10377" data-name="Rectangle 10377" width="1.555" height="0.814" rx="0.407" transform="translate(23.761 11.049)" fill="#fff"/>
        <rect id="Rectangle_10378" data-name="Rectangle 10378" width="5.419" height="0.814" rx="0.407" transform="translate(15.189 10.981)" fill="#fff"/>
        <rect id="Rectangle_10379" data-name="Rectangle 10379" width="1.555" height="0.814" rx="0.407" transform="translate(14.579 18.351)" fill="#fff"/>
        <rect id="Rectangle_10380" data-name="Rectangle 10380" width="1.555" height="0.814" rx="0.407" transform="translate(16.98 18.351)" fill="#fff"/>
        <rect id="Rectangle_10381" data-name="Rectangle 10381" width="5.419" height="0.814" rx="0.407" transform="translate(19.71 18.419)" fill="#fff"/>
        <rect id="Rectangle_10382" data-name="Rectangle 10382" width="1.555" height="0.814" rx="0.407" transform="translate(6.103 18.351)" fill="#fff"/>
        <rect id="Rectangle_10383" data-name="Rectangle 10383" width="5.419" height="0.814" rx="0.407" transform="translate(8.409 18.419)" fill="#fff"/>
        <rect id="Rectangle_10384" data-name="Rectangle 10384" width="1.555" height="0.814" rx="0.407" transform="translate(8.363 16.515)" fill="#fff"/>
        <rect id="Rectangle_10385" data-name="Rectangle 10385" width="1.555" height="0.814" rx="0.407" transform="translate(16.839 16.515)" fill="#fff"/>
        <rect id="Rectangle_10386" data-name="Rectangle 10386" width="1.555" height="0.814" rx="0.407" transform="translate(19.241 16.515)" fill="#fff"/>
        <rect id="Rectangle_10387" data-name="Rectangle 10387" width="5.419" height="0.814" rx="0.407" transform="translate(10.669 16.583)" fill="#fff"/>
        <rect id="Rectangle_10388" data-name="Rectangle 10388" width="1.555" height="0.814" rx="0.407" transform="translate(10.624 14.679)" fill="#fff"/>
        <rect id="Rectangle_10389" data-name="Rectangle 10389" width="1.555" height="0.814" rx="0.407" transform="translate(19.099 14.679)" fill="#fff"/>
        <rect id="Rectangle_10390" data-name="Rectangle 10390" width="1.555" height="0.814" rx="0.407" transform="translate(21.501 14.679)" fill="#fff"/>
        <rect id="Rectangle_10391" data-name="Rectangle 10391" width="5.419" height="0.814" rx="0.407" transform="translate(12.929 14.747)" fill="#fff"/>
        <rect id="Rectangle_10392" data-name="Rectangle 10392" width="1.555" height="0.814" rx="0.407" transform="translate(12.884 12.842)" fill="#fff"/>
        <rect id="Rectangle_10393" data-name="Rectangle 10393" width="1.555" height="0.814" rx="0.407" transform="translate(21.359 12.842)" fill="#fff"/>
        <rect id="Rectangle_10394" data-name="Rectangle 10394" width="1.555" height="0.814" rx="0.407" transform="translate(23.761 12.842)" fill="#fff"/>
        <rect id="Rectangle_10395" data-name="Rectangle 10395" width="5.419" height="0.814" rx="0.407" transform="translate(15.189 12.91)" fill="#fff"/>
        <path id="Path_251745" data-name="Path 251745" d="M0,0H31.531l.621,2.085H0Z" transform="translate(3.072 24.372)" fill="#3f3d56"/>
      </g>
      <g id="Group_41890" data-name="Group 41890" transform="translate(0)">
        <path id="Path_251739" data-name="Path 251739" d="M398.28,498.673v23.168h16.231V498.673a.779.779,0,0,0-.549-.745.716.716,0,0,0-.233-.036H399.064A.782.782,0,0,0,398.28,498.673Zm6.335,7.961a1.733,1.733,0,0,1,3.465,0v2.688a1.733,1.733,0,1,1-3.465,0Z" transform="translate(-372.746 -461.736)" fill="#2f2e41"/>
        <path id="Path_251740" data-name="Path 251740" d="M398.06,600.632v2.234a.439.439,0,0,0,.436.438h15.458a.438.438,0,0,0,.436-.438v-2.234Z" transform="translate(-372.576 -541.267)" fill="#3f3d56"/>
        <path id="Path_251741" data-name="Path 251741" d="M285.25,339.87v42.3a2.035,2.035,0,0,0,2.033,2.033h62.688A2.035,2.035,0,0,0,352,382.173v-42.3a2.036,2.036,0,0,0-2.033-2.031H287.283A2.036,2.036,0,0,0,285.25,339.87Z" transform="translate(-285.25 -337.839)" fill="#3f3d56"/>
        <path id="Path_251742" data-name="Path 251742" d="M291.76,345.431v41.254a1.089,1.089,0,0,0,1.086,1.087h61.642a1.089,1.089,0,0,0,1.087-1.087V345.431a1.089,1.089,0,0,0-1.087-1.089H292.846A1.089,1.089,0,0,0,291.76,345.431Z" transform="translate(-290.289 -342.873)" fill="#fff"/>
        <path id="Path_251743" data-name="Path 251743" d="M341.882,598.765a.666.666,0,0,0,.524.251h36.673a.675.675,0,0,0,.659-.813l-.569-2.7a.677.677,0,0,0-.42-.49.649.649,0,0,0-.24-.045H342.972a.648.648,0,0,0-.239.045.677.677,0,0,0-.42.49l-.569,2.7A.675.675,0,0,0,341.882,598.765Z" transform="translate(-328.971 -536.878)" fill="#2f2e41"/>
        <path id="Path_251744" data-name="Path 251744" d="M362.153,367.927H304.475a.229.229,0,1,1,0-.459h57.678a.229.229,0,1,1,0,.459Z" transform="translate(-299.955 -360.775)" fill="#3f3d56"/>
        <ellipse id="Ellipse_25" data-name="Ellipse 25" cx="1.344" cy="1.374" rx="1.344" ry="1.374" transform="translate(7.102 2.774)" fill="#3f3d56"/>
        <ellipse id="Ellipse_26" data-name="Ellipse 26" cx="1.344" cy="1.374" rx="1.344" ry="1.374" transform="translate(11.746 2.774)" fill="#3f3d56"/>
        <ellipse id="Ellipse_27" data-name="Ellipse 27" cx="1.344" cy="1.374" rx="1.344" ry="1.374" transform="translate(16.39 2.774)" fill="#3f3d56"/>
        <path id="Path_251746" data-name="Path 251746" d="M536.073,351.622h-3.3a.25.25,0,0,0,0,.5h3.3a.25.25,0,1,0,0-.5Z" transform="translate(-476.671 -348.508)" fill="#3f3d56"/>
        <path id="Path_251747" data-name="Path 251747" d="M536.049,355.772h-3.3a.25.25,0,1,0,0,.5h3.3a.25.25,0,1,0,0-.5Z" transform="translate(-476.647 -351.721)" fill="#3f3d56"/>
        <path id="Path_251748" data-name="Path 251748" d="M536.073,359.922h-3.3a.25.25,0,0,0,0,.5h3.3a.25.25,0,1,0,0-.5Z" transform="translate(-476.671 -354.933)" fill="#3f3d56"/>
        <g id="Group_41889" data-name="Group 41889" transform="translate(18.827 15.594)">
          <path id="Path_251758" data-name="Path 251758" d="M1.355,0H18.524a1.355,1.355,0,0,1,0,2.711H1.355A1.355,1.355,0,0,1,1.355,0Z" transform="translate(4.518 0)" fill="#016dd5"/>
          <path id="Path_251759" data-name="Path 251759" d="M1.355,0h26.2a1.355,1.355,0,0,1,0,2.711H1.355A1.355,1.355,0,0,1,1.355,0Z" transform="translate(0 6.325)" fill="#e6e6e6"/>
          <path id="Path_251760" data-name="Path 251760" d="M1.355,0h26.2a1.355,1.355,0,0,1,0,2.711H1.355A1.355,1.355,0,0,1,1.355,0Z" transform="translate(0 12.651)" fill="#e6e6e6"/>
        </g>
      </g>
      <g id="Group_41888" data-name="Group 41888" transform="translate(29.123 11.125)">
        <path id="Path_251751" data-name="Path 251751" d="M546.6,463.471s-21.188,2.555-19.164,0c.732-.924.935-3.662.894-6.782-.013-.948-.048-1.929-.1-2.906-.234-4.685-.8-9.263-.8-9.263s18.526-8.731,16.4-1.81c-.852,2.8-.572,6.723.075,10.409.19,1.075.409,2.129.639,3.13A73.4,73.4,0,0,0,546.6,463.471Z" transform="translate(-496.823 -423.826)" fill="#ed9da0"/>
        <path id="Path_251752" data-name="Path 251752" d="M393.733,560.4v-.179l37.4-.407,22.785-.213h.064l-.024.315.032-.315h.041v-.036l.292-2.864.111-1.084.034-.339.03-.283,1.316-4.389,1.316-4.382,1.107-3.69,1.691-5.639a18.912,18.912,0,0,0-1.491-2.875c-.532-.639-2.622-5.211-2.622-5.211s-2.985-4.122-4.972-4.621c-.833-.213-2.477-.5-4.223-.852-.654-.132-5.664-1.579-5.962-1.78-1.565-1.148-5.488-1.278-5.639-1.278h0a.082.082,0,0,1,0-.015v-.019a2.171,2.171,0,0,0,0-.268,1.72,1.72,0,0,0-.019-.3.272.272,0,0,0-.015-.106c-.011-.077-.024-.158-.043-.243a1.073,1.073,0,0,0-.026-.113,3.662,3.662,0,0,0-.266-.743c-.015-.034-.034-.07-.051-.1a3.912,3.912,0,0,0-.362-.56c-.028-.036-.057-.074-.089-.11a4.17,4.17,0,0,0-.579-.562c-.057-.045-.117-.091-.179-.134a1.043,1.043,0,0,0-.109-.077l-.189-.123-.177-.1c-.155-.085-.32-.168-.5-.247-.055-.026-.115-.049-.174-.072l-.232-.089h-.013l-.16-.064c-.121-.041-.245-.077-.375-.113l-.2-.051-.213-.049-.213-.045c-.213-.043-.441-.081-.679-.111l-.243-.03-.249-.025-.258-.021-.366-.021-.426-.015a26.553,26.553,0,0,0-5.592.6,15.393,15.393,0,0,0-3.884-.358h-.185l-.213.013H418.6l-.275.026a2.055,2.055,0,0,0-.277.032c-.091.013-.187.024-.279.039l-.141.024c-.139.024-.279.049-.426.079-.047.009-.094.019-.14.032-.185.04-.37.089-.554.145-.092.025-.183.055-.275.087a1.256,1.256,0,0,0-.136.048l-.136.049-.134.053-.16.064c-.081.034-.16.07-.238.109a1.447,1.447,0,0,0-.132.064c-.043.023-.087.042-.128.066a5.917,5.917,0,0,0-1.322.933l-.109.1-.107.109c-.036.036-.07.075-.1.113a5.033,5.033,0,0,0-.388.479c-.034.045-.066.089-.1.136a5.7,5.7,0,0,0-.366.622c-.028.051-.053.1-.079.156a6.982,6.982,0,0,0-.426,1.118q-.059.213-.109.426s-4.508,1.989-8.247,3.428c-.994.383-1.931.731-2.715.992l-.639.213a5.687,5.687,0,0,1-1.331.307,4.189,4.189,0,0,0-.639.06c-1.719.279-4.664,1.491-4.985,2.706a.783.783,0,0,0-.021.3s-7,21.684-7.081,22.082c-.31,1.622-1,4.712-1.341,5.962-.253.933-.622,2.21-.875,3.087a.3.3,0,0,1-.021.075l9.546-.094v.179h.03Z" transform="translate(-384.17 -483.41)" fill="#c5d8ff"/>
        <path id="Path_251753" data-name="Path 251753" d="M538.627,520.005c-6.175,1.137-17.8.892-22.827.72,1.842-6.6,10.823-4.357,10.823-4.357C537.741,514.149,538.593,518.753,538.627,520.005Z" transform="translate(-487.771 -483.43)" fill="#c5d8ff"/>
        <path id="Path_251754" data-name="Path 251754" d="M776.94,671.619s7.274-1.118,7.417,2.076-3.709,5.425-3.709,5.425Z" transform="translate(-693.303 -605.942)" fill="#ed9da0"/>
        <path id="Path_251755" data-name="Path 251755" d="M725.668,627.751s-.19.452-.539,1.105a14.683,14.683,0,0,1-1.917,2.8l-.057.062h-.345l-12.3.113h-.294l-.037-.043-2.384-2.83-.9-1.067-.036-.045-.077-.089-.043-.051-.055-.066-1.748-2.074.639-2.662,1.088-4.485.028-.109.213-.852.151-.639.507-2.082,1.737-7.165,3.088,1.6,3.255,5.751,1.748,3.087h.958c.181,0,.6.349,1.014.752.149.143.3.294.426.426.379.392.679.729.679.729s1.552.034,1.97,1.256a1.526,1.526,0,0,1,.053.181,8.535,8.535,0,0,0,.539,1.4c.275.6.62,1.278.969,1.957.649,1.246,1.31,2.432,1.552,2.861l.03.053Z" transform="translate(-636.638 -555.686)" fill="#c5d8ff"/>
        <path id="Path_251756" data-name="Path 251756" d="M429.08,665.719v-.179l37.4-.407,22.785-.213h.064v-.036l.213-2.861.092-1.277.349-4.816.275-3.812v-.094a2.266,2.266,0,0,0-.024-.526.061.061,0,0,0,0-.021,2.215,2.215,0,0,0-.426-.988,2.246,2.246,0,0,0-2.006-.852c-2.579.264-5.183.475-7.789.639-.355.026-.711.048-1.065.066a349.173,349.173,0,0,1-42.481-.426l-.639-.048c-1.561-.111-2.866-.213-3.871-.3a2.244,2.244,0,0,0-2.393,1.816,2.351,2.351,0,0,0-.039.35l-.145,4.719-.2,5.977-.094,3.058v.238Z" transform="translate(-419.517 -588.73)" fill="#090814"/>
        <circle id="Ellipse_28" data-name="Ellipse 28" cx="12.334" cy="12.334" r="12.334" transform="translate(25.082 5.859)" fill="#ed9da0"/>
        <path id="Path_251757" data-name="Path 251757" d="M573.42,374.926a1.041,1.041,0,0,0-.745-.33l.186-.515a.978.978,0,0,0-1.1-1.3l-.675.13.064-.451a.978.978,0,0,0-1.31-1.058,1.042,1.042,0,0,1-.9-.064,1.065,1.065,0,0,1-.531-.723l-.235-1.135-.024-.061a8.812,8.812,0,0,0-6.046-3.809,25.952,25.952,0,0,0-7.233-.005,6.614,6.614,0,0,0-2.89.731,2.527,2.527,0,0,0-1.26,2.334c-2.339-.717-4.847.715-6.09,2.519a12.63,12.63,0,0,0-1.753,6.942c-.105,4.977.922,9.049,3.045,12.1.155.221.194.684.5.839l-.064-.1c.343.172.691.449.562.744-.374.853,2.11,2.738,3.859,3.362,3.192,1.138,7.435,1.041,10.418.631l.105-.706c1.077-.147,1.836-.426,2.049-.864.376-.321.7-.609.977-.875l0,0,.022-.019a4.641,4.641,0,0,0,1.8-3.15,9.025,9.025,0,0,0-.352-3.218c5.187.8-2.043-5.525,2.789-6.749a1.484,1.484,0,0,1,.169-.041c.141-.033.282-.067.418-.105a7.326,7.326,0,0,0,1.86-.794,7.154,7.154,0,0,0,2.494-3.142.948.948,0,0,0-.124-1.115Z" transform="translate(-519.332 -365.349)" fill="#090814"/>
      </g>
    </g>
  </g>
</svg>
