<svg xmlns="http://www.w3.org/2000/svg" xmlns:xlink="http://www.w3.org/1999/xlink" width="111" height="111" viewBox="0 0 111 111">
  <defs>
    <linearGradient id="linear-gradient" x1="0.5" x2="0.5" y2="1" gradientUnits="objectBoundingBox">
      <stop offset="0" stop-color="#006dd6"/>
      <stop offset="1" stop-color="#8864ff"/>
    </linearGradient>
  </defs>
  <g id="Group_40328" data-name="Group 40328" transform="translate(-1228 -1225)">
    <g id="Ellipse_2" data-name="Ellipse 2" transform="translate(1228 1225)" fill="#fff" stroke="#e0e0e0" stroke-width="1">
      <circle cx="55.5" cy="55.5" r="55.5" stroke="none"/>
      <circle cx="55.5" cy="55.5" r="55" fill="none"/>
    </g>
    <g id="noun-puzzle-3857791" transform="translate(1211 1085.884)">
      <g id="Group_13" data-name="Group 13" transform="translate(41 174.116)">
        <path id="Path_16" data-name="Path 16" d="M42.157,190.593h9.872v-1.606a3.537,3.537,0,0,1-2.412-3.317,3.656,3.656,0,0,1,7.308,0,3.537,3.537,0,0,1-2.412,3.317v1.606H65.382a1.159,1.159,0,0,1,1.157,1.157V201.9h1.606a3.538,3.538,0,0,1,3.318-2.412,3.656,3.656,0,0,1,0,7.308,3.538,3.538,0,0,1-3.318-2.412H66.538v10.145a1.159,1.159,0,0,1-1.157,1.157H55.51v-1.606a3.536,3.536,0,0,0,2.412-3.318,3.656,3.656,0,0,0-7.308,0,3.537,3.537,0,0,0,2.412,3.318v1.606H42.157A1.159,1.159,0,0,1,41,214.523V204.378h1.606a3.537,3.537,0,0,0,3.317,2.412,3.656,3.656,0,0,0,0-7.308,3.537,3.537,0,0,0-3.317,2.412H41V191.75A1.159,1.159,0,0,1,42.157,190.593Zm27.425-3.039,8.51-5-.814-1.384a3.538,3.538,0,0,1-3.761-1.639,3.657,3.657,0,0,1,6.3-3.7,3.539,3.539,0,0,1-.4,4.084l.814,1.384,9.371-5.508a1.159,1.159,0,0,1,1.584.411l5.141,8.746,1.384-.813a3.537,3.537,0,0,1,1.639-3.761,3.656,3.656,0,0,1,3.7,6.3,3.538,3.538,0,0,1-4.083-.4l-1.384.813,5.14,8.746a1.161,1.161,0,0,1-.41,1.584l-8.511,5-.814-1.384a3.537,3.537,0,0,0,.4-4.083,3.656,3.656,0,0,0-6.3,3.7,3.536,3.536,0,0,0,3.76,1.639l.814,1.383-9.371,5.508a1.16,1.16,0,0,1-1.584-.411l-5.14-8.746,1.385-.814a3.537,3.537,0,0,0,4.082.4,3.656,3.656,0,0,0-3.7-6.3,3.536,3.536,0,0,0-1.639,3.76l-1.384.814-5.141-8.746a1.16,1.16,0,0,1,.412-1.584Z" transform="translate(-41 -174.116)" fill-rule="evenodd" fill="url(#linear-gradient)"/>
      </g>
    </g>
  </g>
</svg>
