<svg xmlns="http://www.w3.org/2000/svg" width="87.681" height="87.998" viewBox="0 0 87.681 87.998">
  <g id="noun-temple-7667815" transform="translate(-12.476 -7.957)">
    <path id="Path_2222" data-name="Path 2222" d="M100.141,89.254a.126.126,0,0,0-.009-.039.129.129,0,0,0-.017-.043.253.253,0,0,0-.137-.129h0a.317.317,0,0,0-.06-.017.047.047,0,0,0-.021,0L87.058,86.843l0-17.121c.009,0,1.1-.2,1.108-.2s.021,0,.034-.009h0c.013,0,.026-.013.039-.017a0,0,0,0,0,0,0l.043-.026s.009,0,.009-.009a.059.059,0,0,1,.017-.013l.013-.013c.009-.009.013-.021.021-.03l0,0s0-.009.009-.013a.216.216,0,0,0,.021-.056c0-.009,0-.013,0-.021v0c0-.017,0-.03,0-.047V68.244a.276.276,0,0,0-.12-.245s-.009,0-.009-.009c.039-.017-1.181-.309-1.2-.318,0-1.779,0-5.448,0-7.248a1.572,1.572,0,0,1,1.68-.279,2.005,2.005,0,0,0,1.242.559c.876-.026,2.286-.46,2.14-1.564a.279.279,0,0,0-.408-.2c-.589.348-1.478.769-2.067.318A2.006,2.006,0,0,0,92.068,57.9a.275.275,0,0,0-.382-.327,2.691,2.691,0,0,1-1.877.408c-.954-.348-1.547-1.59-2.741-1.358v-.142c.481-.378-.142-.876-.275-1.341-.116.511-.765.945-.275,1.341V63.57a.951.951,0,0,0-.567-.107l-5.306.636-.851-1.22c-1.435-2.165-4.116-1.134-6.329-.675l-1.04-1.62a3.326,3.326,0,0,0-3.437-1.293l-24.163-32a2.751,2.751,0,0,0-1.512-.932.781.781,0,0,0-.125-.795c.842-.924.559-2.11.223-3.136a7.529,7.529,0,0,1-.546-1.594V13.237a1.572,1.572,0,0,1,1.68-.279,2.005,2.005,0,0,0,1.242.559c.876-.026,2.286-.46,2.14-1.564a.279.279,0,0,0-.408-.2c-.589.348-1.478.769-2.067.318a2.006,2.006,0,0,0,2.415-1.358.275.275,0,0,0-.382-.327,2.691,2.691,0,0,1-1.877.408c-.954-.348-1.547-1.59-2.741-1.358l0-.142c.481-.378-.142-.876-.275-1.341-.116.511-.765.945-.275,1.341V20.8a7.058,7.058,0,0,1-.546,1.62c-.339,1.023-.619,2.208.223,3.136a.781.781,0,0,0-.06.919,3.014,3.014,0,0,0-1.474,1.379L24.227,59.565l-2.165-.2c-2.5-.163-3.175,1.628-4.331,3.386l-2.161-.2a1.545,1.545,0,0,0-1.147.361v-3a1.572,1.572,0,0,1,1.68-.279,2.005,2.005,0,0,0,1.242.559c.876-.026,2.286-.46,2.14-1.564a.279.279,0,0,0-.408-.2c-.589.348-1.478.769-2.067.318A2.006,2.006,0,0,0,19.424,57.4a.275.275,0,0,0-.382-.327,2.691,2.691,0,0,1-1.877.408c-.954-.348-1.547-1.59-2.741-1.358v-.142c.481-.378-.142-.876-.275-1.341-.116.511-.765.945-.275,1.341,0,1.873-.009,8.292.013,10.084l-1.216.477a.276.276,0,0,0-.193.262v1.439a.154.154,0,0,0,.009.047.3.3,0,0,0,.021.056.375.375,0,0,0,.086.1h0l.021.013s.009,0,.013.009a0,0,0,0,1,0,0s.009,0,.013.009a.159.159,0,0,0,.06.017h0l1.186.193-.026,19.686a.276.276,0,0,0,.223.271l25.834,5.04v0l.5.082,14.066,2.2c0,.017,45.37-1.328,45.392-1.323a.272.272,0,0,0,.266-.275c-.017-.052,0-5.07-.017-5.1ZM96.523,89l-41.971-.15-10.526-1.5H86.761ZM23.372,83.548l-4.21-.249.013-9.074c0-1,1.19-2.307,2.35-3.231.786.322,1.86.919,1.86,1.689ZM18.625,74.22l-.013,9.1-.468-.026.013-9.074c0-1.358,2.161-3.119,2.668-3.48.026.009.06.017.1.026-.838.709-2.3,2.14-2.3,3.45ZM34.913,68.6c.06.335,0,15.338.021,15.639l-4.283-.258,0-13.663c0-1.246,1.774-2.775,2.376-3.252a3.983,3.983,0,0,1,1.706,1.13.015.015,0,0,1,0,.009,1.188,1.188,0,0,1,.133.241s0,.013.009.017c.009.026.017.047.026.073l.013.064ZM30.1,70.324V84.007l-.391-.021V70.323c0-1.358,2.161-3.119,2.668-3.476l.043.013c-.851.713-2.32,2.144-2.32,3.463ZM14.144,68.158l-.292-.047,26.062-9.177v.653Zm10.518-8.219,1.233-1.921a2.8,2.8,0,0,1,2.629-1.285l2.105.193v2.582l-5.968,2.333ZM42.5,22.054c.026-.064.056-.129.082-.189.039.09.077.176.112.262a.65.65,0,0,1-.223,0c.009-.026.021-.047.03-.073Zm.507,2.793c-.107.232-.253.412-.421.408h0c-.168,0-.314-.176-.425-.408.245-.009.6-.009.851,0Zm-.425,1.444a.23.23,0,0,1,0-.46A.23.23,0,0,1,42.587,26.29ZM66.372,69.451q.11-.064.206-.116a10.316,10.316,0,0,1,4.069,8.258v9.2l-8.2-.069V76.742a8.425,8.425,0,0,1,3.923-7.291Zm.821-.348c.584-.047,4.6,3.02,4.627,8.49V86.8H71.2V77.593a11.012,11.012,0,0,0-4-8.49Zm12.344,3.27c.6.5,1.19,1.173,1.19,1.671V81.95l-2.006-.159V73.159c0-.318.421-.6.816-.786Zm1.057.258a2.47,2.47,0,0,1,.9,1.414v7.961l-.215-.013V74.049a2.4,2.4,0,0,0-.687-1.418ZM42.007,44.863a2.238,2.238,0,0,0,2.5.563c-.735.61-1.341.292-2.118.021a1.09,1.09,0,0,0-1.057.219c-.253.253.017.511.387.391a.412.412,0,0,1,.417.073c.219.176.378.421.619.593a1.993,1.993,0,0,0,1.942.06,2.051,2.051,0,0,1-.717.279,1.549,1.549,0,0,1-.9.034,6.073,6.073,0,0,1-.636-.425,2.073,2.073,0,0,0-1.964.064c-.223.146-.511.309-.55.584V44.446c.039-.026.511-.232.55-.249.61-.185,1.083.288,1.529.666ZM58.87,60.515V58.152c1.9-.361,4.481-1.439,5.718.438l1.1,1.714v1.942ZM37.7,53.615l1.383-1.289a1.977,1.977,0,0,1,.838-.464v4.017l-2.225.868Zm2.775-1.822a1.944,1.944,0,0,1,1.053.335L43.584,53.5v3.141l-3.111-.791Zm3.661,1.779c1.9-.361,4.481-1.439,5.718.438l1.1,1.71v2.788l-6.814-1.727Zm7.368,2.29c1.9-.361,4.481-1.439,5.718.438l1.1,1.71v2.363L51.5,58.646ZM40.473,43.484a.458.458,0,0,1-.73-.365c0-.253.382-.623.455-.98.133.468.756.967.275,1.345Zm-.55,4.473c.017-.021.528-.511.55-.533v3.82a2.364,2.364,0,0,0-.55.052Zm-8.743,8.8,1.233-1.925a2.812,2.812,0,0,1,2.629-1.285l2.105.193v3.218L31.18,59.294Zm9.289,2.131L84.829,68.8l-44.36-9.237Zm10.853,8.816c1.156.924,2.346,2.225,2.346,3.227V82.061l-4.2-.039V69.391c0-.765,1.066-1.362,1.852-1.684Zm.6-.219.107-.03c.507.361,2.668,2.122,2.668,3.48V82.065h-.481V70.933c0-1.31-1.461-2.741-2.294-3.446ZM87.755,57.245a3.706,3.706,0,0,1,.842.61,2.238,2.238,0,0,0,2.5.563c-.735.61-1.341.3-2.118.021a1.1,1.1,0,0,0-1.057.219.275.275,0,0,0,.387.391c.082-.077.284-.026.412.073.219.176.378.421.619.593a1.993,1.993,0,0,0,1.942.06,2.231,2.231,0,0,1-.717.279,1.212,1.212,0,0,1-1.255-.189,1.989,1.989,0,0,0-2.251-.133V57.193a.99.99,0,0,1,.7.052Zm-1.744,6.762c.318-.039.5.245.507.554a.209.209,0,0,1,0,.052V67.53l-5.731-1.452-.009-1.444ZM76.073,62.19a2.924,2.924,0,0,1,3.252.988l.9,1.293v1.461L73.6,64.252V62.731Zm-4.12-1.31s1.1,1.714,1.1,1.714v1.521s-6.814-1.731-6.818-1.731V60.441c1.877-.348,4.468-1.448,5.718.438Zm-28.4-50.818a3.706,3.706,0,0,1,.842.61,2.238,2.238,0,0,0,2.5.563c-.735.61-1.341.3-2.118.021a1.1,1.1,0,0,0-1.057.219.275.275,0,0,0,.387.391c.082-.077.284-.026.412.073.219.176.378.421.619.593a1.993,1.993,0,0,0,1.942.06,2.271,2.271,0,0,1-.717.279,1.212,1.212,0,0,1-1.255-.189,1.989,1.989,0,0,0-2.251-.133l0-2.539a.956.956,0,0,1,.692.052ZM19.379,61.2c1.229-1.817,2.921-1.207,4.735-1.091v1.946L18.15,64.39V63.122Zm-4.636,2.161a1,1,0,0,1,.773-.262l2.079.193V64.6l-3.166,1.237-.013-1.731v-.06a.986.986,0,0,1,.327-.687Zm.365-6.625a3.706,3.706,0,0,1,.842.61,2.238,2.238,0,0,0,2.5.563c-.735.61-1.341.3-2.118.021a1.09,1.09,0,0,0-1.057.219.275.275,0,0,0,.387.391c.082-.077.284-.026.412.073.219.176.378.421.619.593a1.993,1.993,0,0,0,1.942.06,2.271,2.271,0,0,1-.717.279,1.212,1.212,0,0,1-1.255-.189,1.989,1.989,0,0,0-2.251-.133l0-2.539a.979.979,0,0,1,.692.052ZM39.92,93.1l0-32.936.292-.1.258.056-.043,33.065Z" transform="translate(0)"/>
  </g>
</svg>
