<svg xmlns="http://www.w3.org/2000/svg" xmlns:xlink="http://www.w3.org/1999/xlink" width="111" height="111" viewBox="0 0 111 111">
  <defs>
    <linearGradient id="linear-gradient" x1="0.196" y1="0.186" x2="0.702" y2="0.812" gradientUnits="objectBoundingBox">
      <stop offset="0" stop-color="#006dd6"/>
      <stop offset="1" stop-color="#8864ff"/>
    </linearGradient>
  </defs>
  <g id="Group_40327" data-name="Group 40327" transform="translate(-725 -1222)">
    <g id="Ellipse_2" data-name="Ellipse 2" transform="translate(725 1222)" fill="#fff" stroke="#e0e0e0" stroke-width="1">
      <circle cx="55.5" cy="55.5" r="55.5" stroke="none"/>
      <circle cx="55.5" cy="55.5" r="55" fill="none"/>
    </g>
    <g id="noun-billboard-7901293" transform="translate(755.59 1249)">
      <path id="Path_19" data-name="Path 19" d="M24.858,40.64h8.833v7.294H24.858ZM37.7,49.5H20.853a.152.152,0,0,0-.151.151v2.315a.151.151,0,0,0,.151.151H37.7a.152.152,0,0,0,.151-.151V49.656A.152.152,0,0,0,37.7,49.5ZM35.947,36.447H30.061v2.622h4.013Zm-11.47,2.622H28.49V36.447H22.6ZM52.051,11.43V33.86a1.02,1.02,0,0,1-1.027,1.016H7.526A1.02,1.02,0,0,1,6.5,33.86V11.43A1.029,1.029,0,0,1,7.526,10.4h43.5A1.029,1.029,0,0,1,52.051,11.43ZM9.557,31.477a.183.183,0,0,0-.184-.184H7.279a.184.184,0,1,0,0,.368H9.373A.183.183,0,0,0,9.557,31.477Zm5.236,0a.183.183,0,0,0-.184-.184H12.514a.184.184,0,0,0,0,.368h2.094A.183.183,0,0,0,14.793,31.477Zm5.236,0a.183.183,0,0,0-.184-.184H17.75a.184.184,0,1,0,0,.368h2.094A.183.183,0,0,0,20.029,31.477Zm5.236,0a.183.183,0,0,0-.184-.184H22.986a.184.184,0,1,0,0,.368H25.08A.183.183,0,0,0,25.265,31.477Zm5.236,0a.183.183,0,0,0-.184-.184H28.222a.184.184,0,0,0,0,.368h2.094A.183.183,0,0,0,30.5,31.477Zm5.236,0a.183.183,0,0,0-.184-.184H33.458a.184.184,0,1,0,0,.368h2.094A.183.183,0,0,0,35.736,31.477Zm5.236,0a.183.183,0,0,0-.184-.184H38.694a.184.184,0,0,0,0,.368h2.094A.183.183,0,0,0,40.972,31.477Zm5.236,0a.183.183,0,0,0-.184-.184H43.93a.184.184,0,0,0,0,.368h2.094A.183.183,0,0,0,46.208,31.477Zm5.236,0a.183.183,0,0,0-.184-.184H49.165a.184.184,0,0,0,0,.368H51.26A.183.183,0,0,0,51.444,31.477ZM18.143,5.045h-5.8a.785.785,0,0,0,0,1.571h2.712V8.878h.366V6.616h2.722a.785.785,0,1,0,0-1.571Zm14.033,0h-5.8a.785.785,0,1,0,0,1.571H29.1V8.878h.356V6.616h2.722a.785.785,0,1,0,0-1.571ZM46.208,5h-5.8a.785.785,0,1,0,0,1.571H43.13V8.833H43.5V6.571h2.712a.785.785,0,0,0,0-1.571Z" transform="translate(-4.09)" fill="url(#linear-gradient)"/>
    </g>
  </g>
</svg>
