<svg xmlns="http://www.w3.org/2000/svg" width="29.662" height="28.878" viewBox="0 0 29.662 28.878">
  <g id="No_upfront_cost" data-name="No upfront cost" transform="translate(-9.836 -10.906)">
    <path id="Path_253073" data-name="Path 253073" d="M31.232,36.377l7.577-6.415a1.507,1.507,0,0,0,.122-2.195,2.272,2.272,0,0,0-1.369-.687c.338-4.225-2.261-7.937-4.1-10a1.259,1.259,0,0,0,.5-.991v-.2A1.26,1.26,0,0,0,32.7,14.631l.722-2.213a1.012,1.012,0,0,0-.08-.8.991.991,0,0,0-.635-.47,3.013,3.013,0,0,0-1.644.047,4.564,4.564,0,0,1-2.917.047c-.837-.294-1.659.367-2.2.976a.985.985,0,0,0-.11,1.167l.786,1.306a1.254,1.254,0,0,0-.877,1.193v.2a1.263,1.263,0,0,0,.5.995c-1.7,1.919-4.738,6.081-4.015,10.694-1.729-.4-4.338-.621-5.982,1.024l-1.714,1.71-.029-.143a1.058,1.058,0,0,0-1.256-.811l-2.423.522a1.057,1.057,0,0,0-.811,1.256l1.6,7.46a1.054,1.054,0,0,0,1.031.837.916.916,0,0,0,.224-.026l2.423-.522a1.058,1.058,0,0,0,.811-1.259l-.077-.356H28.234a4.653,4.653,0,0,0,3-1.1ZM26.469,13.016a.262.262,0,0,1,.029-.3c.261-.29.913-.946,1.413-.771a5.343,5.343,0,0,0,3.409-.052,2.261,2.261,0,0,1,1.233-.022.253.253,0,0,1,.158.118.235.235,0,0,1,.019.2l-.793,2.437h-4.5Zm.016,2.877a.531.531,0,0,1,.529-.529h5.692a.531.531,0,0,1,.529.529v.2a.528.528,0,0,1-.529.525H27.014a.529.529,0,0,1-.529-.525Zm.509,1.464h5.728c1.765,1.927,4.474,5.611,4.1,9.762a2.275,2.275,0,0,0-.847.36l-4.95,3.49a5.347,5.347,0,0,1-1.075.588,2.153,2.153,0,0,0,.275-1.061,2.179,2.179,0,0,0-2.176-2.176H24.76a4.487,4.487,0,0,1-1.409-.221c-.1-.033-.216-.07-.338-.106-.91-4.62,2.371-8.877,3.982-10.635ZM15.145,38.369l-2.423.525a.333.333,0,0,1-.386-.249l-1.6-7.46a.325.325,0,0,1,.044-.242.328.328,0,0,1,.2-.143l2.423-.522c.022,0,.044-.007.07-.007a.328.328,0,0,1,.315.257l1.6,7.46a.321.321,0,0,1-.249.381Zm.731-1.63-1.152-5.368c.209-.212.734-.738,2.044-2.047,1.776-1.776,5.034-.965,6.356-.532a5.3,5.3,0,0,0,1.637.257h3.288A1.441,1.441,0,0,1,28.1,31.93c-.044,0-.085.007-.129.007h-4.4a.367.367,0,0,0,0,.734h4.481c.077,0,.151-.007.224-.014a5.991,5.991,0,0,0,3.174-1.089l4.95-3.493a1.547,1.547,0,0,1,2.007.2.758.758,0,0,1,.212.576.779.779,0,0,1-.275.555l-7.577,6.411a3.917,3.917,0,0,1-2.524.925Z" transform="translate(0)" stroke="#000" stroke-width="0.3"/>
    <path id="Path_253074" data-name="Path 253074" d="M61.828,44.274v.414a.139.139,0,0,0,.136.139h.341a.137.137,0,0,0,.136-.139v-.447a1.059,1.059,0,0,0,.854-1.028,1.217,1.217,0,0,0-.922-1.115c-.5-.2-.583-.315-.583-.487s.113-.323.433-.323a1.174,1.174,0,0,1,.614.165.136.136,0,0,0,.113.007.124.124,0,0,0,.08-.08l.136-.355a.135.135,0,0,0-.059-.165,1.555,1.555,0,0,0-.635-.2v-.393a.139.139,0,0,0-.136-.139H62a.139.139,0,0,0-.139.139V40.7a1,1,0,0,0-.814.981c0,.595.47.863.976,1.061.463.188.525.355.525.513,0,.235-.2.393-.506.393a1.283,1.283,0,0,1-.7-.209.145.145,0,0,0-.12-.019.131.131,0,0,0-.085.085l-.132.363a.141.141,0,0,0,.052.158,1.659,1.659,0,0,0,.767.254Z" transform="translate(-32.295 -18.4)" stroke="#000" stroke-width="0.3"/>
  </g>
</svg>
