<svg xmlns="http://www.w3.org/2000/svg" width="96.311" height="87.998" viewBox="0 0 96.311 87.998">
  <g id="noun-people-4516683" transform="translate(-2.5 -6.6)">
    <g id="Group_40274" data-name="Group 40274" transform="translate(2.5 6.6)">
      <path id="Path_2304" data-name="Path 2304" d="M82.083,75.333l-.2,4.055a4.57,4.57,0,0,1-4.562,4.359H70.627a4.57,4.57,0,0,1-4.562-4.359l-.3-6.083c-2.129-.1-4.461-.3-6.792-.406l-.3,6.488A4.57,4.57,0,0,1,54.1,83.748H47.411a4.57,4.57,0,0,1-4.562-4.359L42.342,73c-2.332.1-4.562.2-6.792.406l-.3,6.083a4.57,4.57,0,0,1-4.562,4.359H23.993A4.57,4.57,0,0,1,19.43,79.49l-.2-4.055C8.988,77.259,2.5,80.1,2.5,83.241c0,5.779,21.594,10.442,48.155,10.442s48.155-4.663,48.155-10.442C98.811,80.1,92.322,77.259,82.083,75.333Z" transform="translate(-2.5 -5.685)"/>
      <path id="Path_2305" data-name="Path 2305" d="M38.587,33.174A6.387,6.387,0,1,0,32.2,26.787,6.36,6.36,0,0,0,38.587,33.174Z" transform="translate(-2.09 -6.41)"/>
      <path id="Path_2306" data-name="Path 2306" d="M61.587,33.174A6.387,6.387,0,1,0,55.2,26.787,6.36,6.36,0,0,0,61.587,33.174Z" transform="translate(-1.773 -6.41)"/>
      <path id="Path_2307" data-name="Path 2307" d="M18.515,63.193a29.073,29.073,0,0,0,3.143.507l.811,15.815a1.366,1.366,0,0,0,1.419,1.318H30.58A1.514,1.514,0,0,0,32,79.515L32.81,63.7a29.073,29.073,0,0,0,3.143-.507,1.289,1.289,0,0,0,1.014-1.521l-.71-7.3A6.81,6.81,0,0,0,32.2,49a9.761,9.761,0,0,1-10.138,0,6.81,6.81,0,0,0-4.055,5.373l-.608,7.3A1.359,1.359,0,0,0,18.515,63.193Z" transform="translate(-2.295 -6.015)"/>
      <path id="Path_2308" data-name="Path 2308" d="M27.087,47.074A6.387,6.387,0,1,0,20.7,40.687,6.492,6.492,0,0,0,27.087,47.074Z" transform="translate(-2.249 -6.218)"/>
      <path id="Path_2309" data-name="Path 2309" d="M41.008,54.373l-.608,7.3a1.287,1.287,0,0,0,1.115,1.521,29.073,29.073,0,0,0,3.143.507l.811,15.815a1.366,1.366,0,0,0,1.419,1.318H53.58A1.514,1.514,0,0,0,55,79.515L55.81,63.7a29.073,29.073,0,0,0,3.143-.507,1.289,1.289,0,0,0,1.014-1.521l-.71-7.3A6.81,6.81,0,0,0,55.2,49a9.761,9.761,0,0,1-10.138,0A6.81,6.81,0,0,0,41.008,54.373Z" transform="translate(-1.977 -6.015)"/>
      <path id="Path_2310" data-name="Path 2310" d="M50.087,47.074A6.387,6.387,0,1,0,43.7,40.687,6.36,6.36,0,0,0,50.087,47.074Z" transform="translate(-1.932 -6.218)"/>
      <path id="Path_2311" data-name="Path 2311" d="M73.133,50.419A9.8,9.8,0,0,1,68.064,49a6.81,6.81,0,0,0-4.055,5.373l-.608,7.3a1.287,1.287,0,0,0,1.115,1.521,29.073,29.073,0,0,0,3.143.507l.811,15.815a1.366,1.366,0,0,0,1.419,1.318H76.58A1.514,1.514,0,0,0,78,79.515L78.81,63.7a29.072,29.072,0,0,0,3.143-.507,1.289,1.289,0,0,0,1.014-1.521l-.608-7.3A6.81,6.81,0,0,0,78.3,49,10.439,10.439,0,0,1,73.133,50.419Z" transform="translate(-1.66 -6.015)"/>
      <path id="Path_2312" data-name="Path 2312" d="M73.087,47.074A6.387,6.387,0,1,0,66.7,40.687,6.36,6.36,0,0,0,73.087,47.074Z" transform="translate(-1.614 -6.218)"/>
      <path id="Path_2313" data-name="Path 2313" d="M50.087,19.374A6.387,6.387,0,1,0,43.7,12.987,6.425,6.425,0,0,0,50.087,19.374Z" transform="translate(-1.932 -6.6)"/>
    </g>
  </g>
</svg>
