<svg id="Group_40284" data-name="Group 40284" xmlns="http://www.w3.org/2000/svg" width="87.997" height="87.998" viewBox="0 0 87.997 87.998">
  <g id="Group_40280" data-name="Group 40280" transform="translate(10.883 23.014)">
    <path id="Path_2315" data-name="Path 2315" d="M46.481,19.275a11.215,11.215,0,0,0-2.3-.237,9.891,9.891,0,0,0-9.353,6.108c-1.738,3.826-2.853,5.245-8.539,6.169-10.727.366-15.365,8.443-15.264,16.29.111,8.507,5.862,17.161,16.64,17.239A17.159,17.159,0,0,0,44.546,48.511c.146-6.482,1.172-7.792,5.151-10.175A10.551,10.551,0,0,0,54.77,29.4a10.125,10.125,0,0,0-8.289-10.121ZM40.153,48.354c-1.423,7.483-6.327,12.318-12.495,12.318A12.592,12.592,0,0,1,15.145,48.186a13.186,13.186,0,0,1,4.134-10.3,10.049,10.049,0,0,1,8.554-2.22c5.576.952,9.2,2.732,11.08,5.438a9.261,9.261,0,0,1,1.239,7.255Zm4.189-12.708A6.257,6.257,0,1,1,50.6,29.389,6.256,6.256,0,0,1,44.342,35.646Z" transform="translate(-11.024 -19.035)"/>
    <path id="Path_2316" data-name="Path 2316" d="M24.262,28.068a9.911,9.911,0,0,0-1.664-.145,7.73,7.73,0,0,0-5.175,1.887,11.088,11.088,0,0,0-3.413,8.674A10.517,10.517,0,0,0,24.437,48.939c6.213,0,9.469-5.487,10.446-10.622a7.171,7.171,0,0,0-.9-5.676C32.436,30.418,29.257,28.922,24.262,28.068Zm.175,16.7a6.257,6.257,0,1,1,6.256-6.257,6.257,6.257,0,0,1-6.256,6.257Z" transform="translate(-7.803 -9.387)"/>
    <path id="Path_2317" data-name="Path 2317" d="M44.427,33A10.428,10.428,0,1,0,54.855,43.428,10.427,10.427,0,0,0,44.427,33Zm0,16.684a6.257,6.257,0,1,1,6.256-6.257,6.257,6.257,0,0,1-6.256,6.257Z" transform="translate(13.917 -3.876)"/>
  </g>
  <g id="Group_40281" data-name="Group 40281" transform="translate(0 0)">
    <path id="Path_2318" data-name="Path 2318" d="M90.267,88.928h-3l2.494,2.492H10.383V12.044l2.492,2.494v-3L9.34,8,5.8,11.535v3L8.3,12.044V93.506H89.759L87.264,96h3L93.8,92.463Z" transform="translate(-5.805 -8)"/>
    <circle id="Ellipse_62" data-name="Ellipse 62" cx="4" cy="4" r="4" transform="translate(23.478 48)"/>
    <ellipse id="Ellipse_63" data-name="Ellipse 63" cx="4" cy="4.5" rx="4" ry="4.5" transform="translate(40.478 29)"/>
    <ellipse id="Ellipse_64" data-name="Ellipse 64" cx="4" cy="4.5" rx="4" ry="4.5" transform="translate(65.478 58)"/>
  </g>
</svg>
