<svg xmlns="http://www.w3.org/2000/svg" width="96.658" height="87.998" viewBox="0 0 96.658 87.998">
  <g id="Group_40291" data-name="Group 40291" transform="translate(-2186.061 -488)">
    <g id="noun-distance-5882974" transform="translate(2186.061 488)">
      <path id="Path_2432" data-name="Path 2432" d="M75.719,37A20.263,20.263,0,0,0,55.47,57.22c0,13.218,14.819,29.795,20.249,29.795S95.982,70.439,95.982,57.22A20.263,20.263,0,0,0,75.719,37Z" transform="translate(0.676 -11.578)"/>
      <path id="Path_2433" data-name="Path 2433" d="M40.889,19.21A11.832,11.832,0,0,0,29,31.042C29,38.759,37.66,48.4,40.832,48.4S52.65,38.759,52.65,31.042A11.832,11.832,0,0,0,40.889,19.21Zm0,17.334a5.645,5.645,0,1,1,5.63-5.63A5.645,5.645,0,0,1,40.889,36.544Z" transform="translate(-10.68 -19.21)"/>
      <path id="Path_2434" data-name="Path 2434" d="M90.588,97.351h-.357C50.376,92.235,49.2,91.878,41.716,90.206c-8.117-1.872-14.361-3.987-18.548-6.559-5.273-3.3-6.988-6.945-6.988-10.532a8.3,8.3,0,0,1,2.6-6.016A17.805,17.805,0,0,1,24.9,63.527c4.6-1.758,12.7-2.944,17.948-3.815,9-1.5,20.592-3.044,20.592-8.574,0-1.343-1.586-3.3-4.287-4.4a81.07,81.07,0,0,0-12.118-2.858.843.843,0,0,1-.715-.957.872.872,0,0,1,.957-.729c5.3.557,19.063,2.515,19.063,9.074a5.916,5.916,0,0,1-2.144,4.844,16.548,16.548,0,0,1-5.587,3.1A90.942,90.942,0,0,1,43.417,62.9a88.713,88.713,0,0,0-15.49,3.715c-5.645,2.172-6.116,4.659-6.116,6.33,0,2.229,1.529,4.6,5.244,6.673s8.16,3.358,16.019,5.044c8.1,1.772,18.82,2.858,47.872,5.459a3.63,3.63,0,0,1-.314,7.231Z" transform="translate(-16.18 -9.353)"/>
    </g>
    <circle id="Ellipse_68" data-name="Ellipse 68" cx="9.5" cy="9.5" r="9.5" transform="translate(2253 524)" fill="#fff"/>
  </g>
</svg>
