<svg xmlns="http://www.w3.org/2000/svg" width="200.556" height="151.618" viewBox="0 0 200.556 151.618">
  <g id="education" transform="translate(-13.048 -21.772)">
    <path id="Path_2191" data-name="Path 2191" d="M213.6,95.068l-29.05,11.721-27.13,10.957-32.635,13.188c-.01.01-.021.01-.041.01l-.176.072c-.083.031-.176.062-.268.093-.258.093-.516.2-.785.269l-.444.124c-.227.062-.444.114-.682.165-.176.031-.351.062-.527.083-.207.031-.413.062-.62.083s-.382.031-.568.041-.392.021-.589.021c-.33,0-.671-.021-1-.041-.052,0-.1-.01-.155-.01q-.434-.046-.867-.124c-.093-.01-.186-.031-.279-.041l-.124-.031c-.217-.041-.434-.1-.651-.155l-.351-.093c-.268-.083-.527-.176-.785-.269a2.756,2.756,0,0,1-.269-.093L25.332,94.561a12.229,12.229,0,0,1-7.064-15.522,11.978,11.978,0,0,1,15.666-6.826l80.233,32.418,1.343.547a12.194,12.194,0,0,0,9.15,0L197.2,75.87l15.109-6.1a1.946,1.946,0,0,0,.114-3.625L163.956,44.289V57.116c0,12.217-20.427,21.439-47.506,21.439S68.944,69.343,68.944,57.116V47.573l-45.015,20.3a16.407,16.407,0,0,0-.62,30.661L113.549,135a16.693,16.693,0,0,0,3.336,1.043c.072.01.145.031.217.041.392.072.8.134,1.2.176.114.01.238.031.351.041.475.041.95.072,1.435.072a16.356,16.356,0,0,0,6.145-1.2l82.67-33.388c4.007-1.621,4.7-3.067,4.7-6.682Zm-93.5,7.157h.01Z" transform="translate(0 37.013)"/>
    <path id="Path_2192" data-name="Path 2192" d="M192.787,62.673,112.514,95.564a10.45,10.45,0,0,1-5.959,0L21.387,61.134a1.387,1.387,0,0,0-1.043,2.571l85.24,34.451a.583.583,0,0,0,.124.041,13.4,13.4,0,0,0,7.652,0c.041-.01.083-.031.124-.041l80.347-32.912a1.387,1.387,0,1,0-1.043-2.571Z" transform="translate(10.567 64.533)"/>
    <path id="Path_2193" data-name="Path 2193" d="M195.7,60.255a1.384,1.384,0,0,0-1.807-.764L113.622,92.382a10.449,10.449,0,0,1-5.959,0L20.707,57.2a1.387,1.387,0,1,0-1.043,2.571l87.017,35.215a.582.582,0,0,0,.124.041,13.405,13.405,0,0,0,7.652,0c.041-.01.083-.031.124-.041L194.928,62.07a1.384,1.384,0,0,0,.764-1.807Z" transform="translate(9.45 58.06)"/>
    <path id="Path_2194" data-name="Path 2194" d="M28.611,54.143l41.8,19.085-.444.2,18.682,8.53a10.632,10.632,0,0,0,4.472.971,10.791,10.791,0,0,0,4.472-.971l21.966-10.028-.444-.2,38.509-17.587a1.987,1.987,0,0,0,0-3.615L96.045,22.407a7.065,7.065,0,0,0-5.855,0L28.608,50.528a1.987,1.987,0,0,0,0,3.615Z" transform="translate(23.668 0)"/>
    <path id="Path_2195" data-name="Path 2195" d="M79.882,57.933a14.21,14.21,0,0,1-5.907-1.281l-21.429-9.78L35.5,39.086V65.659c0,9.935,19.725,17.98,44.056,17.98s44.056-8.055,44.056-17.98V39.386l-13.095,5.979L85.8,56.653a14.049,14.049,0,0,1-5.907,1.281Z" transform="translate(36.899 28.461)"/>
    <path id="Path_2196" data-name="Path 2196" d="M26.846,64.929H39.084a1.753,1.753,0,0,0,1.745-2.437L34.6,49.779a1.808,1.808,0,0,0-.589-.661V34.66H31.586V49.221h.01a1.788,1.788,0,0,0-.485.589L25.1,62.522a1.752,1.752,0,0,0,1.745,2.417Z" transform="translate(19.556 21.185)"/>
  </g>
</svg>
