<svg xmlns="http://www.w3.org/2000/svg" xmlns:xlink="http://www.w3.org/1999/xlink" width="79.79" height="87.998" viewBox="0 0 79.79 87.998">
  <defs>
    <clipPath id="clip-path">
      <rect id="Rectangle_10116" data-name="Rectangle 10116" width="79.79" height="87.998" transform="translate(0 0)"/>
    </clipPath>
  </defs>
  <g id="Group_40288" data-name="Group 40288" transform="translate(0 0.003)">
    <g id="Group_40287" data-name="Group 40287" transform="translate(0 -0.003)" clip-path="url(#clip-path)">
      <path id="Path_2326" data-name="Path 2326" d="M6.254,246.037a13.034,13.034,0,0,0,2.9,2.216c8.419,5.155,17.232,9.706,25.682,14.817a11.184,11.184,0,0,0,9.913.1l26.686-15.405a11.176,11.176,0,0,0,5.011-8.033c.128-10.683.128-21.4,0-32.078a11.212,11.212,0,0,0-4.708-7.805c-1.538-1.057-3.352-1.765-4.8-2.932a1.649,1.649,0,0,1,2.132-2.436,39.369,39.369,0,0,1,3.886,2.257,14.413,14.413,0,0,1,6.836,11.669v30.722A14.521,14.521,0,0,1,73.3,250.47L46.771,265.8a14.4,14.4,0,0,1-12.691.531c-9.25-5.152-18.363-10.561-27.548-15.832A14.425,14.425,0,0,1,0,239.285l0-31.324a14.494,14.494,0,0,1,7.1-11.4,38.274,38.274,0,0,1,3.612-2.076,1.649,1.649,0,0,1,1.909,2.668c-4.544,2.44-8.608,4.794-9.28,10.438-.2,10.5-.03,21.028-.085,31.539a11.354,11.354,0,0,0,2.989,6.908" transform="translate(0 -179.554)"/>
      <path id="Path_2327" data-name="Path 2327" d="M353.609,775.974a1,1,0,0,1,.546.017c.09.038.74.7.963.856a5.9,5.9,0,0,0,7.961-.883c4.483.222,8.754,3.674,9.13,8.288l-.04,9.523-9.013,5.169c-4.127,1.824-7.344.982-11.071-1.089-2.372-1.318-4.687-2.757-7.034-4.117a3.537,3.537,0,0,1-.073-.755c-.1-2.492-.129-5.563,0-8.043a9.554,9.554,0,0,1,8.629-8.965" transform="translate(-318.735 -717.097)"/>
      <path id="Path_2328" data-name="Path 2328" d="M94.759,747.345l-.282-.059c-5.1-3.236-10.833-5.877-15.866-9.161a11.882,11.882,0,0,1-1.26-.939,15.968,15.968,0,0,1-1.253-1.249c-.248-.433.2-2.145.382-2.66a9.887,9.887,0,0,1,8.61-6.256l.113.039a5.9,5.9,0,0,0,8.227.642c.4-.325.467-.714,1.062-.68a10.893,10.893,0,0,1,4.842,1.834,9.256,9.256,0,0,1,1.492,1.314c.053.127-.051.1-.1.129a19.35,19.35,0,0,0-2.095,1.243c-1.691,1.277-3.876,4.242-3.876,6.438Z" transform="translate(-70.26 -671.881)"/>
      <path id="Path_2329" data-name="Path 2329" d="M664.509,726.889a4.744,4.744,0,0,1,1.5.172,9.868,9.868,0,0,1,7.066,5.675c.227.567.781,2.506.553,3.008-.044.1-1.083,1.109-1.249,1.254a14.89,14.89,0,0,1-1.448,1.054L655.014,747.2c-.1-2.715.132-5.523,0-8.227a9.88,9.88,0,0,0-5.181-8.394c-.276-.159-.591-.265-.864-.426-.045-.027-.149,0-.1-.129a8.522,8.522,0,0,1,1.143-1.056,10.593,10.593,0,0,1,4.542-1.98,2.857,2.857,0,0,1,1.01-.1c.085.026.969.877,1.227,1.048a5.989,5.989,0,0,0,7.28-.535c.136-.116.406-.5.435-.512" transform="translate(-599.648 -671.734)"/>
      <path id="Path_2330" data-name="Path 2330" d="M212.152,28.971a7.267,7.267,0,0,1-6.26-6.86c-.287-5.084.222-10.438,0-15.55A7.23,7.23,0,0,1,212.377,0h35.348a7.206,7.206,0,0,1,6.56,6.94c-.224,4.961.287,10.166,0,15.1a7.246,7.246,0,0,1-5.328,6.73,8.3,8.3,0,0,1-.931.206h-2.161a8.977,8.977,0,0,0,.189,1.063,19.492,19.492,0,0,1,.652,2.541.848.848,0,0,1-.815.845c-1.047.034-3.541-2.082-4.35-2.817a21.241,21.241,0,0,0-1.55-1.56.438.438,0,0,0-.3-.076l-6.565.042-2.393,3.826A.866.866,0,0,1,229.4,32.8L227,28.984l-6.66-.011c-1.181,1.009-4.529,4.55-6.095,4.423-1.354-.11-.586-1.583-.4-2.345.171-.689.353-1.377.461-2.08-.7-.049-1.475.066-2.161,0m32.269,1.744c-.053-1.12-1.235-3.3.57-3.488A22.129,22.129,0,0,0,248.5,27.1a5.5,5.5,0,0,0,4.039-4.91c-.285-5.038.372-10.482,0-15.473a5.452,5.452,0,0,0-4.812-4.971c-10.595.012-21.189-.007-31.783.007-1.631,0-3.574-.265-5.114.415a5.557,5.557,0,0,0-3.185,4.4c.261,5.13-.352,10.612,0,15.7a5.477,5.477,0,0,0,4.536,4.943c.856.1,3.067-.174,3.655.213.774.509-.053,2.513-.072,3.3A21.485,21.485,0,0,0,217.8,29.01a12.357,12.357,0,0,1,1.728-1.684,1.926,1.926,0,0,1,.58-.1c2.44-.178,5.155.1,7.611.055l.314.141c.419.258,1.836,3.087,2.014,3.144.141.045.1-.056.13-.1.557-.844,1.094-2.018,1.694-2.778a1.121,1.121,0,0,1,.9-.463c2.385-.211,5.086.159,7.5.01a1.684,1.684,0,0,1,.646.264c.448.368,1.009,1.11,1.482,1.551a15.914,15.914,0,0,0,2.011,1.666" transform="translate(-190.194 0.003)"/>
      <path id="Path_2331" data-name="Path 2331" d="M443.152,561.778c7.07-.686,9.06,6.455,6.725,11.958-1.507,3.551-5.288,6.157-8.9,3.523-5.047-3.68-5.264-14.759,2.177-15.48" transform="translate(-404.183 -519.13)"/>
      <path id="Path_2332" data-name="Path 2332" d="M169.641,522.995c-4.816-4.446-4.157-15.36,4.029-15.061,7.692.281,7.969,10.906,3.331,15.093a5.214,5.214,0,0,1-7.361-.032" transform="translate(-153.984 -469.406)"/>
      <path id="Path_2333" data-name="Path 2333" d="M714.74,508.2a7.9,7.9,0,0,1,1.486.062c9.21,1.275,6.1,17.014-1.347,16.514-7.288-.489-9.6-16.022-.139-16.577" transform="translate(-654.764 -469.65)"/>
      <path id="Path_2334" data-name="Path 2334" d="M450.293,276.472a.881.881,0,0,1,.619-1.5l20.94.073a.89.89,0,0,1-.534,1.677l-20.579-.054a2.333,2.333,0,0,1-.446-.2" transform="translate(-415.912 -254.119)"/>
      <path id="Path_2335" data-name="Path 2335" d="M324.523,182.922a.887.887,0,0,1-.692,1.494H304.714a.864.864,0,0,1-.174-1.694h19.615a1.409,1.409,0,0,1,.367.2" transform="translate(-280.861 -168.862)"/>
      <path id="Path_2336" data-name="Path 2336" d="M477.865,90.255l19.19.041a.854.854,0,0,1-.244,1.613l-18.987-.052a.862.862,0,0,1,.041-1.6" transform="translate(-441.101 -83.41)"/>
      <path id="Path_2337" data-name="Path 2337" d="M310.5,90.275l9.253.04a.87.87,0,0,1-.242,1.614l-8.878,0a.85.85,0,0,1-.132-1.653" transform="translate(-286.405 -83.428)"/>
      <path id="Path_2338" data-name="Path 2338" d="M613.172,182.121l8.093-.013a.875.875,0,0,1-.071,1.739l-7.956-.007a.871.871,0,0,1-.065-1.72" transform="translate(-566.017 -168.297)"/>
      <path id="Path_2339" data-name="Path 2339" d="M310.4,275.114l6.805-.012a.882.882,0,0,1-.223,1.74c-1.949.217-4.3-.156-6.286-.009a.882.882,0,0,1-.3-1.72" transform="translate(-286.299 -254.238)"/>
    </g>
  </g>
</svg>
