<svg xmlns="http://www.w3.org/2000/svg" width="86.595" height="87.998" viewBox="0 0 86.595 87.998">
  <g id="noun-musical-notes-4185452" transform="translate(-3.993 -3.79)">
    <g id="Layer_2" data-name="Layer 2" transform="translate(3.993 3.79)">
      <path id="Path_2206" data-name="Path 2206" d="M21.39,15.071c-.289-1.19-.5-2.272-.685-3.354a28.17,28.17,0,0,1-3.823-.974A24.454,24.454,0,0,0,5.628,9.408a1.793,1.793,0,0,0,.325,3.571,21.641,21.641,0,0,1,9.847,1.19,29.287,29.287,0,0,0,5.23,1.407h0Z" transform="translate(-3.979 10.429)"/>
      <path id="Path_2207" data-name="Path 2207" d="M15.6,13.313a24.2,24.2,0,0,0-9.955-.9,1.811,1.811,0,1,0,.325,3.607,20.956,20.956,0,0,1,7.214.469l.216-.433C14.154,14.972,14.839,14.214,15.6,13.313Z" transform="translate(-3.993 18.247)"/>
      <path id="Path_2208" data-name="Path 2208" d="M10.389,15.347a26.8,26.8,0,0,0-4.761,0,1.793,1.793,0,1,0,.325,3.571,22.976,22.976,0,0,1,4.148,0A15.076,15.076,0,0,1,10.389,15.347Z" transform="translate(-3.979 26.06)"/>
      <path id="Path_2209" data-name="Path 2209" d="M15.642,21.9A21.929,21.929,0,0,1,21.917,20.5a21.893,21.893,0,0,1,9.847,1.19,25.248,25.248,0,0,0,11.253,1.335,25.608,25.608,0,0,0,10.82-3.246,21.821,21.821,0,0,1,9.522-2.885,1.809,1.809,0,1,0-.289-3.607,24.959,24.959,0,0,0-10.82,3.246,21.388,21.388,0,0,1-9.486,2.849,22,22,0,0,1-9.883-1.154,24.526,24.526,0,0,0-10.965-1.3,25.248,25.248,0,0,0-8.187,1.948,10.82,10.82,0,0,1,1.262,1.551,8.584,8.584,0,0,1,.649,1.479Z" transform="translate(21.39 20.944)"/>
      <path id="Path_2210" data-name="Path 2210" d="M12.206,18.463a27.34,27.34,0,0,0-6.564,0,1.811,1.811,0,1,0,.325,3.607,21.893,21.893,0,0,1,9.847,1.19,16.519,16.519,0,0,1-3.607-4.8Z" transform="translate(-3.993 33.944)"/>
      <path id="Path_2211" data-name="Path 2211" d="M20.093,23.47a21.894,21.894,0,0,1,9.847,1.19A25.248,25.248,0,0,0,41.193,26a25.608,25.608,0,0,0,10.82-3.246,21.821,21.821,0,0,1,9.522-2.885,1.8,1.8,0,0,0,1.659-1.948,1.839,1.839,0,0,0-1.948-1.623,24.959,24.959,0,0,0-10.82,3.246,21.388,21.388,0,0,1-9.486,2.849,22,22,0,0,1-9.883-1.154A24.526,24.526,0,0,0,20.093,19.9a29.323,29.323,0,0,0-4.761.757,11.758,11.758,0,0,1-.9,4.04,25.031,25.031,0,0,1,5.663-1.226Z" transform="translate(23.214 28.792)"/>
      <path id="Path_2212" data-name="Path 2212" d="M16.881,22.743A24.454,24.454,0,0,0,5.628,21.408a1.793,1.793,0,0,0,.325,3.571,21.641,21.641,0,0,1,9.847,1.19h.4a7.827,7.827,0,0,1,1.7-3.246Z" transform="translate(-3.979 41.711)"/>
      <path id="Path_2213" data-name="Path 2213" d="M23.727,5.219a6.925,6.925,0,0,1,2.308,2.6A17.2,17.2,0,0,1,28.488,15.5a21.352,21.352,0,0,1-4.617,15.4c-.649.793-1.407,1.479-2.092,2.236a.721.721,0,0,0-.216.577c.4,1.948.83,3.9,1.262,5.951a23.772,23.772,0,0,1,2.777,0,9.522,9.522,0,0,1,6.781,4.292,10.82,10.82,0,0,1-.289,12.516,10.315,10.315,0,0,1-4.509,3.282H27.37c.433,1.839.9,3.607,1.262,5.591a26.762,26.762,0,0,1,.577,4.4,7.214,7.214,0,0,1-5.951,7.214l-1.7.325H19.615a7.689,7.689,0,0,1-2.164-.433,6.925,6.925,0,0,1-5.05-4.4,5.266,5.266,0,0,1,1.371-5.482,4.436,4.436,0,0,1,4.4-1.407,4.545,4.545,0,0,1,3.607,3.21,4.22,4.22,0,0,1-3.607,5.518,3.607,3.607,0,0,0,2.2.685,6.709,6.709,0,0,0,5.194-2.092,4.761,4.761,0,0,0,1.046-2.705,14.716,14.716,0,0,0-.541-5.3c-.361-1.407-.721-2.849-1.118-4.328H23.33a14.644,14.644,0,0,1-9.991-2.417A15.149,15.149,0,0,1,6.487,47.743,14.644,14.644,0,0,1,9.372,36.526a58.646,58.646,0,0,1,4.545-5.446c1.118-1.262,2.453-2.38,3.607-3.607a.649.649,0,0,0,.216-.685,28.855,28.855,0,0,1-1.226-9.125,18.647,18.647,0,0,1,2.561-9.306A8.765,8.765,0,0,1,23.042,4.75ZM21.671,45.543a6.132,6.132,0,0,0-3.607,3.607,3.607,3.607,0,0,0,0,1.659A4.653,4.653,0,0,0,21.2,54.7a.83.83,0,0,1,.613.974c0,.4-.685.649-1.154.541a7.719,7.719,0,0,1-6.168-7.61,9.269,9.269,0,0,1,4.292-7.466,16.663,16.663,0,0,1,1.731-1.01l-1.046-5.013-.433.325a36.069,36.069,0,0,0-5.807,5.915,12.948,12.948,0,0,0-2.885,7.214,9.7,9.7,0,0,0,6.564,9.558,11.975,11.975,0,0,0,7.538.325ZM19.8,25.886l.866-.793a20.7,20.7,0,0,0,4-5.663,8.873,8.873,0,0,0,1.01-5.591,1.623,1.623,0,0,0-2.741-.974,5.771,5.771,0,0,0-1.587,1.659,16.158,16.158,0,0,0-2.092,6.348,11.506,11.506,0,0,0,.541,5.013Zm4.22,19.441L26.685,57.59a6.24,6.24,0,0,0,3.607-6.781,6.564,6.564,0,0,0-6.276-5.482Z" transform="translate(2.051 -1.287)"/>
      <path id="Path_2214" data-name="Path 2214" d="M37.851,26.252l-.433-3.282a3.066,3.066,0,0,1,0-.577l-2.525-.721A24.526,24.526,0,0,0,23.82,20.408,24.815,24.815,0,0,0,13,23.582a1.717,1.717,0,0,0,.252,1.082,21.094,21.094,0,0,0,.433,2.633l.83-.433a21.821,21.821,0,0,1,9.522-2.885,21.894,21.894,0,0,1,9.847,1.19,32.463,32.463,0,0,0,3.967,1.082Z" transform="translate(19.487 39.104)"/>
      <path id="Path_2215" data-name="Path 2215" d="M28.946,19.293a6.324,6.324,0,0,0-2.056.216l.5,3.607,1.839-.216a1.8,1.8,0,0,0,1.659-1.948,1.839,1.839,0,0,0-1.948-1.659Z" transform="translate(55.695 36.613)"/>
      <path id="Path_2216" data-name="Path 2216" d="M47.681,40.5c-.793-5.663-2.741-19.765-2.741-19.765s-.289-1.948-1.7-1.948a3.968,3.968,0,0,0-1.118.216L25.139,24.561a1.948,1.948,0,0,0-1.515,2.344c.469,3.318.938,6.637,1.371,9.955l1.046,6.132h-.577A6.709,6.709,0,0,0,19.512,46.6a4.4,4.4,0,0,0,0,3.859,4.256,4.256,0,0,0,3.138,2.2,4.907,4.907,0,0,0,1.046,0A6.673,6.673,0,0,0,29.647,48.4a4.725,4.725,0,0,0,.216-1.551,17.863,17.863,0,0,0-.289-2.381l-.252-1.839c-.5-3.607-1.046-7.5-1.587-11.289l.289-.469L37.763,27.7l3.607-1.226.793-.252,1.479,10.82h-.18a6.637,6.637,0,0,0-6.059,3.1,4.472,4.472,0,0,0-.433,4.22A4.4,4.4,0,0,0,40.4,46.743h.793a6.2,6.2,0,0,0,1.407,0A6.059,6.059,0,0,0,47.681,40.5Z" transform="translate(35.301 35.312)"/>
      <path id="Path_2217" data-name="Path 2217" d="M26,11.946a22.218,22.218,0,0,1,5.446-1.082,1.8,1.8,0,0,0,1.767-1.948,1.839,1.839,0,0,0-1.948-1.623,26.871,26.871,0,0,0-4.977.83A13.561,13.561,0,0,1,26,11.946Z" transform="translate(53.375 5.331)"/>
      <path id="Path_2218" data-name="Path 2218" d="M35.675,9.731A24.526,24.526,0,0,0,24.6,8.4a25.248,25.248,0,0,0-10.82,3.1A24.2,24.2,0,0,1,12.7,16.079l2.489-1.226A21.821,21.821,0,0,1,24.6,11.967a21.893,21.893,0,0,1,9.847,1.19,25.933,25.933,0,0,0,6.781,1.407c.289-1.082.649-2.308,1.046-3.607A22.254,22.254,0,0,1,35.675,9.731Z" transform="translate(18.705 7.835)"/>
      <path id="Path_2219" data-name="Path 2219" d="M43.641,11.859a1.8,1.8,0,0,1-1.659,1.948,22.4,22.4,0,0,0-9.522,2.849A24.923,24.923,0,0,1,22,20.01a12.407,12.407,0,0,0,1.01-2.344l.433-1.479a19.188,19.188,0,0,0,5.23-1.587l.9-.433,1.082-.541a25.248,25.248,0,0,1,10.82-3.282,1.839,1.839,0,0,1,2.164,1.515Z" transform="translate(42.948 13.208)"/>
      <path id="Path_2220" data-name="Path 2220" d="M34.444,11.431a27.448,27.448,0,0,0-6.059,0,24.634,24.634,0,0,0-10.82,3.246,22.723,22.723,0,0,1-6.384,2.417c.252,1.118.469,2.2.721,3.318h.685a27.015,27.015,0,0,0,6.6-2.6,21.821,21.821,0,0,1,9.522-2.885,27.592,27.592,0,0,1,4.941,0,.613.613,0,0,1,0-.252,6.528,6.528,0,0,1,.793-3.246Z" transform="translate(14.742 15.692)"/>
      <path id="Path_2221" data-name="Path 2221" d="M43.737,13.6c-.83-1.479-1.623-2.994-2.38-4.472S40.2,6.82,39.589,5.7a4.184,4.184,0,0,0-1.01-1.082l-.4-.325-.541-.5-.5.541a1.7,1.7,0,0,1-.361.361,3.066,3.066,0,0,0-.938,1.262c-1.082,3.607-2.128,6.889-3.21,10.5S28.768,29.8,28.768,29.8h-.5a7.827,7.827,0,0,0-3.607-.9,7.538,7.538,0,0,0-5.122,1.912,4.617,4.617,0,0,0-1.515,3.426,4,4,0,0,0,1.515,3.03,8.548,8.548,0,0,0,3.607,1.731,7.683,7.683,0,0,0,1.984.252,6.673,6.673,0,0,0,6.492-5.23l5.158-17.493c.252-.938.5-1.876.721-2.849V13.2A7.9,7.9,0,0,1,41.1,22.04a21.641,21.641,0,0,1-1.371,2.922l-1.19,2.38v.793l.83.757,1.01-.721a9.7,9.7,0,0,0,1.19-.938A12.191,12.191,0,0,0,43.737,13.6Z" transform="translate(32.573 -3.79)"/>
    </g>
  </g>
</svg>
