<svg xmlns="http://www.w3.org/2000/svg" width="175.972" height="151.619" viewBox="0 0 175.972 151.619">
  <g id="food" transform="translate(-10.734 -16.156)">
    <path id="Path_2190" data-name="Path 2190" d="M52.548,55.39h.018c3.509,0,6.17-.77,6.984-1.531a1.436,1.436,0,0,1,1.969,2.092c-1.523,1.426-4.945,2.31-8.944,2.31h-.018c-3.964,0-7.386-.875-8.918-2.284a1.437,1.437,0,0,1,1.943-2.118c.831.761,3.492,1.531,6.984,1.531Zm20.916,48.894a1.438,1.438,0,1,0-.788-2.765c-12.348,3.527-33.536,3.632-45.385-1.847a1.437,1.437,0,1,0-1.208,2.608c7.01,3.238,16.663,4.621,26.08,4.621a80.949,80.949,0,0,0,21.3-2.625ZM64.3,135.516c-8.97,2.048-20.181,1.689-29.983-.971a1.433,1.433,0,1,0-.753,2.765,70.524,70.524,0,0,0,18.238,2.38,59.469,59.469,0,0,0,13.136-1.383,1.437,1.437,0,1,0-.648-2.8Zm122.38,13.661a20.962,20.962,0,0,1-.989,6.957,5.845,5.845,0,0,1-3.194,3.728,5.369,5.369,0,0,1-1.987.341l-92.467-.07H88.01c-.14.009-.315.009-.543.009a18.013,18.013,0,0,1-9.338-3.011L78,158.848a1.552,1.552,0,0,1-.07.35c-1.873,5.575-12.182,7.491-16.523,8.06a64.7,64.7,0,0,1-8.235.516c-10.957,0-22.2-2.7-26.185-8.751a1.407,1.407,0,0,1-.228-.674L19.975,77.066a5.276,5.276,0,0,1-.893-2.862,68.845,68.845,0,0,1,1.461-9.644.045.045,0,0,1,.018-.035c.193-3.273,3.474-6.2,9.311-8.34.044-.21.07-.394.114-.613,0-.009.009-.009.009-.018.324-4.857,8.664-7.386,16.479-8.183L43.928,26.536a.913.913,0,0,0-.831-.8l-29.974-4.2a.512.512,0,0,0-.114-.018,2.718,2.718,0,0,1-2.258-2.984c.009-.035.009-.07.018-.105a2.716,2.716,0,0,1,3.045-2.249l32.922,4.612.035.009a2.567,2.567,0,0,1,1.461.779,2.741,2.741,0,0,1,.691,1.54l3.789,30.736a21.829,21.829,0,0,1-2.914.175,22.908,22.908,0,0,1-2.52-.14l-.446-3.641c-9.1.91-13.985,3.746-13.994,5.592,0,2.407,7.684,5.916,19.726,5.925h.044A45.9,45.9,0,0,0,67.057,59.7c3.868-1.339,5.233-2.906,5.233-3.833,0-2.065-6.021-5.33-16.908-5.855a1.432,1.432,0,0,1-1.365-1.505,1.45,1.45,0,0,1,1.505-1.365c9.635.464,19.341,3.273,19.612,8.506,0,.018.009.026.018.044.018.158.035.289.053.438,6.03,2.179,9.408,5.155,9.565,8.506,0,.018.018.035.018.061.7,5.513,1,8.471,1,9.907a5.61,5.61,0,0,1-1.672,3.842l-2.7,35.443c.858-.6,1.733-1.19,2.643-1.733a52.32,52.32,0,0,1,26.017-7.238,36.968,36.968,0,0,1,5.785.464c1.19-4.647,2.4-6.056,3.772-6.5,1.838-.6,3.334.84,4.647,2.109.91.875,1.934,1.855,2.7,1.855h.035a2.1,2.1,0,0,0,1.3-.84c1.89-2.118,3.492-3.046,5.041-2.923,1.855.158,2.879,1.768,3.623,2.949a9.263,9.263,0,0,0,.753,1.085c.341-.236,1.33-1.2,3.273-5.015a2.547,2.547,0,0,1,1.654-1.549,2.223,2.223,0,0,1,1.917.726c.753.656,2.162,1.89,6.844.814,3.842-.884,10.922-.263,15.228,13.731a1.456,1.456,0,0,1-.07.945c7.238,3.308,13.25,9.443,17.092,19.314a54.3,54.3,0,0,1,3.028,17.083Zm-68.988-38.619c-.928,5.137-4.131,8.559-6.826,9.294a3.06,3.06,0,0,1-3.247-.788c-5.391-6.266-7.089-6.607-7.4-6.607-.6.665-.481,4.3-.411,6.266.14,4.227.263,7.876-2,9.067-1.925,1.015-4.174-.648-4.91-1.19-1.111-.823-2.039-1.155-2.6-.945-1.356.516-2.1,4.034-2.6,6.371-.63,2.975-1.085,5.128-2.94,5.312-1.689.166-3.046-1.54-5.365-6.8a4.907,4.907,0,0,0-.5-.9c-.971,1-2.485,5.557-2.792,10.589-.236,3.947.481,5.286.691,5.435,2.013.726,5.356.254,6.984-.219,7.526-2.17,15.9-9.565,24.006-16.724,8.253-7.281,16.777-14.816,24.985-17.468,12.3-3.973,21.739-4.481,30.079-1.531-2.074-5.233-5.461-10.047-10.808-8.821-5.137,1.181-7.509,0-8.769-.954-2.232,4.306-3.789,6.03-5.487,6.109-1.637.088-2.538-1.339-3.255-2.485-.42-.665-1-1.584-1.426-1.619-.149-.018-.928.026-2.66,1.969a4.723,4.723,0,0,1-3.343,1.8c-2,.07-3.571-1.444-4.84-2.66a7.1,7.1,0,0,0-1.785-1.435c-.219.123-1.4,1.138-2.8,8.918Zm-65.251-27.4h.079a78.881,78.881,0,0,0,21.826-2.722c5.365-1.61,8.576-3.789,8.576-5.829,0-.98-.184-2.9-.429-5.032a21.022,21.022,0,0,1-7.658,4.192c-5.933,2.057-13.783,3.186-22.115,3.186h-.07c-12.3-.009-25.159-2.669-30.052-7.649a35.4,35.4,0,0,0-.639,4.918c0,4.2,13.031,8.918,30.489,8.927ZM32.131,59.827a18.921,18.921,0,0,0-.3,2.485c0,.893,1.47,2.407,5.618,3.719a52.291,52.291,0,0,0,14.956,1.987h.053c12.707,0,20.5-3.168,20.5-5.443,0-.525-.079-1.47-.2-2.582a16.763,16.763,0,0,1-4.778,2.424,48.711,48.711,0,0,1-15.394,2.223h-.044c-8.27-.009-16.593-1.654-20.417-4.813Zm-8.743,5.015c0,4.358,12.016,9.233,29.264,9.242h.061c8.025,0,15.543-1.076,21.178-3.028,5.032-1.742,8.034-4.052,8.034-6.17,0-1.855-2.38-3.886-6.336-5.531.175,1.584.254,2.59.254,3.229C75.835,68.3,63.731,70.9,52.458,70.9h-.053A54.746,54.746,0,0,1,36.583,68.78c-6.3-2-7.622-4.612-7.622-6.459a18.837,18.837,0,0,1,.315-2.8c-3.719,1.6-5.89,3.518-5.89,5.33Zm52.263,90.515c-.254-.21-.516-.411-.77-.639-.018-.018-.044-.035-.061-.053-.21-.193-.42-.385-.63-.586-3.894-3.719-6.712-8.8-6.949-14.212-.009-.2-.009-.446-.009-.735a28.831,28.831,0,0,1,.6-5.933,30.18,30.18,0,0,1,9.977-16.488c.018-.018.044-.035.061-.053.158-.14.333-.254.49-.394l2.7-35.505a28.622,28.622,0,0,1-5.89,2.424,82.052,82.052,0,0,1-22.648,2.835h-.079c-11.421-.009-23.313-2.083-29.344-5.995l6.485,77.714c4.472,6.161,19.384,8.244,31.453,6.677,7.553-.98,13.048-3.317,14.116-5.977l.175-2.328a1.487,1.487,0,0,1,.324-.77Zm58.635-20.163a7.188,7.188,0,0,0-.473-3.081c-.061-.158-.105-.28-.14-.368a6.41,6.41,0,0,0-1.61-2.319,2.393,2.393,0,0,0-2.31-.648c-.026.009-.044.018-.07.026l-.088.035a2.569,2.569,0,0,0-1.374,2.284,6.983,6.983,0,0,0,.464,3.037l.018.053c.044.123.1.245.14.359a6.335,6.335,0,0,0,1.61,2.319,2.4,2.4,0,0,0,2.328.648l.061-.018.079-.026a2.569,2.569,0,0,0,1.374-2.284Zm9.591,8.953a2.521,2.521,0,0,0-1.794-1.969l-.044-.009a2.42,2.42,0,0,0-2.293,1.155,6.944,6.944,0,0,0-1.138,2.748l-.035.2a7.185,7.185,0,0,0,.114,3.124,2.534,2.534,0,0,0,1.794,1.969l.044.009a2.42,2.42,0,0,0,2.293-1.155,6.944,6.944,0,0,0,1.138-2.748l.035-.2A7.185,7.185,0,0,0,143.878,144.146Zm5.986-22.946a2.553,2.553,0,0,0-1.558-2.162l-.061-.018a2.388,2.388,0,0,0-2.363.849,6.569,6.569,0,0,0-1.418,2.512c-.035.1-.061.2-.1.306a7.094,7.094,0,0,0-.228,3.115,2.553,2.553,0,0,0,1.558,2.162l.07.018a2.373,2.373,0,0,0,2.354-.849,6.569,6.569,0,0,0,1.418-2.512c.035-.114.07-.219.1-.306a7.093,7.093,0,0,0,.228-3.115Zm6.432,16.444c-.026-.079-.061-.193-.114-.324a6.478,6.478,0,0,0-1.488-2.442,2.383,2.383,0,0,0-2.372-.77l-.07.035a2.559,2.559,0,0,0-1.5,2.205,7.185,7.185,0,0,0,.315,3.107c.026.079.061.184.114.324a6.409,6.409,0,0,0,1.488,2.442,2.383,2.383,0,0,0,2.372.77c.026-.009.044-.018.07-.026a2.575,2.575,0,0,0,1.5-2.205,7.184,7.184,0,0,0-.315-3.107Zm9.863-9.478a7.205,7.205,0,0,0-.63-3.054,2.192,2.192,0,0,0-4.227,0,7.1,7.1,0,0,0-.639,3.054,7.205,7.205,0,0,0,.63,3.054,2.192,2.192,0,0,0,4.227,0A7.1,7.1,0,0,0,166.159,128.167Zm5.7,13.985c-.018-.053-.053-.149-.1-.28l-.018-.044a6.478,6.478,0,0,0-1.488-2.442,2.383,2.383,0,0,0-2.372-.77l-.07.035a2.559,2.559,0,0,0-1.5,2.205,7.185,7.185,0,0,0,.315,3.107c.026.079.061.193.114.324a6.409,6.409,0,0,0,1.488,2.442,2.383,2.383,0,0,0,2.372.77c.026-.009.044-.018.07-.026a2.575,2.575,0,0,0,1.5-2.205,7.185,7.185,0,0,0-.315-3.107Zm-24.1-21.389h-.009c-.114-.035-.315.105-.56.359a4.7,4.7,0,0,0-1,1.812,2.412,2.412,0,0,0-.07.236,5.3,5.3,0,0,0-.184,2.31c.079.42.193.709.333.753.114.026.315-.105.56-.359a4.824,4.824,0,0,0,1.006-1.812c.018-.061.044-.14.07-.236a5.3,5.3,0,0,0,.184-2.31c-.07-.411-.184-.691-.324-.753Zm15.656,4.551c-.131,0-.315.228-.49.586a5.331,5.331,0,0,0-.446,2.258,5.173,5.173,0,0,0,.446,2.258c.175.368.359.6.49.6s.315-.228.49-.586a5.988,5.988,0,0,0,.009-4.516c-.175-.368-.359-.6-.49-.6Zm-8.927,12.62a4.6,4.6,0,0,0-1.05-1.759c-.245-.245-.455-.368-.56-.333l-.018.009c-.131.061-.236.35-.3.761a5.276,5.276,0,0,0,.254,2.3c.035.123.07.2.088.254a4.6,4.6,0,0,0,1.05,1.759c.245.245.455.368.56.333h.018c.14-.061.245-.35.306-.761a5.275,5.275,0,0,0-.254-2.3c-.035-.123-.07-.2-.088-.254Zm-22.491-5.478a4.562,4.562,0,0,0-1.129-1.663c-.245-.21-.438-.324-.551-.3l-.026.009c-.14.061-.236.359-.28.788a5.208,5.208,0,0,0,.359,2.24l.018.044c.035.1.079.193.114.289a4.639,4.639,0,0,0,1.129,1.663c.245.21.446.324.56.3l.018-.009c.14-.061.236-.359.28-.8a5.416,5.416,0,0,0-.368-2.284c-.026-.061-.061-.158-.114-.28Zm9.749,11.508c-.123-.018-.315.149-.543.446a4.943,4.943,0,0,0-.805,2l-.026.158a5.447,5.447,0,0,0,.061,2.319c.123.4.263.674.4.7.123.018.315-.149.543-.446a4.943,4.943,0,0,0,.805-2l.026-.158a5.447,5.447,0,0,0-.061-2.319C142.023,144.26,141.883,143.989,141.743,143.963Zm28.312-1.5-.009-.026a4.6,4.6,0,0,0-1.05-1.759c-.245-.245-.455-.368-.56-.333l-.018.009c-.131.061-.236.35-.3.761a5.275,5.275,0,0,0,.254,2.3c.035.123.07.2.088.254a4.6,4.6,0,0,0,1.05,1.759c.245.245.455.368.56.333h.018c.14-.061.245-.35.306-.761a5.276,5.276,0,0,0-.254-2.3l-.07-.228Z" transform="translate(0)"/>
  </g>
</svg>
