<svg xmlns="http://www.w3.org/2000/svg" width="87.997" height="87.998" viewBox="0 0 87.997 87.998">
  <g id="Group_40286" data-name="Group 40286" transform="translate(0)">
    <g id="Group_40285" data-name="Group 40285" transform="translate(12.066 7.489)">
      <g id="Group_40278" data-name="Group 40278" transform="translate(0 0)">
        <ellipse id="Ellipse_27" data-name="Ellipse 27" cx="5.104" cy="5.104" rx="5.104" ry="5.104" transform="translate(33.179 6.806)"/>
        <ellipse id="Ellipse_28" data-name="Ellipse 28" cx="1.701" cy="1.701" rx="1.701" ry="1.701" transform="translate(40.836 0.851)"/>
        <ellipse id="Ellipse_29" data-name="Ellipse 29" cx="3.403" cy="3.403" rx="3.403" ry="3.403" transform="translate(52.746 59.552)"/>
        <ellipse id="Ellipse_30" data-name="Ellipse 30" cx="2.406" cy="2.406" rx="2.406" ry="2.406" transform="translate(40.131 19.713)"/>
        <ellipse id="Ellipse_31" data-name="Ellipse 31" cx="2.552" cy="2.552" rx="2.552" ry="2.552" transform="translate(12.761 34.03)"/>
        <ellipse id="Ellipse_32" data-name="Ellipse 32" cx="1.701" cy="1.701" rx="1.701" ry="1.701" transform="translate(47.641 22.97)"/>
        <ellipse id="Ellipse_33" data-name="Ellipse 33" cx="6.806" cy="6.806" rx="6.806" ry="6.806" transform="translate(11.911 40.836)"/>
        <ellipse id="Ellipse_34" data-name="Ellipse 34" cx="2.406" cy="2.406" rx="2.406" ry="2.406" transform="translate(53.743 18.862)"/>
        <ellipse id="Ellipse_35" data-name="Ellipse 35" cx="1.701" cy="1.701" rx="1.701" ry="1.701" transform="translate(45.94 5.955)"/>
        <ellipse id="Ellipse_36" data-name="Ellipse 36" cx="1.701" cy="1.701" rx="1.701" ry="1.701" transform="translate(49.343)"/>
        <ellipse id="Ellipse_37" data-name="Ellipse 37" cx="1.701" cy="1.701" rx="1.701" ry="1.701" transform="translate(28.074 15.313)"/>
        <ellipse id="Ellipse_38" data-name="Ellipse 38" cx="1.701" cy="1.701" rx="1.701" ry="1.701" transform="translate(33.179 19.567)"/>
        <ellipse id="Ellipse_39" data-name="Ellipse 39" cx="1.701" cy="1.701" rx="1.701" ry="1.701" transform="translate(7.657 38.283)"/>
        <ellipse id="Ellipse_40" data-name="Ellipse 40" cx="1.701" cy="1.701" rx="1.701" ry="1.701" transform="translate(31.477 35.731)"/>
        <ellipse id="Ellipse_41" data-name="Ellipse 41" cx="1.701" cy="1.701" rx="1.701" ry="1.701" transform="translate(35.731 41.686)"/>
        <ellipse id="Ellipse_42" data-name="Ellipse 42" cx="1.701" cy="1.701" rx="1.701" ry="1.701" transform="translate(42.537 44.239)"/>
        <ellipse id="Ellipse_43" data-name="Ellipse 43" cx="1.701" cy="1.701" rx="1.701" ry="1.701" transform="translate(5.104 43.388)"/>
        <ellipse id="Ellipse_44" data-name="Ellipse 44" cx="1.701" cy="1.701" rx="1.701" ry="1.701" transform="translate(0 47.642)"/>
        <ellipse id="Ellipse_45" data-name="Ellipse 45" cx="1.701" cy="1.701" rx="1.701" ry="1.701" transform="translate(27.224 39.985)"/>
        <ellipse id="Ellipse_46" data-name="Ellipse 46" cx="1.701" cy="1.701" rx="1.701" ry="1.701" transform="translate(45.94 62.016)"/>
        <ellipse id="Ellipse_47" data-name="Ellipse 47" cx="1.701" cy="1.701" rx="1.701" ry="1.701" transform="translate(26.373 9.358)"/>
        <ellipse id="Ellipse_48" data-name="Ellipse 48" cx="1.701" cy="1.701" rx="1.701" ry="1.701" transform="translate(21.269 13.612)"/>
        <ellipse id="Ellipse_49" data-name="Ellipse 49" cx="5.104" cy="5.104" rx="5.104" ry="5.104" transform="translate(19.567 28.075)"/>
      </g>
      <g id="Group_40279" data-name="Group 40279" transform="translate(5.105 5.104)">
        <ellipse id="Ellipse_50" data-name="Ellipse 50" cx="3.403" cy="3.403" rx="3.403" ry="3.403" transform="translate(40.835 7.657)"/>
        <ellipse id="Ellipse_51" data-name="Ellipse 51" cx="3.403" cy="3.403" rx="3.403" ry="3.403" transform="translate(23.821 40.836)"/>
        <ellipse id="Ellipse_52" data-name="Ellipse 52" cx="2.552" cy="2.552" rx="2.552" ry="2.552" transform="translate(0 45.94)"/>
        <ellipse id="Ellipse_53" data-name="Ellipse 53" cx="2.406" cy="2.406" rx="2.406" ry="2.406" transform="translate(16.31 50.34)"/>
        <ellipse id="Ellipse_54" data-name="Ellipse 54" cx="3.403" cy="3.403" rx="3.403" ry="3.403" transform="translate(47.641)"/>
        <ellipse id="Ellipse_55" data-name="Ellipse 55" cx="2.406" cy="2.406" rx="2.406" ry="2.406" transform="translate(53.742 8.653)"/>
        <ellipse id="Ellipse_56" data-name="Ellipse 56" cx="1.701" cy="1.701" rx="1.701" ry="1.701" transform="translate(57.85 3.403)"/>
        <ellipse id="Ellipse_57" data-name="Ellipse 57" cx="1.701" cy="1.701" rx="1.701" ry="1.701" transform="translate(33.179 44.239)"/>
        <ellipse id="Ellipse_58" data-name="Ellipse 58" cx="1.701" cy="1.701" rx="1.701" ry="1.701" transform="translate(17.015 57.851)"/>
        <ellipse id="Ellipse_59" data-name="Ellipse 59" cx="1.701" cy="1.701" rx="1.701" ry="1.701" transform="translate(23.82 50.194)"/>
        <ellipse id="Ellipse_60" data-name="Ellipse 60" cx="1.701" cy="1.701" rx="1.701" ry="1.701" transform="translate(57.85 56.912)"/>
        <ellipse id="Ellipse_61" data-name="Ellipse 61" cx="5.104" cy="5.104" rx="5.104" ry="5.104" transform="translate(4.254 51.045)"/>
      </g>
    </g>
    <path id="Path_2325" data-name="Path 2325" d="M90.267,88.928h-3l2.494,2.492H10.383V12.044l2.492,2.494v-3L9.34,8,5.8,11.535v3L8.3,12.044V93.506H89.759L87.264,96h3L93.8,92.463Z" transform="translate(-5.805 -8)"/>
  </g>
</svg>
