<svg xmlns="http://www.w3.org/2000/svg" width="127.031" height="151.619" viewBox="0 0 127.031 151.619">
  <g id="Group_40269" data-name="Group 40269" transform="translate(-1183.294 -510)">
    <path id="Path_2201" data-name="Path 2201" d="M101.95,96.965H93.928l.007-63.5a1.618,1.618,0,0,0-1.619-1.619h-6.64V24.506a1.618,1.618,0,0,0-1.619-1.619h-3.2V6.619a1.616,1.616,0,1,0-3.231,0V22.894H74.443a1.618,1.618,0,0,0-1.619,1.619v7.344H66.138a1.618,1.618,0,0,0-1.619,1.619V53.184a1.619,1.619,0,1,0,3.238,0v-18.1H74.4c.02,0,.033.02.053.02s.033-.02.053-.02h9.516c.02,0,.033.02.053.02s.033-.02.053-.02H90.71v6.857H86.94a1.619,1.619,0,0,0,0,3.238H90.71v5.541H86.94a1.619,1.619,0,0,0,0,3.238H90.71V59.5H86.94a1.609,1.609,0,1,0,0,3.218H90.71v5.541H86.94a1.619,1.619,0,0,0,0,3.238H90.71V98.585a1.618,1.618,0,0,0,1.619,1.619h8.022V107.4H80.86a1.619,1.619,0,0,0,0,3.238h5.646v19.242a1.618,1.618,0,0,0,1.619,1.619h6.37v7.377H80.6a1.619,1.619,0,0,0,0,3.238H96.114a1.618,1.618,0,0,0,1.619-1.619V129.876a1.618,1.618,0,0,0-1.619-1.619h-6.37l-.007-17.63h12.214a1.618,1.618,0,0,0,1.619-1.619V98.578a1.616,1.616,0,0,0-1.619-1.612Z" transform="translate(1206.756 504.999)"/>
    <path id="Path_2202" data-name="Path 2202" d="M82.151,64.171a7.661,7.661,0,0,1-1.211-1.316l-.237-.29C78.262,59.552,77.939,56,78.025,52.017h3.79A1.618,1.618,0,0,0,83.434,50.4V40.461a3.065,3.065,0,0,0-3.067-3.067h-.474L53.261,37.4a3.065,3.065,0,0,0-3.067,3.067V50.4a1.618,1.618,0,0,0,1.619,1.619h3.758c.171,6.133-1.514,10.279-5.409,13.306a13.229,13.229,0,0,0-5.3,9.062,83.653,83.653,0,0,0-.4,9.4v.691q-.049,8.667-.02,17.333v24.743c0,4.653,2.29,6.91,6.956,6.923H81.986c4.955,0,7.16-2.191,7.16-7.094v-8.1l-.007-26.855c0-1.178-.02-2.356-.033-3.521,0-.355-.02-.711,0-1.059-.033-2.2-.033-4.462.066-6.653.342-6.923-1.968-12.181-7.022-16.024Zm-17,42.32a1.619,1.619,0,0,1,3.238,0l.02,4.3h4.317a1.609,1.609,0,1,1,0,3.218l-4.31.02.02,4.31a1.605,1.605,0,0,1-1.6,1.619l-.033-.007a1.63,1.63,0,0,1-1.619-1.619v-4.3l-4.31.02a1.619,1.619,0,0,1,0-3.238l4.3-.02ZM85.941,80.044c-.033.757-.033,1.5-.053,2.257-8.252,2.928-13.379,1.816-18.769.625s-10.931-2.428-19.439.322a80.937,80.937,0,0,1,.369-8.489,10.23,10.23,0,0,1,4.093-6.87c5.962-4.633,6.824-10.97,6.686-15.853H74.78c-.1,4.482.322,8.792,3.4,12.582l.217.27a10.141,10.141,0,0,0,1.77,1.856c4.218,3.2,6.054,7.416,5.771,13.3Z" transform="translate(1193.001 527.178)"/>
    <path id="Path_2203" data-name="Path 2203" d="M50.025,64.734a7.764,7.764,0,0,1-1.2-1.3l-.237-.29c-2.441-3.014-2.777-6.567-2.7-10.549H49.7a1.618,1.618,0,0,0,1.619-1.619V41.024a3.078,3.078,0,0,0-3.067-3.067l-27.126.007a3.078,3.078,0,0,0-3.067,3.067v9.957a1.618,1.618,0,0,0,1.619,1.619h3.771c.158,6.113-1.527,10.273-5.4,13.286a13.339,13.339,0,0,0-5.324,9.062,88.934,88.934,0,0,0-.388,9.417l-.02.671c-.033,5.778-.02,11.556-.02,17.333v13.346c0,3.81,0,7.6.02,11.4,0,4.672,2.277,6.929,6.962,6.929H49.873c4.936,0,7.14-2.191,7.14-7.074l.02-34.99c0-1.178-.02-2.356-.033-3.54-.033-2.527-.066-5.14.053-7.7.329-6.923-1.961-12.161-7.028-16.017ZM33.04,107.068a1.605,1.605,0,0,1,1.6-1.619h.02a1.605,1.605,0,0,1,1.619,1.6v4.31l4.31-.02a1.619,1.619,0,1,1,0,3.238l-4.3.02.02,4.3a1.619,1.619,0,0,1-3.238.02l-.02-4.31-4.3.02h-.02A1.644,1.644,0,0,1,27.118,113a1.618,1.618,0,0,1,1.619-1.619l4.31-.02ZM53.829,80.6c-.033.757-.053,1.514-.053,2.277C45.5,85.793,40.4,84.68,35,83.483c-5.376-1.2-10.931-2.428-19.426.336a79.037,79.037,0,0,1,.375-8.489,10.173,10.173,0,0,1,4.08-6.87c5.982-4.633,6.824-10.983,6.686-15.853H42.663c-.086,4.482.336,8.779,3.422,12.582l.217.27a10.812,10.812,0,0,0,1.77,1.856c4.212,3.2,6.048,7.423,5.758,13.286Z" transform="translate(1171 527.563)"/>
  </g>
</svg>
