<svg xmlns="http://www.w3.org/2000/svg" width="21.909" height="22.485" viewBox="0 0 21.909 22.485">
  <g id="noun-communication-8054246" transform="translate(94.512 -11.273)">
    <path id="Path_29171" data-name="Path 29171" d="M12.319,2.273a8.84,8.84,0,0,1,8.3,5.81,8.875,8.875,0,0,1,3.444,3.177,8.83,8.83,0,0,1-11.4,12.588L8.8,24.533a.478.478,0,0,1-.162,0,.471.471,0,0,1-.383-.545l.65-3.667q-.189-.33-.352-.68c-.1-.225-.2-.455-.285-.689A8.831,8.831,0,0,1,12.319,2.274ZM8.071,13.857a.471.471,0,1,1,0-.942H15.2a.471.471,0,0,1,0,.942Zm0-2.282a.471.471,0,1,1,0-.942h8.5a.471.471,0,1,1,0,.942Zm0-2.282a.471.471,0,1,1,0-.942h4.248a.471.471,0,0,1,0,.942ZM17.9,5.526a7.892,7.892,0,1,0-1.981,12.6.466.466,0,0,1,.317-.056l3.351.593-.562-3.175a.473.473,0,0,1,.061-.324,7.8,7.8,0,0,0,.84-1.951A7.916,7.916,0,0,0,17.9,5.527Z" transform="translate(-98 9)"/>
  </g>
</svg>
