<svg xmlns="http://www.w3.org/2000/svg" width="26.581" height="22.965" viewBox="0 0 26.581 22.965">
  <g id="noun-verified-3843366" transform="translate(-10.589 -10.958)">
    <g id="Group_40262" data-name="Group 40262" transform="translate(10.589 10.958)">
      <path id="Path_29169" data-name="Path 29169" d="M9.965,30.07a.382.382,0,0,1-.477.253,4.036,4.036,0,0,1-2.166-1.48,3.936,3.936,0,0,1-.731-2.137.382.382,0,0,1,.361-.4.39.39,0,0,1,.4.361A3.141,3.141,0,0,0,7.94,28.4a3.293,3.293,0,0,0,1.773,1.2A.382.382,0,0,1,9.965,30.07ZM31.187,16.76a.382.382,0,1,0-.526.553,4.375,4.375,0,0,1,1.749,3.13,3.108,3.108,0,0,1-.382,1.494.382.382,0,1,0,.673.36,3.9,3.9,0,0,0,.469-1.856,5.141,5.141,0,0,0-1.986-3.681Zm-.3,3.681a3.076,3.076,0,0,1-1.275,2.023,3.373,3.373,0,0,0-.947,1.153,3.689,3.689,0,0,0,.076,1.557,3,3,0,0,1-.153,2.321,3.026,3.026,0,0,1-2.176.863,3.8,3.8,0,0,0-1.489.4,3.65,3.65,0,0,0-.824,1.282c-.366.771-.748,1.573-1.5,1.817a1.319,1.319,0,0,1-.45.069,4.079,4.079,0,0,1-1.779-.634,3.664,3.664,0,0,0-1.481-.573,3.65,3.65,0,0,0-1.489.573,2.968,2.968,0,0,1-2.221.565c-.756-.244-1.137-1.046-1.512-1.817a3.547,3.547,0,0,0-.824-1.282,3.641,3.641,0,0,0-1.489-.4,3.021,3.021,0,0,1-2.176-.863,3.038,3.038,0,0,1-.153-2.321A3.588,3.588,0,0,0,9.1,23.617a3.562,3.562,0,0,0-.947-1.153,3.076,3.076,0,0,1-1.275-2.023,3.076,3.076,0,0,1,1.275-2.023A3.562,3.562,0,0,0,9.1,17.265a3.588,3.588,0,0,0-.084-1.557,3.038,3.038,0,0,1,.153-2.321,3.021,3.021,0,0,1,2.176-.863,3.765,3.765,0,0,0,1.489-.4,3.547,3.547,0,0,0,.824-1.282c.374-.771.756-1.573,1.512-1.817a2.968,2.968,0,0,1,2.221.565,3.65,3.65,0,0,0,1.489.573,3.664,3.664,0,0,0,1.481-.573,2.994,2.994,0,0,1,2.229-.565c.756.244,1.137,1.046,1.5,1.817a3.65,3.65,0,0,0,.824,1.282,3.68,3.68,0,0,0,1.5.4,2.989,2.989,0,0,1,2.168.863,3.007,3.007,0,0,1,.153,2.321,3.693,3.693,0,0,0-.076,1.557,3.373,3.373,0,0,0,.947,1.153A3.076,3.076,0,0,1,30.884,20.441Zm-4.374,0a7.626,7.626,0,1,0-7.626,7.626,7.626,7.626,0,0,0,7.626-7.626Zm-4.351-3.359a1.145,1.145,0,0,0-1.6.237l-3,4.031-1-1.107a1.146,1.146,0,1,0-1.7,1.534l1.931,2.145a1.145,1.145,0,0,0,.855.382.153.153,0,0,0,.053-.008,1.137,1.137,0,0,0,.863-.458l3.84-5.153a1.153,1.153,0,0,0-.237-1.6ZM31.3,23.156a.382.382,0,1,0,.382.382A.382.382,0,0,0,31.3,23.156ZM7.543,25.007a.382.382,0,1,0-.382.382A.382.382,0,0,0,7.543,25.007Z" transform="translate(-6.59 -8.958)"/>
    </g>
  </g>
</svg>
