<svg xmlns="http://www.w3.org/2000/svg" width="22.043" height="22.059" viewBox="0 0 22.043 22.059">
  <g id="noun-automation-8063231" transform="translate(-1.834 -5.64)">
    <path id="Path_29176" data-name="Path 29176" d="M23.745,16.911h.418V15.8a.264.264,0,1,1,.528,0v1.107l.084,0a.735.735,0,0,1,.7.7l0,.084h1.107a.264.264,0,0,1,0,.528H25.475v.419h1.109a.264.264,0,0,1,0,.528H25.475v.419h1.109a.264.264,0,0,1,0,.528H25.475v.419h1.109a.264.264,0,0,1,0,.528H25.475v.419h1.109a.264.264,0,0,1,0,.528H25.477l0,.084a.735.735,0,0,1-.7.7l-.084,0V23.9a.264.264,0,1,1-.528,0V22.794h-.418V23.9a.264.264,0,1,1-.528,0V22.794H22.8V23.9a.264.264,0,1,1-.528,0V22.794h-.419V23.9a.264.264,0,1,1-.528,0V22.794h-.418V23.9a.264.264,0,1,1-.528,0V22.8l-.084,0a.735.735,0,0,1-.7-.7l0-.084H18.484a.264.264,0,1,1,0-.528h1.109v-.419H18.484a.264.264,0,1,1,0-.528h1.109v-.419H18.484a.264.264,0,0,1,0-.528h1.109V19.17H18.484a.264.264,0,1,1,0-.528h1.109v-.419H18.484a.264.264,0,1,1,0-.528h1.107l0-.084a.735.735,0,0,1,.7-.7l.084,0V15.8a.264.264,0,1,1,.528,0v1.109h.418V15.8a.264.264,0,1,1,.528,0v1.109h.419V15.8a.264.264,0,1,1,.528,0v1.109h.419V15.8a.264.264,0,1,1,.528,0Zm3.966,9.447A1.343,1.343,0,0,1,26.37,27.7H7.009a1.341,1.341,0,0,1-.346-2.637l.065-.017V23.772A1.023,1.023,0,0,1,7.75,22.751h.422l-.027-.109a2.331,2.331,0,0,1,1.9-2.865l.031,0L12.33,17.2l-.007-.042a2.315,2.315,0,0,1-.035-.4,2.348,2.348,0,0,1,.1-.666l.011-.037-1.985-3.382h-.05a2.332,2.332,0,0,1,.047-4.664A2.316,2.316,0,0,1,11.7,8.4l.037.025,5.175-1.917.016-.033a1.426,1.426,0,0,1,2.669.2L19.6,6.7l2.322,1.719.047-.02a1.408,1.408,0,0,1,.564-.117,1.426,1.426,0,0,1,1.008,2.435l-.026.026v1.439l.029.026a1.522,1.522,0,1,1-2.024,0l.029-.026v-1.44l-.026-.026a1.422,1.422,0,0,1-.385-.7l-.008-.037L18.562,8.452l-.034.008a1.446,1.446,0,0,1-.309.034,1.4,1.4,0,0,1-.535-.1l-.035-.015-4.927,2.264-.007.048a2.274,2.274,0,0,1-.167.585l-.019.044,2.064,3.116h.047a2.332,2.332,0,0,1,.176,4.656l-.039,0L12.725,21.82l0,.034a2.245,2.245,0,0,1,.011.226,2.332,2.332,0,0,1-.069.561l-.027.109h.422a1.023,1.023,0,0,1,1.022,1.022v1.245H26.367a1.343,1.343,0,0,1,1.341,1.341ZM22.535,12.352a.993.993,0,1,0,.993.994A.995.995,0,0,0,22.535,12.352Zm-.9-2.642a.9.9,0,1,0,.9-.9A.9.9,0,0,0,21.636,9.711ZM17.324,7.066a.9.9,0,1,0,.9-.9A.9.9,0,0,0,17.324,7.066Zm-4.507,9.7a1.8,1.8,0,1,0,1.8-1.8A1.806,1.806,0,0,0,12.817,16.761Zm-.6-6.417a1.8,1.8,0,1,0-1.8,1.8A1.806,1.806,0,0,0,12.215,10.344ZM8.606,22.079a1.8,1.8,0,1,0,1.8-1.8A1.806,1.806,0,0,0,8.606,22.079Zm18.577,4.279a.814.814,0,0,0-.813-.813H7.009a.813.813,0,1,0,0,1.626h19.36a.814.814,0,0,0,.813-.813Z" transform="translate(-3.834)"/>
  </g>
</svg>
