<svg xmlns="http://www.w3.org/2000/svg" width="21.848" height="21.619" viewBox="0 0 21.848 21.619">
  <g id="noun-route-location-track-2796690" transform="translate(111 -44.716)">
    <g id="Group_40270" data-name="Group 40270" transform="translate(-113 42.381)">
      <g id="Group_40268" data-name="Group 40268" transform="translate(3.022 2.335)">
        <path id="Path_29172" data-name="Path 29172" d="M29.165,2.335A2.012,2.012,0,0,0,27.38,5.274l1.482,2.857a.343.343,0,0,0,.608,0l1.482-2.857A2.012,2.012,0,0,0,29.165,2.335Zm0,2.506a.533.533,0,1,1,.533-.533A.533.533,0,0,1,29.165,4.841Z" transform="translate(-19.587 -2.335)"/>
        <path id="Path_29173" data-name="Path 29173" d="M7.487,22.195a2.492,2.492,0,0,0-2.212,3.639l1.908,3.677a.34.34,0,0,0,.6,0L9.7,25.834A2.493,2.493,0,0,0,7.487,22.195Zm0,3.451a1.01,1.01,0,1,1,1.007-1.014A1.011,1.011,0,0,1,7.487,25.646Z" transform="translate(-4.992 -15.415)"/>
        <path id="Path_29174" data-name="Path 29174" d="M46.5,29.085a3.194,3.194,0,0,0-2.833,4.667l2.53,4.882a.343.343,0,0,0,.608,0l2.533-4.882A3.2,3.2,0,0,0,46.5,29.085Zm0,4.568a1.439,1.439,0,1,1,1.437-1.441A1.441,1.441,0,0,1,46.5,33.653Z" transform="translate(-30.224 -19.953)"/>
      </g>
      <g id="Group_40269" data-name="Group 40269" transform="translate(2 7.646)">
        <path id="Path_29175" data-name="Path 29175" d="M21.167,29.726l-.96,1.85a1.025,1.025,0,0,1-1.821,0l-.958-1.849c-1.647.366-2.685,1.176-2.685,2.137a.624.624,0,0,0,.007.113L6.987,29.111c1.226-.28,2.041-.911,2.041-1.683a1.385,1.385,0,0,0-.666-1.106l4.776-5.609c1.321-.126,2.267-.724,2.267-1.485,0-.589-.568-1.084-1.481-1.335l-.415.8a1.025,1.025,0,0,1-1.821,0l-.414-.8c-.913.251-1.481.747-1.481,1.335,0,.792,1.021,1.406,2.434,1.5L7.749,25.987a4.56,4.56,0,0,0-.689-.224l-.637,1.228a1.023,1.023,0,0,1-1.818,0l-.637-1.227C2.757,26.06,2,26.686,2,27.428c0,1.038,1.478,1.826,3.448,1.84l9.719,3.591A5.753,5.753,0,0,0,19.3,34.2c2.553,0,4.55-1.028,4.55-2.338C23.848,30.9,22.811,30.092,21.167,29.726Z" transform="translate(-2 -17.893)"/>
      </g>
    </g>
  </g>
</svg>
