<svg xmlns="http://www.w3.org/2000/svg" width="13.085" height="24" viewBox="0 0 13.085 24">
  <g id="noun-billboard-7782011" transform="translate(-48.913 -16.375)">
    <path id="Path_29170" data-name="Path 29170" d="M42.569,30.907V13.923a.281.281,0,0,0-.282-.282H38.816a.281.281,0,0,1-.282-.282v-.7a.281.281,0,0,0-.282-.282H33.8a.281.281,0,0,0-.282.282v.7a.281.281,0,0,1-.282.282H29.766a.281.281,0,0,0-.282.282V30.905a.281.281,0,0,0,.282.282H33.05a.281.281,0,0,1,.282.282v3.073a.281.281,0,0,1-.282.282h-2.1a.281.281,0,0,0-.282.282v.988a.281.281,0,0,0,.282.282H41.365a.281.281,0,0,0,.282-.282V35.1a.281.281,0,0,0-.282-.282H39.258a.281.281,0,0,1-.282-.282V31.468a.281.281,0,0,1,.282-.282h3.029a.281.281,0,0,0,.282-.282ZM31.544,29.032V15.8h8.969V29.03H31.544Z" transform="translate(19.429 4)"/>
  </g>
</svg>
