<svg xmlns="http://www.w3.org/2000/svg" width="109.885" height="87.998" viewBox="0 0 109.885 87.998">
  <g id="Group_40498" data-name="Group 40498" transform="translate(-1474.5 -680.244)">
    <g id="noun-chart-6403987" transform="translate(1468.681 662.529)">
      <g id="Group_40497" data-name="Group 40497" transform="translate(10.799 47.684)">
        <path id="Path_3167" data-name="Path 3167" d="M45.284,24.959a3.022,3.022,0,0,1-2.225-.849l-4.3,5.388A4.4,4.4,0,0,1,36.5,35.94V71.37h8.784Z" transform="translate(50.114 -17.521)"/>
        <path id="Path_3168" data-name="Path 3168" d="M41.284,28.266c-.146-.059-.293-.117-.41-.176l-5.5,5.5A4.411,4.411,0,0,1,32.5,37.05V63.667h8.784Z" transform="translate(42.401 -9.847)"/>
        <path id="Path_3169" data-name="Path 3169" d="M37.284,31.459a3.7,3.7,0,0,1-.966-.468l-5.095,3.836a4.739,4.739,0,0,1,.2,1.288A4.407,4.407,0,0,1,28.5,40.243V58.075h8.784Z" transform="translate(34.689 -4.256)"/>
        <path id="Path_3170" data-name="Path 3170" d="M33.284,40.243a4.369,4.369,0,0,1-2.723-5.417L25.466,30.99a3.7,3.7,0,0,1-.966.468V58.075h8.784Z" transform="translate(26.976 -4.256)"/>
        <path id="Path_3171" data-name="Path 3171" d="M29.284,38.978a4.4,4.4,0,0,1-2.489-6L20.91,27.09c-.146.059-.264.117-.41.176V65.595h8.784Z" transform="translate(19.264 -11.776)"/>
        <path id="Path_3172" data-name="Path 3172" d="M25.284,28.9A4.37,4.37,0,0,1,22.62,26.24H19.165A4.37,4.37,0,0,1,16.5,28.9V67.234h8.784Z" transform="translate(11.551 -13.414)"/>
        <path id="Path_3173" data-name="Path 3173" d="M21.284,27.555a4.309,4.309,0,0,1-1.142-.615l-4.8,3.192a4.425,4.425,0,0,1-2.84,3.279V65.884h8.784V27.555Z" transform="translate(3.839 -12.065)"/>
        <path id="Path_3174" data-name="Path 3174" d="M17.284,29.24,11.37,37.117A4.3,4.3,0,0,1,8.5,40.66V61.42h8.784Z" transform="translate(-3.874 -7.63)"/>
        <path id="Path_3175" data-name="Path 3175" d="M10.082,37.16c4.216.059,4.216-6.588,0-6.53C5.866,30.572,5.866,37.219,10.082,37.16Z" transform="translate(-6.92 -4.95)"/>
        <path id="Path_3176" data-name="Path 3176" d="M14.082,26.63c-4.216-.059-4.216,6.588,0,6.53C18.3,33.219,18.3,26.572,14.082,26.63Z" transform="translate(0.792 -12.663)"/>
        <path id="Path_3177" data-name="Path 3177" d="M18.212,24.63c-4.216-.059-4.216,6.588,0,6.53C22.429,31.219,22.429,24.572,18.212,24.63Z" transform="translate(8.756 -16.519)"/>
        <path id="Path_3178" data-name="Path 3178" d="M22.082,24.63c-4.216-.059-4.216,6.588,0,6.53C26.3,31.219,26.3,24.572,22.082,24.63Z" transform="translate(16.217 -16.519)"/>
        <path id="Path_3179" data-name="Path 3179" d="M26.082,28.63c-4.216-.059-4.216,6.588,0,6.53C30.3,35.219,30.3,28.572,26.082,28.63Z" transform="translate(23.93 -8.807)"/>
        <path id="Path_3180" data-name="Path 3180" d="M30.082,31.44c-4.216-.059-4.216,6.588,0,6.53C34.3,38.029,34.3,31.382,30.082,31.44Z" transform="translate(31.642 -3.389)"/>
        <path id="Path_3181" data-name="Path 3181" d="M34.192,28.63c-4.216-.059-4.216,6.588,0,6.53C38.409,35.219,38.409,28.572,34.192,28.63Z" transform="translate(39.567 -8.807)"/>
        <path id="Path_3182" data-name="Path 3182" d="M38.2,25.63c-4.216-.059-4.216,6.588,0,6.53C42.419,32.219,42.419,25.572,38.2,25.63Z" transform="translate(47.298 -14.591)"/>
        <path id="Path_3183" data-name="Path 3183" d="M41.692,21.86c-4.216-.059-4.216,6.588,0,6.53C45.938,28.419,45.938,21.8,41.692,21.86Z" transform="translate(54.028 -21.86)"/>
      </g>
    </g>
    <path id="Path_3184" data-name="Path 3184" d="M111.838,88.928h-3.272l2.718,2.492H10.793V12.044l2.716,2.494v-3L9.657,8,5.8,11.535v3l2.716-2.494V93.506H111.284L108.566,96h3.272l3.852-3.535Z" transform="translate(1468.695 672.244)"/>
  </g>
</svg>
