<svg xmlns="http://www.w3.org/2000/svg" width="61.068" height="87.998" viewBox="0 0 61.068 87.998">
  <g id="noun-lifestyle-7129694" transform="translate(-19.471 -5.998)">
    <path id="Path_2205" data-name="Path 2205" d="M45.559,29.375c.59-.551,3.23-2.676,3.863-2.52a21.354,21.354,0,0,1,.277-2.719c-.473-.117-.867-.277-.906-.551-.117-.707-.156-3.742.473-4.566a19.225,19.225,0,0,1-4.926-8.781c-1.578-7.519,8.59-3.231,10.719-.828C63.77,2.836,70.625,13.82,64.243,20c1.93,2.953,3.547,8.426.789,8.621,6.188,9.527,10.051,20.75,10.719,30.988,1.656,1.652,3.152,2.953,3.547,5.512,3.941,24.727-1.617,21.812-15.133,23.43l-7.8.75-.512-1.023c-1.262.629-11.43.316-12.926,0-.672,1.18-.434.984-3.074.59-3.27,8.977-13.125,4.684-8.117-1.574L22.274,86.9c-2.168-.117-2.879-.906-2.8-3.07.629-23.43,9.418-41.777,26.09-54.453ZM32.711,86.152c-.078.512-.867.355-.75-.117,0-.078,4.492-26.539,4.336-29.176a.4.4,0,0,1,.789-.078c.156,2.758-4.336,29.293-4.375,29.375Zm10.758.629a.388.388,0,1,1-.75-.2c.039-.078,8.75-32.918,6.266-44.18a.383.383,0,1,1,.75-.156C52.3,53.706,43.508,86.7,43.469,86.78ZM61.281,22.168c-.078,0-.156-.039-.234-.039-3.664-1.852-7.293-4.254-9.023-9.254-.117-.277.789-1.535,2.207-2.8A10.876,10.876,0,0,0,48,7.008c-2.562-.395-3.191.906-2.719,3.031,2.324,10.906,18.367,18.113,19.746,17.6,1.5-.59-.277-4.961-1.535-6.969a8.766,8.766,0,0,1-2.211,1.5Zm3.035,27.445-1.023.512q-.176,5.613,0,11.34c.945.707,2.445,2.637,5.793,1.813,3.664-.945,3.824-3.781,4.414-4.566-1.852-2.086-3.7-5.078-4.414-10.59-1.812.59-3.391,1.063-4.77,1.5Zm-16.984-20.4c9.223.551,16.551,12.129,16.316,19.648l2.641-1.3A21.217,21.217,0,0,0,49.262,27.76c-.828.668-1.457,1.141-1.93,1.457ZM32.75,87.57c-4.73,5.355,3.391,8.465,6.109,1.141C36.809,88.355,34.762,87.961,32.75,87.57Zm24.4-15.16c.277-3.387-.039-2.875,3.742-3.387,1.023-.156,1.813,5.711,2.012,7.4a4.048,4.048,0,0,1,.551-.156,181.21,181.21,0,0,1-1.145-25.988C58.4,51.66,56.669,53.2,56.512,58.2c-.156,6.262-.2,12.441-.078,18.742a5.4,5.4,0,0,0,.789.078,19.68,19.68,0,0,1-.078-4.605Zm.984-.668a13.711,13.711,0,0,0,2.879-.277c-.156-.473-.277-.945-.434-1.418l-2.285.316Zm.395,6.3a13.607,13.607,0,0,1-2.09-.117q.117,5.139.355,10.4l8.277-.867c-.59-3.387-1.1-6.773-1.5-10.16a18.329,18.329,0,0,1-5.043.75ZM75.274,60.68c-.512,0-.078-.234-.984-1.141a7.055,7.055,0,0,1-10.918,3.387,186.524,186.524,0,0,0,2.641,24.453c8.355-.867,12.691-.039,13.4-7.8.434-4.8-.316-9.648-1.062-14.332-.316-1.969-1.5-3.187-2.918-4.605a.144.144,0,0,1-.117.039h-.039ZM50.645,24.258c-.078.707-.117,1.418-.2,2.164.984-.2,3.785-1.262,3.742-2.441Zm-.629-4.449a8.751,8.751,0,0,0-.316,3.309,7.694,7.694,0,0,0,4.02-.078,31.56,31.56,0,0,1-3.7-3.23Zm5.32-9.371-1.262,1.219c.945,1.3,2.363,5.238,8.434,8.543a7.845,7.845,0,0,0,2.641-2.914c2.879-6.5-3.9-12.008-9.812-6.852Z" fill-rule="evenodd"/>
  </g>
</svg>
