<svg xmlns="http://www.w3.org/2000/svg" width="84.918" height="69.371" viewBox="0 0 84.918 69.371">
  <g id="Group_13" data-name="Group 13" transform="translate(0 -20.931)">
    <path id="Path_136" data-name="Path 136" d="M109.343,59.522c1.468-1.264,6.373-2.861,8.407-2.895a8.213,8.213,0,0,1,8.511,8.252c0,8.284-8.742,16.436-10.978,24.421l-1.334.5" transform="translate(-71.703 -25.317)" fill="#1b1b1b"/>
    <path id="Path_137" data-name="Path 137" d="M106.51,92.525C103.407,84.241,98,78.085,98,69.5a8.779,8.779,0,0,1,8.509-8.717,8.212,8.212,0,0,1,8.509,8.251C115.019,77.32,108.779,84.573,106.51,92.525Z" transform="translate(-64.265 -28.043)" fill="#fff"/>
    <path id="Path_138" data-name="Path 138" d="M106,91.961c.033,0,.133-.2.267-.632a6.242,6.242,0,0,1,.3-.8c.134-.3.267-.665.434-1.065.667-1.63,1.735-3.892,3.2-6.721.7-1.4,1.5-2.961,2.269-4.691a32.913,32.913,0,0,0,1.936-5.723,6.793,6.793,0,0,0,.167-.8c.034-.266.067-.532.1-.832a6.305,6.305,0,0,0,.1-.832c0-.266.034-.566.034-.832a8.548,8.548,0,0,0-.5-3.493,8.292,8.292,0,0,0-1.969-3.094,8.485,8.485,0,0,0-3.2-2.029,8.805,8.805,0,0,0-3.037-.5,9.654,9.654,0,0,0-3.037.6,9.062,9.062,0,0,0-5.206,5.123,8.948,8.948,0,0,0-.634,3.46c.034.566.034,1.131.1,1.663s.1,1.1.2,1.63a26.161,26.161,0,0,0,1.735,5.789c.734,1.73,1.5,3.294,2.235,4.725,1.468,2.795,2.636,5.057,3.37,6.654.2.4.334.732.5,1.065.134.3.234.566.334.764a4.394,4.394,0,0,0,.3.566c.033,0-.034-.233-.2-.665a6.224,6.224,0,0,0-.3-.8c-.134-.3-.267-.665-.434-1.065-.667-1.63-1.8-3.926-3.2-6.754-.7-1.431-1.469-2.961-2.169-4.691A26.317,26.317,0,0,1,98.057,72.3c-.1-.5-.133-1.031-.2-1.564-.034-.532-.034-1.065-.067-1.63a8.93,8.93,0,0,1,.6-3.227,8.559,8.559,0,0,1,4.872-4.758,8.207,8.207,0,0,1,2.8-.532,8.079,8.079,0,0,1,5.806,2.329,8.237,8.237,0,0,1,1.835,2.861,7.835,7.835,0,0,1,.467,3.261c0,.266-.034.532-.034.832a6.519,6.519,0,0,1-.1.8l-.1.8a5.151,5.151,0,0,1-.167.764,30.376,30.376,0,0,1-1.835,5.656c-.734,1.73-1.5,3.261-2.2,4.691A70.705,70.705,0,0,0,106.7,89.4l-.367,1.1c-.1.333-.167.6-.234.832C106.031,91.728,106,91.961,106,91.961Z" transform="translate(-63.754 -27.479)" fill="#1b1b1b"/>
    <path id="Path_139" data-name="Path 139" d="M112.8,78.072a4.438,4.438,0,0,0-1.134,2.895,3.681,3.681,0,0,0,3.837,3.694,3.96,3.96,0,0,0,0-7.917,3.063,3.063,0,0,0-1.435.366" transform="translate(-73.229 -38.51)" fill="#fff"/>
    <path id="Path_140" data-name="Path 140" d="M113.518,76.862c.034.067.3-.067.8-.133a3.4,3.4,0,0,1,2.035.3,3.745,3.745,0,0,1,1.935,2.329,3.384,3.384,0,0,1,.1,1.83,3.616,3.616,0,0,1-.9,1.73,4.6,4.6,0,0,1-.6.532,5.16,5.16,0,0,1-.734.4,3.534,3.534,0,0,1-1.935.2,3.723,3.723,0,0,1-1.635-.764,3.429,3.429,0,0,1-.968-1.331,3.571,3.571,0,0,1-.267-1.4,4.249,4.249,0,0,1,.534-2.029c.234-.433.4-.665.367-.732-.034-.033-.267.133-.6.566a4.275,4.275,0,0,0-.768,2.163,4.107,4.107,0,0,0,.234,1.63,3.929,3.929,0,0,0,2.97,2.5,4.259,4.259,0,0,0,2.3-.233,2.96,2.96,0,0,0,.834-.467,6.665,6.665,0,0,0,.734-.632,4.328,4.328,0,0,0,1.034-2.063,4.015,4.015,0,0,0-.167-2.1,4.139,4.139,0,0,0-2.3-2.562,3.315,3.315,0,0,0-2.3-.133C113.751,76.629,113.518,76.8,113.518,76.862Z" transform="translate(-72.707 -38.231)" fill="#1b1b1b"/>
    <path id="Path_141" data-name="Path 141" d="M117.584,86.279a3.5,3.5,0,1,0-4.611-2.054,3.56,3.56,0,0,0,4.611,2.054Z" transform="translate(-73.949 -40.335)" fill="#006dd6"/>
    <path id="Path_142" data-name="Path 142" d="M121.6,84.96c-.367-.233-.934.4-1.6,1.231l-.1.133-.1.133c-.634.832-1.134,1.5-.834,1.83.267.3,1.068-.133,1.835-1.031l.1-.133.1-.166C121.665,86.025,121.932,85.126,121.6,84.96Z" transform="translate(-77.952 -43.867)" fill="#1b1b1b"/>
    <path id="Path_143" data-name="Path 143" d="M121.108,88.375c.267-.333-.267-1-1.1-1.7-.034-.033-.1-.067-.134-.1a.461.461,0,0,0-.134-.1c-.867-.665-1.635-1.031-1.9-.7-.267.3.267,1,1.1,1.7.034.033.1.067.133.1a.461.461,0,0,0,.134.1C120.074,88.308,120.874,88.674,121.108,88.375Z" transform="translate(-77.228 -44.354)" fill="#1b1b1b"/>
    <path id="Path_144" data-name="Path 144" d="M212.646,115.991a.382.382,0,0,0,.334.034,1.076,1.076,0,0,1,.467-.034.345.345,0,0,1,.267.2v.166a2.479,2.479,0,0,1-.133.366c-.034.066-.067.1-.1.166s-.067.1-.1.166l-.034.067-.034.033-.034-.033c-.034-.067-.1-.1-.133-.166-.067-.1-.134-.166-.167-.233a.637.637,0,0,1-.134-.4c-.1-.133-.134-.266-.2-.333s-.2-.066-.367.067a.909.909,0,0,0-.267.832,1.359,1.359,0,0,0,.166.6.994.994,0,0,1,.134.266l.034.066.067.1a.883.883,0,0,0,.167.2,1,1,0,0,0,.934.366,1.135,1.135,0,0,0,.5-.233c.067-.067.167-.133.234-.2l.1-.1.067-.066a1.861,1.861,0,0,0,.2-.267c.067-.1.1-.2.166-.3a2.378,2.378,0,0,0,.234-.832,1.557,1.557,0,0,0-.234-.932,1.283,1.283,0,0,0-1.4-.5,1.142,1.142,0,0,0-.667.532C212.546,115.792,212.546,115.924,212.646,115.991Z" transform="translate(-145.198 -68.525)" fill="#1b1b1b"/>
    <path id="Path_145" data-name="Path 145" d="M39.647,61.989a.382.382,0,0,0,.334.033,1.074,1.074,0,0,1,.467-.033.346.346,0,0,1,.267.2v.166a2.519,2.519,0,0,1-.133.366c-.034.067-.067.1-.1.166s-.067.1-.1.166l-.034.067-.034.033-.034-.033c-.034-.067-.1-.1-.133-.166-.067-.1-.133-.166-.167-.233a.637.637,0,0,1-.133-.4c-.1-.133-.1-.266-.2-.333-.067-.067-.2-.067-.367.067a.909.909,0,0,0-.267.832,1.353,1.353,0,0,0,.167.6.994.994,0,0,1,.133.266l.034.067.067.1a.882.882,0,0,0,.167.2,1,1,0,0,0,.934.366,1.136,1.136,0,0,0,.5-.233c.067-.067.167-.133.234-.2l.1-.1.067-.067a1.85,1.85,0,0,0,.2-.266c.067-.1.1-.2.167-.3a2.381,2.381,0,0,0,.234-.832,1.558,1.558,0,0,0-.234-.932,1.282,1.282,0,0,0-1.4-.5,1.142,1.142,0,0,0-.667.532C39.547,61.79,39.58,61.923,39.647,61.989Z" transform="translate(-25.572 -28.192)" fill="#006dd6"/>
    <path id="Path_146" data-name="Path 146" d="M194.762,86.272a.382.382,0,0,0,.334.033,1.073,1.073,0,0,1,.467-.033.346.346,0,0,1,.267.2v.166A2.522,2.522,0,0,1,195.7,87c-.034.067-.066.1-.1.166s-.067.1-.1.166l-.034.067-.034.033-.034-.033c-.034-.067-.1-.1-.134-.166-.067-.1-.133-.166-.166-.233a.637.637,0,0,1-.134-.4c-.1-.133-.1-.266-.2-.333-.067-.067-.2-.067-.367.067a.909.909,0,0,0-.267.832,1.352,1.352,0,0,0,.167.6,1,1,0,0,1,.134.266l.034.067.067.1a.881.881,0,0,0,.166.2,1,1,0,0,0,.934.366,1.137,1.137,0,0,0,.5-.233c.066-.067.166-.133.234-.2l.1-.1.067-.067a1.817,1.817,0,0,0,.2-.266c.067-.1.1-.2.167-.3a2.38,2.38,0,0,0,.234-.832,1.557,1.557,0,0,0-.234-.932,1.282,1.282,0,0,0-1.4-.5,1.142,1.142,0,0,0-.667.532C194.662,86.075,194.7,86.208,194.762,86.272Z" transform="translate(-128.365 -59.358)" fill="#a8a8a8"/>
    <path id="Path_147" data-name="Path 147" d="M231.576,65.435c-.3-.3-.968.1-1.7.8l-.1.1-.1.1c-.667.732-1.1,1.364-.8,1.7.267.266.968-.1,1.7-.8l.1-.1.1-.1C231.475,66.4,231.876,65.7,231.576,65.435Z" transform="translate(-150.023 -31.03)" fill="#006dd6"/>
    <path id="Path_148" data-name="Path 148" d="M120,114.86c-.4-.166-.634-.066-.8.2v.033a.033.033,0,0,1-.034.034c-.1.266,0,.532.4.7a.6.6,0,0,0,.8-.2v-.034a.033.033,0,0,1,.033-.034A.581.581,0,0,0,120,114.86Z" transform="translate(-78.118 -63.453)" fill="#a8a8a8"/>
    <path id="Path_149" data-name="Path 149" d="M58.467,105.173c-.3.3-.3.566-.133.764l.034.033L58.4,106c.2.166.467.166.768-.133.267-.266.3-.566.133-.764l-.034-.033-.034-.034C59.035,104.874,58.768,104.874,58.467,105.173Z" transform="translate(-38.18 -56.994)" fill="#a8a8a8"/>
    <path id="Path_151" data-name="Path 151" d="M134.134,27.8c-.3-.3-.7-.166-1.034.133-.034,0-.034.033-.034.067-.034,0-.034.033-.067.033-.3.333-.434.732-.133,1.031.267.266.667.166,1.034-.133a.116.116,0,0,0,.033-.067c.034,0,.034-.033.067-.033C134.3,28.47,134.434,28.07,134.134,27.8Z" transform="translate(-87.018 -6.308)" fill="#a8a8a8"/>
    <path id="Path_152" data-name="Path 152" d="M250.072,110.611a.662.662,0,0,0-.968.067l-.034.033-.034.034a.657.657,0,0,0-.066.965.691.691,0,0,0,.968-.066l.034-.034.034-.034C250.273,111.244,250.34,110.878,250.072,110.611Z" transform="translate(-165.325 -55.24)" fill="#a8a8a8"/>
    <path id="Path_153" data-name="Path 153" d="M174.52,26.882c-.3-.3-.467-.4-.534-.4-.034.067.067.2.4.532a1.407,1.407,0,0,0,.534.4C174.922,27.348,174.82,27.181,174.52,26.882Z" transform="translate(-114.09 -5.552)" fill="#a8a8a8"/>
    <path id="Path_155" data-name="Path 155" d="M36.872,130.554a5.805,5.805,0,0,0-1.6.233c-.534.1-1.168.233-1.935.4-.734.166-1.6.333-2.57.532-1.068-.332-2.236-.7-3.57-1.1-1.4-.432-2.97-.9-4.638-1.4-2.8,2.76-6.107,6.055-9.844,9.715C8.876,142.731,4.6,146.956,0,151.546c3.837,2,7.841,4.059,12.013,6.221,6.071-1.331,12.513-2.728,19.22-4.192,1.134.665,2.335,1.364,3.537,2.063,2.035,1.164,4,2.329,6.006,3.46l2.736,1.6,4.071-1.63c3.57-1.431,7.041-2.828,10.444-4.161q9.56,3.394,18.186,6.453c-1.835-10.514-3.437-19.9-4.8-27.748-4.2-1.264-7.942-2.362-11.179-3.327-2.235.532-4.238,1-5.973,1.4-.834.2-1.635.4-2.335.566s-1.3.332-1.868.467c-.5-.166-.968-.3-1.368-.4a10.332,10.332,0,0,1-1.034-.3,3.239,3.239,0,0,0-.867-.166,2.858,2.858,0,0,0,.8.366q.4.15,1,.4c.4.166.9.333,1.435.532,1.168-.233,2.636-.532,4.373-.865,1.669-.333,3.637-.764,5.806-1.2,3,.932,6.44,2.029,10.344,3.261,1.168,7.153,2.57,15.671,4.138,25.22-5.272-1.9-10.878-3.892-16.718-5.989-3.537,1.4-7.175,2.861-10.912,4.325l-3.47,1.4-2.2-1.264c-2-1.165-3.971-2.3-6.006-3.494-1.335-.764-2.669-1.564-3.971-2.3-6.708,1.5-13.18,2.93-19.253,4.259-3.574-1.826-7.013-3.589-10.282-5.252,4.171-4.225,8.042-8.118,11.479-11.645,3.537-3.627,6.708-6.821,9.377-9.549,3.17.865,5.84,1.6,7.975,2.2,1-.266,1.9-.5,2.669-.7.734-.2,1.4-.366,1.9-.532a9.5,9.5,0,0,0,1.6-.466Z" transform="translate(0 -72.926)" fill="#1b1b1b"/>
    <path id="Path_156" data-name="Path 156" d="M35.147,162.444c.367.266,4.238-4.691,9.11-11.213.234-.332.5-.665.734-.965.234-.332.467-.632.734-.965,4.84-6.588,8.442-11.711,8.075-11.978-.334-.233-4.238,4.691-9.11,11.213-.234.332-.5.665-.734.965-.234.333-.467.632-.734.965C38.384,157.055,34.813,162.211,35.147,162.444Z" transform="translate(-23.034 -78.233)" fill="#1b1b1b"/>
    <path id="Path_157" data-name="Path 157" d="M90.9,161.211c.4.166,2.069-3.659,4.038-8.684.1-.266.2-.5.3-.764.1-.233.2-.5.3-.764,1.935-5.057,3.269-8.983,2.836-9.116-.367-.133-2.069,3.66-4.038,8.684-.1.266-.2.5-.3.764-.1.233-.2.5-.3.764C91.838,157.152,90.537,161.079,90.9,161.211Z" transform="translate(-59.571 -81.224)" fill="#1b1b1b"/>
    <path id="Path_158" data-name="Path 158" d="M126.366,167.19c.434.1,1.9-5.29,3.6-12.31.1-.366.167-.7.267-1.065.1-.333.167-.7.267-1.065,1.669-7.053,2.8-12.51,2.369-12.61-.4-.1-1.9,5.29-3.6,12.31-.1.366-.166.7-.267,1.065-.1.332-.167.7-.267,1.065C127.1,161.6,126,167.09,126.366,167.19Z" transform="translate(-82.82 -80.084)" fill="#1b1b1b"/>
    <path id="Path_159" data-name="Path 159" d="M13.273,199.2l-1.4,1.6a3.216,3.216,0,0,0,2.3,5.323l65.97,2.3a3.208,3.208,0,0,0,2.069-5.756l.5,3.028-17.45-6.222-14.449,5.755L38.6,198.135l-19.22,4.225Z" transform="translate(-7.267 -118.115)" fill="#1b1b1b"/>
    <path id="Path_160" data-name="Path 160" d="M5.692,191.077c-.267-.332-.534-.366-.7-.233l-.034.033-.034.034c-.167.166-.167.433.133.732.267.3.534.333.7.233l.034-.034.034-.033C5.958,191.642,5.958,191.378,5.692,191.077Z" transform="translate(-3.156 -113.287)" fill="#1b1b1b"/>
    <path id="Path_161" data-name="Path 161" d="M12.521,185.568c-.2-.4-.6-.366-1-.133l-.067.033-.067.034c-.367.266-.567.6-.334.932a.725.725,0,0,0,1,.133l.067-.034.067-.034C12.521,186.267,12.722,185.934,12.521,185.568Z" transform="translate(-7.183 -109.674)" fill="#1b1b1b"/>
    <path id="Path_162" data-name="Path 162" d="M21.311,181.484c-.133-.4-.534-.432-.968-.3l-.067.033-.067.034c-.4.2-.667.5-.467.9a.727.727,0,0,0,.968.3l.067-.033.067-.034A.752.752,0,0,0,21.311,181.484Z" transform="translate(-12.902 -106.954)" fill="#1b1b1b"/>
    <path id="Path_163" data-name="Path 163" d="M30.651,178.45c-.1-.433-.467-.5-.934-.4l-.067.034h-.066c-.434.133-.7.4-.567.832a.73.73,0,0,0,.934.4l.067-.034h.067C30.485,179.148,30.751,178.849,30.651,178.45Z" transform="translate(-19.006 -104.918)" fill="#1b1b1b"/>
    <path id="Path_164" data-name="Path 164" d="M40.227,176.392c-.067-.433-.434-.532-.867-.5h-.133c-.434.1-.734.333-.667.764.067.4.434.532.867.5h.133C40,177.058,40.3,176.792,40.227,176.392Z" transform="translate(-25.28 -103.526)" fill="#1b1b1b"/>
    <path id="Path_165" data-name="Path 165" d="M50.027,175.118c-.034-.432-.4-.566-.834-.566H49.06c-.434.066-.768.266-.7.7.034.4.4.566.834.566h.133C49.725,175.75,50.059,175.517,50.027,175.118Z" transform="translate(-31.706 -102.651)" fill="#1b1b1b"/>
    <path id="Path_166" data-name="Path 166" d="M59.766,174.6c0-.432-.334-.6-.8-.632h-.133c-.434.034-.768.233-.768.665.034.4.367.6.8.632H59C59.432,175.2,59.766,175,59.766,174.6Z" transform="translate(-38.076 -102.27)" fill="#1b1b1b"/>
    <path id="Path_167" data-name="Path 167" d="M69.62,174.83c.034-.432-.3-.632-.734-.665h-.133c-.434,0-.8.166-.8.6,0,.4.3.632.734.665h.133C69.253,175.4,69.586,175.23,69.62,174.83Z" transform="translate(-44.561 -102.397)" fill="#1b1b1b"/>
    <path id="Path_168" data-name="Path 168" d="M79.406,175.757c.067-.432-.234-.665-.667-.732H78.6c-.434-.034-.8.1-.867.532-.034.4.267.632.7.732h.133C78.972,176.29,79.339,176.158,79.406,175.757Z" transform="translate(-50.976 -102.958)" fill="#1b1b1b"/>
    <path id="Path_169" data-name="Path 169" d="M88.987,177.51c.067-.432-.2-.665-.634-.764H88.22c-.434-.066-.8.066-.9.467-.067.4.2.665.634.764h.133C88.554,178.043,88.921,177.91,88.987,177.51Z" transform="translate(-57.254 -104.078)" fill="#1b1b1b"/>
    <path id="Path_170" data-name="Path 170" d="M98.684,178.948c.034-.433-.3-.632-.7-.732H97.85c-.434-.034-.768.133-.834.566-.067.4.267.632.7.732h.133C98.317,179.514,98.651,179.348,98.684,178.948Z" transform="translate(-63.614 -105.051)" fill="#1b1b1b"/>
    <path id="Path_171" data-name="Path 171" d="M108.427,178.823c-.1-.432-.467-.5-.867-.5h-.134c-.4.067-.7.267-.7.7.034.4.367.6.868.566h.133C108.227,179.487,108.527,179.188,108.427,178.823Z" transform="translate(-69.986 -105.124)" fill="#1b1b1b"/>
    <path id="Path_172" data-name="Path 172" d="M117.552,175.12a.722.722,0,0,0-.968-.133l-.067.034-.067.034c-.334.233-.567.5-.367.9.167.366.567.4,1,.2l.067-.033.067-.034C117.619,175.852,117.786,175.453,117.552,175.12Z" transform="translate(-76.075 -102.852)" fill="#1b1b1b"/>
    <path id="Path_173" data-name="Path 173" d="M124.484,168.006a.767.767,0,0,0-.9.366l-.034.066-.034.034a.715.715,0,0,0,.1.965c.3.267.7.1,1-.3l.034-.067.034-.066C124.918,168.572,124.852,168.14,124.484,168.006Z" transform="translate(-80.905 -98.334)" fill="#1b1b1b"/>
    <path id="Path_174" data-name="Path 174" d="M125.557,158.5a.773.773,0,0,0-.267.433.945.945,0,0,0,0,.432v.067a.749.749,0,0,0,.7.632c.4,0,.634-.366.534-.932V159.1l-.033-.066a1.117,1.117,0,0,0-.434-.566A.4.4,0,0,0,125.557,158.5Z" transform="translate(-82.144 -92.057)" fill="#1b1b1b"/>
    <path id="Path_175" data-name="Path 175" d="M117.59,157.67a.734.734,0,0,0,.9-.133l.034-.034.034-.034a1.474,1.474,0,0,0,.267-.366.641.641,0,0,0,0-.5.464.464,0,0,0-.4-.332.894.894,0,0,0-.7.233l-.066.066-.067.066C117.256,157,117.256,157.5,117.59,157.67Z" transform="translate(-76.947 -90.66)" fill="#1b1b1b"/>
    <path id="Path_176" data-name="Path 176" d="M117.567,166.471c.3-.3.2-.632.034-.965l-.034-.033-.034-.034a.786.786,0,0,0-.867-.4.51.51,0,0,0-.367.366,1,1,0,0,0,.134.665l.034.067.033.066C116.867,166.637,117.3,166.737,117.567,166.471Z" transform="translate(-76.258 -96.399)" fill="#1b1b1b"/>
    <path id="Path_177" data-name="Path 177" d="M125.268,172.213c.167-.4-.067-.7-.434-.9l-.067-.033-.067-.034a.679.679,0,0,0-.968.233c-.2.332,0,.7.4.932.034,0,.034.034.067.034l.067.033C124.735,172.612,125.135,172.579,125.268,172.213Z" transform="translate(-81.089 -100.411)" fill="#1b1b1b"/>
    <path id="Path_178" data-name="Path 178" d="M134.681,174.7c-.034-.432-.367-.566-.734-.632h-.134c-.4,0-.734.1-.834.532-.067.4.234.665.734.732h.134C134.346,175.333,134.713,175.1,134.681,174.7Z" transform="translate(-87.196 -102.334)" fill="#1b1b1b"/>
    <path id="Path_179" data-name="Path 179" d="M143.932,171.364c-.3-.332-.667-.2-.968,0l-.033.034-.034.033c-.267.267-.467.532-.267.932a.589.589,0,0,0,.434.3,1.013,1.013,0,0,0,.634-.2l.067-.034.067-.034C144.1,172.027,144.2,171.629,143.932,171.364Z" transform="translate(-93.478 -100.427)" fill="#1b1b1b"/>
    <path id="Path_180" data-name="Path 180" d="M151.57,165.688c-.067-.433-.5-.532-1-.366l-.067.033-.067.034a1.044,1.044,0,0,0-.467.467.527.527,0,0,0,.067.532.683.683,0,0,0,.434.266,1.31,1.31,0,0,0,.5-.066l.034-.034.067-.034C151.372,166.32,151.639,166.088,151.57,165.688Z" transform="translate(-98.316 -96.548)" fill="#1b1b1b"/>
    <path id="Path_181" data-name="Path 181" d="M161.235,166.137c.166-.4-.1-.7-.534-.865l-.067-.034-.067-.033c-.467-.1-.867,0-.934.432-.067.4.2.632.567.8h.067l.067.033a.7.7,0,0,0,.9-.332Z" transform="translate(-104.675 -96.498)" fill="#1b1b1b"/>
    <path id="Path_182" data-name="Path 182" d="M169.955,170.566c.234-.366.034-.7-.3-.965l-.067-.033-.067-.034c-.4-.2-.8-.233-1,.133a.679.679,0,0,0,.334.932l.067.034.067.033a.657.657,0,0,0,.968-.1Z" transform="translate(-110.459 -99.264)" fill="#1b1b1b"/>
    <path id="Path_183" data-name="Path 183" d="M178.433,175.232c.134-.433-.1-.665-.467-.865l-.067-.034-.067-.034c-.4-.133-.767-.133-.968.233s.034.7.434.932l.067.034.067.033C177.9,175.7,178.3,175.631,178.433,175.232Z" transform="translate(-115.934 -102.432)" fill="#1b1b1b"/>
    <path id="Path_184" data-name="Path 184" d="M187.978,176.237a.8.8,0,0,0-.868-.366h-.133c-.367.1-.667.266-.667.7,0,.4.367.632.9.566h.134a.9.9,0,0,0,.567-.366A.521.521,0,0,0,187.978,176.237Z" transform="translate(-122.175 -103.504)" fill="#1b1b1b"/>
    <path id="Path_185" data-name="Path 185" d="M194.3,168.83c-.434-.067-.667.2-.8.566v.066l-.034.066a.7.7,0,0,0,.3.9c.334.2.734-.067.9-.532l.033-.066.034-.066C194.836,169.3,194.669,168.9,194.3,168.83Z" transform="translate(-126.831 -98.892)" fill="#1b1b1b"/>
    <path id="Path_186" data-name="Path 186" d="M195.637,159.084c-.434-.034-.634.3-.7.732v.133c0,.432.134.8.567.832.4.034.634-.3.7-.732v-.133C196.237,159.483,196.037,159.117,195.637,159.084Z" transform="translate(-127.832 -92.505)" fill="#1b1b1b"/>
    <path id="Path_187" data-name="Path 187" d="M197.193,149.488c-.367-.2-.734.066-.9.532l-.034.067-.034.066c-.1.467,0,.865.434.932a.726.726,0,0,0,.8-.566v-.066l.034-.067A.7.7,0,0,0,197.193,149.488Z" transform="translate(-128.654 -86.17)" fill="#1b1b1b"/>
    <path id="Path_188" data-name="Path 188" d="M203.1,144.437c-.066-.432-.3-.566-.567-.532h-.067c-.267.1-.367.366-.167.764.2.366.4.467.567.467h.067C203.03,145.069,203.129,144.836,203.1,144.437Z" transform="translate(-132.59 -82.55)" fill="#1b1b1b"/>
  </g>
</svg>
