<svg xmlns="http://www.w3.org/2000/svg" width="114.953" height="87.998" viewBox="0 0 114.953 87.998">
  <g id="noun-map-location-8040313" transform="translate(-10.499 -19.762)">
    <path id="Path_2428" data-name="Path 2428" d="M57.171,25.315a9.529,9.529,0,1,1-6.741,2.791A9.521,9.521,0,0,1,57.171,25.315Zm11.226-.9A15.875,15.875,0,0,0,41.3,35.637c0,7.906,12.76,30.352,15.875,35.718,3.115-5.366,15.875-27.811,15.875-35.718A15.835,15.835,0,0,0,68.4,24.411ZM92.576,86.417c.006.006.006.011.011.017a.166.166,0,0,0,.1.04l31.2-.2a.043.043,0,0,0,.028-.006l1.535,3.82H95.616a.129.129,0,0,0-.131.131.14.14,0,0,0,.028.085l13.232,17.461h-5.5l-12.954-17a.129.129,0,0,0-.1-.051H53.322a.15.15,0,0,0-.108.051l-15.177,17H31.6l14.647-16.9a.134.134,0,0,0-.1-.222L10.5,90.464l1.592-3.916h.023l9.612.017a.133.133,0,0,0,.159-.04L35.275,68.853a.14.14,0,0,0,.028-.085.129.129,0,0,0-.131-.131h-15.8l1.552-3.814,30.715-.074c.926,1.7,1.779,3.229,2.5,4.513H40.6a.122.122,0,0,0-.1.051L27.505,86.365a.135.135,0,0,0,.023.188.153.153,0,0,0,.085.028l38,.068,21.1-.136a.134.134,0,0,0,.114-.216L73.63,69.314a.129.129,0,0,0-.108-.057H60.182c.728-1.29,1.586-2.831,2.518-4.541l1.5-.006a.114.114,0,0,0,.074-.023L78.08,55.848h5.7L70.441,64.84a.131.131,0,0,0,.085.239l44.886.023,1.574,3.928-37.224.153a.136.136,0,0,0-.08.028.128.128,0,0,0-.023.182L92.563,86.4ZM57.171,75.35a21.846,21.846,0,0,0-6.843.989c-2.018.7-3.263,1.762-3.263,3.024s1.25,2.33,3.263,3.024a21.681,21.681,0,0,0,6.843.989,21.846,21.846,0,0,0,6.843-.989c2.018-.7,3.263-1.762,3.263-3.024s-1.25-2.33-3.263-3.024A21.681,21.681,0,0,0,57.171,75.35Z" fill-rule="evenodd"/>
  </g>
</svg>
