<svg xmlns="http://www.w3.org/2000/svg" width="84.009" height="83.825" viewBox="0 0 84.009 83.825">
  <g id="Media_Buyer" data-name="Media Buyer" transform="translate(0 19.104)">
    <path id="Path_99735" data-name="Path 99735" d="M79.361,21.68a12.811,12.811,0,0,0-9.1-4.09H70.17c-6.849.111-12.933,6.505-13.1,13.324a11.729,11.729,0,0,0,.775,4.4l.009.023c.033.22,2.808,6.439,11.44,15.689a1.38,1.38,0,0,0,.1.118,1.177,1.177,0,0,0,1.717.037,67.568,67.568,0,0,0,8.86-10.974,36.423,36.423,0,0,0,2.7-4.849l.018-.044a11.744,11.744,0,0,0,.775-4.364,13.615,13.615,0,0,0-4.1-9.275ZM70.3,36.2a5.21,5.21,0,0,1-5.217-5.2,5.217,5.217,0,1,1,10.434,0,5.21,5.21,0,0,1-5.217,5.2Z" transform="translate(-50.82 -17.59)" fill="#026dd5"/>
    <path id="Path_99736" data-name="Path 99736" d="M350.932,241.93l-8.242,10.593,12.532,16.106c3.816-.758,6.976-4.923,5.716-8.464-1.609-4.618-3.7-9.425-6.019-14.413A7.69,7.69,0,0,0,350.932,241.93Z" transform="translate(-305.188 -217.379)" fill="#026dd5"/>
    <path id="Path_99737" data-name="Path 99737" d="M233.035,361.52l-11.3,14.517q11.066.153,22.128-.593Z" transform="translate(-197.474 -323.881)" fill="#026dd5"/>
    <path id="Path_99738" data-name="Path 99738" d="M32.105,234.01q-.181.289-.374.591a70.98,70.98,0,0,1-9.275,11.489,4.24,4.24,0,0,1-6.133-.127c-.061-.066-.12-.135-.177-.2a91.134,91.134,0,0,1-7.881-9.629,7.805,7.805,0,0,0-1.955,2.57c-2.317,4.989-4.41,9.795-6.019,14.413-1.331,3.743,2.272,8.18,6.372,8.56q6.895.54,13.795.731l21.822-28.05Q37.194,234.085,32.105,234.01Z" transform="translate(-0.01 -210.325)" fill="#026dd5"/>
    <g id="noun-male-5611226" transform="translate(28 -20.104)">
      <path id="Path_99752" data-name="Path 99752" d="M51.943,16.744h-30.2a2.854,2.854,0,0,0-3.067,2.571V42.226a3.49,3.49,0,0,0,3.739,3.156h2.561V25.625a.694.694,0,1,1,1.387,0V73.573a4.892,4.892,0,1,0,9.784,0V55.295a.693.693,0,0,1,1.386,0V73.569a4.893,4.893,0,1,0,9.786,0V25.335a.694.694,0,0,1,1.387,0V45.382h2.561a3.49,3.49,0,0,0,3.739-3.154V19.316A2.854,2.854,0,0,0,51.943,16.744Z" transform="translate(0 5.36)" fill="#026dd5" stroke="#f5faff" stroke-width="2"/>
      <circle id="Ellipse_721" data-name="Ellipse 721" cx="8.585" cy="8.585" r="8.585" transform="translate(28.26 2)" fill="#026dd5" stroke="#f5faff" stroke-width="2"/>
    </g>
  </g>
</svg>
