<svg xmlns="http://www.w3.org/2000/svg" width="87.512" height="80.497" viewBox="0 0 87.512 80.497">
  <g id="Media_Seller" data-name="Media Seller" transform="translate(6.683 20.812)">
    <path id="Path_99753" data-name="Path 99753" d="M83.286,111.532h59.243v-1.619H130.381v-.019H140.55V104.01h-1.471V99.6h-2.206v4.412h-1.33v-2.6h-3.479v2.6h-1.683V90.462h-.834V86.813H128.02V84.777h-3.847v2.036h-1.527v3.649h-.835v14.226h-1.066V94.959H105.7v7.128h-6.27V97.618H95.694V90.66H94.45v6.958H92.187v4.469H88.567v1.3H86.417v-7.75H85.172v7.75H83.286Zm45.737-17.643v10.883h-1.358V93.888Zm-2.249,0v10.883h-1.358V93.888Zm-3.606,0h1.358v10.883h-1.358Zm-6.96,3.786h2.036v2.036h-2.036Zm0,3.9h2.036v2.036h-2.036Zm-4.005-3.9h2.036v2.036H112.2Zm0,3.9h2.036v2.036H112.2Zm-4-3.9h2.036v2.036H108.2Zm0,3.9h2.036v2.036H108.2Z" transform="translate(-61.7 -76.814)" fill="#026dd5"/>
    <path id="Path_99754" data-name="Path 99754" d="M2.91,60.628c.054,0,.108,0,.163-.005a2.717,2.717,0,0,0,2.552-2.87c-.133-2.256-.193-4.312-.193-6.183-.012-8.4,1.24-13.038,2.441-15.4V87.234a4.2,4.2,0,0,0,8.393,0V56.6h1.573V87.234a4.2,4.2,0,0,0,8.393,0V33.127a27.987,27.987,0,0,0,5.843-2.2,31.44,31.44,0,0,0,4.912-3.082,23.469,23.469,0,0,1,.924-3.534,6.789,6.789,0,0,1,2.418-3.062,11.234,11.234,0,0,0,2.349-2.478,5.609,5.609,0,0,0-2.392-2.225,28.775,28.775,0,0,1-10.658,9.531A22.62,22.62,0,0,1,25,27.838c-.564.142-1,.224-1.288.27l-.181.027H21.515c-.439,2.8-2.009,11.832-4.287,14.11-2.278-2.278-3.848-11.313-4.287-14.11H10.5c-.038,0-.075,0-.112.006H10.37a6.442,6.442,0,0,0-2.864.726c-1.826.906-3.794,2.886-5.172,6.4C.941,38.785.005,43.879,0,51.57c0,1.987.064,4.149.2,6.5A2.716,2.716,0,0,0,2.91,60.628Z" transform="translate(-6.683 -31.746)" fill="#026dd5"/>
    <path id="Path_99755" data-name="Path 99755" d="M45.135,51.969l-1.716-.981c-.223-.052-.444-.112-.66-.181v2.859l2.376-1.358Z" transform="translate(-34.929 -54.374)" fill="#026dd5"/>
    <path id="Path_99756" data-name="Path 99756" d="M54.135,50.451c-.109.04-.22.078-.331.114l-2.045,1.169v.339l2.376,1.358Z" transform="translate(-40.874 -54.139)" fill="#026dd5"/>
    <circle id="Ellipse_722" data-name="Ellipse 722" cx="0.679" cy="0.679" r="0.679" transform="translate(9.867 -0.199)" fill="#026dd5"/>
    <circle id="Ellipse_723" data-name="Ellipse 723" cx="0.679" cy="0.679" r="0.679" transform="translate(9.867 2.177)" fill="#026dd5"/>
    <circle id="Ellipse_724" data-name="Ellipse 724" cx="0.679" cy="0.679" r="0.679" transform="translate(9.867 4.892)" fill="#026dd5"/>
    <path id="Path_99757" data-name="Path 99757" d="M35.377,20.254a7.637,7.637,0,1,0-7.637-7.637A7.637,7.637,0,0,0,35.377,20.254Zm.676-6.007a2.235,2.235,0,0,1,1.678.513,3.128,3.128,0,0,0,2.816,1.573c1.063-.031-1.753.908-2.816.022a3.493,3.493,0,0,0-2.037-.886S35.413,14.462,36.053,14.246Zm-5.845,2.085a3.128,3.128,0,0,0,2.816-1.573,2.235,2.235,0,0,1,1.678-.513c.64.216.359,1.221.359,1.221a3.492,3.492,0,0,0-2.037.886C31.96,17.239,29.145,16.3,30.207,16.331Z" transform="translate(-25.007 -24.101)" fill="#026dd5"/>
    <path id="Path_99758" data-name="Path 99758" d="M139.091,57.083a8.522,8.522,0,0,0,.991.014,18.7,18.7,0,0,0-1.589-1.774,4.07,4.07,0,0,0-.6.688C137.4,56.778,138.474,57.037,139.091,57.083Z" transform="translate(-97.691 -57.357)" fill="#026dd5"/>
    <path id="Path_99759" data-name="Path 99759" d="M155.212,62.528a3.642,3.642,0,0,0-2.252.321c.238.409.468.826.689,1.253C154.422,63.512,155.47,62.629,155.212,62.528Z" transform="translate(-107.726 -62.059)" fill="#026dd5"/>
    <path id="Path_99760" data-name="Path 99760" d="M114.186,7.88c-1.8,2.955-4.069,3.3-4.906,5.724-3.9,11.3,2.535,19.38,7.341,21.108,5.836,2.1,9.049,1.9,16.84-5.614,3.3-3.184-2.56-15.384-6.271-18.358-2.741-2.2-8.634-2.883-9.43-3.1-1.874-.519.578-2.992,1.607-5.693S115.654-.165,115.187.866a2.077,2.077,0,0,1-3.221.844c-1.472-1.094-7.145,2.625-3.558,2.647A6.3,6.3,0,0,1,114.186,7.88Zm-3.958,15.674c1.069,4.532,2.939,5.525,6.748,8.35C110.556,31.141,110.228,23.554,110.228,23.554Zm12.747-7.611c.57.572-.588,2.181-1.086,1.682s-1.262-.344-2.022.042a20.254,20.254,0,0,1,2.053,2.593c.418-.1.837-.211,1.266-.338.659-.194,2.25-.861,2.908-.326.716.581.266,1.629-.107,2.288a7.619,7.619,0,0,1-1.929,2.215q.438.932.852,1.915c.3.71-.75,2.382-1.146,1.443-.358-.849-.724-1.666-1.11-2.453a9.044,9.044,0,0,1-4.244,1.025c-.793-.011.057-1.794.8-1.784a7.474,7.474,0,0,0,2.773-.544q-.439-.8-.927-1.556c-1.479.307-4.773.685-4.913-1.154a4.086,4.086,0,0,1,1.325-3.013q-.652-.565-1.387-1.094c-.651-.467.151-2.283.924-1.728a19.645,19.645,0,0,1,1.942,1.589C119.98,16.044,121.919,14.885,122.975,15.943ZM115.516,9.43c-3.925,2.505-4.247,4.6-5.658,9.125C108.463,12.241,115.516,9.43,115.516,9.43Z" transform="translate(-77.523 -20.811)" fill="#026dd5"/>
  </g>
</svg>
