<svg xmlns="http://www.w3.org/2000/svg" width="89.494" height="76.432" viewBox="0 0 89.494 76.432">
  <g id="Group_43840" data-name="Group 43840" transform="translate(-933 -3481)">
    <g id="Group_40282" data-name="Group 40282" transform="translate(925.566 3478.191)">
      <g id="Group_40285" data-name="Group 40285">
        <path id="Path_29232" data-name="Path 29232" d="M76.853,615.918a.186.186,0,0,0,.167.2H160.5a.2.2,0,0,0,0-.4H77.021A.186.186,0,0,0,76.853,615.918Z" transform="translate(-67.012 -536.879)" fill="#d6d6e3"/>
        <path id="Path_29233" data-name="Path 29233" d="M357.045,461.886c-.148,1.923-1.1,3.256-2.117,2.977-.819-.224-1.462-1.435-1.581-2.977h-4.73v19.7h13.158v-19.7Z" transform="translate(-303.183 -402.746)" fill="#d6d6e3"/>
        <path id="Path_29235" data-name="Path 29235" d="M242.031,115.078H175.293a3.833,3.833,0,0,1-3.829-3.829V75.628a3.833,3.833,0,0,1,3.829-3.829h66.738a3.834,3.834,0,0,1,3.829,3.829V111.25a3.834,3.834,0,0,1-3.829,3.829" transform="translate(-149.51 -62.606)" fill="#fff"/>
        <path id="Path_29236" data-name="Path 29236" d="M238.651,105.972l-66.672,2.336a3.832,3.832,0,0,1-3.959-3.691l-1.247-35.586a3.832,3.832,0,0,1,3.691-3.959l66.672-2.336a3.832,3.832,0,0,1,3.959,3.691l1.247,35.586a3.832,3.832,0,0,1-3.691,3.959M170.473,65.3a3.6,3.6,0,0,0-3.467,3.719l1.247,35.586a3.6,3.6,0,0,0,3.719,3.467l66.672-2.336a3.6,3.6,0,0,0,3.467-3.719l-1.247-35.586a3.6,3.6,0,0,0-3.719-3.467Z" transform="translate(-145.418 -54.701)" fill="#d6d6e3"/>
        <path id="Path_29237" data-name="Path 29237" d="M130.567,152.233H63.829A3.834,3.834,0,0,1,60,148.4V112.783a3.834,3.834,0,0,1,3.829-3.829h66.738a3.834,3.834,0,0,1,3.829,3.829V148.4a3.834,3.834,0,0,1-3.829,3.829" transform="translate(-52.318 -95.003)" fill="#fff"/>
        <path id="Path_29238" data-name="Path 29238" d="M174.927,343.6h-43.1c-.054,0-.108,0-.161,0l20.383-11.479a3.431,3.431,0,0,1,1.945-.175,1.762,1.762,0,0,1,.539.175l13.68,7.7.655.369Z" transform="translate(-114.809 -289.388)" fill="#e6e6e6"/>
        <path id="Path_29239" data-name="Path 29239" d="M321.863,366.646H284.587l7.223-3.411.52-.245,9.413-4.446a4.964,4.964,0,0,1,2.827-.055q.073.026.136.055Z" transform="translate(-248.148 -312.432)" fill="#e6e6e6"/>
        <path id="Path_29240" data-name="Path 29240" d="M65.409,110.767a3.6,3.6,0,0,0-3.6,3.6v35.622a3.6,3.6,0,0,0,3.6,3.6h66.738a3.6,3.6,0,0,0,3.6-3.6V114.364a3.6,3.6,0,0,0-3.6-3.6Z" transform="translate(-53.898 -96.584)" fill="#3f3d56"/>
        <path id="Path_29241" data-name="Path 29241" d="M149.532,168.412H82.793a1.045,1.045,0,0,1-1.044-1.044V131.746a1.046,1.046,0,0,1,1.044-1.044h66.738a1.046,1.046,0,0,1,1.044,1.044v35.622a1.046,1.046,0,0,1-1.044,1.044ZM82.793,130.934a.813.813,0,0,0-.812.812v35.622a.813.813,0,0,0,.812.812h66.738a.813.813,0,0,0,.812-.812V131.746a.813.813,0,0,0-.812-.812Z" transform="translate(-71.282 -113.967)" fill="#ccc"/>
        <path id="Path_29242" data-name="Path 29242" d="M456.5,151.9c5.024,0,9.1,5.1,9.1,11.387s-4.073,11.387-9.1,11.387-9.1-5.1-9.1-11.387,4.073-11.387,9.1-11.387" transform="translate(-390.113 -132.453)" fill="#f2f2f2"/>
        <path id="Path_29243" data-name="Path 29243" d="M515.413,222.953h.025l.45,25.792h-.949Z" transform="translate(-449.005 -194.406)" fill="#ccc"/>
        <path id="Path_29244" data-name="Path 29244" d="M519.811,355.492h0a.225.225,0,0,1-.094.3h0l-1.3.687-.21-.4,1.3-.687a.225.225,0,0,1,.3.094" transform="translate(-451.852 -309.869)" fill="#ccc"/>
        <path id="Path_29245" data-name="Path 29245" d="M252.229,151.9c5.024,0,9.1,5.1,9.1,11.387s-4.073,11.387-9.1,11.387-9.1-5.1-9.1-11.387,4.073-11.387,9.1-11.387" transform="translate(-212.001 -132.453)" fill="#f2f2f2"/>
        <path id="Path_29246" data-name="Path 29246" d="M312.693,240.455h0a.225.225,0,0,0-.3-.094l-.911.48-.312-17.887h-.025l-.475,25.792h.95l-.129-7.4,1.112-.585a.225.225,0,0,0,.095-.3" transform="translate(-270.888 -194.406)" fill="#ccc"/>
        <path id="Path_29247" data-name="Path 29247" d="M414.29,190.421a.285.285,0,0,0-.385-.119h0l-1.154.608-.4-22.664h-.032l-.6,32.681h1.2l-.164-9.378,1.409-.742a.285.285,0,0,0,.119-.385Z" transform="translate(-359.005 -146.703)" fill="#3f3d56"/>
        <path id="Path_29248" data-name="Path 29248" d="M145.7,161.33H66.365a4.683,4.683,0,0,1-4.552-4.794v-44.6a4.683,4.683,0,0,1,4.552-4.794H145.7a4.683,4.683,0,0,1,4.552,4.794v44.6a4.683,4.683,0,0,1-4.552,4.794" transform="translate(-54.38 -104.333)" fill="#fff"/>
        <path id="Path_29249" data-name="Path 29249" d="M156.554,357.149H109.6c-.059,0-.118,0-.176,0l22.2-12.505a3.736,3.736,0,0,1,2.119-.191,1.915,1.915,0,0,1,.588.191l14.9,8.392.714.4Z" transform="translate(-95.418 -300.288)" fill="#f2f2f2"/>
        <path id="Path_29250" data-name="Path 29250" d="M316.618,382.249H276.01l7.869-3.716.566-.268,10.254-4.843a5.406,5.406,0,0,1,3.08-.06c.053.019.1.039.148.06Z" transform="translate(-240.669 -325.388)" fill="#f2f2f2"/>
        <path id="Path_29251" data-name="Path 29251" d="M145.7,161.331H66.364a4.683,4.683,0,0,1-4.552-4.794v-44.6a4.683,4.683,0,0,1,4.552-4.794H145.7a4.683,4.683,0,0,1,4.552,4.794v44.6a4.683,4.683,0,0,1-4.552,4.794m-79.335-53.9a4.4,4.4,0,0,0-4.276,4.5v44.6a4.4,4.4,0,0,0,4.276,4.5H145.7a4.4,4.4,0,0,0,4.276-4.5v-44.6a4.4,4.4,0,0,0-4.276-4.5Z" transform="translate(-53.898 -104.333)" fill="#3f3d56"/>
        <path id="Path_29252" data-name="Path 29252" d="M439,58.476a7.825,7.825,0,1,1-7.825,7.825A7.825,7.825,0,0,1,439,58.476" transform="translate(-375.969 -50.989)" fill="#ff6584"/>
        <path id="Path_29253" data-name="Path 29253" d="M450.346,148.318c5.473,0,9.91,5.554,9.91,12.4s-4.437,12.4-9.91,12.4-9.91-5.554-9.91-12.4,4.437-12.4,9.91-12.4" transform="translate(-384.042 -129.327)" fill="#e6e6e6"/>
        <path id="Path_29254" data-name="Path 29254" d="M514.526,225.718h.027l.49,28.1h-1.035Z" transform="translate(-448.194 -196.817)" fill="#ccc"/>
        <path id="Path_29255" data-name="Path 29255" d="M519.319,370.1h0a.245.245,0,0,1-.1.331h0l-1.422.748-.228-.434,1.421-.748a.245.245,0,0,1,.331.1" transform="translate(-451.297 -322.602)" fill="#ccc"/>
        <path id="Path_29256" data-name="Path 29256" d="M227.824,148.318c5.473,0,9.91,5.554,9.91,12.4s-4.437,12.4-9.91,12.4-9.91-5.554-9.91-12.4,4.437-12.4,9.91-12.4" transform="translate(-190.012 -129.327)" fill="#e6e6e6"/>
        <path id="Path_29257" data-name="Path 29257" d="M293.695,244.78h0a.245.245,0,0,0-.331-.1l-.992.522-.34-19.486H292l-.517,28.1h1.035l-.141-8.063,1.211-.638a.245.245,0,0,0,.1-.33" transform="translate(-254.165 -196.813)" fill="#ccc"/>
        <path id="Path_29258" data-name="Path 29258" d="M320.891,21.932c6.935,0,12.572,13.068,12.572,21.749S327.841,59.4,320.905,59.4s-12.557-7.037-12.557-15.718,5.607-21.749,12.543-21.749" transform="translate(-268.867 -19.124)" fill="#006dd6"/>
        <path id="Path_29259" data-name="Path 29259" d="M404.369,190.277a.311.311,0,0,0-.419-.13l-1.257.662-.43-24.69h-.034l-.655,35.6h1.311L402.7,191.5l1.534-.808a.31.31,0,0,0,.13-.419" transform="translate(-350.154 -144.849)" fill="#3f3d56"/>
      </g>
    </g>
  </g>
</svg>
