<svg xmlns="http://www.w3.org/2000/svg" width="131.752" height="151.618" viewBox="0 0 131.752 151.618">
  <g id="noun-embassy-7803233" transform="translate(-13.79 -8.323)">
    <path id="Path_2204" data-name="Path 2204" d="M114.207,52.285,81.657,29.9V10.327a2,2,0,1,0-4.007,0V29.9L14.71,73.181H144.593ZM99.484,9.369,96.429,13.61a1.982,1.982,0,0,0,.028,2.366l3.027,4.2H83.54V9.369Zm46.028,67.819H13.8v4.881H145.542Zm-1.606,72.345H15.4a1.625,1.625,0,0,0-1.613,1.613v8.8H145.514v-8.8a1.612,1.612,0,0,0-.476-1.137,1.555,1.555,0,0,0-1.13-.476ZM37.648,93.316H26.493v44.962H37.648Zm4.164-7.24h-19.5v3.233h19.5Zm27.553,7.24H58.21l.007,44.962H69.372Zm4.171-7.24h-19.5v3.233h19.5Zm27.553,7.24H89.934l.007,44.962H101.1Zm4.171-7.24H85.77v3.233h19.5Zm27.553,7.24H121.658l.007,44.962h11.155Zm4.171-7.24h-19.5v3.233h19.5ZM39.642,142.285H22.312v3.233H41.8v-3.233Zm31.724,0H54.036v3.233l19.5.007v-3.233Zm31.724,0H85.768v3.233h19.49v-3.233Zm31.724,0h-17.33v3.233h19.49v-3.233Zm-50.3-94.849a6.879,6.879,0,1,1-4.867-2.018A6.875,6.875,0,0,1,84.517,47.436ZM79.65,41.418a10.892,10.892,0,1,1-7.7,3.19,10.87,10.87,0,0,1,7.7-3.19Z" fill-rule="evenodd"/>
  </g>
</svg>
