<svg xmlns="http://www.w3.org/2000/svg" width="36.181" height="23.06" viewBox="0 0 36.181 23.06">
  <g id="Easy_onboarding" data-name="Easy onboarding" transform="translate(-1.719 -35.59)">
    <path id="Path_253067" data-name="Path 253067" d="M8.521,48.767a.526.526,0,0,0,0-.743C8.5,48.006,8.4,47.9,8.287,47.8l-.222-.2,4.32-6.685c2.037.855,3.085.55,3.548.275l.07-.047a3.069,3.069,0,0,1,1.8-.591,2.7,2.7,0,0,1,.3.035.534.534,0,0,0,.621-.416.527.527,0,0,0-.41-.62,3.328,3.328,0,0,0-.451-.059,4.02,4.02,0,0,0-2.412.749l-.064.041a3.229,3.229,0,0,1-2.453-.287,2.155,2.155,0,0,0-.8-2.658L9.985,35.941a2.148,2.148,0,0,0-2.968.638L2.064,44.248A2.135,2.135,0,0,0,2.7,47.21L4.845,48.6A2.132,2.132,0,0,0,6,48.943a2.21,2.21,0,0,0,1.411-.521c.047.047.1.088.146.135.1.1.2.193.217.211a.518.518,0,0,0,.369.152.551.551,0,0,0,.38-.152Zm-3.1-1.054L3.276,46.326a1.087,1.087,0,0,1-.328-1.51l4.964-7.674a1.092,1.092,0,0,1,1.51-.322l2.148,1.387a1.1,1.1,0,0,1,.328,1.51l-.14.217a.006.006,0,0,1-.006.006L6.929,47.392a.122.122,0,0,1-.023.035,1.1,1.1,0,0,1-1.487.287Z" transform="translate(0 -0.005)"/>
    <path id="Path_253068" data-name="Path 253068" d="M59.494,63.4l-.023-.023c-.006-.006-.012-.006-.018-.012a.229.229,0,0,0-.059-.047c-.421-.345-5.163-4.759-5.426-5.017a.526.526,0,0,0-.743.743c.047.047,4.028,3.9,5.426,4.97a.4.4,0,0,0,.094.129,1.235,1.235,0,0,1,.357.509.975.975,0,0,1,.035.258.961.961,0,0,1-.222.609.938.938,0,0,1-1.2.164c-.006-.006-.018-.006-.029-.018s-.006-.012-.012-.018L54.2,62.609a.527.527,0,1,0-.7.79l3.477,3.044c.012.006.018.012.029.018v.006l.07.07c.006.006.006.006.012.006l.088.082a.91.91,0,0,1,.31.691.893.893,0,0,1-.222.6A.912.912,0,0,1,56,68.029l-.4-.345L52.5,64.974a.527.527,0,0,0-.7.79l3.091,2.71a.714.714,0,0,1,.064,1.007l-.14.158a.912.912,0,0,1-.632.31.9.9,0,0,1-.667-.228l-.515-.451c-.018-.018-.035-.018-.059-.035-.006-.006-.012-.018-.018-.023l-1.575-1.387a.527.527,0,1,0-.7.79L52.235,70a.327.327,0,0,1,.047.029c.006.006.006.006.006.012a.926.926,0,0,1,.047,1.27l-.129.146a.716.716,0,0,1-.5.246.736.736,0,0,1-.509-.17l-.861-.8a.526.526,0,1,0-.714.773l.872.8a1.754,1.754,0,0,0,1.165.445.71.71,0,0,0,.111-.006,1.761,1.761,0,0,0,1.223-.6L53.125,72a1.948,1.948,0,0,0,.474-1.077,1.863,1.863,0,0,0,.65.064,1.968,1.968,0,0,0,1.352-.667l.14-.152a1.736,1.736,0,0,0,.421-.931,1.983,1.983,0,0,0,1.873-.638,1.975,1.975,0,0,0,.433-1.75,1.969,1.969,0,0,0,1.7-1.955,1.973,1.973,0,0,0-.679-1.493Z" transform="translate(-29.852 -14.109)"/>
    <path id="Path_253069" data-name="Path 253069" d="M63.467,44.244,58.5,36.569a2.146,2.146,0,0,0-2.962-.638l-2.148,1.387a2.148,2.148,0,0,0-.79,2.675,3.743,3.743,0,0,1-1.153.193,4.218,4.218,0,0,1-1.358-.31,4.235,4.235,0,0,0-3.477.012L46.338,40c-.293.123-.58.24-.878.369a4.75,4.75,0,0,0-2.166,5.111,2.069,2.069,0,0,0,1.335,1.586,2.351,2.351,0,0,0,2.148-.626,8.431,8.431,0,0,0,1.686-2.506.5.5,0,0,0,.334-.152.526.526,0,0,0,0-.743.732.732,0,0,0-1.183.222A7.846,7.846,0,0,1,46.1,45.637a1.379,1.379,0,0,1-1.165.421c-.34-.105-.527-.533-.626-.872A3.708,3.708,0,0,1,45.9,41.323c.275-.123.556-.24.837-.351l.275-.117a3.2,3.2,0,0,1,2.722.006,5.119,5.119,0,0,0,1.692.375,4.877,4.877,0,0,0,1.727-.316L57.42,47.5c-.24.263-.41.468-.661.773l-.24.287a.53.53,0,0,0,.814.679l.24-.293c.193-.234.334-.4.492-.58a2.174,2.174,0,0,0,1.458.568,2.151,2.151,0,0,0,1.159-.34l2.143-1.387a2.148,2.148,0,0,0,.644-2.968Zm-.738,1.387a1.06,1.06,0,0,1-.48.691l-2.143,1.387a1.091,1.091,0,0,1-1.5-.316l-.064-.1a.022.022,0,0,1-.006-.018l-4.724-7.294-.17-.269a1.1,1.1,0,0,1,.322-1.51l2.148-1.387a1.092,1.092,0,0,1,1.51.322l4.964,7.674a1.094,1.094,0,0,1,.146.82Z" transform="translate(-25.91)"/>
    <path id="Path_253070" data-name="Path 253070" d="M30.068,72.6a1.979,1.979,0,0,0-.679-1.493,1.925,1.925,0,0,0-1.042-.451c.012-.047.041-.088.053-.135a1.733,1.733,0,0,0,.07-.5,1.961,1.961,0,0,0-.48-1.288.618.618,0,0,0-.059-.07c-.047-.047-.088-.088-.14-.135a1.939,1.939,0,0,0-.878-.433,1.964,1.964,0,0,0-2.143-3,1.953,1.953,0,0,0-.644-1.177,1.987,1.987,0,0,0-2.792.193l-2.582,2.974a1.977,1.977,0,0,0,.2,2.792,1.982,1.982,0,0,0,1.294.48A1.966,1.966,0,0,0,22.2,72.533a1.127,1.127,0,0,0,.14-.006,1.991,1.991,0,0,0,.585-.14,2.007,2.007,0,0,0,.621,1.042,1.965,1.965,0,0,0,2.072.316,1.971,1.971,0,0,0,1.908,1.487,1.13,1.13,0,0,0,.14-.006,1.951,1.951,0,0,0,1.352-.673l.556-.644a1.1,1.1,0,0,0,.176-.246,1.745,1.745,0,0,0,.263-.644,1.686,1.686,0,0,0,.053-.416ZM19.32,68.447a.905.905,0,0,1,.228-.667l2.582-2.974a.915.915,0,0,1,.7-.316.952.952,0,0,1,.609.222.937.937,0,0,1,.316.7.92.92,0,0,1-.217.591L21.3,68.576l-.357.41a.937.937,0,0,1-1.305.094.919.919,0,0,1-.316-.632Zm2.95,3.021a.919.919,0,0,1-.761-1.522l.58-.667L24.325,66.7l.012-.012.246-.281a.915.915,0,0,1,.7-.316.937.937,0,0,1,.6.222.919.919,0,0,1,.088,1.3l-.96,1.106c-.006.006-.012.006-.012.012l-1.282,1.475-.053.053-.773.89a.87.87,0,0,1-.621.316Zm1.967,1.153a.931.931,0,0,1-.088-1.305L24.424,71a.353.353,0,0,0,.047-.047l1.341-1.545a.908.908,0,0,1,.615-.3.949.949,0,0,1,.673.222c.018.018.041.035.059.053s.018.018.023.029a.915.915,0,0,1,.234.615.72.72,0,0,1-.029.2c-.006.023-.012.047-.018.076a.836.836,0,0,1-.176.322l-1.651,1.9a.932.932,0,0,1-1.305.094Zm4.748.176a.764.764,0,0,1-.129.31.777.777,0,0,1-.07.094l-.562.65a.919.919,0,0,1-.632.316.934.934,0,0,1-.667-.222.919.919,0,0,1-.316-.632.905.905,0,0,1,.228-.667l.562-.65a.938.938,0,0,1,.7-.316.924.924,0,0,1,.919.925.7.7,0,0,1-.029.193Z" transform="translate(-10.348 -17.419)"/>
  </g>
</svg>
