<svg xmlns="http://www.w3.org/2000/svg" width="88.01" height="87.998" viewBox="0 0 88.01 87.998">
  <path id="Path_252560" data-name="Path 252560" d="M17.692,64.482a6.474,6.474,0,0,0-1.263.121V17.692a11.916,11.916,0,0,1,11.9-11.9h64.2a1.263,1.263,0,0,1,0,2.527h-64.2a9.391,9.391,0,0,0-9.376,9.376V64.6a6.79,6.79,0,0,0-1.263-.121ZM49.784,91.261H7.045a1.263,1.263,0,0,0,0,2.527H49.784a1.263,1.263,0,1,0,0-2.527ZM83.151,13.89V10.847H80.625V13.89Zm-21.465,0V10.847H59.16V13.89Zm-21.457,0V10.847H37.7V13.89ZM83.051,39.266a1.94,1.94,0,1,0,1.94,1.94A1.943,1.943,0,0,0,83.051,39.266ZM93.787,20.308v32.17A3.9,3.9,0,0,1,89.9,56.369l-58.949,0a3.9,3.9,0,0,1-3.891-3.891V20.308a3.9,3.9,0,0,1,3.891-3.891H89.9a3.9,3.9,0,0,1,3.891,3.891ZM46.313,46.379a1.266,1.266,0,0,0-1.263-1.263H34.589a1.263,1.263,0,0,0,0,2.527H45.05A1.266,1.266,0,0,0,46.313,46.379Zm15,0a1.266,1.266,0,0,0-1.263-1.263H52a1.263,1.263,0,1,0,0,2.527h8.05a1.266,1.266,0,0,0,1.263-1.263Zm0-5.928a1.266,1.266,0,0,0-1.263-1.263H34.589a1.263,1.263,0,0,0,0,2.527H60.054A1.266,1.266,0,0,0,61.317,40.451Zm0-12.33a2.968,2.968,0,0,0-2.966-2.966H36.3a2.968,2.968,0,0,0-2.966,2.966v2.41A2.968,2.968,0,0,0,36.3,33.5H58.351a2.968,2.968,0,0,0,2.966-2.966Zm8.9,7.93a4.478,4.478,0,1,0-4.478-4.478A4.484,4.484,0,0,0,70.215,36.05ZM71.2,45.2l12.835-16.05a1.267,1.267,0,0,0-1.979-1.582L69.22,43.622a1.263,1.263,0,0,0,.2,1.78,1.247,1.247,0,0,0,1.769-.2Zm16.33-4a4.478,4.478,0,1,0-4.478,4.478A4.484,4.484,0,0,0,87.528,41.2ZM72.155,31.584a1.94,1.94,0,1,0-1.94,1.94A1.943,1.943,0,0,0,72.155,31.584ZM21.742,71.058a4.05,4.05,0,1,0-8.1,0V88.721H21.75V71.058Z" transform="translate(-5.781 -5.789)"/>
</svg>
