<svg xmlns="http://www.w3.org/2000/svg" width="27.452" height="18.871" viewBox="0 0 27.452 18.871">
  <g id="Faster_payment_settlement" data-name="Faster payment settlement" transform="translate(0.1 -2.566)">
    <g id="Group_45001" data-name="Group 45001" transform="translate(0 2.666)">
      <path id="Path_253075" data-name="Path 253075" d="M1.8,2.666A1.8,1.8,0,0,0,0,4.464V16.823a1.808,1.808,0,0,0,1.8,1.8H16.147a.426.426,0,0,0,0-.852H1.8a.939.939,0,0,1-.949-.949V9.348H21.7v.434a.426.426,0,1,0,.852,0V4.464a1.8,1.8,0,0,0-1.8-1.8Zm0,.852H20.752a.934.934,0,0,1,.946.946v1.9H.852v-1.9A.937.937,0,0,1,1.8,3.518Zm-.949,3.7H21.7V8.5H.852Zm21.271,3.863a5.13,5.13,0,1,0,5.13,5.13,5.134,5.134,0,0,0-5.13-5.13Zm0,.852a4.278,4.278,0,1,1-4.275,4.278,4.272,4.272,0,0,1,4.275-4.278Zm-18.847.83a.426.426,0,0,0-.424.424v2.508a.426.426,0,0,0,.424.425H7.088a.426.426,0,0,0,.424-.425V13.183a.426.426,0,0,0-.424-.424Zm.427.849H6.661v1.656H3.7Zm20.416.864a.426.426,0,0,0-.3.132l-2.21,2.285-1.094-1.131a.427.427,0,1,0-.613.594L21.3,17.8a.426.426,0,0,0,.613,0L24.433,15.2a.427.427,0,0,0-.314-.723Z" transform="translate(0 -2.666)" stroke="#000" stroke-width="0.2"/>
    </g>
  </g>
</svg>
