<svg xmlns="http://www.w3.org/2000/svg" width="88.661" height="87.998" viewBox="0 0 88.661 87.998">
  <g id="Group_44629" data-name="Group 44629" transform="translate(-306.469 -1661.002)">
    <g id="noun-extracurricular-activities-7768695" transform="translate(300 1654.206)">
      <path id="Path_252561" data-name="Path 252561" d="M42.746,28.091l5.06,4.539a3.7,3.7,0,0,0,4.786,0l5.072-4.539a11.1,11.1,0,0,0,3.851-8.326V8.893a2.078,2.078,0,0,0-.68-1.547A2.147,2.147,0,0,0,59.2,6.8a95.48,95.48,0,0,1-18,0,2.11,2.11,0,0,0-2.311,2.088V19.765a11.068,11.068,0,0,0,3.863,8.326Zm12.085-15.4a2.935,2.935,0,0,1,2.928,2.928.8.8,0,1,1-1.591,0,1.331,1.331,0,1,0-2.661,0,.8.8,0,1,1-1.591,0A2.925,2.925,0,0,1,54.831,12.688ZM50.2,23.5a2.661,2.661,0,0,0,2.661-2.661.8.8,0,1,1,1.591,0,4.258,4.258,0,0,1-8.517,0,.8.8,0,1,1,1.591,0A2.671,2.671,0,0,0,50.2,23.5ZM45.57,12.688A2.935,2.935,0,0,1,48.5,15.616a.8.8,0,1,1-1.591,0,1.331,1.331,0,1,0-2.661,0,.8.8,0,1,1-1.591,0,2.925,2.925,0,0,1,2.916-2.928Z" transform="translate(0.595)"/>
      <path id="Path_252562" data-name="Path 252562" d="M25.32,61.4V39.037a.8.8,0,0,0-.8-.8H9.6a3.129,3.129,0,0,0-3.131,3.131V59.651A2.546,2.546,0,0,0,9.014,62.2h15.51a.8.8,0,0,0,.8-.8ZM10.936,42.366h9.77a.8.8,0,1,1,0,1.591h-9.77a.8.8,0,1,1,0-1.591Zm0,4.71h9.77a.8.8,0,1,1,0,1.591h-9.77a.8.8,0,1,1,0-1.591Zm0,4.7h9.77a.8.8,0,1,1,0,1.591h-9.77a.8.8,0,1,1,0-1.591ZM23.728,60.6H9.014a.958.958,0,0,1-.955-.955V58.489a.963.963,0,0,1,.955-.967H23.728Z" transform="translate(0 0.578)"/>
      <path id="Path_252563" data-name="Path 252563" d="M81.057,37.3A12.936,12.936,0,1,0,94,50.233,12.957,12.957,0,0,0,81.057,37.3Zm6.468,7.586-5.677,5.677V54.9a.8.8,0,0,1-1.591,0V50.237a.782.782,0,0,1,.235-.561L86.4,43.769a.8.8,0,0,1,1.126,1.126Z" transform="translate(1.132 0.56)"/>
      <path id="Path_252564" data-name="Path 252564" d="M78.044,63.584a.791.791,0,0,0-1.07.35A30.961,30.961,0,0,1,63.906,77.3a.815.815,0,0,0-.33,1.082.8.8,0,0,0,.7.426.765.765,0,0,0,.37-.1A32.56,32.56,0,0,0,78.373,64.666a.791.791,0,0,0-.35-1.07Z" transform="translate(1.047 1.041)"/>
      <path id="Path_252565" data-name="Path 252565" d="M21.246,36.7a.743.743,0,0,0,.362.084.817.817,0,0,0,.712-.434A31.348,31.348,0,0,1,36.343,22.613a.793.793,0,0,0-.7-1.424A33.027,33.027,0,0,0,20.9,35.626a.8.8,0,0,0,.338,1.07Z" transform="translate(0.263 0.263)"/>
      <path id="Path_252566" data-name="Path 252566" d="M36.343,77.82a31.232,31.232,0,0,1-14.1-13.875.8.8,0,0,0-1.42.72A32.826,32.826,0,0,0,35.643,79.252a.867.867,0,0,0,.35.084.78.78,0,0,0,.712-.446.794.794,0,0,0-.362-1.062Z" transform="translate(0.262 1.042)"/>
      <path id="Path_252567" data-name="Path 252567" d="M63.914,23.121a31.119,31.119,0,0,1,13,13.218.8.8,0,0,0,.712.434.891.891,0,0,0,.362-.084.789.789,0,0,0,.338-1.07,32.594,32.594,0,0,0-13.652-13.9.8.8,0,0,0-.752,1.412Z" transform="translate(1.047 0.272)"/>
    </g>
    <path id="Path_252568" data-name="Path 252568" d="M3.3,8.913a.681.681,0,0,1,.422-1.3l3.98,1.3a.68.68,0,0,1,.46.531l.3,1.7H30.517a.683.683,0,0,1,.648.9l-2.608,9.73a.682.682,0,0,1-.659.506H10.446l.473,2.66H27.944a.683.683,0,0,1,0,1.365h-17.6a.682.682,0,0,1-.671-.566l-.712-4c0-.018-.007-.036-.009-.055L7.223,11.944,6.89,10.083,3.3,8.912ZM24.392,28.124a2.487,2.487,0,1,1-1.757.728A2.476,2.476,0,0,1,24.392,28.124Zm.792,1.694a1.119,1.119,0,1,0,.329.792A1.116,1.116,0,0,0,25.184,29.818ZM13.655,28.124a2.487,2.487,0,1,1-1.757.728A2.476,2.476,0,0,1,13.655,28.124Zm.793,1.694a1.122,1.122,0,1,0,.328.792A1.117,1.117,0,0,0,14.448,29.818Zm-.882-10.829a.683.683,0,0,1,0-1.365h11.28a.683.683,0,0,1,0,1.365Zm0-3.189a.683.683,0,0,1,0-1.365h11.28a.683.683,0,0,1,0,1.365Z" transform="translate(332 1715.904)" fill-rule="evenodd"/>
  </g>
</svg>
