<svg xmlns="http://www.w3.org/2000/svg" width="32.512" height="26.01" viewBox="0 0 32.512 26.01">
  <g id="noun-quote-5739394" transform="translate(-2 -4)" opacity="0.202">
    <path id="Path_46" data-name="Path 46" d="M33.376,4a1.1,1.1,0,0,1,1.136,1.078A1.322,1.322,0,0,1,33.7,6.219c-2.907,1.541-6.272,6.87-6.272,10.157,4.9-.15,7.032,4.2,7.032,6.922a6.948,6.948,0,0,1-7,6.712c-5.267,0-7.852-4.14-7.852-8.627C19.61,11.661,30.72,4,33.376,4ZM15.766,4A1.1,1.1,0,0,1,16.9,5.078a1.322,1.322,0,0,1-.808,1.141c-2.907,1.541-6.272,6.87-6.272,10.157,4.9-.15,7.032,4.2,7.032,6.922a6.949,6.949,0,0,1-7,6.712C4.583,30.01,2,25.869,2,21.383,2,11.661,13.108,4,15.766,4Z" transform="translate(0)"/>
  </g>
</svg>
