<svg xmlns="http://www.w3.org/2000/svg" width="91.681" height="87.998" viewBox="0 0 91.681 87.998">
  <g id="noun-boxplot-3915310" transform="translate(-5.805 -8)">
    <g id="Group_40271" data-name="Group 40271" transform="translate(21.438 18.864)">
      <path id="Path_2268" data-name="Path 2268" d="M41,33.346h6.518V55.073H43.173v2.173H54.037V55.073H49.691V33.346H56.21V29H41Z" transform="translate(19.838 5.765)"/>
      <path id="Path_2269" data-name="Path 2269" d="M49.691,21.691V15.173h4.346V13H43.173v2.173h4.346v6.518H41v23.9H56.21v-23.9Z" transform="translate(19.838 -13)"/>
      <path id="Path_2270" data-name="Path 2270" d="M21.691,22.173h4.346V20H15.173v2.173h4.346v6.518H13V39.555H28.21V28.691H21.691Z" transform="translate(-13 -4.79)"/>
      <path id="Path_2271" data-name="Path 2271" d="M13,43.037h6.518v8.691H15.173V53.9H26.037V51.728H21.691V43.037H28.21V30H13Z" transform="translate(-13 6.937)"/>
    </g>
    <g id="Group_40272" data-name="Group 40272" transform="translate(5.805 8)">
      <path id="Path_2272" data-name="Path 2272" d="M13.171,11.683,9.488,8,5.805,11.683v3.129l2.6-2.6V96h2.173V12.213l2.6,2.6Z" transform="translate(-5.805 -8)"/>
      <path id="Path_2273" data-name="Path 2273" d="M35.691,14.173h4.346V12H29.173v2.173h4.346v8.691H27V48.937H42.21V22.864H35.691Z" transform="translate(19.052 -3.309)"/>
      <path id="Path_2274" data-name="Path 2274" d="M27,43.037h6.518V56.073H29.173v2.173H40.037V56.073H35.691V43.037H42.21V30H27Z" transform="translate(19.052 17.801)"/>
    </g>
  </g>
</svg>
