<svg xmlns="http://www.w3.org/2000/svg" width="203.494" height="151.618" viewBox="0 0 203.494 151.618">
  <g id="Group_40268" data-name="Group 40268" transform="translate(-27.532 -128)">
    <path id="Path_2197" data-name="Path 2197" d="M194.975,358.586c1.285,0,3.855-1.028,5.4-1.285a31.01,31.01,0,0,0,8.994,1.8l1.028,3.084h82.234l1.028-3.084a31.1,31.1,0,0,0,9.251-1.8c1.285.257,4.112,1.285,5.4,1.285,3.084,0,3.6-3.6,1.542-5.14-1.285-1.028-2.57.771-1.542,1.8,4.883,3.855-24.67-5.654-30.324-18.246H225.3c-5.911,12.592-35.206,21.843-30.581,18.246,1.285-1.028-.257-2.827-1.285-1.8C191.378,354.989,191.892,358.586,194.975,358.586Z" transform="translate(-122.352 -155.291)" fill-rule="evenodd"/>
    <path id="Path_2198" data-name="Path 2198" d="M274.757,242.67a22.8,22.8,0,0,0,3.6-.771,18.321,18.321,0,0,0,5.911,1.285l.514,1.8h53.452l.771-1.8a18.321,18.321,0,0,0,5.911-1.285,18,18,0,0,0,3.6.771c1.8,0,2.313-2.056.771-3.341-.514-.514-1.542.771-.771,1.285,3.084,2.313-11.05-2.57-15.933-7.2l4.883.257L315.1,218h-6.938L285.55,233.676h5.14c-3.341,2.827-19.273,9.508-15.933,6.938.771-.514-.257-1.8-1.028-1.285C272.444,240.614,272.7,242.927,274.757,242.67Z" transform="translate(-182.346 -66.872)" fill-rule="evenodd"/>
    <path id="Path_2199" data-name="Path 2199" d="M414.827,128,412,149.843h5.911Z" transform="translate(-285.668)" fill-rule="evenodd"/>
    <path id="Path_2200" data-name="Path 2200" d="M230.409,481.352a.545.545,0,1,0-.771.771c2.57,1.8-11.821-2.57-14.391-8.737H189.806c-2.57,5.911-16.7,10.536-14.391,8.737a.545.545,0,0,0-.771-.771,1.4,1.4,0,0,0,.771,2.57,9.79,9.79,0,0,0,2.57-.771,15.986,15.986,0,0,0,4.112,1.028v16.19h-3.341v5.654h-7.2V472.1a39.66,39.66,0,0,0,8.994-1.8,41.076,41.076,0,0,0,5.4,1.285c3.084,0,3.6-3.6,1.542-5.14-1.285-1.028-2.57.771-1.542,1.542,4.883,3.855-24.67-5.654-30.324-17.989H102.947c-6.168,13.363-35.463,22.1-30.581,17.989,1.285-.771-.257-2.57-1.285-1.542-2.056,1.542-1.542,5.14,1.542,5.14a41.077,41.077,0,0,0,5.4-1.285,37.241,37.241,0,0,0,8.737,1.8v33.921H79.819v-5.654h-3.6v-16.19a18.221,18.221,0,0,0,4.369-1.028,9.79,9.79,0,0,0,2.57.771,1.4,1.4,0,0,0,.771-2.57.545.545,0,1,0-.771.771c2.313,1.8-11.564-2.056-14.648-8.737H43.328c-3.084,6.681-16.961,10.536-14.648,8.737.514-.514,0-1.285-.514-.771-1.028.771-.771,2.57.514,2.57a11.585,11.585,0,0,0,2.827-.771,15.986,15.986,0,0,0,4.112,1.028v16.19h-3.6v6.167H79.562v12.335h99.451V506.536H226.3v-6.167h-3.341v-16.19a15.986,15.986,0,0,0,4.112-1.028,9.79,9.79,0,0,0,2.57.771A1.4,1.4,0,0,0,230.409,481.352ZM53.864,500.368H39.73v-16.19a106.541,106.541,0,0,0,14.134-1.285Zm18.5,0H57.976V482.893a106.686,106.686,0,0,0,14.391,1.285Zm52.681,5.654H95.238V472.357a222.477,222.477,0,0,0,29.81-3.084Zm38.29,0h-29.81V469.273a222.477,222.477,0,0,0,29.81,3.084Zm37.262-5.654H186.209v-16.19a106.687,106.687,0,0,0,14.391-1.285Zm18.246,0H204.454V482.893a106.687,106.687,0,0,0,14.391,1.285Z" transform="translate(0 -239.252)" fill-rule="evenodd"/>
  </g>
</svg>
