<svg xmlns="http://www.w3.org/2000/svg" width="154" height="154" viewBox="0 0 154 154">
  <g id="Group_41917" data-name="Group 41917" transform="translate(-0.542 -0.096)">
    <g id="Ellipse_22" data-name="Ellipse 22" transform="translate(0.542 0.096)" fill="#eff8ff" stroke="#b0d3f4" stroke-width="0.5">
      <circle cx="77" cy="77" r="77" stroke="none"/>
      <circle cx="77" cy="77" r="76.75" fill="none"/>
    </g>
    <g id="Group_104" data-name="Group 104" transform="translate(26.34 8.979)">
      <path id="Path_1686" data-name="Path 1686" d="M633.485,415.673H587.751c-.76,0-1.377-.248-1.378-.551V408.94c0-.3.617-.551,1.378-.551h45.734c.76,0,1.377.248,1.378.551v6.18c0,.3-.617.551-1.378.551Z" transform="translate(-545.382 -337.629)" fill="#f1f1f1"/>
      <path id="Path_1689" data-name="Path 1689" d="M621.957,320.55l-.051-.037h0a.619.619,0,0,0-.865.128L610.745,334.5h-1.133v-.266a.248.248,0,0,0-.247-.248h-.676a.247.247,0,0,0-.247.248v.266h-.391v-.266a.248.248,0,0,0-.247-.248h-.676a.248.248,0,0,0-.247.248v.266h-.39v-.266a.248.248,0,0,0-.247-.248h-.676a.248.248,0,0,0-.248.248v.266h-.391v-.266a.248.248,0,0,0-.247-.248h-.676a.248.248,0,0,0-.248.248v.266h-.39v-.266a.248.248,0,0,0-.247-.248h-.676a.248.248,0,0,0-.247.248v.266h-.391v-.266a.248.248,0,0,0-.247-.248h-.676a.248.248,0,0,0-.248.248v.266h-.391v-.266a.248.248,0,0,0-.247-.248h-.676a.248.248,0,0,0-.247.248v.266h-.391v-.266a.248.248,0,0,0-.247-.248h-.676a.248.248,0,0,0-.247.248v.266h-.391v-.266a.248.248,0,0,0-.247-.248H596.2a.248.248,0,0,0-.247.248v.266h-.39v-.266a.248.248,0,0,0-.247-.248h-.676a.248.248,0,0,0-.248.248v.266h-.49a.619.619,0,0,0-.619.619v.59a.619.619,0,0,0,.619.619h16.742a.922.922,0,0,0,.9-.735l.006,0,10.532-14.18h0a.619.619,0,0,0-.128-.865Z" transform="translate(-551.095 -265.859)" fill="#090814"/>
      <g id="Group_41871" data-name="Group 41871" transform="translate(51.784 0)">
        <path id="Path_1718" data-name="Path 1718" d="M685.364,270.491H634.892V239.069h50.472Zm-49.3-1.174H684.19V240.243H636.066Z" transform="translate(-634.892 -226.285)" fill="#e5e5e5"/>
        <rect id="Rectangle_408" data-name="Rectangle 408" width="49.298" height="30.248" transform="translate(0.587 13.371)" fill="#fff"/>
        <path id="Path_1719" data-name="Path 1719" d="M688.281,250.826v-1.857h-6.839V243.16h-1.857v5.809H667.41V243.16h-1.857v5.809H646.774V243.16h-1.857v5.809h-5.934v1.857h5.934v7.223h-5.934v1.857h5.934v7.738h-5.934V269.5h15.942v3.906h1.857V269.5h8.77v3.906h1.857V269.5h20.871v-1.857H667.41v-7.738h20.871v-1.857h-6.839v-7.223Zm-22.728,0v2.27H646.774v-2.27Zm-18.779,4.127h18.779v3.1H646.774Zm0,12.691v-7.738h8.151v7.738Zm18.779,0h-8.77v-7.738h8.77Zm14.032-9.6H667.41v-7.223h12.175Z" transform="translate(-638.396 -229.789)" fill="#e6e6e6"/>
        <path id="Path_1720" data-name="Path 1720" d="M786.711,158.905c0,4.918-8.906,15.875-8.906,15.875s-8.906-10.957-8.906-15.875a8.906,8.906,0,0,1,17.811,0Z" transform="translate(-749.666 -150)" fill="#026dd5"/>
        <path id="Path_1721" data-name="Path 1721" d="M810.728,185.056a4.071,4.071,0,1,1-4.071-4.071,4.071,4.071,0,0,1,4.071,4.071Z" transform="translate(-778.517 -176.538)" fill="#fff" style="isolation: isolate"/>
        <circle id="Ellipse_361" data-name="Ellipse 361" cx="2.401" cy="2.401" r="2.401" transform="translate(25.739 26.407)" fill="#026dd5"/>
      </g>
      <g id="Group_41904" data-name="Group 41904" transform="translate(0 16.852)">
        <path id="Path_1648" data-name="Path 1648" d="M6.171,3.9a11.657,11.657,0,0,0,0,5.263L2.9,9.619,0,8.168V6.261A13.085,13.085,0,0,0,1,0Z" transform="translate(26.152 9.347) rotate(9)" fill="#ffb9b9"/>
        <path id="Path_1690" data-name="Path 1690" d="M255.5,513.462l3.975,1.977,4.72-8.735-4.09-2.242Z" transform="translate(-253.2 -405.622)" fill="#ffb7b7"/>
        <path id="Path_1692" data-name="Path 1692" d="M394.312,525.684h3.821l.9-10.109h-4.717Z" transform="translate(-364.677 -414.482)" fill="#ffb7b7"/>
        <path id="Path_1694" data-name="Path 1694" d="M450.226,300.13s-1.755-1.345-1.755,1.94l-.277,10.854,3.094,10.253,1.8-3.325-.739-7.205Z" transform="translate(-432.85 -272.094)" fill="#c5d8ff"/>
        <path id="Path_1695" data-name="Path 1695" d="M422.164,438.571s2.035,9.911-.544,18.045L420.2,487.89l-5.223-.408-1.83-23.2-1.764-11.533-3.664,10.515-12.076,22.251-5.563-4.342s6.164-16.82,10.719-20.352l2.284-26.014Z" transform="translate(-386.014 -380.139)" fill="#090814"/>
        <circle id="Ellipse_359" data-name="Ellipse 359" cx="5.956" cy="5.956" r="5.956" transform="translate(21.875 10.897) rotate(-61.337)" fill="#ffb7b7"/>
        <path id="Path_1696" data-name="Path 1696" d="M496.679,168.178c.714.093,1.253-.638,1.5-1.313s.44-1.462,1.061-1.826c.848-.5,1.933.1,2.9-.063a2.544,2.544,0,0,0,1.864-2.456,7.428,7.428,0,0,0-.819-3.2l-.151,1.271a2.522,2.522,0,0,0-1.1-2.2l.194,1.865a1.98,1.98,0,0,0-2.278-1.638l.031,1.112a18.359,18.359,0,0,0-3.81-.186,5.5,5.5,0,0,0-5.3,6.557,16.374,16.374,0,0,0,1.776,5.4c.205.433.489.922.966.977a.973.973,0,0,0,.952-.718,2.6,2.6,0,0,0-.012-1.278,5.437,5.437,0,0,1-.159-1.934,1.576,1.576,0,0,1,1.22-1.353c.646-.078,1.307.66,1,1.232Z" transform="translate(-467.142 -158.388)" fill="#090814"/>
        <path id="Path_1697" data-name="Path 1697" d="M347.238,278.4l-19.881-1.283,1.5-6.2,18.171,4.062Z" transform="translate(-310.72 -217.831)" fill="#d6d6e3"/>
        <path id="Path_1698" data-name="Path 1698" d="M450.4,236.97l1.247-1.731a50.187,50.187,0,0,1,5.127,2.332l.264,1.622,6.48,39.853-11.778-.508-3.207-.068-1.05-2.353-1.294,2.3-3.132-.067-3.187-1.847,3.141-9.607,1.016-8.775-1.57-8.267a10.528,10.528,0,0,1,5.635-11.686Z" transform="translate(-426.141 -220.321)" fill="#c5d8ff"/>
        <path id="Path_1699" data-name="Path 1699" d="M591.342,373.862a2.036,2.036,0,0,1-2.532-1.826l-6.988-1.872,2.811-2.5,6.205,2.161a2.047,2.047,0,0,1,.5,4.033Z" transform="translate(-540.539 -326.667)" fill="#ffb7b7"/>
        <path id="Path_1700" data-name="Path 1700" d="M511.633,291.192a1.192,1.192,0,0,1-.968.078l-11.494-4.363a12.274,12.274,0,0,1-6.607-5.568l-4.793-8.551a3.837,3.837,0,0,1,5.725-5.11l8.3,13.15,10.441,6.121a1.2,1.2,0,0,1,.508,1.271l-.519,2.2a1.19,1.19,0,0,1-.589.772Z" transform="translate(-463.959 -245.195)" fill="#c5d8ff"/>
        <path id="Path_1400" data-name="Path 1400" d="M286.092,792.282l4.384,2.243s6.86,1.635,2.394,2.995-6.477.393-6.477.393-5.843.3-5.749-1.326a13.18,13.18,0,0,1,1.218-3.923S285.772,793.685,286.092,792.282Z" transform="translate(-252.576 -681.976)" fill="#090814"/>
        <path id="Path_1745" data-name="Path 1745" d="M5.787,0,9.834,2.043s6.86,1.635,2.394,2.994-6.477.393-6.477.393S-.093,5.735,0,4.1A13.178,13.178,0,0,1,1.219.182S5.467,1.4,5.787,0Z" transform="matrix(0.961, 0.276, -0.276, 0.961, 1.589, 106.642)" fill="#090814"/>
      </g>
      <path id="Path_1746" data-name="Path 1746" d="M51.281,4.571H1.5c-.828,0-1.5-.156-1.5-.346V.346C0,.156.672,0,1.5,0H51.281c.828,0,1.5.156,1.5.346V4.225c0,.19-.672.346-1.5.346Z" transform="translate(67.522 78.825) rotate(90)" fill="#f1f1f1"/>
    </g>
  </g>
</svg>
