<svg xmlns="http://www.w3.org/2000/svg" width="139.187" height="151.618" viewBox="0 0 139.187 151.618">
  <g id="retail" transform="translate(-8.254 -4.524)">
    <path id="Path_2189" data-name="Path 2189" d="M36.053,86.259a5.92,5.92,0,1,0-5.919-5.919A5.929,5.929,0,0,0,36.053,86.259ZM34.2,78.484a2.624,2.624,0,1,1,1.856,4.48A2.623,2.623,0,0,1,34.2,78.484Zm110.452-25.9a11.7,11.7,0,0,0-.9-.807,5.675,5.675,0,0,0,2.781-5.678l-3.243-24.087a5.622,5.622,0,0,0-5.626-4.916h-3.51V15.308a10.784,10.784,0,0,0-21.567,0V17.1h-3.5a5.618,5.618,0,0,0-5.411,3.953H75.39A1.645,1.645,0,0,0,73.743,22.7v4.448l-9.885-17.12A1.657,1.657,0,0,0,61.6,9.42L43.216,20.041a1.651,1.651,0,0,0-.606,2.253L58.167,49.24h-.82a11.57,11.57,0,0,0-9,3.972L45.293,33.443a1.646,1.646,0,0,0-1.628-1.394H24.533a1.648,1.648,0,0,0,0,3.3H42.252l3.575,23.11L42,58a10.041,10.041,0,0,0-8.446,2.917l-22.31,22.31a10.234,10.234,0,0,0,0,14.456l18.734,18.734a10.234,10.234,0,0,0,14.456,0l8.973-8.967.521,3.38a11.034,11.034,0,0,0,5.62,7.853,11.3,11.3,0,0,0,6.746,19.971,10.386,10.386,0,1,0,15.146.013h42.274a10.385,10.385,0,1,0,7.58-3.295H66.767a8.009,8.009,0,0,1-1.856-15.8c.2-.033.4-.072.593-.117l71.121-17.425c2.956-.723,10.816-2.65,10.816-8.875L147.435,60.4c0-2.494-.332-5.372-2.787-7.814ZM64.418,91.775,42.1,114.084a6.929,6.929,0,0,1-9.794,0L13.575,95.351a6.929,6.929,0,0,1,0-9.794l22.31-22.31a6.719,6.719,0,0,1,5.724-1.98l6.381.768L58.337,63.28a6.823,6.823,0,0,1,6.049,6.049l2.006,16.728a6.688,6.688,0,0,1-1.973,5.717Zm9.325-42.542H61.977L46.29,22.066l15.537-8.973L73.743,33.728ZM115.88,15.306a7.489,7.489,0,0,1,14.977,0V17.1H115.88Zm-15.2,33.927H77.044V24.344h26.092l-2.93,21.749a5.45,5.45,0,0,0,.469,3.139Zm40.23,0H105.833a2.361,2.361,0,0,1-2.357-2.7l3.243-24.08a2.359,2.359,0,0,1,2.357-2.064h3.5V25.83a1.648,1.648,0,0,0,3.295,0V20.393h14.977V25.83a1.648,1.648,0,0,0,3.3,0V20.393h3.51a2.365,2.365,0,0,1,2.364,2.064l3.249,24.08a2.366,2.366,0,0,1-2.364,2.7ZM60.147,67.512a5.558,5.558,0,1,1-7.86,0,5.566,5.566,0,0,1,7.86,0ZM49.963,86.935A1.649,1.649,0,0,1,48.8,88.954L26.748,94.86a1.648,1.648,0,0,1-.853-3.184L47.944,85.77A1.644,1.644,0,0,1,49.963,86.935ZM34.452,96.1a5.92,5.92,0,1,0,8.374,0A5.925,5.925,0,0,0,34.452,96.1Zm6.043,6.043a2.624,2.624,0,1,1,0-3.712A2.628,2.628,0,0,1,40.495,102.14Z"/>
  </g>
</svg>
