<svg xmlns="http://www.w3.org/2000/svg" width="102.144" height="648.109" viewBox="0 0 102.144 648.109">
  <path id="Path_29306" data-name="Path 29306" d="M10.507-94.164H43.225a66.654,66.654,0,0,1,13.1,1.264,33.546,33.546,0,0,1,11.239,4.322,22.609,22.609,0,0,1,7.847,8.246q2.926,5.187,2.926,13.167,0,10.241-5.652,17.157t-16.16,8.379L81.529,0H61.313L39.5-39.9H27.265V0H10.507ZM40.3-54.264q3.591,0,7.182-.333a22.055,22.055,0,0,0,6.584-1.6,11.236,11.236,0,0,0,4.854-3.857A12.258,12.258,0,0,0,60.781-67.3a11.565,11.565,0,0,0-1.729-6.65,10.745,10.745,0,0,0-4.522-3.791A20.816,20.816,0,0,0,48.346-79.4a56.353,56.353,0,0,0-6.583-.4h-14.5v25.536Zm65.3,27.93q.8,7.182,5.586,11.172a17.481,17.481,0,0,0,11.571,3.99,19.046,19.046,0,0,0,10.042-2.46,27.837,27.837,0,0,0,7.115-6.185l11.438,8.645a32.416,32.416,0,0,1-12.5,9.842,36.832,36.832,0,0,1-14.5,2.926A38.316,38.316,0,0,1,110.789-.8,32.538,32.538,0,0,1,99.75-7.581a32.186,32.186,0,0,1-7.382-10.574A33.762,33.762,0,0,1,89.642-31.92a33.762,33.762,0,0,1,2.727-13.765A32.187,32.187,0,0,1,99.75-56.259a32.538,32.538,0,0,1,11.039-6.783,38.316,38.316,0,0,1,13.566-2.394,31.012,31.012,0,0,1,12.17,2.328,26.1,26.1,0,0,1,9.443,6.717,31.023,31.023,0,0,1,6.118,10.839,45.984,45.984,0,0,1,2.195,14.83v4.389ZM138.32-38.3q-.133-7.049-4.389-11.105t-11.837-4.057q-7.182,0-11.371,4.123A18.4,18.4,0,0,0,105.6-38.3Zm23.408-11.97V-63.84H174.9V-82.327h15.96V-63.84h17.556v13.566H190.855v27.93a13.9,13.9,0,0,0,1.8,7.581q1.8,2.793,7.115,2.793a25.835,25.835,0,0,0,4.655-.465,9.754,9.754,0,0,0,3.99-1.529V-.532a20.533,20.533,0,0,1-6.185,1.663,51.815,51.815,0,0,1-6.451.465A32.657,32.657,0,0,1,185.336.2a13.775,13.775,0,0,1-6.384-4.256,16.16,16.16,0,0,1-3.192-7.115,49.85,49.85,0,0,1-.865-9.842v-29.26ZM221.312-63.84h15.96V0h-15.96Zm-2.261-21.679a9.194,9.194,0,0,1,2.859-6.716,9.822,9.822,0,0,1,7.249-2.859,10.554,10.554,0,0,1,7.382,2.726,8.874,8.874,0,0,1,2.993,6.85,8.874,8.874,0,0,1-2.993,6.85,10.554,10.554,0,0,1-7.382,2.726A9.822,9.822,0,0,1,221.91-78.8,9.194,9.194,0,0,1,219.051-85.519Zm36.575-15.029h15.96v44.821h.4a22.718,22.718,0,0,1,3.059-3.258,24.471,24.471,0,0,1,4.522-3.125,27.5,27.5,0,0,1,6.118-2.394,30.819,30.819,0,0,1,7.98-.931,29.914,29.914,0,0,1,12.5,2.594,29.12,29.12,0,0,1,9.775,7.115,32.744,32.744,0,0,1,6.318,10.64A37.686,37.686,0,0,1,324.52-31.92a39.808,39.808,0,0,1-2.128,13.167,30.422,30.422,0,0,1-6.251,10.64A29.48,29.48,0,0,1,306.166-1,32.165,32.165,0,0,1,293,1.6a30.171,30.171,0,0,1-12.635-2.66,20.527,20.527,0,0,1-9.31-8.512h-.266V0H255.626ZM308.56-31.92A20.765,20.765,0,0,0,307.3-39.1a18.024,18.024,0,0,0-3.724-6.118,18.551,18.551,0,0,0-5.919-4.256,18.52,18.52,0,0,0-7.847-1.6,18.52,18.52,0,0,0-7.847,1.6,18.551,18.551,0,0,0-5.918,4.256,18.023,18.023,0,0,0-3.724,6.118,20.765,20.765,0,0,0-1.263,7.182,20.765,20.765,0,0,0,1.263,7.182,18.023,18.023,0,0,0,3.724,6.118,18.551,18.551,0,0,0,5.918,4.256,18.52,18.52,0,0,0,7.847,1.6,18.52,18.52,0,0,0,7.847-1.6,18.551,18.551,0,0,0,5.919-4.256,18.024,18.024,0,0,0,3.724-6.118A20.765,20.765,0,0,0,308.56-31.92ZM379.316-8.778h-.4a20.55,20.55,0,0,1-8.778,7.913,27.542,27.542,0,0,1-11.7,2.461A31.074,31.074,0,0,1,349.857.4a23.234,23.234,0,0,1-7.448-3.591,18.45,18.45,0,0,1-5.254-5.985,16.975,16.975,0,0,1-1.995-8.379,19.309,19.309,0,0,1,1.862-8.845,18.164,18.164,0,0,1,4.988-6.118,25.276,25.276,0,0,1,7.248-3.923,49.653,49.653,0,0,1,8.579-2.194,76.055,76.055,0,0,1,8.977-.931q4.522-.2,8.512-.2h3.99V-41.5q0-5.985-4.123-8.977a17.438,17.438,0,0,0-10.507-2.993,24.7,24.7,0,0,0-9.443,1.8,23.908,23.908,0,0,0-7.581,4.855l-8.379-8.379a30.937,30.937,0,0,1,12.435-7.847,45.782,45.782,0,0,1,14.7-2.394,37.006,37.006,0,0,1,11.438,1.53,25.164,25.164,0,0,1,7.714,3.924,17.348,17.348,0,0,1,4.721,5.52,25.623,25.623,0,0,1,2.394,6.318,34.554,34.554,0,0,1,.865,6.185q.133,2.992.133,5.253V0H379.316ZM378.385-28.6H375.06q-3.325,0-7.448.266a39.077,39.077,0,0,0-7.78,1.264,17.793,17.793,0,0,0-6.185,2.926,6.389,6.389,0,0,0-2.527,5.386,6.8,6.8,0,0,0,1,3.791,9.033,9.033,0,0,0,2.594,2.593,10.86,10.86,0,0,0,3.591,1.53,17.507,17.507,0,0,0,3.99.465q8.246,0,12.169-3.924T378.385-25Zm27.93,13.832L440.5-50.806v-.266H407.911V-63.84h51.87v14.5L425.2-12.768h36.176V0H406.315ZM514.843-8.778h-.4a20.55,20.55,0,0,1-8.778,7.913,27.542,27.542,0,0,1-11.7,2.461A31.074,31.074,0,0,1,485.383.4a23.234,23.234,0,0,1-7.448-3.591,18.45,18.45,0,0,1-5.254-5.985,16.975,16.975,0,0,1-1.995-8.379,19.309,19.309,0,0,1,1.862-8.845,18.164,18.164,0,0,1,4.988-6.118,25.276,25.276,0,0,1,7.248-3.923,49.653,49.653,0,0,1,8.579-2.194,76.055,76.055,0,0,1,8.977-.931q4.522-.2,8.512-.2h3.99V-41.5q0-5.985-4.123-8.977a17.438,17.438,0,0,0-10.507-2.993,24.7,24.7,0,0,0-9.443,1.8,23.908,23.908,0,0,0-7.581,4.855l-8.379-8.379a30.937,30.937,0,0,1,12.435-7.847,45.782,45.782,0,0,1,14.7-2.394,37.006,37.006,0,0,1,11.438,1.53,25.165,25.165,0,0,1,7.714,3.924,17.348,17.348,0,0,1,4.721,5.52,25.624,25.624,0,0,1,2.394,6.318,34.557,34.557,0,0,1,.865,6.185q.133,2.992.133,5.253V0H514.843ZM513.912-28.6h-3.325q-3.325,0-7.448.266a39.077,39.077,0,0,0-7.78,1.264,17.793,17.793,0,0,0-6.185,2.926,6.389,6.389,0,0,0-2.527,5.386,6.8,6.8,0,0,0,1,3.791,9.033,9.033,0,0,0,2.594,2.593,10.86,10.86,0,0,0,3.591,1.53,17.507,17.507,0,0,0,3.99.465q8.246,0,12.169-3.924T513.912-25ZM586.264-8.778h-.4a20.55,20.55,0,0,1-8.778,7.913,27.542,27.542,0,0,1-11.7,2.461A31.074,31.074,0,0,1,556.8.4a23.234,23.234,0,0,1-7.448-3.591A18.45,18.45,0,0,1,544.1-9.177a16.974,16.974,0,0,1-1.995-8.379A19.309,19.309,0,0,1,543.97-26.4a18.164,18.164,0,0,1,4.987-6.118,25.277,25.277,0,0,1,7.248-3.923,49.652,49.652,0,0,1,8.578-2.194,76.054,76.054,0,0,1,8.978-.931q4.522-.2,8.512-.2h3.99V-41.5q0-5.985-4.123-8.977a17.438,17.438,0,0,0-10.507-2.993,24.7,24.7,0,0,0-9.443,1.8,23.908,23.908,0,0,0-7.581,4.855l-8.379-8.379a30.937,30.937,0,0,1,12.435-7.847,45.781,45.781,0,0,1,14.7-2.394,37.006,37.006,0,0,1,11.438,1.53,25.165,25.165,0,0,1,7.714,3.924,17.348,17.348,0,0,1,4.721,5.52,25.624,25.624,0,0,1,2.394,6.318,34.557,34.557,0,0,1,.865,6.185q.133,2.992.133,5.253V0H586.264ZM585.333-28.6h-3.325q-3.325,0-7.448.266a39.078,39.078,0,0,0-7.781,1.264,17.793,17.793,0,0,0-6.184,2.926,6.389,6.389,0,0,0-2.527,5.386,6.8,6.8,0,0,0,1,3.791,9.032,9.032,0,0,0,2.594,2.593,10.86,10.86,0,0,0,3.591,1.53,17.507,17.507,0,0,0,3.99.465q8.246,0,12.169-3.924T585.333-25ZM617.785-63.84h15.96v10.108h.266a20.053,20.053,0,0,1,7.581-8.645,20.967,20.967,0,0,1,11.3-3.059,15.248,15.248,0,0,1,2.859.266q1.4.266,2.859.665v15.428q-2-.532-3.924-.864a22.282,22.282,0,0,0-3.79-.333,17.144,17.144,0,0,0-8.977,2.061,16.356,16.356,0,0,0-5.187,4.722,15.7,15.7,0,0,0-2.394,5.32,20.055,20.055,0,0,0-.6,3.99V0h-15.96Z" transform="translate(100.548 658.616) rotate(-90)" opacity="0.046"/>
</svg>
