<svg xmlns="http://www.w3.org/2000/svg" width="154" height="154" viewBox="0 0 154 154">
  <g id="Group_41908" data-name="Group 41908" transform="translate(-0.654 -0.191)">
    <g id="Ellipse_23" data-name="Ellipse 23" transform="translate(0.654 0.191)" fill="#eff8ff" stroke="#b0d3f4" stroke-width="0.5">
      <circle cx="77" cy="77" r="77" stroke="none"/>
      <circle cx="77" cy="77" r="76.75" fill="none"/>
    </g>
    <g id="Group_41901" data-name="Group 41901" transform="translate(22.619 20.801)">
      <g id="freepik--Survey--inject-145" transform="translate(0)">
        <path id="Path_251811" data-name="Path 251811" d="M177.765,101.45H108.05l5.417,94.941h69.711Z" transform="translate(-108.05 -96.972)" fill="#263238"/>
        <path id="Path_251812" data-name="Path 251812" d="M181.355,101.45H111.64l5.417,94.941h69.715Z" transform="translate(-110.286 -96.972)" fill="#e6e6e6"/>
        <path id="Path_251813" data-name="Path 251813" d="M181.815,109.91H120.09l4.425,85.94h63.328Z" transform="translate(-115.548 -102.241)" opacity="0.5"/>
        <path id="Path_251814" data-name="Path 251814" d="M120.09,109.91c4.587,28.648,1.441,57.3,6.036,85.94h63.321c-4.587-28.644-1.441-57.292-6.036-85.94Z" transform="translate(-115.548 -102.241)" fill="#fff"/>
        <g id="Group_41898" data-name="Group 41898" transform="translate(11.435 32.352)" opacity="0.3">
          <path id="Path_251815" data-name="Path 251815" d="M144.415,176.407a5.459,5.459,0,0,1,5.41,5.217,4.957,4.957,0,0,1-5,5.164,5.41,5.41,0,0,1-5.361-5.195,4.991,4.991,0,0,1,1.369-3.656,4.923,4.923,0,0,1,3.584-1.509m-.038-1.09a5.979,5.979,0,0,0-6.01,6.274,6.53,6.53,0,0,0,6.47,6.274,6.036,6.036,0,0,0,6.081-6.274A6.59,6.59,0,0,0,144.378,175.34Z" transform="translate(-138.361 -175.34)" fill="#407bff"/>
        </g>
        <path id="Path_251816" data-name="Path 251816" d="M212.447,302.92H192.453a1.053,1.053,0,0,0-1.064,1.169h0a1.324,1.324,0,0,0,1.286,1.173H212.67a1.045,1.045,0,0,0,1.056-1.173h0A1.317,1.317,0,0,0,212.447,302.92Z" transform="translate(-159.946 -222.438)" fill="#e0e0e0"/>
        <path id="Path_251817" data-name="Path 251817" d="M222.447,289.87H191.355a1.068,1.068,0,0,0-1.083,1.17h0a1.283,1.283,0,0,0,1.26,1.173h31.077a1.068,1.068,0,0,0,1.094-1.162h0A1.279,1.279,0,0,0,222.447,289.87Z" transform="translate(-159.251 -214.311)" fill="#e0e0e0"/>
        <g id="Group_41899" data-name="Group 41899" transform="translate(12.019 52.633)" opacity="0.3">
          <path id="Path_251818" data-name="Path 251818" d="M146.018,230.194a5.38,5.38,0,0,1,5.338,5.195,5,5,0,0,1-1.392,3.655,4.942,4.942,0,0,1-3.6,1.509,5.413,5.413,0,0,1-5.372-5.195,4.995,4.995,0,0,1,5.025-5.164m0-1.094h0a6.07,6.07,0,0,0-6.1,6.274,6.538,6.538,0,0,0,6.5,6.277,6.036,6.036,0,0,0,6.055-6.277A6.492,6.492,0,0,0,146.018,229.1Z" transform="translate(-139.911 -229.1)" fill="#407bff"/>
        </g>
        <path id="Path_251819" data-name="Path 251819" d="M198.139,184.623H187.444a1.226,1.226,0,0,1-1.215-1.173h0a1.132,1.132,0,0,1,1.132-1.169h10.691a1.234,1.234,0,0,1,1.222,1.169h0a1.132,1.132,0,0,1-1.136,1.173Z" transform="translate(-156.736 -147.309)" fill="#e0e0e0"/>
        <path id="Path_251820" data-name="Path 251820" d="M236.551,184.623h-7.243a1.23,1.23,0,0,1-1.218-1.173h0a1.132,1.132,0,0,1,1.132-1.169h7.247a1.23,1.23,0,0,1,1.219,1.169h0a1.132,1.132,0,0,1-1.136,1.173Z" transform="translate(-182.805 -147.309)" fill="#e0e0e0"/>
        <path id="Path_251821" data-name="Path 251821" d="M216.608,197.673H187.9a1.219,1.219,0,0,1-1.211-1.173h0a1.132,1.132,0,0,1,1.132-1.169h28.7a1.215,1.215,0,0,1,1.207,1.169h0a1.132,1.132,0,0,1-1.124,1.173Z" transform="translate(-157.022 -155.436)" fill="#e0e0e0"/>
        <g id="Group_41900" data-name="Group 41900" transform="translate(13.046 72.916)" opacity="0.3">
          <path id="Path_251822" data-name="Path 251822" d="M148.532,283.958a5.719,5.719,0,0,1,5.583,5.2,4.772,4.772,0,0,1-1.173,3.652,4.606,4.606,0,0,1-3.493,1.509,5.825,5.825,0,0,1-5.7-5.195,4.708,4.708,0,0,1,1.23-3.656,4.776,4.776,0,0,1,3.55-1.509m-.053-1.09a5.734,5.734,0,0,0-5.821,6.274,7.049,7.049,0,0,0,6.9,6.274,5.619,5.619,0,0,0,5.659-6.274,6.881,6.881,0,0,0-6.73-6.274Z" transform="translate(-142.632 -282.867)" fill="#407bff"/>
        </g>
        <path id="Path_251823" data-name="Path 251823" d="M222.447,249.13H189.321a1.132,1.132,0,0,0-1.132,1.169h0a1.222,1.222,0,0,0,1.211,1.169h33.141a1.132,1.132,0,0,0,1.132-1.169h0a1.215,1.215,0,0,0-1.226-1.169Z" transform="translate(-157.957 -188.941)" fill="#e0e0e0"/>
        <path id="Path_251824" data-name="Path 251824" d="M214.359,236.07H188.941a1.132,1.132,0,0,0-1.132,1.173h0a1.211,1.211,0,0,0,1.2,1.169h25.422a1.132,1.132,0,0,0,1.132-1.169h0A1.207,1.207,0,0,0,214.359,236.07Z" transform="translate(-157.72 -180.807)" fill="#e0e0e0"/>
        <path id="Path_251825" data-name="Path 251825" d="M149.055,187.341l-.445-.732a12.472,12.472,0,0,0-3.72-3.437l.528-.936a14.428,14.428,0,0,1,3.652,3.154,35.19,35.19,0,0,1,7.119-6.76l.683.883a32.658,32.658,0,0,0-7.345,7.141C149.372,186.884,149.213,187.114,149.055,187.341Z" transform="translate(-130.992 -145.036)" fill="#016dd5"/>
        <path id="Path_251826" data-name="Path 251826" d="M150.561,241.134c-.147-.245-.3-.49-.449-.732a12.672,12.672,0,0,0-3.712-3.44l.536-.936a14.465,14.465,0,0,1,3.633,3.154,34.726,34.726,0,0,1,7.19-6.76l.668.883a31.956,31.956,0,0,0-7.4,7.141Z" transform="translate(-131.933 -178.534)" fill="#016dd5"/>
        <path id="Path_251827" data-name="Path 251827" d="M153.574,295.061l-.5-.732a13.82,13.82,0,0,0-3.916-3.437l.49-.936a15.862,15.862,0,0,1,3.806,3.15,31.157,31.157,0,0,1,6.851-6.756l.706.883A28.529,28.529,0,0,0,154,294.374Z" transform="translate(-133.651 -212.12)" fill="#016dd5"/>
        <path id="Path_251830" data-name="Path 251830" d="M194.91,124.539a12.351,12.351,0,0,0-6.79,1.954q1.509,2.173,2.973,4.346a7.922,7.922,0,0,1,4.4-1.29,9.148,9.148,0,0,1,4.15,1.022q1.041-2.173,2.041-4.342a14.788,14.788,0,0,0-6.772-1.69Z" transform="translate(-157.914 -111.351)" fill="#407bff"/>
        <g id="Group_42002" data-name="Group 42002">
          <path id="Path_251828" data-name="Path 251828" d="M220.731,129q-1,2.173-2.041,4.342a9.337,9.337,0,0,1,5.146,7.575h5.014A14.769,14.769,0,0,0,220.731,129Z" transform="translate(-176.952 -114.129)" fill="#016dd5"/>
          <path id="Path_251829" data-name="Path 251829" d="M173.419,141.373h5.014a7.986,7.986,0,0,1,3.486-7.307q-1.464-2.173-2.973-4.346A12.669,12.669,0,0,0,173.419,141.373Z" transform="translate(-148.74 -114.578)" fill="#263238"/>
          <path id="Path_251831" data-name="Path 251831" d="M194.91,124.539a12.351,12.351,0,0,0-6.79,1.954q1.509,2.173,2.973,4.346a7.922,7.922,0,0,1,4.4-1.29,9.148,9.148,0,0,1,4.15,1.022q1.041-2.173,2.041-4.342a14.788,14.788,0,0,0-6.772-1.69Z" transform="translate(-157.914 -111.35)" fill="#016dd5" opacity="0.101"/>
          <path id="Path_251832" data-name="Path 251832" d="M212.331,151.51s-5.063,2.071-5.6,2.448a1.2,1.2,0,0,0-.215,1.709,1.264,1.264,0,0,0,1.728.328C208.8,155.6,212.338,151.51,212.331,151.51Zm-5.319,3.772a.592.592,0,0,1,.106-.841.63.63,0,0,1,.853.162.592.592,0,0,1-.106.841.63.63,0,0,1-.853-.147Z" transform="translate(-169.209 -128.146)" fill="#263238"/>
        </g>
        <path id="Path_251845" data-name="Path 251845" d="M191.677,97.495a7.618,7.618,0,0,0-6.885-4.119h-6.036a2.354,2.354,0,0,1-2.094-1.094,5.785,5.785,0,0,0-5.127-2.7,5.079,5.079,0,0,0-4.814,2.7,2.065,2.065,0,0,1-1.969,1.094h-6.036a6.636,6.636,0,0,0-6.413,4.12.611.611,0,0,0-.038.272.755.755,0,0,0,.755.717h38.056a.675.675,0,0,0,.6-.988Zm-19.9-3.437a1.8,1.8,0,0,1-1.762-1.679A1.569,1.569,0,0,1,171.6,90.7a1.8,1.8,0,0,1,1.777,1.679,1.569,1.569,0,0,1-1.6,1.679Z" transform="translate(-135.584 -89.58)" fill="#263238"/>
      </g>
      <g id="freepik--Character--inject-145" transform="translate(64.071 8.79)">
        <path id="Path_251846" data-name="Path 251846" d="M358.909,407.983a1.161,1.161,0,0,1-.806-.2.251.251,0,0,1-.026-.276.269.269,0,0,1,.185-.149c.428-.12,1.419.41,1.452.436a.062.062,0,0,1,.036.065.055.055,0,0,1-.044.051A4.688,4.688,0,0,1,358.909,407.983Zm-.479-.515a.4.4,0,0,0-.12,0,.164.164,0,0,0-.116.087.175.175,0,0,0,0,.142c.145.171.82.174,1.307.105A3.14,3.14,0,0,0,358.43,407.468Z" transform="translate(-328.95 -300.45)" fill="#407bff"/>
        <path id="Path_251847" data-name="Path 251847" d="M360.772,406.8h-.025c-.338-.145-1.042-.726-1.027-1.024,0-.073.044-.16.218-.178a.516.516,0,0,1,.363.109,2.05,2.05,0,0,1,.53,1.027.066.066,0,0,1,0,.058A.062.062,0,0,1,360.772,406.8ZM360,405.709h-.036c-.113,0-.116.054-.116.069,0,.182.476.635.828.831a1.691,1.691,0,0,0-.447-.82.363.363,0,0,0-.229-.073Z" transform="translate(-330.015 -299.338)" fill="#407bff"/>
        <path id="Path_251848" data-name="Path 251848" d="M364.323,397.9h-2.668l-.955-6.178h2.668Z" transform="translate(-330.64 -290.499)" fill="#ffc3bd"/>
        <path id="Path_251849" data-name="Path 251849" d="M354.932,407.89h2.9a.268.268,0,0,1,.247.181l.791,2.37a.363.363,0,0,1-.33.472c-1.053,0-2.577-.076-3.9-.076-1.543,0-1.4.084-3.216.084-1.089,0-1.521-1.107-1.089-1.209a8.293,8.293,0,0,0,3.949-1.615A1.121,1.121,0,0,1,354.932,407.89Z" transform="translate(-323.935 -300.8)" fill="#263238"/>
        <path id="Path_251850" data-name="Path 251850" d="M360.7,391.73l.494,3.184h2.668l-.494-3.184Z" transform="translate(-330.64 -290.506)" opacity="0.2"/>
        <path id="Path_251851" data-name="Path 251851" d="M366.655,225.45l-1.815,1.833,2.781.984s1.089-1.5.323-2.519Z" transform="translate(-333.277 -184.586)" fill="#ffc3bd"/>
        <path id="Path_251852" data-name="Path 251852" d="M363.16,233.063l2.777.407.621-1.986-2.781-.984Z" transform="translate(-332.206 -187.803)" fill="#ffc3bd"/>
        <path id="Path_251853" data-name="Path 251853" d="M365.179,163.27c.236.508.425.94.613,1.412s.363.926.544,1.39c.345.933.653,1.884.94,2.846a30.073,30.073,0,0,1,.726,2.958l.138.762.113.777c.04.258.065.526.087.791s.058.5.058.839v.889l-.022.41-.04.388c-.047.523-.116,1.013-.181,1.51-.145.98-.312,1.938-.5,2.9-.385,1.9-.806,3.753-1.314,5.623l-3.307-.653c.21-1.844.428-3.717.6-5.561.084-.922.174-1.84.225-2.741.022-.443.047-.893.047-1.318v-.907l-.025-.24a5.488,5.488,0,0,0-.08-.57c-.033-.2-.062-.407-.109-.613l-.134-.621-.156-.624c-.225-.835-.479-1.673-.769-2.512s-.614-1.673-.955-2.5c-.167-.417-.341-.831-.523-1.238s-.363-.831-.541-1.183Z" transform="translate(-330.589 -144.978)" fill="#c5d8ff"/>
        <path id="Path_251854" data-name="Path 251854" d="M338.65,221.87s.443,20.415,1.641,28.547c1.249,8.458,5.808,35.68,5.808,35.68h4.516S349,260.189,348.48,251.865c-.563-9.075-.439-30-.439-30Z" transform="translate(-316.594 -182.306)" fill="#090814"/>
        <path id="Path_251855" data-name="Path 251855" d="M356.179,393.84c-.022,0,.465,1.877.465,1.877h5.5l-.04-1.673Z" transform="translate(-327.759 -291.85)" fill="#263238"/>
        <ellipse id="Ellipse_30" data-name="Ellipse 30" cx="0.41" cy="0.269" rx="0.41" ry="0.269" transform="matrix(0.061, -0.998, 0.998, 0.061, 20.477, 6.845)" fill="#263238"/>
        <path id="Path_251856" data-name="Path 251856" d="M333.527,131.78a8.42,8.42,0,0,1-1.147,1.931,1.278,1.278,0,0,0,1.071.2Z" transform="translate(-312.6 -124.919)" fill="#ed847e"/>
        <path id="Path_251857" data-name="Path 251857" d="M336.091,126.312a.156.156,0,0,1-.08-.022,1.024,1.024,0,0,0-.933-.174.131.131,0,0,1-.171-.076.134.134,0,0,1,.083-.171,1.289,1.289,0,0,1,1.183.2.134.134,0,0,1,.025.185A.138.138,0,0,1,336.091,126.312Z" transform="translate(-314.205 -121.114)" fill="#263238"/>
        <path id="Path_251858" data-name="Path 251858" d="M344.276,137.52c-.45,1.953-.958,5.529.363,6.828,0,0-.6,1.978-4.229,1.978-3.993,0-1.833-1.978-1.833-1.978,2.178-.519,2.2-2.131,1.869-3.648Z" transform="translate(-316.175 -128.576)" fill="#ffc3bd"/>
        <path id="Path_251859" data-name="Path 251859" d="M344.394,154.694c.392-.795.824-1.71,0-1.993-.9-.316-5.877-.635-7.623-.047a1.815,1.815,0,0,0-1.31,2.207Z" transform="translate(-314.526 -138.006)" fill="#06060e"/>
        <path id="Path_251860" data-name="Path 251860" d="M364.821,157.879c2.3,1.06,3.467,9.1,3.467,9.1l-4.628,1.452a47.005,47.005,0,0,1-2.007-6.534C360.94,158.539,362.469,156.8,364.821,157.879Z" transform="translate(-331.134 -141.34)" fill="#c5d8ff"/>
        <path id="Path_251861" data-name="Path 251861" d="M285.215,189.667l-2.134-1.837-1.92,2.8a4.4,4.4,0,0,0,3.63.817Z" transform="translate(-279.973 -160.623)" fill="#ffc3bd"/>
        <path id="Path_251862" data-name="Path 251862" d="M278.184,185.38l-.294,2.762,1.187.922,1.92-2.8Z" transform="translate(-277.89 -159.062)" fill="#ffc3bd"/>
        <path id="Path_251863" data-name="Path 251863" d="M342.553,122.174c-.269,2.773-.287,4.407-1.739,5.83a3.63,3.63,0,0,1-6.12-1.9c-.508-2.49,0-6.607,2.77-7.71a3.663,3.663,0,0,1,5.089,3.779Z" transform="translate(-313.962 -116.202)" fill="#ffc3bd"/>
        <path id="Path_251864" data-name="Path 251864" d="M337.733,119.741c-.243-1.917-.2-2.643.82-3.067-1.064-.211-1.986-.24-2.425-.86s-.545-2.207,1.59-2.933c-.2.363.425,1.118,2.388.436s4.824-.755,5.082,1.241c1.038-.363,2.777,2.842.726,5.184-1.71,1.96-2.85,3.314-3.187,4.356a.363.363,0,0,1-.5.218,4.5,4.5,0,0,0-2.541.105.363.363,0,0,1-.414-.185A16.952,16.952,0,0,1,337.733,119.741Z" transform="translate(-314.824 -112.88)" fill="#263238"/>
        <path id="Path_251865" data-name="Path 251865" d="M360.48,117.063a1.8,1.8,0,0,1,2.458-.3A7.319,7.319,0,0,0,360.48,117.063Z" transform="translate(-330.499 -115.142)" fill="#263238"/>
        <path id="Path_251866" data-name="Path 251866" d="M360.86,115.195a1.392,1.392,0,0,0,.258-2.095A5.272,5.272,0,0,1,360.86,115.195Z" transform="translate(-330.741 -113.02)" fill="#263238"/>
        <path id="Path_251867" data-name="Path 251867" d="M340.8,129.889a3.321,3.321,0,0,1-.973,1.8c-.672.635-1.252.185-1.271-.632-.018-.726.309-1.953,1.089-2.28S340.94,129.068,340.8,129.889Z" transform="translate(-316.535 -122.948)" fill="#ffc3bd"/>
        <path id="Path_251868" data-name="Path 251868" d="M339.68,253.12c.261,6.091.672,13.163,1.267,17.2.229,1.539.563,3.7.962,6.2C343.513,267.764,344.472,256.481,339.68,253.12Z" transform="translate(-317.25 -202.212)" opacity="0.3"/>
        <path id="Path_251869" data-name="Path 251869" d="M332.733,407.983c-.341,0-.671-.047-.777-.2a.247.247,0,0,1,0-.276.364.364,0,0,1,.207-.149c.446-.12,1.361.41,1.4.436a.054.054,0,0,1,.025.065.065.065,0,0,1-.051.051A4.87,4.87,0,0,1,332.733,407.983Zm-.4-.515a.421.421,0,0,0-.124,0,.193.193,0,0,0-.127.087c-.047.08-.033.12-.018.142.12.171.791.174,1.292.105a2.763,2.763,0,0,0-1.024-.334Z" transform="translate(-312.303 -300.45)" fill="#407bff"/>
        <path id="Path_251870" data-name="Path 251870" d="M334.813,406.8h-.025c-.316-.145-.937-.726-.875-1.024,0-.073.065-.16.24-.178a.469.469,0,0,1,.363.109,1.685,1.685,0,0,1,.363,1.027.076.076,0,0,1-.029.058A.07.07,0,0,1,334.813,406.8Zm-.614-1.089h-.036c-.116,0-.123.055-.127.069-.036.182.381.635.7.831a1.452,1.452,0,0,0-.323-.82.335.335,0,0,0-.218-.073Z" transform="translate(-313.573 -299.334)" fill="#407bff"/>
        <path id="Path_251871" data-name="Path 251871" d="M339.715,397.9h-2.664L337,391.72h2.668Z" transform="translate(-315.543 -290.499)" fill="#ffc3bd"/>
        <path id="Path_251872" data-name="Path 251872" d="M325.761,407.89h2.9a.218.218,0,0,1,.218.181l.446,2.37a.4.4,0,0,1-.4.472c-1.049,0-2.566-.076-3.884-.076-1.546,0-2.882.084-4.694.084-1.089,0-1.358-1.107-.9-1.209,2.1-.454,3.808-.5,5.648-1.615A1.3,1.3,0,0,1,325.761,407.89Z" transform="translate(-304.227 -300.8)" fill="#263238"/>
        <path id="Path_251873" data-name="Path 251873" d="M337.01,391.73l.022,3.184H339.7l-.022-3.184Z" transform="translate(-315.549 -290.506)" opacity="0.2"/>
        <path id="Path_251874" data-name="Path 251874" d="M323.667,221.87s-1.089,19.94-1.067,28.071c0,8.458,4.283,36.155,4.283,36.155H331.4s-1.176-27.2-.668-35.5c.541-9.075,3.162-28.717,3.162-28.717Z" transform="translate(-306.37 -182.306)" fill="#090814"/>
        <path id="Path_251875" data-name="Path 251875" d="M332.177,393.84c-.022,0,.185,1.877.185,1.877h5.5l.211-1.673Z" transform="translate(-312.47 -291.85)" fill="#263238"/>
        <path id="Path_251876" data-name="Path 251876" d="M322.841,156.918s-4.545,11.482-2.566,31.327h16.6c.174-2.178-1.561-21.149.915-31.465a36.787,36.787,0,0,0-4.755-.6,52.728,52.728,0,0,0-6.062,0A27.176,27.176,0,0,0,322.841,156.918Z" transform="translate(-304.571 -140.404)" fill="#c5d8ff"/>
        <path id="Path_251877" data-name="Path 251877" d="M320.731,179.681c-.247,1.815-.45,3.888-.581,6.171,3.223-2.962,4.327-10.342,4.327-10.342Z" transform="translate(-304.809 -152.775)" opacity="0.2"/>
        <path id="Path_251878" data-name="Path 251878" d="M304.214,170.436c-.653,1.7-1.314,3.336-2.04,4.98s-1.478,3.267-2.323,4.893l-.33.606-.167.3c-.069.123-.062.131-.251.447a3.551,3.551,0,0,1-1.31,1.22,3.907,3.907,0,0,1-1.419.428,5.976,5.976,0,0,1-2.033-.163,11.247,11.247,0,0,1-1.539-.5,20.011,20.011,0,0,1-2.6-1.307c-.41-.236-.8-.49-1.191-.726s-.74-.537-1.158-.828l1.96-3.006a25.511,25.511,0,0,0,4.411,1.913,6.662,6.662,0,0,0,.991.225,1.4,1.4,0,0,0,.581,0c.022,0-.047-.022-.167.04a.977.977,0,0,0-.363.319c-.076.127.022-.062.054-.134l.131-.287.261-.57c.69-1.539,1.329-3.133,1.949-4.719s1.223-3.242,1.779-4.842Z" transform="translate(-284.234 -148.456)" fill="#c5d8ff"/>
        <path id="Path_251879" data-name="Path 251879" d="M322.587,159.275c.85,2.374-5.162,11.932-5.162,11.932l-3.565-3.532s.911-3,2.113-6.618C317.156,157.5,321.777,157.006,322.587,159.275Z" transform="translate(-300.803 -141.557)" fill="#c5d8ff"/>
      </g>
    </g>
  </g>
</svg>
