<svg xmlns="http://www.w3.org/2000/svg" width="129.07" height="101.984" viewBox="0 0 129.07 101.984">
  <g id="noun-payment-7808672" transform="translate(-13.125 -15.625)">
    <path id="Path_3140" data-name="Path 3140" d="M128.287,69.4V27.214A11.593,11.593,0,0,0,116.7,15.625H24.714A11.593,11.593,0,0,0,13.125,27.214V96.748a11.593,11.593,0,0,0,11.589,11.589H97.019A25.5,25.5,0,1,0,128.288,69.4Zm.487,17.406-13.907,13.907a2.351,2.351,0,0,1-3.291,0l-6.953-6.953a2.327,2.327,0,0,1,3.291-3.291l5.308,5.331,12.261-12.284a2.327,2.327,0,1,1,3.291,3.291ZM24.714,20.261H116.7a6.974,6.974,0,0,1,6.953,6.953v6.953H17.76V27.214A6.974,6.974,0,0,1,24.714,20.261Zm0,83.441a6.974,6.974,0,0,1-6.953-6.953V52.71H123.651V67.59a24.589,24.589,0,0,0-6.953-.973A25.5,25.5,0,0,0,93.982,103.7Z"/>
    <path id="Path_3141" data-name="Path 3141" d="M34.115,60.938H15.573a4.649,4.649,0,0,0-4.636,4.636v4.636a4.649,4.649,0,0,0,4.636,4.636H34.115a4.649,4.649,0,0,0,4.636-4.636V65.574A4.649,4.649,0,0,0,34.115,60.938Zm0,9.271H15.573V65.574H34.115Z" transform="translate(13.776 21.905)"/>
    <path id="Path_3142" data-name="Path 3142" d="M42.083,60.938H37.448a4.649,4.649,0,0,0-4.636,4.636v4.636a4.649,4.649,0,0,0,4.636,4.636h4.636a4.649,4.649,0,0,0,4.636-4.636V65.574A4.649,4.649,0,0,0,42.083,60.938Zm0,9.271H37.448V65.574h4.636Z" transform="translate(24.351 21.905)"/>
  </g>
</svg>
