<svg xmlns="http://www.w3.org/2000/svg" width="95.163" height="97.226" viewBox="0 0 95.163 97.226">
  <g id="noun-maps-location-6413047" transform="translate(-4.661 3.104)">
    <path id="Path_2435" data-name="Path 2435" d="M47,29.317a8.231,8.231,0,0,0,8.015-8.412,8.023,8.023,0,1,0-16.029,0A8.231,8.231,0,0,0,47,29.317Z" transform="translate(25.406 -4.5)"/>
    <path id="Path_2436" data-name="Path 2436" d="M27.234,71.3l6.511-53.047-11.436,4.7L4.661,85.139Z" transform="translate(0 8.983)"/>
    <path id="Path_2437" data-name="Path 2437" d="M51.532,53.34c6.132-5.764,18.68-19.3,18.68-27.708A19.129,19.129,0,0,0,51.532,6.124,19.131,19.131,0,0,0,32.851,25.633C32.851,34.048,45.4,47.578,51.532,53.34Zm0-39.6a11.711,11.711,0,0,1,11.5,11.891,11.5,11.5,0,1,1-22.991,0,11.711,11.711,0,0,1,11.5-11.892Z" transform="translate(20.87 -9.228)"/>
    <path id="Path_2438" data-name="Path 2438" d="M33.007,23.683V77.565l19.77-10.23-2.91-23.687C47.789,41.738,38.364,32.832,33.007,23.683Z" transform="translate(20.988 13.001)"/>
    <path id="Path_2439" data-name="Path 2439" d="M44.685,40.146l2.947,23.973,22.558,13.84L56.008,27.951a118.035,118.035,0,0,1-11.323,12.2Z" transform="translate(29.635 16.161)"/>
    <path id="Path_2440" data-name="Path 2440" d="M39.421,81.46V27.384l-13.3-8.961-6.481,52.8Z" transform="translate(11.093 9.107)"/>
  </g>
</svg>
