<svg xmlns="http://www.w3.org/2000/svg" width="154" height="154" viewBox="0 0 154 154">
  <g id="Group_41977" data-name="Group 41977" transform="translate(-1025.001 -2062)">
    <g id="Ellipse_24" data-name="Ellipse 24" transform="translate(1025.001 2062)" fill="#eff8ff" stroke="#b0d3f4" stroke-width="0.5">
      <circle cx="77" cy="77" r="77" stroke="none"/>
      <circle cx="77" cy="77" r="76.75" fill="none"/>
    </g>
    <g id="Group_41928" data-name="Group 41928" transform="translate(1050.92 2089.007)">
      <g id="Group_41925" data-name="Group 41925" transform="translate(0 0)">
        <g id="Group_41926" data-name="Group 41926" transform="translate(0 0)">
          <path id="Path_252154" data-name="Path 252154" d="M205.121,412.222h0a4.584,4.584,0,0,0-1.91-1.121l-5.267-5.741-2.777,2.662,5.645,5.539a4.5,4.5,0,0,0,1.2,1.85c1.351,1.292,3.142,1.623,4,.742s.465-2.641-.884-3.929h0Z" transform="translate(-157.822 -360.322)" fill="#ed9da0"/>
          <path id="Path_252155" data-name="Path 252155" d="M124.331,295.945l-2.8,3.516-14.457-10.944-.012-.025-8.449-15.766a5.408,5.408,0,1,1,9.817-4.485l5.482,14.347,10.417,13.351v0Z" transform="translate(-79.227 -246.63)" fill="#c5d8ff"/>
          <path id="Path_252156" data-name="Path 252156" d="M108.744,237.137h5.894v9.35l-6.5-2.135Z" transform="translate(-87.448 -224.289)" fill="#ed9da0"/>
          <path id="Path_252157" data-name="Path 252157" d="M117.011,189.472a6.474,6.474,0,1,0-6.473,6.475,6.474,6.474,0,0,0,6.473-6.475Z" transform="translate(-84.151 -180.51)" fill="#ed9da0"/>
          <path id="Path_252158" data-name="Path 252158" d="M98.236,183.091l-.631,1.2-2.788-5.3C93.139,173.853,99,170.9,99,170.9c1.913-2.253,5.756.383,5.756.383,5.544-1.232,2.867,3.441,2.867,3.441s-1.891.042-1.891,1.571-2.06,1.424-2.06,1.424l-1.614,2.824-.891-1.083c-3.314-1.4-2.932,3.631-2.932,3.631Z" transform="translate(-76.43 -169.991)" fill="#090814"/>
          <rect id="Rectangle_10489" data-name="Rectangle 10489" width="5.23" height="7.42" transform="translate(18.909 108.655)" fill="#ed9da0"/>
          <path id="Path_252159" data-name="Path 252159" d="M104.889,764.275c-2.3,0-5.646-.24-5.672-.242-.9.08-5.372.432-5.594-.592a4.4,4.4,0,0,1,.14-2.06c.432-4.278.592-4.328.688-4.355.153-.045.6.167,1.319.631l.045.03.01.052a1.647,1.647,0,0,0,1.848,1.4,2.726,2.726,0,0,0,1.483-.507.638.638,0,0,1-.275-.23.8.8,0,0,1-.057-.67,10.6,10.6,0,0,1,.8-1.806l.068-.12,5.942,4.01,3.671,1.049a.944.944,0,0,1,.373,1.611,6.541,6.541,0,0,1-3.381,1.753c-.37.035-.859.047-1.409.047Z" transform="translate(-75.657 -643.709)" fill="#090814"/>
          <rect id="Rectangle_10490" data-name="Rectangle 10490" width="7.42" height="5.23" transform="matrix(0.637, -0.771, 0.771, 0.637, 3.106, 103.253)" fill="#ed9da0"/>
          <path id="Path_252160" data-name="Path 252160" d="M8.193,710.239c-1.768-1.463-4.2-3.783-4.216-3.8-.742-.507-4.415-3.089-3.934-4.021a4.356,4.356,0,0,1,1.421-1.5c3.059-3.024,3.212-2.958,3.3-2.919.147.063.354.507.614,1.326l.015.05-.025.047a1.644,1.644,0,0,0,.532,2.255,2.743,2.743,0,0,0,1.466.555.637.637,0,0,1-.065-.354.805.805,0,0,1,.383-.552,10.618,10.618,0,0,1,1.771-.879l.127-.05,2.023,6.878,2.16,3.149a.947.947,0,0,1-.741,1.481,6.525,6.525,0,0,1-3.721-.8c-.3-.21-.689-.512-1.114-.861Z" transform="translate(0 -596.958)" fill="#090814"/>
          <path id="Path_252161" data-name="Path 252161" d="M95.535,438.809l-7.972,59.3H81.584l-3.985-59.3H95.535Z" transform="translate(-62.75 -387.371)" fill="#090814"/>
          <path id="Path_252162" data-name="Path 252162" d="M40.313,471.2,28.408,486.644l5.095,4.209L53.934,471.42l1.826-32.611-3.654,3.266Z" transform="translate(-22.972 -387.371)" fill="#090814"/>
          <path id="Path_252163" data-name="Path 252163" d="M84.982,250.444l3.653,34.882H70.7l-1.391-11.321a32.668,32.668,0,0,1,4.066-20.188l2.752-4.81,8.858,1.438Z" transform="translate(-55.849 -233.887)" fill="#c5d8ff"/>
          <path id="Path_252164" data-name="Path 252164" d="M129.732,451.623h0a4.569,4.569,0,0,0-1.274-1.813l-2.411-7.413-3.634,1.271,2.834,7.38a4.475,4.475,0,0,0,.322,2.183c.692,1.733,2.185,2.78,3.332,2.334s1.516-2.21.824-3.943h.006Z" transform="translate(-98.99 -390.273)" fill="#ed9da0"/>
          <path id="Path_252165" data-name="Path 252165" d="M97.583,314.809l-4,2.038-8.614-15.956v-.027l-1.146-17.849a5.408,5.408,0,1,1,10.794,0l-.966,15.327,3.936,16.47Z" transform="translate(-67.773 -256.739)" fill="#c5d8ff"/>
          <g id="Group_41927" data-name="Group 41927" transform="translate(54.006 15.437)">
            <path id="Path_252179" data-name="Path 252179" d="M450.919,354.9h-11.3a1.107,1.107,0,0,1-1.106-1.106v-11.16a1.107,1.107,0,0,1,1.106-1.106h11.3a1.107,1.107,0,0,1,1.106,1.106v11.16a1.107,1.107,0,0,1-1.106,1.106Z" transform="translate(-430.229 -318.209)" fill="#090814"/>
            <path id="Path_252180" data-name="Path 252180" d="M443.666,343.8a2.88,2.88,0,0,0-2.88,2.88v8.819a1.013,1.013,0,0,0,1.013,1.013h6.908a4.929,4.929,0,0,0,4.929-4.929v-6.77a1.013,1.013,0,0,0-1.013-1.013h-8.957Z" transform="translate(-432.17 -320.149)" fill="#fff"/>
            <path id="Path_252181" data-name="Path 252181" d="M468.881,363.661h-6.075a.21.21,0,1,1,0-.421h6.075a.21.21,0,1,1,0,.421" transform="translate(-450.814 -336.772)" fill="#d6d6e3"/>
            <path id="Path_252182" data-name="Path 252182" d="M468.881,394.546h-6.075a.21.21,0,1,1,0-.421h6.075a.21.21,0,1,1,0,.421" transform="translate(-450.814 -363.175)" fill="#d6d6e3"/>
            <path id="Path_252183" data-name="Path 252183" d="M456.816,379.115h-11.01a.21.21,0,0,1,0-.421h11.01a.21.21,0,0,1,0,.421" transform="translate(-436.282 -349.983)" fill="#d6d6e3"/>
            <path id="Path_252184" data-name="Path 252184" d="M499.017,407.1H495.04a.21.21,0,0,1,0-.421h3.977a.21.21,0,1,1,0,.421" transform="translate(-478.37 -373.91)" fill="#d6d6e3"/>
            <path id="Path_252185" data-name="Path 252185" d="M415.542,127.865h-8.355a.819.819,0,0,1-.818-.818v-8.253a.819.819,0,0,1,.818-.818h8.355a.819.819,0,0,1,.818.818v8.253a.819.819,0,0,1-.818.818" transform="translate(-381.183 -117.976)" fill="#090814"/>
            <path id="Path_252186" data-name="Path 252186" d="M410.176,119.653a2.13,2.13,0,0,0-2.13,2.13h0v6.522a.749.749,0,0,0,.749.749H413.9a3.645,3.645,0,0,0,3.645-3.645V120.4a.749.749,0,0,0-.749-.749h-6.624Z" transform="translate(-382.617 -119.41)" fill="#fff"/>
            <path id="Path_252187" data-name="Path 252187" d="M428.824,134.348h-4.493a.155.155,0,0,1,0-.311h4.493a.155.155,0,0,1,0,.311" transform="translate(-396.405 -131.706)" fill="#d6d6e3"/>
            <path id="Path_252188" data-name="Path 252188" d="M428.824,157.188h-4.493a.155.155,0,0,1,0-.311h4.493a.155.155,0,0,1,0,.311" transform="translate(-396.405 -151.231)" fill="#d6d6e3"/>
            <path id="Path_252189" data-name="Path 252189" d="M419.9,145.774h-8.142a.155.155,0,0,1,0-.311H419.9a.155.155,0,0,1,0,.311" transform="translate(-385.66 -141.474)" fill="#d6d6e3"/>
            <path id="Path_252190" data-name="Path 252190" d="M451.109,166.476h-2.941a.155.155,0,0,1,0-.311h2.942a.155.155,0,0,1,0,.311Z" transform="translate(-416.783 -159.171)" fill="#d6d6e3"/>
            <path id="Path_252205" data-name="Path 252205" d="M423.214,213.326a1.015,1.015,0,1,1-1.015,1.015,1.015,1.015,0,0,1,1.015-1.015" transform="translate(-416.281 -208.615)" fill="#090814"/>
            <rect id="Rectangle_10493" data-name="Rectangle 10493" width="5.557" height="0.339" transform="translate(1.007 5.895) rotate(-1.718)" fill="#090814"/>
            <path id="Path_252207" data-name="Path 252207" d="M420.343,289.7a1.015,1.015,0,1,1-1.015,1.015,1.015,1.015,0,0,1,1.015-1.015" transform="translate(-413.826 -273.906)" fill="#090814"/>
            <path id="Path_252208" data-name="Path 252208" d="M432.953,300.582h-8.418V296.7h.338v3.548h8.08Z" transform="translate(-418.278 -279.886)" fill="#090814"/>
            <rect id="Rectangle_10494" data-name="Rectangle 10494" width="40.434" height="0.338" transform="translate(0 12.947)" fill="#090814"/>
          </g>
        </g>
      </g>
      <g id="Group_41923" data-name="Group 41923" transform="translate(57.474 57.408)">
        <ellipse id="Ellipse_45" data-name="Ellipse 45" cx="5.64" cy="0.967" rx="5.64" ry="0.967" transform="translate(11.241 58.263)" fill="#016dd5" style="isolation: isolate"/>
        <path id="Path_252150" data-name="Path 252150" d="M731.964,329.312a7.676,7.676,0,0,1,6.062-7.5,7.675,7.675,0,1,0,0,15.008A7.677,7.677,0,0,1,731.964,329.312Z" transform="translate(-719.276 -312.027)" fill="#016dd5" style="isolation: isolate"/>
        <path id="Path_252151" data-name="Path 252151" d="M675.1,279.96a17.158,17.158,0,0,1,15.06-17.028,17.162,17.162,0,0,0-19.249,17.028c0,7.7,11.317,29.4,15.568,37.276a1.8,1.8,0,0,0,3.176,0c.159-.295.329-.611.507-.944C685.583,307.75,675.1,287.368,675.1,279.96Z" transform="translate(-670.762 -262.675)" fill="#016dd5" style="isolation: isolate"/>
        <path id="Path_252152" data-name="Path 252152" d="M687.317,317.7a1.939,1.939,0,0,1-1.73-1.033C680.9,307.982,670,286.951,670,279.317a17.317,17.317,0,1,1,34.634,0c0,7.635-10.9,28.665-15.587,37.352A1.938,1.938,0,0,1,687.317,317.7Zm0-55.38a17.014,17.014,0,0,0-16.995,16.995c0,7.561,10.873,28.533,15.548,37.2a1.642,1.642,0,0,0,2.892,0c4.675-8.666,15.549-29.638,15.549-37.2A17.014,17.014,0,0,0,687.317,262.322Z" transform="translate(-670 -262)" fill="#3f3d56"/>
        <path id="Path_252153" data-name="Path 252153" d="M736.67,336.506a7.836,7.836,0,1,1,7.836-7.836A7.836,7.836,0,0,1,736.67,336.506Zm0-15.35a7.514,7.514,0,1,0,7.514,7.514A7.514,7.514,0,0,0,736.67,321.156Z" transform="translate(-719.353 -311.353)" fill="#3f3d56"/>
      </g>
    </g>
  </g>
</svg>
