<svg xmlns="http://www.w3.org/2000/svg" width="26.419" height="21.042" viewBox="0 0 26.419 21.042">
  <g id="Performance_tracking" data-name="Performance tracking" transform="translate(-2.66 -26.272)">
    <path id="Path_253076" data-name="Path 253076" d="M4.433,36.2c-.441,0-.886-.011-1.343-.035a.347.347,0,1,1,.035-.693c7.2.368,12.812-2.276,17.6-8.309l-1.973.222a.346.346,0,0,1-.381-.306.351.351,0,0,1,.306-.385l2.786-.314a.346.346,0,0,1,.381.306l.314,2.786a.351.351,0,0,1-.306.385c-.011,0-.026,0-.038,0a.344.344,0,0,1-.344-.309l-.219-1.938a22.686,22.686,0,0,1-8.521,6.909,20,20,0,0,1-8.3,1.678Zm23.851,10.32H24.84V30.449h3.442V46.515Zm.347-16.76H24.493a.346.346,0,0,0-.347.347V46.866a.348.348,0,0,0,.347.347h4.138a.346.346,0,0,0,.347-.347V30.1a.345.345,0,0,0-.346-.347Zm-7.146,16.76V35.861H18.046V46.519h3.439Zm.349-11.348H17.7a.346.346,0,0,0-.347.347V46.866a.348.348,0,0,0,.347.347h4.136a.346.346,0,0,0,.347-.347V35.513a.347.347,0,0,0-.346-.346ZM14.689,46.515H11.25V39.384h3.439Zm.349-7.825H10.9a.346.346,0,0,0-.347.347v7.828a.348.348,0,0,0,.347.347h4.136a.344.344,0,0,0,.347-.347V39.037a.345.345,0,0,0-.346-.346ZM7.895,46.515H4.453V41.876H7.895Zm.347-5.332H4.106a.346.346,0,0,0-.347.347v5.334a.348.348,0,0,0,.347.347H8.244a.346.346,0,0,0,.347-.347V41.53a.349.349,0,0,0-.349-.347Z" transform="translate(0 0)" stroke="#000" stroke-width="0.2" fill-rule="evenodd"/>
  </g>
</svg>
