<svg xmlns="http://www.w3.org/2000/svg" width="93.339" height="87.998" viewBox="0 0 93.339 87.998">
  <g id="Group_40290" data-name="Group 40290" transform="translate(-23.818 0)">
    <path id="Path_2346" data-name="Path 2346" d="M1479.133,417.391h2.847a4.708,4.708,0,0,0,4.7-4.7V396.556a4.708,4.708,0,0,0-4.7-4.7h-2.847a4.708,4.708,0,0,0-4.7,4.7v16.133A4.708,4.708,0,0,0,1479.133,417.391Zm1.423-23.544a3.2,3.2,0,1,1-3.2,3.2A3.2,3.2,0,0,1,1480.556,393.847Zm0,7.574a3.2,3.2,0,1,1-3.2,3.2A3.2,3.2,0,0,1,1480.556,401.421Zm0,7.574a3.2,3.2,0,1,1-3.2,3.2A3.2,3.2,0,0,1,1480.556,409Z" transform="translate(-1381.527 -391.853)"/>
    <path id="Path_2348" data-name="Path 2348" d="M542.13,1203.579H532.6a1.085,1.085,0,0,0-.993.647l-11.97,27.1a1.085,1.085,0,0,0,.993,1.524h13.763a1.085,1.085,0,0,0,1.044-.787l7.735-27.1a1.085,1.085,0,0,0-1.044-1.383Z" transform="translate(-495.728 -1144.851)"/>
    <path id="Path_2349" data-name="Path 2349" d="M1428.656,1231.12l-17.97-27.057a1.085,1.085,0,0,0-.9-.485h-9.529a1.085,1.085,0,0,0-.967,1.577l13.763,27.1a1.086,1.086,0,0,0,.968.594h13.765a1.085,1.085,0,0,0,.874-1.729Z" transform="translate(-1311.711 -1144.851)"/>
    <path id="Path_2350" data-name="Path 2350" d="M1164.9,1204.227a1.085,1.085,0,0,0-.993-.647h-9.528a1.085,1.085,0,0,0-1.044,1.383l7.735,27.1a1.086,1.086,0,0,0,1.044.787h13.765a1.086,1.086,0,0,0,.968-1.576Z" transform="translate(-1083.62 -1144.852)"/>
    <path id="Path_2351" data-name="Path 2351" d="M863.435,1204.441a1.085,1.085,0,0,0-1.062-.862h-8.564a1.085,1.085,0,0,0-1.062.862l-5.7,27.1a1.085,1.085,0,0,0,1.062,1.309h19.965a1.086,1.086,0,0,0,1.048-1.367Z" transform="translate(-799.514 -1144.851)"/>
    <path id="Path_2353" data-name="Path 2353" d="M1609.405,451.666a1.085,1.085,0,0,0,1.085,1.085h11.716a1.085,1.085,0,0,0,1.085-1.085c0-.023,0-.045,0-.068a5.543,5.543,0,0,0-.976-2.861,5.957,5.957,0,0,0-1.906-1.833v-16.83a1.085,1.085,0,0,0-.234-.672l-2.48-3.141V392.938a1.085,1.085,0,0,0-2.17,0v3.494h-2.478c0,.041,0,.082,0,.123V398.6h2.475v12.039h-2.475v2.047c0,.041,0,.082,0,.123h2.478v13.449l-2.48,3.141a1.086,1.086,0,0,0-.233.672v16.582A6.043,6.043,0,0,0,1609.405,451.666Z" transform="translate(-1506.737 -391.853)"/>
    <path id="Path_2354" data-name="Path 2354" d="M822.274,730.71a4,4,0,0,0,2.326,3.152,8.751,8.751,0,0,0,3.585.6h31.553a8.75,8.75,0,0,0,3.585-.6,4,4,0,0,0,2.326-3.152,35.293,35.293,0,0,0-.654-10.9,28.929,28.929,0,0,0-4.133-7.3c-1.261-1.689-3.723-4.676-6.041-5.708-1.5-.666-6.591-.9-10.86-.9s-9.363.237-10.86.9c-2.318,1.032-4.78,4.019-6.041,5.708a28.921,28.921,0,0,0-4.133,7.3A35.286,35.286,0,0,0,822.274,730.71Zm26.717-.985a1.048,1.048,0,0,1-1.134.929h-7.79a1.048,1.048,0,0,1-1.134-.929v-.238a1.048,1.048,0,0,1,1.134-.929h7.79a1.048,1.048,0,0,1,1.134.929Zm1.532-5.879-.555,1.979a2.214,2.214,0,0,1-2.042,1.549H840a2.214,2.214,0,0,1-2.042-1.549l-.555-1.979a1.4,1.4,0,0,1,1.392-1.836h10.338a1.4,1.4,0,0,1,1.392,1.836Zm11.615,1.869a2.641,2.641,0,0,1-2.355,2.9l-.282.03a25.4,25.4,0,0,1-2.67.185h0c-.665,0-2.687,0-2.819-1.276-.076-.74.637-1.643,2.121-2.684a8.68,8.68,0,0,1,3.107-1.509,2.674,2.674,0,0,1,.274-.014A2.633,2.633,0,0,1,862.139,725.716Zm-34.818-8.223a18.924,18.924,0,0,1,3.285-4.929c1-1.137,2.953-3.148,4.8-3.845,1.184-.447,5.2-.607,8.559-.607s7.375.159,8.559.607c1.844.7,3.8,2.708,4.8,3.845a18.924,18.924,0,0,1,3.285,4.929.628.628,0,0,1-.072.588c-.188.275-.572.47-1.977.659-.9.121-2.158.227-3.728.313-2.908.16-6.766.248-10.865.248s-7.957-.088-10.865-.248c-1.57-.086-2.824-.192-3.728-.313-1.4-.189-1.788-.384-1.977-.659A.627.627,0,0,1,827.321,717.493Zm-1.535,8.223a2.633,2.633,0,0,1,2.624-2.37,2.674,2.674,0,0,1,.274.014,8.676,8.676,0,0,1,3.107,1.509c1.484,1.041,2.2,1.944,2.121,2.684-.132,1.276-2.154,1.276-2.819,1.276a25.4,25.4,0,0,1-2.67-.185l-.282-.03a2.641,2.641,0,0,1-2.355-2.9Z" transform="translate(-776.396 -683.185)"/>
    <path id="Path_2355" data-name="Path 2355" d="M824.141,1083.775a4.962,4.962,0,0,1-2.054-1.706v4.8c0,1.057,1.236,1.884,2.813,1.884h1.917c1.577,0,2.813-.828,2.813-1.884v-2.4H828.17A9.714,9.714,0,0,1,824.141,1083.775Z" transform="translate(-776.38 -1032.132)"/>
    <path id="Path_2356" data-name="Path 2356" d="M784.8,804.758h1.772a34.133,34.133,0,0,1,2.3-3.92,2.137,2.137,0,0,0-1.128-.671.528.528,0,0,0-.091-.008H784.8a1.778,1.778,0,0,0-1.776,1.776v1.046A1.778,1.778,0,0,0,784.8,804.758Z" transform="translate(-740.141 -770.618)"/>
    <path id="Path_2357" data-name="Path 2357" d="M1388.616,804.757a1.778,1.778,0,0,0,1.776-1.776v-1.046a1.778,1.778,0,0,0-1.776-1.776h-2.859a.527.527,0,0,0-.091.008,2.138,2.138,0,0,0-1.128.671,34.133,34.133,0,0,1,2.3,3.92h1.772Z" transform="translate(-1298.14 -770.617)"/>
    <path id="Path_2358" data-name="Path 2358" d="M1327.612,1083.774a9.717,9.717,0,0,1-4.029.695h-1.459v2.4c0,1.057,1.236,1.884,2.813,1.884h1.917c1.578,0,2.813-.828,2.813-1.884v-4.8A4.96,4.96,0,0,1,1327.612,1083.774Z" transform="translate(-1240.239 -1032.132)"/>
  </g>
</svg>
