<svg xmlns="http://www.w3.org/2000/svg" width="110.812" height="87.998" viewBox="0 0 110.812 87.998">
  <path id="Path_2441" data-name="Path 2441" d="M62.949,45.717c1.548-4.237,1.939-8.05,11.929-8.05H89.332a6.307,6.307,0,0,0-4.318-4.726l-.733-3.422C83.367,26.259,81.673,23,78.332,23h-27.7c-3.357,0-5.052,3.259-6.062,6.632l-.978,3.438A6.274,6.274,0,0,0,38.814,39v5.524a3.992,3.992,0,0,0,1.63,4.009v3.683a2.444,2.444,0,0,0,4.889,0V49.073H62.346a24.558,24.558,0,0,1,.6-3.357ZM47.875,28.475a2.787,2.787,0,0,1,2.868-2.216H78.234A2.787,2.787,0,0,1,81.1,28.475l.864,4.3h-35Zm-.293,17.339c-2.673-.489-4.563-2.3-4.253-4.041s2.754-2.754,5.41-2.265,4.563,2.3,4.253,4.041S50.221,46.238,47.582,45.814Zm72.11,6.73-1.63-4.579c-1.141-4.367-4.041-8.669-8.506-8.669H72.6c-5.883,0-6.73,4.074-8.148,8.588l-.538,4.139c-1.467.326-2.673,1.939-3.585,1.939h28.29c5.573,0,9.3,3.862,11.407,11.163l1.043,4.286c3.064.847,5.443,4.107,6.73,5.736h10.869v2.624a3.259,3.259,0,0,0,6.518,0V72.882c1.63-1.4,1.63-3.259,1.63-5.345V60.122c0-3.748-3.6-6.861-7.121-7.659ZM67.74,52.333s.864-4.726,1.157-6.29a4.2,4.2,0,0,1,3.83-3.487h36.7a4.2,4.2,0,0,1,3.83,3.487l1.157,6.29Zm45.906,16.785c-3.569.652-6.8-.684-7.219-3.015s2.1-4.742,5.671-5.394,6.8.684,7.219,3.015S117.2,68.466,113.645,69.117Zm-6.388,13.249a10.218,10.218,0,0,0-7.822-10.315L98.213,66.51c-1.63-5.769-4.661-10.918-10.69-10.918H37.771c-6.029,0-9.061,4.889-10.9,10.918L24.849,72.2A10.967,10.967,0,0,0,16,82.366V92.29c0,2.787,0,5.312,1.63,7.2v6.616a4.889,4.889,0,0,0,9.778,0V101.22H94.22v4.889c0,2.347,3.357,4.27,5.7,4.27s5.7-1.923,5.7-4.27V99.493c1.63-1.89,1.63-4.416,1.63-7.2ZM32.8,62.664a4.889,4.889,0,0,1,5.15-3.813H87.344a4.889,4.889,0,0,1,5.15,3.813l1.63,7.594H31.237Zm9.207,27.7c-.587,3.129-4.889,4.889-9.778,4.058s-8.148-4.139-7.626-7.268,4.889-4.889,9.778-4.058,8.2,4.188,7.692,7.317Zm41.294,0c-.587-3.08,2.77-6.339,7.659-7.219s9.142.929,9.778,4.058-2.835,6.388-7.626,7.268-9.24-.929-9.81-4.058Z" transform="translate(-16 -23)"/>
</svg>
