<svg xmlns="http://www.w3.org/2000/svg" width="137.463" height="151.618" viewBox="0 0 137.463 151.618">
  <g id="transport" transform="translate(-14.186 -10.5)">
    <path id="Path_2188" data-name="Path 2188" d="M45.505,126.363H118.88a13.419,13.419,0,0,0,13.405-13.405V28.786A13.419,13.419,0,0,0,118.88,15.381H106.652l-1.012-1.267a10.061,10.061,0,0,0-2.691-2.512,8.635,8.635,0,0,0-4.558-1.1H66.451a8.449,8.449,0,0,0-4.521,1.11,11.437,11.437,0,0,0-2.737,2.519l-1.072,1.252H45.511A13.419,13.419,0,0,0,32.106,28.786v84.179a13.419,13.419,0,0,0,13.405,13.405Zm0-108.508H118.88a10.943,10.943,0,0,1,10.931,10.931v79.36l-47.361,9.207a1.184,1.184,0,0,1-.487.007l-47.384-9.049V28.786A10.943,10.943,0,0,1,45.51,17.855Zm70.122,74.082a4.531,4.531,0,0,1,4.528,4.528v4.821a4.531,4.531,0,0,1-4.528,4.528H108.01a4.531,4.531,0,0,1-4.528-4.528V96.465a4.531,4.531,0,0,1,4.528-4.528ZM96.112,99.111a1.225,1.225,0,0,1-1.23,1.23H68.6a1.23,1.23,0,0,1,0-2.459H94.882a1.226,1.226,0,0,1,1.23,1.23Zm-41.183-11h54.535a8.883,8.883,0,0,0,8.854-8.854v-46a8.883,8.883,0,0,0-8.854-8.854H54.929a8.883,8.883,0,0,0-8.854,8.854v46a8.883,8.883,0,0,0,8.854,8.854ZM80.966,30.758a1.23,1.23,0,1,1,2.459,0V71.724a1.23,1.23,0,0,1-2.459,0Zm70.2,128.713-11.328-10.511a.842.842,0,0,0-.15-.135L125.7,135.847a1.283,1.283,0,0,0-.15-.135l-9.394-8.719a1.533,1.533,0,1,0-2.092,2.242l6.605,6.133-75.506-.007,6.605-6.133a1.533,1.533,0,0,0-2.092-2.242L40.285,135.7c-.052.045-.1.09-.15.135L26.153,148.817c-.052.045-.1.09-.15.135L14.674,159.463a1.533,1.533,0,1,0,2.092,2.242L27.72,151.539h110.4L149.072,161.7a1.533,1.533,0,0,0,2.092-2.242Zm-120.13-11,10.819-10.039h82.133L134.8,148.472Zm14.118-43.881a4.516,4.516,0,0,1-1.327-3.2V96.569a4.531,4.531,0,0,1,4.528-4.528H55.97A4.531,4.531,0,0,1,60.5,96.569v4.821a4.531,4.531,0,0,1-4.528,4.528H48.352A4.543,4.543,0,0,1,45.151,104.591Z" transform="translate(0 0)"/>
  </g>
</svg>
