<svg xmlns="http://www.w3.org/2000/svg" width="25.186" height="25.746" viewBox="0 0 25.186 25.746">
  <g id="Verified_buyers_only" data-name="Verified buyers only" transform="translate(-3.966 -2.274)">
    <path id="Path_253072" data-name="Path 253072" d="M24.264,28.019H4.579a.613.613,0,0,1-.613-.613v-6.74a5.413,5.413,0,0,1,5.413-5.412h7.449a.613.613,0,1,1,0,1.226H9.379a4.186,4.186,0,0,0-4.187,4.186v6.128H9.854V21.637a.613.613,0,0,1,1.226,0v5.157H23.652v-.3a.613.613,0,1,1,1.225,0v.917a.612.612,0,0,1-.613.613ZM14.421,2.274A5.656,5.656,0,1,1,8.766,7.93,5.659,5.659,0,0,1,14.421,2.274Zm0,1.225a4.43,4.43,0,1,0,4.43,4.43,4.432,4.432,0,0,0-4.43-4.43Zm8.7,9.848a6.031,6.031,0,1,1-6.032,6.031A6.034,6.034,0,0,1,23.121,13.347Zm0,1.225a4.8,4.8,0,1,0,4.8,4.805,4.807,4.807,0,0,0-4.8-4.805ZM20.2,19.659a.613.613,0,1,1,.8-.928l1.518,1.313,2.5-2.6a.613.613,0,0,1,.884.85L23,21.313a.614.614,0,0,1-.843.039Z" transform="translate(0)" fill-rule="evenodd"/>
  </g>
</svg>
