<svg xmlns="http://www.w3.org/2000/svg" xmlns:xlink="http://www.w3.org/1999/xlink" width="97.676" height="78.73" viewBox="0 0 97.676 78.73">
  <defs>
    <clipPath id="clip-path">
      <rect id="Rectangle_10595" data-name="Rectangle 10595" width="97.676" height="78.73" transform="translate(1372.932 3481)" fill="#fff"/>
    </clipPath>
  </defs>
  <g id="Mask_Group_71" data-name="Mask Group 71" transform="translate(-1372.932 -3481)" clip-path="url(#clip-path)">
    <g id="Group_40292" data-name="Group 40292" transform="translate(1372.93 3481)">
      <path id="Path_29275" data-name="Path 29275" d="M96.013,0H1.663A1.67,1.67,0,0,0,0,1.673V65.056a1.669,1.669,0,0,0,1.663,1.669h94.35a1.669,1.669,0,0,0,1.663-1.669V1.673A1.67,1.67,0,0,0,96.013,0Z" transform="translate(0.002)" fill="none"/>
      <path id="Path_29276" data-name="Path 29276" d="M97.534,3.164H3.393a1.663,1.663,0,0,0-1.66,1.663v63a1.662,1.662,0,0,0,1.66,1.66H97.534a1.662,1.662,0,0,0,1.66-1.66v-63a1.663,1.663,0,0,0-1.659-1.663Z" transform="translate(-1.516 -2.766)" fill="#fff" stroke="#c4c4c4" stroke-width="0.5"/>
      <path id="Path_29277" data-name="Path 29277" d="M579.914,290.221a.716.716,0,1,1-.968.3.716.716,0,0,1,.968-.3" transform="translate(-506.066 -253.651)" fill="#ff6584"/>
      <path id="Path_29278" data-name="Path 29278" d="M575.776,353.768a.716.716,0,1,1-.968.3.716.716,0,0,1,.968-.3" transform="translate(-502.449 -309.207)" fill="#6c63ff"/>
      <path id="Path_29279" data-name="Path 29279" d="M560.127,212.753a4.751,4.751,0,0,1,2.247,3.689c.015.212.052.455-.121.614a.394.394,0,0,1-.488.049.516.516,0,0,1,.42-.9c.563.048.865.6,1.11,1.037a6.784,6.784,0,0,0,2.229,2.61,3.134,3.134,0,0,0,3.118.19c.17-.095.01-.352-.159-.257a2.9,2.9,0,0,1-3.043-.35,5.542,5.542,0,0,1-1.291-1.372c-.184-.267-.353-.545-.513-.827a5.355,5.355,0,0,0-.507-.805,1.217,1.217,0,0,0-1.413-.442.829.829,0,0,0-.187,1.318.709.709,0,0,0,1.129-.355,2.069,2.069,0,0,0-.013-.8,5.054,5.054,0,0,0-2.378-3.663c-.167-.1-.308.167-.142.266" transform="translate(-489.623 -185.746)" fill="#ccc"/>
      <path id="Path_29280" data-name="Path 29280" d="M676.784,163.51A3.78,3.78,0,0,1,675,160.576c-.012-.168-.041-.362.1-.488a.313.313,0,0,1,.388-.039.41.41,0,0,1-.334.718c-.448-.039-.687-.475-.883-.825a5.4,5.4,0,0,0-1.773-2.076,2.493,2.493,0,0,0-2.48-.152c-.135.076-.009.28.126.2a2.308,2.308,0,0,1,2.42.278,4.406,4.406,0,0,1,1.027,1.092c.147.213.281.433.408.658a4.269,4.269,0,0,0,.4.641.968.968,0,0,0,1.123.351.659.659,0,0,0,.149-1.048.563.563,0,0,0-.9.282,1.641,1.641,0,0,0,.01.635,4.02,4.02,0,0,0,1.892,2.913c.133.079.245-.133.113-.212Z" transform="translate(-585.701 -137.65)" fill="#ccc"/>
      <rect id="Rectangle_6995" data-name="Rectangle 6995" width="2.351" height="0.716" transform="matrix(0.47, -0.883, 0.883, 0.47, 86.258, 34.575)" fill="#ccc"/>
      <rect id="Rectangle_6996" data-name="Rectangle 6996" width="0.704" height="2.312" transform="translate(77.868 23.742) rotate(-17.007)" fill="#b3b3b3"/>
      <rect id="Rectangle_6997" data-name="Rectangle 6997" width="2.312" height="0.704" transform="translate(66.504 48.168) rotate(-17.007)" fill="#ff6584"/>
      <path id="Path_29281" data-name="Path 29281" d="M307.424,199.137a11.69,11.69,0,1,1-11.69,11.69,11.69,11.69,0,0,1,11.69-11.69" transform="translate(-258.544 -174.094)" fill="#006dd6"/>
      <path id="Path_29282" data-name="Path 29282" d="M351.945,265.746a1.212,1.212,0,0,1-.729-.242l-.013-.01-2.747-2.1a1.221,1.221,0,0,1,1.486-1.938l1.78,1.365,4.205-5.486a1.22,1.22,0,0,1,1.71-.227h0l-.026.036.027-.036a1.222,1.222,0,0,1,.226,1.711l-4.946,6.45a1.221,1.221,0,0,1-.971.476Z" transform="translate(-304.224 -224.554)" fill="#fff"/>
      <path id="Path_29283" data-name="Path 29283" d="M323.632,149.461a.426.426,0,0,1-.425-.425.4.4,0,0,1,.011-.1l2.2-9.695a.427.427,0,0,1,.707-.219l7.3,6.757a.428.428,0,0,1-.162.721l-9.5,2.941a.44.44,0,0,1-.128.019" transform="translate(-282.562 -121.44)" fill="#3f3d56"/>
      <path id="Path_29284" data-name="Path 29284" d="M342.182,157.906l-4.583-.912.072-.318,4.053.806Z" transform="translate(-295.143 -136.973)" fill="#fff"/>
      <path id="Path_29285" data-name="Path 29285" d="M341.823,178.7l-8.763-1.744.072-.32,8.232,1.637Z" transform="translate(-291.175 -154.422)" fill="#fff"/>
      <path id="Path_29286" data-name="Path 29286" d="M334.73,197.825l-.658.2-5.54-1.1.072-.32Z" transform="translate(-287.216 -171.882)" fill="#fff"/>
      <path id="Path_29287" data-name="Path 29287" d="M183.079,320.416a.969.969,0,1,1-.706,1.175.969.969,0,0,1,.706-1.175" transform="translate(-159.413 -280.097)" fill="#6c63ff"/>
      <path id="Path_29288" data-name="Path 29288" d="M117.088,142.14a.692.692,0,1,1-.5.839.692.692,0,0,1,.5-.839" transform="translate(-101.904 -124.247)" fill="#ff6584"/>
      <path id="Path_29289" data-name="Path 29289" d="M148.783,286.277a.692.692,0,1,1-.5.839.692.692,0,0,1,.5-.839" transform="translate(-129.614 -250.258)" fill="#6c63ff"/>
      <path id="Path_29290" data-name="Path 29290" d="M177.03,372.266a.692.692,0,1,1-.5.839.692.692,0,0,1,.5-.839" transform="translate(-154.309 -325.433)" fill="#e6e6e6"/>
      <path id="Path_29291" data-name="Path 29291" d="M82.627,193.856a.692.692,0,1,1-.5.839.692.692,0,0,1,.5-.839" transform="translate(-71.776 -169.459)" fill="#ccc"/>
      <path id="Path_29292" data-name="Path 29292" d="M181.264,271.6a3.655,3.655,0,0,1-2.316-2.383c-.047-.157-.117-.332-.014-.481a.3.3,0,0,1,.358-.12.4.4,0,0,1-.161.749c-.43.06-.751-.3-1.01-.588A5.232,5.232,0,0,0,176,267.2a2.411,2.411,0,0,0-2.372.39c-.111.1.052.266.163.166a2.234,2.234,0,0,1,2.342-.258,4.264,4.264,0,0,1,1.2.809c.184.169.358.348.526.533a4.15,4.15,0,0,0,.518.518.937.937,0,0,0,1.135.09.638.638,0,0,0-.085-1.02.545.545,0,0,0-.786.459,1.59,1.59,0,0,0,.146.6,3.888,3.888,0,0,0,2.411,2.341c.142.046.2-.178.061-.224Z" transform="translate(-151.763 -233.473)" fill="#ccc"/>
      <rect id="Rectangle_6998" data-name="Rectangle 6998" width="2.235" height="0.68" transform="translate(12.777 33.422) rotate(-59.002)" fill="#b3b3b3"/>
      <path id="Path_29293" data-name="Path 29293" d="M92.079,379.12a.969.969,0,1,1-.706,1.175.969.969,0,0,1,.706-1.175" transform="translate(-79.858 -331.418)" fill="#6c63ff"/>
    </g>
  </g>
</svg>
