<svg id="Group_40282" data-name="Group 40282" xmlns="http://www.w3.org/2000/svg" width="87.997" height="87.998" viewBox="0 0 87.997 87.998">
  <g id="Group_40282-2" data-name="Group 40282" transform="translate(0 0)">
    <path id="Path_2319" data-name="Path 2319" d="M90.267,88.928h-3l2.494,2.492H10.383V12.044l2.492,2.494v-3L9.34,8,5.8,11.535v3L8.3,12.044V93.506H89.759L87.264,96h3L93.8,92.463Z" transform="translate(-5.805 -8)"/>
    <path id="Path_2320" data-name="Path 2320" d="M46.111,35.822,32.556,28.076,19,35.822V51.3l13.556,7.746L46.111,51.3Zm-22.94,2.523a2.085,2.085,0,1,1,2.085,2.086A2.086,2.086,0,0,1,23.171,38.345Zm4.171,12.513a2.086,2.086,0,1,1,2.085-2.086A2.085,2.085,0,0,1,27.342,50.858ZM33.6,40.431a2.085,2.085,0,1,1,2.085,2.086A2.086,2.086,0,0,1,33.6,40.431Zm4.171,12.513a2.086,2.086,0,1,1,2.085-2.086A2.086,2.086,0,0,1,37.769,52.944Z" transform="translate(8.518 13.792)"/>
    <path id="Path_2321" data-name="Path 2321" d="M39.556,16.076,26,23.822V39.3l13.556,7.746L53.111,39.3V23.822ZM30.171,28.431a2.086,2.086,0,1,1,2.085-2.086A2.085,2.085,0,0,1,30.171,28.431Zm10.427,0a2.086,2.086,0,1,1,2.085-2.086A2.086,2.086,0,0,1,40.6,28.431Zm6.256,10.428a2.086,2.086,0,1,1,2.085-2.086A2.086,2.086,0,0,1,46.855,38.858Z" transform="translate(16.116 0.766)"/>
  </g>
  <g id="Group_40283" data-name="Group 40283" transform="translate(6.663 16.842)">
    <path id="Path_2322" data-name="Path 2322" d="M39.111,23.822,25.556,16.076,12,23.822V39.3l13.556,7.746L39.111,39.3Zm-16.684.438a2.086,2.086,0,1,1,2.085-2.086A2.086,2.086,0,0,1,22.427,24.26Z" transform="translate(-5.744 -16.076)"/>
    <path id="Path_2323" data-name="Path 2323" d="M9,31.055V56.063l5.214,2.979L27.769,51.3V35.822L14.214,28.076ZM23.6,42.516A2.086,2.086,0,1,1,21.513,44.6,2.086,2.086,0,0,1,23.6,42.516Z" transform="translate(-9 -3.05)"/>
    <path id="Path_2324" data-name="Path 2324" d="M26,47.822v6.694H53.111V47.822L39.556,40.076Zm16.684-1.648A2.086,2.086,0,1,1,40.6,48.26,2.085,2.085,0,0,1,42.684,46.174Z" transform="translate(9.453 9.977)"/>
  </g>
</svg>
